<svg width="38" height="42" viewBox="0 0 38 42" fill="none" xmlns="http://www.w3.org/2000/svg">
<path d="M34.603 5.02021L36.5594 32.5752C36.5594 32.5752 37.4576 40.6142 18.737 40.6142C0.751766 40.6142 1.67299 33.0749 1.67299 33.0749L3.57243 9.82314L3.86702 4.78062C4.02089 2.1469 4.02087 1.03537 6.8566 1.00534C7.99089 0.993374 8.12177 1.00526 8.95068 1.00524L30.1515 1.03537C32.7708 1.03537 34.4207 2.77086 34.603 5.02021Z" fill="#FFCC5A" stroke="black" stroke-width="1.01456" stroke-miterlimit="10"/>
<path d="M1.23534 1.00146H6.79108C6.60837 8.31321 3.69239 7.87277 3.69239 7.87277C3.69239 7.05192 3.59818 6.92866 2.93236 6.4073L1.46577 5.51496C1.34737 5.4447 1.35374 5.27708 1.47468 5.21299L3.59818 4.0914L3.92282 3.92994C4.27037 3.7241 4.21436 3.48869 4.01066 3.31737C4.00812 3.31614 4.00684 3.31367 4.0043 3.31244C3.13351 2.59758 1.11312 1.3059 1.11312 1.3059C0.990909 1.19744 1.06984 1.00146 1.23534 1.00146Z" fill="#FFCC5A"/>
<path d="M8.25209 1.00146H1.23534C1.06984 1.00146 0.990909 1.19744 1.11312 1.3059C1.11312 1.3059 3.13351 2.59758 4.0043 3.31244C4.00684 3.31368 4.00812 3.31614 4.01066 3.31737C4.21436 3.48869 4.27037 3.7241 3.92282 3.92994L3.59818 4.0914L1.47468 5.21299C1.35374 5.27708 1.34737 5.4447 1.46577 5.51496L2.93236 6.4073C3.59818 6.92866 3.69239 7.05192 3.69239 7.87277" stroke="black" stroke-width="1.01475" stroke-miterlimit="10"/>
<path d="M21.5042 19.8091C21.575 19.2179 21.408 18.6228 21.04 18.1547C20.672 17.6867 20.1332 17.384 19.542 17.3132C18.9508 17.2424 18.3558 17.4094 17.8877 17.7774C17.4196 18.1454 17.1169 18.6842 17.0462 19.2754" stroke="black" stroke-width="1.0122"/>
<circle cx="28.7032" cy="18.6925" r="7.35119" transform="rotate(6.82605 28.7032 18.6925)" fill="#007EFF" stroke="black" stroke-width="1.0122"/>
<circle cx="9.73563" cy="18.9645" r="7.35119" transform="rotate(6.82605 9.73563 18.9645)" fill="#007EFF" stroke="black" stroke-width="1.0122"/>
<path d="M23.5689 30.5576C21.0445 30.5576 17.7927 32.4831 14.5545 31.351C11.1234 30.1514 14.5546 35.462 19.2805 35.462C25.8444 35.462 26.2819 30.5576 23.5689 30.5576Z" fill="white" stroke="black" stroke-width="0.875777"/>
</svg>
