<svg width="28" height="28" viewBox="0 0 28 28" fill="none" xmlns="http://www.w3.org/2000/svg">
<g clip-path="url(#clip0_344_791)">
<path d="M13.7431 27.5C21.182 27.5 27.2125 21.4558 27.2125 14C27.2125 6.54416 21.182 0.5 13.7431 0.5C6.30413 0.5 0.273682 6.54416 0.273682 14C0.273682 21.4558 6.30413 27.5 13.7431 27.5Z" fill="#EDEDED"/>
<path d="M26.3747 18.6957C26.9161 17.2332 27.2125 15.6514 27.2125 14.0001C27.2125 12.3487 26.9161 10.7669 26.3747 9.30444H1.11147C0.570061 10.7669 0.273682 12.3487 0.273682 14.0001C0.273682 15.6514 0.570061 17.2332 1.11147 18.6957L13.7431 19.8696L26.3747 18.6957Z" fill="#0052B4"/>
<path d="M13.7432 27.4999C19.5345 27.4999 24.4717 23.8364 26.3748 18.6956H1.11157C3.0147 23.8364 7.95181 27.4999 13.7432 27.4999Z" fill="#D80027"/>
</g>
<defs>
<clipPath id="clip0_344_791">
<rect width="26.9388" height="27" fill="white" transform="translate(0.273682 0.5)"/>
</clipPath>
</defs>
</svg>
