<svg width="28" height="28" viewBox="0 0 28 28" fill="none" xmlns="http://www.w3.org/2000/svg">
<g clip-path="url(#clip0_344_168)">
<path d="M13.755 27.5C21.194 27.5 27.2244 21.4558 27.2244 14C27.2244 6.54416 21.194 0.5 13.755 0.5C6.31609 0.5 0.285645 6.54416 0.285645 14C0.285645 21.4558 6.31609 27.5 13.755 27.5Z" fill="#F0F0F0"/>
<path d="M3.07012 5.78101C2.01209 7.1607 1.21429 8.7509 0.749756 10.4784H7.75689L3.07012 5.78101Z" fill="#0052B4"/>
<path d="M26.7604 10.4784C26.2959 8.7509 25.4981 7.1607 24.4401 5.78101L19.7534 10.4784H26.7604Z" fill="#0052B4"/>
<path d="M0.749756 17.5217C1.21434 19.2492 2.01214 20.8394 3.07012 22.219L7.75673 17.5217H0.749756Z" fill="#0052B4"/>
<path d="M21.9555 3.29078C20.579 2.23034 18.9924 1.43073 17.2688 0.965088V7.9881L21.9555 3.29078Z" fill="#0052B4"/>
<path d="M5.55469 24.7092C6.93125 25.7697 8.51785 26.5693 10.2414 27.0349V20.012L5.55469 24.7092Z" fill="#0052B4"/>
<path d="M10.2414 0.965088C8.5178 1.43073 6.9312 2.23034 5.55469 3.29073L10.2414 7.98804V0.965088Z" fill="#0052B4"/>
<path d="M17.2688 27.0349C18.9924 26.5693 20.579 25.7697 21.9555 24.7093L17.2688 20.012V27.0349Z" fill="#0052B4"/>
<path d="M19.7534 17.5217L24.4401 22.2191C25.4981 20.8395 26.2959 19.2492 26.7604 17.5217H19.7534Z" fill="#0052B4"/>
<path d="M27.1104 12.2391H15.512H15.5119V0.614275C14.9368 0.539234 14.3505 0.5 13.755 0.5C13.1595 0.5 12.5733 0.539234 11.9982 0.614275V12.239V12.2391H0.399661C0.32479 12.8155 0.285645 13.4032 0.285645 14C0.285645 14.5969 0.32479 15.1845 0.399661 15.7609H11.9981H11.9981V27.3857C12.5733 27.4608 13.1595 27.5 13.755 27.5C14.3505 27.5 14.9368 27.4608 15.5119 27.3857V15.761V15.7609H27.1104C27.1853 15.1845 27.2244 14.5969 27.2244 14C27.2244 13.4032 27.1853 12.8155 27.1104 12.2391Z" fill="#D80027"/>
<path d="M17.2688 17.5218L23.2793 23.5459C23.5557 23.269 23.8194 22.9794 24.071 22.6793L18.9252 17.5217H17.2688V17.5218Z" fill="#D80027"/>
<path d="M10.2413 17.5217H10.2412L4.23071 23.5458C4.50705 23.8229 4.79595 24.0872 5.09544 24.3394L10.2413 19.1818V17.5217Z" fill="#D80027"/>
<path d="M10.2412 10.4784V10.4783L4.23071 4.4541C3.95427 4.73106 3.69057 5.02063 3.43896 5.32079L8.58485 10.4784H10.2412V10.4784Z" fill="#D80027"/>
<path d="M17.2688 10.4784L23.2794 4.45414C23.003 4.17707 22.7141 3.91277 22.4146 3.66064L17.2688 8.81823V10.4784Z" fill="#D80027"/>
</g>
<defs>
<clipPath id="clip0_344_168">
<rect width="26.9388" height="27" fill="white" transform="translate(0.285645 0.5)"/>
</clipPath>
</defs>
</svg>
