<svg width="98" height="75" viewBox="0 0 98 75" fill="none" xmlns="http://www.w3.org/2000/svg">
<path d="M86.6141 17.6816L83.8842 18.4734C79.479 19.7512 75.8801 23.6326 76.2992 27.9819C76.4113 29.2347 76.8333 30.4297 77.533 31.4808C78.233 32.5325 79.1891 33.4076 80.3248 34.0522C81.46 34.6965 82.7483 35.0958 84.0972 35.2316C85.4461 35.3674 86.8292 35.2372 88.1523 34.8533L91.3244 33.9332L95.1996 47.3034C95.3873 47.951 95.2814 48.6909 94.8445 49.366C94.4044 50.0461 93.6696 50.5899 92.7875 50.8457L18.4021 72.4222C17.52 72.6781 16.6084 72.6118 15.8729 72.2727C15.1428 71.9361 14.6576 71.3677 14.47 70.7201L10.5947 57.3499L13.7668 56.4298C13.7668 56.4298 13.7668 56.4298 13.7669 56.4298C15.0901 56.0461 16.3283 55.4159 17.3953 54.5794L16.7784 53.7924L17.3953 54.5794C18.4623 53.7428 19.3373 52.7159 19.9519 51.5641C20.5668 50.4118 20.9067 49.1607 20.9358 47.8976C20.9649 46.6349 20.6823 45.3992 20.107 44.2807C18.1352 40.382 13.0193 39.0287 8.61432 40.3064L5.88439 41.0983L2.00919 27.728C1.82149 27.0805 1.92748 26.3406 2.36435 25.6655C2.80446 24.9854 3.53919 24.4416 4.42128 24.1857L78.8067 2.60927C79.6888 2.35341 80.6004 2.41966 81.3359 2.75875C82.066 3.09536 82.5512 3.66379 82.7389 4.31136L86.6141 17.6816Z" fill="#FFA102" stroke="#FFA305" stroke-width="2"/>
<path d="M29.1933 43.5708L33.8648 42.2158L34.4735 44.3143L29.802 45.6693L29.1933 43.5708ZM42.3409 46.6813C40.8081 47.1259 39.509 47.0807 38.4438 46.5456C37.4606 46.0658 36.7525 45.2161 36.3196 43.9964L39.0385 43.2078C39.2809 43.7705 39.5904 44.1555 39.967 44.3628C40.37 44.6152 40.9364 44.6356 41.6663 44.4238C42.3232 44.2333 42.7681 43.88 43.0009 43.3641C43.2302 42.836 43.2425 42.2191 43.0378 41.5135C42.8332 40.808 42.4841 40.3091 41.9905 40.0171C41.4934 39.7128 40.9164 39.656 40.2595 39.8466C39.2011 40.1535 38.4683 40.742 38.0612 41.6118L36.4189 42.0882L34.4471 34.6084L42.7134 32.2107L43.3644 34.4551L37.3062 36.2124L38.1989 39.4947C38.6107 38.5047 39.4614 37.8228 40.7509 37.4487C41.931 37.1064 43.0032 37.2109 43.9676 37.762C44.9355 38.3254 45.6206 39.3004 46.0228 40.6873C46.4251 42.0741 46.2883 43.3074 45.6123 44.3871C44.952 45.4755 43.8615 46.2402 42.3409 46.6813ZM54.1697 40.7377C55.958 40.219 56.4517 38.5789 55.6506 35.8174L55.4813 35.2334C54.6873 32.4963 53.384 31.3906 51.5714 31.9163C49.7345 32.4492 49.213 34.0842 50.0069 36.8214L50.1869 37.4418C50.9808 40.179 52.3084 41.2776 54.1697 40.7377ZM54.769 43.0764C53.0172 43.5845 51.4766 43.4115 50.1474 42.5573C48.7852 41.7259 47.8147 40.3126 47.236 38.3175L47.0561 37.6971C46.4809 35.7141 46.5549 33.9913 47.278 32.5286C47.9839 31.0973 49.1884 30.1347 50.8915 29.6407C52.5947 29.1466 54.122 29.2971 55.4737 30.092C56.8516 30.9321 57.8299 32.3497 58.4086 34.3448L58.5833 34.947C59.162 36.942 59.1158 38.67 58.4449 40.1307C57.7339 41.5899 56.5086 42.5718 54.769 43.0764ZM62.7217 31.4319C63.111 31.319 63.3763 31.097 63.5176 30.7658C63.6554 30.4225 63.6502 29.9954 63.502 29.4844C63.3609 28.9978 63.1402 28.6464 62.8401 28.4301C62.54 28.2138 62.1953 28.1621 61.806 28.275C61.4045 28.3915 61.1288 28.6231 60.9788 28.97C60.8375 29.3011 60.8392 29.7161 60.9838 30.2149C61.132 30.7258 61.3562 31.0894 61.6563 31.3057C61.9651 31.5063 62.3202 31.5484 62.7217 31.4319ZM63.1798 33.0795C62.2187 33.3583 61.338 33.2774 60.5376 32.837C59.76 32.4295 59.2353 31.7574 58.9636 30.8206C58.699 29.9083 58.8008 29.0544 59.2691 28.2591C59.7253 27.4674 60.4156 26.9374 61.3402 26.6692C62.2647 26.4011 63.1237 26.475 63.917 26.8912C64.7261 27.3159 65.2611 27.9784 65.5223 28.8787C65.7904 29.8032 65.7043 30.6657 65.2638 31.4661C64.8234 32.2665 64.1287 32.8043 63.1798 33.0795ZM68.4939 24.7327L70.1362 24.2563L65.253 39.8177L63.6107 40.2941L68.4939 24.7327ZM70.8809 36.1674C71.1775 36.3715 71.5265 36.4153 71.928 36.2989C72.3294 36.1825 72.6008 35.9587 72.7422 35.6275C72.88 35.2842 72.8765 34.8631 72.7319 34.3644C72.5872 33.8656 72.3665 33.5141 72.0699 33.31C71.7698 33.0937 71.419 33.0438 71.0176 33.1603C70.6161 33.2767 70.3447 33.5005 70.2034 33.8317C70.062 34.1628 70.0655 34.5839 70.2137 35.0948C70.3619 35.6057 70.5843 35.9633 70.8809 36.1674ZM72.4096 37.9595C71.4486 38.2382 70.5679 38.1574 69.7675 37.7169C68.9898 37.3094 68.4652 36.6373 68.1934 35.7006C67.9288 34.7882 68.0289 33.9283 68.4937 33.1208C68.9498 32.3291 69.6341 31.8009 70.5465 31.5362C71.4832 31.2645 72.3482 31.3367 73.1416 31.7528C73.9506 32.1776 74.4857 32.8401 74.7468 33.7403C75.0185 34.6771 74.9341 35.5456 74.4937 36.346C74.0532 37.1464 73.3585 37.6842 72.4096 37.9595Z" fill="black"/>
</svg>
