<svg width="49" height="37" viewBox="0 0 49 37" fill="none" xmlns="http://www.w3.org/2000/svg">
<g clip-path="url(#clip0_0_36)">
<path d="M41.4806 3.29475C38.3575 1.8979 35.0084 0.868758 31.5068 0.279328C31.443 0.267952 31.3793 0.296381 31.3465 0.35324C30.9158 1.09997 30.4387 2.07415 30.1046 2.83985C26.3383 2.29023 22.5914 2.29023 18.9024 2.83985C18.5682 2.05713 18.0738 1.09997 17.6412 0.35324C17.6083 0.298278 17.5446 0.269849 17.4809 0.279328C13.9811 0.866875 10.6321 1.89601 7.50708 3.29475C7.48002 3.30612 7.45683 3.32509 7.44144 3.34971C1.08901 12.6007 -0.65119 21.6242 0.202493 30.5359C0.206355 30.5795 0.231463 30.6212 0.266229 30.6477C4.45739 33.6479 8.51724 35.4693 12.5017 36.6766C12.5655 36.6956 12.633 36.6729 12.6736 36.6217C13.6161 35.367 14.4563 34.0441 15.1767 32.6529C15.2192 32.5714 15.1786 32.4748 15.0917 32.4425C13.7591 31.9498 12.4901 31.349 11.2694 30.6667C11.1729 30.6117 11.1652 30.4771 11.254 30.4127C11.5109 30.225 11.7678 30.0298 12.0131 29.8327C12.0575 29.7967 12.1193 29.7891 12.1715 29.8118C20.1906 33.3807 28.8723 33.3807 36.7969 29.8118C36.849 29.7872 36.9109 29.7948 36.9572 29.8308C37.2025 30.0279 37.4594 30.225 37.7182 30.4127C37.807 30.4771 37.8012 30.6117 37.7047 30.6667C36.484 31.3622 35.2151 31.9498 33.8805 32.4407C33.7936 32.4729 33.7549 32.5714 33.7974 32.6529C34.5333 34.0422 35.3734 35.3651 36.2986 36.6198C36.3372 36.6729 36.4067 36.6956 36.4705 36.6766C40.4743 35.4693 44.5341 33.6479 48.7253 30.6477C48.762 30.6212 48.7852 30.5814 48.789 30.5378C49.8107 20.2349 47.0778 11.2853 41.5443 3.35159C41.5307 3.32509 41.5076 3.30612 41.4806 3.29475ZM16.3742 25.1096C13.9599 25.1096 11.9706 22.949 11.9706 20.2956C11.9706 17.6421 13.9213 15.4815 16.3742 15.4815C18.8464 15.4815 20.8164 17.6611 20.7778 20.2956C20.7778 22.949 18.827 25.1096 16.3742 25.1096ZM32.6559 25.1096C30.2417 25.1096 28.2524 22.949 28.2524 20.2956C28.2524 17.6421 30.203 15.4815 32.6559 15.4815C35.1282 15.4815 37.0982 17.6611 37.0596 20.2956C37.0596 22.949 35.1282 25.1096 32.6559 25.1096Z" fill="#FFA102"/>
</g>
<defs>
<clipPath id="clip0_0_36">
<rect width="49" height="37" fill="white"/>
</clipPath>
</defs>
</svg>
