<svg width="98" height="75" viewBox="0 0 98 75" fill="none" xmlns="http://www.w3.org/2000/svg">
<path d="M86.6141 17.2315L83.8842 18.0233C79.479 19.3011 75.8801 23.1825 76.2992 27.5318C76.4113 28.7846 76.8333 29.9796 77.533 31.0307C78.233 32.0824 79.1891 32.9575 80.3248 33.6021C81.46 34.2464 82.7483 34.6457 84.0972 34.7815C85.4461 34.9173 86.8292 34.7871 88.1523 34.4032L91.3244 33.4831L95.1996 46.8533C95.3873 47.5009 95.2814 48.2408 94.8445 48.9159C94.4044 49.596 93.6696 50.1398 92.7875 50.3956L18.4021 71.9721C17.52 72.228 16.6084 72.1617 15.8729 71.8226C15.1428 71.486 14.6576 70.9176 14.47 70.27L10.5947 56.8998L13.7668 55.9797C13.7668 55.9797 13.7668 55.9797 13.7669 55.9797C15.0901 55.596 16.3283 54.9658 17.3953 54.1293L16.7784 53.3423L17.3953 54.1292C18.4623 53.2926 19.3373 52.2658 19.9519 51.114C20.5668 49.9617 20.9067 48.7106 20.9358 47.4475C20.9649 46.1848 20.6823 44.9491 20.107 43.8305C18.1352 39.9319 13.0193 38.5786 8.61432 39.8563L5.88439 40.6482L2.00919 27.2779C1.82149 26.6304 1.92748 25.8905 2.36435 25.2154C2.80446 24.5353 3.53919 23.9915 4.42128 23.7356L78.8067 2.15917C79.6888 1.90331 80.6004 1.96955 81.3359 2.30865C82.066 2.64525 82.5512 3.21369 82.7389 3.86126L86.6141 17.2315Z" fill="#FFA102" stroke="#FFA305" stroke-width="2"/>
<path d="M29.1933 43.1207L33.8648 41.7657L34.4735 43.8642L29.802 45.2192L29.1933 43.1207ZM42.3655 46.224C40.7354 46.6969 39.3773 46.6753 38.2913 46.1595C37.2052 45.6436 36.4342 44.7132 35.9782 43.3684L38.6423 42.5956C39.2082 44.0009 40.2029 44.4971 41.6262 44.0843C43.0739 43.6644 43.616 42.8279 43.2525 41.5749C42.889 40.3219 42.0078 39.8982 40.6088 40.304L39.5869 40.6005L39.0153 38.6297L39.9642 38.3544C41.2902 37.9698 41.7856 37.1997 41.4504 36.044C41.3092 35.5574 41.0381 35.2139 40.6372 35.0137C40.2448 34.7978 39.7567 34.7745 39.1727 34.9439C38.5523 35.1239 38.1047 35.4449 37.8299 35.9071C37.5638 36.3536 37.4842 36.8977 37.5911 37.5393L34.9817 38.2962C34.6983 37.0463 34.8608 35.9243 35.4693 34.9301C36.095 33.9045 37.1378 33.18 38.5976 32.7565C39.9966 32.3507 41.2068 32.3624 42.2281 32.7915C43.2215 33.2156 43.8682 33.9446 44.1682 34.9787C44.5704 36.3655 44.1262 37.5165 42.8353 38.4317C43.679 38.3848 44.4018 38.5576 45.0036 38.9501C45.6055 39.3427 46.0246 39.9465 46.261 40.7616C46.621 42.0024 46.4549 43.1123 45.7629 44.0911C45.0795 45.0543 43.947 45.7653 42.3655 46.224ZM54.3658 40.2307C56.154 39.712 56.6477 38.0719 55.8467 35.3104L55.6773 34.7265C54.8833 31.9893 53.5801 30.8836 51.7674 31.4094C49.9305 31.9422 49.409 33.5772 50.2029 36.3144L50.3829 36.9348C51.1769 39.672 52.5045 40.7706 54.3658 40.2307ZM54.965 42.5694C53.2132 43.0775 51.6727 42.9045 50.3434 42.0503C48.9812 41.2189 48.0107 39.8056 47.432 37.8105L47.2521 37.1901C46.6769 35.2072 46.7509 33.4843 47.474 32.0217C48.1799 30.5903 49.3844 29.6277 51.0876 29.1337C52.7907 28.6397 54.3181 28.7901 55.6697 29.585C57.0476 30.4251 58.0259 31.8427 58.6046 33.8378L58.7793 34.44C59.358 36.4351 59.3119 38.163 58.6409 39.6237C57.9299 41.0829 56.7046 42.0648 54.965 42.5694ZM62.9177 30.9249C63.307 30.812 63.5723 30.59 63.7136 30.2588C63.8515 29.9155 63.8463 29.4884 63.6981 28.9775C63.5569 28.4908 63.3363 28.1394 63.0361 27.9231C62.736 27.7068 62.3913 27.6551 62.002 27.7681C61.6005 27.8845 61.3248 28.1162 61.1749 28.463C61.0335 28.7942 61.0352 29.2091 61.1799 29.7079C61.3281 30.2188 61.5522 30.5824 61.8524 30.7987C62.1611 30.9993 62.5162 31.0414 62.9177 30.9249ZM63.3758 32.5725C62.4148 32.8513 61.534 32.7705 60.7337 32.33C59.956 31.9225 59.4313 31.2504 59.1596 30.3137C58.895 29.4013 58.9968 28.5474 59.4651 27.7522C59.9213 26.9604 60.6117 26.4304 61.5362 26.1623C62.4608 25.8941 63.3197 25.9681 64.113 26.3842C64.9221 26.809 65.4571 27.4715 65.7183 28.3717C65.9865 29.2962 65.9003 30.1587 65.4598 30.9591C65.0194 31.7595 64.3247 32.2973 63.3758 32.5725ZM68.6899 24.2257L70.3322 23.7493L65.449 39.3107L63.8067 39.7871L68.6899 24.2257ZM71.0769 35.6604C71.3735 35.8645 71.7225 35.9084 72.124 35.7919C72.5254 35.6755 72.7968 35.4517 72.9382 35.1205C73.076 34.7772 73.0726 34.3562 72.9279 33.8574C72.7832 33.3586 72.5626 33.0072 72.266 32.803C71.9658 32.5868 71.615 32.5368 71.2136 32.6533C70.8121 32.7697 70.5407 32.9935 70.3994 33.3247C70.258 33.6558 70.2615 34.0769 70.4097 34.5878C70.5579 35.0988 70.7803 35.4563 71.0769 35.6604ZM72.6057 37.4525C71.6446 37.7312 70.7639 37.6504 69.9635 37.2099C69.1858 36.8024 68.6612 36.1303 68.3895 35.1936C68.1248 34.2812 68.2249 33.4213 68.6897 32.6138C69.1458 31.8221 69.8301 31.2939 70.7425 31.0292C71.6792 30.7575 72.5443 30.8297 73.3376 31.2459C74.1466 31.6706 74.6817 32.3331 74.9428 33.2334C75.2145 34.1701 75.1301 35.0386 74.6897 35.839C74.2492 36.6394 73.5545 37.1772 72.6057 37.4525Z" fill="black"/>
</svg>
