<svg width="32" height="34" viewBox="0 0 32 34" fill="none" xmlns="http://www.w3.org/2000/svg">
<g clip-path="url(#clip0_0_28)">
<path d="M26.7784 4.09699L28.2371 24.6346C28.2371 24.6346 28.9068 30.6264 14.949 30.6264C1.53964 30.6264 2.22649 25.0071 2.22649 25.0071L3.64267 7.67677C3.64267 6.89432 3.55287 6.77684 2.9182 6.27987L1.52022 5.42928C1.40736 5.36231 1.41343 5.20253 1.52872 5.14144L3.55287 4.07232L3.86231 3.91841C4.1936 3.72221 4.14021 3.49781 3.94605 3.33451C3.94362 3.33333 3.94241 3.33098 3.93998 3.32981C3.10993 2.64839 1.18408 1.41714 1.18408 1.41714C1.06758 1.31376 1.14282 1.12695 1.30057 1.12695H6.59637H8.78435H23.4594C25.1972 1.12695 26.6425 2.42047 26.7784 4.09699Z" fill="#FFCC5A" stroke="#F0B829" stroke-width="0.970816" stroke-miterlimit="10"/>
<path d="M18.3534 21.4037C16.6044 21.4037 14.3515 22.7378 12.108 21.9534C9.73083 21.1223 12.108 24.8016 15.3823 24.8016C19.9299 24.8016 20.233 21.4038 18.3534 21.4037Z" fill="white" stroke="#263238" stroke-width="0.60676"/>
<g clip-path="url(#clip1_0_28)">
<path d="M26.5597 10.4092L26.6708 10.5059L26.7832 10.5001C26.7979 10.5021 26.8182 10.5042 26.842 10.5042H27.8601C28.1065 10.5042 28.2976 10.6946 28.2976 10.9333V11.8343C28.2976 12.0905 28.0891 12.2931 27.8601 12.2931H27.3399H26.9759V12.6572V14.2486C26.9759 17.013 24.774 19.2452 22.0585 19.2491C19.3393 19.2491 17.13 17.0151 17.13 14.2486V12.4172V12.3073L17.0693 12.2158C16.6348 11.5616 15.9234 11.1584 15.1239 11.1584C14.437 11.1584 13.8094 11.4566 13.372 11.9593L13.2826 12.0621V12.1983V14.2486C13.2826 17.0137 11.0598 19.2492 8.33932 19.2492H8.32806C5.60752 19.2492 3.38388 17.0137 3.38388 14.2486V12.6572V12.2931H3.01982H2.62859C2.41699 12.2931 2.22075 12.1089 2.22075 11.8343V10.9333C2.22075 10.6765 2.40009 10.5042 2.62859 10.5042H3.59885H3.73957L3.84371 10.4095C3.97952 10.2861 4.14201 10.1975 4.3176 10.1506L4.31834 10.1504C5.27466 9.89304 6.72842 9.58873 8.34032 9.58873C9.95328 9.58873 11.4074 9.88583 12.3623 10.1429L12.3624 10.1429C12.6163 10.2112 12.8425 10.3611 13.0066 10.5712L13.2031 10.8227L13.4782 10.6608C13.9632 10.3752 14.5238 10.2175 15.1153 10.2175C15.7485 10.2175 16.3464 10.3987 16.8544 10.724L17.1492 10.9127L17.3493 10.6256C17.5151 10.388 17.7573 10.2178 18.0329 10.1438L18.033 10.1437C18.9876 9.88674 20.4419 9.59055 22.055 9.59055C23.6677 9.59055 25.1217 9.88943 26.0769 10.1466L26.077 10.1466C26.2555 10.1946 26.4192 10.2868 26.5597 10.4092Z" fill="#263238" stroke="black" stroke-width="0.728112"/>
</g>
</g>
<defs>
<clipPath id="clip0_0_28">
<rect width="31.797" height="33.1675" fill="white" transform="translate(0.0355225)"/>
</clipPath>
<clipPath id="clip1_0_28">
<rect width="26.8629" height="26.0406" fill="white" transform="translate(1.68018 1.09644)"/>
</clipPath>
</defs>
</svg>
