<svg width="31" height="35" viewBox="0 0 31 35" fill="none" xmlns="http://www.w3.org/2000/svg">
<path d="M26.7429 7.77832L28.3921 28.8147C28.5438 30.7503 27.1701 31.8436 25.8352 32.147L15.2776 34.1493L4.99056 32.4043C3.0817 31.9043 2.06355 31.0087 2.19097 29.3766L3.60715 8.11932L3.80981 1.0809C3.80981 1.0809 3.87048 0.898873 4.11319 1.0809C4.35589 1.26293 5.50876 4.71054 5.69077 4.71054C5.87279 4.71054 7.14699 2.23375 7.32902 2.41577C7.51104 2.5978 8.23915 4.71054 8.42119 4.71054H9.6347H23.4239C25.1617 4.71054 26.607 6.04663 26.7429 7.77832Z" fill="#FFCC5A" stroke="#F0B829" stroke-width="0.970816" stroke-miterlimit="10"/>
<path d="M2.41525 19.3199L2.41431 19.3124L2.41307 19.305L1.83398 15.8447C1.72094 14.9584 1.97307 14.1414 2.49905 13.5552C3.03211 12.9611 3.81487 12.6093 4.65347 12.6093H11.6163C12.4744 12.6093 13.2341 12.9687 13.7171 13.5789C13.8324 13.7365 13.9321 13.8978 14.0108 14.0746L14.1302 14.3432L14.418 14.283C14.8684 14.1888 15.3276 14.1891 15.7642 14.2826L16.053 14.3445L16.1731 14.0746C16.2522 13.8966 16.3514 13.7376 16.4728 13.586L16.4728 13.586L16.4769 13.5807C16.9466 12.9716 17.7056 12.6093 18.5792 12.6093H25.542C26.38 12.6093 27.1622 12.9606 27.6953 13.5539C28.2126 14.1427 28.4628 14.9615 28.3613 15.7996L27.7707 19.3518L27.7694 19.3596L27.7685 19.3674C27.5707 20.9899 26.0698 22.3175 24.3815 22.3175H20.9001C19.257 22.3175 17.6382 21.0514 17.2379 19.4617L17.2346 19.4486L17.2303 19.4358L16.1859 16.2933L16.1494 16.1836L16.0563 16.115C15.4869 15.6958 14.6969 15.6958 14.1276 16.115L14.0343 16.1837L13.9978 16.2937L12.9302 19.5173L12.9258 19.5305L12.9225 19.544C12.5461 21.0589 10.9428 22.3175 9.29536 22.3175H5.81394C4.11784 22.3175 2.62459 20.9933 2.41525 19.3199Z" fill="#0C6A54" stroke="black" stroke-width="0.728112"/>
<path d="M18.1732 24.9642C16.4242 24.9642 14.1713 26.2983 11.9278 25.5139C9.55065 24.6828 11.9278 28.3621 15.2021 28.3621C19.7497 28.3621 20.0529 24.9642 18.1732 24.9642Z" fill="white" stroke="#263238" stroke-width="0.60676"/>
</svg>
