<svg width="45" height="42" viewBox="0 0 45 42" fill="none" xmlns="http://www.w3.org/2000/svg">
<path d="M3.90873 33.4936L5.96287 5.20008C6.13215 2.87098 7.93236 1.07397 10.0968 1.07397H28.3754H31.1007H37.6969C37.8934 1.07397 37.9871 1.33349 37.842 1.47712C37.842 1.47712 35.4432 3.18762 34.4094 4.13428C34.4063 4.13591 34.4048 4.13917 34.4018 4.14081C34.16 4.36768 34.0935 4.67942 34.5061 4.95199L34.8915 5.1658L37.4127 6.65107C37.5563 6.73594 37.5639 6.95792 37.4233 7.05095L35.6821 8.23263C34.8915 8.92304 34.7797 9.08626 34.7797 10.1733L36.5436 34.2493C36.7023 36.4445 35.0956 38.3215 33.0566 38.3215H8.04119C5.62429 38.3215 3.71979 36.0969 3.90873 33.4936Z" fill="#FFCC5A" stroke="black" stroke-width="1.2069" stroke-miterlimit="10"/>
<path d="M7.71327 34.9045H20.2239V1.75757H9.80631C8.16828 1.75757 6.80614 3.02413 6.67902 4.66542L4.58598 31.5042C4.44298 33.3373 5.88312 34.9045 7.71327 34.9045Z" fill="#FFCC5A"/>
<path d="M3.93834 33.4936L6.00186 5.20008C6.17192 2.87098 7.98034 1.07397 10.1547 1.07397H28.5168H31.2545H37.8808C38.0782 1.07397 38.1723 1.33349 38.0265 1.47712C38.0265 1.47712 35.6168 3.18762 34.5783 4.13428C34.5752 4.13591 34.5737 4.13917 34.5707 4.14081C34.3277 4.36768 34.2609 4.67942 34.6754 4.95199L35.0626 5.1658L37.5953 6.65107C37.7396 6.73594 37.7472 6.95792 37.606 7.05095L35.8567 8.23263C35.0626 8.92304 34.9503 9.08626 34.9503 10.1733L36.7222 34.2493C36.8817 36.4445 35.2676 38.3215 33.2193 38.3215H8.08967C5.66174 38.3215 3.74854 36.0969 3.93834 33.4936Z" stroke="black" stroke-width="1.2069" stroke-miterlimit="10"/>
<path d="M24.3692 27.7571C22.1888 27.7571 19.3802 29.4201 16.5834 28.4423C13.6199 27.4062 16.5834 31.993 20.6653 31.993C26.3345 31.993 26.7125 27.7571 24.3692 27.7571Z" fill="white" stroke="#263238" stroke-width="0.756416"/>
<path d="M4.85483 15.3703L4.80568 14.9733H4.40567H3.31617V11.7092H37.2603V14.9733H36.1708H35.7708L35.7216 15.3703L34.8676 22.2696H23.1656L21.9025 15.4702V15.4259C21.9025 15.0126 21.7191 14.6276 21.4119 14.352C21.1063 14.0778 20.7015 13.931 20.2882 13.931C19.875 13.931 19.4701 14.0778 19.1646 14.352C18.8574 14.6276 18.674 15.0126 18.674 15.4259V15.4702L17.4108 22.2696H5.70886L4.85483 15.3703Z" fill="#6376A8" stroke="black" stroke-width="0.905176"/>
</svg>