<svg width="111" height="125" viewBox="0 0 111 125" fill="none" xmlns="http://www.w3.org/2000/svg">
<path d="M98.1003 21.7984L103.4 96.6984C103.4 96.6984 105.8 118.598 54.9003 118.598C6.00029 118.598 8.50029 98.0984 8.50029 98.0984L13.7003 34.8984C13.7003 31.9984 13.4003 31.5984 11.1003 29.7984L6.00029 26.6984C5.60029 26.4984 5.60029 25.8984 6.00029 25.5984L13.4003 21.6984L14.5003 21.0984C15.7003 20.3984 15.5003 19.5984 14.8003 18.9984C11.8003 16.4984 4.70029 11.9984 4.70029 11.9984C4.30029 11.5984 4.50029 10.8984 5.10029 10.8984H24.4003H32.4003H85.9003C92.3003 10.8984 97.6003 15.6984 98.1003 21.7984Z" fill="#FFCC5A" stroke="black" stroke-width="3.5417" stroke-miterlimit="10"/>
<path d="M97.3004 44.7984L97.7004 45.1984H98.1004C98.2004 45.1984 98.2004 45.1984 98.3004 45.1984H102C102.9 45.1984 103.6 45.8984 103.6 46.7984V49.9984C103.6 50.8984 102.8 51.6984 102 51.6984H100.1H98.8004V52.9984V58.7984C98.8004 68.8984 90.8004 76.9984 80.8004 76.9984C70.9004 76.9984 62.8004 68.7984 62.8004 58.7984V52.0984V51.6984L62.6004 51.3984C61.0004 48.9984 58.4004 47.4984 55.5004 47.4984C53.0004 47.4984 50.7004 48.5984 49.1004 50.3984L48.8004 50.7984V51.2984V58.7984C48.8004 68.8984 40.7004 76.9984 30.8004 76.9984C20.9004 76.9984 12.8004 68.7984 12.8004 58.7984V52.9984V51.6984H11.5004H9.90039C9.10039 51.6984 8.40039 50.9984 8.40039 49.9984V46.6984C8.40039 45.7984 9.10039 45.0984 9.90039 45.0984H13.4004H14.0004L14.4004 44.7984C14.9004 44.2984 15.5004 43.9984 16.1004 43.8984C19.6004 42.9984 24.9004 41.8984 30.8004 41.8984C36.7004 41.8984 42.0004 42.9984 45.5004 43.8984C46.4004 44.0984 47.3004 44.6984 47.9004 45.4984L48.6004 46.3984L49.6004 45.7984C51.4004 44.7984 53.4004 44.1984 55.6004 44.1984C57.9004 44.1984 60.1004 44.8984 61.9004 45.9984L63.0004 46.6984L63.7004 45.6984C64.3004 44.7984 65.2004 44.1984 66.2004 43.8984C69.7004 42.9984 75.0004 41.8984 80.9004 41.8984C86.8004 41.8984 92.1004 42.9984 95.6004 43.8984C96.1004 43.9984 96.7004 44.3984 97.3004 44.7984Z" fill="#263238" stroke="black" stroke-width="2.6563"/>
<path d="M67.3002 84.8984C60.9002 84.8984 52.7002 89.7984 44.5002 86.8984C35.8002 83.8984 44.5002 97.2984 56.4002 97.2984C73.1002 97.2984 74.2002 84.8984 67.3002 84.8984Z" fill="white" stroke="#263238" stroke-width="2.2136"/>
</svg>
