<svg width="51" height="50" viewBox="0 0 51 50" fill="none" xmlns="http://www.w3.org/2000/svg">
<path d="M43.0705 7.00789L45.388 39.6383C45.388 39.6383 46.452 49.1581 24.2758 49.1581C2.97083 49.1581 4.0621 40.2301 4.0621 40.2301L6.31214 12.6955C6.31214 11.4523 6.16946 11.2657 5.16109 10.4761L2.93997 9.12464C2.76066 9.01824 2.7703 8.76438 2.95347 8.66732L6.16946 6.96869L6.66111 6.72416C7.18747 6.41243 7.10264 6.05591 6.79415 5.79645C6.79029 5.79458 6.78836 5.79085 6.78451 5.78898C5.46572 4.70634 2.4059 2.75012 2.4059 2.75012C2.22081 2.58586 2.34034 2.28906 2.59099 2.28906H11.005H14.4813H37.7973C40.5582 2.28906 42.8545 4.34422 43.0705 7.00789Z" fill="#FFCC5A" stroke="black" stroke-width="1.54244" stroke-miterlimit="10"/>
<g clip-path="url(#clip0_0_234)">
<path d="M29.6838 34.5059C26.905 34.5058 23.3255 36.6254 19.761 35.3792C15.9842 34.0587 19.7611 39.9044 24.9632 39.9044C32.1885 39.9044 32.6702 34.5059 29.6838 34.5059Z" fill="white" stroke="#263238" stroke-width="0.964027"/>
<g clip-path="url(#clip1_0_234)">
<path d="M42.9009 17.1922L42.7245 17.0385C42.5013 16.844 42.2411 16.6975 41.9575 16.6212L41.9575 16.6212C40.4397 16.2127 38.1296 15.7378 35.5673 15.7378C33.0044 15.7378 30.6939 16.2084 29.1772 16.6167L29.177 16.6167C28.7391 16.7345 28.3543 17.0047 28.091 17.3823L27.7729 17.8384L27.3046 17.5386C26.4975 17.0218 25.5475 16.7339 24.5415 16.7339C23.6017 16.7339 22.7111 16.9845 21.9404 17.4382L21.5034 17.6955L21.1912 17.2958C20.9304 16.962 20.5711 16.7239 20.1676 16.6154L20.1675 16.6153C18.6504 16.207 16.34 15.7349 13.7773 15.7349C11.2163 15.7349 8.90659 16.2184 7.38717 16.6273L7.386 16.6277C7.10701 16.7021 6.84886 16.8429 6.63307 17.039L6.46762 17.1894H6.24405H4.70248C4.33943 17.1894 4.05449 17.4633 4.05449 17.8711V19.3027C4.05449 19.739 4.36629 20.0316 4.70248 20.0316H5.32408H5.90249V20.6101V23.1386C5.90249 27.5318 9.43543 31.0835 13.7579 31.0835H13.7757C18.0981 31.0835 21.6297 27.5318 21.6297 23.1386V19.881V19.6646L21.7717 19.5014C22.4666 18.7026 23.4639 18.2288 24.5552 18.2288C25.8255 18.2288 26.9558 18.8694 27.646 19.9088L27.7425 20.0542V20.2288V23.1385C27.7425 27.5339 31.2527 31.0834 35.5729 31.0834V31.6618C40.2147 31.6556 43.9641 27.842 43.9641 23.1386L42.9009 17.1922ZM42.9009 17.1922L43.0796 17.1829C43.1029 17.1861 43.1352 17.1894 43.173 17.1894H44.7906C45.1821 17.1894 45.4857 17.4919 45.4857 17.8711V19.3027C45.4857 19.7097 45.1545 20.0316 44.7906 20.0316H43.9641H43.3857V20.6101V23.1386C43.3857 27.5345 39.8812 31.0833 35.5616 31.0834M42.9009 17.1922L35.5616 31.0834M35.5616 31.0834C35.5616 31.0834 35.5614 31.0834 35.5613 31.0834V31.6618C30.9195 31.6555 27.1641 27.8419 27.1641 23.1385L35.5616 31.0834ZM43.0243 17.1732L43.0271 17.1737C43.024 17.1732 43.0221 17.1728 43.0243 17.1732Z" fill="#263238" stroke="black" stroke-width="1.15683"/>
</g>
</g>
<defs>
<clipPath id="clip0_0_234">
<rect width="50.515" height="40.1035" fill="white" transform="translate(0.371094 0.572266)"/>
</clipPath>
<clipPath id="clip1_0_234">
<rect width="42.9956" height="29.4992" fill="white" transform="translate(3.06592 2.11548)"/>
</clipPath>
</defs>
</svg>
