<svg width="41" height="41" viewBox="0 0 41 41" fill="none" xmlns="http://www.w3.org/2000/svg">
<path d="M39.5488 23.9224C39.5359 23.9947 39.5267 24.0677 39.5131 24.14L39.443 23.7259C39.4814 23.7905 39.5131 23.8576 39.5488 23.9226C39.7623 22.7621 39.8704 21.5847 39.8715 20.4046C39.8715 17.7849 39.3598 15.2432 38.3489 12.8506C37.3736 10.5395 35.9783 8.4638 34.1993 6.68178C32.4228 4.89976 30.3507 3.50095 28.0464 2.52341C25.6602 1.51135 23.1248 0.998414 20.5114 0.998414C19.2798 0.998414 18.0459 1.11433 16.8454 1.34535C16.8428 1.34599 16.8396 1.34599 16.8363 1.34663C16.9039 1.38243 16.9721 1.41438 17.0382 1.45147L16.6311 1.38757C16.6993 1.37473 16.7682 1.36028 16.8363 1.34663C15.1892 0.468784 13.3365 0 11.4614 0C8.4002 0 5.52171 1.19492 3.35687 3.36561C1.19268 5.53567 0 8.42094 0 11.4897C0.00103923 13.4391 0.497318 15.356 1.44205 17.0599C1.45438 16.9896 1.46287 16.9186 1.47648 16.8483L1.54663 17.2551C1.51027 17.1914 1.4784 17.1249 1.44205 17.0599C1.24936 18.1644 1.15184 19.2834 1.15056 20.4046C1.15056 23.025 1.66226 25.5661 2.67317 27.9593C3.64708 30.2711 5.04316 32.3453 6.82025 34.1273C8.59927 35.9095 10.6686 37.3102 12.9755 38.2852C15.3619 39.2992 17.8979 39.8128 20.5114 39.8128C21.649 39.8128 22.7891 39.7086 23.9019 39.5108C23.837 39.4744 23.7709 39.4411 23.7046 39.4028L24.1182 39.4756C24.0468 39.4893 23.9748 39.4978 23.902 39.5108C25.6219 40.4865 27.5643 40.9996 29.5405 41C32.6012 41 35.4783 39.8068 37.6431 37.6357C39.8084 35.4669 41 32.581 41 29.5122C40.999 27.5555 40.4995 25.6316 39.5488 23.9226V23.9224ZM20.5886 32.2901C13.7107 32.2901 10.6336 28.9004 10.6336 26.3601C10.6336 25.057 11.5932 24.1438 12.9158 24.1438C15.8592 24.1438 15.0968 28.3804 20.5886 28.3804C23.4001 28.3804 24.9525 26.8501 24.9525 25.2842C24.9525 24.3424 24.489 23.2983 22.6378 22.8407L16.5201 21.3099C11.5932 20.0714 10.6991 17.4015 10.6991 14.8918C10.6991 9.68104 15.5935 7.7245 20.1899 7.7245C24.424 7.7245 29.4153 10.0702 29.4153 13.1963C29.4153 14.5358 28.2581 15.3148 26.936 15.3148C24.424 15.3148 24.8864 11.8294 19.8264 11.8294C17.3155 11.8294 15.9247 12.9693 15.9247 14.6002C15.9247 16.2281 17.9077 16.7481 19.6296 17.1411L24.1578 18.1487C29.1178 19.2564 30.3756 22.1594 30.3756 24.8936C30.3756 29.1282 27.1329 32.2901 20.5886 32.2901ZM23.7046 39.4028C23.7709 39.4413 23.837 39.4744 23.902 39.5108C23.9748 39.4978 24.0468 39.4893 24.1182 39.4755L23.7046 39.4028ZM39.5131 24.14C39.5267 24.0677 39.5359 23.9949 39.5488 23.9226C39.5131 23.8574 39.4812 23.7905 39.4431 23.7259L39.5131 24.14ZM1.47648 16.8483C1.46287 16.9186 1.45438 16.9896 1.44205 17.0599C1.4784 17.1249 1.51027 17.1914 1.54663 17.2551L1.47648 16.8483ZM17.0382 1.45147C16.9721 1.41438 16.9039 1.38243 16.8364 1.34663C16.7682 1.36028 16.6993 1.37457 16.6311 1.38757L17.0382 1.45147Z" fill="#FFA102"/>
</svg>
