<svg width="1541" height="165" viewBox="0 0 1541 165" fill="none" xmlns="http://www.w3.org/2000/svg">
<path d="M55.2275 78C47.6492 91.5 32.889 91.1695 21.5258 92.1801L12.7873 100C6.77404 103.032 37.065 117.094 42.0782 120.981C55.1125 131.087 46.5928 146.751 59.1257 150.793C72.3921 155.072 324.824 154.835 386.988 156.856C449.151 158.878 1097.35 159.888 1146.48 159.888C1195.61 159.888 1446.27 161.909 1469.33 148.772C1492.39 135.634 1485.37 69.947 1477.35 26.4926C1472.28 -0.999512 1411.18 8.30301 1337.99 8.30301C1264.79 8.30301 659.221 13.0106 627.137 12L626.973 11.9949C593.268 10.9331 57.7494 -5.93601 55.2275 32.5C52.7014 71 58.9538 71.3619 55.2275 78Z" fill="#FFDB89"/>
<path d="M56.5374 119.565C59.3272 127.434 56.1389 135.304 65.7037 141.338C72.4788 145.797 82.8406 147.109 92.0069 147.896C104.361 148.945 874.327 147.896 886.682 147.634C909.398 147.109 1245.24 147.634 1267.96 147.896C1311.4 148.421 1354.84 148.683 1398.28 150.781C1422.99 151.831 1466.9 149.732 1470.48 130.32C1472.48 118.253 1468.09 104.874 1467.69 92.8074C1467.3 78.6418 1468.89 64.2139 1468.49 50.0483C1467.69 33.2594 1437.33 19.8807 1409.83 19.0938C1391.5 18.5691 1372.77 20.4054 1354.84 20.6677C1331.32 20.9301 1307.81 20.9301 1284.3 20.9301C1261.98 20.9301 926.137 20.9301 903.819 20.1431C885.885 19.3561 112.559 18.5052 94.625 20.3415C82.2705 21.6531 68.4934 23.291 61.3198 30.6361C56.5374 35.6203 58.9286 38.2436 59.7257 43.7524C60.9213 51.6222 60.1242 59.7543 59.7257 67.3618C59.3272 74.9692 62.1169 78.9041 51.755 82.5767C40.1976 85.9869 15.4885 91.2335 11.1046 99.8902C10.7061 100.677 11.5032 101.989 12.6988 102.513C27.046 107.235 46.5741 110.646 54.9433 120.352C56.936 122.713 62.5154 120.614 60.5228 118.253C52.5521 108.547 37.4078 106.448 23.8577 101.202C19.0753 98.8409 19.0753 101.464 20.6694 98.8409C22.6621 96.48 31.8284 94.3814 35.8137 92.8074C44.98 89.3972 54.1462 85.9869 63.711 83.1013C64.9066 82.839 65.3052 81.7897 65.3052 81.2651C66.1022 71.8213 66.5008 62.3776 66.1022 52.9338C66.1022 47.1627 63.711 39.5552 66.5008 34.3087C76.0656 16.7328 564.207 30.1537 897.841 24.078C957.222 27.2259 1333.32 26.9636 1393.1 24.078C1409.04 23.291 1446.57 22.504 1455.74 32.9971C1463.71 41.6538 1461.32 53.7208 1460.52 63.4269C1458.93 83.3637 1462.51 103.3 1463.31 123.237C1464.51 152.88 1403.86 146.584 1373.57 145.797C1342.08 145.01 1310.6 144.486 1278.72 144.223C1248.83 143.961 905.812 143.699 875.922 144.748C864.364 145.273 94.7966 145.797 83.2392 143.961C75.667 142.912 67.6964 140.551 63.711 135.829C59.7257 131.107 60.9213 124.287 58.5301 119.04C58.9286 117.991 56.1389 118.253 56.5374 119.565Z" fill="#0E0E0E"/>
</svg>
