<svg width="283" height="58" viewBox="0 0 283 58" fill="none" xmlns="http://www.w3.org/2000/svg">
<path d="M8.30489 26.9581C6.84891 32.0687 4.01311 31.9435 1.82995 32.3261L0.151064 35.2864C-1.00422 36.4341 4.81543 41.7577 5.77859 43.2291C8.28279 47.0547 6.64594 52.9843 9.05383 54.5146C11.6026 56.1344 60.1011 56.0448 72.0443 56.8099C83.9874 57.5751 208.523 57.9576 217.962 57.9576C227.401 57.9576 275.559 58.7227 279.99 53.7495C284.42 48.7762 283.072 23.9096 281.531 7.45949C280.556 -2.94791 268.817 0.573651 254.755 0.573651C240.693 0.573651 124.347 2.35575 118.183 1.97319L118.151 1.97123C111.676 1.56932 8.78941 -4.81666 8.30489 9.73366C7.81956 24.3082 9.02081 24.4452 8.30489 26.9581Z" fill="#FFDB89"/>
<path d="M8.67064 42.0927C9.20183 45.0737 8.59475 48.0546 10.416 50.34C11.706 52.0293 13.6791 52.5261 15.4244 52.8242C17.7768 53.2217 164.387 52.8242 166.739 52.7248C171.065 52.5261 235.013 52.7248 239.338 52.8242C247.609 53.0229 255.881 53.1223 264.152 53.9172C268.857 54.3147 277.219 53.5198 277.902 46.1667C278.281 41.5959 277.446 36.5282 277.37 31.9574C277.295 26.5916 277.598 21.1265 277.522 15.7607C277.37 9.40128 271.589 4.33362 266.353 4.03552C262.862 3.83679 259.296 4.53235 255.881 4.63171C251.404 4.73108 246.927 4.73108 242.449 4.73108C238.2 4.73108 174.252 4.73108 170.002 4.43298C166.588 4.13488 19.3378 3.81259 15.9229 4.50815C13.5705 5.00498 10.9472 5.62537 9.58126 8.40762C8.67064 10.2956 9.12595 11.2892 9.27772 13.3759C9.50537 16.3569 9.3536 19.4372 9.27772 22.3189C9.20183 25.2005 9.73303 26.691 7.76002 28.0821C5.55935 29.3738 0.854476 31.3612 0.01974 34.6402C-0.0561451 34.9383 0.095625 35.4352 0.32328 35.6339C3.05514 37.4225 6.77351 38.7142 8.3671 42.3908C8.74652 43.2851 9.80892 42.4901 9.42949 41.5958C7.91179 37.9193 5.02816 37.1244 2.44806 35.1371C1.53744 34.2428 1.53744 35.2364 1.84098 34.2428C2.22041 33.3485 3.96576 32.5535 4.72461 31.9574C6.46997 30.6656 8.21533 29.3738 10.0366 28.2808C10.2642 28.1814 10.3401 27.784 10.3401 27.5853C10.4919 24.0081 10.5678 20.4309 10.4919 16.8537C10.4919 14.6677 10.0366 11.7861 10.5678 9.79874C12.389 3.14122 105.337 8.2249 168.864 5.92347C180.171 7.11586 251.783 7.0165 263.166 5.92347C266.201 5.62537 273.349 5.32728 275.094 9.30191C276.612 12.581 276.156 17.1518 276.004 20.8284C275.701 28.3802 276.384 35.932 276.536 43.4838C276.763 54.7122 265.215 52.3274 259.448 52.0293C253.453 51.7312 247.458 51.5324 241.387 51.4331C235.696 51.3337 170.382 51.2343 164.69 51.6318C162.49 51.8305 15.9556 52.0293 13.7549 51.3337C12.3131 50.9362 10.7954 50.042 10.0366 48.2534C9.27772 46.4648 9.50537 43.8813 9.05006 41.8939C9.12595 41.4965 8.59475 41.5958 8.67064 42.0927Z" fill="#0E0E0E"/>
</svg>
