<svg width="827" height="601" viewBox="0 0 827 601" fill="none" xmlns="http://www.w3.org/2000/svg">
<g filter="url(#filter0_d_72_5328)">
<path d="M411.809 580.583C479.748 569.803 547.559 573.815 608.005 577.392C714.953 583.719 798.849 588.683 819.617 507.947C829.468 469.652 846.213 386.885 411.809 436.304C309.077 447.992 227.811 450.477 165.745 452.374C53.4413 455.809 4 457.32 4 507.947C4 586.553 223.665 610.434 411.809 580.583Z" fill="#8FCE51"/>
<path d="M411.809 580.583C479.748 569.803 547.559 573.815 608.005 577.392C714.953 583.719 798.849 588.683 819.617 507.947C829.468 469.652 846.213 386.885 411.809 436.304C309.077 447.992 227.811 450.477 165.745 452.374C53.4413 455.809 4 457.32 4 507.947C4 586.553 223.665 610.434 411.809 580.583Z" stroke="white"/>
<path d="M188.167 477.243H143.718C134.332 477.243 126.683 469.643 126.683 460.208V370.033C126.683 360.647 134.283 352.998 143.718 352.998H188.167C197.553 352.998 205.202 360.598 205.202 370.033V460.208C205.202 469.594 197.602 477.243 188.167 477.243Z" fill="#525F46" stroke="black" stroke-width="3"/>
<path d="M293.769 477.244H249.319C239.934 477.244 232.285 469.645 232.285 460.21V280.857C232.285 271.472 239.884 263.822 249.319 263.822H293.769C303.154 263.822 310.804 271.422 310.804 280.857V460.21C310.804 469.595 303.204 477.244 293.769 477.244Z" fill="#525F46" stroke="black" stroke-width="3"/>
<path d="M400.262 477.243H354.037C345.098 477.243 337.89 470.035 337.89 461.096V183.299C337.89 174.361 345.098 167.152 354.037 167.152H400.262C409.201 167.152 416.409 174.361 416.409 183.299V461.096C416.409 470.035 409.201 477.243 400.262 477.243Z" fill="#525F46" stroke="black" stroke-width="3"/>
<path d="M505.642 477.243H459.916C450.866 477.243 443.547 469.924 443.547 460.874V87.1856C443.547 78.1363 450.866 70.8169 459.916 70.8169H505.642C514.691 70.8169 522.011 78.1363 522.011 87.1856V460.819C522.011 469.927 514.688 477.243 505.642 477.243Z" fill="#525F46" stroke="black" stroke-width="3"/>
<path d="M611.469 477.243H565.354C556.416 477.243 549.152 469.979 549.152 461.041V18.4854C549.152 9.54711 556.416 2.2832 565.354 2.2832H611.469C620.407 2.2832 627.671 9.5471 627.671 18.4854V461.092C627.618 469.984 620.401 477.243 611.469 477.243Z" fill="#525F46" stroke="black" stroke-width="3"/>
<path d="M458 524.687V516.474L575.922 515.752L575.756 524.687H458Z" fill="#E6AE32"/>
<path d="M462.607 516.25C473.317 507.205 497.79 499.214 539.909 504.652C567.322 508.204 581.639 518.97 573.759 528.348C564.159 539.724 536.135 543.775 494.904 540.001C466.547 537.449 449.233 527.571 462.607 516.25Z" fill="#E6AE32"/>
<path d="M462.607 508.372C473.317 499.326 497.79 491.335 539.909 496.773C567.322 500.325 581.639 511.091 573.759 520.469C564.159 531.845 536.135 535.896 494.904 532.122C466.547 529.57 449.233 519.692 462.607 508.372Z" fill="#FFE376"/>
<path d="M521.65 531.623C514.547 531.623 506.778 531.235 498.288 530.458C480.53 528.848 468.322 523.965 466.379 517.75C465.713 515.697 465.88 512.423 470.319 508.649C476.091 503.766 494.07 493.055 536.8 498.605C553.337 500.769 565.212 506.096 567.709 512.589C568.708 515.197 568.153 517.805 566.155 520.247C559.829 527.683 544.347 531.623 521.65 531.623ZM471.54 510.036C468.599 512.534 467.434 514.92 468.155 517.195C469.875 522.633 481.751 527.128 498.51 528.626C533.359 531.79 556.888 528.404 564.824 519.026C566.433 517.139 566.821 515.197 566.1 513.255C563.88 507.484 552.282 502.434 536.633 500.436C520.318 498.327 506.001 498.438 494.015 500.714C481.806 503.044 475.036 507.04 471.54 510.036Z" fill="#30262A"/>
<path d="M180.285 482.739V473.083L312.414 472.195L312.247 482.739H180.285Z" fill="#E6AE32"/>
<path d="M185.503 472.807C197.545 462.097 224.958 452.719 272.127 459.1C302.87 463.262 318.908 476.026 310.029 487.069C299.263 500.498 267.854 505.326 221.684 500.831C189.831 497.779 170.464 486.181 185.503 472.807Z" fill="#E6AE32"/>
<path d="M185.502 463.483C197.544 452.773 224.958 443.395 272.127 449.776C302.87 453.938 318.907 466.702 310.028 477.745C299.263 491.174 267.854 496.002 221.684 491.507C189.831 488.51 170.464 476.857 185.502 463.483Z" fill="#FFE376"/>
<path d="M251.928 490.896C243.881 490.896 235.058 490.452 225.458 489.509C205.758 487.622 192.107 481.906 189.72 474.692C188.888 472.195 188.999 468.31 194.104 463.815C200.542 458.044 220.741 445.392 268.631 451.94C286.944 454.437 300.207 460.652 303.203 468.199C304.424 471.307 303.869 474.525 301.539 477.411C296.822 483.293 287.776 487.344 274.625 489.342C267.965 490.396 260.363 490.896 251.928 490.896ZM194.77 464.592L195.492 465.369C192.107 468.366 190.83 471.307 191.718 474.026C193.771 480.352 207.09 485.624 225.624 487.4C264.636 491.173 290.995 487.122 299.874 476.079C301.705 473.749 302.149 471.362 301.206 468.976C298.542 462.262 285.612 456.379 268.298 453.993C250.041 451.496 234.004 451.607 220.574 454.326C206.979 457.101 199.376 461.873 195.436 465.369L194.77 464.592Z" fill="#30262A"/>
<path d="M193.383 467.978V458.322L325.511 457.434L325.345 467.978H193.383Z" fill="#E6AE32"/>
<path d="M198.601 458.045C210.643 447.335 238.056 437.957 285.225 444.338C315.968 448.5 332.006 461.264 323.127 472.307C312.361 485.736 280.952 490.564 234.782 486.069C202.929 483.072 183.562 471.419 198.601 458.045Z" fill="#E6AE32"/>
<path d="M198.6 448.723C210.642 438.013 238.055 428.634 285.224 435.016C315.967 439.178 332.005 451.941 323.126 462.984C312.36 476.414 280.951 481.241 234.781 476.747C202.928 473.75 183.561 462.096 198.6 448.723Z" fill="#FFE376"/>
<path d="M264.967 476.136C256.921 476.136 248.097 475.692 238.497 474.748C218.797 472.862 205.146 467.201 202.76 459.932C201.927 457.434 202.038 453.55 207.144 449.055L207.865 449.832L207.144 449.055C213.581 443.284 233.78 430.631 281.67 437.18C299.983 439.677 313.246 445.892 316.242 453.439C317.463 456.547 316.908 459.765 314.578 462.651C309.861 468.533 300.815 472.584 287.664 474.582C281.06 475.636 273.457 476.136 264.967 476.136ZM256.81 437.457C248.43 437.457 240.717 438.179 233.725 439.566C220.129 442.34 212.526 447.113 208.586 450.609C205.201 453.605 203.925 456.547 204.813 459.266C206.866 465.592 220.184 470.864 238.719 472.64C277.73 476.413 304.09 472.362 312.968 461.319C314.8 458.988 315.244 456.602 314.3 454.216C311.637 447.501 298.707 441.619 281.393 439.233C272.681 438.067 264.468 437.457 256.81 437.457Z" fill="#30262A"/>
<path d="M186.612 449.887V440.231L318.741 439.344L318.519 449.887H186.612Z" fill="#E6AE32"/>
<path d="M191.773 439.954C203.815 429.244 231.229 419.865 278.398 426.247C309.141 430.409 325.178 443.172 316.299 454.216C305.534 467.645 274.125 472.473 227.955 467.978C196.157 464.981 176.735 453.328 191.773 439.954Z" fill="#E6AE32"/>
<path d="M191.774 430.688C203.816 419.977 231.229 410.599 278.398 416.981C309.141 421.143 325.179 433.906 316.3 444.949C305.534 458.378 274.125 463.206 227.955 458.711C196.158 455.659 176.735 444.061 191.774 430.688Z" fill="#FFE376"/>
<path d="M258.198 458.045C250.152 458.045 241.328 457.601 231.728 456.657C212.028 454.771 198.377 449.055 195.991 441.841C195.158 439.344 195.269 435.459 200.375 430.964C206.812 425.193 227.011 412.541 274.902 419.089C293.214 421.586 306.477 427.801 309.474 435.348C310.695 438.456 310.14 441.674 307.809 444.56C303.092 450.442 294.047 454.493 280.895 456.491C274.236 457.545 266.689 458.045 258.198 458.045ZM201.096 431.741L201.818 432.518C198.433 435.515 197.156 438.456 198.044 441.175C200.097 447.501 213.416 452.773 231.95 454.549C270.962 458.322 297.321 454.271 306.2 443.228C308.031 440.897 308.475 438.511 307.531 436.125C304.868 429.41 291.938 423.528 274.624 421.142C256.367 418.645 240.33 418.756 226.9 421.475C213.305 424.25 205.702 429.022 201.762 432.518L201.096 431.741Z" fill="#30262A"/>
<path d="M240.828 450.109L241.716 448.722C242.049 448.223 241.216 447.723 239.773 447.501C236.388 447.113 233.281 446.502 230.95 445.837C229.84 445.504 229.563 444.949 230.34 444.505L230.895 444.227C231.838 443.728 233.836 443.561 235.223 443.95C237.887 444.671 241.272 445.337 245.156 445.615C251.704 446.114 255.7 444.838 256.921 442.951C258.086 441.12 256.532 440.01 250.372 438.511C241.827 436.458 233.447 434.183 235.334 431.297C236.943 428.8 242.992 426.58 253.98 427.357C255.311 427.468 256.421 427.024 256.754 426.58L257.753 425.027C258.086 424.472 259.695 424.139 261.249 424.25C262.803 424.361 263.802 424.916 263.469 425.471L262.636 426.747C262.303 427.246 263.136 427.746 264.523 427.912C267.353 428.245 269.518 428.689 271.238 429.133C272.459 429.466 272.736 430.077 271.904 430.52L271.404 430.798C270.461 431.297 268.574 431.408 267.187 431.075C265.3 430.576 262.525 430.021 258.696 429.744C251.593 429.189 247.931 430.52 247.098 431.797C245.989 433.517 250.872 434.072 258.141 435.903C266.743 438.012 271.515 440.454 270.405 443.45C269.24 446.669 262.525 448.389 250.594 448.112C249.263 448.056 248.153 448.445 247.82 448.889L246.765 450.553C246.433 451.108 244.823 451.441 243.269 451.33H243.158C241.438 451.219 240.439 450.664 240.828 450.109Z" fill="#30262A"/>
<path d="M183.282 433.183V423.472L315.41 422.639L315.244 433.183H183.282Z" fill="#E6AE32"/>
<path d="M188.496 423.25C200.538 412.539 227.952 403.161 275.121 409.543C305.864 413.705 321.901 426.468 313.022 437.511C302.257 450.94 270.848 455.768 224.678 451.273C192.88 448.221 173.458 436.623 188.496 423.25Z" fill="#E6AE32"/>
<path d="M188.496 413.927C200.538 403.217 227.952 393.839 275.121 400.221C305.864 404.383 321.901 417.146 313.022 428.189C302.257 441.618 270.848 446.446 224.678 441.951C192.88 438.899 173.458 427.301 188.496 413.927Z" fill="#FFE376"/>
<path d="M254.924 441.34C246.878 441.34 238.055 440.896 228.454 439.953C208.754 438.066 195.103 432.35 192.717 425.136C191.885 422.639 191.996 418.755 197.101 414.26L197.822 415.037L197.101 414.26C203.538 408.488 223.737 395.836 271.628 402.384C289.94 404.881 303.203 411.097 306.2 418.644C307.421 421.751 306.866 424.97 304.535 427.855C299.818 433.738 290.773 437.789 277.621 439.786C270.962 440.841 263.359 441.34 254.924 441.34ZM246.712 402.662C238.332 402.662 230.619 403.383 223.626 404.77C210.031 407.545 202.428 412.317 198.488 415.813C195.103 418.81 193.827 421.751 194.715 424.47C196.768 430.797 210.086 436.068 228.621 437.844C267.632 441.618 293.991 437.567 302.87 426.524C304.702 424.193 305.145 421.807 304.202 419.42C301.538 412.706 288.609 406.824 271.295 404.437C262.638 403.272 254.37 402.662 246.712 402.662Z" fill="#30262A"/>
<path d="M237.5 433.349L238.388 431.962C238.721 431.462 237.888 430.963 236.446 430.741C233.061 430.353 229.953 429.742 227.622 429.076C226.512 428.743 226.235 428.188 227.012 427.744L227.567 427.467C228.51 426.968 230.508 426.801 231.895 427.189C234.559 427.911 237.944 428.577 241.828 428.854C248.377 429.354 252.372 428.077 253.593 426.191C254.758 424.359 253.204 423.249 247.045 421.751C238.499 419.698 230.119 417.423 232.006 414.537C233.615 412.04 239.664 409.82 250.652 410.597C251.984 410.708 253.093 410.264 253.426 409.82L254.425 408.266C254.758 407.712 256.368 407.379 257.921 407.49C259.475 407.601 260.474 408.155 260.141 408.71L259.309 409.987C258.976 410.486 259.808 410.986 261.195 411.152C264.026 411.485 266.19 411.929 267.91 412.373C269.131 412.706 269.408 413.316 268.576 413.76L268.077 414.038C267.133 414.537 265.246 414.648 263.859 414.315C261.972 413.816 259.198 413.261 255.369 412.983C248.266 412.428 244.603 413.76 243.771 415.037C242.661 416.757 247.544 417.312 254.814 419.143C263.415 421.252 268.188 423.693 267.078 426.69C265.912 429.909 259.198 431.629 247.267 431.351C245.935 431.296 244.825 431.684 244.492 432.128L243.438 433.793C243.105 434.348 241.495 434.681 239.942 434.57H239.831C238.166 434.459 237.167 433.904 237.5 433.349Z" fill="#30262A"/>
<path d="M196.266 418.754V409.098L328.394 408.21L328.228 418.754H196.266Z" fill="#E6AE32"/>
<path d="M201.484 408.82C213.525 398.11 240.939 388.732 288.108 395.114C318.851 399.276 334.888 412.039 326.009 423.082C315.244 436.511 283.835 441.339 237.665 436.844C205.812 433.792 186.445 422.194 201.484 408.82Z" fill="#E6AE32"/>
<path d="M201.484 399.498C213.525 388.788 240.939 379.41 288.108 385.791C318.851 389.953 334.888 402.717 326.009 413.76C315.244 427.189 283.835 432.017 237.665 427.522C205.812 424.525 186.445 412.872 201.484 399.498Z" fill="#FFE376"/>
<path d="M267.85 426.911C259.803 426.911 250.98 426.467 241.38 425.524C221.68 423.637 208.029 417.977 205.642 410.707C204.81 408.21 204.921 404.325 210.026 399.83C216.463 394.059 236.663 381.407 284.553 387.955C302.866 390.452 316.129 396.667 319.125 404.214C320.346 407.322 319.791 410.541 317.46 413.426C312.744 419.308 303.698 423.359 290.546 425.357C283.943 426.412 276.34 426.911 267.85 426.911ZM210.748 400.607L211.469 401.384C208.084 404.381 206.808 407.322 207.696 410.041C209.749 416.367 223.067 421.639 241.602 423.415C280.613 427.188 306.972 423.137 315.851 412.094C317.682 409.764 318.126 407.377 317.183 404.991C314.519 398.277 301.589 392.394 284.276 390.008C266.019 387.511 249.981 387.622 236.552 390.341C222.956 393.116 215.354 397.888 211.414 401.384L210.748 400.607Z" fill="#30262A"/>
<path d="M193.383 399V389.344L325.511 388.456L325.345 399H193.383Z" fill="#E6AE32"/>
<path d="M198.601 389.066C210.643 378.356 238.056 368.978 285.225 375.36C315.968 379.522 332.006 392.285 323.127 403.328C312.361 416.757 280.952 421.585 234.782 417.09C202.929 414.094 183.562 402.44 198.601 389.066Z" fill="#E6AE32"/>
<path d="M198.6 379.744C210.642 369.034 238.055 359.656 285.224 366.037C315.967 370.199 332.005 382.963 323.126 394.006C312.36 407.435 280.951 412.263 234.781 407.768C202.928 404.771 183.561 393.118 198.6 379.744Z" fill="#FFE376"/>
<path d="M264.967 407.157C256.921 407.157 248.097 406.713 238.497 405.77C218.797 403.883 205.146 398.223 202.76 390.953C201.927 388.456 202.038 384.571 207.144 380.077C213.581 374.305 233.78 361.653 281.67 368.201C299.983 370.698 313.246 376.913 316.242 384.46C317.463 387.568 316.908 390.787 314.578 393.672C309.861 399.555 300.815 403.606 287.664 405.603C281.06 406.658 273.457 407.157 264.967 407.157ZM208.586 381.686C205.201 384.682 203.925 387.624 204.813 390.343C206.866 396.669 220.184 401.941 238.719 403.717C277.73 407.49 304.09 403.439 312.968 392.396C314.8 390.065 315.244 387.679 314.3 385.293C311.637 378.578 298.707 372.696 281.393 370.31C263.136 367.813 247.098 367.924 233.669 370.643C220.073 373.362 212.526 378.134 208.586 381.686Z" fill="#30262A"/>
<path d="M588.106 473.307V463.429L722.787 462.541L722.621 473.307H588.106Z" fill="#E6AE32"/>
<path d="M593.376 463.152C605.64 452.22 633.608 442.675 681.721 449.224C713.074 453.497 729.389 466.426 720.399 477.747C709.412 491.454 677.448 496.337 630.279 491.787C597.815 488.624 578.06 476.804 593.376 463.152Z" fill="#E6AE32"/>
<path d="M593.377 453.662C605.641 442.73 633.609 433.185 681.721 439.734C713.075 444.007 729.39 456.936 720.4 468.257C709.412 481.964 677.448 486.847 630.279 482.297C597.816 479.134 578.061 467.314 593.377 453.662Z" fill="#FFE376"/>
<path d="M661.077 481.631C652.864 481.631 643.874 481.187 634.108 480.244C614.019 478.302 600.091 472.531 597.649 465.15C596.817 462.653 596.928 458.657 602.088 454.051C608.692 448.169 629.28 435.295 678.058 441.898C696.759 444.451 710.244 450.777 713.296 458.491C714.572 461.654 713.962 464.928 711.631 467.869C706.803 473.862 697.592 477.969 684.162 480.078C677.448 481.076 669.734 481.631 661.077 481.631ZM603.587 455.605C600.146 458.657 598.814 461.654 599.758 464.429C601.866 470.866 615.462 476.249 634.33 478.08C674.118 481.909 700.977 477.802 710.022 466.537C711.909 464.207 712.353 461.765 711.409 459.268C708.69 452.387 695.483 446.393 677.892 444.007C659.301 441.455 642.931 441.566 629.28 444.34C615.296 447.17 607.582 451.998 603.587 455.605Z" fill="#30262A"/>
<path d="M588.106 462.431V452.553L722.787 451.665L722.621 462.431H588.106Z" fill="#E6AE32"/>
<path d="M593.376 452.33C605.64 441.398 633.608 431.853 681.721 438.402C713.074 442.675 729.389 455.604 720.399 466.925C709.412 480.632 677.448 485.515 630.279 480.965C597.815 477.802 578.06 465.926 593.376 452.33Z" fill="#E6AE32"/>
<path d="M593.377 442.841C605.641 431.909 633.609 422.364 681.721 428.912C713.075 433.185 729.39 446.115 720.4 457.436C709.412 471.142 677.448 476.026 630.279 471.475C597.816 468.312 578.061 456.437 593.377 442.841Z" fill="#FFE376"/>
<path d="M661.077 470.754C652.864 470.754 643.874 470.31 634.108 469.367C614.019 467.425 600.091 461.653 597.649 454.273C596.817 451.776 596.928 447.78 602.088 443.174C608.692 437.292 629.28 424.418 678.058 431.021C696.759 433.574 710.244 439.9 713.296 447.614C714.572 450.777 713.962 454.051 711.631 456.992C706.803 462.985 697.592 467.092 684.162 469.2C677.448 470.255 669.734 470.754 661.077 470.754ZM603.587 444.728C600.146 447.78 598.814 450.777 599.758 453.551C601.866 459.989 615.462 465.371 634.33 467.203C674.118 471.032 700.977 466.925 710.022 455.66C711.909 453.329 712.353 450.888 711.409 448.391C708.69 441.509 695.483 435.516 677.892 433.13C659.301 430.577 642.931 430.688 629.28 433.463C615.296 436.293 607.582 441.176 603.587 444.728Z" fill="#30262A"/>
<path d="M596.152 447.392V437.57L730.889 436.682L730.667 447.392H596.152Z" fill="#E6AE32"/>
<path d="M601.423 437.293C613.686 426.361 641.655 416.816 689.767 423.364C721.121 427.637 737.436 440.567 728.446 451.888C717.458 465.594 685.494 470.478 638.325 465.927C605.917 462.764 586.107 450.889 601.423 437.293Z" fill="#E6AE32"/>
<path d="M601.423 427.803C613.686 416.871 641.655 407.326 689.767 413.874C721.121 418.147 737.436 431.077 728.446 442.397C717.458 456.104 685.494 460.987 638.325 456.437C605.917 453.274 586.107 441.454 601.423 427.803Z" fill="#FFE376"/>
<path d="M669.182 455.717C660.97 455.717 651.98 455.273 642.213 454.329C622.124 452.387 608.196 446.616 605.754 439.235C604.922 436.738 605.033 432.743 610.194 428.137C616.797 422.255 637.385 409.38 686.163 415.984C704.809 418.537 718.349 424.863 721.401 432.576C722.678 435.739 722.067 439.013 719.736 441.955C714.909 447.948 705.697 452.054 692.267 454.163C685.553 455.217 677.784 455.717 669.182 455.717ZM660.803 416.317C652.257 416.317 644.377 417.038 637.274 418.481C623.401 421.311 615.687 426.139 611.636 429.746C608.196 432.798 606.864 435.795 607.807 438.57C609.916 445.007 623.512 450.39 642.379 452.221C682.168 456.05 709.026 451.943 718.072 440.678C719.958 438.348 720.402 435.906 719.459 433.409C716.74 426.528 703.532 420.534 685.941 418.148C677.007 416.927 668.627 416.317 660.803 416.317Z" fill="#30262A"/>
<path d="M587.769 430.41V420.533L722.45 419.645L722.284 430.41H587.769Z" fill="#E6AE32"/>
<path d="M593.043 420.254C605.307 409.322 633.275 399.777 681.388 406.325C712.741 410.598 729.056 423.528 720.066 434.849C709.079 448.555 677.115 453.439 629.946 448.888C597.482 445.725 577.727 433.905 593.043 420.254Z" fill="#E6AE32"/>
<path d="M593.044 410.766C605.308 399.834 633.276 390.289 681.388 396.837C712.742 401.11 729.057 414.04 720.067 425.36C709.079 439.067 677.115 443.951 629.946 439.4C597.483 436.293 577.728 424.417 593.044 410.766Z" fill="#FFE376"/>
<path d="M660.744 438.733C652.531 438.733 643.541 438.289 633.775 437.346C613.686 435.404 599.758 429.632 597.316 422.252C596.484 419.755 596.595 415.759 601.755 411.153C608.359 405.271 628.947 392.397 677.725 399C696.371 401.553 709.911 407.879 712.963 415.593C714.239 418.756 713.629 422.03 711.298 424.971C706.47 430.964 697.258 435.071 683.829 437.179C677.115 438.178 669.401 438.733 660.744 438.733ZM652.42 399.278C643.874 399.278 635.994 399.999 628.891 401.442C615.018 404.272 607.305 409.1 603.254 412.707C599.813 415.759 598.481 418.756 599.425 421.53C601.533 427.968 615.129 433.35 633.997 435.182C673.785 439.011 700.644 434.904 709.689 423.639C711.576 421.308 712.02 418.867 711.076 416.37C708.357 409.488 695.15 403.495 677.559 401.109C668.624 399.888 660.245 399.278 652.42 399.278Z" fill="#30262A"/>
<path d="M587.769 419.535V409.712L722.45 408.769L722.284 419.535H587.769Z" fill="#E6AE32"/>
<path d="M593.043 409.434C605.307 398.502 633.275 388.957 681.388 395.505C712.741 399.778 729.056 412.708 720.066 424.029C709.079 437.735 677.115 442.619 629.946 438.068C597.482 434.905 577.727 423.03 593.043 409.434Z" fill="#E6AE32"/>
<path d="M593.044 399.945C605.308 389.013 633.276 379.468 681.388 386.016C712.742 390.289 729.057 403.219 720.067 414.539C709.079 428.246 677.115 433.13 629.946 428.579C597.483 425.416 577.728 413.541 593.044 399.945Z" fill="#FFE376"/>
<path d="M660.744 427.858C652.531 427.858 643.541 427.414 633.775 426.471C613.686 424.529 599.758 418.758 597.316 411.377C596.484 408.88 596.595 404.884 601.755 400.278C608.359 394.396 628.947 381.522 677.725 388.181C696.371 390.734 709.911 397.06 712.963 404.773C714.239 407.936 713.629 411.211 711.298 414.152C706.47 420.145 697.258 424.251 683.829 426.36C677.115 427.359 669.401 427.858 660.744 427.858ZM652.42 388.458C643.874 388.458 635.994 389.18 628.891 390.623C615.018 393.453 607.305 398.281 603.254 401.888C599.813 404.94 598.481 407.936 599.425 410.711C601.533 417.148 615.129 422.531 633.997 424.362C673.785 428.191 700.644 424.085 709.689 412.82C711.576 410.489 712.02 408.047 711.076 405.55C708.357 398.669 695.15 392.676 677.559 390.29C668.624 389.069 660.245 388.458 652.42 388.458Z" fill="#30262A"/>
<path d="M587.769 404.496V394.673L722.45 393.785L722.284 404.496H587.769Z" fill="#E6AE32"/>
<path d="M593.043 394.396C605.307 383.464 633.275 373.92 681.388 380.468C712.741 384.741 729.056 397.671 720.066 408.991C709.079 422.698 677.115 427.581 629.946 423.031C597.482 419.868 577.727 407.992 593.043 394.396Z" fill="#E6AE32"/>
<path d="M593.044 384.906C605.308 373.974 633.276 364.43 681.388 370.978C712.742 375.251 729.057 388.181 720.067 399.501C709.079 413.208 677.115 418.091 629.946 413.541C597.483 410.378 577.728 398.558 593.044 384.906Z" fill="#FFE376"/>
<path d="M660.744 412.82C652.531 412.82 643.541 412.376 633.775 411.433C613.686 409.491 599.758 403.72 597.316 396.339C596.484 393.842 596.595 389.846 601.755 385.24C608.359 379.358 628.947 366.484 677.725 373.087C696.371 375.64 709.911 381.966 712.963 389.68C714.239 392.843 713.629 396.117 711.298 399.058C706.47 405.051 697.258 409.158 683.829 411.267C677.115 412.321 669.401 412.82 660.744 412.82ZM652.42 373.42C643.874 373.42 635.994 374.142 628.891 375.585C615.018 378.415 607.305 383.243 603.254 386.85C599.813 389.902 598.481 392.898 599.425 395.673C601.533 402.11 615.129 407.493 633.997 409.324C673.785 413.153 700.644 409.047 709.689 397.782C711.576 395.451 712.02 393.009 711.076 390.512C708.357 383.631 695.15 377.638 677.559 375.252C668.624 374.031 660.245 373.42 652.42 373.42Z" fill="#30262A"/>
<path d="M589.324 386.071V376.249L724.06 375.306L723.839 386.071H589.324Z" fill="#E6AE32"/>
<path d="M594.651 375.971C606.915 365.039 634.884 355.494 682.996 362.042C714.349 366.315 730.664 379.245 721.674 390.566C710.687 404.273 678.723 409.156 631.554 404.605C599.091 401.442 579.28 389.567 594.651 375.971Z" fill="#E6AE32"/>
<path d="M594.652 366.482C606.916 355.55 634.884 346.006 682.997 352.554C714.35 356.827 730.665 369.756 721.675 381.077C710.687 394.784 678.724 399.667 631.555 395.117C599.091 391.954 579.28 380.078 594.652 366.482Z" fill="#FFE376"/>
<path d="M662.354 394.395C654.141 394.395 645.152 393.951 635.385 393.007C615.296 391.065 601.368 385.294 598.926 377.913C598.094 375.416 598.205 371.421 603.365 366.815C609.969 360.932 630.557 348.058 679.335 354.662C698.036 357.214 711.521 363.541 714.573 371.254C715.849 374.417 715.239 377.691 712.908 380.632C708.08 386.626 698.869 390.732 685.439 392.841C678.725 393.895 671.011 394.395 662.354 394.395ZM604.864 368.368C601.423 371.42 600.091 374.417 601.035 377.192C603.143 383.629 616.739 389.012 635.607 390.843C675.395 394.672 702.254 390.566 711.299 379.3C713.186 376.97 713.63 374.528 712.686 372.031C709.967 365.15 696.76 359.157 679.169 356.77C660.579 354.218 644.208 354.329 630.557 357.103C616.573 359.933 608.859 364.817 604.864 368.368Z" fill="#30262A"/>
<path d="M644.595 386.293L645.538 384.85C645.871 384.351 645.039 383.796 643.54 383.63C640.1 383.241 636.937 382.575 634.551 381.909C633.385 381.576 633.163 381.021 633.94 380.577L634.495 380.3C635.439 379.745 637.492 379.634 638.879 380.022C641.598 380.799 645.094 381.41 648.979 381.743C655.638 382.242 659.744 380.966 660.965 379.024C662.186 377.192 660.577 376.027 654.251 374.473C645.538 372.364 636.992 370.089 638.935 367.148C640.599 364.596 646.759 362.376 657.913 363.097C659.245 363.208 660.41 362.764 660.743 362.265L661.742 360.711C662.131 360.156 663.684 359.823 665.294 359.934C666.903 360.045 667.902 360.6 667.569 361.155L666.737 362.487C666.404 362.986 667.236 363.541 668.623 363.708C671.509 364.041 673.729 364.485 675.449 364.928C676.725 365.261 677.003 365.872 676.17 366.316L675.615 366.593C674.672 367.093 672.73 367.204 671.342 366.871C669.4 366.371 666.57 365.816 662.686 365.539C655.416 364.984 651.698 366.316 650.81 367.648C649.7 369.423 654.639 369.978 662.075 371.81C670.843 373.974 675.726 376.471 674.561 379.523C673.34 382.797 666.57 384.573 654.362 384.295C653.03 384.24 651.864 384.628 651.531 385.128L650.477 386.793C650.089 387.348 648.535 387.681 646.926 387.57H646.815C645.261 387.403 644.262 386.848 644.595 386.293Z" fill="#30262A"/>
<path d="M590.82 368.98V359.157L725.501 358.27L725.335 368.98H590.82Z" fill="#E6AE32"/>
<path d="M596.094 358.879C608.358 347.947 636.326 338.402 684.438 344.95C715.792 349.223 732.107 362.153 723.117 373.473C712.129 387.18 680.165 392.064 632.996 387.513C600.533 384.35 580.778 372.53 596.094 358.879Z" fill="#E6AE32"/>
<path d="M596.094 349.391C608.358 338.459 636.326 328.914 684.438 335.462C715.792 339.735 732.107 352.665 723.117 363.985C712.129 377.692 680.165 382.575 632.997 378.025C600.533 374.862 580.778 363.042 596.094 349.391Z" fill="#FFE376"/>
<path d="M663.795 377.358C655.582 377.358 646.592 376.914 636.825 375.971C616.737 374.028 602.808 368.257 600.367 360.877C599.534 358.379 599.645 354.384 604.806 349.778C611.41 343.896 631.997 331.021 680.776 337.625C699.421 340.178 712.962 346.504 716.014 354.217C717.29 357.38 716.68 360.655 714.349 363.596C709.521 369.589 700.309 373.695 686.88 375.804C680.221 376.803 672.452 377.358 663.795 377.358ZM655.471 337.903C646.925 337.903 639.045 338.624 631.942 340.067C618.069 342.897 610.355 347.725 606.304 351.332C602.864 354.384 601.532 357.381 602.475 360.155C604.584 366.592 618.18 371.975 637.047 373.806C676.836 377.635 703.694 373.529 712.74 362.264C714.626 359.933 715.07 357.491 714.127 354.994C711.408 348.113 698.2 342.12 680.609 339.734C671.675 338.513 663.295 337.903 655.471 337.903Z" fill="#30262A"/>
<path d="M622.066 347.56V337.738L756.747 336.85L756.581 347.56H622.066Z" fill="#E6AE32"/>
<path d="M627.336 337.459C639.6 326.527 667.568 316.982 715.68 323.53C747.034 327.803 763.349 340.733 754.359 352.053C743.371 365.76 711.408 370.643 664.239 366.093C631.775 362.93 612.02 351.054 627.336 337.459Z" fill="#E6AE32"/>
<path d="M627.336 327.971C639.6 317.039 667.568 307.494 715.681 314.042C747.034 318.315 763.349 331.245 754.359 342.565C743.372 356.272 711.408 361.155 664.239 356.605C631.776 353.442 612.02 341.622 627.336 327.971Z" fill="#FFE376"/>
<path d="M695.037 355.883C686.824 355.883 677.834 355.439 668.068 354.495C647.979 352.553 634.051 346.782 631.609 339.401C630.777 336.904 630.888 332.909 636.048 328.303C642.652 322.42 663.24 309.546 712.018 316.15C730.719 318.702 744.204 325.029 747.256 332.742C748.532 335.905 747.922 339.179 745.591 342.12C740.763 348.114 731.552 352.22 718.122 354.329C711.408 355.383 703.694 355.883 695.037 355.883ZM686.713 316.483C678.167 316.483 670.287 317.204 663.184 318.647C649.311 321.477 641.598 326.305 637.547 329.912C634.106 332.964 632.774 335.961 633.718 338.735C635.826 345.172 649.422 350.555 668.29 352.387C708.078 356.216 734.937 352.109 743.982 340.844C745.869 338.513 746.313 336.072 745.369 333.574C742.65 326.693 729.443 320.7 711.852 318.314C702.917 317.093 694.538 316.483 686.713 316.483Z" fill="#30262A"/>
<path d="M601.089 333.41V323.588L735.826 322.7L735.604 333.41H601.089Z" fill="#E6AE32"/>
<path d="M606.36 323.311C618.624 312.378 646.592 302.834 694.704 309.382C726.058 313.655 742.373 326.585 733.383 337.905C722.395 351.612 690.431 356.495 643.262 351.945C610.855 348.782 591.044 336.962 606.36 323.311Z" fill="#E6AE32"/>
<path d="M606.36 313.82C618.624 302.888 646.592 293.343 694.704 299.892C726.058 304.165 742.373 317.094 733.383 328.415C722.395 342.122 690.431 347.005 643.262 342.455C610.855 339.292 591.044 327.472 606.36 313.82Z" fill="#FFE376"/>
<path d="M674.119 341.734C665.907 341.734 656.917 341.29 647.15 340.347C627.062 338.405 613.133 332.634 610.691 325.253C609.859 322.756 609.97 318.76 615.131 314.154C621.734 308.272 642.322 295.398 691.1 302.002C709.801 304.554 723.286 310.88 726.338 318.594C727.615 321.757 727.004 325.031 724.673 327.972C719.846 333.965 710.634 338.072 697.205 340.181C690.49 341.235 682.721 341.734 674.119 341.734ZM665.74 302.334C657.194 302.334 649.314 303.056 642.211 304.499C628.338 307.329 620.624 312.157 616.573 315.764C613.133 318.816 611.801 321.812 612.744 324.587C614.853 331.024 628.449 336.407 647.316 338.238C687.105 342.067 713.963 337.961 723.009 326.696C724.895 324.365 725.339 321.923 724.396 319.426C721.677 312.545 708.47 306.552 690.878 304.166C681.944 302.945 673.565 302.334 665.74 302.334Z" fill="#30262A"/>
<path d="M645.262 446.335C645.262 414.926 659.246 381.52 704.306 381.52C733.662 381.52 758.8 408.323 761.741 439.51C765.348 477.467 743.817 500.496 701.365 505.213C672.176 508.432 645.262 485.569 645.262 446.335Z" fill="#FFE376"/>
<path d="M697.035 497.888C686.602 497.888 676.78 494.17 668.9 487.123C658.245 477.578 652.363 462.928 652.363 445.947C652.363 435.126 654.305 419.699 663.406 407.38C672.396 395.282 686.103 389.178 704.193 389.178C729.387 389.178 752.028 411.986 754.692 440.009C757.799 473.083 739.043 493.56 701.918 497.666C700.253 497.777 698.644 497.888 697.035 497.888ZM704.193 392.397C689.599 392.397 655.637 397.613 655.637 445.892C655.637 461.929 661.131 475.691 671.064 484.626C679.444 492.117 690.209 495.558 701.474 494.337C719.065 492.395 732.273 486.734 740.763 477.523C749.254 468.311 752.805 455.825 751.307 440.231C748.921 413.872 727.722 392.397 704.193 392.397Z" fill="#30262A"/>
<path d="M670.126 90.239C681.113 68.3193 702.589 49.9512 734.109 66.2106C754.641 76.8097 762.799 104.612 753.92 127.475C743.099 155.277 720.014 163.656 688.716 151.614C667.185 143.346 656.364 117.708 670.126 90.239Z" fill="#FFE376"/>
<path d="M714.022 151.17C707.252 151.17 699.816 149.616 691.714 146.509C682.724 143.068 675.843 136.187 672.347 127.197C668.296 116.709 669.295 104.39 675.233 92.5144C681.614 79.862 690.715 71.0386 701.037 67.7091C710.36 64.657 720.626 65.9333 731.447 71.5381C749.038 80.6389 756.863 104.723 748.872 125.255C742.213 142.402 730.171 151.17 714.022 151.17ZM677.563 93.6797C671.959 104.889 670.96 116.432 674.733 126.254C677.952 134.578 684.278 140.904 692.602 144.123C705.587 149.117 716.797 149.949 725.953 146.564C735.109 143.179 741.991 135.743 746.374 124.367C753.866 105 746.596 82.3592 730.171 73.8688C720.015 68.597 710.415 67.3761 701.758 70.2062C696.653 71.871 691.881 74.9231 687.552 79.3071C683.779 83.1916 680.393 88.0194 677.563 93.6797Z" fill="#30262A"/>
<path d="M693.681 93.487C694.463 92.2573 695.352 91.3967 696.349 90.9051C697.354 90.3916 698.36 90.1676 699.366 90.233C700.394 90.307 701.391 90.6205 702.357 91.1737C703.354 91.7136 704.213 92.4136 704.935 93.2736C705.678 94.1421 706.241 95.1165 706.624 96.197C707.016 97.2557 707.154 98.3535 707.038 99.4904C706.93 100.606 706.504 101.697 705.76 102.766C705.016 103.834 703.899 104.794 702.409 105.647C703.084 106.238 703.705 106.807 704.271 107.355C704.837 107.903 705.269 108.474 705.565 109.067C705.884 109.67 706.059 110.317 706.091 111.008C706.123 111.7 705.969 112.483 705.628 113.356C705.347 114.077 704.918 114.79 704.341 115.495C703.763 116.201 703.081 116.853 702.294 117.452C701.529 118.059 700.689 118.599 699.775 119.073C698.891 119.533 697.982 119.895 697.049 120.16C696.115 120.425 695.203 120.572 694.311 120.601C693.449 120.617 692.658 120.485 691.937 120.204C691.457 120.016 691.107 119.528 690.887 118.737C690.667 117.947 690.534 116.965 690.489 115.79C690.445 114.615 690.47 113.292 690.567 111.82C690.663 110.348 690.809 108.845 691.005 107.311C691.209 105.756 691.438 104.235 691.691 102.748C691.952 101.24 692.203 99.8541 692.445 98.5899C692.709 97.3341 692.941 96.2549 693.142 95.3523C693.374 94.4363 693.553 93.8146 693.681 93.487ZM693.978 109.943C693.833 110.314 693.729 110.84 693.665 111.519C693.601 112.199 693.581 112.895 693.605 113.609C693.65 114.331 693.734 115.018 693.857 115.67C693.989 116.3 694.206 116.774 694.509 117.094C694.747 117.388 695.111 117.517 695.603 117.483C696.103 117.426 696.645 117.261 697.231 116.986C697.846 116.698 698.461 116.346 699.076 115.932C699.699 115.496 700.274 115.054 700.801 114.605C701.35 114.165 701.806 113.739 702.168 113.327C702.56 112.901 702.807 112.558 702.91 112.296C703.131 111.728 703.234 111.24 703.217 110.831C703.209 110.4 703.095 110.015 702.874 109.678C702.676 109.349 702.386 109.06 702.005 108.81C701.646 108.57 701.227 108.356 700.746 108.168C700.2 107.955 699.588 107.817 698.908 107.753C698.229 107.689 697.563 107.719 696.911 107.842C696.281 107.974 695.687 108.207 695.128 108.543C694.591 108.887 694.208 109.354 693.978 109.943ZM696.226 97.9896C696.073 98.3827 695.871 98.8697 695.619 99.4507C695.375 100.01 695.145 100.599 694.929 101.219C694.712 101.839 694.539 102.476 694.41 103.13C694.28 103.784 694.272 104.385 694.386 104.932C695.532 105.153 696.605 105.144 697.604 104.905C698.625 104.674 699.516 104.292 700.278 103.759C701.07 103.213 701.736 102.567 702.279 101.823C702.821 101.078 703.212 100.3 703.453 99.4884C703.716 98.6853 703.812 97.8923 703.74 97.1095C703.69 96.3352 703.449 95.6626 703.018 95.0918C702.595 94.4991 701.979 94.0452 701.171 93.73C700.364 93.4148 699.333 93.3148 698.081 93.4299C698.013 93.6046 697.883 93.906 697.69 94.3342C697.52 94.7709 697.33 95.2252 697.121 95.697C696.934 96.1774 696.755 96.6359 696.584 97.0726C696.414 97.5093 696.295 97.815 696.226 97.9896ZM714.325 103.051C714.393 102.876 714.515 102.596 714.69 102.212C714.852 101.797 715.018 101.371 715.188 100.935C715.367 100.476 715.544 100.054 715.72 99.67C715.881 99.2551 715.992 98.9713 716.052 98.8184C716.471 98.4536 716.97 98.2709 717.549 98.2703C718.158 98.2564 718.77 98.3317 719.385 98.4962C720.031 98.6474 720.633 98.8446 721.192 99.088C721.773 99.3398 722.249 99.5381 722.62 99.6829C723.101 99.8704 723.649 100.109 724.265 100.4C724.903 100.699 725.513 101.038 726.095 101.416C726.708 101.781 727.284 102.207 727.823 102.694C728.371 103.159 728.813 103.671 729.149 104.23C729.514 104.775 729.737 105.365 729.816 106C729.926 106.621 729.845 107.282 729.572 107.98C729.249 108.81 728.758 109.487 728.101 110.01C727.452 110.512 726.718 110.942 725.899 111.302C725.11 111.648 724.268 111.936 723.373 112.166C722.5 112.404 721.675 112.648 720.898 112.898C720.143 113.157 719.471 113.461 718.882 113.81C718.293 114.159 717.884 114.628 717.654 115.218C717.637 115.261 717.622 115.331 717.61 115.427C717.628 115.509 717.633 115.562 717.624 115.583C719.903 117.353 722.041 119.256 724.039 121.294C726.058 123.339 728 125.455 729.864 127.642C729.912 127.711 729.944 127.824 729.958 127.981C730.003 128.124 730.024 128.296 730.021 128.496C730.027 128.674 730.037 128.842 730.052 128.998C730.066 129.155 730.056 129.277 730.022 129.364C729.946 129.561 729.831 129.692 729.68 129.759C729.536 129.803 729.376 129.829 729.197 129.835C729.027 129.819 728.866 129.781 728.713 129.721C728.56 129.662 728.429 129.611 728.32 129.568C727.141 129.108 726.06 128.397 725.077 127.435C724.124 126.459 723.181 125.425 722.249 124.332C721.317 123.238 720.342 122.191 719.324 121.19C718.328 120.198 717.174 119.446 715.864 118.935L714.816 118.526C714.85 119.47 714.875 120.31 714.89 121.045C714.927 121.789 714.917 122.49 714.862 123.148C714.829 123.814 714.736 124.47 714.585 125.115C714.464 125.747 714.268 126.413 713.995 127.111C713.935 127.264 713.863 127.45 713.778 127.668C713.701 127.865 713.609 128.068 713.502 128.278C713.395 128.487 713.253 128.658 713.076 128.79C712.898 128.923 712.677 128.974 712.411 128.946C711.72 128.073 711.228 126.95 710.933 125.577C710.669 124.191 710.551 122.686 710.581 121.062C710.611 119.439 710.751 117.757 711.002 116.019C711.274 114.288 711.588 112.612 711.945 110.99C712.331 109.355 712.73 107.85 713.14 106.475C713.581 105.087 713.976 103.946 714.325 103.051ZM716.337 106.213C716.226 106.497 716.059 106.859 715.837 107.301C715.645 107.729 715.466 108.188 715.3 108.676C715.143 109.144 715.034 109.617 714.973 110.096C714.942 110.562 715.009 111.003 715.173 111.42C715.209 111.458 715.248 111.486 715.292 111.503C715.305 111.534 715.355 111.566 715.443 111.6C715.836 111.753 716.352 111.816 716.991 111.789C717.653 111.771 718.366 111.684 719.131 111.529C719.895 111.375 720.67 111.162 721.456 110.889C722.272 110.604 723.026 110.282 723.72 109.923C724.413 109.565 725.008 109.168 725.505 108.733C726.032 108.285 726.385 107.831 726.564 107.373C726.734 106.936 726.715 106.501 726.507 106.067C726.307 105.612 726.017 105.197 725.635 104.821C725.253 104.446 724.828 104.117 724.36 103.833C723.913 103.559 723.537 103.362 723.232 103.242C722.861 103.098 722.424 102.927 721.922 102.731C721.428 102.513 720.913 102.35 720.377 102.242C719.871 102.12 719.383 102.08 718.913 102.124C718.444 102.167 718.056 102.355 717.75 102.688C717.698 102.819 717.609 103.049 717.481 103.376C717.353 103.704 717.213 104.064 717.06 104.457C716.915 104.828 716.767 105.173 716.618 105.492C716.49 105.82 716.396 106.06 716.337 106.213Z" fill="#525F46"/>
<path d="M672.39 437.24C672.398 435.298 672.788 433.694 673.563 432.431C674.332 431.137 675.307 430.169 676.488 429.528C677.7 428.88 679.047 428.525 680.531 428.461C682.039 428.361 683.506 428.54 684.931 428.997C686.386 429.448 687.715 430.147 688.916 431.092C690.111 432.008 691.047 433.148 691.724 434.513C692.395 435.848 692.691 437.382 692.612 439.116C692.533 440.85 691.956 442.727 690.882 444.748C692.063 444.934 693.168 445.135 694.196 445.35C695.225 445.566 696.117 445.903 696.874 446.361C697.662 446.814 698.319 447.419 698.847 448.177C699.375 448.934 699.758 449.926 699.995 451.154C700.19 452.166 700.213 453.276 700.064 454.482C699.915 455.689 699.609 456.909 699.147 458.144C698.716 459.373 698.153 460.58 697.458 461.764C696.789 462.911 696.022 463.967 695.157 464.929C694.292 465.891 693.368 466.706 692.382 467.374C691.422 468.005 690.436 468.418 689.423 468.613C688.748 468.743 688.005 468.441 687.195 467.706C686.385 466.971 685.537 465.957 684.651 464.664C683.765 463.371 682.853 461.86 681.915 460.132C680.977 458.403 680.073 456.604 679.203 454.735C678.327 452.836 677.503 450.958 676.731 449.101C675.954 447.215 675.252 445.472 674.625 443.875C674.029 442.271 673.524 440.889 673.109 439.727C672.719 438.53 672.479 437.701 672.39 437.24ZM684.428 455.589C684.529 456.111 684.784 456.778 685.196 457.589C685.607 458.401 686.08 459.201 686.613 459.989C687.178 460.771 687.762 461.486 688.364 462.134C688.96 462.751 689.543 463.132 690.112 463.277C690.589 463.439 691.092 463.326 691.622 462.938C692.146 462.518 692.64 461.946 693.105 461.219C693.594 460.457 694.038 459.623 694.436 458.719C694.829 457.784 695.163 456.876 695.439 455.995C695.745 455.109 695.956 454.304 696.071 453.582C696.211 452.823 696.245 452.259 696.174 451.891C696.02 451.093 695.789 450.469 695.479 450.02C695.164 449.54 694.762 449.188 694.273 448.964C693.815 448.734 693.282 448.614 692.676 448.603C692.1 448.587 691.474 448.644 690.799 448.774C690.032 448.922 689.243 449.202 688.431 449.613C687.619 450.025 686.889 450.531 686.242 451.134C685.625 451.73 685.121 452.416 684.729 453.192C684.369 453.962 684.268 454.761 684.428 455.589ZM678.463 440.509C678.57 441.061 678.688 441.754 678.817 442.589C678.94 443.392 679.1 444.221 679.296 445.074C679.493 445.927 679.75 446.769 680.07 447.598C680.389 448.428 680.807 449.111 681.324 449.648C682.775 449.081 683.978 448.308 684.935 447.328C685.922 446.342 686.656 445.277 687.135 444.135C687.64 442.955 687.933 441.753 688.015 440.528C688.097 439.302 687.985 438.146 687.68 437.06C687.405 435.967 686.949 435.004 686.311 434.173C685.704 433.335 684.954 432.748 684.062 432.411C683.163 432.043 682.147 431.969 681.011 432.188C679.876 432.407 678.643 433.027 677.312 434.047C677.359 434.293 677.427 434.725 677.515 435.345C677.633 435.958 677.742 436.606 677.842 437.287C677.972 437.962 678.096 438.606 678.215 439.22C678.333 439.833 678.416 440.263 678.463 440.509ZM702.475 433.346C702.428 433.1 702.366 432.699 702.29 432.14C702.178 431.557 702.062 430.959 701.944 430.345C701.819 429.701 701.719 429.1 701.643 428.541C701.531 427.958 701.454 427.56 701.413 427.345C701.626 426.635 702.059 426.074 702.711 425.662C703.388 425.213 704.132 424.863 704.943 424.611C705.779 424.322 706.598 424.117 707.402 423.993C708.236 423.864 708.914 423.749 709.436 423.649C710.111 423.518 710.899 423.398 711.801 423.288C712.733 423.172 713.662 423.12 714.588 423.132C715.538 423.108 716.49 423.179 717.445 423.345C718.394 423.48 719.257 423.743 720.032 424.135C720.833 424.489 721.503 424.996 722.044 425.656C722.61 426.279 722.988 427.081 723.177 428.063C723.402 429.229 723.33 430.341 722.961 431.399C722.587 432.426 722.065 433.434 721.396 434.422C720.752 435.374 720.008 436.297 719.162 437.192C718.347 438.081 717.59 438.943 716.892 439.778C716.224 440.607 715.682 441.428 715.266 442.24C714.85 443.052 714.722 443.873 714.882 444.701C714.894 444.763 714.927 444.852 714.981 444.969C715.06 445.049 715.103 445.104 715.109 445.135C718.937 445.51 722.702 446.137 726.403 447.014C730.136 447.885 733.831 448.891 737.488 450.031C737.592 450.075 737.708 450.18 737.835 450.346C737.988 450.476 738.134 450.655 738.273 450.882C738.407 451.079 738.537 451.261 738.665 451.427C738.792 451.594 738.868 451.738 738.892 451.861C738.945 452.137 738.91 452.367 738.786 452.55C738.656 452.702 738.493 452.845 738.296 452.978C738.093 453.081 737.884 453.153 737.669 453.195C737.454 453.236 737.27 453.272 737.117 453.301C735.46 453.621 733.735 453.588 731.942 453.202C730.173 452.779 728.375 452.283 726.546 451.712C724.718 451.142 722.873 450.655 721.013 450.25C719.183 449.839 717.348 449.811 715.506 450.166L714.034 450.45C714.744 451.491 715.369 452.421 715.908 453.24C716.479 454.052 716.967 454.849 717.372 455.631C717.808 456.406 718.17 457.211 718.459 458.047C718.772 458.845 719.024 459.736 719.213 460.718C719.254 460.933 719.305 461.193 719.364 461.5C719.417 461.776 719.458 462.071 719.487 462.384C719.515 462.696 719.476 462.99 719.37 463.265C719.264 463.54 719.051 463.757 718.732 463.914C717.331 463.42 715.977 462.504 714.668 461.165C713.385 459.789 712.182 458.175 711.061 456.323C709.94 454.471 708.902 452.475 707.949 450.335C707.025 448.19 706.188 446.076 705.436 443.993C704.709 441.874 704.088 439.893 703.574 438.051C703.084 436.172 702.718 434.604 702.475 433.346ZM706.993 435.482C707.07 435.881 707.139 436.408 707.202 437.065C707.29 437.684 707.414 438.329 707.575 438.998C707.73 439.636 707.944 440.247 708.216 440.832C708.512 441.379 708.901 441.829 709.383 442.182C709.45 442.201 709.515 442.204 709.576 442.192C709.613 442.217 709.692 442.218 709.815 442.194C710.367 442.087 710.995 441.791 711.697 441.306C712.429 440.814 713.172 440.21 713.924 439.491C714.677 438.773 715.4 437.982 716.092 437.116C716.809 436.214 717.431 435.314 717.958 434.417C718.485 433.519 718.874 432.649 719.125 431.805C719.401 430.924 719.476 430.161 719.352 429.517C719.234 428.903 718.903 428.426 718.36 428.085C717.811 427.714 717.187 427.452 716.49 427.3C715.792 427.149 715.079 427.079 714.349 427.093C713.65 427.1 713.086 427.145 712.657 427.228C712.135 427.329 711.521 427.447 710.816 427.584C710.104 427.689 709.407 427.871 708.725 428.13C708.068 428.352 707.49 428.655 706.991 429.038C706.491 429.42 706.188 429.909 706.08 430.502C706.115 430.686 706.177 431.009 706.266 431.469C706.355 431.929 706.453 432.435 706.559 432.988C706.66 433.509 706.739 434.003 706.797 434.469C706.886 434.93 706.951 435.267 706.993 435.482Z" fill="#525F46"/>
<path d="M326 227.45C326 166.693 353.003 101.999 440.2 101.999C497.019 101.999 545.624 153.867 551.362 214.286C558.338 287.757 516.596 332.311 434.574 341.425C378.093 347.613 326 303.396 326 227.45Z" fill="#FFE376" stroke="black" stroke-width="4"/>
<path d="M426.136 327.136C405.996 327.136 386.981 319.935 371.792 306.208C351.09 287.757 339.726 259.403 339.726 226.55C339.726 205.623 343.439 175.694 361.104 151.954C378.431 128.552 404.983 116.738 439.975 116.738C488.692 116.738 532.46 160.843 537.635 215.074C543.711 279.093 507.369 318.697 435.474 326.573C432.436 327.023 429.286 327.136 426.136 327.136ZM440.087 123.151C411.847 123.151 346.14 133.277 346.14 226.662C346.14 257.716 356.716 284.269 376.068 301.595C392.27 316.11 413.197 322.748 434.912 320.385C468.89 316.672 494.543 305.646 510.97 287.869C527.397 270.092 534.26 245.789 531.447 215.749C526.497 164.668 485.542 123.151 440.087 123.151Z" fill="#30262A" stroke="black" stroke-width="2"/>
<path d="M387.822 198.075C388.486 194.7 389.704 192.043 391.475 190.106C393.246 188.114 395.265 186.758 397.534 186.039C399.859 185.32 402.321 185.154 404.922 185.541C407.578 185.873 410.068 186.675 412.393 187.948C414.772 189.221 416.847 190.881 418.618 192.929C420.389 194.921 421.634 197.217 422.354 199.818C423.073 202.364 423.073 205.131 422.354 208.119C421.634 211.107 420.002 214.179 417.456 217.333C419.448 218.052 421.302 218.772 423.018 219.491C424.733 220.211 426.172 221.096 427.334 222.147C428.552 223.199 429.492 224.472 430.156 225.966C430.82 227.46 431.152 229.314 431.152 231.527C431.152 233.354 430.82 235.29 430.156 237.338C429.492 239.385 428.552 241.405 427.334 243.397C426.172 245.39 424.789 247.299 423.184 249.125C421.634 250.896 419.946 252.473 418.12 253.856C416.294 255.24 414.413 256.347 412.476 257.177C410.594 257.951 408.74 258.339 406.914 258.339C405.697 258.339 404.507 257.564 403.345 256.015C402.183 254.465 401.048 252.418 399.942 249.872C398.835 247.326 397.756 244.394 396.704 241.073C395.653 237.753 394.684 234.322 393.799 230.78C392.914 227.183 392.111 223.642 391.392 220.155C390.672 216.614 390.036 213.349 389.483 210.36C388.984 207.372 388.569 204.799 388.237 202.641C387.961 200.427 387.822 198.905 387.822 198.075ZM402.598 234.018C402.598 234.958 402.819 236.203 403.262 237.753C403.705 239.302 404.258 240.852 404.922 242.401C405.641 243.951 406.416 245.39 407.246 246.718C408.076 247.991 408.962 248.848 409.902 249.291C410.677 249.734 411.59 249.706 412.642 249.208C413.693 248.655 414.745 247.825 415.796 246.718C416.903 245.556 417.954 244.255 418.95 242.816C419.946 241.322 420.832 239.856 421.607 238.417C422.437 236.978 423.073 235.65 423.516 234.433C424.014 233.16 424.263 232.191 424.263 231.527C424.263 230.089 424.069 228.926 423.682 228.041C423.294 227.1 422.713 226.353 421.939 225.8C421.219 225.246 420.334 224.859 419.282 224.638C418.286 224.416 417.179 224.306 415.962 224.306C414.579 224.306 413.112 224.527 411.563 224.97C410.013 225.412 408.574 226.049 407.246 226.879C405.973 227.709 404.867 228.733 403.926 229.95C403.04 231.168 402.598 232.523 402.598 234.018ZM397.285 205.795C397.285 206.791 397.258 208.036 397.202 209.53C397.147 210.969 397.147 212.463 397.202 214.013C397.258 215.562 397.424 217.112 397.7 218.661C397.977 220.211 398.475 221.539 399.194 222.646C401.906 222.147 404.258 221.207 406.25 219.823C408.298 218.44 409.93 216.835 411.148 215.009C412.42 213.127 413.333 211.135 413.887 209.032C414.44 206.929 414.634 204.882 414.468 202.89C414.357 200.897 413.887 199.071 413.057 197.411C412.282 195.751 411.175 194.478 409.736 193.593C408.298 192.652 406.554 192.182 404.507 192.182C402.459 192.182 400.108 192.846 397.451 194.174C397.451 194.617 397.424 195.391 397.368 196.498C397.368 197.605 397.341 198.767 397.285 199.984C397.285 201.202 397.285 202.364 397.285 203.471C397.285 204.577 397.285 205.352 397.285 205.795ZM441.439 201.396C441.439 200.953 441.466 200.233 441.522 199.237C441.522 198.186 441.522 197.107 441.522 196C441.522 194.838 441.549 193.759 441.605 192.763C441.605 191.711 441.605 190.992 441.605 190.604C442.214 189.442 443.154 188.612 444.427 188.114C445.755 187.561 447.166 187.201 448.66 187.035C450.21 186.814 451.704 186.731 453.143 186.786C454.637 186.841 455.854 186.869 456.795 186.869C458.013 186.869 459.424 186.924 461.029 187.035C462.689 187.146 464.321 187.367 465.926 187.699C467.586 187.976 469.219 188.419 470.824 189.027C472.428 189.581 473.84 190.328 475.057 191.269C476.33 192.154 477.326 193.261 478.045 194.589C478.82 195.862 479.207 197.383 479.207 199.154C479.207 201.257 478.709 203.166 477.713 204.882C476.717 206.542 475.472 208.119 473.978 209.613C472.539 211.052 470.934 212.408 469.163 213.681C467.448 214.953 465.843 216.199 464.349 217.416C462.91 218.633 461.693 219.879 460.697 221.151C459.701 222.424 459.202 223.808 459.202 225.302C459.202 225.412 459.23 225.578 459.285 225.8C459.396 225.966 459.451 226.076 459.451 226.132C465.981 228.069 472.318 230.421 478.46 233.188C484.658 235.954 490.745 238.943 496.722 242.152C496.888 242.263 497.054 242.484 497.22 242.816C497.441 243.093 497.635 243.453 497.801 243.896C497.967 244.283 498.133 244.643 498.299 244.975C498.465 245.307 498.548 245.583 498.548 245.805C498.548 246.303 498.41 246.69 498.133 246.967C497.856 247.188 497.524 247.382 497.137 247.548C496.75 247.659 496.362 247.714 495.975 247.714C495.588 247.714 495.256 247.714 494.979 247.714C491.991 247.714 489.002 247.077 486.014 245.805C483.081 244.477 480.12 243.01 477.132 241.405C474.144 239.8 471.1 238.334 468.001 237.006C464.958 235.678 461.776 235.014 458.455 235.014H455.799C456.685 237.061 457.459 238.887 458.123 240.492C458.843 242.097 459.424 243.646 459.867 245.141C460.365 246.635 460.724 248.157 460.946 249.706C461.222 251.2 461.361 252.833 461.361 254.604C461.361 254.991 461.361 255.461 461.361 256.015C461.361 256.513 461.333 257.038 461.278 257.592C461.222 258.145 461.056 258.643 460.78 259.086C460.503 259.529 460.06 259.833 459.451 259.999C457.183 258.671 455.135 256.623 453.309 253.856C451.538 251.034 449.989 247.825 448.66 244.228C447.332 240.631 446.198 236.812 445.257 232.772C444.372 228.733 443.625 224.776 443.016 220.902C442.463 216.973 442.048 213.321 441.771 209.945C441.549 206.514 441.439 203.664 441.439 201.396ZM448.577 206.625C448.577 207.344 448.522 208.285 448.411 209.447C448.356 210.554 448.356 211.716 448.411 212.934C448.467 214.096 448.633 215.23 448.909 216.337C449.242 217.388 449.767 218.301 450.487 219.076C450.597 219.132 450.708 219.159 450.819 219.159C450.874 219.215 451.012 219.242 451.234 219.242C452.23 219.242 453.42 218.938 454.803 218.329C456.242 217.72 457.736 216.918 459.285 215.922C460.835 214.926 462.357 213.791 463.851 212.519C465.4 211.19 466.784 209.835 468.001 208.451C469.219 207.068 470.187 205.684 470.907 204.301C471.681 202.862 472.069 201.562 472.069 200.399C472.069 199.293 471.654 198.352 470.824 197.577C469.993 196.747 468.997 196.083 467.835 195.585C466.673 195.087 465.456 194.727 464.183 194.506C462.965 194.285 461.969 194.174 461.195 194.174C460.254 194.174 459.147 194.174 457.874 194.174C456.602 194.118 455.329 194.201 454.056 194.423C452.839 194.589 451.732 194.921 450.736 195.419C449.74 195.917 449.048 196.664 448.66 197.66C448.66 197.992 448.66 198.573 448.66 199.403C448.66 200.233 448.66 201.146 448.66 202.143C448.66 203.083 448.633 203.969 448.577 204.799C448.577 205.629 448.577 206.238 448.577 206.625Z" fill="#525F46"/>
<path d="M359.4 414.102L359.4 414.102C353.961 408.122 347.958 405.315 341.934 405.797C335.893 406.28 329.562 410.09 323.53 417.924C314.796 429.283 300.879 450.256 290.876 470.993C285.874 481.365 281.873 491.632 279.976 500.583C278.069 509.581 278.339 517.012 281.564 521.922L359.4 414.102ZM359.4 414.102C360.704 415.536 362.417 418.301 364.399 422.155C366.369 425.983 368.565 430.804 370.85 436.284C375.419 447.243 380.325 460.792 384.454 474.204C388.585 487.622 391.927 500.863 393.384 511.216C394.114 516.399 394.363 520.803 394.024 524.123C393.677 527.527 392.749 529.435 391.497 530.15C389.916 531.052 387.228 531.955 383.621 532.786M359.4 414.102L383.621 532.786M383.621 532.786C380.038 533.611 375.627 534.347 370.656 534.949M383.621 532.786L370.656 534.949M370.656 534.949C360.714 536.152 348.582 536.809 336.443 536.567M370.656 534.949L336.443 536.567M336.443 536.567C324.298 536.325 312.187 535.184 302.272 532.808M336.443 536.567L302.272 532.808M302.272 532.808C297.315 531.621 292.937 530.131 289.388 528.309M302.272 532.808L289.388 528.309M289.388 528.309C285.833 526.485 283.171 524.357 281.565 521.923L289.388 528.309Z" fill="#4E829E" stroke="black" stroke-width="2"/>
<path d="M371.68 402.33C367.262 401.151 361.983 401.77 357.263 402.323C349.77 403.201 343.689 403.914 344.711 397.003L364.133 383.13C370.799 382.443 371.448 384.052 373.267 388.567C373.508 389.163 373.769 389.811 374.067 390.51C374.502 391.501 375.045 392.573 375.594 393.658C378.34 399.079 381.252 404.827 371.68 402.33ZM371.68 402.33L371.933 401.363C371.934 401.363 371.935 401.363 371.936 401.363M371.68 402.33L371.938 401.364C371.937 401.364 371.937 401.364 371.936 401.363M371.936 401.363C368.915 400.557 365.564 400.557 362.335 400.797C360.715 400.918 359.105 401.101 357.568 401.28C357.428 401.297 357.288 401.313 357.149 401.33C355.759 401.493 354.438 401.647 353.202 401.75C351.841 401.863 350.621 401.908 349.566 401.837C348.506 401.764 347.678 401.576 347.067 401.267C346.483 400.971 346.086 400.561 345.852 399.971C345.606 399.353 345.507 398.455 345.7 397.149L345.7 397.148C346.453 392.026 350.875 388.757 355.45 386.736C357.706 385.74 359.918 385.083 361.572 384.676C362.397 384.473 363.079 384.333 363.552 384.244C363.788 384.2 363.972 384.168 364.096 384.148C364.158 384.138 364.204 384.13 364.234 384.126L364.258 384.122C368.002 383.739 369.409 384.152 370.274 384.996C370.745 385.456 371.137 386.122 371.586 387.127C371.832 387.68 372.065 388.258 372.328 388.912C372.565 389.501 372.827 390.152 373.147 390.902L373.146 390.902L373.151 390.912C373.597 391.927 374.162 393.044 374.72 394.144C374.991 394.679 375.259 395.211 375.512 395.724C376.311 397.351 376.95 398.816 377.178 399.965C377.291 400.536 377.283 400.937 377.208 401.202C377.146 401.425 377.033 401.576 376.804 401.696C376.534 401.837 376.05 401.956 375.223 401.927C374.406 401.898 373.33 401.727 371.936 401.363Z" fill="#4E829E" stroke="black" stroke-width="2"/>
<path d="M623.009 517.09C623.009 517.09 605.64 499.72 611.633 489.843C617.626 479.965 627.726 511.041 627.726 511.041C627.726 511.041 622.509 474.249 633.331 473.639C644.152 472.973 633.331 511.041 633.331 511.041C633.331 511.041 637.326 502.162 641.266 501.607C645.206 501.052 644.041 509.154 637.049 517.034H623.009V517.09Z" fill="#FADE0E"/>
<path d="M640.6 517.811C640.434 517.811 640.267 517.755 640.101 517.644C639.823 517.367 639.768 516.923 640.045 516.59C646.26 509.598 647.981 502.994 646.871 500.885C646.704 500.552 646.371 500.164 645.484 500.275C642.154 500.719 638.27 507.822 637.049 510.541C636.882 510.874 636.494 511.04 636.161 510.929C635.828 510.818 635.606 510.43 635.717 510.042C635.717 509.986 638.103 501.607 639.712 492.45C641.766 480.519 641.655 472.639 639.324 469.754C638.602 468.866 637.659 468.477 636.494 468.533C635.217 468.588 634.108 469.199 633.164 470.364C626.45 478.577 630.778 509.82 630.833 510.152C630.889 510.541 630.667 510.874 630.278 510.985C629.89 511.096 629.557 510.874 629.446 510.485C627.171 503.549 620.234 485.347 615.129 484.737C614.796 484.681 613.742 484.57 612.521 486.568C606.139 497.167 625.118 516.368 625.34 516.534C625.617 516.812 625.617 517.256 625.34 517.589C625.062 517.866 624.618 517.866 624.285 517.589C624.23 517.533 619.235 512.539 615.184 506.212C609.58 497.556 608.303 490.73 611.244 485.791C612.354 483.96 613.742 483.072 615.24 483.238C618.292 483.571 621.733 488.122 625.784 497.056C626.893 499.498 627.837 501.884 628.614 503.993C627.67 494.171 626.727 475.802 631.999 469.421C633.22 467.922 634.662 467.146 636.383 467.035C638.047 466.924 639.435 467.534 640.434 468.81C645.151 474.693 641.044 494.836 638.602 504.77C638.602 504.714 638.658 504.714 638.658 504.659C641.044 501.052 643.264 499.054 645.317 498.776C646.593 498.61 647.648 499.054 648.203 500.164C649.757 503.049 647.537 510.319 641.211 517.478C640.989 517.755 640.822 517.811 640.6 517.811Z" fill="#131F2D"/>
<path d="M356.308 548.83C356.308 548.83 341.769 534.291 346.763 526.023C351.758 517.754 360.192 543.781 360.192 543.781C360.192 543.781 355.809 512.982 364.909 512.427C374.01 511.872 364.909 543.781 364.909 543.781C364.909 543.781 368.294 536.345 371.569 535.901C374.843 535.457 373.899 542.227 368.072 548.83H356.308Z" fill="#FADE0E"/>
<path d="M371.015 549.442C370.849 549.442 370.738 549.386 370.627 549.275C370.349 549.053 370.349 548.665 370.571 548.387C375.732 542.561 377.23 537.011 376.287 535.236C376.12 534.958 375.843 534.625 375.122 534.736C372.347 535.125 369.073 541.062 368.074 543.338C367.963 543.615 367.63 543.781 367.297 543.67C367.02 543.559 366.853 543.226 366.909 542.949C366.909 542.894 368.906 535.901 370.238 528.243C371.958 518.255 371.847 511.651 369.905 509.209C369.295 508.433 368.518 508.1 367.519 508.155C366.409 508.211 365.521 508.71 364.744 509.709C359.084 516.59 362.747 542.727 362.802 543.005C362.858 543.338 362.636 543.615 362.358 543.67C362.025 543.726 361.748 543.559 361.637 543.282C359.75 537.455 353.923 522.195 349.65 521.695C349.373 521.64 348.485 521.584 347.486 523.249C342.103 532.128 358.085 548.221 358.196 548.387C358.418 548.609 358.418 548.998 358.196 549.275C357.974 549.497 357.586 549.497 357.308 549.275C357.253 549.22 353.091 545.058 349.706 539.786C345.044 532.572 343.935 526.801 346.432 522.694C347.375 521.14 348.485 520.419 349.817 520.585C352.369 520.863 355.255 524.692 358.64 532.183C359.528 534.237 360.36 536.234 361.026 538.01C360.249 529.797 359.473 514.426 363.856 509.043C364.855 507.822 366.076 507.156 367.519 507.045C368.906 506.99 370.072 507.489 370.904 508.543C374.844 513.482 371.404 530.352 369.35 538.676L369.406 538.621C371.403 535.569 373.29 533.904 375.011 533.682C376.065 533.515 376.953 533.959 377.452 534.847C378.729 537.289 376.897 543.338 371.57 549.386C371.404 549.386 371.237 549.442 371.015 549.442Z" fill="#131F2D"/>
<path d="M140.445 521.306C140.445 521.306 121.078 501.995 127.737 491.007C134.396 480.02 145.661 514.647 145.661 514.647C145.661 514.647 139.835 473.694 151.932 472.972C163.974 472.251 151.932 514.647 151.932 514.647C151.932 514.647 156.427 504.77 160.755 504.159C165.139 503.549 163.863 512.539 156.094 521.362H140.445V521.306Z" fill="#FADE0E"/>
<path d="M160.032 522.083C159.866 522.083 159.644 522.027 159.477 521.861C159.144 521.583 159.089 521.028 159.422 520.695C166.303 512.926 168.245 505.546 167.024 503.215C166.858 502.882 166.47 502.383 165.471 502.549C161.753 503.049 157.424 510.984 156.092 513.981C155.926 514.369 155.482 514.536 155.093 514.425C154.705 514.258 154.483 513.87 154.594 513.426C154.594 513.315 157.258 504.048 159.033 493.837C161.364 480.519 161.198 471.806 158.59 468.532C157.813 467.533 156.758 467.089 155.426 467.145C153.984 467.256 152.763 467.922 151.708 469.198C144.217 478.354 149.045 513.148 149.1 513.481C149.156 513.925 148.878 514.314 148.49 514.369C148.101 514.48 147.657 514.203 147.546 513.814C147.546 513.759 145.216 506.656 142.053 499.608C136.614 487.455 133.174 485.346 131.62 485.18C131.232 485.125 130.066 485.014 128.734 487.233C121.576 499.053 142.774 520.418 142.996 520.64C143.329 520.973 143.329 521.472 142.996 521.805C142.663 522.138 142.164 522.138 141.831 521.805C140.943 520.917 119.523 499.275 127.292 486.401C128.568 484.348 130.066 483.404 131.786 483.571C135.227 483.959 139.056 489.009 143.495 498.998C144.716 501.717 145.771 504.381 146.659 506.711C145.604 495.779 144.605 475.302 150.432 468.199C151.764 466.534 153.429 465.647 155.315 465.536C157.147 465.425 158.701 466.09 159.81 467.533C165.082 474.081 160.476 496.501 157.757 507.599C157.757 507.544 157.813 507.544 157.813 507.488C160.476 503.437 162.973 501.217 165.249 500.94C166.691 500.718 167.857 501.273 168.467 502.438C170.188 505.657 167.746 513.759 160.643 521.75C160.476 522.027 160.254 522.083 160.032 522.083Z" fill="#131F2D"/>
<path d="M60.6448 480.242C60.6448 480.242 44.5519 464.204 50.1012 455.048C55.6504 445.892 64.9732 474.693 64.9732 474.693C64.9732 474.693 60.1454 440.62 70.1896 440.065C80.2338 439.455 70.1896 474.693 70.1896 474.693C70.1896 474.693 73.9076 466.48 77.5146 465.98C81.1217 465.481 80.1228 472.972 73.6301 480.242H60.6448Z" fill="#FADE0E"/>
<path d="M76.9596 480.908C76.7931 480.908 76.6266 480.853 76.5157 480.742C76.2382 480.52 76.2382 480.076 76.4602 479.798C82.1759 473.361 83.7852 467.201 82.7864 465.259C82.6199 464.982 82.3424 464.593 81.51 464.704C78.4579 465.148 74.8509 471.696 73.6855 474.194C73.519 474.526 73.1861 474.693 72.8531 474.526C72.5202 474.415 72.3537 474.027 72.4092 473.694C72.4092 473.639 74.6289 465.87 76.0717 457.435C78.014 446.392 77.8475 439.122 75.6833 436.403C75.0174 435.571 74.185 435.182 73.0751 435.238C71.8543 435.293 70.8554 435.848 69.9675 436.958C63.7523 444.56 67.7478 473.472 67.8033 473.75C67.8588 474.083 67.6368 474.415 67.3039 474.526C66.9709 474.582 66.6379 474.415 66.527 474.083C64.4182 467.645 57.9811 450.776 53.2642 450.221C52.9312 450.165 51.9878 450.054 50.878 451.941C44.9402 461.763 62.587 479.521 62.7534 479.687C63.0309 479.965 63.0309 480.353 62.7534 480.631C62.476 480.908 62.0875 480.908 61.8101 480.631C61.7546 480.575 57.1487 475.969 53.3751 470.143C48.2143 462.152 46.9935 455.77 49.7126 451.219C50.767 449.499 51.9878 448.722 53.4306 448.889C56.2608 449.222 59.4794 453.384 63.1974 461.708C64.1963 463.927 65.0841 466.203 65.861 468.145C64.9732 459.044 64.1408 442.063 68.9686 436.125C70.0785 434.738 71.4658 434.017 73.0196 433.906C74.5734 433.795 75.8497 434.35 76.7931 435.571C81.1771 441.009 77.3481 459.654 75.0728 468.866L75.1283 468.811C77.3481 465.481 79.4013 463.594 81.288 463.372C82.5089 463.206 83.4523 463.65 83.9517 464.649C85.3945 467.312 83.3413 474.083 77.459 480.686C77.2926 480.797 77.1261 480.908 76.9596 480.908Z" fill="#131F2D"/>
</g>
<defs>
<filter id="filter0_d_72_5328" x="0" y="0.783203" width="827" height="600.216" filterUnits="userSpaceOnUse" color-interpolation-filters="sRGB">
<feFlood flood-opacity="0" result="BackgroundImageFix"/>
<feColorMatrix in="SourceAlpha" type="matrix" values="0 0 0 0 0 0 0 0 0 0 0 0 0 0 0 0 0 0 127 0" result="hardAlpha"/>
<feOffset dy="4"/>
<feGaussianBlur stdDeviation="2"/>
<feComposite in2="hardAlpha" operator="out"/>
<feColorMatrix type="matrix" values="0 0 0 0 0 0 0 0 0 0 0 0 0 0 0 0 0 0 0.25 0"/>
<feBlend mode="normal" in2="BackgroundImageFix" result="effect1_dropShadow_72_5328"/>
<feBlend mode="normal" in="SourceGraphic" in2="effect1_dropShadow_72_5328" result="shape"/>
</filter>
</defs>
</svg>
