<svg width="591" height="428" viewBox="0 0 591 428" fill="none" xmlns="http://www.w3.org/2000/svg">
<g clip-path="url(#clip0_137_6298)">
<path d="M294.281 417.683C343.224 409.918 392.075 412.808 435.62 415.384C512.664 419.943 573.102 423.518 588.063 365.357C595.159 337.769 607.223 278.145 294.281 313.746C220.274 322.166 161.731 323.956 117.02 325.323C36.117 327.797 0.5 328.886 0.5 365.357C0.5 421.984 158.745 439.187 294.281 417.683Z" fill="#8FCE51"/>
<path d="M294.281 417.683C343.224 409.918 392.075 412.808 435.62 415.384C512.664 419.943 573.102 423.518 588.063 365.357C595.159 337.769 607.223 278.145 294.281 313.746C220.274 322.166 161.731 323.956 117.02 325.323C36.117 327.797 0.5 328.886 0.5 365.357C0.5 421.984 158.745 439.187 294.281 417.683Z" stroke="white"/>
<path d="M133.17 343.235H101.149C99.5373 343.236 97.9414 342.918 96.4525 342.302C94.9635 341.685 93.6106 340.781 92.471 339.642C91.3314 338.502 90.4276 337.149 89.811 335.66C89.1944 334.171 88.8772 332.575 88.8774 330.963V266.002C88.8772 264.391 89.1944 262.795 89.811 261.306C90.4276 259.817 91.3315 258.464 92.4711 257.324C93.6106 256.185 94.9635 255.281 96.4525 254.664C97.9415 254.048 99.5373 253.73 101.149 253.73H133.17C134.782 253.73 136.377 254.047 137.867 254.664C139.356 255.281 140.708 256.185 141.848 257.324C142.988 258.464 143.892 259.817 144.508 261.306C145.125 262.795 145.442 264.391 145.442 266.002V330.963C145.442 332.575 145.125 334.171 144.508 335.66C143.892 337.149 142.988 338.502 141.848 339.642C140.708 340.781 139.356 341.685 137.867 342.302C136.377 342.918 134.782 343.236 133.17 343.235Z" fill="#525F46" stroke="black" stroke-width="2.16117"/>
<path d="M209.248 343.237H177.227C175.615 343.237 174.02 342.92 172.531 342.303C171.042 341.687 169.689 340.783 168.549 339.643C167.41 338.504 166.506 337.151 165.889 335.662C165.273 334.173 164.956 332.577 164.956 330.965V201.761C164.956 200.15 165.273 198.554 165.889 197.065C166.506 195.576 167.41 194.223 168.549 193.084C169.689 191.944 171.042 191.04 172.531 190.424C174.02 189.807 175.616 189.49 177.227 189.49H209.248C210.86 189.49 212.455 189.807 213.944 190.424C215.433 191.04 216.786 191.944 217.926 193.084C219.066 194.223 219.969 195.576 220.586 197.065C221.203 198.554 221.52 200.15 221.52 201.761V330.965C221.52 332.577 221.203 334.173 220.586 335.662C219.97 337.151 219.066 338.504 217.926 339.643C216.787 340.783 215.434 341.687 213.945 342.304C212.456 342.92 210.86 343.237 209.248 343.237Z" fill="#525F46" stroke="black" stroke-width="2.16117"/>
<path d="M285.962 343.236H252.662C251.134 343.238 249.62 342.939 248.208 342.356C246.795 341.772 245.512 340.915 244.432 339.835C243.351 338.754 242.494 337.471 241.91 336.059C241.327 334.646 241.028 333.133 241.03 331.605V131.482C241.028 129.953 241.327 128.44 241.91 127.027C242.494 125.615 243.351 124.332 244.431 123.251C245.512 122.17 246.795 121.314 248.208 120.73C249.62 120.146 251.134 119.847 252.662 119.85H285.962C287.49 119.847 289.004 120.146 290.416 120.73C291.829 121.314 293.112 122.17 294.193 123.251C295.273 124.332 296.13 125.615 296.714 127.027C297.297 128.44 297.597 129.953 297.594 131.482V331.605C297.597 333.133 297.297 334.646 296.714 336.059C296.13 337.471 295.273 338.754 294.193 339.835C293.112 340.915 291.829 341.772 290.416 342.356C289.004 342.939 287.49 343.238 285.962 343.236Z" fill="#525F46" stroke="black" stroke-width="2.16117"/>
<path d="M361.876 343.234H328.935C327.386 343.236 325.852 342.931 324.421 342.339C322.99 341.747 321.689 340.879 320.594 339.783C319.499 338.688 318.63 337.388 318.038 335.957C317.446 334.525 317.142 332.991 317.143 331.443V62.2411C317.142 60.6923 317.446 59.1584 318.038 57.7272C318.631 56.2961 319.499 54.9957 320.594 53.9005C321.69 52.8053 322.99 51.9368 324.421 51.3446C325.852 50.7524 327.386 50.4481 328.935 50.4492H361.876C363.425 50.4481 364.959 50.7524 366.39 51.3446C367.821 51.9369 369.121 52.8054 370.216 53.9006C371.311 54.9958 372.18 56.2962 372.772 57.7273C373.364 59.1585 373.668 60.6923 373.667 62.2411V331.404C373.672 332.955 373.371 334.493 372.781 335.928C372.191 337.363 371.323 338.668 370.228 339.767C369.132 340.866 367.831 341.738 366.397 342.333C364.964 342.928 363.428 343.234 361.876 343.234Z" fill="#525F46" stroke="black" stroke-width="2.16117"/>
<path d="M438.114 343.236H404.893C401.798 343.234 398.831 342.003 396.642 339.815C394.454 337.627 393.223 334.659 393.221 331.564V12.752C393.223 9.65714 394.454 6.68976 396.642 4.50139C398.831 2.31301 401.798 1.08251 404.893 1.08008H438.114C441.209 1.08251 444.176 2.31301 446.365 4.50139C448.553 6.68976 449.783 9.65714 449.786 12.752V331.601C449.769 334.688 448.533 337.644 446.346 339.823C444.16 342.003 441.201 343.229 438.114 343.236Z" fill="#525F46" stroke="black" stroke-width="2.16117"/>
<path d="M327.555 377.415V371.497L412.505 370.979L412.385 377.415H327.555Z" fill="#E6AE32"/>
<path d="M330.88 371.337C338.595 364.821 356.225 359.064 386.567 362.982C406.315 365.54 416.629 373.296 410.953 380.052C404.037 388.247 383.849 391.165 354.146 388.447C333.718 386.608 321.245 379.492 330.88 371.337Z" fill="#E6AE32"/>
<path d="M330.88 365.661C338.595 359.145 356.225 353.388 386.567 357.306C406.315 359.865 416.629 367.62 410.953 374.376C404.037 382.571 383.849 385.489 354.146 382.771C333.718 380.932 321.245 373.816 330.88 365.661Z" fill="#FFE376"/>
<path d="M373.408 382.41C368.291 382.41 362.695 382.131 356.578 381.571C343.786 380.412 334.991 376.894 333.592 372.416C333.112 370.937 333.232 368.579 336.43 365.86C340.588 362.342 353.54 354.627 384.322 358.624C396.235 360.184 404.79 364.021 406.589 368.699C406.936 369.631 407.015 370.642 406.817 371.617C406.619 372.592 406.153 373.492 405.47 374.215C400.912 379.572 389.759 382.41 373.408 382.41ZM337.31 366.86C335.191 368.659 334.351 370.378 334.871 372.017C336.11 375.934 344.665 379.172 356.738 380.252C381.843 382.53 398.793 380.092 404.51 373.336C405.043 372.802 405.412 372.127 405.575 371.391C405.738 370.655 405.688 369.887 405.43 369.178C403.831 365.021 395.475 361.383 384.202 359.944C372.449 358.425 362.135 358.505 353.5 360.144C344.705 361.823 339.828 364.701 337.31 366.86Z" fill="#30262A"/>
<path d="M127.5 347.197V340.241L222.684 339.602L222.564 347.197H127.5Z" fill="#E6AE32"/>
<path d="M131.256 340.041C139.931 332.326 159.679 325.57 193.659 330.167C215.806 333.165 227.36 342.36 220.963 350.315C213.208 359.99 190.581 363.468 157.321 360.23C134.374 358.031 120.422 349.676 131.256 340.041Z" fill="#E6AE32"/>
<path d="M131.256 333.325C139.931 325.609 159.679 318.853 193.659 323.45C215.806 326.449 227.36 335.643 220.963 343.599C213.208 353.273 190.581 356.751 157.321 353.513C134.374 351.354 120.422 342.959 131.256 333.325Z" fill="#FFE376"/>
<path d="M179.105 353.072C173.309 353.072 166.952 352.752 160.036 352.073C145.845 350.714 136.011 346.596 134.292 341.399C133.692 339.6 133.772 336.802 137.45 333.564C142.087 329.406 156.638 320.291 191.138 325.009C204.33 326.808 213.885 331.285 216.044 336.722C216.478 337.831 216.596 339.038 216.384 340.21C216.172 341.382 215.639 342.472 214.844 343.358C211.446 347.595 204.93 350.514 195.456 351.953C190.043 352.748 184.576 353.122 179.105 353.072ZM137.929 334.123L138.449 334.683C136.011 336.842 135.091 338.96 135.731 340.919C137.21 345.477 146.804 349.274 160.156 350.554C188.26 353.272 207.249 350.354 213.645 342.398C214.265 341.719 214.684 340.88 214.853 339.976C215.022 339.072 214.936 338.139 214.604 337.281C212.686 332.444 203.371 328.207 190.898 326.488C177.746 324.689 166.193 324.769 156.519 326.728C146.724 328.726 141.247 332.164 138.409 334.683L137.929 334.123Z" fill="#30262A"/>
<path d="M136.934 336.562V329.606L232.118 328.967L231.998 336.562H136.934Z" fill="#E6AE32"/>
<path d="M140.693 329.407C149.368 321.691 169.117 314.935 203.097 319.532C225.244 322.531 236.797 331.725 230.401 339.681C222.645 349.355 200.019 352.833 166.758 349.595C143.812 347.436 129.86 339.041 140.693 329.407Z" fill="#E6AE32"/>
<path d="M140.693 322.692C149.368 314.976 169.117 308.22 203.097 312.818C225.244 315.816 236.797 325.01 230.401 332.966C222.645 342.64 200.019 346.118 166.758 342.88C143.812 340.721 129.86 332.326 140.693 322.692Z" fill="#FFE376"/>
<path d="M188.504 342.437C182.707 342.437 176.351 342.118 169.435 341.438C155.243 340.079 145.409 336.001 143.69 330.764C143.09 328.965 143.17 326.167 146.848 322.929L147.368 323.489L146.848 322.929C151.485 318.771 166.037 309.657 200.537 314.374C213.729 316.173 223.283 320.65 225.442 326.087C225.877 327.195 225.995 328.403 225.783 329.575C225.571 330.747 225.038 331.836 224.243 332.723C220.845 336.961 214.329 339.879 204.854 341.318C199.441 342.116 193.975 342.49 188.504 342.437ZM182.627 314.574C177.047 314.537 171.478 315.046 165.997 316.093C156.203 318.092 150.726 321.53 147.888 324.048C145.449 326.207 144.53 328.326 145.169 330.285C146.648 334.842 156.243 338.64 169.595 339.919C197.698 342.637 216.687 339.719 223.083 331.764C223.703 331.085 224.122 330.246 224.291 329.342C224.461 328.438 224.375 327.505 224.043 326.647C222.124 321.809 212.809 317.572 200.337 315.853C194.468 315.036 188.552 314.609 182.627 314.574Z" fill="#30262A"/>
<path d="M132.055 323.535V316.579L227.239 315.939L227.079 323.535H132.055Z" fill="#E6AE32"/>
<path d="M135.774 316.377C144.449 308.662 164.198 301.906 198.178 306.503C220.325 309.501 231.878 318.696 225.482 326.651C217.726 336.326 195.099 339.804 161.839 336.565C138.932 334.407 124.941 326.012 135.774 316.377Z" fill="#E6AE32"/>
<path d="M135.774 309.702C144.449 301.986 164.198 295.23 198.178 299.827C220.325 302.826 231.878 312.02 225.482 319.976C217.726 329.65 195.099 333.128 161.839 329.89C138.932 327.691 124.941 319.336 135.774 309.702Z" fill="#FFE376"/>
<path d="M183.629 329.41C177.832 329.41 171.476 329.09 164.56 328.411C150.368 327.051 140.534 322.934 138.815 317.737C138.215 315.938 138.295 313.14 141.973 309.902C146.61 305.744 161.162 296.629 195.662 301.347C208.854 303.145 218.408 307.623 220.567 313.06C221.001 314.168 221.119 315.376 220.908 316.548C220.696 317.72 220.163 318.809 219.368 319.696C215.97 323.933 209.454 326.852 199.979 328.291C194.566 329.087 189.1 329.462 183.629 329.41ZM142.493 310.461L143.013 311.021C140.574 313.18 139.655 315.298 140.294 317.257C141.773 321.814 151.368 325.612 164.72 326.892C192.823 329.61 211.812 326.692 218.208 318.736C218.828 318.057 219.247 317.218 219.416 316.314C219.586 315.41 219.5 314.477 219.168 313.619C217.249 308.782 207.934 304.545 195.462 302.826C182.309 301.027 170.756 301.107 161.082 303.066C151.288 305.064 145.811 308.502 142.973 311.021L142.493 310.461Z" fill="#30262A"/>
<path d="M171.112 323.695L171.751 322.696C171.991 322.336 171.391 321.976 170.352 321.816C168.205 321.584 166.08 321.183 163.996 320.617C163.196 320.377 162.996 319.977 163.556 319.658L163.956 319.458C164.948 319.063 166.04 318.993 167.074 319.258C169.416 319.885 171.812 320.287 174.23 320.457C178.947 320.817 181.825 319.897 182.705 318.538C183.544 317.219 182.425 316.419 177.988 315.34C171.831 313.861 165.795 312.222 167.154 310.143C168.313 308.344 172.671 306.745 180.586 307.305C180.94 307.361 181.302 307.34 181.647 307.244C181.992 307.147 182.312 306.977 182.585 306.745L183.304 305.626C183.544 305.226 184.704 304.986 185.823 305.066C186.942 305.146 187.662 305.546 187.422 305.946L186.822 306.865C186.583 307.225 187.182 307.585 188.182 307.705C189.813 307.887 191.429 308.18 193.019 308.584C193.898 308.824 194.098 309.264 193.498 309.583L193.139 309.783C192.17 310.159 191.11 310.229 190.1 309.983C188.096 309.474 186.048 309.153 183.984 309.024C178.867 308.624 176.229 309.583 175.629 310.503C174.829 311.742 178.347 312.142 183.584 313.461C189.781 314.98 193.219 316.739 192.419 318.898C191.58 321.217 186.742 322.456 178.148 322.256C177.794 322.21 177.435 322.235 177.091 322.332C176.748 322.428 176.427 322.593 176.149 322.816L175.389 324.015C175.149 324.415 173.99 324.655 172.871 324.575H172.791C171.551 324.495 170.832 324.095 171.112 323.695Z" fill="#30262A"/>
<path d="M129.656 311.496V304.5L224.84 303.9L224.72 311.496H129.656Z" fill="#E6AE32"/>
<path d="M133.415 304.34C142.09 296.625 161.838 289.869 195.818 294.466C217.965 297.464 229.518 306.659 223.122 314.614C215.367 324.289 192.74 327.766 159.48 324.528C136.573 322.33 122.581 313.975 133.415 304.34Z" fill="#E6AE32"/>
<path d="M133.415 297.623C142.09 289.908 161.838 283.152 195.818 287.749C217.965 290.747 229.518 299.942 223.122 307.897C215.367 317.572 192.74 321.05 159.48 317.812C136.573 315.613 122.581 307.258 133.415 297.623Z" fill="#FFE376"/>
<path d="M181.269 317.375C175.473 317.375 169.116 317.055 162.201 316.375C148.009 315.016 138.175 310.899 136.456 305.702C135.856 303.903 135.936 301.104 139.614 297.866L140.133 298.426L139.614 297.866C144.251 293.709 158.802 284.594 193.302 289.311C206.494 291.11 216.049 295.588 218.208 301.024C218.642 302.133 218.76 303.341 218.548 304.513C218.337 305.685 217.803 306.775 217.008 307.661C213.61 311.898 207.094 314.816 197.62 316.256C192.207 317.051 186.74 317.425 181.269 317.375ZM175.353 289.511C169.774 289.475 164.204 289.984 158.723 291.03C148.928 293.029 143.452 296.467 140.613 298.986C138.175 301.144 137.255 303.263 137.895 305.222C139.374 309.779 148.968 313.577 162.32 314.856C190.424 317.575 209.413 314.656 215.809 306.701C216.429 306.022 216.848 305.183 217.017 304.279C217.186 303.375 217.1 302.442 216.768 301.584C214.85 296.747 205.535 292.509 193.062 290.79C187.194 289.972 181.278 289.545 175.353 289.511Z" fill="#30262A"/>
<path d="M168.709 311.619L169.349 310.62C169.589 310.26 168.989 309.9 167.95 309.74C165.803 309.508 163.677 309.107 161.593 308.541C160.794 308.301 160.594 307.901 161.154 307.581L161.553 307.381C162.545 306.986 163.637 306.917 164.672 307.182C167.013 307.809 169.409 308.211 171.827 308.381C176.545 308.741 179.423 307.821 180.302 306.462C181.142 305.143 180.023 304.343 175.585 303.264C169.429 301.785 163.392 300.146 164.752 298.067C165.911 296.268 170.268 294.669 178.184 295.229C178.538 295.285 178.9 295.264 179.245 295.167C179.59 295.071 179.91 294.901 180.183 294.669L180.902 293.55C181.142 293.15 182.301 292.91 183.421 292.99C184.54 293.07 185.26 293.47 185.02 293.869L184.42 294.789C184.18 295.149 184.78 295.508 185.779 295.628C187.41 295.81 189.026 296.104 190.616 296.508C191.496 296.748 191.696 297.187 191.096 297.507L190.736 297.707C189.768 298.083 188.707 298.153 187.698 297.907C185.694 297.397 183.646 297.076 181.582 296.948C176.465 296.548 173.826 297.507 173.227 298.427C172.427 299.666 175.945 300.066 181.182 301.385C187.378 302.904 190.816 304.663 190.017 306.822C189.177 309.14 184.34 310.38 175.745 310.18C175.391 310.134 175.032 310.159 174.688 310.256C174.345 310.352 174.024 310.517 173.746 310.74L172.987 311.939C172.747 312.339 171.588 312.578 170.468 312.498H170.388C169.189 312.419 168.469 312.019 168.709 311.619Z" fill="#30262A"/>
<path d="M139.008 301.103V294.147L234.192 293.508L234.072 301.103H139.008Z" fill="#E6AE32"/>
<path d="M142.768 293.946C151.443 286.23 171.191 279.474 205.171 284.072C227.318 287.07 238.871 296.264 232.475 304.22C224.72 313.894 202.093 317.372 168.832 314.134C145.886 311.935 131.934 303.58 142.768 293.946Z" fill="#E6AE32"/>
<path d="M142.764 287.231C151.439 279.515 171.187 272.759 205.167 277.357C227.314 280.355 238.867 289.55 232.471 297.505C224.716 307.179 202.089 310.657 168.828 307.419C145.882 305.26 131.93 296.865 142.764 287.231Z" fill="#FFE376"/>
<path d="M190.582 306.978C184.785 306.978 178.429 306.659 171.513 305.979C157.321 304.62 147.487 300.542 145.768 295.305C145.168 293.506 145.248 290.708 148.926 287.47C153.564 283.312 168.115 274.198 202.615 278.915C215.807 280.714 225.361 285.191 227.52 290.628C227.955 291.736 228.073 292.944 227.861 294.116C227.65 295.288 227.116 296.378 226.321 297.264C222.923 301.502 216.407 304.42 206.932 305.859C201.52 306.657 196.053 307.031 190.582 306.978ZM149.446 288.03L149.966 288.589C147.527 290.748 146.608 292.867 147.247 294.826C148.726 299.383 158.321 303.181 171.673 304.46C199.776 307.178 218.765 304.26 225.161 296.305C225.782 295.626 226.2 294.787 226.37 293.883C226.539 292.979 226.453 292.046 226.121 291.188C224.202 286.35 214.888 282.113 202.415 280.394C189.263 278.595 177.709 278.675 168.035 280.634C158.241 282.633 152.764 286.071 149.926 288.589L149.446 288.03Z" fill="#30262A"/>
<path d="M136.934 286.871V279.915L232.118 279.275L231.998 286.871H136.934Z" fill="#E6AE32"/>
<path d="M140.693 279.715C149.368 272 169.117 265.244 203.097 269.841C225.244 272.839 236.797 282.034 230.401 289.989C222.645 299.664 200.019 303.141 166.758 299.903C143.812 297.745 129.86 289.35 140.693 279.715Z" fill="#E6AE32"/>
<path d="M140.693 273C149.368 265.285 169.117 258.529 203.097 263.126C225.244 266.124 236.797 275.319 230.401 283.274C222.645 292.949 200.019 296.427 166.758 293.189C143.812 291.03 129.86 282.635 140.693 273Z" fill="#FFE376"/>
<path d="M188.504 292.746C182.707 292.746 176.351 292.426 169.435 291.747C155.243 290.387 145.409 286.31 143.69 281.073C143.09 279.274 143.17 276.476 146.848 273.237C151.485 269.08 166.037 259.965 200.537 264.682C213.729 266.481 223.283 270.959 225.442 276.396C225.876 277.505 225.994 278.712 225.783 279.884C225.571 281.056 225.038 282.146 224.243 283.032C220.845 287.269 214.329 290.187 204.854 291.627C199.441 292.425 193.975 292.799 188.504 292.746ZM147.888 274.397C145.449 276.555 144.53 278.674 145.169 280.633C146.648 285.19 156.243 288.988 169.595 290.267C197.698 292.986 216.687 290.068 223.083 282.112C223.703 281.433 224.122 280.594 224.291 279.69C224.461 278.786 224.375 277.853 224.043 276.995C222.124 272.158 212.809 267.921 200.337 266.202C187.184 264.403 175.631 264.483 165.957 266.441C156.163 268.4 150.726 271.838 147.888 274.397Z" fill="#30262A"/>
<path d="M421.293 340.4V333.284L518.316 332.645L518.196 340.4H421.293Z" fill="#E6AE32"/>
<path d="M425.087 333.084C433.922 325.209 454.07 318.333 488.73 323.05C511.317 326.128 523.07 335.443 516.593 343.598C508.678 353.472 485.652 356.99 451.672 353.712C428.285 351.433 414.054 342.918 425.087 333.084Z" fill="#E6AE32"/>
<path d="M425.087 326.248C433.922 318.373 454.07 311.497 488.73 316.214C511.317 319.292 523.07 328.607 516.593 336.762C508.678 346.636 485.652 350.154 451.672 346.876C428.285 344.597 414.054 336.082 425.087 326.248Z" fill="#FFE376"/>
<path d="M473.863 346.394C467.946 346.394 461.47 346.074 454.434 345.395C439.963 343.996 429.929 339.838 428.17 334.521C427.57 332.722 427.65 329.844 431.368 326.526C436.125 322.288 450.956 313.014 486.096 317.771C499.568 319.61 509.282 324.167 511.481 329.724C511.925 330.851 512.049 332.079 511.837 333.272C511.625 334.464 511.086 335.575 510.281 336.48C506.803 340.797 500.167 343.756 490.493 345.275C484.985 346.054 479.426 346.428 473.863 346.394ZM432.447 327.645C429.969 329.844 429.009 332.003 429.689 334.001C431.208 338.639 441.002 342.516 454.594 343.836C483.257 346.594 502.606 343.636 509.122 335.521C509.76 334.828 510.192 333.97 510.369 333.045C510.545 332.119 510.459 331.163 510.121 330.284C508.163 325.327 498.648 321.009 485.976 319.29C472.584 317.451 460.79 317.531 450.956 319.53C440.882 321.569 435.325 325.047 432.447 327.645Z" fill="#30262A"/>
<path d="M421.293 332.566V325.45L518.316 324.811L518.196 332.566H421.293Z" fill="#E6AE32"/>
<path d="M425.087 325.287C433.922 317.412 454.07 310.536 488.73 315.253C511.317 318.331 523.07 327.646 516.593 335.801C508.678 345.675 485.652 349.193 451.672 345.915C428.285 343.637 414.054 335.082 425.087 325.287Z" fill="#E6AE32"/>
<path d="M425.087 318.453C433.922 310.578 454.07 303.702 488.73 308.419C511.317 311.497 523.07 320.812 516.593 328.967C508.678 338.841 485.652 342.359 451.672 339.081C428.285 336.803 414.054 328.248 425.087 318.453Z" fill="#FFE376"/>
<path d="M473.863 338.562C467.946 338.562 461.47 338.242 454.434 337.563C439.963 336.164 429.929 332.006 428.17 326.689C427.57 324.89 427.65 322.012 431.368 318.694C436.125 314.456 450.956 305.182 486.096 309.939C499.568 311.778 509.282 316.335 511.481 321.892C511.925 323.019 512.049 324.247 511.837 325.44C511.625 326.632 511.086 327.743 510.281 328.648C506.803 332.965 500.167 335.924 490.493 337.443C484.987 338.242 479.427 338.616 473.863 338.562ZM432.447 319.813C429.969 322.012 429.009 324.171 429.689 326.169C431.208 330.807 441.002 334.684 454.594 336.004C483.257 338.762 502.606 335.804 509.122 327.689C509.76 326.996 510.192 326.138 510.369 325.213C510.545 324.287 510.459 323.331 510.121 322.452C508.163 317.494 498.648 313.177 485.976 311.458C472.584 309.619 460.79 309.699 450.956 311.698C440.882 313.737 435.325 317.255 432.447 319.813Z" fill="#30262A"/>
<path d="M427.086 321.729V314.653L524.149 314.014L523.989 321.729H427.086Z" fill="#E6AE32"/>
<path d="M430.883 314.453C439.718 306.578 459.866 299.702 494.525 304.419C517.112 307.497 528.865 316.812 522.389 324.967C514.474 334.841 491.447 338.359 457.467 335.081C434.121 332.803 419.849 324.248 430.883 314.453Z" fill="#E6AE32"/>
<path d="M430.883 307.617C439.718 299.742 459.866 292.866 494.525 297.583C517.112 300.661 528.865 309.976 522.389 318.131C514.474 328.005 491.447 331.523 457.467 328.245C434.121 325.967 419.849 317.452 430.883 307.617Z" fill="#FFE376"/>
<path d="M479.703 327.724C473.786 327.724 467.31 327.404 460.274 326.725C445.803 325.326 435.768 321.168 434.009 315.851C433.41 314.052 433.49 311.174 437.208 307.856C441.965 303.618 456.796 294.344 491.935 299.101C505.368 300.94 515.122 305.497 517.321 311.054C517.765 312.181 517.889 313.409 517.677 314.602C517.465 315.794 516.926 316.905 516.121 317.81C512.643 322.128 506.007 325.086 496.333 326.605C490.826 327.402 485.267 327.776 479.703 327.724ZM473.666 299.341C467.978 299.296 462.3 299.818 456.716 300.9C446.722 302.939 441.165 306.417 438.247 309.015C435.768 311.214 434.809 313.373 435.489 315.371C437.008 320.009 446.802 323.886 460.394 325.206C489.057 327.964 508.406 325.006 514.922 316.891C515.56 316.198 515.992 315.34 516.169 314.415C516.345 313.49 516.259 312.533 515.921 311.654C513.963 306.697 504.448 302.379 491.776 300.66C485.776 299.812 479.726 299.371 473.666 299.341Z" fill="#30262A"/>
<path d="M421.047 309.498V302.382L518.07 301.742L517.95 309.498H421.047Z" fill="#E6AE32"/>
<path d="M424.849 302.184C433.684 294.308 453.832 287.432 488.492 292.15C511.078 295.228 522.831 304.542 516.355 312.698C508.44 322.572 485.413 326.09 451.433 322.812C428.047 320.533 413.815 312.018 424.849 302.184Z" fill="#E6AE32"/>
<path d="M424.849 295.346C433.684 287.47 453.832 280.595 488.492 285.312C511.078 288.39 522.831 297.704 516.355 305.86C508.44 315.734 485.413 319.252 451.433 315.974C428.047 313.735 413.815 305.18 424.849 295.346Z" fill="#FFE376"/>
<path d="M473.613 315.494C467.696 315.494 461.22 315.174 454.184 314.494C439.713 313.095 429.679 308.938 427.92 303.621C427.32 301.822 427.4 298.943 431.118 295.625C435.875 291.388 450.706 282.113 485.846 286.871C499.278 288.709 509.032 293.267 511.231 298.824C511.675 299.951 511.799 301.179 511.587 302.372C511.375 303.564 510.836 304.675 510.031 305.58C506.553 309.897 499.917 312.855 490.243 314.374C484.735 315.153 479.176 315.528 473.613 315.494ZM467.616 287.07C461.928 287.025 456.25 287.547 450.666 288.63C440.672 290.668 435.115 294.146 432.197 296.745C429.719 298.943 428.759 301.102 429.439 303.101C430.958 307.738 440.752 311.616 454.344 312.935C483.007 315.694 502.356 312.735 508.872 304.62C509.51 303.927 509.942 303.069 510.119 302.144C510.295 301.219 510.209 300.262 509.871 299.383C507.913 294.426 498.398 290.109 485.726 288.39C479.726 287.541 473.676 287.1 467.616 287.07Z" fill="#30262A"/>
<path d="M421.047 301.664V294.588L518.07 293.908L517.95 301.664H421.047Z" fill="#E6AE32"/>
<path d="M424.849 294.387C433.684 286.512 453.832 279.636 488.492 284.353C511.078 287.431 522.831 296.746 516.355 304.901C508.44 314.775 485.413 318.293 451.433 315.015C428.047 312.736 413.815 304.181 424.849 294.387Z" fill="#E6AE32"/>
<path d="M424.849 287.549C433.684 279.674 453.832 272.798 488.492 277.515C511.078 280.593 522.831 289.908 516.355 298.063C508.44 307.937 485.413 311.455 451.433 308.177C428.047 305.898 413.815 297.343 424.849 287.549Z" fill="#FFE376"/>
<path d="M473.613 307.657C467.696 307.657 461.22 307.337 454.184 306.657C439.713 305.258 429.679 301.1 427.92 295.784C427.32 293.985 427.4 291.106 431.118 287.788C435.875 283.551 450.706 274.276 485.846 279.073C499.278 280.912 509.032 285.47 511.231 291.026C511.676 292.153 511.799 293.381 511.587 294.574C511.375 295.767 510.836 296.877 510.031 297.782C506.553 302.1 499.917 305.058 490.243 306.577C484.733 307.342 479.175 307.703 473.613 307.657ZM467.616 279.273C461.928 279.228 456.25 279.75 450.666 280.832C440.672 282.871 435.115 286.349 432.197 288.948C429.719 291.146 428.759 293.305 429.439 295.304C430.958 299.941 440.752 303.819 454.344 305.138C483.007 307.896 502.356 304.938 508.872 296.823C509.51 296.13 509.942 295.273 510.119 294.347C510.295 293.422 510.209 292.465 509.871 291.586C507.913 286.629 498.398 282.311 485.726 280.592C479.726 279.744 473.676 279.304 467.616 279.273Z" fill="#30262A"/>
<path d="M421.047 290.827V283.751L518.07 283.111L517.95 290.827H421.047Z" fill="#E6AE32"/>
<path d="M424.849 283.551C433.684 275.676 453.832 268.8 488.492 273.517C511.078 276.595 522.831 285.91 516.355 294.065C508.44 303.939 485.413 307.457 451.433 304.179C428.047 301.9 413.815 293.345 424.849 283.551Z" fill="#E6AE32"/>
<path d="M424.849 276.715C433.684 268.84 453.832 261.964 488.492 266.681C511.078 269.759 522.831 279.074 516.355 287.229C508.44 297.103 485.413 300.621 451.433 297.343C428.047 295.064 413.815 286.549 424.849 276.715Z" fill="#FFE376"/>
<path d="M473.613 296.824C467.696 296.824 461.22 296.504 454.184 295.824C439.713 294.425 429.679 290.268 427.92 284.951C427.32 283.152 427.4 280.274 431.118 276.956C435.875 272.718 450.706 263.443 485.846 268.201C499.278 270.04 509.032 274.597 511.231 280.154C511.675 281.281 511.799 282.509 511.587 283.702C511.375 284.894 510.836 286.005 510.031 286.91C506.553 291.227 499.917 294.185 490.243 295.705C484.737 296.504 479.177 296.878 473.613 296.824ZM467.616 268.441C461.928 268.395 456.25 268.918 450.666 270C440.672 272.038 435.115 275.516 432.197 278.115C429.719 280.314 428.759 282.472 429.439 284.471C430.958 289.108 440.752 292.986 454.344 294.305C483.007 297.064 502.356 294.105 508.872 285.99C509.51 285.297 509.942 284.439 510.119 283.514C510.295 282.589 510.209 281.632 509.871 280.753C507.913 275.796 498.398 271.479 485.726 269.76C479.726 268.912 473.676 268.471 467.616 268.441Z" fill="#30262A"/>
<path d="M422.168 277.554V270.478L519.231 269.799L519.071 277.554H422.168Z" fill="#E6AE32"/>
<path d="M426.006 270.279C434.841 262.404 454.989 255.528 489.649 260.245C512.235 263.324 523.988 272.638 517.512 280.793C509.597 290.667 486.57 294.185 452.59 290.907C429.204 288.629 414.933 280.074 426.006 270.279Z" fill="#E6AE32"/>
<path d="M426.006 263.444C434.841 255.568 454.989 248.692 489.649 253.409C512.235 256.488 523.988 265.802 517.512 273.957C509.597 283.832 486.57 287.35 452.59 284.071C429.204 281.793 414.933 273.238 426.006 263.444Z" fill="#FFE376"/>
<path d="M474.777 283.548C468.86 283.548 462.384 283.229 455.348 282.549C440.877 281.15 430.843 276.992 429.084 271.675C428.484 269.876 428.564 266.998 432.282 263.68C437.039 259.443 451.87 250.168 487.01 254.925C500.482 256.764 510.196 261.321 512.395 266.878C512.839 268.005 512.963 269.233 512.751 270.426C512.539 271.619 512 272.729 511.195 273.634C507.718 277.952 501.081 280.91 491.407 282.429C485.9 283.228 480.341 283.602 474.777 283.548ZM433.361 264.799C430.883 266.998 429.923 269.157 430.603 271.156C432.122 275.793 441.916 279.671 455.508 280.99C484.171 283.748 503.52 280.79 510.036 272.675C510.674 271.982 511.106 271.125 511.282 270.199C511.459 269.274 511.374 268.317 511.036 267.438C509.077 262.481 499.562 258.163 486.89 256.444C473.498 254.605 461.705 254.685 451.87 256.684C441.796 258.723 436.24 262.241 433.361 264.799Z" fill="#30262A"/>
<path d="M461.981 277.713L462.66 276.674C462.9 276.314 462.301 275.914 461.221 275.794C459.033 275.549 456.868 275.135 454.745 274.555C453.906 274.315 453.746 273.915 454.305 273.596L454.705 273.396C455.706 272.981 456.817 272.911 457.863 273.196C460.245 273.834 462.68 274.249 465.139 274.435C469.936 274.795 472.894 273.875 473.774 272.476C474.653 271.157 473.494 270.317 468.937 269.198C462.661 267.679 456.504 266.04 457.903 263.921C459.103 262.082 463.54 260.483 471.575 261.003C471.938 261.063 472.31 261.041 472.663 260.937C473.016 260.833 473.341 260.65 473.614 260.403L474.334 259.284C475.08 258.768 475.999 258.567 476.892 258.724C478.051 258.804 478.771 259.204 478.531 259.604L477.932 260.563C477.692 260.923 478.291 261.323 479.291 261.443C480.948 261.622 482.591 261.916 484.208 262.322C485.127 262.562 485.327 263.002 484.728 263.322L484.328 263.521C483.346 263.896 482.273 263.966 481.25 263.721C479.204 263.214 477.117 262.893 475.013 262.762C469.776 262.362 467.098 263.322 466.458 264.281C465.659 265.56 469.217 265.96 474.574 267.279C480.89 268.838 484.408 270.637 483.568 272.836C482.689 275.195 477.812 276.474 469.017 276.274C468.654 276.223 468.284 276.25 467.933 276.354C467.581 276.457 467.256 276.635 466.978 276.874L466.218 278.073C465.472 278.588 464.553 278.79 463.66 278.633H463.58C462.461 278.513 461.741 278.113 461.981 277.713Z" fill="#30262A"/>
<path d="M423.242 265.241V258.165L520.265 257.525L520.145 265.241H423.242Z" fill="#E6AE32"/>
<path d="M427.04 257.963C435.875 250.088 456.023 243.212 490.683 247.929C513.27 251.007 525.023 260.322 518.547 268.477C510.631 278.351 487.605 281.869 453.625 278.591C430.238 276.312 416.007 267.797 427.04 257.963Z" fill="#E6AE32"/>
<path d="M427.04 251.129C435.875 243.254 456.023 236.378 490.683 241.095C513.27 244.173 525.023 253.488 518.547 261.643C510.631 271.517 487.605 275.035 453.625 271.757C430.238 269.478 416.007 260.963 427.04 251.129Z" fill="#FFE376"/>
<path d="M475.808 271.277C469.892 271.277 463.415 270.957 456.379 270.278C441.908 268.878 431.874 264.721 430.115 259.404C429.515 257.605 429.595 254.727 433.313 251.409C438.07 247.171 452.902 237.897 488.041 242.654C501.473 244.493 511.227 249.05 513.426 254.607C513.87 255.734 513.994 256.962 513.782 258.154C513.57 259.347 513.032 260.458 512.227 261.363C508.749 265.68 502.113 268.639 492.438 270.158C486.929 270.938 481.371 271.312 475.808 271.277ZM469.812 242.854C464.124 242.808 458.446 243.33 452.862 244.413C442.867 246.452 437.311 249.93 434.392 252.528C431.914 254.727 430.954 256.885 431.634 258.884C433.153 263.522 442.947 267.399 456.539 268.718C485.203 271.477 504.551 268.519 511.067 260.403C511.705 259.71 512.137 258.852 512.314 257.927C512.491 257.001 512.405 256.045 512.067 255.166C510.108 250.209 500.594 245.892 487.921 244.173C481.921 243.324 475.871 242.884 469.812 242.854Z" fill="#30262A"/>
<path d="M445.75 249.811V242.735L542.773 242.096L542.653 249.811H445.75Z" fill="#E6AE32"/>
<path d="M449.544 242.537C458.379 234.662 478.527 227.786 513.187 232.503C535.774 235.581 547.527 244.896 541.05 253.051C533.135 262.925 510.109 266.443 476.129 263.165C452.742 260.887 438.511 252.332 449.544 242.537Z" fill="#E6AE32"/>
<path d="M449.544 235.699C458.379 227.824 478.527 220.948 513.187 225.665C535.774 228.743 547.527 238.058 541.05 246.213C533.135 256.087 510.109 259.605 476.129 256.327C452.742 254.049 438.511 245.534 449.544 235.699Z" fill="#FFE376"/>
<path d="M498.316 255.806C492.399 255.806 485.923 255.486 478.887 254.807C464.416 253.408 454.382 249.25 452.623 243.933C452.023 242.134 452.103 239.256 455.821 235.938C460.578 231.7 475.409 222.426 510.549 227.183C524.021 229.022 533.735 233.579 535.934 239.136C536.379 240.263 536.502 241.491 536.29 242.684C536.079 243.876 535.54 244.987 534.735 245.892C531.257 250.21 524.62 253.168 514.946 254.687C509.439 255.486 503.88 255.86 498.316 255.806ZM492.319 227.423C486.631 227.378 480.953 227.9 475.369 228.982C465.375 231.021 459.819 234.499 456.9 237.097C454.422 239.296 453.462 241.455 454.142 243.454C455.661 248.091 465.455 251.969 479.047 253.288C507.71 256.046 527.059 253.088 533.575 244.973C534.213 244.28 534.645 243.422 534.822 242.497C534.998 241.572 534.913 240.615 534.575 239.736C532.616 234.779 523.101 230.461 510.429 228.742C504.429 227.894 498.378 227.453 492.319 227.423Z" fill="#30262A"/>
<path d="M430.645 239.616V232.54L527.708 231.9L527.548 239.616H430.645Z" fill="#E6AE32"/>
<path d="M434.441 232.342C443.276 224.467 463.424 217.591 498.084 222.308C520.671 225.386 532.424 234.701 525.948 242.856C518.032 252.73 495.006 256.248 461.026 252.97C437.68 250.691 423.408 242.176 434.441 232.342Z" fill="#E6AE32"/>
<path d="M434.441 225.504C443.276 217.629 463.424 210.753 498.084 215.47C520.671 218.548 532.424 227.863 525.948 236.018C518.032 245.892 495.006 249.41 461.026 246.132C437.68 243.853 423.408 235.338 434.441 225.504Z" fill="#FFE376"/>
<path d="M483.257 245.615C477.341 245.615 470.865 245.295 463.829 244.615C449.357 243.216 439.323 239.059 437.564 233.742C436.965 231.943 437.044 229.065 440.762 225.747C445.519 221.509 460.351 212.234 495.49 216.992C508.962 218.831 518.677 223.388 520.875 228.945C521.32 230.072 521.443 231.3 521.232 232.493C521.02 233.685 520.481 234.796 519.676 235.701C516.198 240.018 509.562 242.976 499.888 244.496C494.381 245.293 488.821 245.667 483.257 245.615ZM477.221 217.232C471.533 217.186 465.855 217.709 460.271 218.791C450.277 220.829 444.72 224.307 441.802 226.906C439.323 229.105 438.364 231.263 439.043 233.262C440.562 237.899 450.357 241.777 463.949 243.096C492.612 245.855 511.96 242.896 518.477 234.781C519.115 234.088 519.547 233.23 519.723 232.305C519.9 231.38 519.814 230.423 519.476 229.544C517.517 224.587 508.003 220.27 495.33 218.551C489.33 217.703 483.28 217.262 477.221 217.232Z" fill="#30262A"/>
<path d="M462.461 320.974C462.461 298.347 472.535 274.281 504.996 274.281C526.144 274.281 544.253 293.59 546.372 316.057C548.97 343.401 533.459 359.991 502.877 363.389C481.85 365.708 462.461 349.237 462.461 320.974Z" fill="#FFE376"/>
<path d="M499.759 358.113C492.274 358.139 485.047 355.373 479.491 350.357C471.816 343.481 467.578 332.928 467.578 320.695C467.578 312.899 468.977 301.786 475.533 292.911C482.01 284.196 491.884 279.799 504.916 279.799C523.066 279.799 539.376 296.229 541.295 316.417C543.534 340.243 530.021 354.995 503.277 357.953C502.078 358.033 500.919 358.113 499.759 358.113ZM504.916 282.117C494.402 282.117 469.937 285.875 469.937 320.655C469.937 332.208 473.894 342.122 481.05 348.558C483.995 351.214 487.472 353.211 491.249 354.418C495.027 355.624 499.018 356.011 502.957 355.554C515.63 354.155 525.144 350.078 531.261 343.441C537.377 336.805 539.936 327.811 538.856 316.577C537.137 297.588 521.866 282.117 504.916 282.117Z" fill="#30262A"/>
<path d="M480.366 64.4414C488.281 48.6507 503.752 35.4184 526.459 47.1315C541.25 54.7671 547.127 74.7953 540.73 91.2656C532.935 111.294 516.305 117.33 493.758 108.655C478.247 102.699 470.452 84.2298 480.366 64.4414Z" fill="#FFE376"/>
<path d="M511.994 108.336C506.477 108.207 501.031 107.069 495.924 104.978C492.748 103.775 489.863 101.914 487.458 99.5161C485.054 97.1184 483.184 94.2387 481.972 91.0664C479.054 83.5109 479.773 74.6361 484.051 66.0811C488.648 56.9665 495.204 50.6102 502.64 48.2116C509.356 46.0129 516.751 46.9324 524.547 50.97C537.219 57.5261 542.856 74.8759 537.1 89.6673C532.302 102.02 523.627 108.336 511.994 108.336ZM485.73 66.9206C481.692 74.9959 480.972 83.311 483.691 90.3868C484.806 93.3198 486.529 95.9833 488.748 98.202C490.966 100.421 493.63 102.144 496.563 103.259C505.918 106.857 513.993 107.457 520.589 105.018C527.185 102.58 532.142 97.2228 535.301 89.0276C540.697 75.0758 535.46 58.7654 523.627 52.649C516.312 48.8512 509.396 47.9717 503.159 50.0106C499.27 51.342 495.76 53.5908 492.925 56.5667C490.011 59.6297 487.585 63.1217 485.73 66.9206Z" fill="#30262A"/>
<path d="M497.536 66.272C497.993 65.4867 498.658 64.8429 499.458 64.4119C500.124 64.0547 500.876 63.8873 501.631 63.9278C502.392 63.9874 503.128 64.2191 503.786 64.6055C504.495 64.9874 505.126 65.5008 505.643 66.1182C506.175 66.739 506.588 67.453 506.86 68.2242C507.142 68.9814 507.244 69.7936 507.158 70.5968C507.061 71.4499 506.744 72.263 506.237 72.9562C505.596 73.8182 504.771 74.5271 503.823 75.032C504.31 75.4574 504.757 75.8675 505.165 76.2622C505.543 76.6177 505.858 77.0349 506.097 77.4959C506.326 77.9278 506.456 78.4056 506.476 78.8942C506.484 79.4751 506.37 80.0512 506.142 80.5855C505.916 81.1448 505.603 81.6649 505.215 82.1266C504.781 82.6527 504.286 83.1257 503.741 83.536C503.175 83.9825 502.567 84.3736 501.926 84.7037C501.3 85.031 500.642 85.2935 499.962 85.4871C499.32 85.673 498.657 85.7797 497.989 85.8049C497.406 85.8228 496.825 85.7255 496.28 85.5185C496.08 85.4143 495.907 85.2643 495.775 85.0808C495.644 84.8972 495.557 84.6852 495.523 84.462C495.347 83.7675 495.251 83.0551 495.237 82.3387C495.206 81.3851 495.225 80.4305 495.292 79.4787C495.361 78.4183 495.466 77.3357 495.608 76.2308C495.755 75.1102 495.92 74.0146 496.102 72.9438C496.29 71.8574 496.471 70.8588 496.645 69.948C496.835 69.0434 497.002 68.266 497.147 67.6157C497.253 67.1614 497.383 66.7129 497.536 66.272ZM497.75 78.1267C497.625 78.4934 497.549 78.8753 497.524 79.2621C497.42 80.2601 497.467 81.2681 497.663 82.2521C497.722 82.6308 497.884 82.9859 498.132 83.2781C498.229 83.3874 498.352 83.4704 498.49 83.5194C498.628 83.5684 498.776 83.5817 498.92 83.5583C499.328 83.5033 499.724 83.3824 500.093 83.2003C500.555 82.9819 500.999 82.7281 501.422 82.4411C501.871 82.1269 502.285 81.8083 502.665 81.4852C503.019 81.2074 503.348 80.8993 503.649 80.5644C503.868 80.349 504.049 80.0977 504.184 79.8214C504.329 79.4883 504.404 79.1292 504.405 78.7661C504.404 78.4713 504.319 78.183 504.158 77.9357C504 77.6826 503.786 77.4689 503.532 77.3108C503.248 77.124 502.943 76.9689 502.625 76.8482C502.2 76.6874 501.754 76.5867 501.301 76.5491C500.821 76.5027 500.337 76.5243 499.863 76.6131C499.409 76.7079 498.975 76.8785 498.578 77.1179C498.2 77.3555 497.909 77.7096 497.75 78.1267ZM499.369 69.5156C499.259 69.7987 499.113 70.1496 498.932 70.5681C498.756 70.971 498.59 71.3957 498.435 71.8422C498.278 72.2915 498.153 72.7515 498.061 73.2187C497.968 73.6459 497.962 74.0874 498.043 74.5169C498.771 74.6645 499.522 74.6657 500.25 74.5206C500.979 74.3756 501.672 74.087 502.288 73.6718C502.844 73.292 503.331 72.8202 503.729 72.2768C504.106 71.769 504.392 71.2002 504.576 70.5953C504.762 70.0444 504.832 69.4609 504.782 68.8816C504.757 68.3561 504.576 67.85 504.262 67.428C503.925 66.977 503.462 66.6357 502.932 66.447C502.216 66.2053 501.454 66.1314 500.705 66.2308C500.656 66.3567 500.562 66.5739 500.424 66.8823C500.301 67.1969 500.164 67.5242 500.014 67.864C499.879 68.2101 499.75 68.5405 499.627 68.855C499.504 69.1696 499.419 69.3898 499.369 69.5156ZM512.408 73.1615C512.457 73.0356 512.544 72.8342 512.67 72.5572C512.787 72.2584 512.907 71.9517 513.029 71.6371C513.158 71.3067 513.286 71.0031 513.412 70.7261C513.529 70.4272 513.608 70.2228 513.651 70.1127C513.949 69.8514 514.334 69.7105 514.73 69.7178C515.177 69.7087 515.622 69.7635 516.053 69.8805C516.499 69.983 516.934 70.1257 517.354 70.3068C517.773 70.4882 518.116 70.6311 518.383 70.7354C518.729 70.8705 519.124 71.0428 519.568 71.2521C520.024 71.4656 520.465 71.7101 520.887 71.9839C521.331 72.2489 521.748 72.5573 522.131 72.9046C522.508 73.2187 522.83 73.5925 523.086 74.0111C523.345 74.3919 523.51 74.829 523.567 75.2862C523.642 75.7689 523.581 76.263 523.391 76.7128C523.176 77.2864 522.81 77.7915 522.332 78.1751C521.843 78.5491 521.31 78.8617 520.745 79.1057C520.157 79.362 519.548 79.5701 518.926 79.7279C518.297 79.8995 517.703 80.0755 517.143 80.2558C516.638 80.4247 516.151 80.6447 515.691 80.9125C515.288 81.1385 514.976 81.4967 514.806 81.9265C514.79 81.9754 514.779 82.026 514.774 82.0773C514.786 82.1137 514.789 82.1522 514.784 82.19C516.415 83.4554 517.959 84.8297 519.405 86.3035C520.86 87.7773 522.259 89.3018 523.602 90.8768C523.644 90.9516 523.667 91.0353 523.669 91.1208C523.704 91.2413 523.72 91.3666 523.715 91.492C523.719 91.6205 523.726 91.7411 523.737 91.8539C523.749 91.9423 523.742 92.0322 523.716 92.1175C523.696 92.179 523.664 92.2359 523.621 92.2847C523.579 92.3335 523.527 92.3734 523.469 92.4018C523.242 92.4839 522.992 92.4743 522.772 92.3748C522.662 92.3318 522.568 92.295 522.489 92.2643C521.614 91.9161 520.819 91.3932 520.153 90.7275C519.466 90.0247 518.787 89.2796 518.116 88.4921C517.445 87.7045 516.743 86.9502 516.009 86.229C515.3 85.5199 514.451 84.9665 513.516 84.6042L512.761 84.3096C512.786 84.9898 512.804 85.5948 512.814 86.1246C512.841 86.6293 512.835 87.1353 512.794 87.6391C512.771 88.1166 512.704 88.591 512.595 89.0565C512.497 89.5478 512.355 90.0292 512.17 90.4946C512.127 90.6047 512.075 90.7384 512.013 90.8957C511.954 91.0453 511.888 91.1918 511.815 91.3347C511.743 91.4803 511.637 91.6068 511.507 91.7042C511.368 91.8023 511.197 91.8425 511.029 91.8165C510.492 91.1002 510.128 90.2696 509.964 89.3893C509.767 88.3168 509.682 87.2269 509.71 86.1369C509.736 84.9207 509.837 83.7072 510.013 82.5035C510.21 81.2571 510.437 80.0496 510.693 78.881C510.971 77.7029 511.258 76.6188 511.554 75.6285C511.871 74.6287 512.156 73.8064 512.408 73.1615ZM513.857 75.4396C513.777 75.644 513.657 75.9053 513.497 76.2233C513.358 76.5318 513.229 76.8622 513.11 77.2143C512.998 77.5466 512.919 77.8891 512.874 78.2369C512.85 78.5616 512.9 78.8875 513.019 79.1904C513.042 79.2171 513.071 79.2378 513.104 79.2508C513.113 79.2727 513.15 79.2959 513.213 79.3204C513.572 79.441 513.951 79.4874 514.328 79.4567C514.846 79.4383 515.362 79.3757 515.869 79.2696C516.437 79.1537 516.997 78.9997 517.544 78.8085C518.103 78.6152 518.648 78.3826 519.175 78.1126C519.637 77.8798 520.069 77.5919 520.461 77.2551C520.792 76.9961 521.054 76.6594 521.224 76.275C521.285 76.1245 521.313 75.9627 521.306 75.8005C521.299 75.6382 521.257 75.4795 521.183 75.3348C521.033 74.9981 520.82 74.6933 520.555 74.4371C520.278 74.1647 519.969 73.9258 519.636 73.7254C519.378 73.5602 519.107 73.4178 518.824 73.2996C518.556 73.1953 518.242 73.0726 517.88 72.9314C517.523 72.7742 517.15 72.6559 516.767 72.5787C516.423 72.4925 516.067 72.4638 515.713 72.4937C515.392 72.5165 515.091 72.6622 514.874 72.9006C514.838 72.995 514.773 73.1601 514.681 73.3961C514.589 73.6321 514.488 73.8915 514.377 74.1747C514.273 74.4421 514.167 74.6907 514.059 74.9205C513.967 75.1564 513.9 75.3295 513.857 75.4396Z" fill="#525F46"/>
<path d="M481.969 314.273C481.927 313.062 482.219 311.863 482.814 310.808C483.312 309.931 484.041 309.207 484.921 308.716C485.821 308.242 486.817 307.98 487.834 307.948C488.905 307.874 489.981 308.005 491.003 308.334C492.045 308.655 493.019 309.167 493.874 309.843C494.73 310.497 495.423 311.34 495.897 312.308C496.395 313.338 496.615 314.481 496.537 315.622C496.427 317.051 496.001 318.437 495.29 319.681C496.142 319.815 496.938 319.959 497.678 320.114C498.358 320.246 499.01 320.492 499.607 320.842C500.173 321.167 500.658 321.614 501.029 322.151C501.451 322.8 501.732 323.531 501.855 324.295C501.998 325.087 502.015 325.896 501.905 326.692C501.789 327.595 501.568 328.48 501.245 329.33C500.924 330.237 500.517 331.11 500.028 331.938C499.555 332.753 498.999 333.517 498.37 334.218C497.778 334.885 497.107 335.477 496.371 335.98C495.726 336.415 495.002 336.718 494.239 336.872C493.939 336.897 493.638 336.851 493.359 336.737C493.081 336.624 492.833 336.446 492.635 336.22C491.943 335.561 491.328 334.826 490.802 334.028C490.09 332.974 489.432 331.884 488.831 330.763C488.155 329.518 487.504 328.222 486.877 326.876C486.246 325.506 485.653 324.153 485.097 322.816C484.536 321.458 484.03 320.203 483.579 319.052C483.15 317.897 482.786 316.901 482.487 316.064C482.284 315.476 482.111 314.878 481.969 314.273ZM490.641 327.491C490.761 327.993 490.947 328.478 491.194 328.932C491.498 329.529 491.839 330.106 492.216 330.661C492.604 331.201 493.025 331.717 493.477 332.205C493.813 332.59 494.249 332.875 494.736 333.028C494.923 333.083 495.121 333.089 495.311 333.046C495.502 333.003 495.678 332.913 495.824 332.785C496.244 332.432 496.605 332.014 496.892 331.547C497.258 330.971 497.578 330.369 497.851 329.744C498.134 329.071 498.375 328.417 498.573 327.782C498.775 327.217 498.928 326.636 499.029 326.045C499.122 325.646 499.147 325.234 499.103 324.826C499.029 324.348 498.859 323.889 498.602 323.479C498.391 323.147 498.09 322.883 497.733 322.717C497.374 322.545 496.981 322.456 496.583 322.458C496.129 322.45 495.676 322.491 495.231 322.582C494.637 322.702 494.063 322.906 493.525 323.186C492.95 323.474 492.419 323.843 491.948 324.281C491.504 324.71 491.135 325.211 490.858 325.764C490.6 326.3 490.524 326.907 490.641 327.491ZM486.344 316.627C486.421 317.025 486.506 317.524 486.599 318.125C486.688 318.704 486.803 319.301 486.944 319.915C487.087 320.534 487.274 321.141 487.501 321.734C487.701 322.281 488.008 322.784 488.405 323.211C489.331 322.859 490.178 322.327 490.897 321.645C491.616 320.963 492.192 320.145 492.591 319.239C492.949 318.415 493.163 317.536 493.225 316.64C493.288 315.8 493.207 314.955 492.984 314.142C492.802 313.388 492.466 312.68 491.998 312.062C491.597 311.487 491.032 311.044 490.377 310.793C489.677 310.523 488.912 310.468 488.18 310.633C487.201 310.869 486.289 311.327 485.515 311.971C485.549 312.149 485.598 312.46 485.661 312.907C485.746 313.349 485.824 313.815 485.896 314.306C485.99 314.792 486.08 315.256 486.165 315.698C486.25 316.141 486.31 316.45 486.344 316.627ZM503.642 311.467C503.608 311.29 503.563 311.001 503.509 310.599C503.428 310.179 503.345 309.747 503.259 309.304C503.17 308.84 503.098 308.408 503.043 308.006C502.962 307.586 502.907 307.298 502.877 307.144C503.027 306.637 503.36 306.205 503.812 305.932C504.309 305.604 504.851 305.348 505.42 305.174C505.996 304.973 506.589 304.824 507.191 304.729C507.792 304.635 508.281 304.553 508.657 304.48C509.143 304.386 509.711 304.3 510.36 304.221C511.026 304.138 511.697 304.1 512.368 304.109C513.057 304.092 513.747 304.143 514.426 304.261C515.074 304.348 515.704 304.54 516.29 304.83C516.853 305.076 517.35 305.452 517.74 305.927C518.167 306.418 518.45 307.018 518.556 307.661C518.721 308.461 518.667 309.291 518.4 310.064C518.115 310.833 517.736 311.564 517.273 312.242C516.791 312.949 516.253 313.617 515.663 314.238C515.076 314.878 514.531 315.499 514.028 316.101C513.578 316.65 513.186 317.244 512.857 317.873C512.564 318.415 512.466 319.041 512.58 319.647C512.596 319.713 512.62 319.778 512.651 319.84C512.69 319.872 512.722 319.913 512.743 319.959C515.483 320.227 518.201 320.679 520.88 321.312C523.569 321.94 526.231 322.665 528.865 323.487C528.966 323.54 529.052 323.618 529.115 323.713C529.24 323.825 529.347 323.955 529.431 324.1C529.527 324.242 529.621 324.373 529.713 324.493C529.79 324.583 529.846 324.69 529.876 324.804C529.898 324.888 529.902 324.975 529.889 325.06C529.876 325.146 529.846 325.227 529.8 325.3C529.697 325.419 529.578 325.523 529.447 325.609C529.304 325.682 529.152 325.735 528.995 325.765C528.841 325.795 528.708 325.82 528.598 325.842C527.363 326.072 526.094 326.047 524.869 325.771C523.596 325.465 522.301 325.108 520.983 324.698C519.665 324.286 518.336 323.935 516.996 323.644C515.693 323.348 514.342 323.327 513.03 323.584L511.969 323.789C512.48 324.539 512.93 325.208 513.319 325.798C513.709 326.348 514.061 326.923 514.374 327.521C514.687 328.076 514.949 328.658 515.157 329.26C515.396 329.884 515.578 330.528 515.7 331.185C515.73 331.34 515.767 331.527 515.809 331.748C515.847 331.948 515.876 332.16 515.897 332.385C515.92 332.6 515.891 332.818 515.813 333.021C515.726 333.23 515.561 333.397 515.353 333.488C514.238 333.061 513.237 332.383 512.426 331.506C511.442 330.437 510.571 329.268 509.827 328.019C508.991 326.629 508.242 325.189 507.585 323.705C506.92 322.161 506.317 320.638 505.775 319.136C505.251 317.61 504.804 316.184 504.433 314.856C504.081 313.502 503.817 312.373 503.642 311.467ZM506.896 313.006C506.952 313.293 507.003 313.672 507.048 314.146C507.111 314.592 507.2 315.056 507.316 315.539C507.426 315.993 507.581 316.435 507.778 316.859C507.982 317.243 508.269 317.575 508.619 317.832C508.664 317.845 508.712 317.848 508.758 317.84C508.814 317.859 508.874 317.859 508.93 317.841C509.42 317.721 509.881 317.503 510.285 317.2C510.857 316.812 511.394 316.374 511.89 315.894C512.449 315.359 512.97 314.787 513.452 314.183C513.945 313.566 514.394 312.916 514.796 312.238C515.151 311.647 515.434 311.015 515.637 310.356C515.826 309.829 515.882 309.263 515.8 308.709C515.762 308.495 515.678 308.293 515.555 308.115C515.431 307.937 515.271 307.787 515.085 307.677C514.677 307.403 514.219 307.212 513.738 307.112C513.232 307.002 512.714 306.952 512.196 306.962C511.788 306.959 511.38 306.992 510.977 307.06C510.601 307.132 510.159 307.217 509.651 307.316C509.136 307.392 508.631 307.524 508.145 307.709C507.695 307.857 507.273 308.078 506.895 308.363C506.549 308.617 506.314 308.995 506.239 309.418C506.264 309.55 506.309 309.783 506.373 310.114C506.437 310.446 506.507 310.81 506.584 311.209C506.657 311.585 506.714 311.94 506.756 312.276C506.82 312.608 506.867 312.851 506.896 313.006Z" fill="#525F46"/>
<path d="M232.469 163.288C232.469 119.519 251.921 72.9141 314.737 72.9141C355.669 72.9141 390.684 110.279 394.817 153.805C399.843 206.732 369.772 238.829 310.685 245.394C269.996 249.852 232.469 217.998 232.469 163.288Z" fill="#FFE376" stroke="black" stroke-width="2.88156"/>
<path d="M304.6 235.102C290.123 235.158 276.152 229.777 265.452 220.026C250.538 206.733 242.352 186.308 242.352 162.641C242.352 147.565 245.026 126.005 257.752 108.903C270.234 92.0437 289.362 83.5332 314.569 83.5332C349.665 83.5332 381.195 115.306 384.923 154.373C389.3 200.492 363.12 229.023 311.327 234.696C309.098 234.996 306.849 235.131 304.6 235.102ZM314.651 88.1532C294.306 88.1532 246.972 95.4479 246.972 162.722C246.972 185.092 254.591 204.221 268.532 216.703C274.231 221.841 280.959 225.706 288.268 228.04C295.577 230.374 303.3 231.124 310.922 230.239C335.4 227.564 353.88 219.621 365.714 206.814C377.547 194.008 382.492 176.501 380.465 154.86C376.899 118.062 347.396 88.1532 314.651 88.1532Z" fill="#30262A" stroke="black" stroke-width="1.44078"/>
<path d="M277.006 142.174C277.338 140.055 278.248 138.068 279.637 136.433C280.797 135.076 282.306 134.062 284.002 133.503C285.726 132.982 287.546 132.859 289.324 133.144C291.212 133.376 293.038 133.964 294.706 134.878C296.41 135.787 297.93 137.004 299.191 138.466C300.461 139.89 301.382 141.589 301.882 143.43C302.401 145.389 302.401 147.45 301.882 149.409C301.211 151.856 300.007 154.123 298.354 156.047C299.789 156.565 301.124 157.084 302.36 157.602C303.497 158.059 304.549 158.706 305.47 159.515C306.344 160.269 307.039 161.209 307.503 162.266C308.018 163.537 308.262 164.902 308.22 166.272C308.202 167.696 307.96 169.109 307.503 170.458C306.999 171.988 306.316 173.454 305.47 174.824C304.608 176.292 303.607 177.674 302.48 178.95C301.383 180.208 300.161 181.35 298.832 182.358C297.579 183.318 296.214 184.122 294.766 184.75C293.498 185.29 292.137 185.574 290.759 185.587C290.229 185.529 289.721 185.347 289.274 185.057C288.827 184.766 288.455 184.374 288.188 183.913C287.205 182.536 286.382 181.052 285.736 179.488C284.851 177.416 284.073 175.301 283.404 173.149C282.647 170.757 281.949 168.286 281.311 165.734C280.673 163.143 280.095 160.592 279.577 158.08C279.059 155.529 278.601 153.177 278.202 151.024C277.843 148.871 277.544 147.018 277.305 145.463C277.148 144.373 277.048 143.275 277.006 142.174ZM287.65 168.066C287.69 168.98 287.85 169.885 288.128 170.757C288.456 171.898 288.855 173.016 289.324 174.106C289.818 175.176 290.377 176.215 290.999 177.216C291.454 177.998 292.116 178.639 292.912 179.069C293.219 179.226 293.561 179.303 293.906 179.293C294.251 179.282 294.588 179.185 294.885 179.009C295.735 178.539 296.503 177.933 297.158 177.216C297.987 176.339 298.746 175.399 299.43 174.405C300.148 173.329 300.786 172.273 301.344 171.236C301.884 170.321 302.344 169.36 302.719 168.365C303.059 167.649 303.245 166.869 303.266 166.076C303.286 165.283 303.141 164.495 302.839 163.761C302.583 163.114 302.147 162.554 301.583 162.146C301.016 161.727 300.362 161.44 299.669 161.309C298.883 161.143 298.081 161.063 297.277 161.07C296.204 161.081 295.137 161.242 294.108 161.548C293.012 161.858 291.966 162.322 290.999 162.924C290.083 163.521 289.274 164.269 288.607 165.136C287.979 165.983 287.643 167.012 287.65 168.066ZM283.823 147.735C283.823 148.453 283.803 149.35 283.763 150.426C283.723 151.462 283.723 152.539 283.763 153.655C283.804 154.779 283.923 155.898 284.122 157.004C284.284 158.023 284.65 158.999 285.198 159.874C286.926 159.574 288.578 158.933 290.056 157.988C291.534 157.044 292.81 155.815 293.809 154.373C294.707 153.06 295.374 151.604 295.782 150.067C296.174 148.627 296.316 147.13 296.201 145.642C296.138 144.271 295.791 142.927 295.184 141.695C294.679 140.56 293.846 139.603 292.792 138.945C291.664 138.242 290.354 137.888 289.025 137.928C287.243 138.011 285.504 138.502 283.942 139.363C283.942 139.682 283.922 140.241 283.883 141.038C283.883 141.835 283.863 142.672 283.823 143.549V147.735ZM315.631 144.566C315.631 144.247 315.651 143.729 315.69 143.011V140.679C315.69 139.842 315.71 139.065 315.75 138.347V136.792C316.181 135.962 316.906 135.322 317.783 134.998C318.757 134.595 319.785 134.333 320.833 134.221C321.902 134.064 322.983 134.004 324.062 134.041C325.138 134.081 326.015 134.101 326.693 134.101C327.57 134.101 328.587 134.141 329.743 134.221C330.929 134.299 332.107 134.459 333.271 134.699C334.476 134.901 335.658 135.221 336.799 135.656C337.897 136.024 338.927 136.569 339.849 137.27C340.746 137.886 341.484 138.706 342.002 139.662C342.581 140.66 342.871 141.798 342.839 142.951C342.857 144.398 342.485 145.823 341.762 147.077C341.008 148.32 340.105 149.465 339.071 150.486C337.996 151.555 336.837 152.535 335.603 153.416C334.367 154.333 333.211 155.23 332.135 156.107C331.168 156.912 330.287 157.814 329.504 158.798C328.812 159.642 328.432 160.697 328.427 161.788C328.434 161.909 328.454 162.029 328.487 162.146C328.544 162.216 328.585 162.298 328.607 162.386C333.281 163.77 337.855 165.468 342.3 167.468C346.765 169.462 351.15 171.615 355.456 173.927C355.613 174.054 355.737 174.219 355.815 174.405C355.994 174.641 356.135 174.903 356.233 175.182C356.353 175.461 356.473 175.721 356.592 175.96C356.696 176.144 356.758 176.348 356.772 176.558C356.781 176.711 356.76 176.863 356.708 177.007C356.657 177.151 356.577 177.283 356.473 177.395C356.254 177.566 356.012 177.707 355.755 177.813C355.483 177.892 355.201 177.933 354.918 177.933H354.2C351.976 177.918 349.779 177.451 347.742 176.558C345.629 175.601 343.496 174.545 341.344 173.388C339.191 172.232 336.998 171.176 334.766 170.219C332.599 169.268 330.256 168.779 327.889 168.784H325.976C326.613 170.259 327.171 171.575 327.65 172.731C328.142 173.818 328.562 174.937 328.906 176.079C329.264 177.15 329.524 178.251 329.683 179.368C329.89 180.533 329.99 181.714 329.982 182.896V183.913C329.982 184.272 329.962 184.65 329.922 185.049C329.888 185.431 329.766 185.799 329.564 186.125C329.342 186.46 328.999 186.696 328.607 186.783C326.811 185.668 325.297 184.154 324.182 182.358C322.83 180.168 321.708 177.843 320.833 175.422C319.845 172.725 319.026 169.969 318.381 167.169C317.743 164.259 317.205 161.409 316.767 158.618C316.368 155.788 316.069 153.157 315.87 150.725C315.71 148.253 315.63 146.2 315.631 144.566ZM320.773 148.333C320.773 148.851 320.733 149.529 320.654 150.366C320.614 151.163 320.614 152.001 320.654 152.878C320.692 153.705 320.812 154.526 321.012 155.329C321.238 156.064 321.627 156.739 322.149 157.303C322.223 157.342 322.305 157.362 322.388 157.363C322.479 157.415 322.584 157.436 322.687 157.422C323.58 157.379 324.454 157.156 325.258 156.765C326.382 156.28 327.462 155.699 328.487 155.03C329.637 154.288 330.736 153.469 331.776 152.579C332.84 151.673 333.839 150.694 334.766 149.649C335.582 148.74 336.284 147.737 336.859 146.659C337.365 145.805 337.652 144.84 337.696 143.848C337.701 143.465 337.623 143.085 337.468 142.734C337.314 142.384 337.085 142.07 336.799 141.815C336.18 141.203 335.449 140.716 334.646 140.38C333.802 140.019 332.919 139.758 332.015 139.603C331.306 139.461 330.585 139.381 329.862 139.363H327.471C326.55 139.323 325.628 139.384 324.72 139.543C323.889 139.649 323.081 139.891 322.328 140.26C321.641 140.586 321.105 141.165 320.833 141.875V145.104C320.833 145.782 320.813 146.42 320.773 147.017V148.333Z" fill="#525F46"/>
<path d="M260.009 276.153L260.026 276.151C262.723 275.875 263.737 276.172 264.36 276.78C264.767 277.229 265.087 277.749 265.305 278.315C265.482 278.713 265.65 279.13 265.84 279.601C266.01 280.026 266.199 280.495 266.429 281.035L266.432 281.042C266.753 281.773 267.161 282.578 267.562 283.371C267.757 283.756 267.951 284.139 268.133 284.509C268.653 285.476 269.056 286.501 269.333 287.564C269.408 287.855 269.415 288.16 269.355 288.455C269.336 288.532 269.3 288.604 269.25 288.666C269.2 288.727 269.136 288.777 269.064 288.811C268.704 288.959 268.313 289.016 267.925 288.977C267.124 288.926 266.33 288.79 265.557 288.571C263.29 288.055 260.953 287.918 258.641 288.163C257.473 288.25 256.314 288.382 255.207 288.511C255.105 288.523 255.005 288.535 254.904 288.547C253.903 288.664 252.951 288.776 252.061 288.849C251.191 288.934 250.315 288.955 249.442 288.912C248.821 288.894 248.209 288.754 247.642 288.501C247.241 288.314 246.927 287.98 246.766 287.568C246.554 286.911 246.517 286.21 246.657 285.535C247.2 281.844 250.385 279.49 253.681 278.033C255.106 277.413 256.581 276.917 258.091 276.55C258.685 276.404 259.176 276.303 259.517 276.239C259.687 276.207 259.82 276.184 259.909 276.169C259.953 276.162 259.987 276.157 260.009 276.153Z" fill="#4E829E" stroke="black" stroke-width="1.44078"/>
<path d="M446.426 371.941C446.426 371.941 433.913 359.428 438.23 352.312C442.548 345.196 449.824 367.583 449.824 367.583C449.824 367.583 446.066 341.079 453.861 340.639C461.657 340.159 453.861 367.583 453.861 367.583C453.861 367.583 456.74 361.187 459.578 360.787C462.416 360.387 461.577 366.224 456.54 371.901H446.426V371.941Z" fill="#FADE0E"/>
<path d="M459.1 372.46C458.971 372.457 458.845 372.415 458.74 372.34C458.638 372.242 458.577 372.109 458.57 371.968C458.562 371.826 458.609 371.688 458.7 371.58C463.178 366.543 464.417 361.786 463.617 360.267C463.529 360.088 463.38 359.945 463.198 359.865C463.015 359.785 462.81 359.771 462.618 359.827C460.219 360.147 457.421 365.264 456.542 367.223C456.486 367.337 456.391 367.429 456.273 367.48C456.156 367.531 456.025 367.539 455.902 367.503C455.778 367.456 455.675 367.364 455.616 367.246C455.556 367.127 455.544 366.99 455.582 366.863C455.582 366.823 457.301 360.787 458.46 354.191C459.94 345.596 459.86 339.919 458.181 337.84C457.941 337.535 457.629 337.295 457.273 337.142C456.917 336.988 456.528 336.926 456.142 336.961C455.67 336.99 455.209 337.123 454.795 337.351C454.38 337.579 454.021 337.896 453.743 338.28C448.906 344.196 452.024 366.703 452.064 366.943C452.085 367.075 452.056 367.21 451.982 367.321C451.908 367.432 451.794 367.511 451.664 367.543C451.601 367.561 451.535 367.567 451.47 367.559C451.404 367.55 451.341 367.529 451.285 367.495C451.229 367.461 451.18 367.416 451.142 367.362C451.104 367.308 451.078 367.247 451.065 367.183C449.426 362.186 444.429 349.074 440.751 348.634C440.511 348.594 439.751 348.514 438.872 349.953C434.275 357.589 447.947 371.42 448.107 371.54C448.207 371.641 448.263 371.777 448.262 371.919C448.262 372.061 448.205 372.197 448.105 372.297C448.004 372.398 447.868 372.454 447.726 372.455C447.584 372.455 447.448 372.399 447.347 372.3C444.905 369.784 442.709 367.04 440.791 364.105C436.753 357.868 435.834 352.951 437.952 349.393C438.752 348.074 439.751 347.435 440.831 347.554C443.029 347.794 445.508 351.072 448.426 357.509C449.226 359.268 449.905 360.987 450.465 362.506C449.785 355.43 449.106 342.198 452.904 337.6C453.275 337.102 453.75 336.691 454.295 336.394C454.84 336.097 455.443 335.922 456.062 335.881C456.617 335.826 457.177 335.916 457.688 336.14C458.199 336.364 458.644 336.715 458.98 337.161C462.378 341.398 459.42 355.91 457.661 363.065C457.661 363.025 457.701 363.025 457.701 362.985C459.42 360.387 461.019 358.948 462.498 358.748C462.906 358.66 463.332 358.71 463.709 358.891C464.085 359.072 464.391 359.373 464.577 359.747C465.696 361.826 464.097 367.063 459.54 372.22C459.494 372.295 459.429 372.356 459.352 372.399C459.275 372.441 459.188 372.462 459.1 372.46Z" fill="#131F2D"/>
<path d="M98.7953 374.976C98.7953 374.976 84.8435 361.065 89.6407 353.149C94.4379 345.234 102.553 370.179 102.553 370.179C102.553 370.179 98.3556 340.677 107.07 340.157C115.745 339.637 107.07 370.179 107.07 370.179C107.07 370.179 110.309 363.064 113.427 362.624C116.585 362.184 115.665 368.66 110.069 375.017H98.7953V374.976Z" fill="#FADE0E"/>
<path d="M112.908 375.539C112.759 375.539 112.615 375.482 112.508 375.379C112.449 375.327 112.4 375.264 112.366 375.193C112.332 375.123 112.312 375.046 112.308 374.967C112.305 374.889 112.317 374.81 112.344 374.737C112.372 374.663 112.414 374.596 112.468 374.539C117.426 368.942 118.825 363.626 117.945 361.947C117.847 361.746 117.68 361.588 117.474 361.5C117.269 361.412 117.039 361.4 116.826 361.467C114.147 361.827 111.029 367.543 110.07 369.702C110.012 369.838 109.904 369.948 109.768 370.006C109.632 370.065 109.478 370.069 109.339 370.018C109.2 369.966 109.086 369.863 109.021 369.73C108.956 369.596 108.945 369.443 108.99 369.302C108.99 369.222 110.909 362.546 112.189 355.191C113.868 345.596 113.748 339.32 111.869 336.961C111.605 336.615 111.257 336.342 110.858 336.167C110.46 335.993 110.023 335.922 109.59 335.962C109.065 336.006 108.555 336.16 108.093 336.415C107.632 336.67 107.229 337.02 106.912 337.441C101.515 344.037 104.993 369.102 105.033 369.342C105.058 369.485 105.026 369.632 104.944 369.752C104.862 369.871 104.736 369.954 104.593 369.982C104.45 370.013 104.301 369.989 104.175 369.915C104.049 369.841 103.955 369.722 103.913 369.582C103.913 369.542 102.234 364.425 99.9558 359.348C96.0381 350.593 93.5595 349.074 92.4402 348.954C92.1604 348.914 91.3209 348.834 90.3614 350.433C85.2044 358.948 100.476 374.339 100.635 374.499C100.745 374.61 100.807 374.761 100.807 374.918C100.807 375.075 100.744 375.225 100.633 375.336C100.522 375.447 100.372 375.51 100.215 375.51C100.058 375.511 99.9075 375.449 99.7959 375.339C99.1563 374.699 83.7253 359.108 89.322 349.834C90.2415 348.355 91.3209 347.675 92.5601 347.795C95.0387 348.075 97.7971 351.713 100.995 358.908C101.875 360.867 102.634 362.786 103.274 364.465C102.514 356.59 101.795 341.838 105.992 336.721C106.404 336.165 106.933 335.706 107.54 335.375C108.147 335.043 108.82 334.848 109.51 334.803C110.128 334.745 110.75 334.847 111.317 335.099C111.884 335.351 112.377 335.745 112.748 336.242C116.546 340.959 113.228 357.109 111.269 365.105C111.269 365.065 111.309 365.065 111.309 365.025C113.228 362.107 115.027 360.507 116.666 360.308C117.117 360.207 117.59 360.257 118.009 360.453C118.429 360.648 118.772 360.976 118.985 361.387C120.224 363.706 118.465 369.542 113.348 375.299C113.305 375.377 113.241 375.441 113.163 375.483C113.085 375.526 112.997 375.545 112.908 375.539Z" fill="#131F2D"/>
<path d="M41.3013 345.394C41.3013 345.394 29.7081 333.841 33.7058 327.245C37.7034 320.648 44.4195 341.396 44.4195 341.396C44.4195 341.396 40.9415 316.851 48.1773 316.451C55.413 316.011 48.1773 341.396 48.1773 341.396C48.1773 341.396 50.8557 335.48 53.4542 335.12C56.0527 334.76 55.3331 340.157 50.6558 345.394H41.3013Z" fill="#FADE0E"/>
<path d="M53.0564 345.875C52.9382 345.878 52.8235 345.835 52.7366 345.755C52.6443 345.668 52.5887 345.549 52.5813 345.422C52.5739 345.296 52.6152 345.172 52.6967 345.075C56.8142 340.438 57.9736 336.001 57.254 334.602C57.1698 334.44 57.0325 334.311 56.8651 334.239C56.6977 334.166 56.5104 334.153 56.3345 334.202C54.1358 334.522 51.5373 339.239 50.6978 341.038C50.6764 341.094 50.6433 341.146 50.6008 341.189C50.5583 341.233 50.5072 341.267 50.4508 341.289C50.3944 341.312 50.334 341.323 50.2733 341.321C50.2126 341.319 50.1529 341.304 50.0982 341.278C49.984 341.23 49.8899 341.144 49.8317 341.034C49.7734 340.925 49.7546 340.799 49.7784 340.678C49.7784 340.638 51.3774 335.041 52.4168 328.965C53.816 321.01 53.6961 315.773 52.137 313.814C51.9216 313.525 51.6359 313.296 51.307 313.149C50.9781 313.002 50.617 312.941 50.2581 312.974C49.8156 312.998 49.3843 313.122 48.9965 313.337C48.6088 313.552 48.2748 313.851 48.0194 314.214C43.542 319.69 46.4203 340.518 46.4603 340.718C46.4755 340.838 46.4478 340.96 46.382 341.063C46.3162 341.165 46.2166 341.241 46.1005 341.278C45.9843 341.301 45.8636 341.281 45.7607 341.222C45.6578 341.164 45.5797 341.07 45.5409 340.958C44.0218 336.321 39.3845 324.168 35.9865 323.768C35.7466 323.728 35.067 323.648 34.2675 325.007C29.99 332.083 42.7025 344.876 42.8225 344.996C42.8673 345.04 42.9029 345.093 42.9272 345.151C42.9515 345.21 42.964 345.272 42.9641 345.336C42.9642 345.399 42.9518 345.461 42.9276 345.52C42.9034 345.578 42.868 345.631 42.8233 345.676C42.7786 345.721 42.7255 345.756 42.667 345.78C42.6086 345.804 42.546 345.817 42.4828 345.816C42.4196 345.816 42.357 345.804 42.2987 345.779C42.2404 345.755 42.1874 345.719 42.1429 345.675C39.8858 343.352 37.8514 340.822 36.0664 338.12C32.3486 332.363 31.4691 327.766 33.428 324.488C34.1875 323.248 35.067 322.689 36.1064 322.809C38.1452 323.048 40.4638 326.047 43.1423 332.043C43.8618 333.642 44.5015 335.281 45.0611 336.68C44.4215 330.124 43.8219 317.891 47.2998 313.614C47.644 313.154 48.0825 312.774 48.5858 312.498C49.0892 312.222 49.6457 312.057 50.2181 312.015C50.7364 311.96 51.2601 312.042 51.737 312.252C52.2138 312.462 52.6274 312.794 52.9365 313.214C56.0947 317.132 53.3363 330.564 51.6972 337.2L51.7372 337.16C53.3363 334.762 54.8154 333.402 56.1746 333.242C56.5513 333.157 56.9454 333.202 57.2935 333.369C57.6415 333.536 57.9233 333.815 58.0935 334.162C59.1329 336.081 57.6537 340.958 53.4162 345.715C53.3135 345.8 53.1889 345.856 53.0564 345.875Z" fill="#131F2D"/>
<path d="M208.06 386.124C208.06 386.124 193.3 381.677 193.333 372.259C193.366 362.84 205.996 332.764 218.661 315.312C228.816 301.319 236.441 292.951 248.034 293.624C260.838 294.367 273.515 335.782 275.385 342.515C277.255 349.248 284.255 382.482 275.385 386.124C263.44 391.027 232.118 395.25 208.06 386.124Z" fill="#4E829E" stroke="black" stroke-width="1.44078"/>
<path d="M254.296 394.808C254.296 394.808 243.822 384.334 247.42 378.378C251.018 372.421 257.095 391.17 257.095 391.17C257.095 391.17 253.937 368.983 260.493 368.583C267.049 368.184 260.493 391.17 260.493 391.17C260.493 391.17 262.931 385.813 265.29 385.493C267.649 385.174 266.969 390.051 262.771 394.808H254.296Z" fill="#FADE0E"/>
<path d="M264.891 395.249C264.839 395.251 264.786 395.241 264.738 395.22C264.69 395.199 264.647 395.168 264.612 395.129C264.567 395.09 264.529 395.043 264.503 394.989C264.476 394.936 264.46 394.878 264.457 394.818C264.453 394.759 264.461 394.699 264.481 394.642C264.501 394.586 264.532 394.534 264.572 394.49C268.289 390.292 269.369 386.294 268.689 385.015C268.612 384.868 268.486 384.752 268.333 384.686C268.181 384.621 268.01 384.61 267.85 384.655C265.851 384.935 263.492 389.213 262.773 390.852C262.728 390.956 262.644 391.038 262.54 391.083C262.436 391.127 262.319 391.131 262.213 391.092C262.115 391.049 262.035 390.974 261.984 390.88C261.934 390.786 261.916 390.678 261.933 390.572C261.933 390.532 263.372 385.495 264.332 379.978C265.571 372.782 265.491 368.025 264.092 366.266C263.896 366.002 263.634 365.793 263.333 365.66C263.031 365.527 262.701 365.474 262.373 365.507C261.976 365.528 261.59 365.64 261.243 365.834C260.897 366.028 260.599 366.299 260.374 366.626C256.296 371.583 258.935 390.412 258.975 390.612C258.994 390.718 258.972 390.827 258.912 390.917C258.852 391.007 258.76 391.069 258.655 391.092C258.549 391.114 258.439 391.098 258.344 391.047C258.249 390.996 258.175 390.913 258.135 390.812C256.776 386.614 252.579 375.621 249.5 375.261C249.301 375.221 248.661 375.181 247.941 376.38C244.064 382.776 255.577 394.37 255.657 394.49C255.742 394.575 255.789 394.69 255.789 394.81C255.789 394.93 255.741 395.045 255.657 395.13C255.572 395.214 255.457 395.262 255.337 395.262C255.217 395.262 255.102 395.214 255.017 395.129C252.978 393.03 251.144 390.741 249.54 388.293C246.182 383.096 245.383 378.939 247.182 375.98C247.382 375.507 247.724 375.107 248.161 374.835C248.597 374.563 249.107 374.432 249.62 374.461C251.459 374.661 253.538 377.42 255.977 382.816C256.616 384.296 257.216 385.735 257.696 387.014C257.136 381.097 256.576 370.024 259.734 366.146C260.048 365.734 260.445 365.393 260.9 365.145C261.355 364.897 261.857 364.748 262.373 364.707C262.837 364.672 263.302 364.752 263.727 364.941C264.153 365.129 264.525 365.419 264.811 365.786C267.65 369.344 265.171 381.497 263.692 387.494L263.732 387.454C265.171 385.255 266.53 384.056 267.77 383.896C268.114 383.829 268.471 383.875 268.788 384.026C269.105 384.177 269.364 384.425 269.529 384.735C270.448 386.494 269.129 390.852 265.291 395.209C265.171 395.209 265.051 395.249 264.891 395.249Z" fill="#131F2D"/>
</g>
<defs>
<clipPath id="clip0_137_6298">
<rect width="591" height="427.128" fill="white"/>
</clipPath>
</defs>
</svg>
