<svg width="1237" height="1756" viewBox="0 0 1237 1756" fill="none" xmlns="http://www.w3.org/2000/svg">
<path d="M35.0504 248.396C71.5162 120.268 138.373 97.7274 171.801 74C313.614 91.7955 579.615 146.606 630.667 166.537C694.483 191.45 913.28 454.824 934.552 493.974C951.57 525.294 1069.27 1071.74 1126 1341.04L1119.75 1373.81C1127.35 1523.7 878.337 1588.21 839.44 1588.21C846.661 1591.17 854.569 1595.29 863.139 1600.91C923.916 1640.78 932.521 1665.25 970 1670C970 1709.15 838.959 1706.8 761.164 1692.56C683.369 1678.33 662.401 1634.35 598.585 1614.77C548.444 1614.77 530.689 1649.32 367.807 1629.39C164.203 1604.47 98.6939 1496.19 68.3058 1358.63C19.3076 1136.83 -20.6517 444.113 35.0504 248.396Z" fill="#C4C4C4" stroke="black" stroke-width="15"/>
<path d="M146.081 1436.15C257.019 1605.05 523.994 1573.33 636.45 1557.73C658.738 1572.13 713.794 1628.05 803.758 1656.85C893.722 1685.66 935.797 1682.97 972.269 1673.37C855.559 1624.23 845.648 1556.6 855.281 1528.93C869.465 1531.33 917.891 1528.21 998.13 1496.52C1098.43 1456.92 1189.49 1474.3 1213.66 1178.95C1246.24 780.847 1210.23 230.352 1153.14 96.5822C1095.71 -37.9628 827.461 20.7522 471.542 20.7536C89.3433 20.755 98.8228 132.753 89.3432 204.061C16.1353 754.755 91.5302 1353.09 146.081 1436.15Z" fill="white" stroke="black" stroke-width="15"/>
<path d="M209.044 85.6839C179.193 85.8409 153.323 99.2398 143.622 121.744C141.64 125.939 149.866 130.192 152.905 125.73C162.53 105.356 183.4 92.693 210.93 91.5395C214.591 91.6697 213.761 85.547 209.044 85.6839Z" fill="#222221"/>
<path d="M1109.38 120.063C1111.5 125.083 1114.49 117.602 1112.37 112.582C1100.32 86.5561 1084.52 72.2135 1068.5 74.4666C1065.19 74.7179 1065.64 85.0454 1068.99 85.8269C1083.74 86.7796 1097.47 97.1349 1109.38 120.063Z" fill="#222221"/>
<g clip-path="url(#clip0_94_2672)">
<path d="M1216.53 1504.55L1229.99 1694.18C1229.99 1694.18 1236.17 1749.5 1107.36 1749.5C983.608 1749.5 989.946 1697.62 989.946 1697.62L1003.02 1537.61L1005.04 1502.91C1006.1 1484.78 1006.1 1477.13 1025.61 1476.93C1033.42 1476.84 1034.32 1476.92 1040.02 1476.92L1185.9 1477.13C1203.92 1477.13 1215.27 1489.07 1216.53 1504.55Z" fill="#FFCC5A" stroke="black" stroke-width="7.85217" stroke-miterlimit="10"/>
<path d="M986.934 1476.9H1025.16C1023.9 1527.21 1003.84 1524.18 1003.84 1524.18C1003.84 1518.53 1003.19 1517.69 998.611 1514.1L988.52 1507.96C987.705 1507.47 987.749 1506.32 988.581 1505.88L1003.19 1498.16L1005.43 1497.05C1007.82 1495.63 1007.43 1494.01 1006.03 1492.83C1006.01 1492.83 1006 1492.81 1005.99 1492.8C999.995 1487.88 986.093 1478.99 986.093 1478.99C985.252 1478.25 985.796 1476.9 986.934 1476.9Z" fill="#FFCC5A"/>
<path d="M1035.21 1476.9H986.934C985.796 1476.9 985.252 1478.25 986.093 1478.99C986.093 1478.99 999.995 1487.88 1005.99 1492.8C1006 1492.81 1006.01 1492.83 1006.03 1492.83C1007.43 1494.01 1007.82 1495.63 1005.43 1497.05L1003.19 1498.16L988.581 1505.88C987.749 1506.32 987.705 1507.47 988.52 1507.96L998.611 1514.1C1003.19 1517.69 1003.84 1518.53 1003.84 1524.18" stroke="black" stroke-width="7.85367" stroke-miterlimit="10"/>
<path d="M1140.62 1680.3C1123.25 1680.3 1100.87 1693.55 1078.59 1685.76C1054.98 1677.5 1078.59 1714.05 1111.11 1714.05C1156.27 1714.05 1159.28 1680.3 1140.62 1680.3Z" fill="white" stroke="black" stroke-width="6.77806"/>
</g>
<path d="M1135.98 1593.24H1123.97C1123.97 1590.04 1117.61 1586.31 1109.41 1586.31C1101.21 1586.31 1094.85 1590.04 1094.85 1593.24H1082.85C1082.85 1583.12 1094.52 1575.19 1109.41 1575.19C1124.3 1575.19 1135.98 1583.12 1135.98 1593.24Z" fill="black"/>
<path fill-rule="evenodd" clip-rule="evenodd" d="M1035.62 1575.36C1035.45 1573.27 1033.86 1567.18 1029.59 1558.49C1025.33 1549.79 1028.75 1544.49 1035.27 1544.8C1041.79 1545.11 1040.95 1539.1 1046.25 1539.1C1051.56 1539.1 1050.71 1545.11 1057.23 1544.8C1063.75 1544.49 1067.18 1549.79 1062.91 1558.49C1058.64 1567.18 1057.06 1573.27 1056.88 1575.36C1055.34 1593.85 1037.17 1593.85 1035.62 1575.36Z" fill="#409B1B" stroke="black" stroke-width="7.01704"/>
<path fill-rule="evenodd" clip-rule="evenodd" d="M1046.19 1562.47C1071.9 1562.47 1092.74 1579.7 1092.74 1600.96C1092.74 1622.21 1094.85 1639.44 1046.19 1639.44C997.54 1639.44 999.653 1622.21 999.653 1600.96C999.653 1579.7 1020.49 1562.47 1046.19 1562.47Z" fill="#409B1B" stroke="black" stroke-width="7.01704"/>
<path fill-rule="evenodd" clip-rule="evenodd" d="M1024.63 1556.71H1067.77C1069.42 1556.71 1070.77 1557.59 1070.77 1558.65C1070.77 1559.72 1069.42 1560.59 1067.77 1560.59H1024.63C1022.98 1560.59 1021.63 1559.72 1021.63 1558.65C1021.63 1557.59 1022.98 1556.71 1024.63 1556.71Z" fill="black"/>
<path fill-rule="evenodd" clip-rule="evenodd" d="M1024.63 1560.59H1067.77C1069.42 1560.59 1070.77 1561.47 1070.77 1562.53C1070.77 1563.6 1069.42 1564.47 1067.77 1564.47H1024.63C1022.98 1564.47 1021.63 1563.6 1021.63 1562.53C1021.63 1561.47 1022.98 1560.59 1024.63 1560.59Z" fill="black"/>
<path d="M1051.2 1580.54C1053.32 1581.03 1055.09 1581.83 1056.51 1582.95C1058.47 1584.52 1059.73 1586.61 1060.28 1589.23L1052.32 1590.1C1052.11 1589.17 1051.73 1588.38 1051.21 1587.72V1580.54H1051.2ZM1051.2 1596.82C1054.81 1597.85 1057.35 1599.1 1058.83 1600.56C1060.65 1602.37 1061.56 1604.68 1061.56 1607.52C1061.56 1610.68 1060.41 1613.34 1058.12 1615.51C1056.35 1617.18 1054.04 1618.35 1051.2 1619.03V1612.79C1051.63 1612.54 1052.02 1612.23 1052.38 1611.88C1053.37 1610.91 1053.86 1609.77 1053.86 1608.46C1053.86 1607.28 1053.44 1606.29 1052.61 1605.43C1052.25 1605.06 1051.77 1604.72 1051.2 1604.42V1596.82H1051.2ZM1043.99 1613.33V1602.36C1043.28 1602.19 1042.6 1602.01 1041.96 1601.81V1593.88C1042.53 1594.27 1043.19 1594.61 1043.99 1594.89V1585.82C1043.21 1586.04 1042.54 1586.36 1041.96 1586.77V1580.38C1042.61 1580.26 1043.29 1580.17 1043.99 1580.11V1577.52H1048.54V1580.11C1049.49 1580.21 1050.37 1580.35 1051.2 1580.55V1587.73C1050.56 1586.92 1049.67 1586.31 1048.54 1585.91V1596.15C1049.49 1596.36 1050.37 1596.59 1051.2 1596.83V1604.43C1050.48 1604.06 1049.59 1603.74 1048.54 1603.5V1613.71C1049.55 1613.56 1050.44 1613.25 1051.2 1612.8V1619.04C1050.37 1619.24 1049.48 1619.4 1048.54 1619.51V1624.41H1043.99V1619.63C1043.29 1619.56 1042.61 1619.46 1041.96 1619.33V1612.14C1042.6 1612.64 1043.27 1613.05 1043.99 1613.33ZM1041.96 1601.81C1038.87 1600.85 1036.53 1599.56 1034.94 1597.92C1033.03 1595.93 1032.06 1593.53 1032.06 1590.7C1032.06 1587.83 1033.15 1585.43 1035.32 1583.48C1037.07 1581.91 1039.29 1580.88 1041.96 1580.38V1586.77C1041.62 1587.01 1041.31 1587.29 1041.02 1587.6C1040.29 1588.44 1039.93 1589.37 1039.93 1590.38C1039.93 1591.3 1040.26 1592.17 1040.93 1592.96C1041.21 1593.29 1041.55 1593.6 1041.95 1593.88V1601.81H1041.96ZM1041.96 1619.32C1039.25 1618.79 1036.97 1617.76 1035.14 1616.24C1032.87 1614.36 1031.44 1611.7 1030.8 1608.25L1039.02 1607.52C1039.35 1608.91 1039.98 1610.12 1040.91 1611.13C1041.24 1611.5 1041.59 1611.84 1041.95 1612.14V1619.32H1041.96Z" fill="white"/>
<path fill-rule="evenodd" clip-rule="evenodd" d="M1161.14 1575.36C1160.96 1573.27 1159.34 1567.18 1154.95 1558.49C1150.57 1549.79 1154.09 1544.49 1160.79 1544.8C1167.48 1545.11 1166.61 1539.1 1172.06 1539.1C1177.51 1539.1 1176.64 1545.11 1183.33 1544.8C1190.03 1544.49 1193.55 1549.79 1189.17 1558.49C1184.79 1567.18 1183.16 1573.27 1182.98 1575.36C1181.39 1593.85 1162.73 1593.85 1161.14 1575.36Z" fill="#409B1B" stroke="black" stroke-width="7.01704"/>
<path fill-rule="evenodd" clip-rule="evenodd" d="M1171.62 1562.47C1197.33 1562.47 1218.16 1579.7 1218.16 1600.96C1218.16 1622.21 1220.28 1639.44 1171.62 1639.44C1122.97 1639.44 1125.08 1622.21 1125.08 1600.96C1125.08 1579.7 1145.92 1562.47 1171.62 1562.47Z" fill="#409B1B" stroke="black" stroke-width="7.01704"/>
<path fill-rule="evenodd" clip-rule="evenodd" d="M1150.05 1556.71H1193.2C1194.84 1556.71 1196.2 1557.59 1196.2 1558.65C1196.2 1559.72 1194.84 1560.59 1193.2 1560.59H1150.05C1148.4 1560.59 1147.05 1559.72 1147.05 1558.65C1147.05 1557.59 1148.4 1556.71 1150.05 1556.71Z" fill="black"/>
<path fill-rule="evenodd" clip-rule="evenodd" d="M1150.05 1560.59H1193.2C1194.84 1560.59 1196.2 1561.47 1196.2 1562.53C1196.2 1563.6 1194.84 1564.47 1193.2 1564.47H1150.05C1148.4 1564.47 1147.05 1563.6 1147.05 1562.53C1147.05 1561.47 1148.4 1560.59 1150.05 1560.59Z" fill="black"/>
<path d="M1176.63 1580.54C1178.75 1581.03 1180.52 1581.83 1181.93 1582.95C1183.9 1584.52 1185.15 1586.61 1185.7 1589.23L1177.75 1590.1C1177.53 1589.17 1177.16 1588.38 1176.64 1587.72V1580.54H1176.63ZM1176.63 1596.82C1180.24 1597.85 1182.78 1599.1 1184.25 1600.56C1186.08 1602.37 1186.98 1604.68 1186.98 1607.52C1186.98 1610.68 1185.84 1613.34 1183.55 1615.51C1181.77 1617.18 1179.46 1618.35 1176.62 1619.03V1612.79C1177.05 1612.54 1177.45 1612.23 1177.81 1611.88C1178.79 1610.91 1179.29 1609.77 1179.29 1608.46C1179.29 1607.28 1178.87 1606.29 1178.04 1605.43C1177.67 1605.06 1177.2 1604.72 1176.62 1604.42V1596.82H1176.63ZM1169.42 1613.33V1602.36C1168.7 1602.19 1168.03 1602.01 1167.39 1601.81V1593.88C1167.95 1594.27 1168.62 1594.61 1169.42 1594.89V1585.82C1168.63 1586.04 1167.97 1586.36 1167.39 1586.77V1580.38C1168.04 1580.26 1168.71 1580.17 1169.42 1580.11V1577.52H1173.97V1580.11C1174.91 1580.21 1175.8 1580.35 1176.63 1580.55V1587.73C1175.98 1586.92 1175.09 1586.31 1173.97 1585.91V1596.15C1174.91 1596.36 1175.8 1596.59 1176.63 1596.83V1604.43C1175.9 1604.06 1175.02 1603.74 1173.97 1603.5V1613.71C1174.97 1613.56 1175.86 1613.25 1176.63 1612.8V1619.04C1175.79 1619.24 1174.9 1619.4 1173.97 1619.51V1624.41H1169.42V1619.63C1168.71 1619.56 1168.04 1619.46 1167.39 1619.33V1612.14C1168.02 1612.64 1168.7 1613.05 1169.42 1613.33ZM1167.39 1601.81C1164.3 1600.85 1161.96 1599.56 1160.36 1597.92C1158.46 1595.93 1157.49 1593.53 1157.49 1590.7C1157.49 1587.83 1158.58 1585.43 1160.74 1583.48C1162.5 1581.91 1164.71 1580.88 1167.39 1580.38V1586.77C1167.04 1587.01 1166.73 1587.29 1166.45 1587.6C1165.72 1588.44 1165.35 1589.37 1165.35 1590.38C1165.35 1591.3 1165.68 1592.17 1166.35 1592.96C1166.63 1593.29 1166.98 1593.6 1167.38 1593.88V1601.81H1167.39ZM1167.39 1619.32C1164.68 1618.79 1162.4 1617.76 1160.57 1616.24C1158.3 1614.36 1156.86 1611.7 1156.23 1608.25L1164.44 1607.52C1164.77 1608.91 1165.41 1610.12 1166.33 1611.13C1166.67 1611.5 1167.01 1611.84 1167.38 1612.14V1619.32H1167.39Z" fill="white"/>
<defs>
<clipPath id="clip0_94_2672">
<rect width="257" height="282.373" fill="white" transform="translate(980 1473.63)"/>
</clipPath>
</defs>
</svg>
