<svg width="1621" height="1801" viewBox="0 0 1621 1801" fill="none" xmlns="http://www.w3.org/2000/svg">
<path d="M43.2232 264.697C91.2227 129.637 179.226 105.876 223.226 80.865C409.893 99.6234 760.026 157.399 827.226 178.409C911.226 204.67 1199.23 482.294 1227.23 523.563C1249.63 556.577 1404.56 1132.58 1479.23 1416.46L1471 1451C1481 1609 1153.23 1677 1102.03 1677C1111.54 1680.12 1121.95 1684.47 1133.23 1690.39C1213.23 1732.41 1250.67 1741 1300 1746C1300 1787.27 1101.4 1802.01 998.997 1787C896.597 1772 868.997 1725.64 784.997 1705C718.997 1705 695.626 1741.42 481.226 1720.41C213.226 1694.15 126.996 1580 86.9969 1435C22.5012 1201.21 -30.0966 471.004 43.2232 264.697Z" fill="#C4C4C4" stroke="black" stroke-width="15"/>
<path d="M241.996 1511C387.999 1687 687.031 1645.77 835.031 1629.51C864.365 1644.52 936.822 1702.78 1055.22 1732.79C1173.62 1762.81 1229 1760 1277 1750C1123.4 1698.8 1110.35 1628.33 1123.03 1599.5C1141.7 1602 1205.43 1598.74 1311.03 1565.73C1443.03 1524.46 1567.22 1551.52 1599.03 1243.77C1641.9 828.958 1579.03 249.577 1515.03 107.013C1451.03 -35.5508 1086 12.9952 618 28.0006C138 43.3906 121.1 144.243 114.997 219.004C66.9968 807.004 170.203 1424.46 241.996 1511Z" fill="white" stroke="black" stroke-width="15"/>
<path d="M223.451 123.914C188.908 138.113 167.188 162.118 169.876 186.539C170.176 191.173 182.358 191.05 183.119 185.683C181.663 163.176 198.036 142.175 229.269 128.191C233.597 126.581 228.841 121.571 223.451 123.914Z" fill="#222221"/>
<path d="M1457.06 126.882C1459.84 131.902 1463.78 124.421 1460.99 119.401C1445.14 93.3751 1424.35 79.0325 1403.27 81.2857C1398.91 81.5369 1399.51 91.8644 1403.92 92.6459C1423.32 93.5987 1441.38 103.954 1457.06 126.882Z" fill="#222221"/>
</svg>
