<svg width="330" height="445" viewBox="0 0 330 445" fill="none" xmlns="http://www.w3.org/2000/svg">
<path d="M9.2344 61.8546C18.9869 28.1659 36.8673 22.2391 45.8072 16.0005C83.7339 20.6795 154.874 35.0908 168.527 40.3313C185.594 46.8819 244.11 116.131 249.799 126.425C254.35 134.66 285.829 278.336 301 349.145L299.328 357.761C301.36 397.172 234.765 414.133 224.362 414.133C226.293 414.911 228.408 415.995 230.7 417.473C246.954 427.954 254.562 430.096 264.585 431.343C264.585 441.637 224.233 445.314 203.428 441.571C182.622 437.828 177.014 426.264 159.947 421.117C146.537 421.117 141.789 430.2 98.2273 424.96C43.7754 418.409 26.2553 389.938 18.1283 353.77C5.02413 295.453 -5.66265 113.315 9.2344 61.8546Z" fill="#C4C4C4"/>
<path d="M45.8072 16.0005C36.8673 22.2391 18.9869 28.1659 9.2344 61.8546C-5.66265 113.315 5.02413 295.453 18.1283 353.77C26.2553 389.938 43.7754 418.409 98.2273 424.96C141.789 430.2 146.537 421.117 159.947 421.117C177.014 426.264 182.622 437.828 203.428 441.571C224.233 445.314 264.585 441.637 264.585 431.343C254.562 430.096 246.954 427.954 230.7 417.473C214.446 406.992 207.085 416.317 211.148 414.133C214.941 416.941 213.959 414.133 224.362 414.133C234.765 414.133 301.36 397.172 299.328 357.761L301 349.145C285.829 278.336 254.35 134.66 249.799 126.425C244.11 116.131 185.594 46.8819 168.527 40.3313C154.874 35.0908 83.7339 20.6795 45.8072 16.0005Z" stroke="black" stroke-width="3.0458"/>
<path d="M39.2506 376.31C58.0017 419.5 139.605 406.295 169.713 402.242C175.681 405.983 190.421 420.507 214.508 427.989C238.594 435.47 249.859 434.772 259.624 432.279C228.377 419.516 225.723 401.949 228.302 394.761C232.1 395.384 245.065 394.574 266.548 386.344C293.401 376.057 318.666 382.802 325.137 306.088C333.859 202.685 321.068 58.26 308.048 22.7224C295.028 -12.8151 220.634 9.32219 125.562 3.02662C26.9999 -3.50006 27.6083 32.5009 23.2341 50.639C0.715633 144.015 28.8756 352.413 39.2506 376.31Z" fill="white" stroke="black" stroke-width="3.0458"/>
<path d="M43.8741 25.1734C37.3369 27.8605 33.2266 32.4035 33.7352 37.0251C33.7919 37.902 36.0973 37.8787 36.2414 36.863C35.9659 32.6037 39.0644 28.6294 44.975 25.9828C45.7942 25.6782 44.894 24.7301 43.8741 25.1734Z" fill="#222221"/>
<path d="M291.797 20.2513C292.325 21.2013 293.069 19.7857 292.542 18.8356C289.542 13.9103 285.608 11.1961 281.618 11.6225C280.795 11.67 280.907 13.6244 281.742 13.7723C285.413 13.9526 288.832 15.9123 291.797 20.2513Z" fill="#222221"/>
</svg>
