<svg width="1020" height="1445" viewBox="0 0 1020 1445" fill="none" xmlns="http://www.w3.org/2000/svg">
<path d="M29.6758 203.69C58.8964 99.3904 112.47 81.0414 139.256 61.7267C252.893 76.2127 466.043 120.83 506.952 137.054C558.088 157.335 733.414 371.728 750.459 403.597C764.095 429.093 858.414 873.911 903.869 1093.13L898.859 1119.81C904.947 1241.82 705.413 1294.33 674.244 1294.33C680.03 1296.74 686.368 1300.1 693.235 1304.68C741.936 1337.12 748.831 1357.05 778.864 1360.91C778.864 1392.78 673.859 1390.87 611.521 1379.28C549.183 1367.69 532.381 1331.89 481.244 1315.96C441.065 1315.96 426.838 1344.08 296.318 1327.85C133.168 1307.57 80.6743 1219.43 56.3239 1107.45C17.0609 926.903 -14.959 363.009 29.6758 203.69Z" fill="#C4C4C4" stroke="black" stroke-width="15"/>
<path d="M118.646 1170.55C207.542 1308.05 421.473 1282.22 511.585 1269.52C529.445 1281.25 573.562 1326.77 645.652 1350.21C717.741 1373.66 751.457 1371.47 780.682 1363.66C687.16 1323.66 679.219 1268.6 686.938 1246.08C698.303 1248.03 737.108 1245.49 801.404 1219.7C881.775 1187.46 954.748 1201.6 974.115 961.181C1000.22 637.119 971.364 189.001 925.613 80.1083C879.597 -29.4149 664.645 18.3806 379.443 18.3817C73.1814 18.383 80.7775 109.552 73.1814 167.599C14.5189 615.879 74.9339 1102.94 118.646 1170.55Z" fill="white" stroke="black" stroke-width="15"/>
<path d="M887.968 80.3455C872.012 55.117 846.937 40.2823 822.712 43.9853C818.105 44.5284 818.859 53.7584 824.253 53.9697C846.632 51.3316 868.432 62.3164 884.003 85.0489C885.833 88.2218 890.585 84.2729 887.968 80.3455Z" fill="#222221"/>
<g clip-path="url(#clip0_94_11274)">
<path d="M965.651 1219.71L977.712 1389.61C977.712 1389.61 983.249 1439.18 867.837 1439.18C756.959 1439.18 762.638 1392.69 762.638 1392.69L774.348 1249.32L776.164 1218.23C777.113 1201.99 777.113 1195.14 794.595 1194.95C801.588 1194.88 802.395 1194.95 807.505 1194.95L938.207 1195.14C954.355 1195.14 964.527 1205.84 965.651 1219.71Z" fill="#FFCC5A" stroke="black" stroke-width="7.03538" stroke-miterlimit="10"/>
<path d="M759.939 1194.93H794.19C793.064 1240.01 775.087 1237.3 775.087 1237.3C775.087 1232.24 774.506 1231.48 770.401 1228.26L761.36 1222.76C760.63 1222.33 760.669 1221.29 761.415 1220.9L774.506 1213.98L776.508 1212.99C778.65 1211.72 778.305 1210.27 777.049 1209.21C777.033 1209.2 777.026 1209.19 777.01 1209.18C771.641 1204.77 759.186 1196.81 759.186 1196.81C758.432 1196.14 758.919 1194.93 759.939 1194.93Z" fill="#FFCC5A"/>
<path d="M803.197 1194.93H759.939C758.919 1194.93 758.432 1196.14 759.186 1196.81C759.186 1196.81 771.641 1204.77 777.01 1209.18C777.026 1209.19 777.033 1209.2 777.049 1209.21C778.305 1210.27 778.65 1211.72 776.508 1212.99L774.506 1213.98L761.415 1220.9C760.669 1221.29 760.63 1222.33 761.36 1222.76L770.401 1228.26C774.506 1231.48 775.087 1232.24 775.087 1237.3" stroke="black" stroke-width="7.03673" stroke-miterlimit="10"/>
<path d="M897.639 1377.17C882.076 1377.17 862.029 1389.04 842.065 1382.06C820.912 1374.67 842.065 1407.41 871.201 1407.41C911.667 1407.41 914.365 1377.17 897.639 1377.17Z" fill="white" stroke="black" stroke-width="6.073"/>
</g>
<path d="M893.479 1299.17H882.724C882.724 1296.3 877.028 1292.97 869.678 1292.97C862.328 1292.97 856.631 1296.3 856.631 1299.17H845.876C845.876 1290.1 856.337 1283 869.678 1283C883.019 1283 893.479 1290.1 893.479 1299.17Z" fill="black"/>
<path fill-rule="evenodd" clip-rule="evenodd" d="M803.562 1283.15C803.407 1281.28 801.987 1275.83 798.162 1268.03C794.342 1260.24 797.412 1255.49 803.251 1255.77C809.095 1256.05 808.335 1250.67 813.09 1250.67C817.844 1250.67 817.085 1256.05 822.924 1255.77C828.763 1255.49 831.838 1260.24 828.013 1268.03C824.192 1275.83 822.773 1281.28 822.612 1283.15C821.23 1299.72 804.949 1299.72 803.562 1283.15Z" fill="#409B1B" stroke="black" stroke-width="6.28712"/>
<path fill-rule="evenodd" clip-rule="evenodd" d="M813.037 1271.6C836.068 1271.6 854.737 1287.04 854.737 1306.09C854.737 1325.13 856.631 1340.57 813.037 1340.57C769.443 1340.57 771.337 1325.13 771.337 1306.09C771.337 1287.04 790.006 1271.6 813.037 1271.6Z" fill="#409B1B" stroke="black" stroke-width="6.28712"/>
<path fill-rule="evenodd" clip-rule="evenodd" d="M793.71 1266.45H832.368C833.843 1266.45 835.054 1267.23 835.054 1268.18C835.054 1269.14 833.843 1269.92 832.368 1269.92H793.71C792.234 1269.92 791.024 1269.14 791.024 1268.18C791.024 1267.23 792.234 1266.45 793.71 1266.45Z" fill="black"/>
<path fill-rule="evenodd" clip-rule="evenodd" d="M793.71 1269.92H832.368C833.843 1269.92 835.054 1270.7 835.054 1271.66C835.054 1272.61 833.843 1273.4 832.368 1273.4H793.71C792.234 1273.4 791.024 1272.61 791.024 1271.66C791.024 1270.7 792.234 1269.92 793.71 1269.92Z" fill="black"/>
<path d="M817.525 1287.79C819.424 1288.23 821.009 1288.95 822.277 1289.95C824.038 1291.36 825.161 1293.23 825.654 1295.58L818.528 1296.36C818.332 1295.53 817.998 1294.82 817.531 1294.23V1287.79H817.525ZM817.525 1302.38C820.756 1303.3 823.035 1304.42 824.354 1305.73C825.988 1307.35 826.802 1309.43 826.802 1311.97C826.802 1314.79 825.774 1317.18 823.722 1319.12C822.132 1320.63 820.062 1321.67 817.518 1322.28V1316.69C817.903 1316.46 818.257 1316.19 818.579 1315.88C819.462 1315 819.904 1313.98 819.904 1312.81C819.904 1311.76 819.532 1310.86 818.787 1310.1C818.459 1309.76 818.036 1309.46 817.518 1309.19V1302.38H817.525ZM811.062 1317.18V1307.34C810.424 1307.19 809.818 1307.03 809.244 1306.85V1299.75C809.749 1300.09 810.348 1300.4 811.062 1300.65V1292.53C810.361 1292.72 809.761 1293 809.244 1293.37V1287.65C809.824 1287.54 810.43 1287.46 811.062 1287.41V1285.09H815.139V1287.41C815.985 1287.49 816.78 1287.63 817.525 1287.8V1294.23C816.944 1293.51 816.149 1292.97 815.139 1292.6V1301.78C815.985 1301.97 816.78 1302.17 817.525 1302.39V1309.2C816.874 1308.86 816.079 1308.58 815.139 1308.36V1317.51C816.041 1317.38 816.837 1317.1 817.525 1316.7V1322.29C816.773 1322.47 815.978 1322.61 815.139 1322.71V1327.1H811.062V1322.82C810.43 1322.76 809.824 1322.67 809.244 1322.55V1316.11C809.812 1316.56 810.418 1316.92 811.062 1317.18ZM809.244 1306.85C806.473 1305.99 804.378 1304.84 802.951 1303.36C801.241 1301.59 800.376 1299.43 800.376 1296.9C800.376 1294.33 801.348 1292.17 803.292 1290.43C804.864 1289.02 806.845 1288.1 809.244 1287.65V1293.37C808.935 1293.59 808.657 1293.84 808.404 1294.12C807.748 1294.87 807.42 1295.71 807.42 1296.61C807.42 1297.44 807.716 1298.22 808.316 1298.92C808.568 1299.22 808.878 1299.49 809.237 1299.75V1306.85H809.244ZM809.244 1322.54C806.814 1322.06 804.775 1321.14 803.134 1319.78C801.102 1318.1 799.814 1315.71 799.246 1312.62L806.606 1311.97C806.902 1313.22 807.47 1314.29 808.297 1315.2C808.6 1315.54 808.909 1315.84 809.237 1316.1V1322.54H809.244Z" fill="white"/>
<path fill-rule="evenodd" clip-rule="evenodd" d="M916.032 1283.15C915.872 1281.28 914.414 1275.83 910.485 1268.03C906.562 1260.24 909.715 1255.49 915.712 1255.77C921.714 1256.05 920.934 1250.67 925.816 1250.67C930.699 1250.67 929.919 1256.05 935.916 1255.77C941.913 1255.49 945.071 1260.24 941.143 1268.03C937.219 1275.83 935.761 1281.28 935.596 1283.15C934.177 1299.72 917.456 1299.72 916.032 1283.15Z" fill="#409B1B" stroke="black" stroke-width="6.28712"/>
<path fill-rule="evenodd" clip-rule="evenodd" d="M925.42 1271.6C948.451 1271.6 967.12 1287.04 967.12 1306.09C967.12 1325.13 969.014 1340.57 925.42 1340.57C881.826 1340.57 883.72 1325.13 883.72 1306.09C883.72 1287.04 902.389 1271.6 925.42 1271.6Z" fill="#409B1B" stroke="black" stroke-width="6.28712"/>
<path fill-rule="evenodd" clip-rule="evenodd" d="M906.093 1266.45H944.75C946.226 1266.45 947.437 1267.23 947.437 1268.18C947.437 1269.14 946.226 1269.92 944.75 1269.92H906.093C904.617 1269.92 903.407 1269.14 903.407 1268.18C903.407 1267.23 904.617 1266.45 906.093 1266.45Z" fill="black"/>
<path fill-rule="evenodd" clip-rule="evenodd" d="M906.093 1269.92H944.75C946.226 1269.92 947.437 1270.7 947.437 1271.66C947.437 1272.61 946.226 1273.4 944.75 1273.4H906.093C904.617 1273.4 903.407 1272.61 903.407 1271.66C903.407 1270.7 904.617 1269.92 906.093 1269.92Z" fill="black"/>
<path d="M929.907 1287.79C931.807 1288.23 933.391 1288.95 934.66 1289.95C936.421 1291.36 937.544 1293.23 938.037 1295.58L930.911 1296.36C930.715 1295.53 930.381 1294.82 929.914 1294.23V1287.79H929.907ZM929.907 1302.38C933.139 1303.3 935.417 1304.42 936.736 1305.73C938.371 1307.35 939.185 1309.43 939.185 1311.97C939.185 1314.79 938.157 1317.18 936.105 1319.12C934.515 1320.63 932.445 1321.67 929.901 1322.28V1316.69C930.286 1316.46 930.639 1316.19 930.961 1315.88C931.845 1315 932.287 1313.98 932.287 1312.81C932.287 1311.76 931.914 1310.86 931.17 1310.1C930.841 1309.76 930.419 1309.46 929.901 1309.19V1302.38H929.907ZM923.444 1317.18V1307.34C922.807 1307.19 922.201 1307.03 921.627 1306.85V1299.75C922.132 1300.09 922.731 1300.4 923.444 1300.65V1292.53C922.744 1292.72 922.144 1293 921.627 1293.37V1287.65C922.207 1287.54 922.813 1287.46 923.444 1287.41V1285.09H927.522V1287.41C928.367 1287.49 929.163 1287.63 929.907 1287.8V1294.23C929.327 1293.51 928.531 1292.97 927.522 1292.6V1301.78C928.367 1301.97 929.163 1302.17 929.907 1302.38V1309.2C929.257 1308.86 928.462 1308.58 927.522 1308.36V1317.51C928.424 1317.38 929.219 1317.1 929.907 1316.7V1322.29C929.156 1322.47 928.361 1322.61 927.522 1322.71V1327.1H923.444V1322.82C922.813 1322.76 922.207 1322.67 921.627 1322.55V1316.11C922.195 1316.56 922.801 1316.92 923.444 1317.18ZM921.627 1306.85C918.856 1305.99 916.76 1304.84 915.334 1303.36C913.624 1301.59 912.759 1299.43 912.759 1296.9C912.759 1294.33 913.731 1292.17 915.675 1290.43C917.246 1289.02 919.228 1288.1 921.627 1287.65V1293.37C921.317 1293.59 921.04 1293.84 920.787 1294.12C920.131 1294.87 919.803 1295.71 919.803 1296.61C919.803 1297.44 920.099 1298.22 920.699 1298.92C920.951 1299.22 921.261 1299.49 921.62 1299.75V1306.85H921.627ZM921.627 1322.54C919.197 1322.06 917.158 1321.14 915.517 1319.78C913.485 1318.1 912.197 1315.71 911.629 1312.62L918.988 1311.97C919.285 1313.22 919.853 1314.29 920.68 1315.2C920.983 1315.54 921.292 1315.84 921.62 1316.1V1322.54H921.627Z" fill="white"/>
<defs>
<clipPath id="clip0_94_11274">
<rect width="230.267" height="253" fill="white" transform="translate(753.73 1192)"/>
</clipPath>
</defs>
</svg>
