<svg width="198" height="139" viewBox="0 0 198 139" fill="none" xmlns="http://www.w3.org/2000/svg">
<path d="M194.575 15.0426C194.158 14.4856 193.312 13.6977 192.678 13.1338C192.678 13.1338 190.359 10.7767 186.915 9.58082C186.915 9.58082 185.411 8.98969 184.107 8.94872C183.564 8.93165 182.908 9.01982 182.358 9.22008C181.153 9.50852 179.492 10.4353 178.228 12.571C177.427 13.8511 176.717 15.678 175.99 18.0481C174.532 22.8971 172.942 28.5033 171.114 34.7547C169.398 40.9009 167.672 47.373 165.833 53.9504C164.107 60.4225 162.381 66.8947 160.882 73.0476C159.275 79.1972 157.902 84.8102 156.883 89.5642C156.387 91.5066 156.125 92.9124 155.982 93.9956C155.808 96.0568 155.964 98.0197 156.667 99.8909C157.264 101.65 158.194 103.202 159.24 104.54C159.868 105.321 160.608 105.997 161.349 106.673C160.146 106.853 159.046 107.253 157.942 107.763C157.61 107.97 157.277 108.177 156.947 108.275C156.91 105.99 156.748 104.244 156.748 104.244C156.659 103.589 156.571 102.934 156.374 102.275L156.283 101.728C155.92 99.4323 155.319 97.7818 154.375 96.6645C153.333 95.2176 151.727 94.4058 149.88 94.3477L149.771 94.3443C147.706 94.2794 145.74 94.544 143.984 95.0327C144.966 91.474 145.84 87.912 146.825 84.2446C148.303 78.7437 149.778 73.3514 151.134 68.2816C152.605 62.998 154.073 57.823 155.531 52.974C156.988 48.125 159.248 41.996 160.253 37.6767C162.133 29.7953 158.836 27.4074 155.858 25.2472C154.367 24.2214 152.877 23.1956 151.152 22.7063C150.075 22.3462 149.101 22.2068 148.123 22.176C147.362 22.1521 146.598 22.2369 145.831 22.4303C143.09 23.1056 141.056 25.5435 139.612 29.9578L139.608 30.0665C138.63 33.5165 137.42 37.3943 136.2 41.5981C134.98 45.8019 133.862 50.2265 132.632 54.7563C132.582 52.9056 132.528 51.1635 132.362 49.5267C132.209 47.4552 131.948 45.3803 131.463 43.5159C130.981 41.5429 130.383 39.7837 129.671 38.2385C128.852 36.5812 127.705 35.0223 126.33 33.7826L126.225 33.6705C125.27 32.8791 124.208 32.0843 122.812 31.4966C121.525 30.9123 120.235 30.4367 118.724 30.0629C117.213 29.6891 115.695 29.5326 114.17 29.5935C114.061 29.5901 113.844 29.5832 113.735 29.5798C112.319 29.6441 110.896 29.9257 109.688 30.3228C107.82 30.9167 105.826 32.0506 103.819 33.6191C101.924 35.0824 100.236 36.8785 98.8704 38.7935L98.8669 38.9022C96.1326 42.8409 93.8193 47.2279 91.8184 52.0598C91.5839 52.5963 91.3495 53.1328 91.2238 53.6727C91.122 53.4519 91.1288 53.2346 91.027 53.0139C90.5349 51.3668 89.9307 49.825 88.9971 48.3816C88.0635 46.9382 86.9057 45.7053 85.5272 44.5743L85.4185 44.5709C84.461 43.8882 83.3914 43.3107 81.9959 42.723C80.7055 42.2473 79.4118 41.8804 78.0094 41.51C76.6035 41.2483 75.0856 41.0918 73.5609 41.1527C72.0362 41.2135 70.508 41.383 69.0817 41.7733C67.2173 42.2586 65.2306 43.1751 63.3423 44.4211C61.454 45.667 59.7762 47.1371 58.421 48.7261L58.4176 48.8348C55.7038 52.1215 53.4144 55.7478 51.4407 59.7104C50.1635 62.2808 49.1001 64.9667 48.1488 67.5474C48.0641 66.7833 47.9793 66.0192 47.8945 65.2552C47.7148 64.053 47.5384 62.7422 47.25 61.5366C46.9615 60.3311 46.6731 59.1255 46.3778 58.1373C45.7907 56.0521 44.8708 54.1741 43.7267 52.5065C42.3686 50.7235 40.345 49.3546 37.7609 48.512C36.6845 48.1519 35.496 47.897 34.192 47.856C33.0001 47.7098 31.6927 47.7775 30.3853 47.8452C29.0779 47.9129 27.7671 48.0892 26.4528 48.3743C24.9213 48.6524 22.8361 49.2396 21.8445 49.6435L21.1822 49.949C18.3125 51.2729 15.7484 53.259 13.7104 55.8055C11.7846 58.2468 10.0658 61.0209 8.77147 64.1346C7.48054 67.1397 6.51219 70.2637 5.86301 73.6152C5.21725 76.8581 4.78882 80.1079 4.6898 83.2592C4.59078 86.4105 4.70909 89.5686 5.16364 92.411C5.61477 95.362 6.29349 97.9939 7.19636 100.415C9.01234 104.932 12.1426 109.164 15.0219 110.995C22.1625 115.679 27.8165 115.748 34.0344 115.182C34.5811 115.09 35.1279 114.998 35.6746 114.907C39.5052 114.157 42.6059 112.405 44.868 109.648C45.7749 108.48 46.5731 107.309 47.2695 105.917C48.2844 108.233 49.527 110.23 50.9971 111.907C54.4601 115.932 59.275 118.476 65.2243 119.534C66.3041 119.785 67.2787 119.924 68.3653 119.959C68.8 119.972 69.126 119.982 69.5606 119.996C72.498 119.98 75.1401 118.975 77.3715 117.196C79.715 115.312 81.8581 112.877 83.5906 109.668C84.5111 108.066 85.3264 106.351 86.0399 104.416C87.5025 109.791 89.8584 114.434 92.0619 117.005C95.4265 120.7 97.0326 121.512 99.2872 122.453C100.36 122.922 110.14 126.71 116.871 120.177C118.552 118.599 120.03 116.578 121.518 114.232C121.514 114.341 121.62 114.453 121.62 114.453C121.82 115.003 122.125 115.665 122.326 116.215L122.733 117.098L123.242 118.202C123.646 119.194 124.057 119.968 124.468 120.742C124.882 121.408 125.075 122.176 125.595 122.953C128.093 126.513 128.738 126.75 130.684 127.138C130.902 127.145 131.007 127.257 131.224 127.264C131.441 127.27 131.767 127.281 131.985 127.288C132.419 127.301 132.745 127.311 133.184 127.216C134.056 127.135 134.932 126.945 135.815 126.538C138.121 125.849 140.536 125.163 143.056 124.59C144.699 124.206 146.784 123.619 148.761 123.029C148.312 126.93 148.97 130.214 150.742 132.663C152.613 135.441 155.282 137.048 158.426 137.364L158.535 137.367C158.861 137.378 159.078 137.385 159.404 137.395C161.686 137.467 163.88 136.883 165.663 135.525C167.443 134.275 168.907 132.69 170.048 130.985C171.189 129.281 172.001 127.675 172.599 125.953C173.428 123.804 173.564 122.938 173.69 122.398C173.951 120.992 174.003 119.362 173.837 117.725C173.674 115.98 173.185 114.224 172.472 112.679C171.759 111.134 170.71 109.904 169.44 108.777C170.215 108.366 170.993 107.846 171.679 106.78C172.365 105.714 173.068 104.105 173.574 101.836C174.934 96.6578 176.52 91.1602 178.114 85.4453C179.82 79.6252 181.532 73.5877 183.469 67.3397C185.297 61.0884 187.346 54.7351 189.286 48.3785C191.338 41.9166 193.383 35.672 195.211 29.4206C198.018 19.7193 195.621 16.3808 194.575 15.0426ZM105.142 98.8157C105.051 98.269 105.068 97.7257 104.98 97.0703C104.848 94.3468 104.947 91.1955 105.27 87.8337C105.596 84.3632 106.137 81.0082 106.783 77.7653C107.299 75.171 108.04 72.3662 108.784 69.4527C109.528 66.5392 110.374 63.8465 111.322 61.3745C111.564 60.6206 111.801 59.9755 112.039 59.3303C112.059 62.159 111.964 65.2017 111.759 68.2409C111.426 71.9287 110.987 75.5044 110.447 78.8594C109.906 82.2144 109.26 85.4573 108.513 88.4794C107.769 91.3929 107.035 93.9804 106.206 96.1298C105.849 97.0976 105.492 98.0653 105.142 98.8157ZM65.452 98.4388C65.357 98.0007 65.3741 97.4573 65.2825 96.9106C65.1334 94.7305 65.1033 92.2277 65.406 89.5179C65.7121 86.6994 66.1235 83.993 66.7522 81.2935C67.2551 79.1338 67.8702 76.8689 68.5973 74.4988C69.3244 72.1286 70.1533 69.9792 70.9789 67.9384C71.2167 67.2933 71.5632 66.6515 71.7976 66.115C71.8345 68.4004 71.8647 70.9031 71.5688 73.3956C71.3679 76.3262 70.9498 79.2499 70.4263 82.0616C69.9029 84.8732 69.2776 87.4641 68.6557 89.9464C68.0373 92.3199 67.317 94.4728 66.5017 96.1875C66.1484 97.0466 65.7985 97.797 65.452 98.4388ZM42.6169 87.8229C41.7476 87.7956 40.987 87.7717 40.2263 87.7478C39.5709 87.8359 38.9189 87.8155 38.2601 88.0123C38.1514 88.0089 38.0427 88.0055 37.9307 88.1107C34.5347 88.8742 31.7464 91.0708 30.0105 94.3882C29.2021 95.8857 28.6246 96.9552 28.1728 97.4849C28.0744 97.1555 27.8673 96.8227 27.7723 96.3846C27.2768 94.8462 26.7915 92.9818 26.5304 90.9069C26.164 88.7199 26.0184 86.4311 26.0867 84.2578C26.1413 82.5192 26.3149 80.4579 26.5971 78.4001C26.8827 76.2336 27.2736 74.1792 27.7697 72.2369C27.892 71.8057 28.0143 71.3744 28.1367 70.9432L28.1333 71.0518L28.2385 71.1639C28.8495 72.4884 29.464 73.7042 30.306 74.6008C31.1411 75.7148 32.2005 76.6183 33.2667 77.3044C34.4415 77.994 35.7318 78.4696 37.1376 78.7313C38.4348 78.9896 39.9561 79.0374 41.5929 78.8713C41.9189 78.8816 42.357 78.7866 42.683 78.7968C42.7917 78.8002 43.0124 78.6984 43.1211 78.7018L43.7799 78.505C44.1093 78.4065 44.6595 78.2063 45.3217 77.9008C44.9343 79.8465 44.6589 81.687 44.4888 83.6396C44.3323 85.1575 44.2845 86.6788 44.2367 88.2001C43.7002 87.9657 43.1603 87.84 42.6169 87.8229Z" fill="url(#paint0_radial_113_9661)"/>
<path d="M12.9414 107.881C10.0655 105.942 6.82319 101.815 5.11587 97.3018C4.20958 94.9891 3.53429 92.2485 3.08315 89.2975C2.63201 86.3464 2.51029 83.297 2.60931 80.1457C2.70833 76.9944 3.13676 73.7446 3.78253 70.5017C4.4317 67.1502 5.40005 64.0262 6.69098 61.0211C7.98532 57.9073 9.70409 55.1333 11.6299 52.692C13.7799 50.0402 16.2355 48.0507 19.1018 46.8355L19.764 46.53C20.8643 46.1295 22.8408 45.5389 24.3723 45.2607C25.6866 44.9757 26.9974 44.7994 28.3048 44.7317C29.6122 44.664 30.9162 44.7049 32.1115 44.7425C33.4121 44.8921 34.604 45.0384 35.6804 45.3985C38.3731 46.2445 40.3968 47.6134 41.6462 49.393C42.7937 50.9519 43.605 52.8265 44.2973 55.0238C44.5926 56.012 44.881 57.2176 45.1695 58.4231C45.4579 59.6287 45.6343 60.9395 45.814 62.1417C45.9938 63.3438 46.0649 64.5425 46.2447 65.7447C46.3158 66.9434 46.3869 68.1422 46.2475 69.1167L46.2304 69.6601L46.0029 69.9792C45.9721 70.9572 45.7275 71.8197 45.381 72.4615C44.5555 74.5022 42.3582 75.1946 41.5908 75.388L40.9319 75.5849C40.8233 75.5815 40.6025 75.6833 40.4939 75.6799C40.1644 75.7783 39.8384 75.7681 39.4038 75.7544C37.767 75.9205 36.2457 75.8727 34.9485 75.6144C33.5427 75.3527 32.2523 74.877 31.0775 74.1875C29.9027 73.4979 28.952 72.5979 28.1168 71.4839C27.3869 70.482 26.6604 69.3715 26.0493 68.047L26.0528 67.9383C25.9304 68.3696 25.8081 68.8008 25.6858 69.2321C25.1897 71.1744 24.9075 73.2322 24.5132 75.3953C24.2276 77.5618 24.0574 79.5143 24.0028 81.253C23.9345 83.4263 24.0801 85.7151 24.4465 87.9021C24.7042 90.0856 25.1929 91.8414 25.6884 93.3798C25.7834 93.8178 25.9905 94.1507 26.0889 94.4801C26.5441 93.8417 27.1182 92.8808 27.9266 91.3834C29.6625 88.066 32.3421 85.8659 35.8468 85.1059C35.9554 85.1093 36.0641 85.1127 36.1762 85.0075C36.8316 84.9193 37.487 84.8311 38.1424 84.7429C38.9065 84.6582 39.6671 84.6821 40.533 84.818C42.2683 84.9813 43.6673 85.4604 44.8353 86.3673C46.0033 87.2742 46.7264 88.4934 47.2253 89.9231C47.524 90.8027 47.5985 91.8927 47.5678 92.8707C47.5439 93.6314 47.4079 94.4973 47.3806 95.3666C46.8059 99.8083 45.2738 103.567 42.7875 106.535C40.5254 109.292 37.4247 111.043 33.5941 111.793C33.0474 111.885 32.5006 111.976 31.9539 112.068C25.7326 112.743 20.082 112.565 12.9414 107.881Z" fill="url(#paint1_radial_113_9661)"/>
<path d="M43.0228 88.7042C43.6577 89.268 44.1805 89.9371 44.3705 90.8132C44.5674 91.4721 44.6556 92.1275 44.6351 92.7795C44.6112 93.5401 44.4786 94.2974 44.4547 95.058C43.8971 98.9563 42.5994 102.179 40.558 104.834C38.5201 107.38 35.5383 108.81 31.7145 109.342C31.3885 109.332 31.1678 109.434 30.8418 109.423C23.9719 109.969 19.3539 108.083 18.4949 107.73C17.741 107.489 16.8854 107.027 16.1384 106.568C15.3914 106.11 14.6444 105.651 13.9042 104.975C13.1606 104.408 12.6343 103.848 12.1115 103.179L12.1081 103.287C11.1574 102.387 10.3188 101.382 9.70439 100.166C8.98129 98.9469 8.37027 97.6225 7.86791 96.3014C7.06688 94.1008 6.38134 91.6862 6.03204 88.9559C5.46882 86.1101 5.34027 83.278 5.43587 80.2353C5.53148 77.1927 5.95308 74.1603 6.48677 71.0227C7.23778 67.8918 8.09063 64.9818 9.26607 62.1906C10.4415 59.3994 11.9361 56.8359 13.7465 54.6085C15.5568 52.3812 17.6795 50.5987 20.213 49.5906C20.4337 49.4888 22.9672 48.4806 24.8247 48.2127C26.0269 48.0329 27.229 47.8531 28.3191 47.7786C29.5178 47.7075 30.6045 47.7417 31.6912 47.7758C32.7744 47.9186 33.749 48.058 34.5028 48.2992C36.6556 49.0195 38.1496 49.9367 39.0866 51.2714C40.0237 52.6061 40.7365 54.1513 41.3305 56.0191C41.6257 57.0074 41.9176 58.1043 42.1008 59.1977C42.3892 60.4033 42.5724 61.4968 42.7522 62.6989C42.9319 63.9011 43.0065 64.9912 43.081 66.0812C43.1555 67.1713 43.2334 68.1527 43.094 69.1273C43.0906 69.236 42.9786 69.3412 42.9751 69.4499C42.9478 70.3192 42.8187 70.9678 42.5843 71.5043C42.3499 72.0408 41.6842 72.455 40.696 72.7502C40.4752 72.8521 40.2579 72.8452 40.0371 72.9471C39.8164 73.0489 39.4904 73.0387 39.1644 73.0284C37.6397 73.0893 36.4444 73.0517 35.3611 72.9089C34.2813 72.6574 33.3101 72.4094 32.4579 71.8387C31.6022 71.3768 30.862 70.7009 30.2339 69.9197C29.6058 69.1386 29.0932 68.1435 28.5841 67.0398C28.282 66.2689 28.0885 65.5014 27.8985 64.6252C27.7085 63.7491 27.5117 63.0902 27.3148 62.4314C27.2198 61.9933 27.0161 61.5519 26.809 61.219C26.602 60.8862 26.3915 60.662 26.0689 60.5431C25.5153 60.8521 24.836 61.7009 24.2449 63.2051C23.6537 64.7094 23.0524 66.5396 22.6615 68.594C22.1619 70.645 21.7677 72.8081 21.482 74.9746C21.193 77.2497 21.0195 79.311 20.9614 81.1583C20.8863 83.5489 21.0285 85.9464 21.388 88.3507C21.751 90.6463 22.2295 92.7281 22.8302 94.3785C23.2307 95.4789 23.6381 96.3618 24.1575 97.1396C24.5717 97.8052 25.1014 98.257 25.6413 98.3827L25.8586 98.3895C27.0642 98.1011 28.6435 96.3016 30.3862 92.7668C31.6635 90.1964 33.6707 88.6279 36.2991 88.0578C36.8459 87.9662 37.5013 87.8781 38.048 87.7865C38.7 87.807 39.352 87.8274 40.004 87.8479C41.4201 87.7837 42.2792 88.137 43.0228 88.7042Z" fill="#FF0042"/>
<path d="M67.2602 116.876C66.8255 116.862 66.4995 116.852 66.0648 116.838C64.9782 116.804 64.0036 116.665 62.9238 116.413C56.9745 115.356 52.1596 112.812 48.6966 108.787C45.2267 104.98 43.1223 99.2576 42.2644 91.9428C41.8338 88.3398 41.848 84.4244 42.2969 80.5227C42.6406 76.5089 43.4189 72.5088 44.6319 68.5223C45.7397 64.4237 47.3873 60.4509 49.2489 56.5935C51.2226 52.631 53.512 49.0046 56.2258 45.7179L56.2292 45.6093C57.5844 44.0203 59.2622 42.5502 61.1505 41.3042C63.0388 40.0583 65.0255 39.1417 66.8899 38.6565C68.3162 38.2662 69.7357 38.0932 71.3691 38.0358C72.8938 37.9749 74.4117 38.1314 75.8175 38.3931C77.2234 38.6548 78.6258 39.0252 79.804 39.6061C81.0909 40.1904 82.2692 40.7713 83.2267 41.454L83.3354 41.4574C84.7139 42.5885 85.8716 43.8214 86.8052 45.2648C87.6302 46.7047 88.343 48.2499 88.8351 49.897C89.3307 51.4354 89.602 53.1843 89.8734 54.9332C90.0361 56.6787 90.1954 58.5328 90.2426 60.4922C90.3609 63.6503 90.2448 67.345 90.0064 71.4709C89.7714 75.4881 89.207 79.6037 88.5305 83.8246C87.8574 87.9368 86.8583 92.0388 85.6487 95.9166C84.4357 99.9031 83.0191 103.448 81.2935 106.44C79.5645 109.54 77.4179 112.083 75.0744 113.967C72.8397 115.855 70.1975 116.859 67.2602 116.876ZM69.5989 63.2155C69.3645 63.752 69.018 64.3938 68.7802 65.0389C67.9581 66.971 67.1257 69.2291 66.3986 71.5992C65.6715 73.9694 65.0565 76.2343 64.5535 78.394C63.9282 80.9849 63.5135 83.7999 63.2074 86.6184C62.9047 89.3282 62.9348 91.8309 63.0838 94.0111C63.1754 94.5578 63.1584 95.1012 63.2534 95.5392C63.5998 94.8975 63.9497 94.1471 64.3065 93.1793C65.0131 91.4612 65.73 89.417 66.4605 86.9382C67.191 84.4593 67.7076 81.865 68.2311 79.0534C68.7545 76.2417 69.064 73.3146 69.3736 70.3874C69.666 68.0036 69.7445 65.5043 69.5989 63.2155Z" fill="url(#paint2_radial_113_9661)"/>
<path d="M84.4687 46.9313C85.1952 48.0418 85.6975 49.3629 86.0878 50.7892C86.4781 52.2155 86.7563 53.7471 87.0311 55.3873C87.1972 57.0241 87.3599 58.7696 87.4071 60.729C87.5254 63.8871 87.4127 67.4731 87.1811 71.3817C86.9495 75.2902 86.3851 79.4059 85.7155 83.4094C85.0458 87.413 84.0501 91.4063 82.9526 95.1789C81.8551 98.9514 80.4453 102.279 78.8352 105.057C77.2251 107.834 75.4147 110.061 73.2989 111.627C71.183 113.192 68.8771 113.881 66.1605 113.795C65.2912 113.768 64.4252 113.632 63.4541 113.384L63.5628 113.387C58.1534 112.456 53.8716 110.255 50.8296 106.678C47.7841 103.211 45.8731 98.2559 45.1068 91.4879C44.7814 87.9969 44.7854 84.4075 45.1223 80.6111C45.4591 76.8146 46.234 72.9231 47.3315 69.1505C48.4325 65.2693 49.9646 61.5104 51.8228 57.7617C53.6809 54.0131 55.8548 50.6006 58.4566 47.4192C59.6963 46.0441 61.1499 44.7845 62.8175 43.6404C64.485 42.4963 66.1389 41.7869 67.6739 41.4C68.8795 41.1116 70.0816 40.9318 71.4977 40.8675C72.8051 40.7998 74.1057 40.9495 75.2941 41.2044C76.4826 41.4592 77.6677 41.8228 78.7441 42.1829C79.8171 42.6517 80.7815 43.1171 81.5251 43.6844C82.7949 44.812 83.7422 45.8207 84.4687 46.9313ZM71.1215 56.3015C70.4661 56.3896 69.6781 57.2351 68.7644 58.6204C67.8507 60.0057 67.032 61.8291 66.0978 63.8665C65.2722 65.9072 64.4399 68.1653 63.6007 70.6407C62.8701 73.1195 62.2551 75.3844 61.6401 77.6494C61.008 80.4576 60.5932 83.2726 60.2837 86.1998C59.9741 89.1269 60.0009 91.7383 60.1431 94.1358C60.3058 95.8813 60.5874 97.3042 60.8758 98.5098C61.2729 99.7187 61.7992 100.279 62.4546 100.191C63.1066 100.211 63.7756 99.6886 64.5705 98.6258C65.3653 97.5631 66.0651 96.0623 66.8838 94.2388C67.7025 92.4154 68.4228 90.2626 69.1567 87.6751C69.8906 85.0876 70.5193 82.3881 71.0428 79.5764C71.5696 76.6561 71.9878 73.7324 72.1955 70.5845C72.4032 67.4366 72.4954 64.5026 72.3702 61.5618C72.3094 60.0371 72.133 58.7262 71.9464 57.7414C71.8651 56.8687 71.5527 56.4238 71.1215 56.3015Z" fill="#FF0042"/>
<path d="M97.2008 119.449C94.9461 118.508 93.34 117.696 89.9754 114C86.295 109.969 82.7819 100.613 82.1892 91.7837C81.8911 87.4234 81.9259 82.856 82.4055 77.9763C82.8817 73.2052 83.6908 68.2271 84.9277 63.48C86.168 58.6241 87.7343 53.7786 89.7319 49.0553C91.7294 44.3321 94.1548 39.8398 96.7805 35.8977L96.7839 35.7891C98.1493 33.8741 99.8374 32.078 101.732 30.6147C103.631 29.0428 105.625 27.9089 107.601 27.3184C108.919 26.9247 110.233 26.6396 111.649 26.5754C111.758 26.5788 111.975 26.5856 112.084 26.589C113.608 26.5282 115.235 26.688 116.637 27.0584C118.04 27.4288 119.439 27.9079 120.726 28.4922C122.009 29.1851 123.184 29.8747 124.138 30.6661L124.243 30.7782C125.618 32.0179 126.766 33.5768 127.584 35.2341C128.406 36.7827 129 38.6505 129.376 40.5115C129.753 42.3724 130.126 44.3421 130.275 46.5222C130.427 48.5937 130.577 50.7739 130.61 53.1679C130.708 56.978 130.568 61.4333 130.197 66.3165C129.829 71.0909 129.238 76.0759 128.537 81.0574C127.728 86.0356 126.705 90.8982 125.577 95.6488C124.34 100.396 122.903 104.593 121.157 108.236C119.407 111.988 117.247 114.966 114.89 117.285C108.053 123.705 98.3824 119.921 97.2008 119.449ZM109.953 56.3259C109.715 56.971 109.477 57.6162 109.236 58.37C108.397 60.8454 107.551 63.5382 106.698 66.4483C105.954 69.3617 105.213 72.1666 104.696 74.7609C104.05 78.0038 103.507 81.4674 103.183 84.8292C102.86 88.191 102.761 91.3423 102.893 94.0658C102.873 94.7178 102.964 95.2646 103.056 95.8113C103.406 95.0609 103.762 94.0931 104.119 93.1254C104.948 90.976 105.682 88.3885 106.426 85.475C107.174 82.4528 107.82 79.2099 108.36 75.855C108.904 72.3913 109.343 68.8156 109.673 65.2365C109.88 62.0886 109.973 59.1546 109.953 56.3259Z" fill="url(#paint3_radial_113_9661)"/>
<path d="M124.929 36.5666C125.645 38.0031 126.141 39.5415 126.524 41.1852C126.904 42.9375 127.172 44.795 127.328 46.7578C127.484 48.7207 127.633 50.9008 127.67 53.1862C127.768 56.9963 127.635 61.2343 127.267 66.0088C126.9 70.7832 126.42 75.6629 125.614 80.5324C124.809 85.4019 123.898 90.1593 122.664 94.7977C121.434 99.3276 120.109 103.419 118.479 106.849C116.848 110.278 115.024 112.94 112.891 115.049C110.762 117.049 108.449 117.955 105.732 117.869C104.863 117.842 103.997 117.706 103.022 117.567L103.131 117.57C97.7217 116.639 93.5589 114.115 90.5373 109.887C87.5123 105.767 85.7442 99.7289 85.1309 91.5517C84.8294 87.3 84.8573 82.95 85.3302 78.2876C85.803 73.6252 86.6052 68.8644 87.73 64.2225C88.9669 59.4754 90.5298 54.7385 92.4119 50.2292C94.406 45.6146 96.6038 41.4415 99.2261 37.6081C100.476 35.907 101.94 34.3214 103.611 33.0686C105.285 31.7072 106.946 30.7804 108.484 30.2849C109.693 29.8878 110.895 29.708 112.203 29.6403C113.51 29.5726 114.811 29.7223 115.999 29.9771C117.188 30.232 118.37 30.7043 119.443 31.1731C120.512 31.7505 121.364 32.3212 122.108 32.8884C123.378 34.016 124.21 35.2387 124.929 36.5666ZM111.517 48.0014C110.858 48.1982 110.067 49.1523 109.143 50.8637C108.219 52.575 107.39 54.7244 106.439 57.3051C105.488 59.8857 104.642 62.5785 103.894 65.6006C103.038 68.6194 102.406 71.4276 101.886 74.1306C101.236 77.4821 100.692 80.9458 100.362 84.5249C100.032 88.1041 99.9334 91.2554 100.059 94.1962C100.211 96.2677 100.374 98.0131 100.764 99.4395C101.154 100.866 101.677 101.535 102.332 101.447C102.984 101.467 103.66 100.727 104.462 99.4469C105.264 98.1668 106.082 96.3434 106.915 94.0853C107.747 91.8272 108.484 89.1311 109.232 86.1089C109.983 82.9781 110.629 79.7352 111.173 76.2715C111.717 72.8079 112.159 69.1235 112.492 65.4357C112.829 61.6392 112.942 58.0533 112.834 54.5691C112.786 52.6097 112.617 51.0816 112.434 49.9881C112.254 48.786 111.948 48.1237 111.517 48.0014Z" fill="#FF0042"/>
<path d="M123.518 119.843C122.995 119.174 122.693 118.403 122.391 117.632C121.977 116.967 121.569 116.084 121.165 115.092L120.656 113.988L120.249 113.105C119.94 112.552 119.74 112.001 119.543 111.343C119.543 111.343 119.054 109.587 118.959 109.149C118.678 107.726 118.511 106.089 118.675 104.354C118.692 103.811 118.818 103.271 118.835 102.727C118.96 102.187 118.974 101.753 119.212 101.108C119.739 98.1872 120.388 94.8357 121.156 91.1615C121.928 87.3787 122.815 83.382 123.82 79.0627C124.83 74.6347 125.948 70.2101 127.069 65.6769C128.194 61.035 129.427 56.3965 130.549 51.8633C131.782 47.2248 133.009 42.8037 134.117 38.7051C135.337 34.5013 136.437 30.6201 137.525 27.1735L137.528 27.0648C139.081 22.6539 141.115 20.2161 143.747 19.5374C144.515 19.3439 145.279 19.2592 146.039 19.2831C147.017 19.3138 147.992 19.4532 149.068 19.8133C150.79 20.4113 152.284 21.3284 153.775 22.3542C156.752 24.5145 160.049 26.9023 158.17 34.7837C157.167 38.9943 154.908 45.1234 153.447 50.081C151.99 54.93 150.522 60.105 149.05 65.3886C147.582 70.5636 146.22 75.8507 144.742 81.3517C143.76 84.9103 142.883 88.5811 141.901 92.1397C143.657 91.651 145.619 91.4951 147.688 91.4513L147.796 91.4548C149.643 91.5128 151.25 92.3247 152.292 93.7715C153.127 94.8855 153.728 96.5359 154.199 98.835L154.291 99.3817C154.379 100.037 154.576 100.696 154.664 101.351C154.664 101.351 155.148 110.177 154.723 113.318C154.577 114.51 153.874 116.12 153.198 116.86C152.522 117.6 151.629 118.333 150.416 118.839C148.104 119.745 143.821 121.025 140.972 121.697C138.452 122.27 136.038 122.956 133.732 123.645C132.849 124.052 131.973 124.242 131.1 124.323C130.665 124.31 130.227 124.405 129.901 124.395C129.575 124.384 129.358 124.377 129.141 124.371C128.923 124.364 128.706 124.357 128.601 124.245C126.662 123.64 126.122 123.514 123.518 119.843Z" fill="url(#paint4_radial_113_9661)"/>
<path d="M148.53 116.385C145.994 117.502 143.151 117.956 140.411 118.632C137.67 119.307 135.038 119.986 132.62 120.78C132.62 120.78 131.52 121.181 130.973 121.272C130.426 121.364 129.992 121.35 129.561 121.228C128.695 121.092 127.944 120.742 127.415 120.29C126.888 119.73 126.057 118.507 126.057 118.507C125.646 117.733 125.34 117.071 124.926 116.405C124.621 115.743 123.806 113.977 123.806 113.977L122.784 111.878C122.271 110.883 121.871 109.782 121.688 108.689C121.396 107.592 121.332 106.176 121.488 104.658C121.502 104.223 121.628 103.684 121.641 103.249C121.767 102.709 121.784 102.166 122.022 101.52L121.906 101.734C122.43 98.9228 123.079 95.5712 123.847 91.897C124.619 88.1142 125.506 84.1175 126.508 79.9069C127.514 75.5875 128.632 71.163 129.757 66.5211C130.882 61.8792 132.115 57.2407 133.236 52.7075C134.466 48.1777 135.584 43.7531 136.804 39.5493C138.024 35.3455 139.125 31.4642 140.104 28.0143C141.296 24.6798 142.662 22.7648 144.305 22.3813C145.402 22.0895 146.594 22.2357 147.996 22.6061C149.395 23.0851 150.57 23.7747 151.738 24.6816C152.906 25.5884 153.85 26.7058 154.573 27.9251C155.296 29.1443 155.581 30.4585 155.54 31.7625C155.523 32.3058 155.394 32.9544 155.268 33.4943C155.143 34.0342 154.901 34.7881 154.548 35.6472L154.66 35.5419C153.332 39.7423 151.993 44.2687 150.532 49.2263C149.071 54.184 147.606 59.2503 146.132 64.6426C144.66 69.9263 143.189 75.2099 141.823 80.6056C140.348 85.9979 138.993 91.0677 137.745 96.1408C139.389 95.7574 140.924 95.3705 142.462 94.875C143.997 94.4881 145.746 94.2168 147.485 94.2714C148.572 94.3055 149.322 94.6554 149.841 95.4332C150.361 96.2109 150.867 97.4233 151.135 99.2809L151.138 99.1722C151.62 101.145 151.878 103.329 152.02 105.726C152.159 108.232 152.097 110.188 151.934 111.924C151.784 113.224 151.536 114.195 150.972 114.83C150.633 115.255 149.193 116.08 148.53 116.385Z" fill="#FF0042"/>
<path d="M158.952 134.336C158.626 134.326 158.408 134.319 158.082 134.309L157.974 134.305C154.829 133.989 152.161 132.382 150.29 129.604C148.521 127.047 147.87 123.546 148.438 119.321C148.455 118.778 148.577 118.347 148.699 117.915C148.818 117.593 148.828 117.267 148.947 116.944L148.951 116.836C149.328 115.216 149.922 113.603 150.622 112.102C151.434 110.496 152.351 109.002 153.476 107.841C154.603 106.571 155.938 105.634 157.378 104.809C158.485 104.191 159.582 103.899 160.784 103.72C160.04 103.152 159.412 102.371 158.676 101.587C157.63 100.249 156.7 98.6965 156.102 96.9374C155.4 95.0661 155.244 93.1033 155.417 91.0421C155.56 89.9588 155.822 88.553 156.318 86.6107C157.45 81.7515 158.823 76.1384 160.318 70.0941C161.925 63.9445 163.543 57.469 165.269 50.9969C166.998 44.416 168.833 37.9473 170.549 31.8012C172.269 25.5464 173.967 19.9436 175.425 15.0946C176.152 12.7244 176.862 10.8976 177.664 9.61751C178.927 7.48175 180.588 6.55498 181.794 6.26654C182.344 6.06628 182.999 5.9781 183.543 5.99518C184.847 6.03615 186.351 6.62728 186.351 6.62728C189.794 7.8232 192.113 10.1803 192.113 10.1803C192.748 10.7441 193.485 11.5287 194.011 12.0891C195.053 13.5359 197.45 16.8744 194.654 26.2498C192.829 32.3925 190.78 38.7457 188.728 45.2076C186.788 51.5643 184.848 57.9209 182.911 64.1689C181.083 70.4203 179.262 76.4543 177.556 82.2745C175.854 87.986 174.376 93.4869 173.017 98.6653C172.402 100.93 171.807 102.543 171.121 103.609C170.435 104.675 169.654 105.304 168.883 105.606C170.156 106.625 171.202 107.963 171.915 109.508C172.627 111.053 173.12 112.7 173.279 114.554C173.445 116.191 173.394 117.821 173.132 119.227C173.006 119.767 172.87 120.633 172.041 122.782C171.443 124.504 170.631 126.11 169.49 127.814C168.345 129.628 166.885 131.105 165.105 132.354C163.322 133.712 161.234 134.408 158.952 134.336Z" fill="url(#paint5_radial_113_9661)"/>
<path d="M151.766 117.357C152.136 115.955 152.615 114.556 153.308 113.273C154.004 111.88 154.803 110.709 155.703 109.758C156.606 108.699 157.717 107.972 158.824 107.355C159.931 106.737 161.245 106.452 162.549 106.493C164.288 106.547 165.687 107.026 166.75 107.821C167.812 108.616 168.647 109.73 169.262 110.946C169.876 112.162 170.27 113.479 170.331 115.004C170.504 116.423 170.463 117.727 170.205 119.025C170.079 119.565 169.831 120.536 169.348 122.043C168.866 123.551 168.061 124.94 167.144 126.434C166.227 127.928 164.99 129.194 163.435 130.233C161.988 131.275 160.232 131.764 158.283 131.485L158.174 131.482C155.791 131.189 153.977 130.045 152.626 128.044C151.275 126.044 150.817 123.31 151.256 119.734C151.269 119.3 151.392 118.869 151.402 118.543C151.524 118.111 151.643 117.789 151.766 117.357ZM192.984 20.6482C192.855 21.2968 192.722 22.054 192.481 22.8078C192.239 23.5617 191.995 24.4242 191.743 25.504L191.855 25.3987C189.922 31.5381 187.982 37.8947 185.93 44.3566C183.99 50.7132 182.05 57.0699 180.11 63.4265C178.282 69.6779 176.46 75.712 174.755 81.5321C173.049 87.3523 171.571 92.8532 170.106 97.9196L170.11 97.8109C169.61 99.8619 169.131 101.261 168.561 102.113C167.99 102.965 167.324 103.38 166.672 103.359C165.803 103.332 164.835 102.975 163.769 102.289C162.703 101.603 161.749 100.811 160.914 99.6974C160.078 98.5834 159.355 97.3642 158.856 95.9345C158.357 94.5047 158.188 92.9766 158.348 91.35C158.487 90.3754 158.745 89.0783 159.126 87.3499C160.258 82.4906 161.518 76.9828 163.126 70.8333C164.733 64.6837 166.347 58.3168 168.077 51.736C169.806 45.1552 171.529 38.7918 173.357 32.5404C175.077 26.2856 176.667 20.6793 178.121 15.939C178.733 13.7828 179.436 12.1733 180.013 11.1037C180.699 10.0375 181.484 9.30076 182.469 9.11416C183.236 8.92073 183.888 8.94122 184.639 9.29112C184.639 9.29112 186.785 10.2287 188.177 10.9251C189.457 11.7267 190.516 12.6302 191.457 13.8563C192.927 15.5341 193.395 17.9418 192.984 20.6482Z" fill="#FF0042"/>
<defs>
<radialGradient id="paint0_radial_113_9661" cx="0" cy="0" r="1" gradientUnits="userSpaceOnUse" gradientTransform="translate(99.983 70.7928) rotate(1.79977) scale(81.1634)">
<stop offset="0.5744" stop-color="#130C0E"/>
<stop offset="0.7977" stop-color="#130C0E"/>
<stop offset="1" stop-color="#130C0E"/>
</radialGradient>
<radialGradient id="paint1_radial_113_9661" cx="0" cy="0" r="1" gradientUnits="userSpaceOnUse" gradientTransform="translate(25.2613 78.4043) rotate(1.79977) scale(28.8232)">
<stop offset="0.5744" stop-color="#130C0E"/>
<stop offset="0.7977" stop-color="#130C0E"/>
<stop offset="1" stop-color="#130C0E"/>
</radialGradient>
<radialGradient id="paint2_radial_113_9661" cx="0" cy="0" r="1" gradientUnits="userSpaceOnUse" gradientTransform="translate(66.1596 77.432) rotate(1.79977) scale(32.5607)">
<stop offset="0.5744" stop-color="#130C0E"/>
<stop offset="0.7977" stop-color="#130C0E"/>
<stop offset="1" stop-color="#130C0E"/>
</radialGradient>
<radialGradient id="paint3_radial_113_9661" cx="0" cy="0" r="1" gradientUnits="userSpaceOnUse" gradientTransform="translate(106.193 73.7366) rotate(1.79977) scale(37.4349)">
<stop offset="0.5744" stop-color="#130C0E"/>
<stop offset="0.7977" stop-color="#130C0E"/>
<stop offset="1" stop-color="#130C0E"/>
</radialGradient>
<radialGradient id="paint4_radial_113_9661" cx="0" cy="0" r="1" gradientUnits="userSpaceOnUse" gradientTransform="translate(138.491 71.6945) rotate(1.79977) scale(39.6218)">
<stop offset="0.5744" stop-color="#130C0E"/>
<stop offset="0.7977" stop-color="#130C0E"/>
<stop offset="1" stop-color="#130C0E"/>
</radialGradient>
<radialGradient id="paint5_radial_113_9661" cx="0" cy="0" r="1" gradientUnits="userSpaceOnUse" gradientTransform="translate(172.116 70.1529) rotate(1.79977) scale(48.2767)">
<stop offset="0.5744" stop-color="#130C0E"/>
<stop offset="0.7977" stop-color="#130C0E"/>
<stop offset="1" stop-color="#130C0E"/>
</radialGradient>
</defs>
</svg>
