<svg width="253" height="178" viewBox="0 0 253 178" fill="none" xmlns="http://www.w3.org/2000/svg">
<path d="M249.064 19.0038C248.527 18.2879 247.44 17.2751 246.624 16.5504C246.624 16.5504 243.644 13.5208 239.218 11.9837C239.218 11.9837 237.285 11.2239 235.609 11.1712C234.91 11.1493 234.068 11.2626 233.361 11.52C231.811 11.8907 229.677 13.0819 228.053 15.827C227.022 17.4724 226.11 19.8204 225.175 22.8668C223.302 29.0993 221.258 36.3051 218.908 44.3401C216.703 52.2398 214.484 60.5585 212.121 69.0125C209.902 77.3313 207.684 85.65 205.758 93.5585C203.692 101.463 201.927 108.677 200.617 114.788C199.979 117.284 199.643 119.091 199.459 120.483C199.236 123.133 199.436 125.655 200.339 128.061C201.107 130.322 202.303 132.316 203.647 134.036C204.454 135.04 205.405 135.909 206.357 136.778C204.812 137.009 203.397 137.524 201.979 138.178C201.551 138.444 201.123 138.711 200.7 138.837C200.652 135.9 200.443 133.656 200.443 133.656C200.33 132.814 200.216 131.971 199.963 131.124L199.846 130.422C199.379 127.471 198.607 125.35 197.394 123.914C196.054 122.054 193.99 121.01 191.616 120.936L191.476 120.931C188.822 120.848 186.295 121.188 184.038 121.816C185.3 117.242 186.423 112.664 187.69 107.95C189.589 100.88 191.485 93.9489 193.228 87.4327C195.119 80.6415 197.005 73.9901 198.879 67.7576C200.752 61.5251 203.656 53.6473 204.949 48.0957C207.365 37.9656 203.127 34.8965 199.3 32.1199C197.384 30.8014 195.468 29.483 193.251 28.8541C191.867 28.3912 190.615 28.212 189.357 28.1725C188.38 28.1418 187.398 28.2507 186.411 28.4993C182.889 29.3673 180.274 32.5007 178.418 38.1745L178.413 38.3142C177.156 42.7485 175.601 47.7327 174.033 53.1359C172.465 58.5392 171.028 64.2261 169.447 70.0484C169.382 67.6696 169.313 65.4305 169.099 63.3267C168.903 60.6642 168.568 57.9973 167.944 55.601C167.325 53.065 166.557 50.8039 165.641 48.8178C164.589 46.6877 163.114 44.684 161.347 43.0906L161.211 42.9465C159.985 41.9293 158.619 40.9078 156.825 40.1524C155.171 39.4013 153.513 38.79 151.571 38.3096C149.628 37.8291 147.677 37.628 145.718 37.7062C145.578 37.7018 145.299 37.6931 145.159 37.6887C143.339 37.7713 141.51 38.1332 139.956 38.6436C137.555 39.407 134.993 40.8644 132.413 42.8805C129.977 44.7612 127.808 47.0698 126.053 49.5312L126.048 49.6708C122.534 54.7333 119.56 60.372 116.989 66.5825C116.687 67.2721 116.386 67.9616 116.224 68.6556C116.093 68.3719 116.102 68.0925 115.971 67.8088C115.339 65.6918 114.562 63.7101 113.362 61.8549C112.162 59.9997 110.674 58.4151 108.902 56.9613L108.763 56.9569C107.532 56.0794 106.157 55.3372 104.363 54.5818C102.705 53.9704 101.042 53.4987 99.2396 53.0227C97.4327 52.6863 95.4817 52.4852 93.5219 52.5634C91.5622 52.6416 89.598 52.8595 87.7647 53.3612C85.3684 53.9849 82.8149 55.1629 80.3878 56.7644C77.9608 58.3658 75.8043 60.2553 74.0624 62.2977L74.058 62.4374C70.5699 66.6618 67.6273 71.3228 65.0905 76.416C63.4488 79.7198 62.0821 83.172 60.8594 86.489C60.7504 85.5069 60.6415 84.5248 60.5325 83.5427C60.3015 81.9976 60.0748 80.3128 59.7041 78.7633C59.3333 77.2137 58.9626 75.6642 58.5831 74.394C57.8285 71.7139 56.6461 69.3001 55.1755 67.1567C53.43 64.865 50.829 63.1056 47.5076 62.0225C46.1241 61.5596 44.5965 61.232 42.9205 61.1794C41.3885 60.9914 39.7081 61.0784 38.0276 61.1654C36.3472 61.2524 34.6624 61.4791 32.9732 61.8454C31.0047 62.203 28.3246 62.9576 27.05 63.4768L26.1988 63.8695C22.5104 65.5711 19.2146 68.1239 16.5952 71.397C14.1199 74.5347 11.9107 78.1003 10.2471 82.1025C8.58783 85.965 7.3432 89.9803 6.5088 94.2881C5.67879 98.4562 5.12812 102.633 5.00085 106.684C4.87358 110.734 5.02564 114.793 5.60989 118.447C6.18974 122.24 7.0621 125.622 8.22257 128.735C10.5567 134.54 14.58 139.979 18.2809 142.332C27.4588 148.353 34.726 148.441 42.7179 147.714C43.4206 147.596 44.1234 147.478 44.8261 147.361C49.7497 146.397 53.735 144.145 56.6425 140.602C57.8081 139.101 58.8341 137.595 59.7292 135.806C61.0337 138.782 62.6308 141.349 64.5203 143.506C68.9714 148.679 75.16 151.949 82.8067 153.308C84.1946 153.631 85.4473 153.81 86.844 153.854C87.4026 153.871 87.8216 153.885 88.3803 153.902C92.1558 153.881 95.5518 152.59 98.4198 150.303C101.432 147.881 104.186 144.752 106.413 140.628C107.596 138.568 108.644 136.364 109.561 133.876C111.441 140.786 114.469 146.753 117.301 150.057C121.626 154.807 123.69 155.851 126.588 157.06C127.968 157.663 140.537 162.531 149.189 154.135C151.35 152.106 153.249 149.509 155.162 146.494C155.157 146.633 155.292 146.777 155.292 146.777C155.55 147.484 155.942 148.336 156.2 149.043L156.723 150.178L157.378 151.596C157.897 152.871 158.425 153.866 158.953 154.861C159.485 155.717 159.734 156.703 160.402 157.703C163.613 162.278 164.442 162.584 166.943 163.082C167.223 163.09 167.358 163.234 167.637 163.243C167.917 163.252 168.336 163.265 168.615 163.274C169.174 163.291 169.593 163.305 170.156 163.182C171.278 163.078 172.404 162.834 173.539 162.31C176.502 161.425 179.606 160.543 182.845 159.806C184.957 159.314 187.637 158.559 190.178 157.8C189.601 162.815 190.447 167.036 192.724 170.183C195.129 173.754 198.559 175.819 202.601 176.225L202.74 176.23C203.159 176.243 203.439 176.252 203.858 176.265C206.791 176.357 209.611 175.607 211.902 173.861C214.19 172.256 216.071 170.218 217.538 168.027C219.005 165.836 220.049 163.772 220.817 161.559C221.883 158.796 222.057 157.683 222.219 156.989C222.555 155.182 222.621 153.087 222.408 150.983C222.199 148.74 221.57 146.483 220.654 144.497C219.738 142.511 218.39 140.931 216.757 139.481C217.753 138.953 218.752 138.286 219.634 136.915C220.516 135.545 221.42 133.476 222.071 130.561C223.818 123.905 225.857 116.839 227.906 109.493C230.098 102.013 232.299 94.2527 234.788 86.2221C237.138 78.1871 239.771 70.0212 242.265 61.8509C244.903 53.5453 247.532 45.5191 249.881 37.4841C253.489 25.0148 250.408 20.7237 249.064 19.0038ZM134.114 126.679C133.996 125.976 134.018 125.278 133.905 124.435C133.735 120.935 133.863 116.884 134.278 112.563C134.698 108.103 135.392 103.79 136.222 99.6222C136.886 96.2877 137.839 92.6826 138.795 88.9379C139.752 85.1931 140.839 81.7321 142.057 78.5548C142.367 77.5859 142.673 76.7567 142.979 75.9274C143.004 79.5632 142.881 83.474 142.619 87.3803C142.19 92.1203 141.626 96.7163 140.932 101.028C140.237 105.341 139.407 109.509 138.446 113.393C137.49 117.138 136.546 120.464 135.481 123.226C135.022 124.47 134.564 125.714 134.114 126.679ZM83.0994 126.194C82.9773 125.631 82.9993 124.933 82.8815 124.23C82.69 121.428 82.6513 118.211 83.0403 114.728C83.4338 111.105 83.9625 107.627 84.7706 104.157C85.417 101.381 86.2075 98.4701 87.1421 95.4237C88.0767 92.3773 89.1421 89.6146 90.2032 86.9916C90.5089 86.1624 90.9542 85.3375 91.2555 84.6479C91.303 87.5854 91.3417 90.8022 90.9614 94.0058C90.7033 97.7725 90.1658 101.53 89.493 105.144C88.8202 108.758 88.0165 112.088 87.2172 115.279C86.4223 118.329 85.4965 121.097 84.4486 123.301C83.9945 124.405 83.5448 125.369 83.0994 126.194ZM53.7492 112.549C52.6318 112.514 51.6541 112.484 50.6764 112.453C49.834 112.566 48.996 112.54 48.1492 112.793C48.0096 112.788 47.8699 112.784 47.7258 112.919C43.361 113.901 39.7771 116.724 37.546 120.988C36.5068 122.913 35.7646 124.287 35.184 124.968C35.0575 124.545 34.7913 124.117 34.6692 123.554C34.0323 121.577 33.4085 119.18 33.0729 116.513C32.602 113.702 32.4148 110.761 32.5026 107.967C32.5728 105.732 32.7959 103.083 33.1586 100.438C33.5257 97.6535 34.0281 95.013 34.6658 92.5165C34.823 91.9622 34.9802 91.4079 35.1375 90.8536L35.1331 90.9933L35.2684 91.1373C36.0537 92.8397 36.8435 94.4024 37.9257 95.5549C38.9992 96.9867 40.3608 98.1479 41.7311 99.0298C43.2412 99.9161 44.8996 100.527 46.7066 100.864C48.3738 101.196 50.3292 101.257 52.433 101.044C52.852 101.057 53.4151 100.935 53.8341 100.948C53.9738 100.952 54.2575 100.822 54.3972 100.826L55.244 100.573C55.6674 100.446 56.3745 100.189 57.2257 99.7963C56.7277 102.297 56.3737 104.663 56.1551 107.172C55.9539 109.123 55.8925 111.079 55.8311 113.034C55.1415 112.733 54.4475 112.571 53.7492 112.549Z" fill="url(#paint0_radial_72_1071)"/>
<path d="M15.6072 138.331C11.9107 135.838 7.7433 130.534 5.54886 124.733C4.38399 121.76 3.51602 118.238 2.93617 114.445C2.35632 110.652 2.19986 106.732 2.32713 102.682C2.45441 98.6315 3.00508 94.4545 3.83509 90.2864C4.66949 85.9786 5.91412 81.9633 7.57337 78.1008C9.23701 74.0987 11.4462 70.5331 13.9215 67.3953C16.6849 63.9869 19.841 61.4298 23.5251 59.8678L24.3763 59.4752C25.7906 58.9604 28.3309 58.2013 30.2995 57.8438C31.9887 57.4774 33.6735 57.2508 35.3539 57.1637C37.0343 57.0767 38.7104 57.1294 40.2468 57.1777C41.9184 57.37 43.4504 57.558 44.8339 58.0209C48.2949 59.1083 50.896 60.8677 52.5018 63.1551C53.9767 65.1587 55.0195 67.5682 55.9094 70.3923C56.2889 71.6625 56.6596 73.212 57.0304 74.7616C57.4011 76.3111 57.6278 77.9959 57.8588 79.5411C58.0899 81.0862 58.1813 82.627 58.4124 84.1721C58.5037 85.7129 58.5951 87.2536 58.416 88.5063L58.394 89.2046L58.1015 89.6148C58.062 90.8719 57.7476 91.9804 57.3022 92.8053C56.2412 95.4283 53.417 96.3182 52.4306 96.5668L51.5838 96.8198C51.4441 96.8155 51.1604 96.9463 51.0207 96.942C50.5973 97.0685 50.1783 97.0553 49.6196 97.0377C47.5158 97.2512 45.5604 97.1898 43.8932 96.8578C42.0863 96.5214 40.4278 95.9101 38.9177 95.0238C37.4077 94.1375 36.1858 92.9806 35.1123 91.5488C34.1741 90.2611 33.2403 88.8336 32.455 87.1313L32.4594 86.9916C32.3021 87.5459 32.1449 88.1002 31.9877 88.6545C31.35 91.151 30.9873 93.7959 30.4805 96.5762C30.1134 99.3608 29.8947 101.87 29.8245 104.105C29.7367 106.899 29.9239 109.84 30.3948 112.651C30.726 115.458 31.3542 117.715 31.9911 119.692C32.1132 120.255 32.3794 120.683 32.5059 121.106C33.0909 120.286 33.8287 119.051 34.8679 117.126C37.099 112.862 40.5432 110.034 45.0477 109.057C45.1874 109.062 45.3271 109.066 45.4711 108.931C46.3135 108.818 47.1559 108.704 47.9983 108.591C48.9804 108.482 49.9581 108.513 51.0711 108.687C53.3014 108.897 55.0996 109.513 56.6008 110.679C58.1021 111.844 59.0315 113.411 59.6728 115.249C60.0567 116.38 60.1525 117.781 60.113 119.038C60.0822 120.015 59.9075 121.128 59.8723 122.246C59.1337 127.955 57.1644 132.786 53.9688 136.6C51.0613 140.144 47.0759 142.395 42.1524 143.359C41.4497 143.477 40.7469 143.594 40.0442 143.712C32.0479 144.579 24.7851 144.351 15.6072 138.331Z" fill="url(#paint1_radial_72_1071)"/>
<path d="M54.2688 113.682C55.0849 114.406 55.7569 115.266 56.0011 116.392C56.2542 117.239 56.3675 118.082 56.3412 118.92C56.3104 119.897 56.14 120.871 56.1093 121.848C55.3927 126.859 53.7246 131.001 51.1009 134.413C48.4815 137.687 44.649 139.523 39.7342 140.208C39.3152 140.195 39.0314 140.326 38.6124 140.312C29.7825 141.014 23.8469 138.59 22.7428 138.136C21.7738 137.826 20.674 137.232 19.7139 136.643C18.7538 136.053 17.7936 135.464 16.8423 134.595C15.8865 133.866 15.2101 133.146 14.5381 132.286L14.5337 132.426C13.3118 131.269 12.234 129.977 11.4442 128.414C10.5148 126.847 9.72945 125.144 9.08377 123.446C8.05419 120.618 7.17305 117.515 6.72409 114.005C6.00018 110.347 5.83495 106.707 5.95783 102.797C6.08072 98.8858 6.62261 94.9882 7.30856 90.9553C8.27385 86.9312 9.37004 83.1909 10.8808 79.6034C12.3916 76.0158 14.3127 72.7208 16.6396 69.858C18.9664 66.9951 21.6948 64.7041 24.9511 63.4084C25.2348 63.2775 28.4911 61.9817 30.8786 61.6373C32.4238 61.4063 33.9689 61.1752 35.37 61.0794C36.9108 60.988 38.3074 61.0319 39.7041 61.0758C41.0965 61.2594 42.3491 61.4385 43.318 61.7486C46.0851 62.6744 48.0053 63.8532 49.2097 65.5687C50.414 67.2842 51.3303 69.2703 52.0937 71.6711C52.4732 72.9413 52.8483 74.3511 53.0838 75.7566C53.4545 77.3061 53.69 78.7116 53.921 80.2567C54.1521 81.8019 54.2479 83.203 54.3437 84.6041C54.4395 86.0051 54.5396 87.2666 54.3605 88.5192C54.3561 88.6589 54.212 88.7941 54.2076 88.9338C54.1725 90.0512 54.0065 90.8848 53.7052 91.5744C53.4039 92.2639 52.5484 92.7963 51.2782 93.1758C50.9944 93.3067 50.7151 93.2979 50.4314 93.4288C50.1476 93.5597 49.7286 93.5465 49.3096 93.5334C47.3499 93.6116 45.8135 93.5633 44.4212 93.3798C43.0333 93.0565 41.785 92.7377 40.6896 92.0042C39.5898 91.4105 38.6385 90.5417 37.8312 89.5377C37.0239 88.5337 36.365 87.2547 35.7105 85.8361C35.3223 84.8452 35.0736 83.8587 34.8294 82.7326C34.5852 81.6065 34.3322 80.7597 34.0792 79.9129C33.9571 79.3498 33.6953 78.7824 33.4291 78.3546C33.1629 77.9268 32.8924 77.6387 32.4777 77.4858C31.7662 77.8829 30.8931 78.9739 30.1333 80.9074C29.3735 82.8408 28.6006 85.1932 28.0982 87.8338C27.4561 90.47 26.9493 93.2502 26.5822 96.0348C26.2107 98.9591 25.9876 101.608 25.913 103.983C25.8165 107.056 25.9993 110.137 26.4614 113.227C26.9279 116.178 27.5429 118.854 28.3151 120.975C28.8299 122.389 29.3534 123.524 30.0211 124.524C30.5534 125.379 31.2342 125.96 31.9282 126.122L32.2075 126.13C33.757 125.76 35.787 123.447 38.0269 118.903C39.6686 115.6 42.2485 113.584 45.6269 112.851C46.3296 112.733 47.172 112.62 47.8747 112.502C48.7128 112.528 49.5508 112.555 50.3888 112.581C52.2089 112.498 53.3131 112.953 54.2688 113.682Z" fill="#FF0042"/>
<path d="M85.4239 149.892C84.8653 149.874 84.4463 149.861 83.8876 149.843C82.4909 149.799 81.2382 149.62 79.8503 149.297C72.2036 147.938 66.015 144.668 61.5639 139.495C57.104 134.602 54.3992 127.247 53.2965 117.845C52.743 113.214 52.7613 108.181 53.3383 103.166C53.7801 98.0074 54.7805 92.8659 56.3395 87.742C57.7633 82.4741 59.8811 77.3678 62.2738 72.4099C64.8106 67.3167 67.7532 62.6557 71.2413 58.4313L71.2457 58.2916C72.9876 56.2492 75.144 54.3597 77.5711 52.7583C79.9981 51.1568 82.5517 49.9788 84.948 49.3551C86.7813 48.8534 88.6058 48.6311 90.7052 48.5573C92.665 48.4791 94.6159 48.6802 96.4229 49.0166C98.2298 49.353 100.032 49.829 101.547 50.5757C103.201 51.3267 104.715 52.0733 105.946 52.9508L106.086 52.9552C107.857 54.409 109.346 55.9936 110.546 57.8488C111.606 59.6996 112.522 61.6857 113.155 63.8027C113.792 65.78 114.14 68.0279 114.489 70.2758C114.698 72.5193 114.903 74.9024 114.964 77.4209C115.116 81.4801 114.966 86.2288 114.66 91.5319C114.358 96.6953 113.633 101.985 112.763 107.41C111.898 112.696 110.614 117.968 109.059 122.952C107.5 128.076 105.679 132.633 103.461 136.478C101.239 140.462 98.4798 143.731 95.4678 146.153C92.5954 148.579 89.1994 149.87 85.4239 149.892ZM88.43 80.9212C88.1287 81.6107 87.6834 82.4356 87.3777 83.2648C86.321 85.7482 85.2512 88.6505 84.3166 91.6969C83.382 94.7433 82.5915 97.6544 81.9451 100.43C81.1414 103.76 80.6083 107.379 80.2148 111.001C79.8258 114.484 79.8645 117.701 80.0561 120.503C80.1738 121.206 80.1518 121.904 80.2739 122.467C80.7193 121.642 81.169 120.678 81.6275 119.434C82.5358 117.226 83.4572 114.598 84.3961 111.412C85.3351 108.226 85.9991 104.892 86.6719 101.278C87.3447 97.664 87.7425 93.9017 88.1403 90.1394C88.5162 87.0754 88.6172 83.863 88.43 80.9212Z" fill="url(#paint2_radial_72_1071)"/>
<path d="M107.542 59.9909C108.476 61.4183 109.122 63.1163 109.623 64.9495C110.125 66.7828 110.483 68.7513 110.836 70.8595C111.049 72.9633 111.258 75.2068 111.319 77.7253C111.471 81.7845 111.326 86.3936 111.029 91.4173C110.731 96.441 110.005 101.731 109.145 106.877C108.284 112.023 107.004 117.155 105.594 122.004C104.183 126.853 102.371 131.13 100.301 134.7C98.2319 138.27 95.9051 141.133 93.1855 143.145C90.4659 145.156 87.5022 146.042 84.0104 145.932C82.8931 145.897 81.7801 145.722 80.5318 145.403L80.6715 145.408C73.7188 144.211 68.2153 141.381 64.3054 136.785C60.391 132.328 57.9348 125.959 56.9498 117.26C56.5316 112.773 56.5368 108.16 56.9697 103.28C57.4026 98.4003 58.3987 93.3986 59.8093 88.5496C61.2243 83.561 63.1936 78.7296 65.5819 73.9114C67.9703 69.0932 70.7644 64.7071 74.1085 60.618C75.7019 58.8506 77.5703 57.2316 79.7136 55.761C81.8569 54.2905 83.9827 53.3786 85.9556 52.8814C87.5052 52.5107 89.0503 52.2796 90.8704 52.197C92.5508 52.11 94.2225 52.3023 95.75 52.6299C97.2776 52.9576 98.8008 53.4248 100.184 53.8877C101.564 54.4903 102.803 55.0885 103.759 55.8176C105.391 57.2669 106.608 58.5634 107.542 59.9909ZM90.3869 72.0345C89.5445 72.1478 88.5317 73.2345 87.3572 75.015C86.1828 76.7956 85.1305 79.1393 83.9298 81.7579C82.8687 84.3809 81.7989 87.2833 80.7202 90.465C79.7813 93.651 78.9908 96.5621 78.2003 99.4733C77.3878 103.083 76.8547 106.701 76.4569 110.463C76.059 114.226 76.0934 117.582 76.2762 120.664C76.4853 122.907 76.8472 124.736 77.218 126.285C77.7284 127.839 78.4048 128.56 79.2472 128.446C80.0852 128.473 80.9452 127.801 81.9667 126.435C82.9883 125.069 83.8878 123.14 84.9401 120.796C85.9924 118.452 86.9181 115.685 87.8615 112.36C88.8048 109.034 89.6129 105.564 90.2857 101.95C90.9629 98.1966 91.5004 94.4387 91.7673 90.3926C92.0343 86.3466 92.1528 82.5755 91.9919 78.7957C91.9137 76.8359 91.687 75.1511 91.4472 73.8853C91.3426 72.7636 90.9412 72.1917 90.3869 72.0345Z" fill="#FF0042"/>
<path d="M123.909 153.199C121.011 151.99 118.947 150.946 114.622 146.197C109.892 141.015 105.377 128.99 104.615 117.641C104.232 112.037 104.276 106.166 104.893 99.8945C105.505 93.7622 106.545 87.3637 108.135 81.2621C109.729 75.0209 111.742 68.7928 114.309 62.7219C116.877 56.6511 119.994 50.8771 123.369 45.8103L123.373 45.6706C125.128 43.2092 127.298 40.9007 129.734 39.0199C132.174 36.9995 134.737 35.5421 137.277 34.7831C138.971 34.277 140.66 33.9107 142.48 33.8281C142.619 33.8325 142.899 33.8413 143.038 33.8456C144.998 33.7674 147.089 33.9729 148.891 34.449C150.694 34.925 152.492 35.5408 154.146 36.2918C155.796 37.1825 157.306 38.0688 158.532 39.0859L158.668 39.23C160.435 40.8234 161.91 42.8271 162.961 44.9572C164.017 46.9477 164.781 49.3484 165.265 51.7404C165.749 54.1323 166.229 56.6639 166.42 59.4661C166.616 62.1286 166.808 64.9308 166.851 68.0079C166.977 72.9051 166.797 78.6316 166.32 84.9079C165.847 91.0446 165.087 97.4519 164.186 103.855C163.147 110.253 161.832 116.503 160.382 122.609C158.792 128.711 156.945 134.105 154.7 138.788C152.452 143.611 149.675 147.438 146.645 150.419C137.858 158.671 125.428 153.806 123.909 153.199ZM140.3 72.0669C139.994 72.8961 139.688 73.7253 139.378 74.6942C138.3 77.8759 137.212 81.337 136.116 85.0773C135.159 88.8221 134.207 92.4271 133.543 95.7617C132.713 99.9298 132.014 104.382 131.599 108.703C131.183 113.024 131.056 117.074 131.226 120.575C131.199 121.413 131.317 122.115 131.435 122.818C131.885 121.854 132.343 120.61 132.802 119.366C133.867 116.603 134.81 113.277 135.767 109.533C136.728 105.648 137.558 101.48 138.253 97.1679C138.952 92.716 139.516 88.1201 139.94 83.5198C140.207 79.4737 140.325 75.7027 140.3 72.0669Z" fill="url(#paint3_radial_72_1071)"/>
<path d="M159.549 46.6701C160.469 48.5165 161.106 50.4938 161.599 52.6064C162.087 54.8587 162.432 57.2462 162.632 59.7691C162.832 62.2919 163.024 65.0941 163.072 68.0315C163.197 72.9287 163.026 78.3759 162.554 84.5125C162.081 90.6492 161.465 96.9212 160.429 103.18C159.394 109.439 158.223 115.554 156.638 121.515C155.056 127.338 153.353 132.597 151.258 137.005C149.162 141.413 146.817 144.834 144.076 147.544C141.339 150.115 138.366 151.28 134.874 151.17C133.757 151.135 132.644 150.96 131.391 150.781L131.531 150.785C124.578 149.588 119.228 146.344 115.344 140.909C111.456 135.614 109.183 127.854 108.395 117.343C108.008 111.879 108.044 106.287 108.651 100.295C109.259 94.3021 110.29 88.183 111.736 82.2167C113.326 76.1151 115.334 70.0267 117.754 64.2308C120.317 58.2996 123.142 52.9359 126.512 48.0087C128.118 45.8223 130 43.7843 132.148 42.1741C134.3 40.4242 136.434 39.233 138.412 38.5961C139.966 38.0857 141.511 37.8546 143.191 37.7676C144.872 37.6806 146.543 37.873 148.071 38.2006C149.598 38.5282 151.117 39.1352 152.496 39.7377C153.871 40.48 154.967 41.2134 155.922 41.9425C157.554 43.3918 158.624 44.9633 159.549 46.6701ZM142.31 61.3674C141.463 61.6204 140.446 62.8467 139.258 65.0463C138.071 67.2459 137.005 70.0086 135.783 73.3256C134.56 76.6425 133.472 80.1036 132.512 83.988C131.411 87.868 130.599 91.4775 129.93 94.9517C129.096 99.2595 128.397 103.711 127.972 108.312C127.548 112.912 127.421 116.962 127.582 120.742C127.778 123.405 127.987 125.648 128.489 127.482C128.99 129.315 129.662 130.175 130.505 130.061C131.343 130.088 132.211 129.136 133.242 127.491C134.272 125.846 135.324 123.502 136.394 120.6C137.464 117.697 138.412 114.232 139.373 110.348C140.338 106.323 141.168 102.155 141.867 97.7035C142.566 93.2516 143.134 88.516 143.563 83.776C143.996 78.8963 144.141 74.2872 144.002 69.809C143.941 67.2906 143.723 65.3265 143.488 63.921C143.257 62.3758 142.864 61.5246 142.31 61.3674Z" fill="#FF0042"/>
<path d="M157.732 153.705C157.06 152.845 156.671 151.854 156.283 150.863C155.751 150.007 155.227 148.873 154.708 147.598L154.054 146.179L153.53 145.044C153.133 144.333 152.876 143.626 152.623 142.779C152.623 142.779 151.994 140.522 151.872 139.959C151.51 138.13 151.297 136.027 151.507 133.796C151.529 133.098 151.69 132.404 151.712 131.706C151.874 131.012 151.891 130.453 152.197 129.624C152.874 125.87 153.709 121.562 154.696 116.84C155.688 111.978 156.828 106.841 158.12 101.289C159.418 95.5977 160.855 89.9108 162.296 84.0841C163.742 78.1179 165.327 72.1559 166.769 66.3293C168.354 60.3674 169.931 54.6848 171.354 49.4169C172.922 44.0137 174.337 39.0251 175.735 34.5951L175.739 34.4554C177.735 28.786 180.35 25.6526 183.733 24.7803C184.719 24.5317 185.701 24.4227 186.679 24.4534C187.936 24.4929 189.189 24.6721 190.572 25.135C192.785 25.9036 194.705 27.0824 196.621 28.4008C200.448 31.1774 204.686 34.2466 202.27 44.3766C200.982 49.7886 198.078 57.6664 196.2 64.0385C194.327 70.271 192.44 76.9225 190.549 83.7136C188.662 90.3651 186.911 97.1607 185.011 104.231C183.749 108.805 182.622 113.523 181.36 118.097C183.616 117.469 186.139 117.269 188.797 117.212L188.937 117.217C191.311 117.291 193.376 118.335 194.715 120.195C195.789 121.626 196.561 123.748 197.167 126.703L197.285 127.405C197.398 128.248 197.651 129.095 197.764 129.937C197.764 129.937 198.387 141.281 197.84 145.318C197.652 146.85 196.749 148.919 195.88 149.87C195.011 150.822 193.863 151.764 192.305 152.414C189.332 153.579 183.828 155.224 180.166 156.087C176.927 156.824 173.824 157.706 170.86 158.591C169.725 159.115 168.599 159.359 167.477 159.463C166.918 159.446 166.355 159.568 165.936 159.555C165.517 159.542 165.238 159.533 164.959 159.524C164.679 159.515 164.4 159.507 164.265 159.362C161.773 158.585 161.079 158.424 157.732 153.705Z" fill="url(#paint4_radial_72_1071)"/>
<path d="M189.883 149.262C186.623 150.697 182.969 151.281 179.447 152.149C175.924 153.017 172.542 153.89 169.434 154.911C169.434 154.911 168.02 155.425 167.317 155.543C166.614 155.661 166.055 155.643 165.501 155.486C164.388 155.311 163.424 154.861 162.743 154.281C162.066 153.561 160.997 151.989 160.997 151.989C160.469 150.994 160.077 150.143 159.544 149.287C159.152 148.436 158.105 146.166 158.105 146.166L156.791 143.468C156.132 142.189 155.618 140.775 155.382 139.37C155.007 137.96 154.924 136.14 155.126 134.189C155.143 133.63 155.305 132.936 155.322 132.377C155.484 131.684 155.506 130.985 155.811 130.156L155.663 130.431C156.336 126.817 157.17 122.509 158.157 117.787C159.149 112.925 160.289 107.788 161.578 102.376C162.871 96.8239 164.308 91.137 165.753 85.1707C167.199 79.2044 168.784 73.2425 170.226 67.4158C171.807 61.5936 173.244 55.9067 174.812 50.5034C176.379 45.1002 177.794 40.1116 179.052 35.6773C180.585 31.3914 182.34 28.93 184.453 28.4372C185.863 28.062 187.394 28.25 189.197 28.726C190.995 29.3418 192.505 30.2281 194.006 31.3937C195.508 32.5593 196.721 33.9955 197.65 35.5626C198.58 37.1297 198.946 38.8189 198.893 40.4949C198.871 41.1933 198.705 42.0269 198.544 42.7209C198.382 43.4148 198.072 44.3837 197.618 45.4879L197.762 45.3527C196.055 50.7515 194.334 56.5693 192.456 62.9415C190.578 69.3136 188.696 75.8254 186.8 82.7563C184.909 89.5474 183.018 96.3386 181.262 103.274C179.367 110.205 177.624 116.721 176.021 123.241C178.134 122.749 180.107 122.251 182.084 121.614C184.057 121.117 186.305 120.768 188.54 120.839C189.936 120.882 190.901 121.332 191.568 122.332C192.236 123.331 192.886 124.89 193.231 127.277L193.235 127.138C193.854 129.674 194.186 132.48 194.368 135.562C194.547 138.783 194.468 141.297 194.258 143.527C194.065 145.199 193.747 146.447 193.022 147.263C192.585 147.809 190.735 148.869 189.883 149.262Z" fill="#FF0042"/>
<path d="M203.277 172.333C202.858 172.319 202.579 172.311 202.16 172.298L202.02 172.293C197.978 171.887 194.548 169.821 192.144 166.251C189.87 162.964 189.033 158.464 189.763 153.034C189.785 152.336 189.942 151.781 190.099 151.227C190.252 150.812 190.265 150.393 190.418 149.979L190.422 149.839C190.907 147.757 191.671 145.684 192.571 143.755C193.614 141.691 194.793 139.771 196.238 138.278C197.688 136.646 199.403 135.442 201.254 134.381C202.677 133.587 204.087 133.212 205.632 132.981C204.676 132.252 203.869 131.248 202.922 130.239C201.578 128.519 200.382 126.525 199.615 124.264C198.711 121.858 198.511 119.336 198.734 116.686C198.918 115.294 199.254 113.487 199.892 110.991C201.346 104.745 203.111 97.5304 205.033 89.7616C207.099 81.8574 209.178 73.5343 211.396 65.2156C213.619 56.7572 215.978 48.4428 218.183 40.5431C220.393 32.5037 222.577 25.3023 224.45 19.0698C225.385 16.0234 226.298 13.6754 227.328 12.0301C228.952 9.28494 231.087 8.09375 232.636 7.72301C233.343 7.46562 234.186 7.35228 234.884 7.37422C236.56 7.42689 238.493 8.18668 238.493 8.18668C242.919 9.72381 245.9 12.7534 245.9 12.7534C246.716 13.4781 247.663 14.4865 248.339 15.2068C249.679 17.0664 252.759 21.3574 249.165 33.4078C246.82 41.3031 244.187 49.469 241.549 57.7746C239.055 65.9449 236.562 74.1152 234.072 82.1458C231.723 90.1808 229.382 97.9365 227.19 105.417C225.002 112.758 223.102 119.829 221.355 126.485C220.564 129.396 219.8 131.469 218.918 132.839C218.036 134.21 217.032 135.017 216.041 135.405C217.678 136.715 219.022 138.435 219.938 140.421C220.854 142.407 221.487 144.524 221.692 146.907C221.905 149.011 221.839 151.106 221.503 152.913C221.341 153.607 221.167 154.72 220.101 157.482C219.333 159.695 218.289 161.76 216.822 163.95C215.351 166.281 213.474 168.179 211.186 169.785C208.895 171.531 206.21 172.425 203.277 172.333Z" fill="url(#paint5_radial_72_1071)"/>
<path d="M194.038 150.51C194.514 148.707 195.129 146.909 196.02 145.259C196.915 143.47 197.941 141.964 199.098 140.742C200.259 139.381 201.687 138.447 203.11 137.653C204.533 136.859 206.222 136.492 207.898 136.545C210.133 136.615 211.931 137.231 213.297 138.253C214.663 139.274 215.736 140.706 216.526 142.269C217.316 143.831 217.822 145.525 217.9 147.485C218.122 149.309 218.07 150.985 217.738 152.653C217.576 153.346 217.257 154.595 216.637 156.533C216.017 158.47 214.982 160.255 213.803 162.176C212.624 164.096 211.035 165.724 209.036 167.059C207.177 168.399 204.92 169.027 202.415 168.668L202.275 168.664C199.211 168.288 196.881 166.817 195.144 164.246C193.407 161.675 192.818 158.161 193.382 153.565C193.4 153.006 193.557 152.452 193.57 152.033C193.728 151.479 193.88 151.064 194.038 150.51ZM247.016 26.2078C246.85 27.0414 246.679 28.0147 246.369 28.9836C246.059 29.9525 245.745 31.0611 245.422 32.449L245.566 32.3138C243.081 40.2047 240.587 48.375 237.949 56.6806C235.456 64.8509 232.962 73.0212 230.469 81.1914C228.119 89.2264 225.778 96.9821 223.586 104.463C221.393 111.944 219.494 119.014 217.611 125.526L217.616 125.386C216.974 128.022 216.358 129.821 215.624 130.916C214.891 132.011 214.035 132.544 213.197 132.517C212.08 132.482 210.836 132.024 209.466 131.142C208.095 130.26 206.869 129.243 205.796 127.811C204.722 126.379 203.793 124.812 203.151 122.974C202.51 121.137 202.292 119.173 202.498 117.082C202.677 115.829 203.009 114.162 203.498 111.94C204.953 105.695 206.573 98.6156 208.639 90.7115C210.705 82.8073 212.78 74.6239 215.003 66.1655C217.226 57.7071 219.44 49.528 221.79 41.493C224 33.4536 226.043 26.2478 227.913 20.155C228.699 17.3836 229.603 15.3149 230.345 13.9401C231.227 12.5697 232.235 11.6228 233.501 11.3829C234.487 11.1343 235.325 11.1607 236.29 11.6104C236.29 11.6104 239.048 12.8155 240.838 13.7106C242.483 14.7409 243.845 15.9022 245.053 17.478C246.943 19.6345 247.545 22.7292 247.016 26.2078Z" fill="#FF0042"/>
<defs>
<radialGradient id="paint0_radial_72_1071" cx="0" cy="0" r="1" gradientUnits="userSpaceOnUse" gradientTransform="translate(127.483 90.6604) rotate(1.79977) scale(104.321)">
<stop offset="0.5744" stop-color="#130C0E"/>
<stop offset="0.7977" stop-color="#130C0E"/>
<stop offset="1" stop-color="#130C0E"/>
</radialGradient>
<radialGradient id="paint1_radial_72_1071" cx="0" cy="0" r="1" gradientUnits="userSpaceOnUse" gradientTransform="translate(31.4421 100.444) rotate(1.79977) scale(37.0469)">
<stop offset="0.5744" stop-color="#130C0E"/>
<stop offset="0.7977" stop-color="#130C0E"/>
<stop offset="1" stop-color="#130C0E"/>
</radialGradient>
<radialGradient id="paint2_radial_72_1071" cx="0" cy="0" r="1" gradientUnits="userSpaceOnUse" gradientTransform="translate(84.0094 99.1938) rotate(1.79977) scale(41.8507)">
<stop offset="0.5744" stop-color="#130C0E"/>
<stop offset="0.7977" stop-color="#130C0E"/>
<stop offset="1" stop-color="#130C0E"/>
</radialGradient>
<radialGradient id="paint3_radial_72_1071" cx="0" cy="0" r="1" gradientUnits="userSpaceOnUse" gradientTransform="translate(135.467 94.4451) rotate(1.79977) scale(48.1156)">
<stop offset="0.5744" stop-color="#130C0E"/>
<stop offset="0.7977" stop-color="#130C0E"/>
<stop offset="1" stop-color="#130C0E"/>
</radialGradient>
<radialGradient id="paint4_radial_72_1071" cx="0" cy="0" r="1" gradientUnits="userSpaceOnUse" gradientTransform="translate(176.977 91.8187) rotate(1.79977) scale(50.9265)">
<stop offset="0.5744" stop-color="#130C0E"/>
<stop offset="0.7977" stop-color="#130C0E"/>
<stop offset="1" stop-color="#130C0E"/>
</radialGradient>
<radialGradient id="paint5_radial_72_1071" cx="0" cy="0" r="1" gradientUnits="userSpaceOnUse" gradientTransform="translate(220.197 89.8371) rotate(1.79977) scale(62.0508)">
<stop offset="0.5744" stop-color="#130C0E"/>
<stop offset="0.7977" stop-color="#130C0E"/>
<stop offset="1" stop-color="#130C0E"/>
</radialGradient>
</defs>
</svg>
