<svg width="1080" height="424" viewBox="0 0 1080 424" fill="none" xmlns="http://www.w3.org/2000/svg">
<mask id="mask0_113_5294" style="mask-type:alpha" maskUnits="userSpaceOnUse" x="-120" y="0" width="1200" height="1331">
<g clip-path="url(#clip0_113_5294)">
<path d="M35.4091 50.2671L35.4091 51.8885C35.4091 52.2939 35.0043 52.6992 34.5996 52.6992C34.1949 52.6992 33.7902 52.2939 33.7902 51.8885L33.7902 50.2671C33.7902 49.8617 34.1949 49.4563 34.5996 49.4563C35.0043 49.4563 35.4091 49.8617 35.4091 50.2671Z" fill="black"/>
<path d="M36.2214 100.534L36.2214 102.156C36.2214 102.967 35.412 103.777 34.6025 103.777C33.7931 103.777 32.9836 102.967 32.9836 102.156L32.9836 100.534C32.9836 99.7236 33.7931 98.9128 34.6025 98.9128C35.412 98.9128 36.2214 99.7236 36.2214 100.534Z" fill="black"/>
<path d="M37.0339 150.799L37.0339 152.42C37.0339 153.636 35.8197 154.853 34.6056 154.853C33.3914 154.853 32.1772 153.636 32.1772 152.42L32.1772 150.799C32.1772 149.582 33.3914 148.366 34.6056 148.366C35.8197 148.366 37.0339 149.582 37.0339 150.799Z" fill="black"/>
<path d="M37.8381 201.066L37.8381 202.688C37.8381 204.714 36.2192 205.931 34.1956 205.931C32.172 205.931 30.5531 204.309 30.5531 202.688L30.9578 201.066C30.9578 199.039 32.5767 197.823 34.6003 197.823C36.2192 197.823 37.8381 199.039 37.8381 201.066Z" fill="black"/>
<path d="M38.6475 251.333L38.6475 252.954C38.6475 255.387 37.0287 257.008 34.6003 257.008C32.172 257.008 30.5531 255.387 30.5531 252.954L30.5531 251.333C30.5531 248.901 32.5767 247.279 34.6003 247.279C36.6239 247.279 38.6475 248.901 38.6475 251.333Z" fill="black"/>
<path d="M39.4641 301.604L39.4641 303.226C39.4641 306.063 37.8452 308.09 35.0122 308.496C32.1791 308.496 30.5602 306.469 30.5602 303.631L30.1555 302.009C30.1555 299.172 32.1791 297.145 35.0122 297.145C37.4405 296.739 39.4641 298.766 39.4641 301.604Z" fill="black"/>
<path d="M40.2695 351.868L40.2695 353.49C40.2695 356.733 38.6506 359.571 35.4128 359.571C32.175 359.571 30.5562 357.139 30.5562 353.895L29.7467 352.274C29.7467 349.031 32.175 346.598 35.0081 346.598C38.2459 346.193 40.2695 348.625 40.2695 351.868Z" fill="black"/>
<path d="M41.074 402.136L41.074 403.757C41.074 407.406 37.4315 410.649 33.789 410.649C30.1465 410.649 26.504 407.811 26.504 404.163C26.504 404.163 26.504 404.163 26.504 403.757L27.3135 402.136C27.3135 398.487 30.5512 395.65 34.5985 395.65C37.8362 395.65 41.074 398.487 41.074 402.136Z" fill="black"/>
<path d="M79.9314 50.267L79.9314 51.8885C79.9314 52.2939 79.5267 52.6992 79.1219 52.6992C78.7172 52.6992 78.3125 52.2939 78.3125 51.8885L78.3125 50.267C78.3125 49.8616 78.7172 49.4562 79.1219 49.4562C79.5267 49.4562 79.9314 49.8616 79.9314 50.267Z" fill="black"/>
<path d="M80.7438 100.534L80.7438 102.156C80.7438 102.967 79.9343 103.777 79.1249 103.777C78.3154 103.777 77.506 102.967 77.506 102.156L77.506 100.534C77.506 99.7236 78.3154 98.9128 79.1249 98.9128C79.9343 98.9128 80.7438 99.7236 80.7438 100.534Z" fill="black"/>
<path d="M81.5562 150.799L81.5562 152.42C81.5562 153.636 80.3421 154.853 79.1279 154.853C77.9138 154.853 76.6996 153.636 76.6996 152.42L76.6996 150.799C76.6996 149.582 77.9138 148.366 79.1279 148.366C80.3421 148.366 81.5562 149.582 81.5562 150.799Z" fill="black"/>
<path d="M82.3605 201.066L82.3605 202.688C82.3605 204.714 80.7416 205.931 78.7179 205.931C76.6943 205.931 75.0754 204.309 75.0754 202.688L75.4802 201.066C75.4802 199.039 77.0991 197.823 79.1227 197.823C80.7416 197.823 82.3605 199.039 82.3605 201.066Z" fill="black"/>
<path d="M83.1699 251.333L83.1699 252.954C83.1699 255.387 81.551 257.008 79.1227 257.008C76.6943 257.008 75.0754 255.387 75.0754 252.954L75.0754 251.333C75.0754 248.901 77.0991 247.279 79.1227 247.279C81.1463 247.279 83.1699 248.901 83.1699 251.333Z" fill="black"/>
<path d="M83.9865 301.604L83.9865 303.226C83.9865 306.063 82.3676 308.09 79.5345 308.496C76.7015 308.496 75.0826 306.469 75.0826 303.631L74.6779 302.009C74.6779 299.172 76.7015 297.145 79.5345 297.145C81.9629 296.739 83.9865 298.766 83.9865 301.604Z" fill="black"/>
<path d="M84.7918 351.868L84.7918 353.49C84.7918 356.733 83.1729 359.571 79.9352 359.571C76.6974 359.571 75.0785 357.139 75.0785 353.895L74.269 352.274C74.269 349.031 76.6974 346.598 79.5304 346.598C82.7682 346.193 84.7918 348.625 84.7918 351.868Z" fill="black"/>
<path d="M85.5964 402.136L85.5964 403.757C85.5964 407.406 81.9539 410.649 78.3114 410.649C74.6689 410.649 71.0264 407.811 71.0264 404.163C71.0264 404.163 71.0264 404.163 71.0264 403.757L71.8358 402.136C71.8358 398.487 75.0736 395.65 79.1208 395.65C82.3586 395.65 85.5964 398.487 85.5964 402.136Z" fill="black"/>
<path d="M124.45 50.267L124.45 51.8885C124.45 52.2939 124.045 52.6992 123.641 52.6992C123.236 52.6992 122.831 52.2939 122.831 51.8885L122.831 50.267C122.831 49.8616 123.236 49.4562 123.641 49.4562C124.045 49.4562 124.45 49.8616 124.45 50.267Z" fill="black"/>
<path d="M125.263 100.534L125.263 102.156C125.263 102.967 124.453 103.777 123.644 103.777C122.834 103.777 122.025 102.967 122.025 102.156L122.025 100.534C122.025 99.7236 122.834 98.9128 123.644 98.9128C124.453 98.9128 125.263 99.7236 125.263 100.534Z" fill="black"/>
<path d="M126.075 150.799L126.075 152.42C126.075 153.636 124.861 154.853 123.647 154.853C122.433 154.853 121.218 153.636 121.218 152.42L121.218 150.799C121.218 149.582 122.433 148.366 123.647 148.366C124.861 148.366 126.075 149.582 126.075 150.799Z" fill="black"/>
<path d="M126.879 201.066L126.879 202.688C126.879 204.714 125.26 205.931 123.237 205.931C121.213 205.931 119.594 204.309 119.594 202.688L119.999 201.066C119.999 199.039 121.618 197.823 123.641 197.823C125.26 197.823 126.879 199.039 126.879 201.066Z" fill="black"/>
<path d="M127.689 251.333L127.689 252.955C127.689 255.387 126.07 257.009 123.641 257.009C121.213 257.009 119.594 255.387 119.594 252.955L119.594 251.333C119.594 248.901 121.618 247.279 123.641 247.279C125.665 247.279 127.689 248.901 127.689 251.333Z" fill="black"/>
<path d="M128.505 301.604L128.505 303.226C128.505 306.063 126.886 308.09 124.053 308.496C121.22 308.496 119.601 306.469 119.601 303.631L119.197 302.009C119.197 299.172 121.22 297.145 124.053 297.145C126.482 296.739 128.505 298.766 128.505 301.604Z" fill="black"/>
<path d="M129.311 351.868L129.311 353.49C129.311 356.733 127.692 359.571 124.454 359.571C121.216 359.571 119.597 357.139 119.597 353.895L118.788 352.274C118.788 349.031 121.216 346.598 124.049 346.598C127.287 346.193 129.311 348.625 129.311 351.868Z" fill="black"/>
<path d="M130.115 402.136L130.115 403.757C130.115 407.406 126.473 410.649 122.83 410.649C119.188 410.649 115.545 407.811 115.545 404.163C115.545 404.163 115.545 404.163 115.545 403.757L116.355 402.136C116.355 398.487 119.592 395.65 123.64 395.65C126.877 395.65 130.115 398.487 130.115 402.136Z" fill="black"/>
<path d="M168.969 50.267L168.969 51.8885C168.969 52.2939 168.564 52.6992 168.16 52.6992C167.755 52.6992 167.35 52.2939 167.35 51.8885L167.35 50.267C167.35 49.8616 167.755 49.4562 168.16 49.4562C168.564 49.4562 168.969 49.8616 168.969 50.267Z" fill="black"/>
<path d="M169.781 100.534L169.781 102.156C169.781 102.967 168.972 103.777 168.163 103.777C167.353 103.777 166.544 102.967 166.544 102.156L166.544 100.534C166.544 99.7236 167.353 98.9128 168.163 98.9128C168.972 98.9128 169.781 99.7236 169.781 100.534Z" fill="black"/>
<path d="M170.594 150.799L170.594 152.42C170.594 153.636 169.38 154.853 168.166 154.853C166.951 154.853 165.737 153.636 165.737 152.42L165.737 150.799C165.737 149.582 166.951 148.366 168.166 148.366C169.38 148.366 170.594 149.582 170.594 150.799Z" fill="black"/>
<path d="M171.398 201.066L171.398 202.688C171.398 204.714 169.779 205.931 167.756 205.931C165.732 205.931 164.113 204.309 164.113 202.688L164.518 201.066C164.518 199.039 166.137 197.823 168.16 197.823C169.779 197.823 171.398 199.039 171.398 201.066Z" fill="black"/>
<path d="M172.208 251.333L172.208 252.954C172.208 255.387 170.589 257.008 168.16 257.008C165.732 257.008 164.113 255.387 164.113 252.954L164.113 251.333C164.113 248.901 166.137 247.279 168.16 247.279C170.184 247.279 172.208 248.901 172.208 251.333Z" fill="black"/>
<path d="M173.024 301.604L173.024 303.226C173.024 306.063 171.405 308.09 168.572 308.496C165.739 308.496 164.12 306.469 164.12 303.631L163.716 302.009C163.716 299.172 165.739 297.145 168.572 297.145C171.001 296.739 173.024 298.766 173.024 301.604Z" fill="black"/>
<path d="M173.829 351.869L173.829 353.49C173.829 356.733 172.211 359.571 168.973 359.571C165.735 359.571 164.116 357.139 164.116 353.895L163.307 352.274C163.307 349.031 165.735 346.599 168.568 346.599C171.806 346.193 173.829 348.626 173.829 351.869Z" fill="black"/>
<path d="M174.634 402.136L174.634 403.757C174.634 407.406 170.992 410.649 167.349 410.649C163.707 410.649 160.064 407.811 160.064 404.163C160.064 404.163 160.064 404.163 160.064 403.757L160.874 402.136C160.874 398.487 164.111 395.65 168.159 395.65C171.396 395.65 174.634 398.487 174.634 402.136Z" fill="black"/>
<path d="M213.491 50.267L213.491 51.8885C213.491 52.2939 213.087 52.6992 212.682 52.6992C212.277 52.6992 211.872 52.2939 211.872 51.8885L211.872 50.267C211.872 49.8616 212.277 49.4562 212.682 49.4562C213.087 49.4562 213.491 49.8616 213.491 50.267Z" fill="black"/>
<path d="M214.304 100.534L214.304 102.156C214.304 102.967 213.494 103.777 212.685 103.777C211.875 103.777 211.066 102.967 211.066 102.156L211.066 100.534C211.066 99.7236 211.875 98.9128 212.685 98.9128C213.494 98.9128 214.304 99.7236 214.304 100.534Z" fill="black"/>
<path d="M215.116 150.799L215.116 152.42C215.116 153.636 213.902 154.853 212.688 154.853C211.474 154.853 210.26 153.636 210.26 152.42L210.26 150.799C210.26 149.582 211.474 148.366 212.688 148.366C213.902 148.366 215.116 149.582 215.116 150.799Z" fill="black"/>
<path d="M215.921 201.066L215.921 202.688C215.921 204.714 214.302 205.931 212.278 205.931C210.254 205.931 208.635 204.309 208.635 202.688L209.04 201.066C209.04 199.039 210.659 197.823 212.683 197.823C214.302 197.823 215.921 199.039 215.921 201.066Z" fill="black"/>
<path d="M216.73 251.333L216.73 252.955C216.73 255.387 215.111 257.009 212.683 257.009C210.254 257.009 208.635 255.387 208.635 252.955L208.635 251.333C208.635 248.901 210.659 247.28 212.683 247.28C214.706 247.28 216.73 248.901 216.73 251.333Z" fill="black"/>
<path d="M217.546 301.604L217.546 303.226C217.546 306.063 215.928 308.09 213.094 308.496C210.261 308.496 208.643 306.469 208.643 303.631L208.238 302.009C208.238 299.172 210.261 297.145 213.094 297.145C215.523 296.739 217.546 298.766 217.546 301.604Z" fill="black"/>
<path d="M218.352 351.869L218.352 353.49C218.352 356.733 216.733 359.571 213.495 359.571C210.257 359.571 208.638 357.139 208.638 353.895L207.829 352.274C207.829 349.031 210.257 346.599 213.09 346.599C216.328 346.193 218.352 348.626 218.352 351.869Z" fill="black"/>
<path d="M219.156 402.136L219.156 403.757C219.156 407.406 215.514 410.649 211.871 410.649C208.229 410.649 204.586 407.811 204.586 404.163C204.586 404.163 204.586 404.163 204.586 403.757L205.396 402.136C205.396 398.487 208.634 395.65 212.681 395.65C215.919 395.65 219.156 398.487 219.156 402.136Z" fill="black"/>
<path d="M258.006 50.267L258.006 51.8885C258.006 52.2939 257.602 52.6992 257.197 52.6992C256.792 52.6992 256.387 52.2939 256.387 51.8885L256.387 50.267C256.387 49.8616 256.792 49.4562 257.197 49.4562C257.602 49.4562 258.006 49.8616 258.006 50.267Z" fill="black"/>
<path d="M258.819 100.534L258.819 102.156C258.819 102.967 258.009 103.777 257.2 103.777C256.39 103.777 255.581 102.967 255.581 102.156L255.581 100.534C255.581 99.7236 256.39 98.9128 257.2 98.9128C258.009 98.9128 258.819 99.7236 258.819 100.534Z" fill="black"/>
<path d="M259.631 150.799L259.631 152.42C259.631 153.636 258.417 154.853 257.203 154.853C255.989 154.853 254.775 153.636 254.775 152.42L254.775 150.799C254.775 149.582 255.989 148.366 257.203 148.366C258.417 148.366 259.631 149.582 259.631 150.799Z" fill="black"/>
<path d="M260.435 201.066L260.435 202.688C260.435 204.714 258.817 205.931 256.793 205.931C254.769 205.931 253.15 204.309 253.15 202.688L253.555 201.066C253.555 199.039 255.174 197.823 257.198 197.823C258.817 197.823 260.435 199.039 260.435 201.066Z" fill="black"/>
<path d="M261.245 251.333L261.245 252.954C261.245 255.387 259.626 257.008 257.198 257.008C254.769 257.008 253.15 255.387 253.15 252.954L253.15 251.333C253.15 248.901 255.174 247.279 257.198 247.279C259.221 247.279 261.245 248.901 261.245 251.333Z" fill="black"/>
<path d="M262.061 301.604L262.061 303.226C262.061 306.063 260.443 308.09 257.61 308.496C254.776 308.496 253.158 306.469 253.158 303.631L252.753 302.009C252.753 299.172 254.776 297.145 257.61 297.145C260.038 296.739 262.061 298.766 262.061 301.604Z" fill="black"/>
<path d="M262.867 351.869L262.867 353.49C262.867 356.733 261.248 359.571 258.01 359.571C254.772 359.571 253.153 357.139 253.153 353.895L252.344 352.274C252.344 349.031 254.772 346.599 257.605 346.599C260.843 346.193 262.867 348.626 262.867 351.869Z" fill="black"/>
<path d="M263.671 402.136L263.671 403.757C263.671 407.406 260.029 410.649 256.386 410.649C252.744 410.649 249.101 407.811 249.101 404.163C249.101 404.163 249.101 404.163 249.101 403.757L249.911 402.136C249.911 398.487 253.149 395.65 257.196 395.65C260.433 395.65 263.671 398.487 263.671 402.136Z" fill="black"/>
<path d="M302.525 50.267L302.525 51.8885C302.525 52.2939 302.12 52.6992 301.716 52.6992C301.311 52.6992 300.906 52.2939 300.906 51.8885L300.906 50.267C300.906 49.8616 301.311 49.4562 301.716 49.4562C302.12 49.4562 302.525 49.8616 302.525 50.267Z" fill="black"/>
<path d="M303.338 100.534L303.338 102.156C303.338 102.967 302.528 103.777 301.719 103.777C300.909 103.777 300.1 102.967 300.1 102.156L300.1 100.534C300.1 99.7236 300.909 98.9128 301.719 98.9128C302.528 98.9128 303.338 99.7236 303.338 100.534Z" fill="black"/>
<path d="M304.15 150.799L304.15 152.42C304.15 153.636 302.936 154.853 301.722 154.853C300.508 154.853 299.293 153.636 299.293 152.42L299.293 150.799C299.293 149.582 300.508 148.366 301.722 148.366C302.936 148.366 304.15 149.582 304.15 150.799Z" fill="black"/>
<path d="M304.954 201.066L304.954 202.688C304.954 204.714 303.335 205.931 301.312 205.931C299.288 205.931 297.669 204.309 297.669 202.688L298.074 201.066C298.074 199.039 299.693 197.823 301.716 197.823C303.335 197.823 304.954 199.039 304.954 201.066Z" fill="black"/>
<path d="M305.764 251.333L305.764 252.955C305.764 255.387 304.145 257.009 301.716 257.009C299.288 257.009 297.669 255.387 297.669 252.955L297.669 251.333C297.669 248.901 299.693 247.28 301.716 247.28C303.74 247.28 305.764 248.901 305.764 251.333Z" fill="black"/>
<path d="M306.58 301.604L306.58 303.226C306.58 306.063 304.961 308.09 302.128 308.496C299.295 308.496 297.676 306.469 297.676 303.631L297.272 302.009C297.272 299.172 299.295 297.145 302.128 297.145C304.557 296.739 306.58 298.766 306.58 301.604Z" fill="black"/>
<path d="M307.386 351.869L307.386 353.49C307.386 356.733 305.767 359.571 302.529 359.571C299.291 359.571 297.672 357.139 297.672 353.895L296.863 352.274C296.863 349.031 299.291 346.599 302.124 346.599C305.362 346.193 307.386 348.626 307.386 351.869Z" fill="black"/>
<path d="M308.19 402.136L308.19 403.757C308.19 407.406 304.548 410.649 300.905 410.649C297.263 410.649 293.62 407.811 293.62 404.163C293.62 404.163 293.62 404.163 293.62 403.757L294.43 402.136C294.43 398.487 297.667 395.65 301.715 395.65C304.952 395.65 308.19 398.487 308.19 402.136Z" fill="black"/>
<path d="M347.049 50.267L347.049 51.8885C347.049 52.2939 346.644 52.6992 346.239 52.6992C345.834 52.6992 345.43 52.2939 345.43 51.8885L345.43 50.267C345.43 49.8616 345.834 49.4562 346.239 49.4562C346.644 49.4562 347.049 49.8616 347.049 50.267Z" fill="black"/>
<path d="M347.856 100.534L347.856 102.156C347.856 102.967 347.046 103.777 346.237 103.777C345.427 103.777 344.618 102.967 344.618 102.156L344.618 100.534C344.618 99.7236 345.427 98.9128 346.237 98.9128C347.046 98.9128 347.856 99.7236 347.856 100.534Z" fill="black"/>
<path d="M348.662 150.799L348.662 152.42C348.662 153.636 347.448 154.853 346.234 154.853C345.02 154.853 343.806 153.636 343.806 152.42L343.806 150.799C343.806 149.582 345.02 148.366 346.234 148.366C347.448 148.366 348.662 149.582 348.662 150.799Z" fill="black"/>
<path d="M349.478 201.066L349.478 202.688C349.478 204.714 347.859 205.931 345.835 205.931C343.812 205.931 342.193 204.309 342.193 202.688L342.598 201.066C342.598 199.039 344.216 197.823 346.24 197.823C347.859 197.823 349.478 199.039 349.478 201.066Z" fill="black"/>
<path d="M350.287 251.333L350.287 252.955C350.287 255.387 348.668 257.009 346.24 257.009C343.812 257.009 342.193 255.387 342.193 252.955L342.193 251.333C342.193 248.901 344.216 247.28 346.24 247.28C348.264 247.28 350.287 248.901 350.287 251.333Z" fill="black"/>
<path d="M351.093 301.604L351.093 303.226C351.093 306.063 349.474 308.09 346.641 308.496C343.808 308.496 342.189 306.469 342.189 303.631L341.784 302.009C341.784 299.172 343.808 297.145 346.641 297.145C349.069 296.739 351.093 298.766 351.093 301.604Z" fill="black"/>
<path d="M351.909 351.869L351.909 353.49C351.909 356.733 350.29 359.571 347.052 359.571C343.815 359.571 342.196 357.139 342.196 353.895L341.386 352.274C341.386 349.031 343.815 346.599 346.648 346.599C349.886 346.193 351.909 348.626 351.909 351.869Z" fill="black"/>
<path d="M352.714 402.136L352.714 403.757C352.714 407.406 349.071 410.649 345.429 410.649C341.786 410.649 338.144 407.811 338.144 404.163C338.144 404.163 338.144 404.163 338.144 403.757L338.953 402.136C338.953 398.487 342.191 395.65 346.238 395.65C349.476 395.65 352.714 398.487 352.714 402.136Z" fill="black"/>
<path d="M391.564 50.267L391.564 51.8885C391.564 52.2939 391.159 52.6992 390.754 52.6992C390.35 52.6992 389.945 52.2939 389.945 51.8885L389.945 50.267C389.945 49.8616 390.35 49.4562 390.754 49.4562C391.159 49.4562 391.564 49.8616 391.564 50.267Z" fill="black"/>
<path d="M392.365 100.534L392.365 102.156C392.365 102.967 391.556 103.777 390.746 103.777C389.937 103.777 389.127 102.967 389.127 102.156L389.127 100.534C389.127 99.7236 389.937 98.9128 390.746 98.9128C391.556 98.9128 392.365 99.7236 392.365 100.534Z" fill="black"/>
<path d="M393.177 150.799L393.177 152.42C393.177 153.636 391.963 154.853 390.749 154.853C389.535 154.853 388.321 153.636 388.321 152.42L388.321 150.799C388.321 149.582 389.535 148.366 390.749 148.366C391.963 148.366 393.177 149.582 393.177 150.799Z" fill="black"/>
<path d="M393.993 201.066L393.993 202.688C393.993 204.714 392.374 205.931 390.35 205.931C388.327 205.931 386.708 204.309 386.708 202.688L387.113 201.066C387.113 199.039 388.731 197.823 390.755 197.823C392.374 197.823 393.993 199.039 393.993 201.066Z" fill="black"/>
<path d="M394.802 251.333L394.802 252.954C394.802 255.387 393.183 257.008 390.755 257.008C388.327 257.008 386.708 255.387 386.708 252.954L386.708 251.333C386.708 248.901 388.731 247.279 390.755 247.279C392.779 247.279 394.802 248.901 394.802 251.333Z" fill="black"/>
<path d="M395.608 301.604L395.608 303.226C395.608 306.063 393.989 308.09 391.156 308.496C388.323 308.496 386.704 306.469 386.704 303.631L386.299 302.009C386.299 299.172 388.323 297.145 391.156 297.145C393.584 296.739 395.608 298.766 395.608 301.604Z" fill="black"/>
<path d="M396.424 351.869L396.424 353.49C396.424 356.733 394.805 359.571 391.568 359.571C388.33 359.571 386.711 357.139 386.711 353.895L385.901 352.274C385.901 349.031 388.33 346.599 391.163 346.599C394.401 346.193 396.424 348.626 396.424 351.869Z" fill="black"/>
<path d="M397.229 402.136L397.229 403.757C397.229 407.406 393.586 410.649 389.944 410.649C386.301 410.649 382.659 407.811 382.659 404.163C382.659 404.163 382.659 404.163 382.659 403.757L383.468 402.136C383.468 398.487 386.706 395.65 390.753 395.65C393.991 395.65 397.229 398.487 397.229 402.136Z" fill="black"/>
<path d="M436.09 50.267L436.09 51.8885C436.09 52.2939 435.685 52.6992 435.28 52.6992C434.876 52.6992 434.471 52.2939 434.471 51.8885L434.471 50.267C434.471 49.8616 434.876 49.4562 435.28 49.4562C435.685 49.4562 436.09 49.8616 436.09 50.267Z" fill="black"/>
<path d="M436.891 100.534L436.891 102.156C436.891 102.967 436.082 103.777 435.272 103.777C434.463 103.777 433.653 102.967 433.653 102.156L433.653 100.534C433.653 99.7236 434.463 98.9128 435.272 98.9128C436.082 98.9128 436.891 99.7236 436.891 100.534Z" fill="black"/>
<path d="M437.703 150.799L437.703 152.42C437.703 153.636 436.489 154.853 435.275 154.853C434.061 154.853 432.847 153.636 432.847 152.42L432.847 150.799C432.847 149.582 434.061 148.366 435.275 148.366C436.489 148.366 437.703 149.582 437.703 150.799Z" fill="black"/>
<path d="M438.519 201.066L438.519 202.688C438.519 204.714 436.9 205.931 434.876 205.931C432.853 205.931 431.234 204.309 431.234 202.688L431.639 201.066C431.639 199.039 433.257 197.823 435.281 197.823C436.9 197.823 438.519 199.039 438.519 201.066Z" fill="black"/>
<path d="M439.328 251.333L439.328 252.954C439.328 255.387 437.709 257.008 435.281 257.008C432.853 257.008 431.234 255.387 431.234 252.954L431.234 251.333C431.234 248.901 433.257 247.279 435.281 247.279C437.305 247.279 439.328 248.901 439.328 251.333Z" fill="black"/>
<path d="M440.134 301.604L440.134 303.226C440.134 306.063 438.515 308.09 435.682 308.496C432.849 308.496 431.23 306.469 431.23 303.631L430.825 302.009C430.825 299.172 432.849 297.145 435.682 297.145C438.11 296.739 440.134 298.766 440.134 301.604Z" fill="black"/>
<path d="M440.95 351.869L440.95 353.49C440.95 356.733 439.331 359.571 436.094 359.571C432.856 359.571 431.237 357.139 431.237 353.895L430.427 352.274C430.427 349.031 432.856 346.599 435.689 346.599C438.927 346.193 440.95 348.626 440.95 351.869Z" fill="black"/>
<path d="M441.755 402.136L441.755 403.757C441.755 407.406 438.112 410.649 434.47 410.649C430.827 410.649 427.185 407.811 427.185 404.163C427.185 404.163 427.185 404.163 427.185 403.757L427.994 402.136C427.994 398.487 431.232 395.65 435.279 395.65C438.517 395.65 441.755 398.487 441.755 402.136Z" fill="black"/>
<path d="M480.605 50.267L480.605 51.8885C480.605 52.2939 480.2 52.6992 479.795 52.6992C479.391 52.6992 478.986 52.2939 478.986 51.8885L478.986 50.267C478.986 49.8616 479.391 49.4562 479.795 49.4562C480.2 49.4562 480.605 49.8616 480.605 50.267Z" fill="black"/>
<path d="M481.412 100.534L481.412 102.156C481.412 102.967 480.602 103.777 479.793 103.777C478.983 103.777 478.174 102.967 478.174 102.156L478.174 100.534C478.174 99.7236 478.983 98.9128 479.793 98.9128C480.602 98.9128 481.412 99.7236 481.412 100.534Z" fill="black"/>
<path d="M482.219 150.799L482.219 152.42C482.219 153.636 481.004 154.853 479.79 154.853C478.576 154.853 477.362 153.636 477.362 152.42L477.362 150.799C477.362 149.582 478.576 148.366 479.79 148.366C481.004 148.366 482.219 149.582 482.219 150.799Z" fill="black"/>
<path d="M483.034 201.066L483.034 202.688C483.034 204.714 481.415 205.931 479.391 205.931C477.368 205.931 475.749 204.309 475.749 202.688L476.154 201.066C476.154 199.039 477.773 197.823 479.796 197.823C481.415 197.823 483.034 199.039 483.034 201.066Z" fill="black"/>
<path d="M483.843 251.333L483.843 252.955C483.843 255.387 482.224 257.009 479.796 257.009C477.368 257.009 475.749 255.387 475.749 252.955L475.749 251.333C475.749 248.901 477.773 247.28 479.796 247.28C481.82 247.28 483.843 248.901 483.843 251.333Z" fill="black"/>
<path d="M484.649 301.604L484.649 303.226C484.649 306.063 483.03 308.09 480.197 308.496C477.364 308.496 475.745 306.469 475.745 303.631L475.34 302.009C475.34 299.172 477.364 297.145 480.197 297.145C482.625 296.739 484.649 298.766 484.649 301.604Z" fill="black"/>
<path d="M485.465 351.869L485.465 353.49C485.465 356.733 483.846 359.571 480.609 359.571C477.371 359.571 475.752 357.139 475.752 353.895L474.943 352.274C474.943 349.031 477.371 346.599 480.204 346.599C483.442 346.193 485.465 348.626 485.465 351.869Z" fill="black"/>
<path d="M486.27 402.136L486.27 403.757C486.27 407.406 482.627 410.649 478.985 410.649C475.342 410.649 471.7 407.811 471.7 404.163C471.7 404.163 471.7 404.163 471.7 403.757L472.509 402.136C472.509 398.487 475.747 395.65 479.794 395.65C483.032 395.65 486.27 398.487 486.27 402.136Z" fill="black"/>
<path d="M525.127 50.267L525.127 51.8885C525.127 52.2939 524.722 52.6992 524.318 52.6992C523.913 52.6992 523.508 52.2939 523.508 51.8885L523.508 50.267C523.508 49.8616 523.913 49.4562 524.318 49.4562C524.722 49.4562 525.127 49.8616 525.127 50.267Z" fill="black"/>
<path d="M525.934 100.534L525.934 102.156C525.934 102.967 525.125 103.777 524.315 103.777C523.506 103.777 522.696 102.967 522.696 102.156L522.696 100.534C522.696 99.7236 523.506 98.9128 524.315 98.9128C525.125 98.9128 525.934 99.7236 525.934 100.534Z" fill="black"/>
<path d="M526.741 150.799L526.741 152.42C526.741 153.636 525.526 154.853 524.312 154.853C523.098 154.853 521.884 153.636 521.884 152.42L521.884 150.799C521.884 149.582 523.098 148.366 524.312 148.366C525.526 148.366 526.741 149.582 526.741 150.799Z" fill="black"/>
<path d="M527.556 201.066L527.556 202.688C527.556 204.714 525.937 205.931 523.914 205.931C521.89 205.931 520.271 204.309 520.271 202.688L520.676 201.066C520.676 199.039 522.295 197.823 524.318 197.823C525.937 197.823 527.556 199.039 527.556 201.066Z" fill="black"/>
<path d="M528.366 251.333L528.366 252.955C528.366 255.387 526.747 257.009 524.318 257.009C521.89 257.009 520.271 255.387 520.271 252.955L520.271 251.333C520.271 248.901 522.295 247.28 524.318 247.28C526.342 247.28 528.366 248.901 528.366 251.333Z" fill="black"/>
<path d="M529.171 301.604L529.171 303.226C529.171 306.063 527.552 308.09 524.719 308.496C521.886 308.496 520.267 306.469 520.267 303.631L519.862 302.009C519.862 299.172 521.886 297.145 524.719 297.145C527.147 296.739 529.171 298.766 529.171 301.604Z" fill="black"/>
<path d="M529.988 351.869L529.988 353.49C529.988 356.733 528.369 359.571 525.131 359.571C521.893 359.571 520.274 357.139 520.274 353.895L519.465 352.274C519.465 349.031 521.893 346.599 524.726 346.599C527.964 346.193 529.988 348.626 529.988 351.869Z" fill="black"/>
<path d="M530.792 402.136L530.792 403.757C530.792 407.406 527.15 410.649 523.507 410.649C519.865 410.649 516.222 407.811 516.222 404.163C516.222 404.163 516.222 404.163 516.222 403.757L517.032 402.136C517.032 398.487 520.269 395.65 524.317 395.65C527.554 395.65 530.792 398.487 530.792 402.136Z" fill="black"/>
<path d="M569.646 50.267L569.646 51.8885C569.646 52.2939 569.241 52.6992 568.837 52.6992C568.432 52.6992 568.027 52.2939 568.027 51.8885L568.027 50.267C568.027 49.8616 568.432 49.4562 568.837 49.4562C569.241 49.4562 569.646 49.8616 569.646 50.267Z" fill="black"/>
<path d="M570.447 100.534L570.447 102.156C570.447 102.967 569.638 103.777 568.828 103.777C568.019 103.777 567.209 102.967 567.209 102.156L567.209 100.534C567.209 99.7236 568.019 98.9128 568.828 98.9128C569.638 98.9128 570.447 99.7236 570.447 100.534Z" fill="black"/>
<path d="M571.26 150.799L571.26 152.42C571.26 153.636 570.046 154.853 568.831 154.853C567.617 154.853 566.403 153.636 566.403 152.42L566.403 150.799C566.403 149.582 567.617 148.366 568.831 148.366C570.046 148.366 571.26 149.582 571.26 150.799Z" fill="black"/>
<path d="M572.075 201.066L572.075 202.688C572.075 204.714 570.456 205.931 568.433 205.931C566.409 205.931 564.79 204.309 564.79 202.688L565.195 201.066C565.195 199.039 566.814 197.823 568.837 197.823C570.456 197.823 572.075 199.039 572.075 201.066Z" fill="black"/>
<path d="M572.884 251.333L572.884 252.955C572.884 255.387 571.266 257.009 568.837 257.009C566.409 257.009 564.79 255.387 564.79 252.955L564.79 251.333C564.79 248.901 566.814 247.28 568.837 247.28C570.861 247.28 572.884 248.901 572.884 251.333Z" fill="black"/>
<path d="M573.69 301.604L573.69 303.226C573.69 306.063 572.071 308.09 569.238 308.496C566.405 308.496 564.786 306.469 564.786 303.631L564.381 302.009C564.381 299.172 566.405 297.145 569.238 297.145C571.666 296.739 573.69 298.766 573.69 301.604Z" fill="black"/>
<path d="M574.506 351.869L574.506 353.49C574.506 356.733 572.887 359.571 569.65 359.571C566.412 359.571 564.793 357.139 564.793 353.895L563.984 352.274C563.984 349.031 566.412 346.599 569.245 346.599C572.483 346.193 574.506 348.626 574.506 351.869Z" fill="black"/>
<path d="M575.311 402.136L575.311 403.757C575.311 407.406 571.669 410.649 568.026 410.649C564.383 410.649 560.741 407.811 560.741 404.163C560.741 404.163 560.741 404.163 560.741 403.757L561.55 402.136C561.55 398.487 564.788 395.65 568.835 395.65C572.073 395.65 575.311 398.487 575.311 402.136Z" fill="black"/>
<path d="M614.161 50.267L614.161 51.8885C614.161 52.2939 613.756 52.6992 613.351 52.6992C612.947 52.6992 612.542 52.2939 612.542 51.8885L612.542 50.267C612.542 49.8616 612.947 49.4562 613.351 49.4562C613.756 49.4562 614.161 49.8616 614.161 50.267Z" fill="black"/>
<path d="M614.968 100.534L614.968 102.156C614.968 102.967 614.158 103.777 613.349 103.777C612.539 103.777 611.73 102.967 611.73 102.156L611.73 100.534C611.73 99.7236 612.539 98.9128 613.349 98.9128C614.158 98.9128 614.968 99.7236 614.968 100.534Z" fill="black"/>
<path d="M615.775 150.799L615.775 152.42C615.775 153.636 614.561 154.853 613.346 154.853C612.132 154.853 610.918 153.636 610.918 152.42L610.918 150.799C610.918 149.582 612.132 148.366 613.346 148.366C614.561 148.366 615.775 149.582 615.775 150.799Z" fill="black"/>
<path d="M616.59 201.066L616.59 202.688C616.59 204.714 614.971 205.931 612.948 205.931C610.924 205.931 609.305 204.309 609.305 202.688L609.71 201.066C609.71 199.039 611.329 197.823 613.352 197.823C614.971 197.823 616.59 199.039 616.59 201.066Z" fill="black"/>
<path d="M617.4 251.333L617.4 252.954C617.4 255.387 615.781 257.008 613.352 257.008C610.924 257.008 609.305 255.387 609.305 252.954L609.305 251.333C609.305 248.901 611.329 247.279 613.352 247.279C615.376 247.279 617.4 248.901 617.4 251.333Z" fill="black"/>
<path d="M618.205 301.604L618.205 303.226C618.205 306.063 616.586 308.09 613.753 308.496C610.92 308.496 609.301 306.469 609.301 303.631L608.896 302.009C608.896 299.172 610.92 297.145 613.753 297.145C616.181 296.739 618.205 298.766 618.205 301.604Z" fill="black"/>
<path d="M619.021 351.869L619.021 353.49C619.021 356.733 617.402 359.571 614.165 359.571C610.927 359.571 609.308 357.139 609.308 353.895L608.499 352.274C608.499 349.031 610.927 346.599 613.76 346.599C616.998 346.193 619.021 348.626 619.021 351.869Z" fill="black"/>
<path d="M619.826 402.136L619.826 403.757C619.826 407.406 616.184 410.649 612.541 410.649C608.899 410.649 605.256 407.811 605.256 404.163C605.256 404.163 605.256 404.163 605.256 403.757L606.066 402.136C606.066 398.487 609.303 395.65 613.351 395.65C616.588 395.65 619.826 398.487 619.826 402.136Z" fill="black"/>
<path d="M658.687 50.267L658.687 51.8885C658.687 52.2939 658.282 52.6992 657.878 52.6992C657.473 52.6992 657.068 52.2939 657.068 51.8885L657.068 50.267C657.068 49.8616 657.473 49.4562 657.878 49.4562C658.282 49.4562 658.687 49.8616 658.687 50.267Z" fill="black"/>
<path d="M659.494 100.534L659.494 102.156C659.494 102.967 658.684 103.777 657.875 103.777C657.066 103.777 656.256 102.967 656.256 102.156L656.256 100.534C656.256 99.7236 657.066 98.9128 657.875 98.9128C658.684 98.9128 659.494 99.7236 659.494 100.534Z" fill="black"/>
<path d="M660.301 150.799L660.301 152.42C660.301 153.636 659.087 154.853 657.872 154.853C656.658 154.853 655.444 153.636 655.444 152.42L655.444 150.799C655.444 149.582 656.658 148.366 657.872 148.366C659.087 148.366 660.301 149.582 660.301 150.799Z" fill="black"/>
<path d="M661.116 201.066L661.116 202.688C661.116 204.714 659.497 205.931 657.474 205.931C655.45 205.931 653.831 204.309 653.831 202.688L654.236 201.066C654.236 199.039 655.855 197.823 657.879 197.823C659.497 197.823 661.116 199.039 661.116 201.066Z" fill="black"/>
<path d="M661.926 251.333L661.926 252.954C661.926 255.387 660.307 257.008 657.879 257.008C655.45 257.008 653.831 255.387 653.831 252.954L653.831 251.333C653.831 248.901 655.855 247.279 657.879 247.279C659.902 247.279 661.926 248.901 661.926 251.333Z" fill="black"/>
<path d="M662.731 301.604L662.731 303.226C662.731 306.063 661.112 308.09 658.279 308.496C655.446 308.496 653.827 306.469 653.827 303.631L653.422 302.009C653.422 299.172 655.446 297.145 658.279 297.145C660.707 296.739 662.731 298.766 662.731 301.604Z" fill="black"/>
<path d="M663.547 351.869L663.547 353.49C663.547 356.733 661.929 359.571 658.691 359.571C655.453 359.571 653.834 357.139 653.834 353.895L653.025 352.274C653.025 349.031 655.453 346.599 658.286 346.599C661.524 346.193 663.547 348.626 663.547 351.869Z" fill="black"/>
<path d="M664.352 402.136L664.352 403.757C664.352 407.406 660.71 410.649 657.067 410.649C653.425 410.649 649.782 407.811 649.782 404.163C649.782 404.163 649.782 404.163 649.782 403.757L650.592 402.136C650.592 398.487 653.829 395.65 657.877 395.65C661.114 395.65 664.352 398.487 664.352 402.136Z" fill="black"/>
<path d="M703.202 50.267L703.202 51.8885C703.202 52.2939 702.797 52.6992 702.392 52.6992C701.988 52.6992 701.583 52.2939 701.583 51.8885L701.583 50.267C701.583 49.8616 701.988 49.4562 702.392 49.4562C702.797 49.4562 703.202 49.8616 703.202 50.267Z" fill="black"/>
<path d="M704.009 100.534L704.009 102.156C704.009 102.967 703.199 103.777 702.39 103.777C701.58 103.777 700.771 102.967 700.771 102.156L700.771 100.534C700.771 99.7236 701.58 98.9128 702.39 98.9128C703.199 98.9128 704.009 99.7236 704.009 100.534Z" fill="black"/>
<path d="M704.816 150.799L704.816 152.42C704.816 153.636 703.602 154.853 702.387 154.853C701.173 154.853 699.959 153.636 699.959 152.42L699.959 150.799C699.959 149.582 701.173 148.366 702.387 148.366C703.602 148.366 704.816 149.582 704.816 150.799Z" fill="black"/>
<path d="M705.631 201.066L705.631 202.688C705.631 204.714 704.012 205.931 701.988 205.931C699.965 205.931 698.346 204.309 698.346 202.688L698.751 201.066C698.751 199.039 700.37 197.823 702.393 197.823C704.012 197.823 705.631 199.039 705.631 201.066Z" fill="black"/>
<path d="M706.44 251.333L706.44 252.955C706.44 255.387 704.822 257.009 702.393 257.009C699.965 257.009 698.346 255.387 698.346 252.955L698.346 251.333C698.346 248.901 700.37 247.28 702.393 247.28C704.417 247.28 706.44 248.901 706.44 251.333Z" fill="black"/>
<path d="M707.246 301.604L707.246 303.226C707.246 306.063 705.627 308.09 702.794 308.496C699.961 308.496 698.342 306.469 698.342 303.631L697.937 302.009C697.937 299.172 699.961 297.145 702.794 297.145C705.222 296.739 707.246 298.766 707.246 301.604Z" fill="black"/>
<path d="M708.062 351.869L708.062 353.49C708.062 356.733 706.443 359.571 703.206 359.571C699.968 359.571 698.349 357.139 698.349 353.895L697.54 352.274C697.54 349.031 699.968 346.599 702.801 346.599C706.039 346.193 708.062 348.626 708.062 351.869Z" fill="black"/>
<path d="M708.867 402.136L708.867 403.757C708.867 407.406 705.224 410.649 701.582 410.649C697.939 410.649 694.297 407.811 694.297 404.163C694.297 404.163 694.297 404.163 694.297 403.757L695.106 402.136C695.106 398.487 698.344 395.65 702.391 395.65C705.629 395.65 708.867 398.487 708.867 402.136Z" fill="black"/>
<path d="M747.721 50.267L747.721 51.8885C747.721 52.2939 747.316 52.6992 746.911 52.6992C746.507 52.6992 746.102 52.2939 746.102 51.8885L746.102 50.267C746.102 49.8616 746.507 49.4562 746.911 49.4562C747.316 49.4562 747.721 49.8616 747.721 50.267Z" fill="black"/>
<path d="M748.527 100.534L748.527 102.156C748.527 102.967 747.718 103.777 746.909 103.777C746.099 103.777 745.29 102.967 745.29 102.156L745.29 100.534C745.29 99.7236 746.099 98.9128 746.909 98.9128C747.718 98.9128 748.527 99.7236 748.527 100.534Z" fill="black"/>
<path d="M749.334 150.799L749.334 152.42C749.334 153.636 748.12 154.853 746.906 154.853C745.692 154.853 744.478 153.636 744.478 152.42L744.478 150.799C744.478 149.582 745.692 148.366 746.906 148.366C748.12 148.366 749.334 149.582 749.334 150.799Z" fill="black"/>
<path d="M750.15 201.066L750.15 202.688C750.15 204.714 748.531 205.931 746.507 205.931C744.484 205.931 742.865 204.309 742.865 202.688L743.27 201.066C743.27 199.039 744.889 197.823 746.912 197.823C748.531 197.823 750.15 199.039 750.15 201.066Z" fill="black"/>
<path d="M750.959 251.333L750.959 252.954C750.959 255.387 749.34 257.008 746.912 257.008C744.484 257.008 742.865 255.387 742.865 252.954L742.865 251.333C742.865 248.901 744.889 247.279 746.912 247.279C748.936 247.279 750.959 248.901 750.959 251.333Z" fill="black"/>
<path d="M751.765 301.604L751.765 303.226C751.765 306.063 750.146 308.09 747.313 308.496C744.48 308.496 742.861 306.469 742.861 303.631L742.456 302.009C742.456 299.172 744.48 297.145 747.313 297.145C749.741 296.739 751.765 298.766 751.765 301.604Z" fill="black"/>
<path d="M752.581 351.869L752.581 353.49C752.581 356.733 750.962 359.571 747.724 359.571C744.487 359.571 742.868 357.139 742.868 353.895L742.058 352.274C742.058 349.031 744.487 346.599 747.32 346.599C750.558 346.193 752.581 348.626 752.581 351.869Z" fill="black"/>
<path d="M753.386 402.136L753.386 403.757C753.386 407.406 749.744 410.649 746.101 410.649C742.458 410.649 738.816 407.811 738.816 404.163C738.816 404.163 738.816 404.163 738.816 403.757L739.625 402.136C739.625 398.487 742.863 395.65 746.91 395.65C750.148 395.65 753.386 398.487 753.386 402.136Z" fill="black"/>
<path d="M792.243 50.267L792.243 51.8885C792.243 52.2939 791.838 52.6992 791.434 52.6992C791.029 52.6992 790.624 52.2939 790.624 51.8885L790.624 50.267C790.624 49.8616 791.029 49.4562 791.434 49.4562C791.838 49.4562 792.243 49.8616 792.243 50.267Z" fill="black"/>
<path d="M793.045 100.534L793.045 102.156C793.045 102.967 792.235 103.777 791.426 103.777C790.616 103.777 789.807 102.967 789.807 102.156L789.807 100.534C789.807 99.7236 790.616 98.9128 791.426 98.9128C792.235 98.9128 793.045 99.7236 793.045 100.534Z" fill="black"/>
<path d="M793.857 150.799L793.857 152.42C793.857 153.636 792.643 154.853 791.429 154.853C790.214 154.853 789 153.636 789 152.42L789 150.799C789 149.582 790.214 148.366 791.429 148.366C792.643 148.366 793.857 149.582 793.857 150.799Z" fill="black"/>
<path d="M794.672 201.066L794.672 202.688C794.672 204.714 793.053 205.931 791.03 205.931C789.006 205.931 787.387 204.309 787.387 202.688L787.792 201.066C787.792 199.039 789.411 197.823 791.434 197.823C793.053 197.823 794.672 199.039 794.672 201.066Z" fill="black"/>
<path d="M795.482 251.333L795.482 252.955C795.482 255.387 793.863 257.009 791.434 257.009C789.006 257.009 787.387 255.387 787.387 252.955L787.387 251.333C787.387 248.901 789.411 247.28 791.434 247.28C793.458 247.28 795.482 248.901 795.482 251.333Z" fill="black"/>
<path d="M796.287 301.604L796.287 303.226C796.287 306.063 794.668 308.09 791.835 308.496C789.002 308.496 787.383 306.469 787.383 303.631L786.979 302.009C786.979 299.172 789.002 297.145 791.835 297.145C794.263 296.739 796.287 298.766 796.287 301.604Z" fill="black"/>
<path d="M797.104 351.869L797.104 353.49C797.104 356.733 795.485 359.571 792.247 359.571C789.009 359.571 787.39 357.139 787.39 353.895L786.581 352.274C786.581 349.031 789.009 346.599 791.842 346.599C795.08 346.193 797.104 348.626 797.104 351.869Z" fill="black"/>
<path d="M797.908 402.136L797.908 403.757C797.908 407.406 794.266 410.649 790.623 410.649C786.981 410.649 783.338 407.811 783.338 404.163C783.338 404.163 783.338 404.163 783.338 403.757L784.148 402.136C784.148 398.487 787.386 395.65 791.433 395.65C794.67 395.65 797.908 398.487 797.908 402.136Z" fill="black"/>
<path d="M836.758 50.267L836.758 51.8885C836.758 52.2939 836.353 52.6992 835.949 52.6992C835.544 52.6992 835.139 52.2939 835.139 51.8885L835.139 50.267C835.139 49.8616 835.544 49.4562 835.949 49.4562C836.353 49.4562 836.758 49.8616 836.758 50.267Z" fill="black"/>
<path d="M837.565 100.534L837.565 102.156C837.565 102.967 836.755 103.777 835.946 103.777C835.137 103.777 834.327 102.967 834.327 102.156L834.327 100.534C834.327 99.7236 835.137 98.9128 835.946 98.9128C836.755 98.9128 837.565 99.7236 837.565 100.534Z" fill="black"/>
<path d="M838.372 150.799L838.372 152.42C838.372 153.636 837.158 154.853 835.943 154.853C834.729 154.853 833.515 153.636 833.515 152.42L833.515 150.799C833.515 149.582 834.729 148.366 835.943 148.366C837.158 148.366 838.372 149.582 838.372 150.799Z" fill="black"/>
<path d="M839.187 201.066L839.187 202.688C839.187 204.714 837.569 205.931 835.545 205.931C833.521 205.931 831.902 204.309 831.902 202.688L832.307 201.066C832.307 199.039 833.926 197.823 835.95 197.823C837.569 197.823 839.187 199.039 839.187 201.066Z" fill="black"/>
<path d="M839.997 251.333L839.997 252.954C839.997 255.387 838.378 257.008 835.95 257.008C833.521 257.008 831.902 255.387 831.902 252.954L831.902 251.333C831.902 248.901 833.926 247.279 835.95 247.279C837.973 247.279 839.997 248.901 839.997 251.333Z" fill="black"/>
<path d="M840.802 301.604L840.802 303.226C840.802 306.063 839.183 308.09 836.35 308.496C833.517 308.496 831.898 306.469 831.898 303.631L831.493 302.009C831.493 299.172 833.517 297.145 836.35 297.145C838.778 296.739 840.802 298.766 840.802 301.604Z" fill="black"/>
<path d="M841.619 351.869L841.619 353.49C841.619 356.733 840 359.571 836.762 359.571C833.524 359.571 831.905 357.139 831.905 353.895L831.096 352.274C831.096 349.031 833.524 346.599 836.357 346.599C839.595 346.193 841.619 348.626 841.619 351.869Z" fill="black"/>
<path d="M842.423 402.136L842.423 403.757C842.423 407.406 838.781 410.649 835.138 410.649C831.496 410.649 827.853 407.811 827.853 404.163C827.853 404.163 827.853 404.163 827.853 403.757L828.663 402.136C828.663 398.487 831.9 395.65 835.948 395.65C839.185 395.65 842.423 398.487 842.423 402.136Z" fill="black"/>
<path d="M881.284 50.2671L881.284 51.8886C881.284 52.2939 880.88 52.6992 880.475 52.6992C880.07 52.6992 879.665 52.2939 879.665 51.8886L879.665 50.2671C879.665 49.8618 880.07 49.4563 880.475 49.4563C880.88 49.4563 881.284 49.8618 881.284 50.2671Z" fill="black"/>
<path d="M882.091 100.534L882.091 102.156C882.091 102.967 881.282 103.777 880.472 103.777C879.663 103.777 878.853 102.967 878.853 102.156L878.853 100.534C878.853 99.7236 879.663 98.9128 880.472 98.9128C881.282 98.9128 882.091 99.7236 882.091 100.534Z" fill="black"/>
<path d="M882.898 150.799L882.898 152.42C882.898 153.636 881.684 154.853 880.47 154.853C879.255 154.853 878.041 153.636 878.041 152.42L878.041 150.799C878.041 149.582 879.255 148.366 880.47 148.366C881.684 148.366 882.898 149.582 882.898 150.799Z" fill="black"/>
<path d="M883.714 201.066L883.714 202.688C883.714 204.714 882.095 205.931 880.071 205.931C878.047 205.931 876.428 204.309 876.428 202.688L876.833 201.066C876.833 199.039 878.452 197.823 880.476 197.823C882.095 197.823 883.714 199.039 883.714 201.066Z" fill="black"/>
<path d="M884.523 251.333L884.523 252.954C884.523 255.387 882.904 257.008 880.476 257.008C878.047 257.008 876.428 255.387 876.428 252.954L876.428 251.333C876.428 248.901 878.452 247.279 880.476 247.279C882.499 247.279 884.523 248.901 884.523 251.333Z" fill="black"/>
<path d="M885.328 301.604L885.328 303.226C885.328 306.063 883.709 308.09 880.876 308.496C878.043 308.496 876.424 306.469 876.424 303.631L876.02 302.009C876.02 299.172 878.043 297.145 880.876 297.145C883.304 296.739 885.328 298.766 885.328 301.604Z" fill="black"/>
<path d="M886.145 351.869L886.145 353.49C886.145 356.733 884.526 359.571 881.288 359.571C878.05 359.571 876.431 357.139 876.431 353.895L875.622 352.274C875.622 349.031 878.05 346.599 880.883 346.599C884.121 346.193 886.145 348.626 886.145 351.869Z" fill="black"/>
<path d="M886.95 402.136L886.95 403.757C886.95 407.406 883.307 410.649 879.664 410.649C876.022 410.649 872.379 407.811 872.379 404.163C872.379 404.163 872.379 404.163 872.379 403.757L873.189 402.136C873.189 398.487 876.427 395.65 880.474 395.65C883.712 395.65 886.95 398.487 886.95 402.136Z" fill="black"/>
<path d="M925.799 50.2671L925.799 51.8886C925.799 52.2939 925.395 52.6992 924.99 52.6992C924.585 52.6992 924.18 52.2939 924.18 51.8886L924.18 50.2671C924.18 49.8618 924.585 49.4563 924.99 49.4563C925.395 49.4563 925.799 49.8618 925.799 50.2671Z" fill="black"/>
<path d="M926.601 100.534L926.601 102.156C926.601 102.967 925.791 103.777 924.982 103.777C924.172 103.777 923.363 102.967 923.363 102.156L923.363 100.534C923.363 99.7236 924.172 98.9128 924.982 98.9128C925.791 98.9128 926.601 99.7236 926.601 100.534Z" fill="black"/>
<path d="M927.413 150.799L927.413 152.42C927.413 153.636 926.199 154.853 924.985 154.853C923.771 154.853 922.556 153.636 922.556 152.42L922.556 150.799C922.556 149.582 923.771 148.366 924.985 148.366C926.199 148.366 927.413 149.582 927.413 150.799Z" fill="black"/>
<path d="M928.228 201.066L928.228 202.688C928.228 204.714 926.609 205.931 924.586 205.931C922.562 205.931 920.943 204.309 920.943 202.688L921.348 201.066C921.348 199.039 922.967 197.823 924.991 197.823C926.609 197.823 928.228 199.039 928.228 201.066Z" fill="black"/>
<path d="M929.038 251.333L929.038 252.955C929.038 255.387 927.419 257.009 924.991 257.009C922.562 257.009 920.943 255.387 920.943 252.955L920.943 251.333C920.943 248.901 922.967 247.28 924.991 247.28C927.014 247.28 929.038 248.901 929.038 251.333Z" fill="black"/>
<path d="M929.843 301.604L929.843 303.226C929.843 306.063 928.224 308.09 925.391 308.496C922.558 308.496 920.939 306.469 920.939 303.631L920.535 302.009C920.535 299.172 922.558 297.145 925.391 297.145C927.819 296.739 929.843 298.766 929.843 301.604Z" fill="black"/>
<path d="M930.66 351.869L930.66 353.49C930.66 356.733 929.041 359.571 925.803 359.571C922.565 359.571 920.946 357.139 920.946 353.895L920.137 352.274C920.137 349.031 922.565 346.599 925.398 346.599C928.636 346.193 930.66 348.626 930.66 351.869Z" fill="black"/>
<path d="M931.464 402.136L931.464 403.757C931.464 407.406 927.822 410.649 924.179 410.649C920.537 410.649 916.894 407.811 916.894 404.163C916.894 404.163 916.894 404.163 916.894 403.757L917.704 402.136C917.704 398.488 920.941 395.65 924.989 395.65C928.226 395.65 931.464 398.488 931.464 402.136Z" fill="black"/>
<path d="M970.318 50.2671L970.318 51.8886C970.318 52.2939 969.913 52.6992 969.509 52.6992C969.104 52.6992 968.699 52.2939 968.699 51.8886L968.699 50.2671C968.699 49.8618 969.104 49.4563 969.509 49.4563C969.913 49.4563 970.318 49.8618 970.318 50.2671Z" fill="black"/>
<path d="M971.119 100.534L971.119 102.156C971.119 102.967 970.31 103.777 969.501 103.777C968.691 103.777 967.882 102.967 967.882 102.156L967.882 100.534C967.882 99.7236 968.691 98.9128 969.501 98.9128C970.31 98.9128 971.119 99.7236 971.119 100.534Z" fill="black"/>
<path d="M971.931 150.799L971.931 152.42C971.931 153.636 970.717 154.853 969.503 154.853C968.289 154.853 967.075 153.636 967.075 152.42L967.075 150.799C967.075 149.582 968.289 148.366 969.503 148.366C970.717 148.366 971.931 149.582 971.931 150.799Z" fill="black"/>
<path d="M972.747 201.066L972.747 202.688C972.747 204.714 971.128 205.931 969.105 205.931C967.081 205.931 965.462 204.309 965.462 202.688L965.867 201.066C965.867 199.039 967.486 197.823 969.509 197.823C971.128 197.823 972.747 199.039 972.747 201.066Z" fill="black"/>
<path d="M973.557 251.333L973.557 252.955C973.557 255.387 971.938 257.009 969.509 257.009C967.081 257.009 965.462 255.387 965.462 252.955L965.462 251.333C965.462 248.901 967.486 247.28 969.509 247.28C971.533 247.28 973.557 248.901 973.557 251.333Z" fill="black"/>
<path d="M974.362 301.604L974.362 303.226C974.362 306.063 972.743 308.09 969.91 308.496C967.077 308.496 965.458 306.469 965.458 303.631L965.053 302.009C965.053 299.172 967.077 297.145 969.91 297.145C972.338 296.739 974.362 298.766 974.362 301.604Z" fill="black"/>
<path d="M975.178 351.869L975.178 353.49C975.178 356.733 973.559 359.571 970.322 359.571C967.084 359.571 965.465 357.139 965.465 353.896L964.656 352.274C964.656 349.031 967.084 346.599 969.917 346.599C973.155 346.193 975.178 348.626 975.178 351.869Z" fill="black"/>
<path d="M975.983 402.136L975.983 403.757C975.983 407.406 972.341 410.649 968.698 410.649C965.056 410.649 961.413 407.811 961.413 404.163C961.413 404.163 961.413 404.163 961.413 403.757L962.222 402.136C962.222 398.488 965.46 395.65 969.508 395.65C972.745 395.65 975.983 398.488 975.983 402.136Z" fill="black"/>
<path d="M1014.84 50.2671L1014.84 51.8886C1014.84 52.2939 1014.44 52.6992 1014.03 52.6992C1013.63 52.6992 1013.22 52.2939 1013.22 51.8886L1013.22 50.2671C1013.22 49.8618 1013.63 49.4563 1014.03 49.4563C1014.44 49.4563 1014.84 49.8618 1014.84 50.2671Z" fill="black"/>
<path d="M1015.64 100.534L1015.64 102.156C1015.64 102.967 1014.83 103.777 1014.02 103.777C1013.21 103.777 1012.4 102.967 1012.4 102.156L1012.4 100.534C1012.4 99.7236 1013.21 98.9128 1014.02 98.9128C1014.83 98.9128 1015.64 99.7236 1015.64 100.534Z" fill="black"/>
<path d="M1016.45 150.799L1016.45 152.42C1016.45 153.636 1015.24 154.853 1014.03 154.853C1012.81 154.853 1011.6 153.636 1011.6 152.42L1011.6 150.799C1011.6 149.582 1012.81 148.366 1014.03 148.366C1015.24 148.366 1016.45 149.582 1016.45 150.799Z" fill="black"/>
<path d="M1017.27 201.066L1017.27 202.688C1017.27 204.714 1015.65 205.931 1013.63 205.931C1011.6 205.931 1009.98 204.309 1009.98 202.688L1010.39 201.066C1010.39 199.039 1012.01 197.823 1014.03 197.823C1015.65 197.823 1017.27 199.039 1017.27 201.066Z" fill="black"/>
<path d="M1018.08 251.333L1018.08 252.955C1018.08 255.387 1016.46 257.009 1014.03 257.009C1011.6 257.009 1009.98 255.387 1009.98 252.955L1009.98 251.333C1009.98 248.901 1012.01 247.28 1014.03 247.28C1016.06 247.28 1018.08 248.901 1018.08 251.333Z" fill="black"/>
<path d="M1018.88 301.604L1018.88 303.226C1018.88 306.063 1017.27 308.09 1014.43 308.496C1011.6 308.496 1009.98 306.469 1009.98 303.631L1009.58 302.009C1009.58 299.172 1011.6 297.145 1014.43 297.145C1016.86 296.739 1018.88 298.766 1018.88 301.604Z" fill="black"/>
<path d="M1019.7 351.869L1019.7 353.49C1019.7 356.733 1018.08 359.571 1014.84 359.571C1011.61 359.571 1009.99 357.139 1009.99 353.896L1009.18 352.274C1009.18 349.031 1011.61 346.599 1014.44 346.599C1017.68 346.193 1019.7 348.626 1019.7 351.869Z" fill="black"/>
<path d="M1020.51 402.136L1020.51 403.757C1020.51 407.406 1016.86 410.649 1013.22 410.649C1009.58 410.649 1005.94 407.811 1005.94 404.163C1005.94 404.163 1005.94 404.163 1005.94 403.757L1006.74 402.136C1006.74 398.487 1009.98 395.65 1014.03 395.65C1017.27 395.65 1020.51 398.487 1020.51 402.136Z" fill="black"/>
<path d="M1059.36 50.2671L1059.36 51.8886C1059.36 52.2939 1058.95 52.6992 1058.55 52.6992C1058.15 52.6992 1057.74 52.2939 1057.74 51.8886L1057.74 50.2671C1057.74 49.8618 1058.15 49.4563 1058.55 49.4563C1058.95 49.4563 1059.36 49.8618 1059.36 50.2671Z" fill="black"/>
<path d="M1060.17 100.534L1060.17 102.156C1060.17 102.967 1059.36 103.777 1058.55 103.777C1057.74 103.777 1056.93 102.967 1056.93 102.156L1056.93 100.534C1056.93 99.7236 1057.74 98.9128 1058.55 98.9128C1059.36 98.9128 1060.17 99.7236 1060.17 100.534Z" fill="black"/>
<path d="M1060.97 150.799L1060.97 152.42C1060.97 153.636 1059.76 154.853 1058.54 154.853C1057.33 154.853 1056.12 153.636 1056.12 152.42L1056.12 150.799C1056.12 149.582 1057.33 148.366 1058.54 148.366C1059.76 148.366 1060.97 149.582 1060.97 150.799Z" fill="black"/>
<path d="M1061.79 201.066L1061.79 202.688C1061.79 204.714 1060.17 205.931 1058.15 205.931C1056.12 205.931 1054.5 204.309 1054.5 202.688L1054.91 201.066C1054.91 199.039 1056.53 197.823 1058.55 197.823C1060.17 197.823 1061.79 199.039 1061.79 201.066Z" fill="black"/>
<path d="M1062.6 251.333L1062.6 252.954C1062.6 255.387 1060.98 257.008 1058.55 257.008C1056.12 257.008 1054.5 255.387 1054.5 252.954L1054.5 251.333C1054.5 248.901 1056.53 247.279 1058.55 247.279C1060.57 247.279 1062.6 248.901 1062.6 251.333Z" fill="black"/>
<path d="M1063.4 301.604L1063.4 303.226C1063.4 306.063 1061.78 308.09 1058.95 308.496C1056.12 308.496 1054.5 306.469 1054.5 303.631L1054.09 302.009C1054.09 299.172 1056.12 297.145 1058.95 297.145C1061.38 296.739 1063.4 298.766 1063.4 301.604Z" fill="black"/>
<path d="M1064.22 351.869L1064.22 353.49C1064.22 356.733 1062.6 359.571 1059.36 359.571C1056.13 359.571 1054.51 357.139 1054.51 353.896L1053.7 352.274C1053.7 349.031 1056.13 346.599 1058.96 346.599C1062.2 346.193 1064.22 348.626 1064.22 351.869Z" fill="black"/>
<path d="M1065.02 402.136L1065.02 403.757C1065.02 407.406 1061.38 410.649 1057.74 410.649C1054.1 410.649 1050.45 407.811 1050.45 404.163C1050.45 404.163 1050.45 404.163 1050.45 403.757L1051.26 402.136C1051.26 398.487 1054.5 395.65 1058.55 395.65C1061.79 395.65 1065.02 398.487 1065.02 402.136Z" fill="black"/>
</g>
</mask>
<g mask="url(#mask0_113_5294)">
<path opacity="0.7" d="M-89.8925 324.013H1029.82V1162.72L79.2832 1177.06L-89.8925 324.013Z" fill="white"/>
</g>
<defs>
<clipPath id="clip0_113_5294">
<rect width="1330.47" height="1200" fill="white" transform="translate(-120 1330.47) rotate(-90)"/>
</clipPath>
</defs>
</svg>
