<svg width="85" height="93" viewBox="0 0 85 93" fill="none" xmlns="http://www.w3.org/2000/svg">
<g clip-path="url(#clip0_72_6357)">
<path d="M78.2267 10.1856L82.6789 72.6396C82.6789 72.6396 84.7231 90.8602 42.1201 90.8602C1.19081 90.8602 3.28727 73.7721 3.28727 73.7721L7.60984 21.0716L8.28027 9.64258C8.63043 3.6732 8.63038 1.1539 15.0837 1.08583C17.665 1.05871 17.9629 1.08566 19.8492 1.0856L68.0963 1.1539C74.0571 1.1539 77.8119 5.08742 78.2267 10.1856Z" fill="#FFCC5A" stroke="black" stroke-width="2.30805" stroke-miterlimit="10"/>
<path d="M2.29359 1.07617H14.9369C14.5211 17.6484 7.88515 16.6501 7.88515 16.6501C7.88515 14.7897 7.67076 14.5103 6.15553 13.3286L2.81798 11.3061C2.54854 11.1469 2.56302 10.767 2.83826 10.6217L7.67076 8.07957L8.40954 7.71361C9.20047 7.24709 9.07299 6.71353 8.60944 6.32523C8.60365 6.32243 8.60075 6.31685 8.59495 6.31405C6.61328 4.6938 2.01546 1.76618 2.01546 1.76618C1.73733 1.52034 1.91695 1.07617 2.29359 1.07617Z" fill="#FFCC5A"/>
<path d="M18.2617 1.07617H2.29359C1.91695 1.07617 1.73733 1.52034 2.01546 1.76618C2.01546 1.76618 6.61328 4.6938 8.59495 6.31405C8.60075 6.31685 8.60365 6.32243 8.60944 6.32523C9.07299 6.71353 9.20046 7.24709 8.40953 7.71362L7.67075 8.07957L2.83826 10.6217C2.56303 10.767 2.54854 11.1469 2.81798 11.3061L6.15553 13.3286C7.67075 14.5103 7.88515 14.7897 7.88515 16.6501" stroke="black" stroke-width="2.30849" stroke-miterlimit="10"/>
<path d="M53.1227 68.0669C47.3778 68.0669 39.9777 72.4311 32.6085 69.8651C24.8002 67.1462 32.6086 79.1827 43.3635 79.1827C58.301 79.1827 59.2968 68.0669 53.1227 68.0669Z" fill="white" stroke="black" stroke-width="1.99233"/>
<path d="M13.0538 30.6729L7.35339 35.3181V38.4148L8.38984 47.189L11.3264 53.3825L17.3724 54.9309H27.7368L34.301 51.4901L38.4468 42.8879L39.4832 34.2858L36.8921 30.6729L28.6005 29.1245H19.618L13.0538 30.6729Z" fill="#263238" stroke="black" stroke-width="0.329451"/>
<path d="M73.6834 30.8453L79.3839 35.4904V38.5872L78.3474 47.3614L75.4108 53.5549L69.3649 55.1033H59.0004L52.4363 51.6624L48.2905 43.0603L47.254 34.4582L49.8451 30.8453L58.1367 29.2969H67.1192L73.6834 30.8453Z" fill="#263238" stroke="black" stroke-width="0.329451"/>
<path d="M80.4596 29.7379C77.601 29.2057 74.7263 28.6734 71.8355 28.3186C65.1009 27.4799 58.3664 27.3186 51.6641 28.7057C46.3023 29.8186 40.9244 29.8509 35.5303 28.8186C31.7512 28.0767 27.9398 27.5767 24.0799 27.5767C21.2052 27.7863 18.3144 27.867 15.4558 28.2379C12.0966 28.6734 8.76972 29.3347 5.42667 29.8992C4.78067 30.0121 4.40922 30.3347 4.37692 31.0283C4.28002 33.4476 4.13467 35.867 4.07007 38.3025C4.07007 38.7218 4.31232 39.3347 4.65147 39.5283C5.29747 39.9315 5.39437 40.496 5.57202 41.1089C6.57332 44.3992 7.49387 47.7379 8.67282 50.9637C9.73872 53.8992 12.1612 55.496 15.1167 55.9799C19.8325 56.7379 24.5644 56.6411 29.2156 55.3992C31.945 54.6734 34.1575 53.2863 35.6595 50.7702C37.2099 48.1734 38.5019 45.4637 39.3901 42.5928C40.0684 40.4315 40.6498 38.2379 41.2797 36.0605C41.5542 35.0928 42.3294 34.9637 43.1692 34.9476C44.0575 34.9476 44.9457 34.9637 45.2849 36.0283C45.5917 36.996 45.8986 37.9799 46.1408 38.9637C47.1583 42.9476 48.531 46.7702 50.6305 50.3347C52.2617 53.125 54.6196 54.7218 57.6881 55.496C61.7256 56.5121 65.8115 56.5605 69.9136 56.2218C73.8381 55.8992 76.8743 54.1573 78.2147 50.3024C79.3129 47.1412 80.1689 43.8831 81.1379 40.6895C81.2348 40.3508 81.4932 40.0605 81.6708 39.7379C81.9615 39.2057 82.4783 38.6734 82.4945 38.1412C82.5268 36.0283 82.4622 33.9154 82.333 31.8186C82.2199 30.1089 82.1553 30.0444 80.4596 29.7379ZM38.3888 37.5283C38.082 40.4154 37.2422 43.1573 36.0309 45.7863C35.4657 46.996 34.7874 48.1573 34.1091 49.3186C32.7363 51.6573 30.6691 52.996 28.0205 53.6089C23.66 54.5928 19.3157 54.4799 14.9713 53.5766C13.3402 53.2379 12.1289 52.3024 11.3376 50.8347C8.70512 45.9476 8.18832 40.7702 9.35112 35.3992C9.62567 34.1573 10.5785 33.496 11.6283 32.9638C13.9862 31.7702 16.554 31.3831 19.138 31.1089C20.7369 30.9476 22.3357 30.9154 23.9346 30.8186C23.9184 30.8831 23.9507 30.7541 23.9346 30.8186C26.0082 30.8186 30.0554 31.3992 33.0755 31.8831C34.0283 32.0444 34.9812 32.4638 35.8694 32.8831C37.9851 33.8992 38.6311 35.1896 38.3888 37.5283ZM75.7761 49.8186C74.7586 52.0605 73.1598 53.4799 70.6565 53.7702C68.9769 53.9637 67.2812 54.1573 65.6016 54.3508C62.7269 54.3347 59.9006 54.0766 57.1551 53.1734C55.5886 52.6573 54.2804 51.7863 53.2953 50.4637C50.356 46.496 48.6441 42.0283 48.1919 37.125C47.9819 34.8508 49.0478 33.4315 51.1958 32.5605C54.3935 31.2702 57.7527 30.9476 61.1442 30.8509C64.6003 30.7702 68.0725 30.8347 71.4156 31.7379C72.966 32.1573 74.5002 32.7863 75.9053 33.5605C77.278 34.3186 77.3588 35.867 77.5526 37.2702C78.1501 41.625 77.5849 45.8024 75.7761 49.8186Z" fill="black"/>
</g>
<defs>
<clipPath id="clip0_72_6357">
<rect width="85" height="93" fill="white"/>
</clipPath>
</defs>
</svg>
