<svg width="714" height="310" viewBox="0 0 714 310" fill="none" xmlns="http://www.w3.org/2000/svg">
<g clip-path="url(#clip0_72_7948)">
<path d="M524.237 185.238L529.998 266.401C529.998 266.401 532.644 290.08 477.51 290.08C424.543 290.08 427.256 267.873 427.256 267.873L432.85 199.385L433.718 184.532C434.171 176.775 434.171 173.501 442.522 173.412C445.863 173.377 446.248 173.412 448.689 173.412L511.127 173.501C518.841 173.501 523.7 178.613 524.237 185.238Z" fill="#FFCC5A" stroke="black" stroke-width="3.36085" stroke-miterlimit="10"/>
<path d="M425.97 173.399H442.332C441.794 194.936 433.206 193.638 433.206 193.638C433.206 191.221 432.929 190.857 430.968 189.322L426.649 186.693C426.3 186.486 426.319 185.993 426.675 185.804L432.929 182.5L433.885 182.025C434.909 181.418 434.744 180.725 434.144 180.22C434.136 180.217 434.133 180.21 434.125 180.206C431.56 178.1 425.61 174.296 425.61 174.296C425.25 173.976 425.483 173.399 425.97 173.399Z" fill="#FFCC5A"/>
<path d="M446.635 173.399H425.97C425.483 173.399 425.25 173.976 425.61 174.296C425.61 174.296 431.56 178.1 434.125 180.206C434.133 180.21 434.136 180.217 434.144 180.22C434.744 180.725 434.909 181.418 433.885 182.025L432.929 182.5L426.675 185.804C426.319 185.993 426.3 186.486 426.649 186.693L430.968 189.322C432.929 190.857 433.206 191.221 433.206 193.638" stroke="black" stroke-width="3.36149" stroke-miterlimit="10"/>
<path d="M491.747 260.458C484.313 260.458 474.736 266.13 465.199 262.795C455.094 259.262 465.199 274.904 479.117 274.904C498.448 274.904 499.737 260.458 491.747 260.458Z" fill="white" stroke="black" stroke-width="2.90112"/>
<path d="M439.895 211.86L432.518 217.897V221.922L433.859 233.324L437.659 241.373L445.483 243.385H458.896L467.391 238.914L472.756 227.735L474.097 216.556L470.744 211.86L460.014 209.848H448.389L439.895 211.86Z" fill="#263238" stroke="black" stroke-width="0.479728"/>
<path d="M518.356 212.085L525.734 218.122V222.146L524.392 233.549L520.592 241.598L512.768 243.61H499.355L490.86 239.138L485.495 227.959L484.154 216.78L487.507 212.085L498.237 210.073H509.862L518.356 212.085Z" fill="#263238" stroke="black" stroke-width="0.479728"/>
<path d="M527.126 210.646C523.426 209.954 519.706 209.263 515.965 208.802C507.25 207.712 498.534 207.502 489.861 209.305C482.922 210.751 475.962 210.793 468.982 209.451C464.091 208.487 459.159 207.837 454.164 207.837C450.444 208.11 446.702 208.215 443.003 208.697C438.656 209.263 434.351 210.122 430.024 210.856C429.188 211.002 428.708 211.422 428.666 212.323C428.54 215.467 428.352 218.611 428.269 221.776C428.269 222.321 428.582 223.118 429.021 223.369C429.857 223.893 429.982 224.627 430.212 225.423C431.508 229.699 432.699 234.038 434.225 238.23C435.605 242.045 438.74 244.12 442.564 244.749C448.667 245.734 454.791 245.609 460.81 243.995C464.342 243.051 467.205 241.249 469.149 237.979C471.155 234.604 472.827 231.083 473.977 227.352C474.855 224.543 475.607 221.692 476.422 218.863C476.778 217.605 477.781 217.437 478.868 217.416C480.017 217.416 481.167 217.437 481.605 218.821C482.003 220.078 482.4 221.357 482.713 222.636C484.03 227.813 485.806 232.781 488.523 237.413C490.634 241.039 493.686 243.114 497.657 244.12C502.882 245.441 508.169 245.504 513.478 245.064C518.557 244.644 522.486 242.381 524.221 237.371C525.642 233.263 526.749 229.029 528.003 224.878C528.129 224.438 528.463 224.061 528.693 223.642C529.069 222.95 529.738 222.258 529.759 221.567C529.801 218.821 529.717 216.075 529.55 213.35C529.404 211.128 529.32 211.044 527.126 210.646ZM472.681 220.77C472.284 224.522 471.197 228.085 469.63 231.502C468.898 233.074 468.02 234.583 467.143 236.093C465.366 239.132 462.691 240.872 459.263 241.668C453.62 242.947 447.998 242.8 442.376 241.626C440.265 241.186 438.698 239.97 437.674 238.063C434.267 231.712 433.598 224.983 435.103 218.003C435.458 216.389 436.691 215.53 438.05 214.838C441.101 213.287 444.424 212.784 447.768 212.428C449.837 212.218 451.907 212.176 453.976 212.051C453.955 212.134 453.997 211.967 453.976 212.051C456.659 212.051 461.897 212.805 465.805 213.434C467.038 213.644 468.271 214.189 469.421 214.733C472.159 216.054 472.995 217.731 472.681 220.77ZM521.065 236.742C519.748 239.656 517.679 241.5 514.439 241.878C512.266 242.129 510.071 242.381 507.898 242.632C504.177 242.611 500.52 242.276 496.967 241.102C494.94 240.431 493.247 239.299 491.972 237.581C488.168 232.424 485.953 226.618 485.367 220.246C485.096 217.291 486.475 215.446 489.255 214.314C493.393 212.637 497.74 212.218 502.129 212.092C506.602 211.988 511.095 212.071 515.422 213.245C517.428 213.79 519.414 214.608 521.232 215.614C523.008 216.599 523.113 218.611 523.364 220.435C524.137 226.094 523.405 231.523 521.065 236.742Z" fill="black"/>
</g>
<path d="M10.0469 254.328C10.5156 255.266 11.4531 256.109 12.8594 256.859C14.2656 257.609 15.6719 257.984 17.0781 257.984C18.4844 257.984 19.6094 257.047 20.4531 255.172C21.3906 253.203 22.1875 250.953 22.8438 248.422C23.5 245.797 24.0156 243.172 24.3906 240.547C24.7656 237.828 25.4688 233.75 26.5 228.312C27.5312 222.781 28.8438 215.422 30.4375 206.234C32.125 196.953 34.0469 187.672 36.2031 178.391C44.1719 177.734 52.6562 176.188 61.6562 173.75C58.8438 183.031 56.2656 192.922 53.9219 203.422C49.6094 223.766 46.8438 236.984 45.625 243.078C44.5 249.078 43.2812 254.375 41.9688 258.969C40.75 263.469 39.1094 267.594 37.0469 271.344C32.2656 279.875 26.3125 284.141 19.1875 284.141C13.375 284.141 7 281.609 0.0625 276.547L10.0469 254.328ZM104.828 218.188C104.828 210.406 102.578 206.516 98.0781 206.516C92.3594 206.516 87.2031 209.328 82.6094 214.953C78.9531 219.453 75.8125 225.594 73.1875 233.375C71.125 239.75 70.0938 245.75 70.0938 251.375C70.0938 255.125 71.6875 257.938 74.875 259.812C75.8125 260.469 76.8906 260.797 78.1094 260.797C82.4219 260.797 86.2188 259.344 89.5 256.438C92.875 253.438 95.6875 249.781 97.9375 245.469C100.188 241.156 101.875 236.562 103 231.688C104.219 226.719 104.828 222.219 104.828 218.188ZM124.797 209.328C124.797 215.047 123.953 221.375 122.266 228.312C120.672 235.25 118.469 241.625 115.656 247.438C112.844 253.25 109.562 258.453 105.812 263.047C102.156 267.641 98.3125 271.531 94.2812 274.719C85.9375 281.281 77.9219 284.562 70.2344 284.562C63.7656 284.562 58.6562 282.219 54.9062 277.531C50.7812 272.375 48.7188 264.875 48.7188 255.031C48.7188 244.344 51.2031 232.812 56.1719 220.438C61.1406 208.062 67.6562 197.75 75.7188 189.5C84.4375 180.688 93.5781 176.281 103.141 176.281C111.016 176.281 116.781 179.469 120.438 185.844C123.344 191 124.797 198.828 124.797 209.328ZM157.562 179.656C146.875 234.031 140.359 267.875 138.016 281.188C135.391 281.188 130.844 281.609 124.375 282.453C117.906 283.297 114.578 283.766 114.391 283.859C117.391 272.984 120.156 261.125 122.688 248.281C128.5 218.938 132.625 197.234 135.062 183.172L157.562 179.656ZM166.703 178.531H170.781C172.656 178.531 177.906 178.344 186.531 177.969C187.844 184.719 189.062 191 190.188 196.812C193.188 213.5 195.25 224.234 196.375 229.016C196.75 227.047 197.172 224.797 197.641 222.266C198.109 219.734 198.625 217.109 199.188 214.391C199.75 211.578 200.312 208.719 200.875 205.812C201.812 201.219 203.734 191.984 206.641 178.109L224.219 176C214 223.344 207.625 257.328 205.094 277.953C203.969 277.953 200.078 278.75 193.422 280.344C186.859 281.938 182.922 282.969 181.609 283.438C179.734 257.75 177.672 239.562 175.422 228.875C175.141 230.656 174.766 232.766 174.297 235.203C173.828 237.547 173.359 240.078 172.891 242.797C171.109 253.016 168.766 265.344 165.859 279.781L144.766 284.703C155.453 233.797 161.688 198.359 163.469 178.391C164.781 178.484 165.859 178.531 166.703 178.531ZM256.422 181.625C258.484 181.438 260.875 181.203 263.594 180.922C266.406 180.641 269.125 180.406 271.75 180.219C274.469 179.938 277.281 179.656 280.188 179.375C277.75 190.906 275.828 200.047 274.422 206.797C273.016 213.547 271.891 218.938 271.047 222.969C270.203 227 269.453 230.703 268.797 234.078C267.297 241.203 266.312 245.844 265.844 248C264.438 254.469 263.734 258.641 263.734 260.516C263.734 262.391 264.109 263.844 264.859 264.875C265.703 265.812 266.781 266.281 268.094 266.281C269.5 266.281 270.719 265.625 271.75 264.312C272.875 263 273.766 261.453 274.422 259.672C275.172 257.891 275.734 256.062 276.109 254.188C276.484 252.312 276.859 250.438 277.234 248.562C277.703 246.594 278.266 243.922 278.922 240.547C279.672 237.078 280.375 233.516 281.031 229.859C281.781 226.109 282.531 222.312 283.281 218.469C285.25 208.625 287.547 196.156 290.172 181.062L311.969 179.656L311.266 183.312C310.141 189.219 308.875 196.062 307.469 203.844C306.156 211.531 304.938 218.188 303.812 223.812C300.906 238.438 298.75 248.844 297.344 255.031C295.938 261.125 293.969 266.094 291.438 269.938C289 273.781 286.141 276.969 282.859 279.5C276.578 284.188 269.312 286.531 261.062 286.531C256 286.531 251.641 285.125 247.984 282.312C243.859 278.938 241.797 274.484 241.797 268.953C241.797 268.578 241.797 268.203 241.797 267.828C241.797 267.453 241.891 266.188 242.078 264.031C242.359 261.875 242.922 258.031 243.766 252.5C244.609 246.875 245.5 241.062 246.438 235.062C247.469 228.969 248.547 222.875 249.672 216.781C250.797 210.688 251.828 205.156 252.766 200.188C254.828 189.5 256.047 183.312 256.422 181.625ZM350.219 210.453C350.688 208.578 350.922 206.609 350.922 204.547C350.922 202.484 350.406 200.844 349.375 199.625C348.344 198.312 347.219 197.656 346 197.656C344.875 197.656 343.75 197.938 342.625 198.5C341.5 199.062 340.375 199.812 339.25 200.75C336.625 202.906 335.312 205.25 335.312 207.781C335.312 210.219 335.969 212.234 337.281 213.828C338.594 215.328 340.188 216.734 342.062 218.047C344.031 219.359 346.141 220.719 348.391 222.125C350.641 223.531 352.75 225.312 354.719 227.469C359.219 232.719 361.469 239.703 361.469 248.422C361.469 258.922 357.625 267.594 349.938 274.438C342.625 281 333.391 284.281 322.234 284.281C313.984 284.281 306.438 279.969 299.594 271.344L310.281 250.391C311.594 253.016 314.125 255.406 317.875 257.562C321.625 259.812 324.438 260.938 326.312 260.938C328.188 260.938 329.734 260.75 330.953 260.375C332.266 260 333.438 259.438 334.469 258.688C336.812 257 337.984 254.984 337.984 252.641C337.984 250.203 337.234 248 335.734 246.031C334.234 244.062 332.359 242.188 330.109 240.406C327.953 238.625 325.562 236.844 322.938 235.062C320.406 233.188 318.062 231.219 315.906 229.156C310.656 224.469 308.031 219.547 308.031 214.391C308.031 209.234 309.484 204.5 312.391 200.188C315.391 195.875 319.094 192.172 323.5 189.078C328 185.891 332.875 183.406 338.125 181.625C343.469 179.75 347.969 178.812 351.625 178.812C355.281 178.812 358.234 179.141 360.484 179.797C362.828 180.453 364.844 181.438 366.531 182.75C370.188 185.75 372.016 190.156 372.016 195.969C372.016 197.375 371.875 198.734 371.594 200.047C371.406 201.359 371.219 202.812 371.031 204.406L350.219 210.453Z" fill="white"/>
<path d="M672.149 99.7035C671.169 91.3076 658.736 45.7351 598.147 36.9095C537.525 28.1783 511.028 79.9284 515.471 108.08C520.207 137.817 539.658 164.868 603.764 169.098C603.764 169.098 597.876 179.857 577.439 192.83C576.896 193.17 571.761 196.033 571.761 196.033C571.761 196.033 682.878 188.863 672.149 99.7035Z" fill="#FF0042"/>
<path d="M687.634 115.087C699.937 75.4248 661.886 36.1369 629.272 32.4479C658.434 42.6628 691.099 72.223 687.634 115.087Z" fill="white"/>
<path opacity="0.5" d="M687.218 136.239L666.478 112.869L663.041 116.327C656.777 122.716 651.188 128.387 646.369 133.374C647.002 129.146 645.578 125.045 642.096 121.07L651.907 124.824L653.946 121.724C655.532 119.313 656.831 117.119 657.907 114.953C664.598 101.297 658.04 93.702 653.472 90.4068C651.439 88.9528 649.211 87.7488 646.758 86.8893C640.34 84.6414 632.312 84.2666 622.581 85.732C621.566 85.9063 620.552 86.0807 619.537 86.2551L622.549 79.4695L627.758 67.6253L606.217 57.4311L585.02 47.4636C585.02 47.4636 579.506 56.5516 577.428 60.0622L564.641 52.4044L554.747 62.5013C555.692 58.594 556.532 55.286 557.302 52.4829L558.842 46.8767L525.524 45.8021L525.82 72.183L526.094 91.6691L506.952 110.924L532.372 123.96L534.723 121.181C539.812 115.123 545.505 108.852 551.863 102.497C550.758 104.441 549.786 106.007 548.974 107.418L546.15 112.151L551.308 114.063C559.297 116.968 566.559 119.829 572.972 122.394C576.648 123.999 580.041 125.505 583.306 127.073L581.357 128.403L583.39 131.976C585.947 136.474 589.146 140.35 592.769 143.314C595.676 145.604 598.842 147.455 602.334 148.678C603.75 149.174 605.293 149.608 606.775 149.915C615.727 151.885 623.731 151.722 630.787 149.426C630.753 149.52 630.626 149.581 630.593 149.676C629.149 151.077 627.926 152.45 629.2 153.956C627.812 153.682 626.359 153.596 624.967 153.638C622.909 153.765 621.002 154.369 619.308 155.577C617.552 156.657 616.107 158.058 615.102 159.719C614.162 161.191 613.567 162.89 613.222 164.783C612.844 166.769 612.91 168.699 613.325 170.54C613.773 172.286 614.475 173.91 615.494 175.538C616.702 177.233 618.103 178.677 619.731 179.777C620.953 180.523 622.209 181.175 623.53 181.638C623.907 181.77 624.285 181.902 624.662 182.034C626.583 182.601 628.575 182.663 630.604 182.314C632.412 181.994 634.13 181.324 635.63 180.366C637.353 179.38 638.765 178.074 639.898 176.351C640.87 174.785 641.56 173.119 641.872 171.321C641.98 170.405 642.122 169.396 642.042 168.414L642.788 169.311L687.218 136.239ZM629.895 110.227C629.862 110.321 629.795 110.51 629.635 110.666L629.243 111.482C627.927 110.703 626.893 110.023 626.082 109.315C627.158 109.268 628.073 109.377 628.828 109.641C629.206 109.774 629.55 110 629.895 110.227Z" fill="black"/>
<path d="M687.2 133.266L666.46 109.896L663.023 113.354C656.759 119.743 651.17 125.414 646.351 130.401C646.984 126.173 645.56 122.071 642.078 118.097L651.888 121.851L653.928 118.751C655.514 116.34 656.813 114.146 657.889 111.98C664.58 98.3238 658.022 90.7288 653.454 87.4337C651.42 85.9796 649.193 84.7757 646.739 83.9162C640.322 81.6682 632.294 81.2935 622.563 82.7588C621.548 82.9332 620.533 83.1076 619.519 83.2819L622.531 76.4963L627.74 64.6521L606.198 54.458L585.002 44.4904C585.002 44.4904 579.487 53.5784 577.41 57.0891L564.59 49.5257L554.696 59.6226C555.64 55.7152 556.481 52.4072 557.251 49.6041L558.791 43.998L525.473 42.9233L525.769 69.3043L526.042 88.7903L506.934 107.951L532.354 120.987L534.705 118.208C539.793 112.149 545.486 105.879 551.845 99.5235C550.74 101.468 549.768 103.034 548.955 104.445L546.132 109.178L551.29 111.09C559.279 113.995 566.541 116.856 572.954 119.42C576.63 121.026 580.023 122.532 583.288 124.1L581.339 125.43L583.372 129.003C585.929 133.501 589.128 137.377 592.751 140.341C595.658 142.631 598.824 144.481 602.316 145.705C603.732 146.2 605.275 146.635 606.757 146.942C615.709 148.912 623.712 148.749 630.768 146.452C630.735 146.547 630.608 146.608 630.575 146.702C629.13 148.104 627.908 149.477 629.182 150.982C627.794 150.708 626.341 150.623 624.948 150.665C622.891 150.792 620.984 151.396 619.29 152.604C617.534 153.684 616.089 155.085 615.084 156.746C614.144 158.218 613.549 159.917 613.204 161.809C612.826 163.796 612.892 165.726 613.307 167.567C613.755 169.313 614.457 170.937 615.476 172.565C616.684 174.26 618.085 175.704 619.713 176.804C620.935 177.55 622.19 178.202 623.512 178.664C623.889 178.797 624.267 178.929 624.644 179.061C626.565 179.628 628.556 179.69 630.586 179.341C632.393 179.021 634.111 178.351 635.612 177.393C637.335 176.407 638.746 175.1 639.88 173.378C640.852 171.812 641.542 170.146 641.853 168.348C641.962 167.432 642.104 166.422 642.024 165.441L642.769 166.338L687.2 133.266ZM629.843 107.348C629.81 107.442 629.744 107.631 629.584 107.787L629.192 108.603C627.875 107.824 626.842 107.144 626.03 106.436C627.106 106.389 628.022 106.498 628.777 106.763C629.249 106.928 629.593 107.155 629.843 107.348Z" fill="black"/>
<path d="M510.116 104.615L527.746 86.9502L527.487 66.5156L527.186 42.5698L555.256 43.5016L554.486 46.3047C553.65 49.2965 552.71 52.8877 551.761 57.1112C551.189 59.348 550.773 61.7453 550.485 64.0813L564.396 49.7758L585.705 62.7495L583.175 64.8301C572.861 73.4026 563.246 81.7959 554.74 90.0479C546.361 98.2385 538.776 106.283 532.237 114.059L531.109 115.465L510.116 104.615Z" fill="black"/>
<path d="M581.684 63.0368C571.243 71.6706 561.722 80.0969 553.122 88.3159C544.616 96.5678 537.124 104.645 530.459 112.483L513.92 104.04L529.945 87.9327L529.606 66.5165L529.427 44.9445L552.155 45.7004C551.319 48.6923 550.379 52.2834 549.43 56.5069C548.381 61.0136 547.648 65.5251 547.482 70.2349L564.669 52.6267L581.684 63.0368Z" fill="#FFDB89"/>
<path d="M589.919 122.714C585.087 120.174 579.467 117.464 573.12 114.711C566.741 112.052 559.351 109.252 551.362 106.348L548.719 105.422L550.117 102.945C552.128 99.6229 554.984 94.7958 558.521 88.9353L567.085 74.77C574.577 62.4545 580.191 53.0833 584.114 46.7227L585.153 44.9674L604.434 54.052L623.964 63.3301L619.705 73.0697L615.219 83.1537L613.087 81.9828C609.699 80.1604 606.466 78.4984 603.39 76.9969C600.846 75.7881 598.397 74.6124 595.948 73.4368C595.174 74.4371 594.721 75.126 594.334 75.6261L593.333 76.9709L598.108 79.0674L607.791 82.8829L604.033 90.8907L600.591 98.9032L598.42 98.1428C593.423 96.0746 590.313 94.6675 588.836 94.0442C586.982 93.2886 585.221 92.5662 583.744 91.9429L581.639 95.2317L589.146 98.6031L601.052 103.939L596.632 113.834L592.085 123.791L589.919 122.714Z" fill="black"/>
<path d="M604.433 74.9253C601.229 73.4852 598.247 72.0167 595.265 70.5483C593.943 72.2045 593.069 73.4879 592.489 74.2381L589.807 77.961L597.254 81.205L604.705 84.1327L602.023 89.9746L599.402 95.9438C594.499 93.9086 591.295 92.4685 589.913 91.8782C587.303 90.8582 585.01 89.843 582.966 89.0214L578.241 96.1605L588.136 100.58L597.937 104.967L594.466 112.757L590.901 120.515C586.008 117.848 580.355 115.232 573.914 112.446C567.345 109.721 560.05 106.954 552 103.922C553.85 100.756 556.64 96.1175 560.37 90.0069L569.123 75.9078C576.616 63.5923 582.229 54.2211 586.152 47.8605L603.517 56.0621L620.977 64.2968L617.539 71.9931L614.069 79.7838C610.709 78.1832 607.415 76.3937 604.433 74.9253Z" fill="#FFDB89"/>
<path d="M602.294 140.929C599.085 139.805 596.169 138.148 593.418 136.019C590.044 133.247 587.062 129.66 584.534 125.384L583.487 123.534L585.181 122.326C588.41 120.066 593.422 116.948 600.247 113.193L601.555 112.485C598.993 110.422 597.285 108.341 596.559 106.179C593.823 100.983 595.4 97.0848 597.08 94.7067C601.254 88.5396 609.41 84.6151 622.058 82.688C631.346 81.2792 639.09 81.5548 645.13 83.6705C647.395 84.4639 649.467 85.5073 651.312 86.8953C656.129 90.384 660.677 97.0629 654.969 108.52C653.925 110.591 652.66 112.691 651.107 115.008L650.134 116.575L640.229 112.787L629.73 108.58L630.934 106.353C632.01 104.187 631.355 103.639 630.854 103.252C630.293 102.738 629.571 102.379 628.816 102.114C627.589 101.684 626.041 101.566 624.3 101.698C622.426 102.207 621.845 102.957 621.586 103.396C621.708 103.651 622.204 104.354 623.671 105.61C624.733 106.512 626.205 107.451 627.993 108.395C631.098 110.119 633.726 111.993 635.977 113.735C641.757 118.408 644.215 123.19 643.255 128.046C643.076 129.466 642.674 130.915 642.117 132.203L642.084 132.297L642.051 132.392C639.997 136.44 636.155 139.545 630.435 141.356C623.596 143.94 615.526 144.292 606.385 142.256C605.064 141.793 603.709 141.425 602.294 140.929ZM603.584 114.256C604.683 116.866 606.202 118.881 608.108 120.396C608.858 120.977 609.736 121.496 610.868 121.893L611.057 121.959L611.246 122.025C612.407 122.644 613.695 123.201 614.827 123.598C615.582 123.862 616.243 124.094 617.031 124.264C618.796 124.67 619.556 124.618 619.778 124.59C619.716 124.463 619.476 123.637 617.725 122.282C616.164 120.993 613.625 119.468 610.176 117.518C607.382 116.116 605.094 114.785 603.371 113.651L603.584 114.256Z" fill="black"/>
<path d="M653.058 107.321C652.08 109.203 650.815 111.303 649.356 113.653C647.69 112.964 644.953 112.005 641.244 110.494L633.166 107.24C634.469 104.73 634.215 102.734 632.497 101.284C630.341 99.5755 627.505 98.9 624.083 99.2909C621.638 99.9179 620.104 100.97 619.476 102.763C619.174 103.929 620.132 105.43 622.444 107.299C623.6 108.234 625.166 109.206 627.016 110.278C630.026 111.968 632.593 113.715 634.655 115.391C639.779 119.517 641.869 123.533 641.113 127.507C640.872 128.8 640.57 129.966 640.045 131.159C638.284 134.675 634.829 137.279 629.774 139.005C623.285 141.5 615.691 141.701 607.022 139.83C602.577 138.909 598.462 137.044 594.9 134.207C591.682 131.596 588.917 128.297 586.639 124.214C589.74 122.015 594.72 118.992 601.483 115.109C602.766 118.102 604.502 120.405 606.626 122.208C607.532 122.949 608.692 123.568 610.108 124.064C612.241 125.235 614.284 126.056 616.46 126.5C619.39 127.209 621.07 126.95 621.722 125.695C622.567 124.189 621.675 122.5 619.113 120.437C617.457 119.115 614.857 117.463 611.219 115.447C607.515 113.619 604.788 112.028 603.07 110.579C600.758 108.71 599.362 106.949 598.725 105.137C596.847 101.724 596.99 98.5953 599.025 95.8114C602.778 90.2388 610.613 86.6257 622.501 84.7503C634.706 82.8797 643.922 84.0948 649.99 88.5513C656.091 92.9134 657.071 99.1903 653.058 107.321Z" fill="#FFDB89"/>
<path d="M623.334 173.728C622.201 173.332 621.135 172.746 620.101 172.066C618.723 171.16 617.539 170.003 616.487 168.469C615.591 167.096 615.011 165.727 614.685 164.236C614.266 162.711 614.29 161.13 614.663 159.46C615.003 157.884 615.499 156.468 616.278 155.151C617.057 153.835 618.308 152.684 619.776 151.82C621.149 150.924 622.707 150.41 624.354 150.245C625.874 150.142 627.294 150.321 628.776 150.629C629.153 150.761 629.564 150.799 630.036 150.964C631.074 151.328 632.173 151.819 633.112 152.465C634.49 153.372 635.708 154.434 636.67 155.619L636.731 155.746L636.793 155.874C637.689 157.247 638.297 158.838 638.651 160.551C638.943 162.137 638.919 163.718 638.739 165.138C638.432 166.62 637.936 168.036 637.063 169.319C636.157 170.697 635.033 171.787 633.598 172.556C632.258 173.358 630.889 173.938 629.303 174.23C627.623 174.489 626.042 174.465 624.405 173.997C624.027 173.865 623.711 173.86 623.334 173.728ZM640.733 158.843C633.24 150.285 630.41 147.174 630.098 146.853L632.572 144.329C634.049 142.834 637.807 139.064 647.219 129.434C652.039 124.447 657.661 118.681 663.925 112.293L665.69 110.58L683.071 130.231L642.101 160.382L640.733 158.843Z" fill="black"/>
<path d="M618.342 167.106C617.663 166.02 617.111 164.873 616.814 163.604C616.517 162.334 616.503 161.164 616.777 159.776C617.018 158.483 617.448 157.256 618.095 156.318C618.775 155.284 619.61 154.411 620.917 153.704C621.909 152.991 623.117 152.567 624.415 152.492C625.713 152.416 626.944 152.53 628.204 152.865C629.37 153.168 630.658 153.725 631.786 154.438C633.008 155.184 633.975 156.052 634.782 157.077C635.556 158.195 636.041 159.531 636.305 160.895C636.569 162.259 636.55 163.524 636.342 164.722C636.134 165.921 635.643 167.02 635.058 168.087C634.378 169.12 633.542 169.993 632.395 170.545C631.31 171.224 630.102 171.649 628.832 171.946C627.468 172.21 626.236 172.096 624.976 171.761C623.716 171.425 622.523 170.901 621.428 170.094C620.206 169.348 619.272 168.385 618.342 167.106ZM633.26 146.901C633.227 146.996 638.462 141.73 648.871 131.072C653.69 126.085 659.279 120.414 665.576 113.931L679.693 129.895L642.432 157.319C636.308 150.3 633.166 146.868 633.26 146.901Z" fill="#FFDB89"/>
<defs>
<clipPath id="clip0_72_7948">
<rect width="110" height="120.86" fill="white" transform="translate(423 172)"/>
</clipPath>
</defs>
</svg>
