<svg width="244" height="189" viewBox="0 0 244 189" fill="none" xmlns="http://www.w3.org/2000/svg">
<path d="M173.325 168.282C166.183 168.282 156.611 165.051 150.989 150.028C148.71 144.212 147.495 137.428 147.191 130.158C147.039 123.373 147.799 115.781 149.47 107.704C152.205 93.8112 157.675 81.0493 165.576 69.7413C175.3 55.8487 186.391 48.9023 198.243 48.9023C198.547 48.9023 198.699 48.9023 199.002 48.9023C206.599 49.0639 216.931 52.6178 222.553 68.449L223.313 70.7106L204.168 92.6804L201.585 88.6418C200.674 87.1879 199.458 86.5417 197.483 86.5417C192.925 86.5417 188.367 90.4188 184.112 98.0113C180.618 104.473 177.883 111.581 176.211 119.496C175.604 122.404 175.3 125.15 175.3 127.412C175.3 130.481 176.059 132.743 177.427 134.52C178.794 136.135 180.466 136.943 182.745 136.943L183.049 136.943C186.087 136.781 188.822 135.166 191.557 131.774C192.621 130.481 193.533 129.189 194.444 127.574C190.798 128.543 187.303 129.512 184.112 130.481L178.49 132.097L183.808 102.373L225.136 92.6804L225.288 97.3651C225.592 103.827 224.376 111.419 221.641 119.658C219.362 126.927 216.324 133.551 212.829 139.689C202.345 158.105 189.43 167.798 174.388 168.444C173.932 168.282 173.628 168.282 173.325 168.282Z" fill="black"/>
<path d="M174.156 158.941C164.961 159.248 158.217 154.343 154.079 143.922C151.934 138.711 150.708 132.887 150.554 126.297C150.401 120.167 151.167 113.27 152.7 105.914C155.459 93.1933 160.669 81.6989 168.332 71.4306C177.681 58.8634 187.949 52.8863 198.984 53.1929C208.486 53.4994 215.383 58.8634 219.367 69.4382L204.808 85.2238C203.122 82.7717 200.823 81.5456 197.758 81.5456C191.781 81.5456 186.11 85.6836 181.053 94.2661C177.221 100.703 174.463 107.906 172.624 115.722C171.857 118.787 171.551 121.699 171.704 124.151C171.857 127.83 172.777 130.895 174.616 133.194C176.762 135.646 179.52 136.872 183.045 136.872C187.183 136.719 190.861 134.726 194.386 130.742C197.145 127.676 199.291 123.692 200.976 119.094C194.54 120.473 188.562 122.006 183.045 123.538L186.723 103.615L221.819 95.7986C222.126 101.622 220.9 108.213 218.448 115.569C216.149 122.159 213.39 128.289 209.865 133.807C199.904 149.899 187.949 158.481 174.156 158.941Z" fill="#FF0042"/>
<path d="M100.383 73.8059C97.9398 74.8211 95.6538 75.7354 93.3521 76.7693C93.53 67.7887 94.0554 57.2723 94.9283 45.2201C120.278 35.7979 147.881 27.8906 177.454 21.4607C175.73 32.3053 174.779 42.7654 174.317 52.8035C159.421 55.213 144.209 58.9192 128.555 63.7837L127.567 84.3381C139.675 80.0995 149.394 74.3151 158.663 71.8912C157.067 81.7791 156.817 92.3451 155.821 98.7839C148.728 100.036 138.875 102.504 126.374 106.447C125.119 126.845 123.786 143.46 122.393 156.173C110.08 161.966 100.085 166.606 92.1548 169.816C96.0023 135.282 98.6664 103.146 100.383 73.8059Z" fill="black"/>
<path d="M101.988 73.1051L102.084 71.496L100.599 72.1248C100.06 72.3531 99.5271 72.577 98.9986 72.799C97.8181 73.2948 96.6601 73.7812 95.5072 74.2869C95.7112 66.3749 96.1892 57.2377 96.9421 46.8736C119.82 38.2338 144.677 30.9359 171.273 24.9497C169.834 34.3891 168.999 43.5127 168.56 52.2918C154.956 54.5981 141.074 58.0794 126.803 62.6096L126.141 62.8197L126.107 63.5134L125.153 82.8518L125.079 84.3463L126.488 83.8427C137.056 80.0663 146.451 76.9565 154.656 74.6958C153.648 80.9982 152.798 86.557 152.069 91.3243C151.84 92.8221 151.623 94.2418 151.417 95.5818C144.845 96.8195 135.905 99.139 124.697 102.75L124.048 102.959L124.005 103.64C122.822 122.529 121.577 137.959 120.285 149.828C109.887 154.811 101.312 158.866 94.3626 161.804C97.8951 129.933 100.368 100.249 101.988 73.1051Z" fill="#FF0042" stroke="black" stroke-width="2"/>
<path d="M32.0869 115.368C30.2118 80.1211 28.3668 54.907 26.6446 40.0858L26.3954 37.3123L29.0031 36.3538C40.8834 32.1574 52.2809 29.3847 62.904 27.8019L66.7837 27.2918L70.1744 113.51C79.9589 111.064 89.4379 109.231 98.7393 108.208L102.257 107.789L102.726 111.12C104.377 122.357 104.826 132.821 103.819 142.117L103.613 144.621L101.24 145.291C85.551 149.673 64.4897 153.559 38.6745 157.254L34.7948 157.764L32.0869 115.368Z" fill="black"/>
<path d="M62.206 33.1705L65.2273 117.167L65.25 117.799L65.8592 117.632C76.432 114.733 86.6743 112.568 96.6738 111.469C98.2035 121.905 98.5519 131.29 97.6939 139.772C82.7054 143.842 62.9332 147.675 38.3704 151.269L36.0039 114.321C36.0039 114.32 36.0038 114.319 36.0038 114.318C34.2946 80.0992 32.6851 55.8212 31.0882 41.1527C42.0389 37.3151 52.4215 34.6077 62.206 33.1705Z" fill="#FF0042" stroke="black"/>
</svg>
