<svg width="200" height="154" viewBox="0 0 200 154" fill="none" xmlns="http://www.w3.org/2000/svg">
<path d="M141.475 137.113C135.628 137.113 127.791 134.468 123.188 122.167C121.322 117.406 120.327 111.851 120.078 105.899C119.954 100.344 120.576 94.1276 121.944 87.5145C124.183 76.1398 128.662 65.691 135.131 56.4326C143.092 45.058 152.174 39.3707 161.877 39.3707C162.126 39.3707 162.25 39.3707 162.499 39.3707C168.719 39.5029 177.178 42.4127 181.781 55.3745L182.403 57.2262L166.728 75.214L164.614 71.9074C163.867 70.717 162.872 70.188 161.255 70.188C157.523 70.188 153.791 73.3623 150.308 79.5787C147.446 84.8692 145.207 90.6888 143.839 97.1697C143.341 99.5504 143.092 101.799 143.092 103.651C143.092 106.164 143.714 108.015 144.834 109.47C145.953 110.793 147.322 111.454 149.188 111.454L149.437 111.454C151.925 111.322 154.164 109.999 156.403 107.222C157.274 106.164 158.02 105.105 158.767 103.783C155.781 104.576 152.92 105.37 150.308 106.164L145.705 107.486L150.059 83.1498L183.896 75.214L184.02 79.0496C184.269 84.3402 183.274 90.5565 181.035 97.302C179.169 103.254 176.681 108.677 173.819 113.703C165.236 128.781 154.662 136.716 142.346 137.245C141.973 137.113 141.724 137.113 141.475 137.113Z" fill="black"/>
<path d="M142.157 129.466C134.628 129.717 129.107 125.701 125.719 117.169C123.962 112.902 122.959 108.134 122.833 102.738C122.708 97.7191 123.335 92.0725 124.59 86.0495C126.849 75.6346 131.115 66.2235 137.389 57.8164C145.043 47.527 153.45 42.6332 162.485 42.8842C170.265 43.1351 175.911 47.527 179.174 56.1851L167.253 69.1096C165.873 67.1019 163.991 66.0981 161.481 66.0981C156.587 66.0981 151.945 69.486 147.804 76.5129C144.667 81.7831 142.408 87.6807 140.902 94.0802C140.275 96.5898 140.024 98.9739 140.149 100.982C140.275 103.993 141.028 106.503 142.534 108.385C144.29 110.393 146.549 111.397 149.435 111.397C152.823 111.271 155.835 109.64 158.721 106.377C160.979 103.868 162.736 100.605 164.116 96.8408C158.846 97.9701 153.952 99.2249 149.435 100.48L152.447 84.1673L181.182 77.7677C181.433 82.536 180.429 87.9317 178.421 93.9547C176.539 99.3504 174.28 104.37 171.394 108.887C163.238 122.062 153.45 129.089 142.157 129.466Z" fill="#FF0042"/>
<path d="M81.7554 59.7605C79.7547 60.5916 77.8831 61.3402 75.9985 62.1867C76.1441 54.8339 76.5743 46.2235 77.289 36.3558C98.0442 28.6414 120.644 22.1673 144.857 16.9027C143.446 25.7818 142.667 34.346 142.289 42.5647C130.092 44.5375 117.638 47.5719 104.821 51.5547L104.012 68.3837C113.925 64.9134 121.883 60.1774 129.472 58.1928C128.165 66.2886 127.961 74.9395 127.145 80.2112C121.337 81.2361 113.271 83.2571 103.035 86.4856C102.007 103.186 100.917 116.79 99.7758 127.199C89.6945 131.942 81.5108 135.741 75.0183 138.369C78.1684 110.094 80.3496 83.783 81.7554 59.7605Z" fill="black"/>
<path d="M83.2494 59.1982L83.3454 57.5891L81.8611 58.2179C81.4209 58.4044 80.9852 58.5874 80.5529 58.7689C79.675 59.1376 78.811 59.5005 77.9514 59.8748C78.1215 53.4957 78.5074 46.151 79.1099 37.839C97.7278 30.8144 117.948 24.8744 139.577 19.9952C138.43 27.5853 137.759 34.9251 137.401 41.9922C126.299 43.8822 114.972 46.7261 103.332 50.4214L102.67 50.6316L102.635 51.3253L101.854 67.1586L101.78 68.6531L103.189 68.1496C111.723 65.0998 119.32 62.5823 125.968 60.7396C125.161 65.7858 124.48 70.2444 123.894 74.0773C123.713 75.2565 123.542 76.3764 123.379 77.436C118 78.4571 110.716 80.3519 101.606 83.2871L100.957 83.4961L100.915 84.1764C99.949 99.5873 98.9336 112.184 97.8806 121.884C89.5484 125.877 82.6536 129.137 77.0398 131.522C79.9141 105.541 81.9282 81.3378 83.2494 59.1982Z" fill="#FF0042" stroke="black" stroke-width="2"/>
<path d="M25.836 93.7898C24.3007 64.9315 22.7901 44.2875 21.38 32.1526L21.176 29.8818L23.3111 29.097C33.0381 25.6612 42.3698 23.391 51.0675 22.0951L54.244 21.6775L57.0202 92.2688C65.0312 90.266 72.7922 88.765 80.4078 87.9279L83.2876 87.5844L83.6721 90.3121C85.0235 99.5125 85.3916 108.08 84.5668 115.691L84.3984 117.741L82.4553 118.29C69.6098 121.877 52.3658 125.059 31.2296 128.084L28.053 128.502L25.836 93.7898Z" fill="black"/>
<path d="M50.4078 26.5935L52.8779 95.265L52.9006 95.8962L53.5098 95.7292C62.1325 93.365 70.4848 91.5982 78.6383 90.6958C79.8756 99.1747 80.1579 106.802 79.4667 113.698C67.2268 117.018 51.0947 120.145 31.0635 123.078L29.1323 92.9268C29.1323 92.9257 29.1322 92.9245 29.1321 92.9234C27.7355 64.9629 26.4202 45.1064 25.1149 33.0863C34.0143 29.9714 42.4532 27.77 50.4078 26.5935Z" fill="#FF0042" stroke="black"/>
</svg>
