<svg width="378" height="416" viewBox="0 0 378 416" fill="none" xmlns="http://www.w3.org/2000/svg">
<g clip-path="url(#clip0_72_5944)">
<path d="M347.887 45.4877L367.686 324.394C367.686 324.394 376.777 405.763 187.319 405.763C5.30383 405.763 14.6269 329.452 14.6269 329.452L33.8496 94.1021L36.8311 43.0626C38.3883 16.4046 38.388 5.15391 67.0863 4.84993C78.5656 4.72883 79.8902 4.84916 88.2789 4.84891L302.836 5.15391C329.345 5.15391 346.042 22.7202 347.887 45.4877Z" fill="#FFCC5A" stroke="black" stroke-width="11.5491" stroke-miterlimit="10"/>
<path d="M10.2014 4.80762H66.4269C64.5779 78.8157 35.0674 74.3577 35.0674 74.3577C35.0674 66.0491 34.114 64.8016 27.3757 59.5245L12.5334 50.4923C11.3352 49.7812 11.3996 48.0846 12.6236 47.4359L34.114 36.0833L37.3994 34.449C40.9167 32.3657 40.3498 29.9829 38.2884 28.2488C38.2626 28.2363 38.2497 28.2114 38.224 28.1989C29.4114 20.9632 8.96456 7.88903 8.96456 7.88903C7.72771 6.7912 8.52651 4.80762 10.2014 4.80762Z" fill="#FFCC5A"/>
<path d="M81.2128 4.80762H10.2014C8.52651 4.80762 7.72771 6.7912 8.96457 7.88903C8.96457 7.88903 29.4114 20.9632 38.224 28.1989C38.2497 28.2114 38.2626 28.2363 38.2884 28.2488C40.3498 29.9829 40.9167 32.3657 37.3994 34.449L34.114 36.0833L12.6236 47.4359C11.3996 48.0846 11.3352 49.7813 12.5334 50.4923L27.3757 59.5245C34.114 64.8016 35.0674 66.0491 35.0674 74.3577" stroke="black" stroke-width="11.5513" stroke-miterlimit="10"/>
<path d="M236.233 303.973C210.685 303.973 177.776 323.462 145.005 312.003C110.281 299.861 145.005 353.614 192.833 353.614C259.261 353.614 263.69 303.973 236.233 303.973Z" fill="white" stroke="black" stroke-width="9.96929"/>
</g>
<path d="M229.413 175.925H211.758C211.758 171.22 202.406 165.742 190.341 165.742C178.276 165.742 168.924 171.22 168.924 175.925H151.27C151.27 161.037 168.441 149.386 190.341 149.386C212.242 149.386 229.413 161.037 229.413 175.925Z" fill="black"/>
<path fill-rule="evenodd" clip-rule="evenodd" d="M81.8072 149.631C81.5517 146.559 79.2212 137.605 72.942 124.813C66.6706 112.021 71.711 104.224 81.2962 104.686C90.8891 105.147 89.6426 96.3057 97.447 96.3057C105.251 96.3057 104.005 105.147 113.59 104.686C123.175 104.224 128.223 112.021 121.944 124.813C115.673 137.605 113.342 146.559 113.079 149.631C110.811 176.824 84.0835 176.824 81.8072 149.631Z" fill="#409B1B" stroke="black" stroke-width="10.3208"/>
<path fill-rule="evenodd" clip-rule="evenodd" d="M97.3647 130.676C135.171 130.676 165.819 156.019 165.819 187.283C165.819 218.547 168.927 243.89 97.3647 243.89C25.8022 243.89 28.9105 218.547 28.9105 187.283C28.9105 156.019 59.5579 130.676 97.3647 130.676Z" fill="#409B1B" stroke="black" stroke-width="10.3208"/>
<path fill-rule="evenodd" clip-rule="evenodd" d="M65.6398 122.206H129.099C131.521 122.206 133.509 123.492 133.509 125.059C133.509 126.626 131.521 127.912 129.099 127.912H65.6398C63.2176 127.912 61.2305 126.626 61.2305 125.059C61.2305 123.492 63.2176 122.206 65.6398 122.206Z" fill="black"/>
<path fill-rule="evenodd" clip-rule="evenodd" d="M65.6398 127.911H129.099C131.521 127.911 133.509 129.197 133.509 130.764C133.509 132.332 131.521 133.617 129.099 133.617H65.6398C63.2176 133.617 61.2305 132.332 61.2305 130.764C61.2305 129.197 63.2176 127.911 65.6398 127.911Z" fill="black"/>
<path d="M104.735 157.251C107.854 157.967 110.454 159.15 112.537 160.798C115.427 163.103 117.272 166.176 118.08 170.034L106.382 171.312C106.061 169.948 105.512 168.783 104.745 167.816V157.251H104.735ZM104.735 181.195C110.04 182.706 113.78 184.544 115.945 186.702C118.629 189.361 119.965 192.762 119.965 196.931C119.965 201.575 118.277 205.494 114.909 208.679C112.298 211.147 108.9 212.865 104.725 213.858V204.682C105.357 204.311 105.937 203.862 106.465 203.353C107.916 201.92 108.641 200.245 108.641 198.312C108.641 196.586 108.03 195.118 106.807 193.867C106.268 193.314 105.574 192.814 104.725 192.373V181.195H104.735ZM94.1254 205.485V189.344C93.079 189.093 92.0844 188.826 91.1415 188.532V176.871C91.9704 177.44 92.9547 177.941 94.1254 178.355V165.019C92.9754 165.339 91.9911 165.805 91.1415 166.409V157.018C92.0947 156.836 93.0894 156.707 94.1254 156.621V152.805H100.819V156.621C102.207 156.759 103.512 156.975 104.735 157.259V167.825C103.782 166.633 102.476 165.744 100.819 165.149V180.211C102.207 180.522 103.512 180.859 104.735 181.204V192.391C103.668 191.838 102.362 191.381 100.819 191.018V206.037C102.3 205.813 103.606 205.364 104.735 204.699V213.875C103.502 214.168 102.197 214.402 100.819 214.566V221.773H94.1254V214.747C93.0894 214.643 92.0947 214.496 91.1415 214.307V203.733C92.074 204.466 93.0686 205.062 94.1254 205.485ZM91.1415 188.532C86.5931 187.125 83.1533 185.226 80.8117 182.809C78.0039 179.892 76.5845 176.353 76.5845 172.192C76.5845 167.98 78.1801 164.441 81.3712 161.575C83.9511 159.271 87.2044 157.751 91.1415 157.018V166.409C90.6338 166.772 90.178 167.177 89.7635 167.635C88.686 168.869 88.1472 170.242 88.1472 171.726C88.1472 173.081 88.6342 174.359 89.6185 175.516C90.0329 176.008 90.5406 176.456 91.1312 176.871V188.532H91.1415ZM91.1415 214.289C87.1526 213.504 83.806 211.993 81.1122 209.758C77.776 206.996 75.6624 203.077 74.7299 198.01L86.8107 196.931C87.2976 198.985 88.2301 200.755 89.5874 202.248C90.0847 202.792 90.5924 203.284 91.1312 203.724V214.289H91.1415Z" fill="white"/>
<path fill-rule="evenodd" clip-rule="evenodd" d="M266.426 149.631C266.163 146.559 263.77 137.605 257.321 124.813C250.88 112.021 256.057 104.224 265.901 104.686C275.753 105.147 274.473 96.3057 282.488 96.3057C290.504 96.3057 289.224 105.147 299.068 104.686C308.912 104.224 314.097 112.021 307.648 124.813C301.207 137.605 298.813 146.559 298.543 149.631C296.213 176.824 268.764 176.824 266.426 149.631Z" fill="#409B1B" stroke="black" stroke-width="10.3208"/>
<path fill-rule="evenodd" clip-rule="evenodd" d="M281.837 130.676C319.644 130.676 350.292 156.019 350.292 187.283C350.292 218.547 353.4 243.89 281.837 243.89C210.275 243.89 213.383 218.547 213.383 187.283C213.383 156.019 244.031 130.676 281.837 130.676Z" fill="#409B1B" stroke="black" stroke-width="10.3208"/>
<path fill-rule="evenodd" clip-rule="evenodd" d="M250.112 122.206H313.572C315.994 122.206 317.981 123.492 317.981 125.059C317.981 126.626 315.994 127.912 313.572 127.912H250.112C247.69 127.912 245.703 126.626 245.703 125.059C245.703 123.492 247.69 122.206 250.112 122.206Z" fill="black"/>
<path fill-rule="evenodd" clip-rule="evenodd" d="M250.112 127.911H313.572C315.994 127.911 317.981 129.197 317.981 130.764C317.981 132.332 315.994 133.617 313.572 133.617H250.112C247.69 133.617 245.703 132.332 245.703 130.764C245.703 129.197 247.69 127.911 250.112 127.911Z" fill="black"/>
<path d="M289.208 157.251C292.326 157.967 294.927 159.15 297.009 160.798C299.9 163.103 301.744 166.176 302.552 170.034L290.855 171.312C290.534 169.948 289.985 168.783 289.218 167.816V157.251H289.208ZM289.208 181.195C294.512 182.706 298.253 184.544 300.418 186.702C303.102 189.361 304.438 192.762 304.438 196.931C304.438 201.575 302.749 205.494 299.382 208.679C296.771 211.147 293.373 212.865 289.197 213.858V204.682C289.829 204.311 290.409 203.862 290.938 203.353C292.388 201.92 293.114 200.245 293.114 198.312C293.114 196.586 292.502 195.118 291.28 193.867C290.741 193.314 290.047 192.814 289.197 192.373V181.195H289.208ZM278.598 205.485V189.344C277.552 189.093 276.557 188.826 275.614 188.532V176.871C276.443 177.44 277.427 177.941 278.598 178.355V165.019C277.448 165.339 276.464 165.805 275.614 166.409V157.018C276.567 156.836 277.562 156.707 278.598 156.621V152.805H285.291V156.621C286.68 156.759 287.985 156.975 289.208 157.259V167.825C288.254 166.633 286.949 165.744 285.291 165.149V180.211C286.68 180.522 287.985 180.859 289.208 181.204V192.391C288.14 191.838 286.835 191.381 285.291 191.018V206.037C286.773 205.813 288.078 205.364 289.208 204.699V213.875C287.975 214.168 286.669 214.402 285.291 214.566V221.773H278.598V214.747C277.562 214.643 276.567 214.496 275.614 214.307V203.733C276.547 204.466 277.541 205.062 278.598 205.485ZM275.614 188.532C271.066 187.125 267.626 185.226 265.284 182.809C262.477 179.892 261.057 176.353 261.057 172.192C261.057 167.98 262.653 164.441 265.844 161.575C268.424 159.271 271.677 157.751 275.614 157.018V166.409C275.106 166.772 274.651 167.177 274.236 167.635C273.159 168.869 272.62 170.242 272.62 171.726C272.62 173.081 273.107 174.359 274.091 175.516C274.506 176.008 275.013 176.456 275.604 176.871V188.532H275.614ZM275.614 214.289C271.625 213.504 268.279 211.993 265.585 209.758C262.249 206.996 260.135 203.077 259.203 198.01L271.283 196.931C271.77 198.985 272.703 200.755 274.06 202.248C274.557 202.792 275.065 203.284 275.604 203.724V214.289H275.614Z" fill="white"/>
<defs>
<clipPath id="clip0_72_5944">
<rect width="378" height="415.318" fill="white" transform="translate(0 0.000976562)"/>
</clipPath>
</defs>
</svg>
