<svg width="235" height="125" viewBox="0 0 235 125" fill="none" xmlns="http://www.w3.org/2000/svg">
<path d="M42.3549 75.8485L38.1364 92.0309L14.0102 90.6075L14.0477 88.117C14.0254 63.6852 11.7524 38.1118 7.18095 12.1416L6.63329 9.23967L33.6942 6.8628L34.9482 29.2547L40.4813 5.92722L62.8043 6.86103L62.7812 33.9075L69.9353 8.19112L95.183 16.9159L93.9115 19.5765C84.6398 40.1712 76.5009 64.0793 69.7783 90.6959L69.2934 92.5344L42.5979 94.9347L42.3549 75.8485Z" fill="#221F1F"/>
<path d="M87.264 17.2643C78.3394 36.9825 70.6283 59.4919 64.2387 84.9174L43.3473 86.762L43.0763 53.0052L34.8073 84.2085L16.3078 83.1394C16.298 59.7807 14.1299 35.6937 9.69564 10.7534L30.1173 8.99656L32.1168 44.7518L40.7401 8.02661L57.5287 8.63199L57.4177 50.1504L68.3022 10.7389L87.264 17.2643Z" fill="#FF0042"/>
<path d="M135.239 85.4557L128.158 105.042L102.436 105.872L104.399 101.859C115.337 78.8993 124.508 55.2057 131.68 31.5377L132.212 29.574L160.35 29.5813L158.427 38.9477L160.51 33.4747L187.801 33.2345L186.933 36.6241C181.604 57.7391 177.835 77.394 175.497 94.9996L173.84 107.593L148.86 109.336L152.139 92.7893L144.537 112.863L129.04 113.487L135.239 85.4557Z" fill="#221F1F"/>
<path d="M107.418 97.9475C117.972 76.2966 126.672 54.2464 133.535 31.6931L155.563 31.7653L148.235 66.7025L160.626 35.4397L181.928 35.397C176.842 55.4627 173.211 73.735 171.121 90.3344C170.716 93.5711 170.312 96.8079 169.907 100.045L151.295 101.258L159.674 59.6718L142.334 104.74L132.377 105.084L145.24 45.8929L126.347 97.4236L107.418 97.9475Z" fill="#FF0042"/>
<path d="M89.2559 102.868C84.0666 102.535 77.2574 99.8022 73.8543 88.9093C72.4622 84.6879 71.887 79.8302 71.9962 74.6722C72.1939 69.8641 73.0907 64.527 74.672 58.8895C77.2901 49.1864 81.8444 40.4111 88.0992 32.7778C95.7963 23.4007 104.172 19.0026 112.784 19.5552C113.005 19.5693 113.115 19.5764 113.336 19.5906C118.849 20.0591 126.196 23.0557 129.562 34.5201L130.011 36.1559L115.102 50.8092L113.408 47.8311C112.812 46.7598 111.958 46.2459 110.523 46.1538C107.21 45.9412 103.722 48.4721 100.286 53.6463C97.4529 58.0557 95.1427 62.9577 93.5688 68.4809C92.9951 70.5102 92.6496 72.4393 92.5469 74.0396C92.4076 76.2115 92.8569 77.8472 93.77 79.1684C94.6903 80.3752 95.8681 81.0247 97.5243 81.131L97.7451 81.1451C99.9607 81.1725 102.021 80.157 104.163 77.884C104.994 77.0191 105.716 76.1471 106.451 75.0466C103.757 75.5624 101.174 76.0853 98.8114 76.6224L94.6528 77.5033L99.8668 56.7184L130.339 51.7869L130.236 55.109C130.164 59.6955 128.936 65.0114 126.574 70.7136C124.588 75.7512 122.079 80.2962 119.261 84.477C110.806 97.0194 100.981 103.276 90.0214 103.032C89.6975 102.896 89.4767 102.882 89.2559 102.868Z" fill="#221F1F"/>
<path d="M89.564 93.31C83.2532 93.1158 78.8507 89.4609 76.4749 82.1422C75.2345 78.4795 74.6508 74.4373 74.8354 69.9175C74.9999 65.7126 75.8277 61.0233 77.2005 56.0529C79.6487 47.4629 83.7222 39.8202 89.4212 33.125C96.3756 24.9296 103.67 21.2876 111.213 21.9824C117.707 22.6098 122.194 26.5863 124.459 34.0032L113.794 44.1738C112.747 42.4204 111.227 41.4798 109.128 41.3451C105.035 41.0824 100.97 43.667 97.1289 49.3222C94.2222 53.5619 92.0165 58.3736 90.4136 63.6455C89.7541 65.7109 89.4163 67.6915 89.4135 69.3775C89.3568 71.9032 89.8518 74.0427 91.0102 75.6978C92.3719 77.4714 94.2072 78.4322 96.6211 78.5871C99.4616 78.664 102.068 77.4612 104.657 74.8873C106.681 72.9094 108.325 70.2749 109.682 67.2004C105.213 67.8621 101.053 68.649 97.207 69.4561L100.601 55.9736L124.979 52.1632C124.933 56.1649 123.804 60.6241 121.802 65.5541C119.938 69.9662 117.779 74.0431 115.123 77.6666C107.594 88.2491 99.0301 93.6012 89.564 93.31Z" fill="#FF0042"/>
<path d="M224.828 23.584L207.413 114.44L169.871 108.418L172.292 102.763C179.009 87.6678 183.968 75.4329 187.185 66.4244C191.371 54.4194 194.884 41.3525 197.89 27.3976L198.53 24.0533L224.828 23.584Z" fill="#221F1F"/>
<path d="M204.427 109.877L178.871 105.439C184.885 90.5168 189.237 78.8522 192.065 70.4369C195.726 58.8135 198.927 46.165 201.537 32.6744L218.151 32.2081L204.427 109.877Z" fill="#FF0042"/>
</svg>
