<svg width="317" height="167" viewBox="0 0 317 167" fill="none" xmlns="http://www.w3.org/2000/svg">
<path d="M57.4038 101.346L51.7209 123.146L19.2195 121.228L19.2701 117.873C19.24 84.9604 16.1779 50.5095 10.0196 15.5241L9.28182 11.6147L45.7366 8.41274L47.426 38.5777L54.8798 7.15238L84.952 8.41036L84.9208 44.8457L94.5584 10.2022L128.571 21.9557L126.858 25.5399C114.367 53.2838 103.403 85.4913 94.3469 121.348L93.6937 123.824L57.7311 127.058L57.4038 101.346Z" fill="#221F1F"/>
<path d="M117.9 22.4245C105.877 48.9876 95.4895 79.3109 86.8818 113.563L58.7381 116.048L58.3731 70.5724L47.2336 112.608L22.3122 111.167C22.299 79.7 19.3783 47.2514 13.4047 13.6534L40.9155 11.2867L43.6092 59.454L55.2259 9.98001L77.8424 10.7955L77.6929 66.7266L92.3559 13.6339L117.9 22.4245Z" fill="#FF0042"/>
<path d="M182.532 114.287L172.991 140.673L138.341 141.79L140.985 136.384C155.72 105.454 168.074 73.5355 177.737 41.6515L178.453 39.006L216.358 39.016L213.768 51.6338L216.575 44.2609L253.339 43.9373L252.17 48.5036C244.991 76.9484 239.913 103.426 236.764 127.144L234.532 144.109L200.881 146.457L205.297 124.166L195.057 151.208L174.179 152.048L182.532 114.287Z" fill="#221F1F"/>
<path d="M145.052 131.113C159.269 101.946 170.989 72.2412 180.234 41.8588L209.91 41.956L200.038 89.0213L216.73 46.906L245.427 46.8485C238.575 73.8797 233.683 98.4951 230.869 120.857C230.323 125.217 229.778 129.577 229.233 133.938L204.16 135.572L215.447 79.55L192.088 140.263L178.675 140.726L196.003 60.9879L170.552 130.407L145.052 131.113Z" fill="#FF0042"/>
<path d="M120.585 137.74C113.594 137.292 104.421 133.611 99.8367 118.936C97.9613 113.25 97.1864 106.706 97.3336 99.7571C97.5998 93.2799 98.8079 86.0901 100.938 78.4956C104.465 65.4242 110.6 53.6026 119.026 43.3196C129.396 30.6873 140.678 24.7624 152.28 25.5068C152.577 25.5259 152.726 25.5355 153.024 25.5546C160.451 26.1858 170.348 30.2225 174.883 45.6667L175.488 47.8703L155.403 67.6104L153.121 63.5984C152.318 62.1552 151.168 61.4629 149.234 61.3388C144.772 61.0525 140.072 64.4619 135.443 71.4322C131.627 77.3723 128.515 83.9761 126.395 91.4166C125.622 94.1503 125.157 96.749 125.018 98.9049C124.83 101.831 125.436 104.034 126.666 105.814C127.906 107.44 129.492 108.315 131.723 108.458L132.021 108.477C135.006 108.514 137.782 107.146 140.666 104.084C141.787 102.919 142.758 101.744 143.749 100.261C140.12 100.956 136.64 101.661 133.457 102.384L127.855 103.571L134.879 75.5709L175.929 68.9275L175.791 73.4027C175.693 79.5814 174.039 86.7426 170.858 94.4243C168.182 101.211 164.802 107.333 161.006 112.966C149.616 129.862 136.381 138.29 121.616 137.961C121.18 137.778 120.882 137.759 120.585 137.74Z" fill="#221F1F"/>
<path d="M120.996 124.867C112.494 124.605 106.564 119.682 103.363 109.822C101.692 104.888 100.906 99.4429 101.154 93.3541C101.376 87.6895 102.491 81.3724 104.34 74.6765C107.638 63.1045 113.126 52.8089 120.803 43.7895C130.172 32.7491 139.999 27.8428 150.161 28.7788C158.909 29.624 164.954 34.9809 168.004 44.9726L153.637 58.6737C152.227 56.3117 150.179 55.0445 147.351 54.863C141.837 54.5092 136.361 57.991 131.187 65.6094C127.271 71.3209 124.3 77.8028 122.14 84.9047C121.252 87.6871 120.797 90.3554 120.793 92.6266C120.717 96.029 121.384 98.9112 122.944 101.141C124.778 103.53 127.251 104.825 130.503 105.033C134.329 105.137 137.841 103.517 141.328 100.049C144.055 97.3846 146.27 93.8355 148.098 89.6937C142.078 90.5851 136.473 91.6452 131.292 92.7325L135.865 74.5697L168.705 69.4365C168.643 74.8274 167.122 80.8345 164.424 87.476C161.914 93.4196 159.006 98.9118 155.427 103.793C145.284 118.049 133.748 125.259 120.996 124.867Z" fill="#FF0042"/>
<path d="M303.219 30.9365L279.759 153.332L229.185 145.219L232.446 137.601C241.494 117.266 248.175 100.784 252.509 88.6484C258.147 72.476 262.88 54.8731 266.929 36.0739L267.792 31.5686L303.219 30.9365Z" fill="#221F1F"/>
<path d="M275.739 147.185L241.31 141.206C249.413 121.104 255.276 105.39 259.085 94.0533C264.016 78.3951 268.329 61.3557 271.845 43.1821L294.226 42.5539L275.739 147.185Z" fill="#FF0042"/>
</svg>
