<svg width="252" height="189" viewBox="0 0 252 189" fill="none" xmlns="http://www.w3.org/2000/svg">
<g clip-path="url(#clip0_113_6497)">
<path d="M39.5949 115.665C36.1897 96.1597 30.9394 77.3502 23.7999 58.0445L22.0037 53.4093L26.8856 52.6255C34.1298 51.4834 37.7293 50.9686 45.0409 49.9841L48.7529 49.5144C48.7529 49.5144 50.2104 55.9715 50.5918 57.2989C50.728 55.6569 51.4529 48.639 51.4529 48.639L55.097 48.6642C61.1257 48.601 64.1175 48.6256 70.371 48.6526L73.9027 48.6327L74.3502 52.0747C74.7084 54.4369 75.0215 56.9116 75.3347 59.3862C75.7185 57.452 77.2542 49.0625 77.2542 49.0625L81.4823 50.2353C88.6568 52.1975 92.1202 53.3247 99.1371 55.3543L103.32 56.6395L101.653 60.7998C94.1259 79.5776 90.1303 98.9878 87.1942 115.429L86.6296 118.466L83.6151 118.824C76.7761 119.606 73.3791 119.941 66.6075 120.881L62.6706 121.26L62.3798 119.056L58.8931 118.963C52.7971 118.869 49.8053 118.844 43.6642 118.862L40.2449 118.927L39.5949 115.665Z" fill="url(#paint0_radial_113_6497)"/>
<path d="M39.6839 114.788C36.2787 95.2823 31.0734 76.3604 23.7541 56.8521L22.6539 54.0619L25.6011 53.5467C32.8453 52.4046 36.4448 51.8898 43.7563 50.9053L45.961 50.6145L46.4094 52.7518C47.5082 57.499 48.5397 62.0887 49.5712 66.6784C50.0247 61.6399 50.5906 56.6464 50.9991 51.7203L51.2031 49.5835L53.4301 49.5626C59.4587 49.4994 62.4505 49.5241 68.7041 49.5511L70.7736 49.5975L71.1095 51.6898C71.8701 57.6065 72.6307 63.5232 73.3912 69.4399C74.4074 63.9744 75.3112 58.4638 76.2823 53.1107L76.8241 50.4567L79.3879 51.2234C86.5624 53.1856 90.0258 54.3128 97.0427 56.3424L99.6066 57.109L98.615 59.5828C90.9981 78.5854 87.0026 97.9956 84.0214 114.55L83.6827 116.372L81.9054 116.573C75.0664 117.355 71.6695 117.69 64.8978 118.63L62.5356 118.988L62.1774 116.626C61.7973 113.341 61.3048 110.012 60.8123 106.682C60.4954 109.426 59.4328 116.961 59.4328 116.961L57.2508 116.87C51.1548 116.776 48.163 116.751 41.9768 116.881L39.9073 116.835L39.6839 114.788Z" fill="url(#paint1_radial_113_6497)"/>
<path d="M96.369 58.6814C89.2028 76.5596 84.9828 95.2273 81.7075 114.143C74.8685 114.926 71.4715 115.261 64.5875 116.155C63.4468 106.954 62.1487 97.8203 60.8506 88.6865C59.6522 97.2112 58.5212 105.893 57.3229 114.418C51.2268 114.324 48.0775 114.366 41.9364 114.385C38.5317 94.2267 33.1467 75.1022 26.0295 56.0664C33.2736 54.9244 36.8732 54.4096 44.0723 53.38C46.3373 63.0319 48.4899 72.6388 50.485 82.313C51.5045 72.281 52.4566 62.0916 53.4761 52.0596C59.5047 51.9964 62.609 52.0661 68.6376 52.003C70.2266 63.3415 71.5907 74.5899 72.9548 85.8383C74.7846 75.0871 76.772 64.2685 78.7593 53.4499C85.8887 55.5246 89.3971 56.5394 96.369 58.6814Z" fill="#FF0042"/>
<path d="M100.376 117.713C101.173 104.329 102.015 90.1804 102.723 75.7167C101.958 75.6711 101.148 75.738 100.113 75.7148C97.1216 75.6902 94.4671 75.8007 92.0152 75.7315L87.6063 75.6608L90.3004 51.6833L94.057 51.7534C109.308 52.1243 124.852 52.7428 140.148 53.6536L143.589 53.8586L143.879 57.368C144.414 63.8469 144.682 67.0863 145.172 73.6777L145.573 78.5368L140.692 78.0159C138.443 77.7669 136.194 77.5178 133.945 77.2688C131.47 76.9296 128.614 76.5676 126.702 76.4538C125.731 81.1545 126.284 95.0792 126.548 102.885C126.747 107.924 126.923 112.693 126.875 116.72L126.918 120.521L123.296 120.766C115.94 121.211 112.318 121.456 104.759 122.08L100.057 122.414L100.376 117.713Z" fill="url(#paint2_radial_113_6497)"/>
<path d="M100.443 117.218C101.241 103.182 102.084 88.3807 102.926 73.5797C101.779 73.5114 100.43 73.6229 98.63 73.5542C95.7506 73.5746 93.0288 73.5276 90.5318 73.5708L87.81 73.5239L90.2769 52.7179L92.4588 52.8095C107.71 53.1803 123.254 53.7989 138.549 54.7096L140.574 54.8686L140.752 57.0282C141.242 63.6195 141.555 66.7465 142.045 73.3379L142.291 76.3074L139.389 76.0579C137.14 75.8088 134.89 75.5597 132.641 75.3107C129.514 74.971 125.668 74.4734 124.093 74.4947C122.651 78.0929 123.203 93.3223 123.533 102.59C123.732 107.629 123.909 112.398 123.861 116.425L123.837 118.764L121.565 118.898C114.209 119.342 110.587 119.587 103.028 120.212L100.216 120.39L100.443 117.218Z" fill="url(#paint3_radial_113_6497)"/>
<path d="M139.663 73.4244C131.88 72.654 123.513 71.3883 122.793 71.8826C119.124 74.8493 121.49 101.507 121.547 116.017C114.078 116.416 110.411 116.773 103.01 117.331C103.966 101.922 104.809 86.4689 105.608 71.128C104.573 71.1047 102.233 71.0806 98.7016 71.1005C95.4399 71.0982 92.8305 71.0963 90.761 71.0498C91.4854 64.6843 91.8251 61.5578 92.5495 55.1922C107.913 55.6082 123.232 56.1366 138.528 57.0473C139.018 63.6387 139.285 66.8781 139.663 73.4244Z" fill="#FF0042"/>
<path d="M129.05 124.638C130.796 104.979 132.565 84.9375 134.199 65.2332L134.472 61.2968L138.408 61.5696C151.072 62.2085 163.916 63.0501 176.558 64.0714L180.336 64.4116L180.266 68.1682C180.239 74.4217 180.17 77.526 180.143 83.7795L180.094 88.4584L176.9 87.9612L176.876 90.953C176.827 95.6319 176.803 97.9714 176.822 102.808L176.797 107.104L172.59 106.854C170.678 106.74 168.384 106.603 166.359 106.444C163.075 106.172 157.879 105.786 155.225 105.897C154.705 108.82 154.633 115.186 154.631 118.448L154.586 118.561C154.539 120.63 154.493 122.7 154.469 124.387L154.287 128.098L150.552 128.298C143.669 128.541 140.317 128.763 133.343 129.23L128.641 129.565L129.05 124.638ZM158.523 86.5983C161.627 86.668 164.237 86.6699 167.341 86.7396C164.327 86.445 161.425 86.1955 158.591 86.1035L158.523 86.5983Z" fill="url(#paint4_radial_113_6497)"/>
<path d="M129.116 124.145C130.907 104.373 132.631 84.4438 134.265 64.7395L134.514 62.4902L136.808 62.6268C149.472 63.2658 162.316 64.1073 174.958 65.1286L177.252 65.2653L177.273 67.4923C177.246 73.7458 177.176 76.8501 177.149 83.1036L177.102 85.8254L174.403 85.3961C167.97 84.5142 161.83 83.8799 155.779 83.6731L155.168 87.4743C161.04 87.4785 164.796 87.5487 171.5 87.756L173.839 87.7802L173.815 90.1196C173.766 94.7985 173.742 97.1379 173.761 101.974L173.759 104.584L171.195 104.469C169.283 104.356 167.259 104.197 164.964 104.06C160.758 103.81 154.46 103.243 152.368 103.579C151.624 105.76 151.528 113.161 151.413 117.682C151.321 119.864 151.32 121.821 151.251 123.621L151.159 125.803L148.887 125.936C141.959 126.291 138.652 126.401 131.678 126.868L128.866 127.046L129.116 124.145Z" fill="url(#paint5_radial_113_6497)"/>
<path d="M153.736 81.2863C153.104 84.8175 152.922 86.572 152.29 90.1033C159.961 90.1762 163.762 90.134 171.388 90.3194C171.34 94.9983 171.315 97.3378 171.334 102.174C163.911 101.809 152.215 100.383 150.797 101.642C148.929 103.373 149.234 116.285 148.802 123.551C141.873 123.906 138.409 124.083 131.48 124.438C133.271 104.666 134.95 84.8495 136.629 65.0327C149.293 65.6717 162.025 66.4682 174.666 67.4895C174.639 73.7431 174.569 76.8473 174.542 83.1008C167.277 82.0159 160.327 81.4485 153.736 81.2863Z" fill="#FF0042"/>
<path d="M177.745 133.064C176.283 132.478 174.957 131.555 173.72 130.407C172.484 129.259 171.383 127.773 170.709 126.198C170.035 124.623 169.632 123.026 169.61 121.451C169.589 119.876 169.883 118.167 170.446 116.435C171.167 114.636 172.181 113.085 173.666 111.984C174.589 111.309 175.512 110.635 176.569 110.276L174.792 109.825L175.312 106.249C176.149 100.58 176.466 97.8363 177.302 92.1682L177.732 88.8168L181.151 88.7517C192.264 88.3773 195.235 86.1749 195.933 85.4106C195.528 85.1179 194.786 84.69 193.437 84.1491C190.963 83.1576 187.522 82.3003 183.068 81.6897L178.39 80.989L179.81 76.4686C181.546 71.161 182.358 68.4847 184.094 63.1772L185.311 59.4889L189.09 60.4814C193.318 61.6542 197.343 63.0068 200.829 64.4039C204.877 66.0265 208.452 67.8511 211.375 69.6753C222.235 76.769 222.477 84.305 220.832 89.3876C218.081 97.5513 211.554 103.418 202.014 106.38C200.371 106.896 198.504 107.322 196.097 107.793L193.842 114.72C194.449 115.485 194.786 116.273 195.235 117.105C195.841 118.523 196.133 120.075 196.154 121.65C196.198 123.495 195.904 125.204 195.161 126.733C194.462 128.15 193.539 129.476 192.279 130.668C190.973 131.971 189.578 132.848 187.89 133.476C186.36 134.038 184.808 134.329 183.121 134.305C181.433 134.282 179.836 134.033 178.262 133.402C177.97 133.154 177.858 133.109 177.745 133.064Z" fill="url(#paint6_radial_113_6497)"/>
<path d="M176.871 131.017C175.634 130.521 174.42 129.643 173.364 128.697C172.195 127.707 171.386 126.469 170.779 125.051C170.173 123.634 169.791 122.306 169.837 120.889C169.726 119.539 170.042 118.1 170.673 116.526C171.259 115.064 172.182 113.737 173.352 112.771C174.478 111.917 175.671 111.22 176.886 110.794C178.258 110.3 179.653 110.076 181.228 110.055C181.768 110.01 182.262 110.078 182.802 110.033C181.138 109.627 179.474 109.221 177.247 108.59L175.133 108.003L175.449 105.912C176.286 100.243 176.603 97.4993 177.439 91.8312L177.71 89.8518L179.713 89.7408C192.557 89.2776 195.484 86.5353 196.115 84.9612C196.611 83.7243 193.732 82.44 192.495 81.9442C189.909 80.9076 186.356 80.0053 181.79 79.3496L178.978 78.8752L179.79 76.1989C181.526 70.8914 182.337 68.2151 184.073 62.9076L184.862 60.6136L187.089 61.2451C191.317 62.4179 195.118 63.6803 198.603 65.0775C202.539 66.655 206.002 68.4345 208.925 70.2587C218.975 76.767 219.263 83.5381 217.685 88.1259C215.16 95.7274 209.038 101.234 199.925 104.107C198.17 104.578 195.988 105.139 193.198 105.587C192.905 106.644 191.034 112.289 191.034 112.289C191.034 112.289 187.143 111.251 186.423 111.093C187.503 111.656 188.604 112.489 189.548 113.39C190.672 114.493 191.481 115.731 191.908 116.946C192.447 118.206 192.671 119.601 192.782 120.951C192.804 122.525 192.488 123.965 191.947 125.314C191.339 126.506 190.46 127.72 189.402 128.731C188.299 129.855 187.061 130.664 185.577 131.113C184.204 131.607 182.809 131.831 181.392 131.785C179.93 131.851 178.49 131.535 177.141 130.994C177.096 131.107 176.984 131.062 176.871 131.017Z" fill="url(#paint7_radial_113_6497)"/>
<path d="M177.882 128.813C176.758 128.363 175.836 127.732 175.004 126.877C174.127 126.134 173.453 125.211 173.027 123.996C172.555 122.893 172.241 121.723 172.264 120.689C172.175 119.609 172.513 118.439 172.851 117.27C173.257 116.258 173.888 115.336 174.81 114.662C175.733 113.988 176.723 113.471 177.713 112.954C178.771 112.595 179.896 112.394 181.246 112.282C182.55 112.283 183.81 112.396 184.822 112.802C185.946 113.253 187.093 113.973 187.992 114.986C188.936 115.887 189.453 116.877 189.857 117.822C190.261 118.767 190.463 119.892 190.507 121.084C190.551 122.276 190.37 123.379 189.852 124.346C189.334 125.312 188.659 126.347 187.803 127.178C186.948 128.01 186.025 128.684 184.968 129.043C183.91 129.403 182.785 129.604 181.481 129.603C180.221 129.49 179.006 129.264 177.882 128.813ZM191.442 103.449C190.653 105.743 190.27 107.025 189.481 109.319C184.758 108.078 182.531 107.447 177.808 106.206C178.645 100.538 178.961 97.7938 179.685 92.0806C190.528 91.7285 196.716 89.6409 198.293 85.7054C199.871 81.77 194.452 78.6843 182.171 76.7634C183.907 71.4558 184.719 68.7795 186.454 63.472C195.361 65.9978 202.399 68.9497 207.571 72.3277C214.631 76.8542 217.124 82.0298 215.388 87.3373C213.021 94.2191 207.506 99.1865 199.182 101.722C197.224 102.373 194.502 102.979 191.442 103.449Z" fill="#FF0042"/>
</g>
<path d="M207.038 136.144C207.172 135.691 207.325 135.084 207.641 134.418C207.958 133.753 208.283 133.011 208.754 132.364C209.224 131.718 209.78 131.004 210.482 130.386C211.183 129.768 211.951 129.237 212.855 128.878C213.758 128.52 214.815 128.181 215.844 128.073C216.883 127.888 218.047 127.953 219.336 128.268C220.25 128.458 220.905 128.852 221.463 129.39C222.022 129.929 222.417 130.525 222.659 131.102C222.891 131.757 223.055 132.325 223.066 132.874C223.076 133.423 223.019 133.885 222.905 134.184C222.78 134.56 222.56 135.081 222.176 135.66C221.792 136.238 221.245 136.875 220.544 137.493C219.843 138.111 219.142 138.729 218.441 139.347C217.663 139.956 216.904 140.41 215.991 140.845C215.078 141.281 214.117 141.475 213.165 141.593C212.136 141.701 211.212 141.587 210.385 141.329C209.326 141.042 208.595 140.639 208.103 140.187C207.612 139.736 207.275 139.303 207.024 138.803C206.773 138.302 206.676 137.821 206.733 137.358C206.857 136.982 206.914 136.52 207.038 136.144ZM213.856 112.491C214.478 110.612 215.215 108.433 216.066 105.956C216.918 103.478 217.866 100.856 218.814 98.2343C219.771 95.5352 220.873 92.9321 221.897 90.3195C222.922 87.7069 223.986 85.4121 225.021 83.3486C225.241 82.828 225.672 81.8638 226.382 80.5427C227.101 79.1444 227.829 77.6691 228.644 76.1262C229.459 74.5833 230.264 73.1175 230.974 71.7963C231.77 70.4075 232.278 69.4529 232.739 68.8836C233.036 68.3724 233.352 67.7071 233.755 66.9742C234.158 66.2413 234.628 65.5949 235.271 64.8133C235.904 64.1088 236.605 63.4909 237.441 63.046C238.277 62.6012 239.248 62.3294 240.489 62.4039C240.797 62.4418 241.49 62.5271 242.404 62.7178C243.318 62.9085 244.309 63.1088 245.29 63.3861C246.272 63.6634 247.263 63.8636 248.09 64.1219C248.995 64.3898 249.524 64.5331 249.89 64.7347C249.929 65.0525 249.881 65.4379 249.729 66.045C249.576 66.6522 249.423 67.2594 249.26 67.9436C249.098 68.6279 248.936 69.3122 248.783 69.9193C248.63 70.5265 248.496 70.9795 248.304 71.2689C248.18 71.6448 247.854 72.3872 247.26 73.4095C246.665 74.4318 245.965 75.6759 245.237 77.1512C244.431 78.617 243.626 80.0829 242.811 81.6258C241.996 83.1687 241.181 84.7116 240.385 86.1004C239.58 87.5662 238.966 88.7427 238.362 89.8421C237.768 90.8643 237.442 91.6067 237.317 91.9827C237.203 92.2815 236.944 93.1105 236.475 94.3829C236.006 95.6554 235.431 97.1497 234.915 98.8076C234.312 100.533 233.699 102.336 233.077 104.215C232.446 106.172 231.834 107.975 231.24 109.623C230.637 111.349 230.149 112.775 229.68 114.048C229.211 115.32 228.875 116.14 228.828 116.525C228.196 117.856 227.505 119.023 226.747 120.103C225.989 121.183 225.029 122.004 223.798 122.479C222.568 122.953 221.068 123.082 219.23 122.777C217.393 122.473 215.074 121.64 212.273 120.278L213.856 112.491Z" fill="black" stroke="black" stroke-width="3" stroke-miterlimit="10"/>
<path d="M203.398 132.724C203.532 132.271 203.685 131.664 204.001 130.999C204.317 130.333 204.643 129.591 205.113 128.944C205.583 128.298 206.14 127.584 206.841 126.966C207.542 126.348 208.31 125.817 209.214 125.459C210.117 125.1 211.175 124.761 212.204 124.653C213.242 124.468 214.406 124.533 215.695 124.848C216.609 125.039 217.264 125.432 217.823 125.97C218.381 126.509 218.777 127.105 219.018 127.682C219.25 128.337 219.415 128.905 219.425 129.454C219.436 130.003 219.379 130.466 219.264 130.764C219.14 131.14 218.919 131.661 218.535 132.24C218.152 132.818 217.605 133.455 216.904 134.073C216.203 134.691 215.501 135.309 214.8 135.927C214.022 136.536 213.263 136.99 212.35 137.425C211.437 137.861 210.476 138.055 209.524 138.173C208.495 138.281 207.572 138.167 206.744 137.909C205.686 137.622 204.954 137.219 204.463 136.767C203.971 136.316 203.634 135.883 203.383 135.383C203.132 134.882 203.035 134.401 203.092 133.938C203.217 133.562 203.264 133.177 203.398 132.724ZM210.215 109.071C210.837 107.192 211.574 105.013 212.426 102.536C213.278 100.058 214.225 97.4364 215.173 94.8144C216.13 92.1153 217.232 89.5121 218.257 86.8996C219.281 84.287 220.345 81.9922 221.38 79.9287C221.601 79.4081 222.032 78.4439 222.741 77.1227C223.46 75.7245 224.189 74.2492 225.003 72.7063C225.818 71.1634 226.624 69.6975 227.333 68.3764C228.129 66.9876 228.637 66.0329 229.098 65.4636C229.395 64.9525 229.712 64.2872 230.114 63.5543C230.517 62.8214 230.987 62.175 231.63 61.3934C232.264 60.6889 232.965 60.071 233.801 59.6261C234.637 59.1813 235.608 58.9095 236.849 58.984C237.156 59.0219 237.849 59.1071 238.763 59.2979C239.677 59.4886 240.668 59.6888 241.65 59.9661C242.631 60.2434 243.622 60.4437 244.45 60.702C245.354 60.9698 245.883 61.1132 246.249 61.3147C246.288 61.6325 246.241 62.0179 246.088 62.6251C245.935 63.2323 245.782 63.8395 245.62 64.5237C245.457 65.208 245.295 65.8922 245.142 66.4994C244.989 67.1066 244.856 67.5596 244.664 67.849C244.539 68.2249 244.214 68.9673 243.619 69.9896C243.024 71.0119 242.324 72.2559 241.596 73.7313C240.791 75.1971 239.985 76.6629 239.17 78.2059C238.355 79.7488 237.54 81.2917 236.745 82.6804C235.939 84.1463 235.326 85.3227 234.722 86.4221C234.127 87.4444 233.801 88.1868 233.677 88.5627C233.562 88.8616 233.304 89.6905 232.834 90.963C232.365 92.2355 231.791 93.7298 231.274 95.3876C230.671 97.1131 230.059 98.9157 229.437 100.795C228.805 102.752 228.193 104.555 227.599 106.203C226.996 107.929 226.508 109.355 226.039 110.628C225.57 111.9 225.235 112.72 225.187 113.105C224.555 114.436 223.864 115.603 223.106 116.683C222.348 117.764 221.388 118.584 220.158 119.059C218.927 119.533 217.427 119.662 215.59 119.357C213.752 119.053 211.433 118.22 208.632 116.858L210.215 109.071Z" fill="#FF0042" stroke="black" stroke-width="3" stroke-miterlimit="10"/>
<defs>
<radialGradient id="paint0_radial_113_6497" cx="0" cy="0" r="1" gradientUnits="userSpaceOnUse" gradientTransform="translate(56.0585 81.5706) rotate(21.8426) scale(41.3833)">
<stop offset="0.5744" stop-color="#130C0E"/>
<stop offset="0.7977" stop-color="#130C0E"/>
<stop offset="1" stop-color="#130C0E"/>
</radialGradient>
<radialGradient id="paint1_radial_113_6497" cx="0" cy="0" r="1" gradientUnits="userSpaceOnUse" gradientTransform="translate(54.9265 80.9835) rotate(21.8426) scale(39.3432)">
<stop offset="0.5744" stop-color="#130C0E"/>
<stop offset="0.7977" stop-color="#130C0E"/>
<stop offset="1" stop-color="#130C0E"/>
</radialGradient>
<radialGradient id="paint2_radial_113_6497" cx="0" cy="0" r="1" gradientUnits="userSpaceOnUse" gradientTransform="translate(110.556 83.5994) rotate(21.8426) scale(35.591)">
<stop offset="0.5744" stop-color="#130C0E"/>
<stop offset="0.7977" stop-color="#130C0E"/>
<stop offset="1" stop-color="#130C0E"/>
</radialGradient>
<radialGradient id="paint3_radial_113_6497" cx="0" cy="0" r="1" gradientUnits="userSpaceOnUse" gradientTransform="translate(108.944 82.7907) rotate(21.8426) scale(33.4773)">
<stop offset="0.5744" stop-color="#130C0E"/>
<stop offset="0.7977" stop-color="#130C0E"/>
<stop offset="1" stop-color="#130C0E"/>
</radialGradient>
<radialGradient id="paint4_radial_113_6497" cx="0" cy="0" r="1" gradientUnits="userSpaceOnUse" gradientTransform="translate(151.108 95.4563) rotate(21.8426) scale(34.4438)">
<stop offset="0.5744" stop-color="#130C0E"/>
<stop offset="0.7977" stop-color="#130C0E"/>
<stop offset="1" stop-color="#130C0E"/>
</radialGradient>
<radialGradient id="paint5_radial_113_6497" cx="0" cy="0" r="1" gradientUnits="userSpaceOnUse" gradientTransform="translate(149.601 94.7019) rotate(21.8426) scale(32.3698)">
<stop offset="0.5744" stop-color="#130C0E"/>
<stop offset="0.7977" stop-color="#130C0E"/>
<stop offset="1" stop-color="#130C0E"/>
</radialGradient>
<radialGradient id="paint6_radial_113_6497" cx="0" cy="0" r="1" gradientUnits="userSpaceOnUse" gradientTransform="translate(192.718 100.015) rotate(21.8426) scale(30.0032)">
<stop offset="0.5744" stop-color="#130C0E"/>
<stop offset="0.7977" stop-color="#130C0E"/>
<stop offset="1" stop-color="#130C0E"/>
</radialGradient>
<radialGradient id="paint7_radial_113_6497" cx="0" cy="0" r="1" gradientUnits="userSpaceOnUse" gradientTransform="translate(191.264 99.4309) rotate(21.8426) scale(28.4141)">
<stop offset="0.5744" stop-color="#130C0E"/>
<stop offset="0.7977" stop-color="#130C0E"/>
<stop offset="1" stop-color="#130C0E"/>
</radialGradient>
<clipPath id="clip0_113_6497">
<rect width="222.895" height="113.991" fill="white" transform="translate(43.4102) rotate(21.8426)"/>
</clipPath>
</defs>
</svg>
