<svg width="316" height="239" viewBox="0 0 316 239" fill="none" xmlns="http://www.w3.org/2000/svg">
<g clip-path="url(#clip0_72_6375)">
<path d="M48.8134 146.285C44.5067 121.616 37.8665 97.8269 28.8369 73.4102L26.5651 67.5479L32.7395 66.5566C41.9014 65.1122 46.4539 64.4611 55.7011 63.216L60.3958 62.6219C60.3958 62.6219 62.2392 70.7884 62.7216 72.4673C62.8938 70.3905 63.8106 61.5148 63.8106 61.5148L68.4195 61.5465C76.0441 61.4667 79.828 61.4978 87.7371 61.532L92.2038 61.5067L92.7696 65.86C93.2227 68.8476 93.6187 71.9774 94.0148 75.1072C94.5002 72.6608 96.4424 62.0503 96.4424 62.0503L101.79 63.5336C110.864 66.0152 115.244 67.4409 124.119 70.0078L129.409 71.6332L127.3 76.895C117.781 100.644 112.727 125.193 109.014 145.987L108.3 149.827L104.487 150.28C95.8378 151.269 91.5415 151.693 82.9772 152.882L77.9981 153.362L77.6302 150.573L73.2206 150.456C65.5107 150.337 61.7268 150.306 53.96 150.329L49.6355 150.411L48.8134 146.285Z" fill="url(#paint0_radial_72_6375)"/>
<path d="M48.9282 145.175C44.6215 120.506 38.0383 96.5743 28.7813 71.9014L27.3898 68.3726L31.1172 67.721C40.2791 66.2766 44.8316 65.6255 54.0788 64.3803L56.8672 64.0125L57.4342 66.7157C58.824 72.7196 60.1285 78.5244 61.433 84.3291C62.0066 77.9567 62.7224 71.6413 63.239 65.4111L63.497 62.7086L66.3135 62.6821C73.9382 62.6023 77.722 62.6334 85.6311 62.6676L88.2485 62.7263L88.6734 65.3725C89.6353 72.8556 90.5972 80.3386 91.5591 87.8217C92.8443 80.9092 93.9874 73.9398 95.2156 67.1695L95.9008 63.8129L99.1434 64.7826C108.217 67.2642 112.597 68.6899 121.472 71.2568L124.715 72.2264L123.461 75.355C113.827 99.3884 108.774 123.937 105.003 144.874L104.575 147.178L102.327 147.432C93.6778 148.422 89.3815 148.846 80.8172 150.034L77.8296 150.487L77.3766 147.5C76.8959 143.346 76.273 139.135 75.6502 134.924C75.2494 138.394 73.9054 147.924 73.9054 147.924L71.1458 147.808C63.4359 147.689 59.6521 147.658 51.8282 147.823L49.2108 147.764L48.9282 145.175Z" fill="url(#paint1_radial_72_6375)"/>
<path d="M120.615 74.2159C111.552 96.8272 106.215 120.437 102.073 144.36C93.423 145.35 89.1268 145.774 80.4202 146.905C78.9776 135.268 77.3358 123.716 75.694 112.164C74.1784 122.946 72.748 133.927 71.2324 144.708C63.5226 144.589 59.5395 144.643 51.7726 144.666C47.4665 119.171 40.6559 94.9839 31.6545 70.9087C40.8165 69.4643 45.369 68.8132 54.4739 67.5111C57.3386 79.7182 60.0611 91.8683 62.5843 104.104C63.8737 91.4159 65.0779 78.5289 66.3672 65.8411C73.9919 65.7612 77.918 65.8494 85.5426 65.7695C87.5523 80.1098 89.2775 94.336 91.0027 108.562C93.317 94.9648 95.8304 81.2822 98.3438 67.5995C107.361 70.2234 111.798 71.5068 120.615 74.2159Z" fill="#FF0042"/>
<path d="M125.684 148.874C126.692 131.947 127.757 114.052 128.652 95.7597C127.685 95.7021 126.661 95.7867 125.352 95.7573C121.568 95.7262 118.211 95.866 115.11 95.7784L109.534 95.6891L112.941 65.3638L117.692 65.4525C136.981 65.9216 156.64 66.7039 175.985 67.8558L180.338 68.1149L180.704 72.5534C181.381 80.7475 181.72 84.8446 182.339 93.1809L182.847 99.3265L176.674 98.6677C173.829 98.3527 170.984 98.0377 168.14 97.7227C165.01 97.2937 161.398 96.8359 158.979 96.6919C157.752 102.637 158.45 120.248 158.785 130.121C159.036 136.494 159.259 142.525 159.199 147.618L159.252 152.426L154.672 152.735C145.368 153.298 140.787 153.607 131.228 154.397L125.281 154.82L125.684 148.874Z" fill="url(#paint2_radial_72_6375)"/>
<path d="M125.769 148.248C126.778 130.496 127.844 111.776 128.91 93.057C127.459 92.9706 125.752 93.1116 123.476 93.0246C119.834 93.0505 116.392 92.9911 113.234 93.0457L109.791 92.9863L112.911 66.6723L115.671 66.788C134.96 67.2571 154.618 68.0394 173.963 69.1913L176.524 69.3923L176.749 72.1236C177.369 80.4599 177.765 84.4148 178.385 92.7511L178.695 96.5067L175.025 96.1911C172.18 95.8762 169.336 95.5612 166.491 95.2462C162.537 94.8166 157.672 94.1872 155.681 94.2142C153.856 98.7649 154.554 118.026 154.972 129.748C155.224 136.121 155.447 142.152 155.386 147.245L155.356 150.204L152.482 150.372C143.179 150.935 138.598 151.244 129.038 152.034L125.482 152.259L125.769 148.248Z" fill="url(#paint3_radial_72_6375)"/>
<path d="M175.371 92.8617C165.528 91.8873 154.945 90.2865 154.035 90.9118C149.395 94.6638 152.386 128.379 152.458 146.73C143.012 147.235 138.375 147.687 129.014 148.391C130.223 128.904 131.29 109.36 132.299 89.9573C130.991 89.9279 128.032 89.8973 123.565 89.9226C119.44 89.9196 116.14 89.9172 113.522 89.8585C114.439 81.8077 114.868 77.8535 115.784 69.8028C135.215 70.3288 154.589 70.9971 173.935 72.149C174.555 80.4853 174.893 84.5824 175.371 92.8617Z" fill="#FF0042"/>
<path d="M161.95 157.634C164.159 132.77 166.396 107.423 168.463 82.5018L168.808 77.5233L173.786 77.8682C189.803 78.6763 206.047 79.7407 222.035 81.0324L226.814 81.4626L226.726 86.2137C226.692 94.1228 226.603 98.0488 226.569 105.958L226.508 111.875L222.469 111.247L222.437 115.031C222.376 120.948 222.346 123.907 222.37 130.024L222.337 135.458L217.018 135.141C214.599 134.997 211.698 134.824 209.137 134.623C204.984 134.279 198.412 133.79 195.055 133.93C194.398 137.628 194.307 145.679 194.304 149.805L194.247 149.947C194.188 152.564 194.129 155.182 194.099 157.315L193.868 162.01L189.145 162.262C180.439 162.569 176.2 162.85 167.38 163.441L161.434 163.864L161.95 157.634ZM199.226 109.523C203.152 109.611 206.452 109.614 210.378 109.702C206.566 109.329 202.897 109.014 199.312 108.897L199.226 109.523Z" fill="url(#paint4_radial_72_6375)"/>
<path d="M162.036 157.008C164.301 132.002 166.482 106.797 168.548 81.8765L168.863 79.0317L171.765 79.2045C187.781 80.0126 204.026 81.0769 220.014 82.3687L222.915 82.5414L222.942 85.358C222.908 93.2671 222.82 97.1931 222.785 105.102L222.726 108.545L219.312 108.002C211.177 106.886 203.41 106.084 195.757 105.823L194.986 110.63C202.411 110.635 207.162 110.724 215.64 110.986L218.599 111.017L218.568 113.976C218.507 119.893 218.477 122.852 218.501 128.969L218.498 132.269L215.255 132.124C212.837 131.98 210.277 131.779 207.375 131.607C202.055 131.29 194.089 130.573 191.443 130.998C190.503 133.757 190.382 143.117 190.236 148.835C190.12 151.595 190.118 154.07 190.031 156.346L189.915 159.105L187.042 159.274C178.279 159.723 174.097 159.862 165.277 160.453L161.72 160.678L162.036 157.008Z" fill="url(#paint5_radial_72_6375)"/>
<path d="M193.172 102.805C192.372 107.271 192.143 109.49 191.343 113.956C201.044 114.048 205.852 113.995 215.497 114.229C215.436 120.147 215.405 123.105 215.429 129.222C206.041 128.76 191.248 126.957 189.455 128.549C187.092 130.738 187.478 147.069 186.931 156.258C178.168 156.707 173.787 156.931 165.024 157.38C167.289 132.374 169.413 107.311 171.536 82.248C187.553 83.0562 203.655 84.0635 219.643 85.3552C219.609 93.2643 219.52 97.1904 219.486 105.099C210.298 103.727 201.507 103.01 193.172 102.805Z" fill="#FF0042"/>
<path d="M223.537 168.29C221.688 167.549 220.011 166.381 218.447 164.929C216.883 163.477 215.491 161.598 214.638 159.606C213.786 157.614 213.276 155.594 213.249 153.602C213.222 151.611 213.593 149.449 214.306 147.259C215.218 144.983 216.5 143.021 218.378 141.628C219.545 140.776 220.712 139.923 222.05 139.469L219.803 138.898L220.46 134.375C221.518 127.206 221.919 123.736 222.977 116.567L223.52 112.329L227.845 112.246C241.9 111.773 245.657 108.987 246.54 108.021C246.028 107.65 245.089 107.109 243.383 106.425C240.254 105.171 235.902 104.087 230.27 103.315L224.353 102.429L226.149 96.7113C228.344 89.9987 229.371 86.6139 231.567 79.9012L233.106 75.2365L237.885 76.4918C243.233 77.975 248.324 79.6857 252.732 81.4528C257.852 83.5048 262.374 85.8126 266.071 88.1197C279.806 97.0913 280.112 106.622 278.03 113.051C274.552 123.375 266.296 130.795 254.231 134.542C252.153 135.195 249.791 135.733 246.747 136.329L243.896 145.089C244.663 146.057 245.089 147.053 245.657 148.106C246.424 149.899 246.793 151.862 246.82 153.854C246.875 156.187 246.503 158.349 245.563 160.283C244.68 162.074 243.512 163.752 241.918 165.259C240.267 166.908 238.502 168.016 236.368 168.811C234.433 169.521 232.469 169.889 230.336 169.859C228.202 169.829 226.182 169.515 224.191 168.717C223.822 168.404 223.679 168.347 223.537 168.29Z" fill="url(#paint6_radial_72_6375)"/>
<path d="M222.43 165.7C220.866 165.073 219.331 163.962 217.994 162.766C216.516 161.513 215.493 159.948 214.726 158.155C213.959 156.362 213.477 154.683 213.535 152.891C213.394 151.184 213.793 149.363 214.591 147.372C215.332 145.523 216.5 143.846 217.98 142.623C219.404 141.543 220.912 140.662 222.449 140.123C224.185 139.498 225.949 139.215 227.94 139.188C228.623 139.132 229.249 139.218 229.932 139.161C227.827 138.647 225.722 138.134 222.906 137.335L220.232 136.594L220.632 133.948C221.69 126.779 222.091 123.309 223.149 116.14L223.492 113.637L226.024 113.496C242.27 112.911 245.971 109.442 246.769 107.451C247.396 105.887 243.755 104.263 242.191 103.636C238.92 102.325 234.426 101.183 228.651 100.354L225.095 99.7543L226.122 96.3695C228.317 89.6568 229.344 86.272 231.539 79.5594L232.537 76.6582L235.353 77.4568C240.701 78.94 245.508 80.5367 249.916 82.3038C254.893 84.2989 259.273 86.5496 262.97 88.8567C275.681 97.0879 276.045 105.652 274.049 111.454C270.856 121.068 263.113 128.033 251.588 131.666C249.368 132.262 246.608 132.971 243.08 133.537C242.709 134.874 240.342 142.014 240.342 142.014C240.342 142.014 235.422 140.701 234.511 140.502C235.876 141.214 237.27 142.267 238.464 143.406C239.885 144.801 240.908 146.367 241.448 147.904C242.129 149.497 242.413 151.261 242.554 152.968C242.581 154.96 242.181 156.78 241.497 158.487C240.728 159.994 239.617 161.53 238.279 162.809C236.884 164.231 235.319 165.254 233.44 165.821C231.705 166.446 229.94 166.729 228.148 166.671C226.299 166.755 224.478 166.355 222.772 165.671C222.715 165.814 222.573 165.757 222.43 165.7Z" fill="url(#paint7_radial_72_6375)"/>
<path d="M223.71 162.914C222.288 162.344 221.122 161.546 220.07 160.464C218.961 159.525 218.109 158.358 217.569 156.821C216.973 155.427 216.575 153.947 216.605 152.638C216.492 151.272 216.92 149.793 217.348 148.314C217.861 147.034 218.658 145.868 219.825 145.016C220.992 144.163 222.245 143.51 223.497 142.856C224.834 142.402 226.257 142.147 227.964 142.006C229.614 142.007 231.207 142.151 232.487 142.664C233.909 143.234 235.36 144.145 236.497 145.426C237.691 146.565 238.344 147.817 238.855 149.013C239.367 150.208 239.622 151.63 239.677 153.138C239.733 154.646 239.505 156.04 238.849 157.263C238.194 158.486 237.34 159.794 236.258 160.846C235.176 161.898 234.009 162.75 232.672 163.205C231.334 163.659 229.911 163.914 228.261 163.913C226.668 163.769 225.132 163.484 223.71 162.914ZM240.86 130.834C239.862 133.736 239.377 135.357 238.379 138.258C232.406 136.689 229.59 135.89 223.617 134.321C224.675 127.153 225.075 123.682 225.991 116.456C239.704 116.011 247.53 113.371 249.525 108.393C251.52 103.416 244.666 99.5136 229.134 97.0842C231.33 90.3715 232.356 86.9867 234.552 80.2741C245.816 83.4686 254.718 87.2019 261.259 91.4741C270.188 97.199 273.341 103.745 271.145 110.457C268.152 119.161 261.177 125.443 250.648 128.651C248.173 129.474 244.73 130.24 240.86 130.834Z" fill="#FF0042"/>
</g>
<defs>
<radialGradient id="paint0_radial_72_6375" cx="0" cy="0" r="1" gradientUnits="userSpaceOnUse" gradientTransform="translate(69.6355 103.165) rotate(21.8426) scale(52.339)">
<stop offset="0.5744" stop-color="#130C0E"/>
<stop offset="0.7977" stop-color="#130C0E"/>
<stop offset="1" stop-color="#130C0E"/>
</radialGradient>
<radialGradient id="paint1_radial_72_6375" cx="0" cy="0" r="1" gradientUnits="userSpaceOnUse" gradientTransform="translate(68.2061 102.421) rotate(21.8426) scale(49.7588)">
<stop offset="0.5744" stop-color="#130C0E"/>
<stop offset="0.7977" stop-color="#130C0E"/>
<stop offset="1" stop-color="#130C0E"/>
</radialGradient>
<radialGradient id="paint2_radial_72_6375" cx="0" cy="0" r="1" gradientUnits="userSpaceOnUse" gradientTransform="translate(138.559 105.729) rotate(21.8426) scale(45.0132)">
<stop offset="0.5744" stop-color="#130C0E"/>
<stop offset="0.7977" stop-color="#130C0E"/>
<stop offset="1" stop-color="#130C0E"/>
</radialGradient>
<radialGradient id="paint3_radial_72_6375" cx="0" cy="0" r="1" gradientUnits="userSpaceOnUse" gradientTransform="translate(136.521 104.706) rotate(21.8426) scale(42.34)">
<stop offset="0.5744" stop-color="#130C0E"/>
<stop offset="0.7977" stop-color="#130C0E"/>
<stop offset="1" stop-color="#130C0E"/>
</radialGradient>
<radialGradient id="paint4_radial_72_6375" cx="0" cy="0" r="1" gradientUnits="userSpaceOnUse" gradientTransform="translate(189.848 120.726) rotate(21.8426) scale(43.5623)">
<stop offset="0.5744" stop-color="#130C0E"/>
<stop offset="0.7977" stop-color="#130C0E"/>
<stop offset="1" stop-color="#130C0E"/>
</radialGradient>
<radialGradient id="paint5_radial_72_6375" cx="0" cy="0" r="1" gradientUnits="userSpaceOnUse" gradientTransform="translate(187.944 119.771) rotate(21.8426) scale(40.9392)">
<stop offset="0.5744" stop-color="#130C0E"/>
<stop offset="0.7977" stop-color="#130C0E"/>
<stop offset="1" stop-color="#130C0E"/>
</radialGradient>
<radialGradient id="paint6_radial_72_6375" cx="0" cy="0" r="1" gradientUnits="userSpaceOnUse" gradientTransform="translate(242.474 126.492) rotate(21.8426) scale(37.9462)">
<stop offset="0.5744" stop-color="#130C0E"/>
<stop offset="0.7977" stop-color="#130C0E"/>
<stop offset="1" stop-color="#130C0E"/>
</radialGradient>
<radialGradient id="paint7_radial_72_6375" cx="0" cy="0" r="1" gradientUnits="userSpaceOnUse" gradientTransform="translate(240.634 125.752) rotate(21.8426) scale(35.9364)">
<stop offset="0.5744" stop-color="#130C0E"/>
<stop offset="0.7977" stop-color="#130C0E"/>
<stop offset="1" stop-color="#130C0E"/>
</radialGradient>
<clipPath id="clip0_72_6375">
<rect width="281.903" height="144.169" fill="white" transform="translate(53.6406) rotate(21.8426)"/>
</clipPath>
</defs>
</svg>
