<svg width="163" height="132" viewBox="0 0 163 132" fill="none" xmlns="http://www.w3.org/2000/svg">
<path d="M70.8071 124.998C70.1785 124.998 69.55 124.998 68.9214 124.998C58.9901 124.381 50.9446 119.569 45.1618 110.315C42.3961 106.49 40.3848 101.678 39.1276 96.2485C37.9962 90.9428 37.7448 85.2669 38.3733 79.591C39.5048 69.4731 43.0247 60.3423 48.8075 52.4454C55.8473 42.9444 64.6472 38.2556 75.0813 38.2556C75.7099 38.2556 76.3384 38.2556 77.0927 38.2556C86.8982 38.7492 94.8181 43.6847 100.727 52.6921C103.869 57.5043 106.006 62.4399 107.138 67.4988C108.144 72.4344 108.395 77.8635 107.892 83.6628C107.012 93.5339 103.367 102.665 97.2066 110.685C90.1668 120.186 81.2412 124.998 70.8071 124.998ZM63.2644 84.6499C63.1386 86.6241 63.2644 88.475 63.7672 90.2024V90.3258V90.4492C64.2701 92.917 65.0243 94.8912 66.2815 96.0017C67.79 97.4824 69.55 98.2227 71.9385 98.3461C72.1899 98.3461 72.3156 98.3461 72.5671 98.3461C75.4584 98.3461 77.5956 97.1122 79.3555 94.6444C80.9898 92.0533 81.9955 88.5984 82.2469 84.4031C82.624 79.591 81.9955 74.9022 80.3612 70.4602C78.3498 64.6609 75.7099 64.5375 74.8299 64.5375C74.7042 64.5375 74.5785 64.5375 74.5785 64.5375C71.8128 64.5375 69.4243 66.8819 67.2871 71.5707C65.2758 75.7659 63.8929 80.2079 63.2644 84.6499Z" fill="#221F1F"/>
<path d="M50.2366 53.4656C56.772 44.5537 64.9709 40.2759 74.8334 40.8701C83.27 41.3454 90.0431 45.6231 95.2714 53.5844C98.1232 57.9809 100.024 62.3775 100.975 67.0117C101.926 71.527 102.163 76.5177 101.688 81.8648C100.856 90.8956 97.6479 99.0945 92.0631 106.581C85.5277 115.611 77.3288 119.889 67.4663 119.295C58.9108 118.82 52.019 114.542 46.9095 106.343C44.4141 102.897 42.6318 98.6192 41.5623 93.6285C40.6117 88.7567 40.3741 83.6472 40.9682 78.4189C41.8 69.0317 45.0083 60.7139 50.2366 53.4656ZM80.6559 68.4376C78.9923 63.6845 76.497 61.1892 73.1699 60.9516C69.2486 60.7139 66.0404 63.4469 63.4262 69.1505C61.4062 73.4282 60.0991 77.9436 59.3861 82.5778C59.1485 84.8355 59.3861 86.9743 59.9803 88.8755C60.4556 91.8462 61.525 94.1038 63.0697 95.6486C64.8521 97.431 67.1098 98.5004 70.0804 98.6192C74.0017 98.8569 77.0911 97.3121 79.3488 93.8662C81.1312 91.0144 82.2006 87.3308 82.5571 82.8154C82.9136 77.9436 82.2006 73.1906 80.6559 68.4376Z" fill="#FF0042"/>
<path d="M124.657 128.55C123.254 128.401 121.866 128.111 120.508 127.536C118.464 126.746 116.871 125.716 115.308 124.403C113.744 123.089 112.522 121.238 111.595 119.275C110.668 117.312 110.163 115.394 110.093 113.378C109.882 111.348 110.404 109.108 111.191 107.04C111.978 104.972 113.155 103.232 114.879 101.694C116.433 100.425 118.112 99.3117 119.885 98.6393C121.674 97.825 123.714 97.3242 125.848 97.2638C126.986 97.241 128.123 97.2183 129.105 97.3225C130.087 97.4267 131.055 97.6727 132.022 97.9187L132.162 97.9336L132.302 97.9485C134.346 98.7391 136.205 99.9404 137.738 101.537C139.272 103.134 140.384 104.687 141.185 106.493C141.987 108.299 142.493 110.218 142.548 112.375C142.602 114.533 142.236 116.645 141.324 118.557C140.552 120.483 139.515 122.237 138.072 123.806C136.613 125.516 134.779 126.755 132.71 127.54C130.78 128.339 128.756 128.698 126.762 128.773C126.201 128.714 125.499 128.64 124.657 128.55ZM138.861 97.6403C124.185 94.2186 121.83 93.6819 121.269 93.6223L118.353 93.026L119.27 88.39C119.712 85.568 120.9 78.3788 123.513 60.4394C124.771 51.2495 126.476 40.5292 128.347 28.2486L128.833 25.0011L162.084 32.5451L141.497 98.2068L138.861 97.6403Z" fill="#221F1F"/>
<path d="M120.071 122.144C118.446 121.549 117.128 120.706 115.84 119.584C114.691 118.477 113.711 117.107 112.885 115.612C112.212 113.993 111.818 112.403 111.702 110.843C111.586 109.283 111.902 107.628 112.651 105.878C113.245 104.253 114.089 102.935 115.335 101.801C116.581 100.667 118.076 99.8407 119.541 99.2926C121.021 98.6053 122.75 98.2259 124.588 98.1395C126.426 98.0532 128.096 98.2303 129.736 98.6857C131.362 99.2803 132.804 100.278 134.077 101.538C135.35 102.799 136.331 104.17 137.033 105.51C137.72 106.99 137.99 108.426 138.091 110.125C138.192 111.825 137.891 113.34 137.172 114.812C136.577 116.437 135.594 117.74 134.473 119.028C133.351 120.316 131.842 121.282 130.376 121.83C128.757 122.503 127.182 122.758 125.344 122.844C123.63 123.084 121.836 122.753 120.071 122.144ZM120.524 88.7029C120.648 88.8568 122.114 79.0219 125.045 59.3522C126.297 50.1982 127.976 39.6824 129.787 27.9143L156.441 33.9784L137.834 92.6501C126.294 90.0187 120.385 88.6882 120.524 88.7029Z" fill="#FF0042"/>
<path d="M26.7677 118.809C17.9305 117.467 13.576 116.735 4.61072 115.15L1.40884 114.54L2.30536 111.612C5.50724 101.364 8.45297 90.75 11.3987 80.6243L11.5268 80.3803C6.53184 61.3487 2.81766 42.0731 0.256156 21.4556L0 19.7476L1.53691 18.7716C11.2706 12.6718 18.699 8.03586 25.8712 3.64395L31.5065 0.228027L30.3538 6.44989C29.3292 11.6958 28.6889 17.4297 28.1766 23.5295C28.0485 25.7255 27.9204 27.7994 27.9204 29.9954C31.2504 21.5776 34.8365 13.5257 38.8068 5.47391L39.7033 3.52196L41.8806 3.88795C49.5651 5.22992 53.2793 5.9619 60.4515 7.42587L64.1657 8.15785L62.3726 11.3298C45.979 41.3411 35.733 74.6464 30.0977 116.247L29.7135 119.053L26.7677 118.809Z" fill="url(#paint0_radial_113_6815)"/>
<path d="M38.3799 6.52667C45.2718 7.83375 48.7177 8.42788 55.4908 9.97261C38.6176 42.4119 29.9433 76.8713 25.3091 113.113C17.1102 111.806 12.9513 111.093 4.87118 109.548C7.96064 99.2105 10.8124 88.7538 13.5454 78.2972C8.79242 59.1663 5.34648 40.1543 2.96997 20.5481C10.456 15.5574 17.942 10.6856 25.5468 5.81372C24.715 10.3291 24.0021 16.0327 23.5268 22.8057C23.0515 29.5788 23.1703 36.3518 23.8832 43.2437C28.0421 30.6482 32.7951 18.528 38.3799 6.52667Z" fill="#FF0042"/>
<defs>
<radialGradient id="paint0_radial_113_6815" cx="0" cy="0" r="1" gradientUnits="userSpaceOnUse" gradientTransform="translate(32.078 59.7509) scale(49.6883 47.3303)">
<stop offset="0.5744" stop-color="#130C0E"/>
<stop offset="0.7977" stop-color="#130C0E"/>
<stop offset="1" stop-color="#130C0E"/>
</radialGradient>
</defs>
</svg>
