<svg width="193" height="156" viewBox="0 0 193 156" fill="none" xmlns="http://www.w3.org/2000/svg">
<path d="M83.8685 147.802C83.1238 147.802 82.3792 147.802 81.6346 147.802C69.8698 147.071 60.3389 141.371 53.4885 130.408C50.2122 125.877 47.8295 120.176 46.3403 113.745C45 107.459 44.7021 100.736 45.4467 94.0119C46.787 82.026 50.9568 71.2095 57.8072 61.8546C66.1468 50.5996 76.5713 45.0452 88.9318 45.0452C89.6764 45.0452 90.421 45.0452 91.3145 45.0452C102.93 45.6298 112.312 51.4766 119.312 62.147C123.035 67.8476 125.566 73.6944 126.907 79.6873C128.098 85.5341 128.396 91.9655 127.8 98.8355C126.758 110.529 122.439 121.346 115.142 130.847C106.802 142.102 96.2289 147.802 83.8685 147.802ZM74.9332 100.005C74.7843 102.344 74.9332 104.536 75.5289 106.582V106.729V106.875C76.1245 109.798 77.0181 112.137 78.5073 113.452C80.2943 115.206 82.3792 116.083 85.2087 116.23C85.5066 116.23 85.6555 116.23 85.9534 116.23C89.3785 116.23 91.9102 114.768 93.9951 111.845C95.9311 108.775 97.1225 104.682 97.4203 99.7125C97.8671 94.0119 97.1225 88.4575 95.1865 83.1954C92.8037 76.3254 89.6764 76.1792 88.6339 76.1792C88.485 76.1792 88.3361 76.1792 88.3361 76.1792C85.0598 76.1792 82.2303 78.9565 79.6987 84.5109C77.3159 89.4807 75.6778 94.7428 74.9332 100.005Z" fill="#221F1F"/>
<path d="M59.5013 63.063C67.2433 52.5057 76.9559 47.4383 88.6393 48.1421C98.6334 48.7051 106.657 53.7726 112.851 63.2037C116.229 68.412 118.481 73.6202 119.607 79.11C120.733 84.459 121.015 90.371 120.452 96.7053C119.466 107.403 115.666 117.116 109.05 125.984C101.308 136.682 91.5953 141.75 79.9119 141.046C69.777 140.483 61.6127 135.415 55.5599 125.703C52.6039 121.62 50.4925 116.553 49.2256 110.641C48.0995 104.87 47.818 98.8168 48.5218 92.6232C49.5071 81.5029 53.3077 71.6495 59.5013 63.063ZM95.5367 80.7991C93.566 75.1686 90.6099 72.2126 86.6686 71.931C82.0234 71.6495 78.2228 74.8871 75.126 81.6437C72.733 86.7112 71.1846 92.0602 70.3401 97.5499C70.0585 100.224 70.3401 102.758 71.0439 105.01C71.6069 108.529 72.8738 111.204 74.7037 113.034C76.8152 115.145 79.4897 116.412 83.0087 116.553C87.6539 116.834 91.3138 115.005 93.9883 110.922C96.0997 107.544 97.3666 103.18 97.7888 97.8314C98.2111 92.0602 97.3666 86.4296 95.5367 80.7991Z" fill="#FF0042"/>
<path d="M147.658 152.009C145.996 151.833 144.352 151.489 142.743 150.808C140.322 149.872 138.434 148.652 136.582 147.096C134.731 145.54 133.282 143.348 132.185 141.022C131.087 138.697 130.487 136.424 130.405 134.037C130.156 131.631 130.773 128.978 131.705 126.528C132.638 124.078 134.033 122.017 136.075 120.195C137.915 118.691 139.904 117.373 142.005 116.576C144.125 115.612 146.541 115.018 149.069 114.947C150.417 114.92 151.764 114.893 152.928 115.016C154.091 115.14 155.237 115.431 156.382 115.723L156.548 115.74L156.715 115.758C159.136 116.694 161.338 118.118 163.154 120.009C164.971 121.901 166.288 123.74 167.238 125.88C168.187 128.02 168.786 130.292 168.851 132.848C168.916 135.404 168.483 137.906 167.402 140.171C166.488 142.453 165.259 144.531 163.549 146.389C161.822 148.414 159.649 149.883 157.197 150.812C154.912 151.759 152.514 152.185 150.151 152.274C149.486 152.203 148.655 152.115 147.658 152.009ZM164.485 115.393C147.099 111.339 144.309 110.704 143.644 110.633L140.19 109.927L141.277 104.435C141.799 101.092 143.207 92.5752 146.302 71.3238C147.793 60.4373 149.813 47.7377 152.029 33.1898L152.605 29.3428L191.994 38.2796L167.607 116.064L164.485 115.393Z" fill="#221F1F"/>
<path d="M142.227 144.42C140.301 143.716 138.74 142.717 137.214 141.388C135.853 140.077 134.692 138.454 133.713 136.683C132.916 134.765 132.449 132.882 132.312 131.034C132.175 129.185 132.549 127.225 133.436 125.152C134.14 123.227 135.14 121.666 136.616 120.322C138.092 118.979 139.862 118 141.598 117.35C143.351 116.536 145.399 116.087 147.577 115.984C149.755 115.882 151.733 116.092 153.676 116.631C155.601 117.336 157.31 118.517 158.818 120.011C160.326 121.504 161.488 123.128 162.319 124.716C163.133 126.469 163.453 128.17 163.573 130.183C163.693 132.196 163.335 133.992 162.484 135.735C161.779 137.66 160.616 139.204 159.287 140.73C157.958 142.256 156.17 143.399 154.434 144.049C152.516 144.845 150.65 145.147 148.473 145.25C146.442 145.534 144.317 145.142 142.227 144.42ZM142.762 104.806C142.91 104.988 144.646 93.3373 148.118 70.036C149.602 59.1921 151.59 46.7348 153.736 32.794L185.311 39.9778L163.269 109.482C149.598 106.364 142.598 104.788 142.762 104.806Z" fill="#FF0042"/>
<path d="M31.7096 140.474C21.2409 138.884 16.0824 138.017 5.46195 136.138L1.66894 135.416L2.73098 131.947C6.52399 119.808 10.0136 107.234 13.5031 95.2391L13.6549 94.9501C7.73775 72.4048 3.33786 49.5706 0.303448 25.1466L0 23.1233L1.82066 21.9671C13.3514 14.7411 22.1512 9.24932 30.6476 4.04658L37.3233 0L35.9578 7.37056C34.744 13.5849 33.9854 20.3774 33.3786 27.6034C33.2268 30.2048 33.0751 32.6617 33.0751 35.263C37.0199 25.2911 41.268 15.7528 45.9714 6.21439L47.0334 3.90206L49.6127 4.33562C58.7159 5.92535 63.1158 6.79247 71.6122 8.52672L76.0121 9.39384L73.888 13.1514C54.4677 48.7035 42.3301 88.1576 35.6544 137.439L35.1992 140.763L31.7096 140.474Z" fill="url(#paint0_radial_72_579)"/>
<path d="M45.4665 7.45932C53.6308 9.00772 57.7129 9.71153 65.7364 11.5415C45.748 49.9698 35.4723 90.7911 29.9826 133.724C20.2699 132.175 15.3432 131.331 5.77132 129.501C9.43116 117.255 12.8095 104.867 16.047 92.4802C10.4165 69.8174 6.33437 47.2953 3.5191 24.0694C12.3872 18.1573 21.2553 12.386 30.2641 6.61475C29.2788 11.9637 28.4342 18.7204 27.8711 26.7439C27.3081 34.7674 27.4488 42.7909 28.2934 50.9551C33.2201 36.0342 38.8506 21.6764 45.4665 7.45932Z" fill="#FF0042"/>
<defs>
<radialGradient id="paint0_radial_72_579" cx="0" cy="0" r="1" gradientUnits="userSpaceOnUse" gradientTransform="translate(38.0003 70.5121) scale(58.8619 56.0685)">
<stop offset="0.5744" stop-color="#130C0E"/>
<stop offset="0.7977" stop-color="#130C0E"/>
<stop offset="1" stop-color="#130C0E"/>
</radialGradient>
</defs>
</svg>
