<svg width="221" height="267" viewBox="0 0 221 267" fill="none" xmlns="http://www.w3.org/2000/svg">
<path fill-rule="evenodd" clip-rule="evenodd" d="M103.893 95.4923C110.517 95.8117 120.831 98.5864 121.347 100.36C122.152 103.129 120.422 113.51 123.316 119.102C124.55 121.486 129.234 121.272 131.049 122.048C137.123 124.646 155.102 129.572 158.809 135.774C160.295 138.259 169.422 169.094 174.271 184.825C174.818 186.598 175.436 188.239 176.107 189.758L176.354 188.577C178.331 179.07 179.32 173.314 179.32 171.31C179.32 168.179 176.764 154.969 179.32 151.61C181.85 148.284 187.949 145.565 190.693 145.511L190.775 145.51C192.577 145.51 194.14 144.96 195.465 143.859L197.407 142.905C207.289 138.06 213.062 135.402 214.727 134.932C217.384 134.182 221.906 135.78 219.645 138.181C218.138 139.781 214.35 142.612 208.283 146.673L205.995 148.449L206.271 148.59C209.228 150.111 210.967 151.391 211.487 152.431C212.023 153.502 211.766 154.769 210.715 156.232L210.874 156.384C212.203 157.659 212.868 158.514 212.868 158.949V161.075C214.19 162.967 214.521 164.545 213.86 165.809C213.199 167.073 212.15 168.168 210.715 169.094C209.657 171.812 208.398 173.747 206.936 174.898C205.475 176.049 202.949 177.008 199.359 177.773L196.11 185.363L193.477 196.025L192.151 207.923L192.536 208.196C194.321 209.466 195.465 210.408 195.465 211.381C195.465 212.897 188.262 248.55 177.056 250.146C174.632 250.491 162.063 248.798 157.936 245.518L157.997 245.872C158.968 251.603 158.763 254.578 157.381 254.8C140.398 257.52 92.1662 258.361 12.685 257.321C12.2121 216.105 14.3503 188.655 19.0997 174.972C31.2466 139.978 44.639 128.025 49.3244 127.002C53.4285 126.105 67.6601 120.571 71.6384 119.102C74.2353 118.143 74.7917 115.268 77.751 115.268L77.9902 115.269C80.8521 115.298 83.39 115.798 84.8159 114.359C88.5578 110.586 87.5118 105.362 89.0641 100.36C89.9195 97.6038 95.7643 95.1004 103.893 95.4923Z" fill="#FFCBA7"/>
<path d="M77.751 115.268L77.9902 115.269C78.6976 115.276 79.3851 115.312 80.0409 115.34L78.6591 119.941L78.6292 120.424C77.7319 136.285 85.6814 143.878 102.478 143.203C119.274 142.527 127.629 137.337 127.542 127.631L127.536 127.335L127.537 121.295L127.801 121.344C129.076 121.578 130.304 121.729 131.049 122.048C137.123 124.646 155.102 129.572 158.809 135.774C160.295 138.259 169.422 169.094 174.271 184.825C174.449 185.4 174.633 185.961 174.825 186.508L174.825 189.617L174.772 189.805C173.072 196.017 175.335 201.095 181.561 205.041C185.975 207.837 190.507 209.653 195.158 210.487C195.358 210.789 195.465 211.083 195.465 211.381C195.465 212.897 188.262 248.55 177.056 250.146C174.632 250.491 162.063 248.798 157.936 245.518L157.997 245.872L158.054 246.213C158.959 251.721 158.735 254.583 157.381 254.8C140.398 257.52 92.1662 258.361 12.685 257.321C12.2121 216.105 14.3503 188.655 19.0997 174.972C31.2466 139.978 44.639 128.025 49.3244 127.002C53.4285 126.105 67.6601 120.571 71.6385 119.102C74.2354 118.143 74.7917 115.268 77.751 115.268Z" fill="#FFA102"/>
<path fill-rule="evenodd" clip-rule="evenodd" d="M85.6942 105.374C86.083 104.621 87.1151 104.719 87.7961 105.06C89.8387 106.519 87.7015 109.347 87.1365 111.127C85.683 114.581 83.1586 117.956 79.6737 119.57C79.9625 123.003 80.2897 126.428 80.4105 129.872C84.8661 135.271 92.3781 137.242 99.0466 138.758C109.52 141.588 121.34 135.79 124.875 125.675C120.852 123.441 119.55 117.593 120.751 113.513C120.855 113.227 121.31 113.1 121.471 113.42C122.573 115.634 122.426 118.335 123.679 120.522C135.7 121.647 151.214 126.078 159.09 135.577C162.58 140.329 163.962 146.51 165.681 152.017C169.349 163.372 172.272 174.956 175.868 186.322L176.293 184.171C177.455 178.247 178.511 172.243 177.726 166.218L177.712 165.93C177.455 161.136 175.92 152.227 179.725 148.991C183.167 146.421 188.153 144.356 192.472 145.541C200.158 142.199 206.792 136.571 214.979 134.379C217.498 133.873 221.122 134.473 220.527 137.812C218.877 143.653 211.965 145.92 207.241 148.931C210.269 149.733 213.961 153.332 211.595 156.469C211.575 156.525 211.556 156.567 211.538 156.601C213.457 157.431 213.726 159.52 213.255 161.311C213.207 161.784 213.08 161.377 213.364 161.806C215.529 163.801 214.572 169.363 211.311 169.55C211.524 172.186 209.792 174.745 207.598 176.182C205.233 177.731 201.813 177.798 199.855 179.917C195.258 187.837 193.672 197.187 193.171 206.256C196.201 207.364 198.92 210.678 196.167 213.49C196.113 213.496 196.058 213.502 196.003 213.506C194.407 217.668 193.791 222.104 192.947 226.45C191.648 233.866 188.264 240.674 183.943 246.852C178.945 255.029 165.507 253.733 158.737 248.456C158.764 249.84 158.998 251.216 158.544 252.554C157.874 253.998 156.241 253.374 156.079 251.952C152.5 253.919 151.658 247.428 155.636 248.458C155.33 243.765 155.152 239.066 155.009 234.366C150.505 235.79 150.31 228.489 154.917 229.949L154.912 227.931C154.878 212.454 155.053 196.925 157.143 181.57C157.337 180.421 157.664 179.31 157.855 178.169C157.876 178.051 158.064 178.084 158.065 178.197C158.389 199.694 156.951 221.237 158.451 242.741C159.7 243.113 160.198 244.514 161.123 245.329C163.176 247.181 165.972 248.083 168.706 248.397C176.362 249.446 179.667 247.162 183.077 240.66C181.539 241.664 179.461 239.891 180.398 238.302L180.428 238.254C181.401 236.57 184.15 237.579 183.802 239.464C187.23 234.101 189.024 228.054 190.349 221.918L190.528 221.185C191.172 218.58 192.008 215.595 193.554 213.238C184.122 210.889 174.895 203.733 173.419 193.914C171.025 201.266 167.78 208.452 164.688 215.601C163.733 218.088 163.335 220.76 161.966 223.066C161.648 223.599 160.841 223.462 160.661 222.899C159.43 217.522 163.16 212.407 165.097 207.565C166.679 204.829 171.219 192.335 174.033 192.305C170.87 178.76 166.652 165.316 162.634 151.94C158.749 133.878 150.832 130.395 134.061 124.708C137.086 139.771 150.897 154.35 143.548 170.148L143.369 170.558C142.618 172.3 141.993 174.055 142.518 175.967C143.027 177.822 144.187 179.433 145.115 181.101C150.301 190.526 146.731 201.532 144.726 211.347C142.193 222.857 139.691 234.377 137.072 245.87C136.556 248.162 136.222 250.524 135.442 252.746C135.039 253.892 133.032 253.783 133.161 252.446C133.409 249.851 134.155 247.32 134.701 244.772C137.961 228.274 142.373 211.97 145.178 195.4C146.982 183.134 139.879 181.249 140.144 173.323C141.109 169.27 143.665 165.652 143.518 161.333C144.086 148.11 134.229 137.202 133.012 124.342L130.863 123.593C129.789 123.217 128.716 122.838 127.647 122.451C133.276 160.914 131.567 200.216 128.753 238.869C128.178 240.653 128.725 258.888 126.315 257.782C126.193 258.478 125.814 259.163 124.991 259.159C117.517 259.226 110.041 259.342 102.567 259.429C98.9716 259.105 94.0301 260.446 90.9722 258.42C87.4416 257.435 87.0357 242.317 86.0919 238.987L85.7239 236.565C79.7246 196.995 74.3559 156.609 78.6682 116.647C72.6685 116.872 71.4302 123.199 70.9852 127.805C69.8726 137.972 63.1493 146.728 62.8269 157.012C62.7996 159.507 63.2816 161.923 64.3024 164.214C67.0105 169.827 71.6942 176.315 68.1936 182.583C64.0536 187.463 64.412 188.747 65.9311 194.778C70.2052 214.713 77.3033 233.878 84.0554 253.099C82.5883 260.57 73.764 232.836 72.9338 230.744C69.0276 232.663 66.8939 226.295 71.3742 225.841C68.4965 216.43 65.8481 206.948 63.6432 197.362L63.5848 197.091C62.6108 192.662 60.695 187.476 63.9301 183.547C72.2719 175.305 58.419 166.092 60.1665 156.107C58.6576 157.2 56.3735 156.05 56.4078 154.215C56.3394 152.147 59.1812 151.089 60.5487 152.666C61.9547 144.565 66.8463 137.493 68.3266 129.416L68.3935 129.036C68.8951 126.182 69.0365 123.178 70.4715 120.576C68.5181 121.816 66.4377 122.818 64.298 123.702C68.1238 126.824 60.7154 129.674 61.3284 124.851C40.3481 130.781 35.6061 139.052 27.903 158.045C29.3419 156.679 31.8067 158.446 30.9454 160.188C30.2582 162.023 27.2606 161.487 27.2617 159.531L26.9107 160.349C22.2396 171.262 17.9881 182.439 15.8516 194.118C20.0428 193.54 18.9757 200.084 15.1783 198.239C13.6544 208.625 13.6303 219.159 13.8165 229.629C17.3517 227.818 17.4581 233.972 13.8506 232.217C13.9825 240.797 14.1758 249.378 14.3213 257.958C14.3509 259.784 11.4677 259.775 11.4222 257.958C11.0854 244.774 10.4717 231.566 10.7635 218.379C10.489 195.49 17.2237 173.429 27.2581 152.925C36.1368 129.316 48.4009 126.631 70.9649 119.767C73.0478 116.746 77.4977 113.889 81.1283 115.786C83.1595 112.583 84.1912 108.787 85.6942 105.374ZM47.035 187.656C47.1192 187.365 47.5444 187.438 47.558 187.725C47.7468 191.428 47.5785 195.156 47.3193 198.875C47.1622 201.146 46.9691 203.414 46.8054 205.669C46.3711 211.619 46.0209 217.575 45.7549 223.536C45.8481 223.498 45.9436 223.464 46.0437 223.438C46.503 223.316 46.9625 223.316 47.4216 223.438C47.8312 223.55 48.1893 223.745 48.4977 224.027L48.5631 224.089C48.8155 224.317 48.9951 224.589 49.0997 224.902C49.2487 225.181 49.3241 225.479 49.3239 225.797L49.3223 225.877C49.3203 226.335 49.2043 226.759 48.9678 227.155C48.7381 227.535 48.4289 227.837 48.0401 228.063C47.6353 228.292 47.2008 228.406 46.7326 228.408C46.6826 228.412 46.6323 228.417 46.5826 228.419C46.2344 228.432 45.9095 228.361 45.6091 228.208L45.5639 228.195C45.4502 231.218 45.357 234.244 45.2887 237.27C45.2273 239.907 45.1455 242.544 45.0909 245.181L45.0656 246.5L45.0161 249.416C45 250.615 45.0079 251.763 44.5907 252.894L44.5406 253.024C44.2405 253.779 44.0065 254.83 43.2034 255.25C42.5624 255.585 41.6983 255.461 41.33 254.808C41.0207 254.261 41.2888 253.475 41.7461 253.106C41.737 253.082 41.7234 253.059 41.712 253.035C41.6415 252.835 41.5344 252.646 41.471 252.444C41.2706 251.804 41.3254 251.122 41.3232 250.458C41.3232 249.285 41.3639 248.112 41.3959 246.941C41.4664 244.448 41.5483 241.958 41.6481 239.467C41.9861 231.113 42.6225 222.758 43.3513 214.427L43.5987 211.615C43.9282 207.876 44.2693 204.132 44.7521 200.413C44.7746 200.235 44.7976 200.057 44.8226 199.879C44.5634 199.753 44.3224 199.577 44.1311 199.382C43.3651 198.596 42.9004 197.421 42.4647 196.409L42.3646 196.178C41.8916 195.098 41.455 194.005 41.2299 192.846L41.2084 192.739C41.1057 192.245 40.903 191.37 41.4391 191.13C41.7188 191.006 41.8959 191.095 41.9871 191.368C41.9987 191.404 41.9892 191.444 41.9689 191.475C42.1895 191.806 42.5351 192.115 42.7534 192.421L43.5005 193.465L43.8699 193.989C44.3383 194.663 44.8385 195.307 45.3547 195.943C45.7615 193.152 46.2597 190.373 47.035 187.656ZM77.6728 249.838C78.6073 249.122 80.1285 249.511 80.1285 250.831C80.1285 252.157 78.6051 252.54 77.6728 251.824L77.6264 251.79L77.5818 251.755C77.0742 251.368 77.0571 250.359 77.5434 249.938L77.5818 249.907C77.6112 249.882 77.641 249.86 77.6728 249.838ZM37.0415 247.261C37.4644 247.261 37.8578 247.365 38.2239 247.574C38.383 247.692 38.5399 247.812 38.6991 247.932C38.9902 248.216 39.1902 248.554 39.3017 248.943L39.386 249.551C39.3972 249.867 39.3312 250.16 39.1834 250.434C39.0879 250.718 38.9265 250.964 38.6991 251.171C38.4854 251.395 38.2352 251.553 37.9444 251.644C37.6878 251.776 37.4142 251.844 37.1217 251.844L37.0415 251.842C36.6165 251.842 36.2229 251.738 35.8568 251.529C35.6976 251.411 35.5407 251.291 35.3816 251.171C35.0928 250.887 34.8904 250.549 34.7792 250.16C34.7517 249.958 34.7246 249.753 34.6949 249.551C34.6837 249.236 34.7517 248.943 34.8972 248.669C34.9927 248.385 35.1542 248.139 35.3816 247.932C35.5955 247.707 35.8454 247.55 36.1365 247.458C36.3929 247.326 36.6683 247.259 36.9612 247.259L37.0415 247.261ZM143.403 243.035L143.998 243.113C144.569 243.24 145.028 243.651 145.335 244.119C145.499 244.371 145.588 244.642 145.601 244.933C145.667 245.221 145.654 245.512 145.56 245.803C145.492 246.088 145.358 246.336 145.16 246.548C145.092 246.652 145.012 246.748 144.922 246.832C144.735 247.136 144.453 247.336 144.162 247.541C143.917 247.694 143.65 247.776 143.364 247.79C143.175 247.839 142.984 247.839 142.793 247.79C142.509 247.776 142.243 247.694 141.997 247.541C141.852 247.432 141.706 247.321 141.563 247.212C141.436 247.068 141.317 246.919 141.206 246.763C141.131 246.592 141.058 246.423 140.986 246.254C140.851 245.848 140.917 245.488 140.99 245.081C141.001 245.013 141.02 244.95 141.045 244.883L141.094 244.754C141.225 244.417 141.295 244.302 141.527 244.008L141.615 243.893C141.659 243.835 141.705 243.779 141.757 243.728C141.902 243.582 142.109 243.459 142.272 243.333C142.623 243.135 143 243.038 143.403 243.035ZM66.2785 241.613C66.6082 241.616 66.9177 241.696 67.2039 241.858L67.5768 242.14C67.8042 242.364 67.9611 242.626 68.0498 242.931C68.0703 243.091 68.0932 243.251 68.1157 243.408C68.1248 243.655 68.0728 243.886 67.9566 244.102C67.884 244.324 67.7565 244.515 67.5768 244.679C67.4111 244.853 67.213 244.977 66.9856 245.05C66.7872 245.151 66.5737 245.205 66.3469 245.205L66.2785 245.204C65.9465 245.204 65.6373 245.121 65.3508 244.959L64.9779 244.679C64.7505 244.455 64.5936 244.191 64.5049 243.886C64.4844 243.726 64.4617 243.568 64.439 243.408C64.4299 243.162 64.4822 242.931 64.5981 242.718C64.6732 242.495 64.7982 242.302 64.9779 242.14C65.1438 241.964 65.3417 241.84 65.569 241.769C65.7676 241.667 65.9771 241.615 66.2027 241.613L66.2785 241.613ZM51.1962 240.878C51.6712 240.874 52.1535 241.005 52.5423 241.273C52.9198 241.535 53.2061 241.818 53.3905 242.242C53.4405 242.358 53.4903 242.471 53.5337 242.586C53.7293 243.095 53.7656 243.606 53.4951 244.104C53.2336 244.586 52.6697 244.797 52.1646 244.941C51.7374 245.066 51.2531 245.086 50.8279 244.937C50.6164 244.864 50.4095 244.786 50.2185 244.673C49.8615 244.457 49.6682 244.201 49.4294 243.886C49.243 243.575 49.1498 243.237 49.1498 242.877C49.1498 242.515 49.243 242.18 49.4294 241.867C49.7953 241.256 50.4731 240.882 51.1962 240.878ZM27.0935 241.307C27.694 241.307 28.2213 241.578 28.583 242.035C28.9489 242.5 29.0831 243.077 28.9216 243.653C28.7511 244.262 28.2351 244.795 27.596 244.948C27.1232 245.061 26.7365 245.057 26.2658 244.979C25.8679 244.913 25.5634 244.681 25.2585 244.441C24.9106 244.164 24.8037 243.657 24.8605 243.249C24.9151 242.84 25.1086 242.573 25.4019 242.331L25.404 242.324L25.2948 242.407C25.336 242.371 25.3767 242.333 25.4179 242.295C25.4313 242.273 25.4426 242.249 25.454 242.224C25.6223 241.944 25.8497 241.724 26.1339 241.56C26.4318 241.391 26.7501 241.307 27.0935 241.307ZM167.069 234.577C167.398 234.491 167.73 234.491 168.06 234.577C168.304 234.633 168.515 234.742 168.695 234.904C168.877 235.02 169.026 235.168 169.138 235.352L169.174 235.415C169.434 235.846 169.474 236.339 169.363 236.819C169.224 237.412 168.665 237.952 168.06 238.092L168.04 238.096L168.019 238.101C167.774 238.177 167.526 238.188 167.28 238.132C167.032 238.121 166.803 238.05 166.591 237.917C166.323 237.748 166.098 237.53 165.925 237.268C165.788 237.059 165.716 236.835 165.704 236.592C165.661 236.433 165.661 236.273 165.704 236.113C165.716 235.87 165.788 235.646 165.925 235.437L166.216 235.07L166.246 235.046C166.478 234.819 166.753 234.664 167.069 234.577ZM144.176 222.82C147.157 222.82 147.152 227.339 144.176 227.339C141.195 227.339 141.199 222.82 144.176 222.82ZM35.0358 222.249C35.3498 222.18 35.6636 222.194 35.9752 222.289C36.1639 222.367 36.3503 222.445 36.5368 222.52L37.0143 222.88C37.103 222.954 37.1462 223.034 37.228 223.138L37.3304 223.269C37.4783 223.462 37.4818 223.503 37.6441 223.916C37.7533 224.311 37.7533 224.706 37.6441 225.102C37.5916 225.293 37.5123 225.473 37.4099 225.64C37.3164 225.8 37.2045 225.94 37.0785 226.069L37.0143 226.133C36.8006 226.357 36.5482 226.515 36.2571 226.608C36.0729 226.713 35.8751 226.764 35.6636 226.764C35.3498 226.833 35.0358 226.819 34.7245 226.724C34.5358 226.646 34.3494 226.568 34.1627 226.493L33.6854 226.133L33.317 225.666L33.1996 225.393L33.0806 225.117L32.9964 224.507C32.9851 224.189 33.051 223.896 33.1986 223.62C33.2554 223.427 33.3557 223.256 33.501 223.113C33.6058 222.94 33.7466 222.802 33.9242 222.7C34.0695 222.558 34.2448 222.46 34.4426 222.405C34.6268 222.3 34.8246 222.249 35.0358 222.249ZM182.476 219.021C182.724 219.012 182.956 219.063 183.17 219.174C183.245 219.199 183.318 219.23 183.388 219.266C183.663 219.423 183.881 219.636 184.043 219.903C184.175 220.108 184.248 220.328 184.259 220.565C184.308 220.779 184.304 220.995 184.244 221.21L184.225 221.274C184.175 221.45 184.1 221.612 184 221.76C183.99 221.778 183.979 221.796 183.966 221.811C183.813 222.047 183.611 222.24 183.361 222.385C183.083 222.54 182.785 222.62 182.463 222.623C181.819 222.623 181.264 222.283 180.926 221.76C180.878 221.687 180.85 221.594 180.817 221.518C180.787 221.447 180.739 221.356 180.714 221.274C180.628 220.959 180.628 220.643 180.714 220.328C180.771 220.096 180.878 219.894 181.039 219.723C181.169 219.53 181.339 219.377 181.551 219.266C181.813 219.116 182.095 219.036 182.394 219.023L182.476 219.021ZM56.6146 216.811C56.9295 216.727 57.2426 216.72 57.5554 216.791L57.6335 216.811C57.8834 216.868 58.0997 216.98 58.2859 217.144C58.4928 217.277 58.659 217.453 58.7793 217.67C58.9524 217.962 59.0388 218.277 59.0408 218.614C59.0388 218.952 58.9524 219.268 58.7793 219.559C58.6088 219.841 58.3791 220.063 58.0906 220.23L57.8405 220.348C57.6313 220.476 57.4084 220.545 57.1672 220.556C57.006 220.599 56.8443 220.599 56.6854 220.556C56.5214 220.556 56.3691 220.516 56.2283 220.436C56.0737 220.394 55.9416 220.319 55.8279 220.207C55.6301 220.083 55.4757 219.919 55.362 219.712L55.1776 219.288L55.1141 218.817L55.1776 218.348L55.2779 218.117C55.3686 217.799 55.5325 217.524 55.771 217.291C56.0098 217.059 56.2918 216.899 56.6146 216.811ZM169.379 213.063C169.711 212.961 170.041 212.947 170.37 213.018C170.593 213.018 170.802 213.074 170.996 213.185C171.207 213.242 171.389 213.345 171.544 213.496C171.814 213.667 172.026 213.893 172.183 214.176L172.433 214.756C172.583 215.131 172.528 215.684 172.437 216.062C172.362 216.373 172.217 216.644 172.001 216.875C171.892 217.055 171.746 217.197 171.562 217.304C171.351 217.491 171.108 217.624 170.833 217.703L170.757 217.724L170.73 217.73C170.725 217.733 170.721 217.733 170.716 217.733C170.714 217.735 170.709 217.735 170.707 217.735C170.598 217.761 170.486 217.777 170.37 217.781C170.041 217.852 169.711 217.839 169.379 217.737C169.183 217.657 168.986 217.575 168.788 217.493C168.62 217.368 168.453 217.242 168.285 217.115C168.156 216.951 168.026 216.786 167.896 216.624C167.714 216.346 167.617 216.044 167.603 215.722C167.544 215.507 167.544 215.293 167.603 215.078C167.603 214.858 167.66 214.656 167.771 214.467C167.871 214.165 168.042 213.905 168.285 213.685C168.453 213.558 168.62 213.431 168.788 213.307C168.986 213.225 169.183 213.143 169.379 213.063ZM24.3536 205.109C24.6967 205.018 25.0403 205.018 25.3836 205.109L25.845 205.298C26.0724 205.418 26.2522 205.58 26.3887 205.787C26.5615 205.969 26.6772 206.184 26.7363 206.431C26.8707 206.769 26.8548 207.304 26.7479 207.648C26.6274 208.04 26.441 208.351 26.1522 208.644C25.6724 209.128 24.9354 209.268 24.2831 209.121C24.1032 209.081 23.9327 209.004 23.7781 208.908C23.2849 208.61 22.9529 208.091 22.9552 207.515C22.9552 207.453 22.9597 207.391 22.9688 207.329C22.937 207.202 22.9254 207.071 22.9301 206.933L22.9984 206.431L23.0027 206.418C23.0939 206.1 23.2576 205.824 23.4961 205.591C23.7167 205.378 23.9739 205.223 24.2679 205.131L24.3422 205.109H24.3536ZM195.935 155.222C195.314 150.246 192.978 144.893 185.855 147.814L185.326 148.008C183.563 148.66 181.51 149.517 180.437 151.023C179.698 152.06 179.948 154.071 179.846 155.282C179.381 159.218 179.63 163.15 180.114 167.07C180.739 176.258 178.761 185.779 174.825 194.13C178.765 200.358 184.037 206.168 191.23 208.764C191.535 201.682 192.954 194.73 194.464 187.82L194.523 187.519C195.127 184.403 195.43 181.205 197.524 178.613C201.785 174.094 207.645 176.652 210.449 169.391C209.86 169.1 210.185 168.105 210.895 168.296C213.354 168.723 213.754 164.268 212.07 163.195C210.317 162.15 212.082 160.223 211.336 158.832C210.92 158.232 210.021 158.212 209.614 157.521C208.535 154.977 213.936 153.347 207.585 150.48C206.285 150.028 204.832 150.308 203.521 150.303C201.592 150.479 200.059 151.807 198.295 152.224C200.216 157.083 195.37 161.761 190.996 157.881C188.616 160.079 185.955 165.089 191.74 162.753C194.572 160.907 197.009 158.52 200.297 157.383L200.366 157.362C201.586 156.971 206.926 154.437 206.661 156.63C204.661 158.516 201.362 158.494 199.046 160.025C195.835 161.476 193.781 164.992 189.937 164.943C189.05 170.201 195.157 167.002 197.431 165.552L198.062 165.218C201.269 163.525 204.525 161.956 208.266 161.935C209.298 161.929 209.294 163.484 208.266 163.497C203.391 163.527 199.423 166.504 195.339 168.718C194.937 171.787 199.537 170.444 201.283 169.991C203.113 169.739 206.053 167.805 207.655 168.827C208.281 170.4 205.524 170.283 204.564 170.76C208.946 172.816 205.107 174.111 203.932 170.951L203.588 171.066C200.654 172.029 193.538 174.012 194.385 169.156C193.311 169.62 192.001 169.898 190.814 169.64C187.855 173.917 183.134 172.262 189.996 169.347C188.45 168.644 187.933 165.931 189.418 164.921C184.017 164.599 188.027 159.063 190.263 157.217C190.052 157.009 189.847 156.796 189.657 156.581C188.368 157.181 187.013 157.545 185.564 157.674C184.177 157.796 183.868 155.49 185.237 155.302C186.703 155.099 188.054 154.717 189.345 153.997C191.303 153.171 191.971 156.72 193.93 156.846C194.998 157.052 195.721 156.137 195.935 155.222ZM150.463 201.008C150.936 201.008 151.356 201.201 151.7 201.508C152.043 201.814 152.191 202.274 152.211 202.714C152.22 202.95 152.17 203.17 152.061 203.374C151.991 203.585 151.87 203.767 151.7 203.923C151.381 204.232 150.911 204.423 150.463 204.423C149.99 204.423 149.569 204.229 149.226 203.923C148.883 203.614 148.735 203.156 148.714 202.714C148.705 202.481 148.755 202.261 148.864 202.056C148.928 201.867 149.032 201.698 149.176 201.555L149.226 201.508C149.544 201.197 150.015 201.008 150.463 201.008ZM164.794 190.471L164.87 190.473C165.27 190.475 165.641 190.573 165.986 190.768C166.136 190.881 166.286 190.992 166.434 191.106C166.709 191.377 166.898 191.695 167.003 192.061C167.11 192.443 167.11 192.828 167.003 193.21C166.967 193.43 166.882 193.643 166.751 193.828C166.555 194.145 166.296 194.401 165.968 194.589C165.629 194.783 165.263 194.878 164.87 194.88C164.477 194.878 164.11 194.783 163.772 194.589C163.444 194.401 163.185 194.145 162.992 193.828C162.857 193.643 162.773 193.43 162.737 193.21C162.63 192.828 162.63 192.443 162.737 192.061C162.834 191.721 163.004 191.422 163.248 191.165L163.305 191.106C163.506 190.895 163.742 190.746 164.017 190.659C164.259 190.535 164.518 190.472 164.794 190.471ZM55.4231 190.59C55.5916 190.546 55.7575 190.546 55.9258 190.59C56.1759 190.601 56.4099 190.675 56.6262 190.808C56.7535 190.906 56.8808 191.002 57.0082 191.097L57.1192 191.227C57.3565 191.51 57.3625 191.558 57.5446 191.988C57.6198 192.228 57.6312 192.468 57.5766 192.708C57.5766 192.87 57.5334 193.021 57.4513 193.161C57.4061 193.314 57.3288 193.448 57.2128 193.559C57.1307 193.694 57.0218 193.803 56.8829 193.883C56.7057 194.041 56.4965 194.15 56.2555 194.205L55.7664 194.269C55.703 194.261 55.637 194.252 55.5734 194.245C55.4966 194.243 55.4221 194.234 55.3491 194.221L55.2753 194.205L55.208 194.187C55.119 194.162 55.0323 194.128 54.9481 194.085C54.7889 194.041 54.6502 193.963 54.5317 193.847C54.3273 193.719 54.1636 193.545 54.0453 193.33L54.0135 193.259C53.9703 193.183 53.9339 193.105 53.9064 193.021C53.8293 192.888 53.7907 192.746 53.7884 192.592C53.7432 192.388 53.7462 192.186 53.8003 191.984L53.8202 191.917L53.9953 191.51C54.0863 191.373 54.1818 191.232 54.3043 191.119C54.3782 191.055 54.5587 190.918 54.6604 190.849L54.7227 190.808C54.939 190.675 55.1732 190.601 55.4231 190.59ZM30.9499 186.656C31.8706 187.556 31.4638 189.209 30.1748 189.529L30.0267 189.564C28.7807 189.873 27.6574 188.773 27.9735 187.556L28.0098 187.413C28.3373 186.154 30.029 185.756 30.9499 186.656ZM184.079 177.138C184.07 177.014 184.234 176.97 184.316 177.043C185.412 178.003 186.11 179.153 187.44 179.898C188.777 180.644 190.155 180.584 191.549 181.066C192.022 181.231 192.024 181.848 191.549 182.01C188.911 182.91 184.279 179.86 184.079 177.138ZM60.1437 176.943C60.4372 176.854 60.7328 176.841 61.0261 176.905C61.2262 176.905 61.4125 176.954 61.583 177.051C61.7717 177.103 61.9334 177.196 62.0719 177.329C62.2381 177.425 62.37 177.556 62.4698 177.718C62.6656 177.927 62.7975 178.171 62.8654 178.451L62.9428 179.027L62.8654 179.602C62.7904 179.773 62.7154 179.947 62.6426 180.118L62.4394 180.387C62.2748 180.601 62.2484 180.603 61.849 180.893C61.5946 181.05 61.3195 181.137 61.0261 181.148C60.8304 181.202 60.6348 181.202 60.4372 181.148C60.2394 181.148 60.0527 181.1 59.8801 181.002C59.6934 180.951 59.53 180.857 59.391 180.724C59.1502 180.571 58.9615 180.369 58.8226 180.118C58.7475 179.947 58.6727 179.773 58.6 179.602L58.5201 179.027L58.6 178.451L58.6043 178.434C58.7089 178.074 58.8956 177.76 59.1636 177.496L59.605 177.163C59.7776 177.054 59.9572 176.998 60.1437 176.943ZM166.289 177.374C166.919 177.205 167.61 177.383 168.071 177.834C168.533 178.285 168.715 178.958 168.542 179.573C168.372 180.173 167.878 180.659 167.262 180.822C167.078 180.871 166.891 180.897 166.703 180.889C166.386 180.886 166.091 180.808 165.816 180.653L165.461 180.384C165.288 180.229 165.168 180.044 165.097 179.831C164.986 179.627 164.936 179.407 164.945 179.169L164.943 179.127C164.936 179.042 164.947 178.958 164.975 178.876C164.975 178.789 164.988 178.704 165.011 178.622C165.177 178.023 165.677 177.538 166.289 177.374ZM30.5042 171.358C30.7066 171.351 30.8953 171.391 31.0704 171.482C31.2546 171.54 31.4115 171.637 31.5434 171.78C31.6889 171.908 31.789 172.064 31.8481 172.242C31.9413 172.413 31.9822 172.597 31.9754 172.795C31.9754 173.055 31.9072 173.297 31.7753 173.519C31.698 173.617 31.6207 173.715 31.5434 173.81C31.3615 173.99 31.1455 174.112 30.8953 174.181L30.7498 174.23C30.5361 174.306 30.3269 174.31 30.104 174.281C29.8698 174.25 29.6536 174.188 29.4628 174.046C29.2761 173.939 29.1286 173.795 29.0194 173.612L28.8944 173.324C28.8671 173.226 28.8557 173.079 28.8489 172.977C28.8489 172.962 28.8489 172.948 28.8466 172.933C28.8466 172.846 28.8739 172.635 28.8964 172.548C28.9467 172.366 29.0488 172.193 29.165 172.046C29.265 171.893 29.4014 171.773 29.5697 171.684L29.5847 171.673L29.6015 171.662C29.6536 171.626 29.7084 171.591 29.763 171.553C29.9904 171.424 30.2382 171.358 30.5042 171.358ZM147.923 169.78C148.287 169.78 148.626 169.871 148.939 170.049C148.951 170.053 148.962 170.058 148.971 170.062C149.271 170.236 149.51 170.469 149.688 170.762C149.87 171.066 149.96 171.395 149.96 171.746C149.96 172.099 149.87 172.426 149.688 172.73C149.51 173.024 149.271 173.257 148.971 173.43C148.962 173.437 148.951 173.441 148.939 173.446C148.626 173.624 148.287 173.712 147.923 173.715C147.562 173.712 147.223 173.624 146.909 173.446C146.295 173.095 145.911 172.439 145.911 171.746C145.911 171.053 146.295 170.398 146.909 170.049C147.223 169.871 147.562 169.78 147.923 169.78ZM53.4946 167.211L53.5565 167.21C53.7976 167.201 54.0224 167.25 54.2294 167.359C54.4454 167.427 54.6341 167.545 54.7935 167.712L55.1255 167.983L55.2218 168.059C55.2377 168.072 55.2534 168.085 55.2685 168.098C55.4916 168.318 55.6439 168.576 55.7303 168.874C55.7576 169.045 55.7801 169.214 55.7986 169.385C55.8484 169.829 55.5803 170.285 55.2847 170.6C55.1255 170.767 54.9365 170.884 54.7185 170.955C54.5093 171.062 54.2819 171.111 54.0406 171.102C53.5472 171.06 53.079 170.958 52.7243 170.584C52.6831 170.54 52.6445 170.493 52.6038 170.447L52.3196 170.127C52.1035 169.914 51.9532 169.662 51.8716 169.373C51.8486 169.22 51.8284 169.069 51.8079 168.918C51.7872 168.463 52.0146 168.036 52.3196 167.712C52.6011 167.411 53.0785 167.228 53.4946 167.211ZM42.0169 162.533C44.3814 162.533 44.3769 166.117 42.0169 166.117C39.6541 166.117 39.6587 162.533 42.0169 162.533ZM160.911 157.509L160.986 157.51C161.377 157.512 161.743 157.608 162.082 157.801L162.523 158.132C162.792 158.399 162.978 158.71 163.083 159.069C163.108 159.258 163.133 159.447 163.16 159.634C163.171 159.927 163.108 160.2 162.971 160.454C162.885 160.716 162.735 160.944 162.523 161.138C162.326 161.344 162.093 161.491 161.823 161.576C161.564 161.709 161.284 161.771 160.986 161.76C160.593 161.757 160.227 161.662 159.888 161.469C159.74 161.358 159.595 161.247 159.447 161.138C159.199 160.892 159.021 160.608 158.915 160.282L158.89 160.2L158.81 159.634C158.799 159.343 158.862 159.069 158.999 158.816C159.085 158.552 159.235 158.325 159.447 158.132C159.645 157.925 159.879 157.778 160.147 157.694C160.385 157.572 160.64 157.509 160.911 157.509ZM150.26 150.8C150.472 150.794 150.667 150.836 150.852 150.929C151.04 150.989 151.204 151.093 151.343 151.238C151.636 151.467 151.816 151.924 151.816 152.295C151.816 152.666 151.636 153.124 151.343 153.353C151.152 153.537 150.927 153.666 150.667 153.737L150.26 153.791C149.865 153.809 149.462 153.606 149.18 153.353C149.124 153.302 149.069 153.251 149.012 153.202C148.755 152.971 148.644 152.626 148.628 152.295C148.621 152.12 148.66 151.956 148.742 151.802C148.794 151.642 148.885 151.507 149.012 151.389C149.069 151.34 149.124 151.289 149.18 151.238C149.488 150.96 149.847 150.82 150.26 150.8ZM217.743 138.85C219.238 137.072 218.368 135.806 216.122 136.246C212.254 136.757 208.614 139.146 205.208 140.858C201.49 142.777 197.658 144.359 193.866 146.162C195.431 147.101 196.594 148.57 197.483 150.247C199.258 148.93 201.527 148.301 203.741 148.219C207.759 144.459 214.412 143.598 217.743 138.85ZM41.2211 144.753C41.6262 144.755 42.0058 144.848 42.3615 145.034L42.4374 145.075L42.924 145.444C43.1604 145.657 43.3264 145.91 43.4242 146.201C43.5743 146.481 43.6425 146.786 43.6311 147.11C43.6425 147.435 43.5743 147.737 43.4242 148.017C43.3264 148.31 43.1604 148.561 42.924 148.774C42.7898 148.945 42.617 149.079 42.4101 149.177C42.2166 149.254 42.0258 149.334 41.8325 149.414C41.6165 149.481 41.3664 149.49 41.1322 149.501C40.707 149.498 40.3116 149.394 39.9427 149.185L39.4655 148.826C39.2358 148.616 39.0719 148.37 38.9764 148.083C38.8411 147.831 38.7725 147.561 38.7725 147.274L38.7742 147.195C38.7742 147.177 38.7742 147.157 38.7767 147.137C38.8038 146.928 38.8336 146.719 38.8627 146.511C38.9379 146.204 39.0812 145.935 39.2949 145.708C39.3495 145.602 39.4223 145.515 39.5157 145.444C39.8156 145.151 40.1701 144.951 40.5796 144.837C40.7934 144.811 41.0071 144.782 41.2211 144.753ZM146.795 138.868C147.102 138.868 147.386 138.943 147.65 139.092C147.766 139.179 147.88 139.265 147.993 139.352C148.205 139.559 148.351 139.803 148.43 140.083L148.492 140.523C148.498 140.752 148.45 140.963 148.344 141.161C148.276 141.365 148.159 141.543 147.993 141.694C147.841 141.856 147.659 141.969 147.448 142.036C147.248 142.14 147.029 142.187 146.795 142.178C146.49 142.178 146.204 142.103 145.94 141.951C145.826 141.867 145.71 141.78 145.597 141.694C145.405 141.504 145.267 141.283 145.184 141.032L145.162 140.963L145.101 140.523C145.092 140.294 145.14 140.083 145.247 139.885C145.315 139.679 145.433 139.501 145.597 139.352C145.751 139.19 145.934 139.077 146.143 139.01C146.325 138.916 146.52 138.869 146.726 138.867L146.795 138.868ZM54.5117 136.46L54.591 136.462C55.0435 136.464 55.4641 136.575 55.8552 136.797C56.0235 136.924 56.192 137.051 56.36 137.179C56.6715 137.484 56.8853 137.844 57.006 138.259L57.0945 138.908C57.1081 139.245 57.0354 139.559 56.8785 139.85C56.7786 140.154 56.6056 140.416 56.36 140.638C56.1351 140.876 55.8666 141.045 55.5551 141.143C55.2572 141.296 54.9366 141.367 54.591 141.354C54.1385 141.354 53.7178 141.243 53.3267 141.021C53.1587 140.894 52.9904 140.765 52.8199 140.638C52.5104 140.332 52.2967 139.972 52.1761 139.559L52.0875 138.908C52.0738 138.572 52.1466 138.257 52.3035 137.966C52.4035 137.664 52.5763 137.399 52.8199 137.179C53.0473 136.94 53.3153 136.77 53.6269 136.673C53.9018 136.531 54.1962 136.462 54.5117 136.46ZM138.707 130.352C138.914 130.299 139.121 130.299 139.328 130.352C139.637 130.365 139.926 130.456 140.194 130.623L140.665 130.979C140.672 130.985 140.679 130.992 140.685 131.001C140.97 131.281 141.167 131.612 141.276 131.992L141.359 132.589C141.37 132.898 141.304 133.187 141.161 133.454C141.075 133.71 140.934 133.933 140.74 134.126L140.665 134.198C140.453 134.42 140.205 134.578 139.917 134.669C139.735 134.773 139.537 134.824 139.328 134.824C139.019 134.893 138.707 134.88 138.398 134.784C138.214 134.706 138.027 134.631 137.841 134.556L137.782 134.522C137.079 134.147 136.645 133.36 136.645 132.589C136.645 131.818 137.079 131.03 137.782 130.654C137.802 130.645 137.82 130.634 137.841 130.623C138.109 130.456 138.398 130.365 138.707 130.352Z" fill="black"/>
<path fill-rule="evenodd" clip-rule="evenodd" d="M137.343 38.3328C136.474 33.1636 139.326 32.0911 137.343 27.1773C132.936 18.0725 120.926 18.4648 112.112 17.7647C102.282 17.3943 92.3331 18.6703 83.271 22.5443C81.1064 23.4695 79.0244 24.5577 77.0286 25.794C75.3029 26.8631 75.5401 28.8959 76.6283 30.0048C68.7817 40.9305 73.2695 55.596 67.0087 67.0966C65.8521 69.1523 64.3224 70.9957 63.3171 73.1347C61.789 76.3862 61.6911 81.045 65.1565 83.2043C70.0373 85.7802 72.7609 80.6801 75.1591 88.0733C87.1361 113.852 111.217 115.304 134.077 101.864C136.055 100.782 138.073 99.5593 139.567 97.8598C142.957 94.1086 142.558 88.8334 142.633 84.1489C142.674 81.4037 142.681 78.6581 142.654 75.9124C142.548 64.7907 138.799 49.3629 137.343 38.3328Z" fill="#FFCBA7"/>
<path fill-rule="evenodd" clip-rule="evenodd" d="M88.6523 7.41502C102.455 1.25864 118.11 -1.07601 133.166 0.455341C140.598 1.21 147.931 2.82906 154.911 5.45905L155.522 5.69152C157.245 6.34352 159.102 6.99071 160.412 8.3179C161.935 9.86032 162.363 12.1928 161.274 14.0981C160.427 15.5785 158.906 16.6405 157.283 17.2073C157.855 17.6676 158.397 18.181 158.906 18.7541C159.763 19.7145 159.829 21.0841 158.906 22.0315C157.128 23.8571 154.821 25.178 152.337 25.8112C152.616 27.1367 152.465 28.6039 151.866 29.925C150.148 33.7173 145.309 34.1693 141.586 33.9441L141.473 33.9371L141.266 36.2673C141.156 37.5087 140.4 38.4714 139.117 38.6617C139.072 38.6683 139.027 38.6727 138.982 38.6769C141.012 45.8958 142.238 53.3377 143.37 60.7357C143.962 64.5975 144.491 68.4683 144.998 72.3415L145.166 73.6327C145.706 77.8085 146.382 82.0264 146.616 86.2332C146.825 90.0505 146.085 93.6952 143.692 96.7756C141.545 99.5373 138.617 101.606 135.469 103.142C128.355 106.614 120.867 109.199 112.999 110.398L112.474 110.478C109.437 110.934 106.308 111.318 103.304 110.491C100.664 109.766 97.8956 107.893 98.492 104.886C98.6923 103.87 100.137 103.826 100.632 104.612L100.747 104.792C101.34 105.718 101.991 106.579 103.027 107.057C104.24 107.619 105.647 107.776 106.972 107.792C110.674 107.834 114.529 106.926 118.094 106.017C124.752 104.317 131.589 101.547 137.042 97.3487C139.362 95.5651 141.226 93.3345 141.883 90.4643C142.695 86.9258 141.948 83.0576 141.579 79.5014C140.819 72.1635 139.915 64.8391 138.962 57.5229L138.77 56.0598C137.967 49.9432 137.123 43.8245 136.722 37.6725C136.556 37.449 136.443 37.1945 136.398 36.9157L136.335 36.5151C136.281 36.1721 136.272 35.8579 136.31 35.568C136.313 34.4571 136.344 33.3528 136.409 32.2417C136.42 32.0428 136.43 31.8436 136.436 31.6467C135.262 31.9012 134.078 32.107 132.89 32.2818C124.535 33.5188 116.051 33.8286 107.629 33.2134C103.427 32.9056 99.2574 32.3769 95.1004 31.7153C92.9847 31.3789 90.8761 31.0071 88.7741 30.5911C87.255 30.2924 85.7673 29.8874 84.273 29.5068C82.7313 31.7131 81.8986 34.4283 82.0607 37.0949C82.243 40.1377 84.3045 42.8972 83.7261 46.0064C83.1833 48.9162 80.6479 49.8184 78.1449 50.5391L77.0803 50.8415C76.2613 51.0766 75.6666 51.3035 75.5183 52.2712C75.264 53.9331 75.5768 55.8031 75.6421 57.4738C75.7209 59.45 75.8242 61.4261 75.8716 63.4023C75.8964 64.4247 75.9367 65.4515 75.9347 66.4739C75.9324 67.1997 75.8221 67.6954 75.5363 68.1643C75.7569 68.4367 75.9547 68.731 76.1305 69.0431C76.1867 69.1449 76.0472 69.2531 75.9641 69.1692C75.7411 68.9413 75.5046 68.7355 75.255 68.5516C75.129 68.7045 74.9827 68.8594 74.8114 69.0254L74.7981 69.0077C74.2625 69.5321 73.4118 69.583 72.7476 69.0254L72.5734 68.8769C72.0873 68.4579 71.7533 68.109 71.6181 67.4166C71.6113 67.3812 71.6044 67.3458 71.6001 67.3103C70.3645 67.2683 69.1087 67.5558 67.9969 68.1601C66.2348 69.1183 64.9947 70.4837 64.2612 72.17C64.5536 72.5063 64.8957 72.8073 65.294 73.0596C65.3503 73.0972 65.3008 73.179 65.24 73.1503C64.8327 72.9622 64.4681 72.7298 64.1417 72.4576C63.8784 73.1215 63.6939 73.8341 63.5813 74.5887C63.1852 77.2531 63.8919 80.5083 66.3405 82.0264C67.4005 82.6836 68.6113 83.0399 69.8672 83.0443C70.4791 83.0463 71.0082 82.9447 71.6023 82.8009C72.0052 82.7035 72.4058 82.5619 72.8266 82.5619C73.1867 82.5619 73.5198 82.6504 73.8281 82.8275L73.7426 82.8348C73.5348 82.854 73.5748 82.8626 73.8641 82.8626C74.7644 82.9005 75.2795 83.7989 74.8656 84.5801L74.8113 84.7008C74.7999 84.7252 74.7902 84.7453 74.7826 84.7613L74.7499 84.9685C74.7466 84.9883 74.7432 85.0085 74.7396 85.0293L74.7271 85.0713C74.7249 85.078 74.7224 85.0846 74.7194 85.0913L76.0695 87.1158C77.7248 89.5923 79.4171 92.0593 81.3427 94.3214C82.6931 95.9081 84.1244 97.4638 85.6368 98.9044C86.9961 100.199 88.6256 100.823 90.1649 101.841C90.9866 102.381 91.2272 103.512 90.4802 104.24C88.288 106.38 85.1845 104.68 83.3863 102.941C81.6848 101.292 80.2152 99.3094 78.9482 97.3244C76.6998 93.7948 74.9107 90.0416 74.1275 85.9676C73.8011 86.2619 73.3848 86.4456 72.9639 86.5894C72.12 86.8771 71.1905 86.9966 70.2993 87.0276C68.5911 87.0829 66.8807 86.6758 65.3435 85.9543C59.0892 83.0222 58.171 74.2413 61.9947 69.063C61.4791 67.5928 61.1912 65.9976 60.8783 64.6373L60.736 64.0292C59.1546 57.2371 58.0932 50.086 60.8964 43.4306C61.2565 42.5719 61.6616 41.7354 62.141 40.9344C62.5258 40.2904 63.1875 39.6044 63.3698 38.8719C63.7749 37.2631 61.2745 35.5724 60.5453 34.2956C59.6879 32.7974 59.5663 31.0293 60.7344 29.6592C60.8829 29.4868 61.0447 29.3273 61.2205 29.1881C60.1132 27.2142 60.0615 24.7312 61.5198 22.7839C62.4786 21.5004 63.9414 20.6019 65.5393 20.3297C66.5161 20.1637 67.6909 20.2257 68.7644 20.5222C74.6426 15.1559 81.3495 10.6725 88.6523 7.41502ZM66.0793 74.5622C67.6482 73.2012 69.3811 72.4886 71.5192 72.6679C73.6685 72.8491 76.2566 73.7235 77.5189 75.5359C78.5162 76.9676 76.4839 79.0677 75.021 77.9922C73.6887 77.0119 72.7995 75.9054 71.1456 75.3787C69.66 74.9074 67.8213 74.6042 66.2661 74.8742C66.0951 74.903 65.9243 74.6949 66.0793 74.5622Z" fill="black"/>
<path fill-rule="evenodd" clip-rule="evenodd" d="M120.178 83.2124C120.941 81.861 123.218 82.0807 123.566 83.6569C124.273 86.8522 120.476 89.8029 117.593 89.8765C114.727 89.9495 111.512 87.5018 111.927 84.4101C112.03 83.6453 113.047 83.7381 113.394 84.2176L113.529 84.4016C114.471 85.6723 115.715 86.9874 117.464 86.6776C118.189 86.5495 118.847 86.095 119.285 85.5099C119.814 84.8038 119.756 83.9607 120.178 83.2124ZM101.958 59.8357C102.346 59.7283 102.738 59.7698 103.082 59.9167C103.85 60.058 104.492 60.7009 104.718 61.4349C104.735 61.4984 104.755 61.5612 104.777 61.6233L104.811 61.7159L104.719 61.4806C104.762 61.7124 104.95 61.9559 105.017 62.1885C105.101 62.4745 105.121 62.7993 105.093 63.114C105.337 63.1165 105.581 63.1247 105.825 63.1459L106.061 63.1671C107.378 63.29 108.824 63.5154 109.605 64.6579C110.044 65.2999 109.632 66.4558 108.826 66.5794C107.586 66.7699 106.517 66.081 105.281 65.943C104.113 65.8124 102.89 65.8872 101.736 66.099C99.3548 66.536 97.1665 67.5048 94.8458 68.1127L94.5298 68.1932L94.5303 68.1916C94.1326 68.288 93.6811 67.7331 94.0745 67.4085C95.9337 65.8756 98.3141 64.6333 100.659 63.8768C100.317 63.3314 100.212 62.6131 100.445 62.0276C100.481 61.9062 100.526 61.7882 100.574 61.6706L100.672 61.4286C100.682 61.3146 100.704 61.2018 100.735 61.0913L100.74 61.0576L100.743 61.0596C100.918 60.4902 101.374 59.9973 101.958 59.8357ZM125.678 59.9238C126.186 59.4132 126.901 59.4887 127.431 59.8905L127.502 59.9459C128.002 60.1689 128.416 60.6562 128.688 61.1078C128.97 61.5768 129.158 62.0545 129.165 62.5709C130.396 62.5749 131.575 62.9454 132.478 63.9428C132.77 64.2647 132.97 64.7612 132.809 65.1976L132.713 65.4572C132.41 66.2815 131.046 66.756 130.582 65.7866L130.561 65.7394C130.068 64.5884 128.177 64.7092 127.172 64.8268C126.471 64.9092 125.779 65.084 125.102 65.2798C124.864 65.3487 124.628 65.4236 124.392 65.5001L124.156 65.5769C124.03 65.6177 123.374 65.9751 123.782 65.8905C123.892 65.8677 123.974 66.028 123.862 66.0818C123.376 66.3151 122.857 65.8506 122.89 65.3264C122.946 64.4166 124.386 63.9177 125.078 63.604L125.12 63.585C125.385 63.4618 125.664 63.3437 125.951 63.2341C125.789 62.993 125.656 62.7251 125.545 62.4376C125.44 62.1661 125.37 61.9023 125.331 61.6136C125.294 61.4726 125.294 61.3315 125.331 61.1902L125.337 61.1498C125.318 61.0565 125.308 60.96 125.31 60.8629L125.306 60.8252H125.31C125.323 60.4852 125.458 60.1446 125.678 59.9238ZM117.553 69.613C119.507 70.2189 122.73 71.8692 121.712 74.4165C120.29 76.756 116.52 75.0366 114.693 74.2808C113.052 73.7352 112.198 76.0436 113.785 76.7394C126.898 81.9463 126.85 68.2045 118.029 68.4063C117.057 68.4284 117.027 69.4117 117.553 69.613ZM100.203 51.6947L100.537 51.5971C102.268 51.0937 104.036 50.2245 105.573 51.5808C106.177 52.1135 106.301 53.2202 105.869 53.8846C104.885 55.3983 103.426 55.167 101.837 55.2961C100.627 55.3943 99.4346 55.751 98.3052 56.1968C97.3821 56.5613 96.5261 57.0745 95.7178 57.6469C94.9237 58.2097 94.3813 59.0894 93.5668 59.5959C93.2683 59.7816 92.9235 59.5906 92.8163 59.2894C92.4364 58.2213 93.0783 56.8906 93.6215 55.9805C94.2845 54.8701 95.2916 53.962 96.3746 53.2749C97.5605 52.5224 98.8718 52.0879 100.203 51.6947ZM125.434 50.5457C128.361 50.5448 131.177 52.1786 132.814 54.5736C133.371 55.3873 132.963 56.5927 132.164 57.0613C131.269 57.5872 130.311 57.2085 129.72 56.4549L129.685 56.4092C128.747 55.1545 127.536 54.1662 126.102 53.5229C125.402 53.2088 124.628 52.9541 123.871 52.8248L123.626 52.7828C123.283 52.7251 122.885 52.67 122.575 52.7239C122.409 52.7458 122.256 52.8009 122.116 52.8849C122.183 53.0331 122.009 53.2117 121.848 53.1228C121.12 52.7219 121.209 52.0067 121.81 51.4509C122.66 50.6644 124.336 50.5459 125.434 50.5457Z" fill="black"/>
</svg>
