<svg width="307" height="88" viewBox="0 0 307 88" fill="none" xmlns="http://www.w3.org/2000/svg">
<g clip-path="url(#clip0_0_216)">
<path d="M131.442 3.95538V6.95652L302.214 15.1822L291.474 64.2672L73.3395 79.9808V82.9919L295.049 67.0191L307 12.4104L131.442 3.95538Z" fill="black"/>
<g opacity="0.8">
<path opacity="0.8" fill-rule="evenodd" clip-rule="evenodd" d="M0 14.4643L13.2982 79.6019L271.836 80.2699L302.091 -0.162476L0 14.4643Z" fill="#FFA102"/>
</g>
<path fill-rule="evenodd" clip-rule="evenodd" d="M0 14.4643L13.2982 79.6019L271.836 80.2699L302.091 -0.162476L0 14.4643Z" fill="#FFA102"/>
<path d="M131.442 6.95649V3.96533L28.3704 -1L17.6576 87L73.3395 82.9918V79.9807L22.2095 83.6698L32.1247 2.17063L131.442 6.95649Z" fill="black"/>
<path d="M50.592 27.8H56.712V38.384H70.068V27.8H76.188V53H70.068V40.616H56.712V53H50.592V27.8ZM91.6849 51.488C93.3169 51.488 94.5649 51.128 95.4289 50.408C96.3169 49.688 96.8929 48.608 97.1569 47.168H101.117C100.709 49.16 99.6049 50.696 97.8049 51.776C96.0289 52.832 93.7849 53.36 91.0729 53.36C88.9129 53.36 87.0409 53 85.4569 52.28C83.8729 51.536 82.6489 50.48 81.7849 49.112C80.9449 47.744 80.5249 46.124 80.5249 44.252C80.5249 42.356 80.9449 40.712 81.7849 39.32C82.6489 37.928 83.8729 36.86 85.4569 36.116C87.0409 35.372 88.9129 35 91.0729 35C94.4089 35 96.9529 35.792 98.7049 37.376C100.457 38.96 101.333 41.264 101.333 44.288H85.8529V44.504C85.8529 49.16 87.7969 51.488 91.6849 51.488ZM91.2529 36.872C89.7649 36.872 88.5769 37.352 87.6889 38.312C86.8009 39.272 86.2369 40.64 85.9969 42.416H96.1849C95.9929 40.592 95.4769 39.212 94.6369 38.276C93.7969 37.34 92.6689 36.872 91.2529 36.872ZM105.252 35.36H110.58V38.996C111.036 37.724 111.744 36.74 112.704 36.044C113.688 35.348 114.912 35 116.376 35C116.856 35 117.264 35.048 117.6 35.144L117.276 38.276C116.892 38.084 116.388 37.988 115.764 37.988C113.988 37.988 112.68 38.708 111.84 40.148C111 41.588 110.58 43.28 110.58 45.224V53H105.252V35.36ZM130.353 53.36C128.097 53.36 126.141 52.988 124.485 52.244C122.829 51.5 121.557 50.444 120.669 49.076C119.781 47.684 119.337 46.052 119.337 44.18C119.337 42.308 119.781 40.688 120.669 39.32C121.557 37.928 122.829 36.86 124.485 36.116C126.141 35.372 128.097 35 130.353 35C132.609 35 134.565 35.372 136.221 36.116C137.877 36.86 139.149 37.928 140.037 39.32C140.925 40.688 141.369 42.308 141.369 44.18C141.369 46.052 140.925 47.684 140.037 49.076C139.149 50.444 137.877 51.5 136.221 52.244C134.565 52.988 132.609 53.36 130.353 53.36ZM130.353 51.488C132.105 51.488 133.485 50.84 134.493 49.544C135.501 48.224 136.005 46.436 136.005 44.18C136.005 41.924 135.501 40.148 134.493 38.852C133.485 37.532 132.105 36.872 130.353 36.872C128.601 36.872 127.221 37.532 126.213 38.852C125.205 40.148 124.701 41.924 124.701 44.18C124.701 46.436 125.205 48.224 126.213 49.544C127.221 50.84 128.601 51.488 130.353 51.488ZM145.69 27.8H168.37V30.032H151.81V38.384H165.994V40.616H151.81V53H145.69V27.8ZM170.819 35.36H176.147V38.996C176.603 37.724 177.311 36.74 178.271 36.044C179.255 35.348 180.479 35 181.943 35C182.423 35 182.831 35.048 183.167 35.144L182.843 38.276C182.459 38.084 181.955 37.988 181.331 37.988C179.555 37.988 178.247 38.708 177.407 40.148C176.567 41.588 176.147 43.28 176.147 45.224V53H170.819V35.36ZM188.9 33.56C187.916 33.56 187.1 33.272 186.452 32.696C185.828 32.12 185.516 31.388 185.516 30.5C185.516 29.612 185.828 28.88 186.452 28.304C187.1 27.728 187.916 27.44 188.9 27.44C189.884 27.44 190.688 27.728 191.312 28.304C191.96 28.88 192.284 29.612 192.284 30.5C192.284 31.388 191.96 32.12 191.312 32.696C190.688 33.272 189.884 33.56 188.9 33.56ZM186.236 35.36H191.564V53H186.236V35.36ZM205.977 53.36C204.129 53.36 202.473 52.964 201.009 52.172C199.569 51.38 198.429 50.288 197.589 48.896C196.773 47.48 196.365 45.884 196.365 44.108C196.365 42.26 196.737 40.652 197.481 39.284C198.225 37.892 199.281 36.836 200.649 36.116C202.017 35.372 203.625 35 205.473 35C206.985 35 208.317 35.288 209.469 35.864C210.621 36.44 211.509 37.268 212.133 38.348V28.412H217.461V53H212.133V50.3C210.813 52.34 208.761 53.36 205.977 53.36ZM206.877 51.56C208.485 51.56 209.757 50.9 210.693 49.58C211.653 48.26 212.133 46.472 212.133 44.216C212.133 41.888 211.653 40.064 210.693 38.744C209.733 37.4 208.425 36.728 206.769 36.728C205.137 36.728 203.877 37.364 202.989 38.636C202.125 39.884 201.693 41.708 201.693 44.108C201.693 46.436 202.149 48.26 203.061 49.58C203.973 50.9 205.245 51.56 206.877 51.56ZM229.598 53.36C227.03 53.36 225.098 52.892 223.802 51.956C222.53 50.996 221.894 49.652 221.894 47.924C221.894 46.1 222.65 44.696 224.162 43.712C225.674 42.728 227.858 42.236 230.714 42.236H235.43V41.048C235.43 39.704 235.058 38.672 234.314 37.952C233.57 37.232 232.502 36.872 231.11 36.872C229.742 36.872 228.65 37.22 227.834 37.916C227.042 38.612 226.55 39.632 226.358 40.976H222.398C222.662 39.032 223.586 37.556 225.17 36.548C226.754 35.516 228.902 35 231.614 35C234.59 35 236.858 35.552 238.418 36.656C239.978 37.76 240.758 39.356 240.758 41.444V47.132C240.758 49.316 240.938 51.272 241.298 53H236.33C236.09 52.088 235.922 51.284 235.826 50.588C235.13 51.572 234.23 52.28 233.126 52.712C232.046 53.144 230.87 53.36 229.598 53.36ZM230.714 51.56C232.202 51.56 233.354 51.164 234.17 50.372C235.01 49.556 235.43 48.476 235.43 47.132V44.108H232.226C230.618 44.108 229.382 44.444 228.518 45.116C227.654 45.764 227.222 46.688 227.222 47.888C227.222 49.112 227.51 50.036 228.086 50.66C228.686 51.26 229.562 51.56 230.714 51.56ZM248.401 60.2C246.265 60.2 244.681 59.756 243.649 58.868L244.765 56.816C245.029 57.152 245.449 57.428 246.025 57.644C246.625 57.884 247.165 58.004 247.645 58.004C249.085 58.004 250.273 57.596 251.209 56.78C252.169 55.964 252.649 54.884 252.649 53.54C252.649 52.508 252.469 51.668 252.109 51.02L243.685 35.36H249.229L255.925 48.464L262.189 35.36H265.357L256.573 53.54C255.469 55.82 254.245 57.5 252.901 58.58C251.581 59.66 250.081 60.2 248.401 60.2Z" fill="black"/>
</g>
<defs>
<clipPath id="clip0_0_216">
<rect width="307" height="88" fill="white"/>
</clipPath>
</defs>
</svg>
