<svg width="22" height="18" viewBox="0 0 22 18" fill="none" xmlns="http://www.w3.org/2000/svg">
<rect width="22" height="18" fill="#E5E5E5"/>
<g clip-path="url(#clip0_44_2)">
<rect width="1440" height="5474" transform="translate(-828 -5327)" fill="white"/>
<mask id="path-1-outside-1_44_2" maskUnits="userSpaceOnUse" x="-1140.4" y="-323.301" width="2239.43" height="635.195" fill="black">
<rect fill="white" x="-1140.4" y="-323.301" width="2239.43" height="635.195"/>
<path fill-rule="evenodd" clip-rule="evenodd" d="M-850.914 -142.96C-849.937 -143.114 -849.031 -143.75 -848.337 -144.768C-827.35 -184.084 -796.335 -198.328 -766.623 -215.798C-765.177 -216.582 -763.66 -217.057 -762.114 -217.209C-720.572 -223.854 -678.878 -225.244 -638.746 -202.63C-609.051 -185.927 -578.845 -167.419 -556.504 -129.278C-550.404 -118.894 -543.335 -106.777 -534.882 -103.077C-524.646 -98.3507 -520.769 -117.335 -513.908 -125.431C-480.81 -164.442 -444.95 -194.499 -402.246 -204.298C-373.885 -210.724 -345.945 -204.248 -317.898 -198.4C-284.31 -191.419 -253.26 -171.114 -222.98 -148.602C-204.13 -134.609 -189.221 -112.52 -175.672 -88.3997C-167.183 -73.3091 -166.648 -75.0104 -156.113 -86.0006C-137.885 -105.166 -118.897 -122.596 -99.821 -139.84C-38.8045 -194.844 26.5626 -201.684 95.3685 -173.173C127.679 -159.842 156.977 -136.621 185.439 -110.566C193.984 -101.847 202.198 -92.4092 210.042 -82.2997C211.001 -82.3201 212.461 -82.3512 212.9 -83.0491C231.057 -119.175 258.465 -132.591 285.607 -145.125C306.469 -155.064 327.971 -161.978 349.825 -165.773C385.057 -171.282 417.889 -152.893 449.517 -129.909C473.471 -112.583 496.137 -92.1617 515.039 -63.2734C516.827 -61.6343 518.744 -60.3494 520.742 -59.452C528.702 -72.8908 537.45 -86.4716 545.597 -100.666C570.435 -143.882 602.755 -172.236 634.842 -201.461C657.734 -222.417 682.672 -230.335 709.093 -231.65C726.158 -232.901 743.296 -228.099 759.119 -217.633C780.4 -203.254 801.293 -187.865 822.229 -172.414C832.251 -164.992 833.75 -165.087 841.068 -179.075C853.337 -203.432 869.698 -222.433 888.559 -234.228C911.238 -248.107 934.176 -260.238 959.119 -262.147C991.027 -263.985 1022.94 -253.159 1051.63 -230.762C1067.46 -218.582 1072.71 -200.23 1071.57 -176.171C1070.11 -144.032 1068.32 -111.948 1066.41 -79.8615C1062.79 -18.7596 1058.91 42.2226 1055.37 103.323C1054.52 118.613 1054.92 134.126 1053.86 149.358C1053.27 157.883 1054.98 168.111 1048.27 174.075C1046.93 175.293 1046.86 180.364 1046.93 184.055C1047.28 206.517 1044.04 212.783 1028.84 213.921C1000.19 216.035 971.485 217.836 942.801 218.824C888.977 220.724 835.079 221.499 781.213 223.4C740.19 224.902 699.122 226.279 658.2 229.844C617.279 233.408 577.606 239.763 537.273 244.943C527.085 246.224 516.846 247.194 506.595 247.725C448.256 250.786 389.904 253.408 331.325 256.849C307.743 258.229 284.32 262.234 260.768 263.175C215.166 265.087 169.552 265.122 123.986 266.845C105.06 267.562 86.1796 271.345 67.2477 271.874C32.3795 272.619 -2.48861 273.363 -37.4054 272.418C-67.6419 271.686 -97.9232 267.952 -128.214 266.783C-182.527 264.75 -237.103 263.725 -291.526 262.195C-338.264 260.877 -384.995 259.809 -431.755 257.74C-447.135 257.004 -462.45 252.699 -477.852 251.151C-508.614 248.114 -539.386 246.205 -570.144 243.294C-606.045 240.054 -641.97 236.002 -677.862 233.075C-697.859 231.374 -717.93 231.49 -737.928 229.788C-766.126 227.386 -794.331 223.294 -822.516 221.329C-854.798 219.139 -887.145 219.016 -919.418 217.139C-967.688 214.33 -1015.94 211.083 -1064.18 207.398C-1073.94 206.532 -1083.65 204.5 -1093.24 201.321C-1104.36 197.803 -1106.59 192.781 -1107.29 175.771C-1110.48 99.6892 -1113.71 23.5663 -1116.99 -52.5975C-1119.21 -103.31 -1121.42 -154.085 -1124.3 -204.784C-1125.28 -221.474 -1122.2 -231.93 -1111.9 -239.348C-1085.69 -258.246 -1058.47 -267.965 -1028.88 -262.212C-984.198 -254.636 -941.084 -231.058 -903.201 -193.48C-897.613 -187.841 -891.399 -183.655 -885.772 -178.08C-874.832 -167.736 -863.942 -156.264 -850.914 -142.96Z"/>
</mask>
<path fill-rule="evenodd" clip-rule="evenodd" d="M-850.914 -142.96C-849.937 -143.114 -849.031 -143.75 -848.337 -144.768C-827.35 -184.084 -796.335 -198.328 -766.623 -215.798C-765.177 -216.582 -763.66 -217.057 -762.114 -217.209C-720.572 -223.854 -678.878 -225.244 -638.746 -202.63C-609.051 -185.927 -578.845 -167.419 -556.504 -129.278C-550.404 -118.894 -543.335 -106.777 -534.882 -103.077C-524.646 -98.3507 -520.769 -117.335 -513.908 -125.431C-480.81 -164.442 -444.95 -194.499 -402.246 -204.298C-373.885 -210.724 -345.945 -204.248 -317.898 -198.4C-284.31 -191.419 -253.26 -171.114 -222.98 -148.602C-204.13 -134.609 -189.221 -112.52 -175.672 -88.3997C-167.183 -73.3091 -166.648 -75.0104 -156.113 -86.0006C-137.885 -105.166 -118.897 -122.596 -99.821 -139.84C-38.8045 -194.844 26.5626 -201.684 95.3685 -173.173C127.679 -159.842 156.977 -136.621 185.439 -110.566C193.984 -101.847 202.198 -92.4092 210.042 -82.2997C211.001 -82.3201 212.461 -82.3512 212.9 -83.0491C231.057 -119.175 258.465 -132.591 285.607 -145.125C306.469 -155.064 327.971 -161.978 349.825 -165.773C385.057 -171.282 417.889 -152.893 449.517 -129.909C473.471 -112.583 496.137 -92.1617 515.039 -63.2734C516.827 -61.6343 518.744 -60.3494 520.742 -59.452C528.702 -72.8908 537.45 -86.4716 545.597 -100.666C570.435 -143.882 602.755 -172.236 634.842 -201.461C657.734 -222.417 682.672 -230.335 709.093 -231.65C726.158 -232.901 743.296 -228.099 759.119 -217.633C780.4 -203.254 801.293 -187.865 822.229 -172.414C832.251 -164.992 833.75 -165.087 841.068 -179.075C853.337 -203.432 869.698 -222.433 888.559 -234.228C911.238 -248.107 934.176 -260.238 959.119 -262.147C991.027 -263.985 1022.94 -253.159 1051.63 -230.762C1067.46 -218.582 1072.71 -200.23 1071.57 -176.171C1070.11 -144.032 1068.32 -111.948 1066.41 -79.8615C1062.79 -18.7596 1058.91 42.2226 1055.37 103.323C1054.52 118.613 1054.92 134.126 1053.86 149.358C1053.27 157.883 1054.98 168.111 1048.27 174.075C1046.93 175.293 1046.86 180.364 1046.93 184.055C1047.28 206.517 1044.04 212.783 1028.84 213.921C1000.19 216.035 971.485 217.836 942.801 218.824C888.977 220.724 835.079 221.499 781.213 223.4C740.19 224.902 699.122 226.279 658.2 229.844C617.279 233.408 577.606 239.763 537.273 244.943C527.085 246.224 516.846 247.194 506.595 247.725C448.256 250.786 389.904 253.408 331.325 256.849C307.743 258.229 284.32 262.234 260.768 263.175C215.166 265.087 169.552 265.122 123.986 266.845C105.06 267.562 86.1796 271.345 67.2477 271.874C32.3795 272.619 -2.48861 273.363 -37.4054 272.418C-67.6419 271.686 -97.9232 267.952 -128.214 266.783C-182.527 264.75 -237.103 263.725 -291.526 262.195C-338.264 260.877 -384.995 259.809 -431.755 257.74C-447.135 257.004 -462.45 252.699 -477.852 251.151C-508.614 248.114 -539.386 246.205 -570.144 243.294C-606.045 240.054 -641.97 236.002 -677.862 233.075C-697.859 231.374 -717.93 231.49 -737.928 229.788C-766.126 227.386 -794.331 223.294 -822.516 221.329C-854.798 219.139 -887.145 219.016 -919.418 217.139C-967.688 214.33 -1015.94 211.083 -1064.18 207.398C-1073.94 206.532 -1083.65 204.5 -1093.24 201.321C-1104.36 197.803 -1106.59 192.781 -1107.29 175.771C-1110.48 99.6892 -1113.71 23.5663 -1116.99 -52.5975C-1119.21 -103.31 -1121.42 -154.085 -1124.3 -204.784C-1125.28 -221.474 -1122.2 -231.93 -1111.9 -239.348C-1085.69 -258.246 -1058.47 -267.965 -1028.88 -262.212C-984.198 -254.636 -941.084 -231.058 -903.201 -193.48C-897.613 -187.841 -891.399 -183.655 -885.772 -178.08C-874.832 -167.736 -863.942 -156.264 -850.914 -142.96Z" fill="#F6F5F2"/>
<path fill-rule="evenodd" clip-rule="evenodd" d="M-850.914 -142.96C-849.937 -143.114 -849.031 -143.75 -848.337 -144.768C-827.35 -184.084 -796.335 -198.328 -766.623 -215.798C-765.177 -216.582 -763.66 -217.057 -762.114 -217.209C-720.572 -223.854 -678.878 -225.244 -638.746 -202.63C-609.051 -185.927 -578.845 -167.419 -556.504 -129.278C-550.404 -118.894 -543.335 -106.777 -534.882 -103.077C-524.646 -98.3507 -520.769 -117.335 -513.908 -125.431C-480.81 -164.442 -444.95 -194.499 -402.246 -204.298C-373.885 -210.724 -345.945 -204.248 -317.898 -198.4C-284.31 -191.419 -253.26 -171.114 -222.98 -148.602C-204.13 -134.609 -189.221 -112.52 -175.672 -88.3997C-167.183 -73.3091 -166.648 -75.0104 -156.113 -86.0006C-137.885 -105.166 -118.897 -122.596 -99.821 -139.84C-38.8045 -194.844 26.5626 -201.684 95.3685 -173.173C127.679 -159.842 156.977 -136.621 185.439 -110.566C193.984 -101.847 202.198 -92.4092 210.042 -82.2997C211.001 -82.3201 212.461 -82.3512 212.9 -83.0491C231.057 -119.175 258.465 -132.591 285.607 -145.125C306.469 -155.064 327.971 -161.978 349.825 -165.773C385.057 -171.282 417.889 -152.893 449.517 -129.909C473.471 -112.583 496.137 -92.1617 515.039 -63.2734C516.827 -61.6343 518.744 -60.3494 520.742 -59.452C528.702 -72.8908 537.45 -86.4716 545.597 -100.666C570.435 -143.882 602.755 -172.236 634.842 -201.461C657.734 -222.417 682.672 -230.335 709.093 -231.65C726.158 -232.901 743.296 -228.099 759.119 -217.633C780.4 -203.254 801.293 -187.865 822.229 -172.414C832.251 -164.992 833.75 -165.087 841.068 -179.075C853.337 -203.432 869.698 -222.433 888.559 -234.228C911.238 -248.107 934.176 -260.238 959.119 -262.147C991.027 -263.985 1022.94 -253.159 1051.63 -230.762C1067.46 -218.582 1072.71 -200.23 1071.57 -176.171C1070.11 -144.032 1068.32 -111.948 1066.41 -79.8615C1062.79 -18.7596 1058.91 42.2226 1055.37 103.323C1054.52 118.613 1054.92 134.126 1053.86 149.358C1053.27 157.883 1054.98 168.111 1048.27 174.075C1046.93 175.293 1046.86 180.364 1046.93 184.055C1047.28 206.517 1044.04 212.783 1028.84 213.921C1000.19 216.035 971.485 217.836 942.801 218.824C888.977 220.724 835.079 221.499 781.213 223.4C740.19 224.902 699.122 226.279 658.2 229.844C617.279 233.408 577.606 239.763 537.273 244.943C527.085 246.224 516.846 247.194 506.595 247.725C448.256 250.786 389.904 253.408 331.325 256.849C307.743 258.229 284.32 262.234 260.768 263.175C215.166 265.087 169.552 265.122 123.986 266.845C105.06 267.562 86.1796 271.345 67.2477 271.874C32.3795 272.619 -2.48861 273.363 -37.4054 272.418C-67.6419 271.686 -97.9232 267.952 -128.214 266.783C-182.527 264.75 -237.103 263.725 -291.526 262.195C-338.264 260.877 -384.995 259.809 -431.755 257.74C-447.135 257.004 -462.45 252.699 -477.852 251.151C-508.614 248.114 -539.386 246.205 -570.144 243.294C-606.045 240.054 -641.97 236.002 -677.862 233.075C-697.859 231.374 -717.93 231.49 -737.928 229.788C-766.126 227.386 -794.331 223.294 -822.516 221.329C-854.798 219.139 -887.145 219.016 -919.418 217.139C-967.688 214.33 -1015.94 211.083 -1064.18 207.398C-1073.94 206.532 -1083.65 204.5 -1093.24 201.321C-1104.36 197.803 -1106.59 192.781 -1107.29 175.771C-1110.48 99.6892 -1113.71 23.5663 -1116.99 -52.5975C-1119.21 -103.31 -1121.42 -154.085 -1124.3 -204.784C-1125.28 -221.474 -1122.2 -231.93 -1111.9 -239.348C-1085.69 -258.246 -1058.47 -267.965 -1028.88 -262.212C-984.198 -254.636 -941.084 -231.058 -903.201 -193.48C-897.613 -187.841 -891.399 -183.655 -885.772 -178.08C-874.832 -167.736 -863.942 -156.264 -850.914 -142.96Z" stroke="white" stroke-width="28" stroke-dasharray="2 2" mask="url(#path-1-outside-1_44_2)"/>
<mask id="path-2-outside-2_44_2" maskUnits="userSpaceOnUse" x="-1130.14" y="-295.091" width="2218.88" height="615.776" fill="black">
<rect fill="white" x="-1130.14" y="-295.091" width="2218.88" height="615.776"/>
<path fill-rule="evenodd" clip-rule="evenodd" d="M-850.914 -123.96C-849.937 -124.114 -849.031 -124.75 -848.337 -125.768C-827.35 -165.084 -796.335 -179.328 -766.623 -196.798C-765.177 -197.582 -763.66 -198.057 -762.114 -198.209C-720.572 -204.854 -678.878 -206.244 -638.746 -183.63C-609.051 -166.927 -578.845 -148.419 -556.504 -110.278C-550.404 -99.8935 -543.335 -87.7768 -534.882 -84.0767C-524.646 -79.3507 -520.769 -98.3354 -513.908 -106.431C-480.81 -145.442 -444.95 -175.499 -402.246 -185.298C-373.885 -191.724 -345.945 -185.248 -317.899 -179.4C-284.31 -172.419 -253.26 -152.114 -222.98 -129.602C-204.13 -115.609 -189.221 -93.5204 -175.672 -69.3997C-167.183 -54.3091 -166.648 -56.0104 -156.113 -67.0006C-137.885 -86.1665 -118.897 -103.596 -99.821 -120.84C-38.8045 -175.844 26.5626 -182.684 95.3685 -154.173C127.679 -140.842 156.977 -117.621 185.439 -91.5656C193.983 -82.847 202.198 -73.4092 210.042 -63.2997C211.001 -63.3201 212.461 -63.3512 212.9 -64.0491C231.057 -100.175 258.465 -113.591 285.607 -126.125C306.469 -136.064 327.971 -142.978 349.825 -146.773C385.057 -152.282 417.889 -133.893 449.517 -110.909C473.471 -93.5827 496.137 -73.1617 515.04 -44.2734C516.827 -42.6343 518.744 -41.3494 520.742 -40.452C528.702 -53.8908 537.45 -67.4716 545.597 -81.6655C570.436 -124.882 602.755 -153.236 634.842 -182.461C657.734 -203.417 682.672 -211.335 709.093 -212.65C726.158 -213.901 743.296 -209.099 759.119 -198.633C780.4 -184.254 801.293 -168.865 822.229 -153.414C832.251 -145.992 833.75 -146.087 841.068 -160.075C853.337 -184.432 869.698 -203.433 888.559 -215.228C911.238 -229.107 934.176 -241.238 959.12 -243.147C991.027 -244.985 1022.94 -234.159 1051.63 -211.762C1067.46 -199.582 1072.71 -181.23 1071.57 -157.171C1070.11 -125.032 1068.32 -92.9481 1066.41 -60.8615C1062.79 0.240373 1058.91 61.2226 1055.37 122.323C1054.52 137.613 1054.92 153.126 1053.86 168.358C1053.27 176.883 1054.98 187.111 1048.27 193.075C1046.93 194.293 1046.86 199.364 1046.93 203.055C1047.28 225.517 1044.04 231.783 1028.84 232.921C1000.19 235.035 971.485 236.836 942.801 237.824C888.977 239.724 835.079 240.499 781.213 242.4C740.19 243.902 699.122 245.279 658.2 248.844C617.279 252.408 577.606 258.763 537.273 263.943C527.085 265.224 516.846 266.194 506.595 266.725C448.256 269.786 389.904 272.408 331.325 275.849C307.743 277.229 284.32 281.234 260.768 282.175C215.166 284.087 169.552 284.122 123.986 285.845C105.06 286.562 86.1797 290.345 67.2477 290.874C32.3795 291.619 -2.48865 292.363 -37.4055 291.418C-67.6419 290.686 -97.9232 286.952 -128.214 285.783C-182.527 283.75 -237.103 282.725 -291.526 281.195C-338.264 279.877 -384.995 278.809 -431.755 276.74C-447.135 276.004 -462.45 271.699 -477.853 270.151C-508.614 267.114 -539.386 265.205 -570.144 262.294C-606.045 259.054 -641.97 255.002 -677.862 252.075C-697.859 250.374 -717.93 250.49 -737.928 248.788C-766.126 246.386 -794.331 242.294 -822.516 240.329C-854.798 238.139 -887.145 238.016 -919.418 236.139C-967.688 233.33 -1015.94 230.083 -1064.18 226.398C-1073.94 225.532 -1083.65 223.5 -1093.24 220.321C-1104.36 216.803 -1106.59 211.781 -1107.29 194.771C-1110.48 118.689 -1113.71 42.5663 -1116.99 -33.5975C-1119.21 -84.3102 -1121.42 -135.085 -1124.3 -185.784C-1125.28 -202.474 -1122.2 -212.93 -1111.9 -220.348C-1085.69 -239.246 -1058.47 -248.965 -1028.88 -243.212C-984.198 -235.636 -941.084 -212.058 -903.201 -174.48C-897.613 -168.841 -891.399 -164.655 -885.772 -159.08C-874.832 -148.736 -863.942 -137.264 -850.914 -123.96Z"/>
</mask>
<path fill-rule="evenodd" clip-rule="evenodd" d="M-850.914 -123.96C-849.937 -124.114 -849.031 -124.75 -848.337 -125.768C-827.35 -165.084 -796.335 -179.328 -766.623 -196.798C-765.177 -197.582 -763.66 -198.057 -762.114 -198.209C-720.572 -204.854 -678.878 -206.244 -638.746 -183.63C-609.051 -166.927 -578.845 -148.419 -556.504 -110.278C-550.404 -99.8935 -543.335 -87.7768 -534.882 -84.0767C-524.646 -79.3507 -520.769 -98.3354 -513.908 -106.431C-480.81 -145.442 -444.95 -175.499 -402.246 -185.298C-373.885 -191.724 -345.945 -185.248 -317.899 -179.4C-284.31 -172.419 -253.26 -152.114 -222.98 -129.602C-204.13 -115.609 -189.221 -93.5204 -175.672 -69.3997C-167.183 -54.3091 -166.648 -56.0104 -156.113 -67.0006C-137.885 -86.1665 -118.897 -103.596 -99.821 -120.84C-38.8045 -175.844 26.5626 -182.684 95.3685 -154.173C127.679 -140.842 156.977 -117.621 185.439 -91.5656C193.983 -82.847 202.198 -73.4092 210.042 -63.2997C211.001 -63.3201 212.461 -63.3512 212.9 -64.0491C231.057 -100.175 258.465 -113.591 285.607 -126.125C306.469 -136.064 327.971 -142.978 349.825 -146.773C385.057 -152.282 417.889 -133.893 449.517 -110.909C473.471 -93.5827 496.137 -73.1617 515.04 -44.2734C516.827 -42.6343 518.744 -41.3494 520.742 -40.452C528.702 -53.8908 537.45 -67.4716 545.597 -81.6655C570.436 -124.882 602.755 -153.236 634.842 -182.461C657.734 -203.417 682.672 -211.335 709.093 -212.65C726.158 -213.901 743.296 -209.099 759.119 -198.633C780.4 -184.254 801.293 -168.865 822.229 -153.414C832.251 -145.992 833.75 -146.087 841.068 -160.075C853.337 -184.432 869.698 -203.433 888.559 -215.228C911.238 -229.107 934.176 -241.238 959.12 -243.147C991.027 -244.985 1022.94 -234.159 1051.63 -211.762C1067.46 -199.582 1072.71 -181.23 1071.57 -157.171C1070.11 -125.032 1068.32 -92.9481 1066.41 -60.8615C1062.79 0.240373 1058.91 61.2226 1055.37 122.323C1054.52 137.613 1054.92 153.126 1053.86 168.358C1053.27 176.883 1054.98 187.111 1048.27 193.075C1046.93 194.293 1046.86 199.364 1046.93 203.055C1047.28 225.517 1044.04 231.783 1028.84 232.921C1000.19 235.035 971.485 236.836 942.801 237.824C888.977 239.724 835.079 240.499 781.213 242.4C740.19 243.902 699.122 245.279 658.2 248.844C617.279 252.408 577.606 258.763 537.273 263.943C527.085 265.224 516.846 266.194 506.595 266.725C448.256 269.786 389.904 272.408 331.325 275.849C307.743 277.229 284.32 281.234 260.768 282.175C215.166 284.087 169.552 284.122 123.986 285.845C105.06 286.562 86.1797 290.345 67.2477 290.874C32.3795 291.619 -2.48865 292.363 -37.4055 291.418C-67.6419 290.686 -97.9232 286.952 -128.214 285.783C-182.527 283.75 -237.103 282.725 -291.526 281.195C-338.264 279.877 -384.995 278.809 -431.755 276.74C-447.135 276.004 -462.45 271.699 -477.853 270.151C-508.614 267.114 -539.386 265.205 -570.144 262.294C-606.045 259.054 -641.97 255.002 -677.862 252.075C-697.859 250.374 -717.93 250.49 -737.928 248.788C-766.126 246.386 -794.331 242.294 -822.516 240.329C-854.798 238.139 -887.145 238.016 -919.418 236.139C-967.688 233.33 -1015.94 230.083 -1064.18 226.398C-1073.94 225.532 -1083.65 223.5 -1093.24 220.321C-1104.36 216.803 -1106.59 211.781 -1107.29 194.771C-1110.48 118.689 -1113.71 42.5663 -1116.99 -33.5975C-1119.21 -84.3102 -1121.42 -135.085 -1124.3 -185.784C-1125.28 -202.474 -1122.2 -212.93 -1111.9 -220.348C-1085.69 -239.246 -1058.47 -248.965 -1028.88 -243.212C-984.198 -235.636 -941.084 -212.058 -903.201 -174.48C-897.613 -168.841 -891.399 -164.655 -885.772 -159.08C-874.832 -148.736 -863.942 -137.264 -850.914 -123.96Z" fill="#F6F5F2"/>
<path fill-rule="evenodd" clip-rule="evenodd" d="M-850.914 -123.96C-849.937 -124.114 -849.031 -124.75 -848.337 -125.768C-827.35 -165.084 -796.335 -179.328 -766.623 -196.798C-765.177 -197.582 -763.66 -198.057 -762.114 -198.209C-720.572 -204.854 -678.878 -206.244 -638.746 -183.63C-609.051 -166.927 -578.845 -148.419 -556.504 -110.278C-550.404 -99.8935 -543.335 -87.7768 -534.882 -84.0767C-524.646 -79.3507 -520.769 -98.3354 -513.908 -106.431C-480.81 -145.442 -444.95 -175.499 -402.246 -185.298C-373.885 -191.724 -345.945 -185.248 -317.899 -179.4C-284.31 -172.419 -253.26 -152.114 -222.98 -129.602C-204.13 -115.609 -189.221 -93.5204 -175.672 -69.3997C-167.183 -54.3091 -166.648 -56.0104 -156.113 -67.0006C-137.885 -86.1665 -118.897 -103.596 -99.821 -120.84C-38.8045 -175.844 26.5626 -182.684 95.3685 -154.173C127.679 -140.842 156.977 -117.621 185.439 -91.5656C193.983 -82.847 202.198 -73.4092 210.042 -63.2997C211.001 -63.3201 212.461 -63.3512 212.9 -64.0491C231.057 -100.175 258.465 -113.591 285.607 -126.125C306.469 -136.064 327.971 -142.978 349.825 -146.773C385.057 -152.282 417.889 -133.893 449.517 -110.909C473.471 -93.5827 496.137 -73.1617 515.04 -44.2734C516.827 -42.6343 518.744 -41.3494 520.742 -40.452C528.702 -53.8908 537.45 -67.4716 545.597 -81.6655C570.436 -124.882 602.755 -153.236 634.842 -182.461C657.734 -203.417 682.672 -211.335 709.093 -212.65C726.158 -213.901 743.296 -209.099 759.119 -198.633C780.4 -184.254 801.293 -168.865 822.229 -153.414C832.251 -145.992 833.75 -146.087 841.068 -160.075C853.337 -184.432 869.698 -203.433 888.559 -215.228C911.238 -229.107 934.176 -241.238 959.12 -243.147C991.027 -244.985 1022.94 -234.159 1051.63 -211.762C1067.46 -199.582 1072.71 -181.23 1071.57 -157.171C1070.11 -125.032 1068.32 -92.9481 1066.41 -60.8615C1062.79 0.240373 1058.91 61.2226 1055.37 122.323C1054.52 137.613 1054.92 153.126 1053.86 168.358C1053.27 176.883 1054.98 187.111 1048.27 193.075C1046.93 194.293 1046.86 199.364 1046.93 203.055C1047.28 225.517 1044.04 231.783 1028.84 232.921C1000.19 235.035 971.485 236.836 942.801 237.824C888.977 239.724 835.079 240.499 781.213 242.4C740.19 243.902 699.122 245.279 658.2 248.844C617.279 252.408 577.606 258.763 537.273 263.943C527.085 265.224 516.846 266.194 506.595 266.725C448.256 269.786 389.904 272.408 331.325 275.849C307.743 277.229 284.32 281.234 260.768 282.175C215.166 284.087 169.552 284.122 123.986 285.845C105.06 286.562 86.1797 290.345 67.2477 290.874C32.3795 291.619 -2.48865 292.363 -37.4055 291.418C-67.6419 290.686 -97.9232 286.952 -128.214 285.783C-182.527 283.75 -237.103 282.725 -291.526 281.195C-338.264 279.877 -384.995 278.809 -431.755 276.74C-447.135 276.004 -462.45 271.699 -477.853 270.151C-508.614 267.114 -539.386 265.205 -570.144 262.294C-606.045 259.054 -641.97 255.002 -677.862 252.075C-697.859 250.374 -717.93 250.49 -737.928 248.788C-766.126 246.386 -794.331 242.294 -822.516 240.329C-854.798 238.139 -887.145 238.016 -919.418 236.139C-967.688 233.33 -1015.94 230.083 -1064.18 226.398C-1073.94 225.532 -1083.65 223.5 -1093.24 220.321C-1104.36 216.803 -1106.59 211.781 -1107.29 194.771C-1110.48 118.689 -1113.71 42.5663 -1116.99 -33.5975C-1119.21 -84.3102 -1121.42 -135.085 -1124.3 -185.784C-1125.28 -202.474 -1122.2 -212.93 -1111.9 -220.348C-1085.69 -239.246 -1058.47 -248.965 -1028.88 -243.212C-984.198 -235.636 -941.084 -212.058 -903.201 -174.48C-897.613 -168.841 -891.399 -164.655 -885.772 -159.08C-874.832 -148.736 -863.942 -137.264 -850.914 -123.96Z" stroke="black" stroke-width="8" mask="url(#path-2-outside-2_44_2)"/>
<mask id="path-3-outside-3_44_2" maskUnits="userSpaceOnUse" x="-0.0292969" y="0.678955" width="22" height="18" fill="black">
<rect fill="white" x="-0.0292969" y="0.678955" width="22" height="18"/>
<path d="M17.2333 3.80694C16.0841 3.28484 14.8519 2.90019 13.5635 2.67988C13.54 2.67563 13.5166 2.68625 13.5045 2.7075C13.346 2.98661 13.1705 3.35072 13.0475 3.63691C11.6618 3.43148 10.2831 3.43148 8.92575 3.63691C8.80279 3.34436 8.62087 2.98661 8.46168 2.7075C8.44959 2.68696 8.42616 2.67634 8.40269 2.67988C7.11499 2.89948 5.88273 3.28414 4.73289 3.80694C4.72294 3.81119 4.71441 3.81828 4.70874 3.82748C2.3714 7.28515 1.7311 10.6578 2.04521 13.9887C2.04663 14.005 2.05587 14.0206 2.06866 14.0305C3.61077 15.1519 5.10458 15.8327 6.57064 16.2839C6.5941 16.291 6.61896 16.2825 6.63389 16.2634C6.98069 15.7944 7.28983 15.3 7.55488 14.78C7.57053 14.7495 7.5556 14.7134 7.52362 14.7014C7.03328 14.5172 6.56637 14.2926 6.11724 14.0376C6.08171 14.0171 6.07887 13.9667 6.11155 13.9426C6.20606 13.8725 6.3006 13.7996 6.39085 13.7259C6.40718 13.7124 6.42993 13.7096 6.44913 13.7181C9.39974 15.052 12.5941 15.052 15.5099 13.7181C15.5291 13.7089 15.5519 13.7117 15.5689 13.7252C15.6592 13.7989 15.7537 13.8725 15.8489 13.9426C15.8816 13.9667 15.8795 14.0171 15.8439 14.0376C15.3948 14.2976 14.9279 14.5172 14.4368 14.7006C14.4049 14.7127 14.3907 14.7495 14.4063 14.78C14.677 15.2992 14.9862 15.7937 15.3266 16.2627C15.3408 16.2825 15.3664 16.291 15.3898 16.2839C16.863 15.8327 18.3568 15.1519 19.8989 14.0305C19.9124 14.0206 19.9209 14.0057 19.9224 13.9894C20.2983 10.1386 19.2927 6.79354 17.2567 3.82818C17.2517 3.81828 17.2432 3.81119 17.2333 3.80694ZM7.99551 11.9606C7.10717 11.9606 6.37521 11.153 6.37521 10.1612C6.37521 9.16948 7.09298 8.36193 7.99551 8.36193C8.90513 8.36193 9.63001 9.17657 9.61579 10.1612C9.61579 11.153 8.89802 11.9606 7.99551 11.9606ZM13.9863 11.9606C13.098 11.9606 12.366 11.153 12.366 10.1612C12.366 9.16948 13.0838 8.36193 13.9863 8.36193C14.8959 8.36193 15.6208 9.17657 15.6066 10.1612C15.6066 11.153 14.8959 11.9606 13.9863 11.9606Z"/>
</mask>
<path d="M17.2333 3.80694C16.0841 3.28484 14.8519 2.90019 13.5635 2.67988C13.54 2.67563 13.5166 2.68625 13.5045 2.7075C13.346 2.98661 13.1705 3.35072 13.0475 3.63691C11.6618 3.43148 10.2831 3.43148 8.92575 3.63691C8.80279 3.34436 8.62087 2.98661 8.46168 2.7075C8.44959 2.68696 8.42616 2.67634 8.40269 2.67988C7.11499 2.89948 5.88273 3.28414 4.73289 3.80694C4.72294 3.81119 4.71441 3.81828 4.70874 3.82748C2.3714 7.28515 1.7311 10.6578 2.04521 13.9887C2.04663 14.005 2.05587 14.0206 2.06866 14.0305C3.61077 15.1519 5.10458 15.8327 6.57064 16.2839C6.5941 16.291 6.61896 16.2825 6.63389 16.2634C6.98069 15.7944 7.28983 15.3 7.55488 14.78C7.57053 14.7495 7.5556 14.7134 7.52362 14.7014C7.03328 14.5172 6.56637 14.2926 6.11724 14.0376C6.08171 14.0171 6.07887 13.9667 6.11155 13.9426C6.20606 13.8725 6.3006 13.7996 6.39085 13.7259C6.40718 13.7124 6.42993 13.7096 6.44913 13.7181C9.39974 15.052 12.5941 15.052 15.5099 13.7181C15.5291 13.7089 15.5519 13.7117 15.5689 13.7252C15.6592 13.7989 15.7537 13.8725 15.8489 13.9426C15.8816 13.9667 15.8795 14.0171 15.8439 14.0376C15.3948 14.2976 14.9279 14.5172 14.4368 14.7006C14.4049 14.7127 14.3907 14.7495 14.4063 14.78C14.677 15.2992 14.9862 15.7937 15.3266 16.2627C15.3408 16.2825 15.3664 16.291 15.3898 16.2839C16.863 15.8327 18.3568 15.1519 19.8989 14.0305C19.9124 14.0206 19.9209 14.0057 19.9224 13.9894C20.2983 10.1386 19.2927 6.79354 17.2567 3.82818C17.2517 3.81828 17.2432 3.81119 17.2333 3.80694ZM7.99551 11.9606C7.10717 11.9606 6.37521 11.153 6.37521 10.1612C6.37521 9.16948 7.09298 8.36193 7.99551 8.36193C8.90513 8.36193 9.63001 9.17657 9.61579 10.1612C9.61579 11.153 8.89802 11.9606 7.99551 11.9606ZM13.9863 11.9606C13.098 11.9606 12.366 11.153 12.366 10.1612C12.366 9.16948 13.0838 8.36193 13.9863 8.36193C14.8959 8.36193 15.6208 9.17657 15.6066 10.1612C15.6066 11.153 14.8959 11.9606 13.9863 11.9606Z" stroke="#263238" stroke-width="3.2" mask="url(#path-3-outside-3_44_2)"/>
</g>
<defs>
<clipPath id="clip0_44_2">
<rect width="1440" height="5474" fill="white" transform="translate(-828 -5327)"/>
</clipPath>
</defs>
</svg>
