<svg width="22" height="21" viewBox="0 0 22 21" fill="none" xmlns="http://www.w3.org/2000/svg">
<g clip-path="url(#clip0_1003_1843)">
<path fill-rule="evenodd" clip-rule="evenodd" d="M7.06703 0.932872C8.09341 0.885622 8.42066 0.875122 11.0352 0.875122C13.6497 0.875122 13.9769 0.886497 15.0024 0.932872C16.0279 0.979247 16.7279 1.14287 17.3404 1.38C17.9818 1.62237 18.5637 2.00125 19.0449 2.49125C19.5349 2.97162 19.9129 3.55262 20.1544 4.19487C20.3924 4.80737 20.5552 5.50737 20.6024 6.53112C20.6497 7.55925 20.6602 7.8865 20.6602 10.5001C20.6602 13.1146 20.6488 13.4419 20.6024 14.4682C20.556 15.492 20.3924 16.192 20.1544 16.8045C19.9129 17.4468 19.5343 18.0288 19.0449 18.5099C18.5637 18.9999 17.9818 19.3779 17.3404 19.6194C16.7279 19.8574 16.0279 20.0201 15.0042 20.0674C13.9769 20.1146 13.6497 20.1251 11.0352 20.1251C8.42066 20.1251 8.09341 20.1137 7.06703 20.0674C6.04328 20.021 5.34328 19.8574 4.73078 19.6194C4.08846 19.3778 3.5065 18.9992 3.02541 18.5099C2.53574 18.0292 2.15681 17.4475 1.91503 16.8054C1.67791 16.1929 1.51516 15.4929 1.46791 14.4691C1.42066 13.441 1.41016 13.1137 1.41016 10.5001C1.41016 7.88562 1.42153 7.55837 1.46791 6.53287C1.51428 5.50737 1.67791 4.80737 1.91503 4.19487C2.15716 3.55269 2.53639 2.97102 3.02628 2.49037C3.50669 2.00081 4.08807 1.62189 4.72991 1.38C5.34241 1.14287 6.04241 0.980122 7.06616 0.932872H7.06703ZM14.9245 2.66537C13.9095 2.619 13.605 2.60937 11.0352 2.60937C8.46528 2.60937 8.16078 2.619 7.14578 2.66537C6.20691 2.70825 5.69766 2.86487 5.35816 2.997C4.90928 3.172 4.58816 3.37937 4.25128 3.71625C3.93195 4.02692 3.68619 4.40512 3.53203 4.82312C3.39991 5.16262 3.24328 5.67187 3.20041 6.61075C3.15403 7.62575 3.14441 7.93025 3.14441 10.5001C3.14441 13.07 3.15403 13.3745 3.20041 14.3895C3.24328 15.3284 3.39991 15.8376 3.53203 16.1771C3.68603 16.5945 3.93191 16.9734 4.25128 17.284C4.56191 17.6034 4.94078 17.8492 5.35816 18.0032C5.69766 18.1354 6.20691 18.292 7.14578 18.3349C8.16078 18.3812 8.46441 18.3909 11.0352 18.3909C13.6059 18.3909 13.9095 18.3812 14.9245 18.3349C15.8634 18.292 16.3727 18.1354 16.7122 18.0032C17.161 17.8282 17.4822 17.6209 17.819 17.284C18.1384 16.9734 18.3843 16.5945 18.5383 16.1771C18.6704 15.8376 18.827 15.3284 18.8699 14.3895C18.9163 13.3745 18.9259 13.07 18.9259 10.5001C18.9259 7.93025 18.9163 7.62575 18.8699 6.61075C18.827 5.67187 18.6704 5.16262 18.5383 4.82312C18.3633 4.37425 18.1559 4.05312 17.819 3.71625C17.5083 3.39693 17.1301 3.15118 16.7122 2.997C16.3727 2.86487 15.8634 2.70825 14.9245 2.66537ZM9.80578 13.4672C10.4924 13.753 11.2569 13.7916 11.9687 13.5764C12.6806 13.3611 13.2956 12.9054 13.7088 12.2871C14.122 11.6687 14.3077 10.9261 14.2342 10.1861C14.1607 9.44604 13.8325 8.75447 13.3058 8.2295C12.97 7.89391 12.564 7.63696 12.1169 7.47713C11.6699 7.31729 11.193 7.25856 10.7206 7.30516C10.2481 7.35176 9.79191 7.50253 9.38473 7.74661C8.97755 7.99069 8.62956 8.32202 8.3658 8.71674C8.10204 9.11146 7.92907 9.55975 7.85936 10.0293C7.78964 10.4989 7.82491 10.9781 7.96263 11.4324C8.10034 11.8868 8.33708 12.3049 8.65579 12.6568C8.9745 13.0086 9.36725 13.2854 9.80578 13.4672ZM7.53691 7.00187C7.9963 6.54248 8.54169 6.17806 9.14192 5.92944C9.74215 5.68081 10.3855 5.55285 11.0352 5.55285C11.6848 5.55285 12.3282 5.68081 12.9284 5.92944C13.5286 6.17806 14.074 6.54248 14.5334 7.00187C14.9928 7.46127 15.3572 8.00665 15.6058 8.60688C15.8545 9.20711 15.9824 9.85044 15.9824 10.5001C15.9824 11.1498 15.8545 11.7931 15.6058 12.3934C15.3572 12.9936 14.9928 13.539 14.5334 13.9984C13.6056 14.9262 12.3473 15.4474 11.0352 15.4474C9.72306 15.4474 8.4647 14.9262 7.53691 13.9984C6.60911 13.0706 6.08788 11.8122 6.08788 10.5001C6.08788 9.18802 6.60911 7.92967 7.53691 7.00187ZM17.0797 6.28962C17.1935 6.18223 17.2846 6.05309 17.3477 5.90985C17.4107 5.76661 17.4444 5.61217 17.4466 5.45569C17.4489 5.2992 17.4198 5.14385 17.361 4.99883C17.3021 4.85381 17.2148 4.72207 17.1041 4.61141C16.9935 4.50074 16.8617 4.41341 16.7167 4.35458C16.5717 4.29574 16.4163 4.2666 16.2598 4.26888C16.1034 4.27116 15.9489 4.30482 15.8057 4.36786C15.6624 4.43089 15.5333 4.52203 15.4259 4.63587C15.2171 4.85727 15.1027 5.15135 15.1071 5.45569C15.1116 5.76002 15.2344 6.05064 15.4497 6.26586C15.6649 6.48108 15.9555 6.60395 16.2598 6.60838C16.5642 6.61282 16.8583 6.49848 17.0797 6.28962Z" fill="#263238"/>
</g>
<defs>
<clipPath id="clip0_1003_1843">
<rect width="21" height="21" fill="white" transform="translate(0.535156 0.00012207)"/>
</clipPath>
</defs>
</svg>
