<svg width="21" height="15" viewBox="0 0 21 15" fill="none" xmlns="http://www.w3.org/2000/svg">
<path d="M19.1066 0.0328369H1.96373C1.58485 0.0328369 1.22148 0.183347 0.953575 0.451256C0.685666 0.719165 0.535156 1.08253 0.535156 1.46141V12.89C0.535156 13.2689 0.685666 13.6322 0.953575 13.9001C1.22148 14.168 1.58485 14.3186 1.96373 14.3186H19.1066C19.4855 14.3186 19.8488 14.168 20.1167 13.9001C20.3846 13.6322 20.5352 13.2689 20.5352 12.89V1.46141C20.5352 1.08253 20.3846 0.719165 20.1167 0.451256C19.8488 0.183347 19.4855 0.0328369 19.1066 0.0328369ZM17.5352 1.46141L10.5352 6.30427L3.53516 1.46141H17.5352ZM1.96373 12.89V2.11141L10.128 7.76141C10.2476 7.84436 10.3896 7.88881 10.5352 7.88881C10.6807 7.88881 10.8227 7.84436 10.9423 7.76141L19.1066 2.11141V12.89H1.96373Z" fill="#263238"/>
</svg>
