<svg width="28" height="26" viewBox="0 0 28 26" fill="none" xmlns="http://www.w3.org/2000/svg">
<path d="M22.5043 5.10201L23.525 19.5094C23.525 19.5094 23.9936 23.7127 14.2265 23.7127C4.8431 23.7127 5.32373 19.7707 5.32373 19.7707L6.31472 7.61328L6.46842 4.97674C6.5487 3.59967 6.54869 3.01849 8.02817 3.00279C8.61996 2.99654 8.68824 3.00275 9.12071 3.00274L20.1818 3.01849C21.5483 3.01849 22.4092 3.92591 22.5043 5.10201Z" fill="#FFCC5A" stroke="#FFCC5A" stroke-width="0.529325" stroke-miterlimit="10"/>
<path d="M5.09476 3.00098H7.99335C7.89802 6.86601 6.37668 6.63319 6.37668 6.63319C6.37668 6.19928 6.32752 6.13413 5.98015 5.85853L5.21498 5.38683C5.15321 5.3497 5.15653 5.26109 5.21963 5.22721L6.32752 4.63433L6.4969 4.54898C6.67822 4.44018 6.649 4.31574 6.54273 4.22518C6.5414 4.22453 6.54073 4.22322 6.53941 4.22257C6.08509 3.84469 5.031 3.1619 5.031 3.1619C4.96723 3.10457 5.00841 3.00098 5.09476 3.00098Z" fill="#FFCC5A"/>
<path d="M8.7556 3.00098H5.09476C5.00841 3.00098 4.96723 3.10457 5.031 3.1619C5.031 3.1619 6.08509 3.84469 6.53941 4.22257C6.54073 4.22322 6.5414 4.22453 6.54273 4.22518C6.649 4.31574 6.67822 4.44018 6.4969 4.54898L6.32752 4.63433L5.21963 5.22721C5.15653 5.26109 5.15321 5.3497 5.21498 5.38684L5.98015 5.85853C6.32752 6.13413 6.37668 6.19928 6.37668 6.63319" stroke="#FFCC5A" stroke-width="0.529426" stroke-miterlimit="10"/>
<path d="M16.7461 18.6251C15.4291 18.6251 13.7325 19.6429 12.0431 19.0445C10.2529 18.4104 12.0431 21.2176 14.5087 21.2176C17.9333 21.2176 18.1616 18.6251 16.7461 18.6251Z" fill="white" stroke="black" stroke-width="0.456918"/>
<path d="M7.56298 9.90531L6.2561 10.9887V11.7109L6.49372 13.7573L7.16696 15.2017L8.55304 15.5628H10.9292L12.4341 14.7604L13.3845 12.7541L13.6221 10.7479L13.0281 9.90531L11.1272 9.54419H9.06787L7.56298 9.90531Z" fill="#3C3C3B" stroke="black" stroke-width="0.0755558"/>
<path d="M21.4634 9.94547L22.7703 11.0288V11.7511L22.5326 13.7974L21.8594 15.2419L20.4733 15.603H18.0972L16.5923 14.8005L15.6418 12.7943L15.4042 10.7881L15.9983 9.94547L17.8992 9.58435H19.9585L21.4634 9.94547Z" fill="#3C3C3B" stroke="black" stroke-width="0.0755558"/>
<path d="M23.0152 9.68705C22.3598 9.56291 21.7008 9.43878 21.038 9.35602C19.4941 9.16041 17.9501 9.1228 16.4136 9.4463C15.1843 9.70585 13.9514 9.71338 12.7147 9.47263C11.8483 9.29959 10.9745 9.18298 10.0896 9.18298C9.43058 9.23189 8.76783 9.25069 8.11248 9.33721C7.34235 9.43878 6.57963 9.593 5.81321 9.72466C5.66511 9.75099 5.57995 9.82623 5.57255 9.98798C5.55033 10.5522 5.51701 11.1165 5.5022 11.6845C5.5022 11.7823 5.55774 11.9252 5.63549 11.9704C5.78359 12.0644 5.8058 12.1961 5.84653 12.339C6.07609 13.1064 6.28713 13.8851 6.55742 14.6374C6.80179 15.322 7.35716 15.6944 8.03473 15.8073C9.11587 15.9841 10.2007 15.9615 11.267 15.6719C11.8928 15.5026 12.4 15.1791 12.7443 14.5923C13.0998 13.9866 13.396 13.3547 13.5996 12.6851C13.7551 12.181 13.8884 11.6694 14.0328 11.1616C14.0958 10.9359 14.2735 10.9058 14.466 10.9021C14.6697 10.9021 14.8733 10.9058 14.9511 11.1541C15.0214 11.3798 15.0917 11.6093 15.1473 11.8387C15.3805 12.7678 15.6953 13.6594 16.1766 14.4907C16.5505 15.1415 17.0911 15.5139 17.7946 15.6944C18.7202 15.9314 19.657 15.9427 20.5974 15.8637C21.4971 15.7885 22.1932 15.3822 22.5005 14.4832C22.7523 13.7459 22.9485 12.986 23.1707 12.2412C23.1929 12.1622 23.2521 12.0945 23.2929 12.0193C23.3595 11.8951 23.478 11.771 23.4817 11.6469C23.4891 11.1541 23.4743 10.6613 23.4447 10.1723C23.4187 9.77356 23.4039 9.75852 23.0152 9.68705ZM13.3701 11.5039C13.2997 12.1773 13.1072 12.8167 12.8295 13.4299C12.6999 13.712 12.5444 13.9829 12.3889 14.2537C12.0742 14.7991 11.6003 15.1114 10.993 15.2543C9.99337 15.4838 8.99739 15.4574 8.00141 15.2468C7.62745 15.1678 7.34976 14.9496 7.16834 14.6073C6.56482 13.4675 6.44634 12.26 6.71292 11.0074C6.77587 10.7177 6.99432 10.5635 7.23498 10.4394C7.77555 10.161 8.36425 10.0707 8.95666 10.0068C9.32321 9.96917 9.68976 9.96165 10.0563 9.93908C10.0526 9.95412 10.06 9.92403 10.0563 9.93908C10.5317 9.93908 11.4596 10.0745 12.1519 10.1873C12.3704 10.225 12.5888 10.3228 12.7925 10.4206C13.2775 10.6576 13.4256 10.9585 13.3701 11.5039ZM21.9414 14.3703C21.7082 14.8932 21.3416 15.2242 20.7677 15.2919C20.3827 15.3371 19.9939 15.3822 19.6088 15.4273C18.9498 15.4236 18.3018 15.3634 17.6724 15.1527C17.3133 15.0324 17.0134 14.8292 16.7875 14.5208C16.1136 13.5954 15.7212 12.5534 15.6175 11.4099C15.5694 10.8795 15.8137 10.5485 16.3062 10.3453C17.0393 10.0444 17.8094 9.96917 18.5869 9.9466C19.3793 9.92779 20.1753 9.94284 20.9417 10.1535C21.2972 10.2513 21.6489 10.398 21.9711 10.5786C22.2858 10.7554 22.3043 11.1165 22.3487 11.4437C22.4857 12.4594 22.3561 13.4337 21.9414 14.3703Z" fill="black"/>
</svg>
