<svg width="28" height="26" viewBox="0 0 28 26" fill="none" xmlns="http://www.w3.org/2000/svg">
<path d="M20.7774 7.42479C19.4389 6.82074 18.0036 6.37571 16.5029 6.12082C16.4756 6.1159 16.4483 6.12819 16.4342 6.15278C16.2496 6.47569 16.0451 6.89696 15.902 7.22807C14.2879 6.9904 12.682 6.9904 11.101 7.22807C10.9578 6.8896 10.7459 6.47569 10.5605 6.15278C10.5464 6.12901 10.5191 6.11672 10.4918 6.12082C8.99192 6.37489 7.55662 6.81993 6.21732 7.42479C6.20572 7.4297 6.19579 7.43791 6.18919 7.44855C3.46672 11.449 2.72092 15.351 3.08678 19.2047C3.08844 19.2236 3.0992 19.2416 3.1141 19.2531C4.91031 20.5505 6.65024 21.3381 8.35787 21.8602C8.3852 21.8684 8.41416 21.8586 8.43155 21.8364C8.83549 21.2939 9.19556 20.7218 9.50429 20.1202C9.52251 20.085 9.50512 20.0432 9.46788 20.0292C8.89674 19.8161 8.3529 19.5563 7.82976 19.2613C7.78838 19.2375 7.78507 19.1793 7.82314 19.1514C7.93323 19.0703 8.04334 18.9859 8.14846 18.9007C8.16748 18.8851 8.19398 18.8818 8.21634 18.8916C11.6531 20.4349 15.3739 20.4349 18.7701 18.8916C18.7924 18.881 18.8189 18.8843 18.8388 18.8998C18.9439 18.9851 19.054 19.0703 19.1649 19.1514C19.203 19.1793 19.2005 19.2375 19.1591 19.2613C18.636 19.5621 18.0922 19.8161 17.5202 20.0284C17.483 20.0424 17.4664 20.085 17.4846 20.1202C17.8 20.721 18.16 21.293 18.5565 21.8356C18.5731 21.8586 18.6029 21.8684 18.6302 21.8602C20.3461 21.3381 22.086 20.5505 23.8823 19.2531C23.898 19.2416 23.9079 19.2244 23.9096 19.2056C24.3474 14.7503 23.1762 10.8802 20.8047 7.44937C20.7989 7.43791 20.789 7.4297 20.7774 7.42479ZM10.0175 16.8582C8.98281 16.8582 8.13024 15.9239 8.13024 14.7765C8.13024 13.6291 8.96628 12.6947 10.0175 12.6947C11.077 12.6947 11.9213 13.6373 11.9048 14.7765C11.9048 15.9239 11.0687 16.8582 10.0175 16.8582ZM16.9954 16.8582C15.9607 16.8582 15.1082 15.9239 15.1082 14.7765C15.1082 13.6291 15.9442 12.6947 16.9954 12.6947C18.0549 12.6947 18.8992 13.6373 18.8827 14.7765C18.8827 15.9239 18.0549 16.8582 16.9954 16.8582Z" fill="#FFCC5A"/>
<path d="M5.64658 14.5924C5.22012 14.1022 4.88955 13.4897 5.03471 12.8084C5.04448 12.7576 5.0974 12.6868 5.12265 12.6577C5.50514 12.2864 6.11595 12.192 6.60598 12.0993C7.30844 11.9668 8.05064 11.977 8.75734 12.0703C9.44921 12.1602 10.1421 12.3461 10.798 12.6015C11.0947 12.7169 11.6832 12.9665 11.6832 12.9665C11.8624 13.0412 12.3516 13.308 12.3803 13.7044C12.3898 13.8363 12.3994 13.8913 12.3803 14.0215C12.3554 14.191 12.343 14.3783 12.1566 15.0125C11.9703 15.6467 11.5619 16.059 11.5619 16.059C11.074 16.6692 10.1909 16.7983 9.48153 16.746C8.68 16.6868 7.90337 16.3803 7.22103 15.9322C6.65843 15.5625 6.09741 15.111 5.64658 14.5924Z" fill="#333333" stroke="black" stroke-width="0.486954"/>
<path d="M21.3534 14.5924C21.7799 14.1022 22.1104 13.4897 21.9653 12.8084C21.9555 12.7576 21.9026 12.6868 21.8774 12.6577C21.4949 12.2864 20.884 12.192 20.394 12.0993C19.6916 11.9668 18.9494 11.977 18.2427 12.0703C17.5508 12.1602 16.8579 12.3461 16.202 12.6015C15.9053 12.7169 15.3168 12.9665 15.3168 12.9665C15.1376 13.0412 14.6484 13.308 14.6197 13.7044C14.6102 13.8363 14.6006 13.8913 14.6197 14.0215C14.6446 14.191 14.657 14.3783 14.8434 15.0125C15.0297 15.6467 15.4381 16.059 15.4381 16.059C15.926 16.6692 16.8091 16.7983 17.5185 16.746C18.32 16.6868 19.0966 16.3803 19.779 15.9322C20.3416 15.5625 20.9026 15.111 21.3534 14.5924Z" fill="#333333" stroke="black" stroke-width="0.486954"/>
<path d="M12.3914 13.9819C12.7979 14.3196 14.0544 14.5809 14.6457 13.9819" stroke="black" stroke-width="0.626084" stroke-linejoin="round"/>
</svg>
