<svg width="25" height="25" viewBox="0 0 25 25" fill="none" xmlns="http://www.w3.org/2000/svg">
<path d="M3.48259 20.952L4.58728 5.80521C4.67833 4.55834 5.64646 3.59631 6.81049 3.59631H16.6406H18.1062H21.6536C21.7592 3.59631 21.8096 3.73524 21.7316 3.81214C21.7316 3.81214 20.4416 4.72785 19.8856 5.23464C19.8839 5.23551 19.8831 5.23726 19.8815 5.23813C19.7514 5.35959 19.7157 5.52648 19.9376 5.6724L20.1449 5.78686L21.5007 6.58199C21.578 6.62743 21.582 6.74626 21.5064 6.79607L20.57 7.42868C20.1449 7.79829 20.0847 7.88566 20.0847 8.46759L21.0333 21.3566C21.1187 22.5318 20.2546 23.5367 19.158 23.5367H5.70498C4.4052 23.5367 3.38098 22.3457 3.48259 20.952Z" fill="#FFCC5A" stroke="black" stroke-width="0.64611" stroke-miterlimit="10"/>
<path d="M5.52874 21.7071H12.2568V3.96204H6.65436C5.77344 3.96204 5.04089 4.64008 4.97253 5.51874L3.84691 19.8868C3.77001 20.8681 4.5445 21.7071 5.52874 21.7071Z" fill="#FFCC5A"/>
<g clip-path="url(#clip0_1106_1326)">
<path d="M3.48259 20.952L4.58728 5.80521C4.67833 4.55834 5.64646 3.59631 6.81049 3.59631H16.6406H18.1062H21.6536C21.7592 3.59631 21.8096 3.73524 21.7316 3.81214C21.7316 3.81214 20.4416 4.72785 19.8856 5.23464C19.8839 5.23551 19.8831 5.23726 19.8815 5.23813C19.7514 5.35959 19.7157 5.52648 19.9376 5.6724L20.1449 5.78686L21.5007 6.58199C21.578 6.62743 21.582 6.74626 21.5064 6.79607L20.57 7.42868C20.1449 7.79829 20.0847 7.88566 20.0847 8.46759L21.0333 21.3566C21.1187 22.5318 20.2546 23.5367 19.158 23.5367H5.70498C4.4052 23.5367 3.38098 22.3457 3.48259 20.952Z" stroke="black" stroke-width="0.64611" stroke-miterlimit="10"/>
<path d="M14.4204 17.8815C13.2531 17.8815 11.7496 18.7718 10.2523 18.2483C8.6658 17.6936 10.2523 20.1492 12.4375 20.1492C15.4725 20.1492 15.6749 17.8815 14.4204 17.8815Z" fill="white" stroke="#171717" stroke-width="0.6"/>
<path d="M3.97323 11.2497L3.94692 11.0372H3.73277H3.14952V9.28978H21.3214V11.0372H20.7381H20.524L20.4977 11.2497L20.0405 14.9432H13.7759L13.0996 11.3032V11.2795C13.0996 11.0583 13.0014 10.8521 12.837 10.7046C12.6734 10.5578 12.4567 10.4792 12.2354 10.4792C12.0142 10.4792 11.7975 10.5578 11.6339 10.7046C11.4695 10.8521 11.3713 11.0583 11.3713 11.2795V11.3032L10.695 14.9432H4.43044L3.97323 11.2497Z" fill="#6376A8" stroke="black" stroke-width="0.484583"/>
</g>
<defs>
<clipPath id="clip0_1106_1326">
<rect width="21.1601" height="21.1601" fill="white" transform="translate(2.09961 2.88782)"/>
</clipPath>
</defs>
</svg>
