<svg width="20" height="24" viewBox="0 0 20 24" fill="none" xmlns="http://www.w3.org/2000/svg">
<path d="M18.0432 5.52377L19.1438 19.5632C19.2451 20.855 18.3283 21.5847 17.4374 21.7872L10.3914 23.1235L3.52593 21.9589C2.25197 21.6252 1.57248 21.0275 1.65751 19.9382L2.60265 5.75135L2.73791 1.05399C2.73791 1.05399 2.7784 0.932509 2.94038 1.05399C3.10236 1.17548 3.87177 3.47637 3.99324 3.47637C4.11472 3.47637 4.9651 1.82339 5.08659 1.94487C5.20807 2.06635 5.694 3.47637 5.81549 3.47637H6.62538H15.8282C16.9879 3.47637 17.9525 4.36806 18.0432 5.52377Z" fill="#FFCC5A" stroke="#FFCC5A" stroke-width="0.647911" stroke-miterlimit="10"/>
<path d="M1.80732 13.2264L1.80753 13.2264L1.80587 13.2165L1.41938 10.9071C1.34395 10.3156 1.51222 9.77036 1.86325 9.37913C2.21901 8.98262 2.74141 8.74785 3.30108 8.74785H7.948C8.52069 8.74785 9.02772 8.98774 9.35004 9.39494C9.42698 9.50013 9.49356 9.60777 9.54605 9.72577L9.62577 9.90501L9.81779 9.86485C10.1184 9.80198 10.4249 9.80222 10.7163 9.86461L10.909 9.90588L10.9891 9.72577C11.042 9.607 11.1081 9.50086 11.1891 9.39967L11.1892 9.3997L11.1919 9.39618C11.5054 8.98965 12.0119 8.74785 12.5949 8.74785H17.2418C17.8011 8.74785 18.3231 8.98227 18.6789 9.37824C19.0242 9.77116 19.1911 10.3177 19.1234 10.877L18.7293 13.2477L18.729 13.2477L18.7278 13.2582C18.5958 14.3409 17.5941 15.227 16.4674 15.227H14.1439C13.0473 15.227 11.967 14.382 11.6998 13.3211L11.6976 13.3123L11.6947 13.3038L10.9977 11.2065L10.9734 11.1333L10.9112 11.0875C10.5312 10.8077 10.004 10.8077 9.62399 11.0875L9.56172 11.1334L9.5374 11.2068L8.82487 13.3582L8.82196 13.367L8.81972 13.376C8.56852 14.387 7.49851 15.227 6.39903 15.227H4.07557C2.94361 15.227 1.94703 14.3433 1.80732 13.2264Z" fill="#0C6A54" stroke="black" stroke-width="0.485934"/>
<path d="M12.2566 17.9937C10.9813 17.9936 9.33843 18.9664 7.70247 18.3945C5.96903 17.7884 7.70249 20.4714 10.0901 20.4714C13.4062 20.4714 13.6273 17.9937 12.2566 17.9937Z" fill="white" stroke="black" stroke-width="0.44245"/>
</svg>
