<svg width="21" height="24" viewBox="0 0 21 24" fill="none" xmlns="http://www.w3.org/2000/svg">
<path d="M18.0432 5.5239L19.1438 19.5633C19.2451 20.8551 18.3283 21.5848 17.4374 21.7873L10.3914 23.1236L3.52593 21.959C2.25197 21.6253 1.57248 21.0276 1.65751 19.9383L2.60265 5.75147L2.73791 1.05411C2.73791 1.05411 2.7784 0.932631 2.94038 1.05411C3.10236 1.1756 3.87177 3.47649 3.99324 3.47649C4.11472 3.4765 4.9651 1.82351 5.08659 1.94499C5.20807 2.06647 5.694 3.4765 5.81549 3.4765H6.62538H15.8282C16.9879 3.4765 17.9525 4.36818 18.0432 5.5239Z" fill="#FFCC5A" stroke="black" stroke-width="0.647911" stroke-miterlimit="10"/>
<g clip-path="url(#clip0_1003_1852)">
<path d="M1.80683 13.2266L1.80704 13.2265L1.80538 13.2166L1.4189 10.9072C1.34346 10.3157 1.51173 9.77048 1.86276 9.37925C2.21852 8.98274 2.74092 8.74797 3.30059 8.74797H7.94752C8.52021 8.74797 9.02723 8.98786 9.34955 9.39507C9.42649 9.50025 9.49308 9.60789 9.54556 9.72589L9.62528 9.90513L9.8173 9.86497C10.1179 9.8021 10.4244 9.80235 10.7158 9.86473L10.9085 9.90601L10.9886 9.72589C11.0415 9.60712 11.1076 9.50098 11.1887 9.39979L11.1887 9.39982L11.1914 9.39631C11.5049 8.98977 12.0114 8.74797 12.5944 8.74797H17.2414C17.8006 8.74797 18.3227 8.98239 18.6784 9.37836C19.0237 9.77128 19.1907 10.3178 19.1229 10.8771L18.7288 13.2478L18.7286 13.2478L18.7273 13.2583C18.5953 14.3411 17.5936 15.2271 16.4669 15.2271H14.1434C13.0468 15.2271 11.9665 14.3821 11.6993 13.3212L11.6971 13.3125L11.6943 13.3039L10.9972 11.2067L10.9729 11.1334L10.9107 11.0876C10.5307 10.8079 10.0035 10.8079 9.6235 11.0876L9.56123 11.1335L9.53691 11.2069L8.82438 13.3583L8.82147 13.3671L8.81923 13.3761C8.56803 14.3871 7.49803 15.2271 6.39854 15.2271H4.07508C2.94312 15.2271 1.94654 14.3434 1.80683 13.2266Z" fill="#0C6A54" stroke="black" stroke-width="0.485934"/>
<path d="M12.3237 16.9938C11.1565 16.9938 9.6529 17.8841 8.15562 17.3606C6.56912 16.8059 8.15563 19.2615 10.3408 19.2615C13.3759 19.2615 13.5782 16.9938 12.3237 16.9938Z" fill="white" stroke="black" stroke-width="0.6"/>
</g>
<defs>
<clipPath id="clip0_1003_1852">
<rect width="20.1233" height="12.074" fill="white" transform="translate(0.195312 7.8468)"/>
</clipPath>
</defs>
</svg>
