<svg width="20" height="19" viewBox="0 0 20 19" fill="none" xmlns="http://www.w3.org/2000/svg">
<path d="M18.7469 11.0962C18.843 10.5689 18.8945 10.0298 18.8945 9.49075C18.8945 8.29544 18.6602 7.13528 18.1985 6.04543C17.7531 4.99075 17.1133 4.04387 16.3 3.23059C15.4935 2.42205 14.5375 1.77806 13.4852 1.3345C12.393 0.872779 11.2352 0.638403 10.0399 0.638403C9.47736 0.638403 8.91252 0.69231 8.36408 0.797778C7.60521 0.395645 6.75963 0.184855 5.9008 0.183716C4.50158 0.183716 3.18439 0.72981 2.19533 1.71887C1.70727 2.20442 1.32031 2.7819 1.0568 3.41793C0.793304 4.05395 0.658495 4.7359 0.660172 5.42434C0.660172 6.31497 0.889859 7.19153 1.31877 7.96497C1.23205 8.46653 1.18517 8.97981 1.18517 9.49075C1.18517 10.6861 1.41955 11.8462 1.88127 12.9361C2.32658 13.9907 2.96408 14.9376 3.77736 15.7509C4.59064 16.5642 5.53752 17.2017 6.5922 17.647C7.68439 18.1087 8.8422 18.3431 10.0375 18.3431C10.5578 18.3431 11.0781 18.2962 11.5891 18.2048C12.3742 18.6478 13.2602 18.8845 14.1672 18.8845C15.5664 18.8845 16.8836 18.3407 17.8727 17.3493C18.8641 16.3603 19.4078 15.0431 19.4078 13.6439C19.4102 12.7532 19.1805 11.8743 18.7469 11.0962ZM16.682 16.1587C16.0094 16.8337 15.1211 17.1993 14.1695 17.1993C13.5578 17.1993 12.9555 17.04 12.4211 16.7376L11.8938 16.44L11.2961 16.5454C10.8789 16.6204 10.457 16.6579 10.0399 16.6579C9.06955 16.6579 8.13439 16.4681 7.24845 16.0931C6.39767 15.7345 5.63127 15.2189 4.97033 14.5579C4.31606 13.9059 3.79469 13.133 3.43517 12.2822C3.06017 11.3986 2.87267 10.4634 2.87267 9.49309C2.87267 9.08528 2.91017 8.66809 2.98048 8.25559L3.08361 7.66731L2.79298 7.14465C2.49986 6.61863 2.34578 6.02652 2.34533 5.42434C2.34533 4.47278 2.7133 3.5845 3.38595 2.91184C4.06095 2.23918 4.94923 1.87122 5.9008 1.87122C6.48444 1.87279 7.05888 2.0168 7.57423 2.29075L8.09923 2.56731L8.68048 2.45481C9.12345 2.37043 9.58048 2.3259 10.0399 2.3259C11.0102 2.3259 11.9453 2.51575 12.8289 2.8884C13.6844 3.24934 14.4485 3.76497 15.107 4.42356C15.768 5.08215 16.2836 5.84856 16.6445 6.70169C17.0195 7.58528 17.207 8.52044 17.207 9.49075C17.207 9.922 17.1672 10.3579 17.0875 10.7915L16.9774 11.3892L17.2727 11.9189C17.568 12.4462 17.7227 13.0439 17.7227 13.6462C17.7227 14.6001 17.3547 15.4861 16.682 16.1587ZM11.7086 8.46184L9.63673 8.00247C8.84923 7.822 7.9422 7.58528 7.9422 6.84231C7.9422 6.09934 8.57736 5.57903 9.7258 5.57903C12.0391 5.57903 11.8281 7.16809 12.9766 7.16809C13.5813 7.16809 14.111 6.81184 14.111 6.20247C14.111 4.77747 11.8281 3.70637 9.8922 3.70637C7.78986 3.70637 5.55158 4.59934 5.55158 6.9759C5.55158 8.11965 5.95939 9.3384 8.21408 9.90325L11.0125 10.6017C11.8586 10.8103 12.0719 11.2861 12.0719 11.7173C12.0719 12.4322 11.3617 13.1306 10.075 13.1306C7.56252 13.1306 7.91173 11.197 6.56642 11.197C5.96173 11.197 5.52345 11.6142 5.52345 12.2072C5.52345 13.365 6.9297 14.9118 10.075 14.9118C13.068 14.9118 14.5516 13.4704 14.5516 11.5368C14.5516 10.2923 13.9774 8.96809 11.7086 8.46184Z" fill="#263238"/>
</svg>
