<svg width="28" height="26" viewBox="0 0 28 26" fill="none" xmlns="http://www.w3.org/2000/svg">
<path d="M22.5214 5.09625L23.5416 19.4642C23.5416 19.4642 24.0099 23.6559 14.2484 23.6559C4.87047 23.6559 5.35083 19.7247 5.35083 19.7247L6.34124 7.60063L6.49486 4.97132C6.57509 3.59802 6.57508 3.01844 8.0537 3.00278C8.64515 2.99655 8.7134 3.00274 9.14561 3.00273L20.2003 3.01844C21.5661 3.01844 22.4264 3.92337 22.5214 5.09625Z" fill="#FFCC5A" stroke="#FFCC5A" stroke-width="0.529019" stroke-miterlimit="10"/>
<path d="M5.12278 3.00073H8.0197C7.92443 6.81328 6.40396 6.58362 6.40396 6.58362C6.40396 6.1556 6.35483 6.09134 6.00766 5.81948L5.24293 5.35419C5.1812 5.31756 5.18452 5.23016 5.24758 5.19674L6.35483 4.61191L6.52411 4.52772C6.70533 4.42039 6.67612 4.29764 6.56991 4.20831C6.56858 4.20767 6.56792 4.20638 6.56659 4.20574C6.11254 3.83299 5.05906 3.15947 5.05906 3.15947C4.99533 3.10292 5.03649 3.00073 5.12278 3.00073Z" fill="#FFCC5A"/>
<path d="M8.78151 3.00073H5.12278C5.03649 3.00073 4.99533 3.10292 5.05906 3.15947C5.05906 3.15947 6.11254 3.83299 6.56659 4.20574C6.56792 4.20638 6.56858 4.20767 6.56991 4.20831C6.67612 4.29764 6.70533 4.42039 6.52411 4.52772L6.35483 4.61191L5.24758 5.19674C5.18452 5.23016 5.1812 5.31756 5.24293 5.35419L6.00766 5.81949C6.35483 6.09134 6.40396 6.1556 6.40396 6.58362" stroke="#FFCC5A" stroke-width="0.52912" stroke-miterlimit="10"/>
<path d="M15.6918 12.8075C15.7287 12.4992 15.6416 12.1889 15.4497 11.9449C15.2578 11.7008 14.9769 11.543 14.6686 11.5061C14.3604 11.4692 14.0501 11.5562 13.806 11.7481C13.562 11.94 13.4041 12.221 13.3672 12.5292" stroke="black" stroke-width="0.527786"/>
<circle cx="19.4453" cy="12.2253" r="3.83311" transform="rotate(6.82605 19.4453 12.2253)" fill="#007EFF" stroke="black" stroke-width="0.527786"/>
<circle cx="9.55489" cy="12.3672" r="3.83311" transform="rotate(6.82605 9.55489 12.3672)" fill="#007EFF" stroke="black" stroke-width="0.527786"/>
<path d="M16.7681 18.4121C15.4518 18.4121 13.7563 19.4161 12.0678 18.8258C10.2787 18.2003 12.0678 20.9694 14.532 20.9694C17.9546 20.9694 18.1828 18.4121 16.7681 18.4121Z" fill="white" stroke="black" stroke-width="0.456654"/>
</svg>
