<svg width="22" height="16" viewBox="0 0 22 16" fill="none" xmlns="http://www.w3.org/2000/svg">
<path d="M21.5352 7.66555C21.5352 7.61399 21.5352 7.5554 21.5328 7.48743C21.5305 7.29758 21.5258 7.0843 21.5211 6.85696C21.5023 6.20305 21.4695 5.55149 21.418 4.93743C21.3477 4.09133 21.2445 3.38586 21.1039 2.85618C20.9555 2.3034 20.6646 1.79926 20.2603 1.39414C19.856 0.989015 19.3525 0.697105 18.8 0.547583C18.1367 0.369458 16.8383 0.259302 15.0102 0.191333C14.1406 0.15852 13.2102 0.137427 12.2797 0.125708C11.9539 0.12102 11.6516 0.118677 11.3797 0.116333H10.6906C10.4187 0.118677 10.1164 0.12102 9.79062 0.125708C8.86016 0.137427 7.92969 0.15852 7.06016 0.191333C5.23203 0.261645 3.93125 0.371802 3.27031 0.547583C2.71766 0.696738 2.21391 0.988525 1.80956 1.3937C1.4052 1.79888 1.11444 2.30322 0.966406 2.85618C0.823438 3.38586 0.722656 4.09133 0.652344 4.93743C0.600781 5.55149 0.567969 6.20305 0.549219 6.85696C0.542187 7.0843 0.539844 7.29758 0.5375 7.48743C0.5375 7.5554 0.535156 7.61399 0.535156 7.66555V7.7968C0.535156 7.84836 0.535156 7.90696 0.5375 7.97493C0.539844 8.16477 0.544531 8.37805 0.549219 8.6054C0.567969 9.2593 0.600781 9.91086 0.652344 10.5249C0.722656 11.371 0.825781 12.0765 0.966406 12.6062C1.26641 13.7288 2.14766 14.6148 3.27031 14.9148C3.93125 15.0929 5.23203 15.2031 7.06016 15.271C7.92969 15.3038 8.86016 15.3249 9.79062 15.3366C10.1164 15.3413 10.4187 15.3437 10.6906 15.346H11.3797C11.6516 15.3437 11.9539 15.3413 12.2797 15.3366C13.2102 15.3249 14.1406 15.3038 15.0102 15.271C16.8383 15.2007 18.1391 15.0906 18.8 14.9148C19.9227 14.6148 20.8039 13.7312 21.1039 12.6062C21.2469 12.0765 21.3477 11.371 21.418 10.5249C21.4695 9.91086 21.5023 9.2593 21.5211 8.6054C21.5281 8.37805 21.5305 8.16477 21.5328 7.97493C21.5328 7.90696 21.5352 7.84836 21.5352 7.7968V7.66555ZM19.8477 7.78743C19.8477 7.83665 19.8477 7.89055 19.8453 7.95383C19.843 8.13665 19.8383 8.33821 19.8336 8.55618C19.8172 9.17961 19.7844 9.80305 19.7352 10.382C19.6719 11.1366 19.5828 11.7554 19.4727 12.1702C19.3273 12.7116 18.9008 13.1406 18.3617 13.2835C17.8695 13.4148 16.6297 13.5202 14.9445 13.5835C14.0914 13.6163 13.1727 13.6374 12.2562 13.6491C11.9352 13.6538 11.6375 13.6562 11.3703 13.6562H10.7L9.81406 13.6491C8.89766 13.6374 7.98125 13.6163 7.12578 13.5835C5.44063 13.5179 4.19844 13.4148 3.70859 13.2835C3.16953 13.1382 2.74297 12.7116 2.59766 12.1702C2.4875 11.7554 2.39844 11.1366 2.33516 10.382C2.28594 9.80305 2.25547 9.17961 2.23672 8.55618C2.22969 8.33821 2.22734 8.1343 2.225 7.95383C2.225 7.89055 2.22266 7.8343 2.22266 7.78743V7.67493C2.22266 7.62571 2.22266 7.5718 2.225 7.50852C2.22734 7.32571 2.23203 7.12415 2.23672 6.90618C2.25313 6.28274 2.28594 5.6593 2.33516 5.0804C2.39844 4.32571 2.4875 3.70696 2.59766 3.29211C2.74297 2.75071 3.16953 2.3218 3.70859 2.17883C4.20078 2.04758 5.44063 1.94211 7.12578 1.87883C7.97891 1.84602 8.89766 1.82493 9.81406 1.81321C10.1352 1.80852 10.4328 1.80618 10.7 1.80618H11.3703L12.2562 1.81321C13.1727 1.82493 14.0891 1.84602 14.9445 1.87883C16.6297 1.94446 17.8719 2.04758 18.3617 2.17883C18.9008 2.32415 19.3273 2.75071 19.4727 3.29211C19.5828 3.70696 19.6719 4.32571 19.7352 5.0804C19.7844 5.6593 19.8148 6.28274 19.8336 6.90618C19.8406 7.12415 19.843 7.32805 19.8453 7.50852C19.8453 7.5718 19.8477 7.62805 19.8477 7.67493V7.78743ZM8.94922 10.8718L14.3867 7.70774L8.94922 4.59055V10.8718Z" fill="#263238"/>
</svg>
