<svg width="23" height="16" viewBox="0 0 23 16" fill="none" xmlns="http://www.w3.org/2000/svg">
<path d="M18.7774 1.42479C17.4389 0.820742 16.0036 0.375709 14.5029 0.12082C14.4756 0.115901 14.4483 0.128194 14.4342 0.152782C14.2496 0.475694 14.0451 0.89696 13.902 1.22807C12.2879 0.9904 10.682 0.9904 9.10103 1.22807C8.95782 0.8896 8.74592 0.475694 8.5605 0.152782C8.54642 0.129015 8.51912 0.116721 8.49179 0.12082C6.99192 0.374894 5.55662 0.819927 4.21732 1.42479C4.20572 1.4297 4.19579 1.43791 4.18919 1.44855C1.46672 5.44896 0.720919 9.35104 1.08678 13.2047C1.08844 13.2236 1.0992 13.2416 1.1141 13.2531C2.91031 14.5505 4.65024 15.3381 6.35787 15.8602C6.3852 15.8684 6.41416 15.8586 6.43155 15.8364C6.83549 15.2939 7.19556 14.7218 7.50429 14.1202C7.52251 14.085 7.50512 14.0432 7.46788 14.0292C6.89674 13.8161 6.3529 13.5563 5.82976 13.2613C5.78838 13.2375 5.78507 13.1793 5.82314 13.1514C5.93323 13.0703 6.04334 12.9859 6.14846 12.9007C6.16748 12.8851 6.19398 12.8818 6.21634 12.8916C9.65312 14.4349 13.3739 14.4349 16.7701 12.8916C16.7924 12.881 16.8189 12.8843 16.8388 12.8998C16.9439 12.9851 17.054 13.0703 17.1649 13.1514C17.203 13.1793 17.2005 13.2375 17.1591 13.2613C16.636 13.5621 16.0922 13.8161 15.5202 14.0284C15.483 14.0424 15.4664 14.085 15.4846 14.1202C15.8 14.721 16.16 15.293 16.5565 15.8356C16.5731 15.8586 16.6029 15.8684 16.6302 15.8602C18.3461 15.3381 20.086 14.5505 21.8823 13.2531C21.898 13.2416 21.9079 13.2244 21.9096 13.2056C22.3474 8.75026 21.1762 4.88018 18.8047 1.44937C18.7989 1.43791 18.789 1.4297 18.7774 1.42479ZM8.01752 10.8582C6.98281 10.8582 6.13024 9.92393 6.13024 8.7765C6.13024 7.62906 6.96628 6.69475 8.01752 6.69475C9.07701 6.69475 9.92133 7.63727 9.90477 8.7765C9.90477 9.92393 9.06873 10.8582 8.01752 10.8582ZM14.9954 10.8582C13.9607 10.8582 13.1082 9.92393 13.1082 8.7765C13.1082 7.62906 13.9442 6.69475 14.9954 6.69475C16.0549 6.69475 16.8992 7.63727 16.8827 8.7765C16.8827 9.92393 16.0549 10.8582 14.9954 10.8582Z" fill="#FFCC5A"/>
<path d="M3.64658 8.59238C3.22012 8.10219 2.88955 7.48972 3.03471 6.80845C3.04448 6.75759 3.0974 6.68679 3.12265 6.65775C3.50514 6.2864 4.11595 6.192 4.60598 6.09931C5.30844 5.96681 6.05064 5.97704 6.75734 6.07031C7.44921 6.16016 8.14214 6.34611 8.79799 6.60145C9.09465 6.71689 9.68322 6.96654 9.68322 6.96654C9.86241 7.04123 10.3516 7.30804 10.3803 7.70441C10.3898 7.83635 10.3994 7.89129 10.3803 8.02152C10.3554 8.19098 10.343 8.37825 10.1566 9.01245C9.97028 9.64665 9.5619 10.059 9.5619 10.059C9.07399 10.6692 8.19088 10.7983 7.48153 10.746C6.68 10.6868 5.90337 10.3803 5.22103 9.93218C4.65843 9.56254 4.09741 9.11102 3.64658 8.59238Z" fill="#333333" stroke="black" stroke-width="0.486954"/>
<path d="M19.3534 8.59238C19.7799 8.10219 20.1104 7.48972 19.9653 6.80845C19.9555 6.75759 19.9026 6.68679 19.8774 6.65775C19.4949 6.2864 18.884 6.192 18.394 6.09931C17.6916 5.96681 16.9494 5.97704 16.2427 6.07031C15.5508 6.16016 14.8579 6.34611 14.202 6.60145C13.9053 6.71689 13.3168 6.96654 13.3168 6.96654C13.1376 7.04123 12.6484 7.30804 12.6197 7.70441C12.6102 7.83635 12.6006 7.89129 12.6197 8.02152C12.6446 8.19098 12.657 8.37825 12.8434 9.01245C13.0297 9.64665 13.4381 10.059 13.4381 10.059C13.926 10.6692 14.8091 10.7983 15.5185 10.746C16.32 10.6868 17.0966 10.3803 17.779 9.93218C18.3416 9.56254 18.9026 9.11102 19.3534 8.59238Z" fill="#333333" stroke="black" stroke-width="0.486954"/>
<path d="M10.3914 7.98193C10.7979 8.31959 12.0544 8.5809 12.6457 7.98193" stroke="black" stroke-width="0.626084" stroke-linejoin="round"/>
</svg>
