<svg width="20" height="22" viewBox="0 0 20 22" fill="none" xmlns="http://www.w3.org/2000/svg">
<path d="M18.5214 3.09625L19.5416 17.4642C19.5416 17.4642 20.0099 21.6559 10.2484 21.6559C0.870474 21.6559 1.35083 17.7247 1.35083 17.7247L2.34124 5.60063L2.49486 2.97132C2.57509 1.59802 2.57508 1.01844 4.0537 1.00278C4.64515 0.996545 4.7134 1.00274 5.14561 1.00273L16.2003 1.01844C17.5661 1.01844 18.4264 1.92337 18.5214 3.09625Z" fill="#FFCC5A" stroke="#FFCC5A" stroke-width="0.529019" stroke-miterlimit="10"/>
<path d="M1.12278 1.00073H4.0197C3.92443 4.81328 2.40396 4.58362 2.40396 4.58362C2.40396 4.1556 2.35483 4.09134 2.00766 3.81948L1.24293 3.35419C1.1812 3.31756 1.18452 3.23016 1.24758 3.19674L2.35483 2.61191L2.52411 2.52772C2.70533 2.42039 2.67612 2.29764 2.56991 2.20831C2.56858 2.20767 2.56792 2.20638 2.56659 2.20574C2.11254 1.83299 1.05906 1.15947 1.05906 1.15947C0.995329 1.10292 1.03649 1.00073 1.12278 1.00073Z" fill="#FFCC5A"/>
<path d="M4.78151 1.00073H1.12278C1.03649 1.00073 0.995329 1.10292 1.05906 1.15947C1.05906 1.15947 2.11254 1.83299 2.56659 2.20574C2.56792 2.20638 2.56858 2.20767 2.56991 2.20831C2.67612 2.29764 2.70533 2.42039 2.52411 2.52772L2.35483 2.61191L1.24758 3.19674C1.18452 3.23016 1.1812 3.31756 1.24293 3.35419L2.00766 3.81949C2.35483 4.09134 2.40396 4.1556 2.40396 4.58362" stroke="#FFCC5A" stroke-width="0.52912" stroke-miterlimit="10"/>
<path d="M11.6918 10.8075C11.7287 10.4992 11.6416 10.1889 11.4497 9.94487C11.2578 9.70081 10.9769 9.54297 10.6686 9.50607C10.3604 9.46917 10.0501 9.55624 9.80602 9.74812C9.56196 9.93999 9.40412 10.221 9.36722 10.5292" stroke="black" stroke-width="0.527786"/>
<circle cx="15.4453" cy="10.2253" r="3.83311" transform="rotate(6.82605 15.4453 10.2253)" fill="#007EFF" stroke="black" stroke-width="0.527786"/>
<circle cx="5.55489" cy="10.3672" r="3.83311" transform="rotate(6.82605 5.55489 10.3672)" fill="#007EFF" stroke="black" stroke-width="0.527786"/>
<path d="M12.7681 16.4121C11.4518 16.4121 9.75628 17.4161 8.06779 16.8258C6.27871 16.2003 8.06781 18.9694 10.532 18.9694C13.9546 18.9694 14.1828 16.4121 12.7681 16.4121Z" fill="white" stroke="black" stroke-width="0.456654"/>
</svg>
