<svg width="20" height="22" viewBox="0 0 20 22" fill="none" xmlns="http://www.w3.org/2000/svg">
<path d="M18.5043 3.10201L19.525 17.5094C19.525 17.5094 19.9936 21.7127 10.2265 21.7127C0.843099 21.7127 1.32373 17.7707 1.32373 17.7707L2.31472 5.61328L2.46842 2.97674C2.5487 1.59967 2.54869 1.01849 4.02817 1.00279C4.61996 0.996536 4.68824 1.00275 5.12071 1.00274L16.1818 1.01849C17.5483 1.01849 18.4092 1.92591 18.5043 3.10201Z" fill="#FFCC5A" stroke="#FFCC5A" stroke-width="0.529325" stroke-miterlimit="10"/>
<path d="M1.09476 1.00098H3.99335C3.89802 4.86601 2.37668 4.63319 2.37668 4.63319C2.37668 4.19928 2.32752 4.13413 1.98015 3.85853L1.21498 3.38683C1.15321 3.3497 1.15653 3.26109 1.21963 3.22721L2.32752 2.63433L2.4969 2.54898C2.67822 2.44018 2.649 2.31574 2.54273 2.22518C2.5414 2.22453 2.54073 2.22322 2.53941 2.22257C2.08509 1.84469 1.031 1.1619 1.031 1.1619C0.967234 1.10457 1.00841 1.00098 1.09476 1.00098Z" fill="#FFCC5A"/>
<path d="M4.7556 1.00098H1.09476C1.00841 1.00098 0.967234 1.10457 1.031 1.1619C1.031 1.1619 2.08509 1.84469 2.53941 2.22257C2.54073 2.22322 2.5414 2.22453 2.54273 2.22518C2.649 2.31574 2.67822 2.44018 2.4969 2.54898L2.32752 2.63433L1.21963 3.22721C1.15653 3.26109 1.15321 3.3497 1.21498 3.38684L1.98015 3.85853C2.32752 4.13413 2.37668 4.19928 2.37668 4.63319" stroke="#FFCC5A" stroke-width="0.529426" stroke-miterlimit="10"/>
<path d="M12.7461 16.6251C11.4291 16.6251 9.73253 17.6429 8.04307 17.0445C6.25295 16.4104 8.04309 19.2176 10.5087 19.2176C13.9333 19.2176 14.1616 16.6251 12.7461 16.6251Z" fill="white" stroke="black" stroke-width="0.456918"/>
<path d="M3.56298 7.90531L2.2561 8.98867V9.71091L2.49372 11.7573L3.16696 13.2017L4.55304 13.5628H6.92919L8.43408 12.7604L9.38453 10.7541L9.62215 8.74792L9.02811 7.90531L7.1272 7.54419H5.06787L3.56298 7.90531Z" fill="#3C3C3B" stroke="black" stroke-width="0.0755558"/>
<path d="M17.4634 7.94547L18.7703 9.02883V9.75107L18.5326 11.7974L17.8594 13.2419L16.4733 13.603H14.0972L12.5923 12.8005L11.6418 10.7943L11.4042 8.78808L11.9983 7.94547L13.8992 7.58435H15.9585L17.4634 7.94547Z" fill="#3C3C3B" stroke="black" stroke-width="0.0755558"/>
<path d="M19.0152 7.68705C18.3598 7.56291 17.7008 7.43878 17.038 7.35602C15.4941 7.16041 13.9501 7.1228 12.4136 7.4463C11.1843 7.70585 9.95137 7.71338 8.71473 7.47263C7.84833 7.29959 6.97454 7.18298 6.08963 7.18298C5.43058 7.23189 4.76783 7.25069 4.11248 7.33721C3.34235 7.43878 2.57963 7.593 1.81321 7.72466C1.66511 7.75099 1.57995 7.82623 1.57255 7.98798C1.55033 8.55223 1.51701 9.11648 1.5022 9.68449C1.5022 9.78229 1.55774 9.92524 1.63549 9.97037C1.78359 10.0644 1.8058 10.1961 1.84653 10.339C2.07609 11.1064 2.28713 11.8851 2.55742 12.6374C2.80179 13.322 3.35716 13.6944 4.03473 13.8073C5.11587 13.9841 6.20071 13.9615 7.26704 13.6719C7.89276 13.5026 8.40001 13.1791 8.74435 12.5923C9.09979 11.9866 9.39599 11.3547 9.59963 10.6851C9.75514 10.181 9.88843 9.66944 10.0328 9.16162C10.0958 8.93592 10.2735 8.90582 10.466 8.90206C10.6697 8.90206 10.8733 8.90582 10.9511 9.15409C11.0214 9.37979 11.0917 9.60926 11.1473 9.83872C11.3805 10.7678 11.6953 11.6594 12.1766 12.4907C12.5505 13.1415 13.0911 13.5139 13.7946 13.6944C14.7202 13.9314 15.657 13.9427 16.5974 13.8637C17.4971 13.7885 18.1932 13.3822 18.5005 12.4832C18.7523 11.7459 18.9485 10.986 19.1707 10.2412C19.1929 10.1622 19.2521 10.0945 19.2929 10.0193C19.3595 9.89514 19.478 9.77101 19.4817 9.64687C19.4891 9.15409 19.4743 8.66132 19.4447 8.1723C19.4187 7.77356 19.4039 7.75852 19.0152 7.68705ZM9.37007 9.50393C9.29973 10.1773 9.10719 10.8167 8.8295 11.4299C8.69992 11.712 8.54441 11.9829 8.3889 12.2537C8.07419 12.7991 7.60026 13.1114 6.99305 13.2543C5.99337 13.4838 4.99739 13.4574 4.00141 13.2468C3.62745 13.1678 3.34976 12.9496 3.16834 12.6073C2.56482 11.4675 2.44634 10.26 2.71292 9.00739C2.77587 8.71774 2.99432 8.56351 3.23498 8.43938C3.77555 8.16102 4.36425 8.07074 4.95666 8.00679C5.32321 7.96917 5.68976 7.96165 6.05631 7.93908C6.05261 7.95412 6.06001 7.92403 6.05631 7.93908C6.5317 7.93908 7.45957 8.0745 8.15194 8.18735C8.37039 8.22496 8.58884 8.32277 8.79248 8.42057C9.27751 8.65755 9.42561 8.95849 9.37007 9.50393ZM17.9414 12.3703C17.7082 12.8932 17.3416 13.2242 16.7677 13.2919C16.3827 13.3371 15.9939 13.3822 15.6088 13.4273C14.9498 13.4236 14.3018 13.3634 13.6724 13.1527C13.3133 13.0324 13.0134 12.8292 12.7875 12.5208C12.1136 11.5954 11.7212 10.5534 11.6175 9.40989C11.5694 8.87949 11.8137 8.54847 12.3062 8.34534C13.0393 8.0444 13.8094 7.96917 14.5869 7.9466C15.3793 7.92779 16.1753 7.94284 16.9417 8.15349C17.2972 8.2513 17.6489 8.398 17.9711 8.57856C18.2858 8.75536 18.3043 9.11648 18.3487 9.44374C18.4857 10.4594 18.3561 11.4337 17.9414 12.3703Z" fill="black"/>
</svg>
