<svg width="25" height="25" viewBox="0 0 25 25" fill="none" xmlns="http://www.w3.org/2000/svg">
<path d="M3.48259 20.9519L4.58728 5.80509C4.67833 4.55821 5.64646 3.59619 6.81049 3.59619H16.6406H18.1062H21.6536C21.7592 3.59619 21.8096 3.73512 21.7316 3.81201C21.7316 3.81201 20.4416 4.72773 19.8856 5.23451C19.8839 5.23539 19.8831 5.23714 19.8815 5.23801C19.7514 5.35946 19.7157 5.52635 19.9376 5.67227L20.1449 5.78674L21.5007 6.58187C21.578 6.62731 21.582 6.74614 21.5064 6.79594L20.57 7.42856C20.1449 7.79816 20.0847 7.88554 20.0847 8.46747L21.0333 21.3565C21.1187 22.5317 20.2546 23.5365 19.158 23.5365H5.70498C4.4052 23.5365 3.38098 22.3456 3.48259 20.9519Z" fill="#FFCC5A" stroke="black" stroke-width="0.64611" stroke-miterlimit="10"/>
<path d="M5.52874 21.707H12.2568V3.96191H6.65436C5.77344 3.96191 5.04089 4.63996 4.97253 5.51862L3.84691 19.8867C3.77001 20.868 4.5445 21.707 5.52874 21.707Z" fill="#FFCC5A"/>
<g clip-path="url(#clip0_368_110)">
<path d="M3.48259 20.9519L4.58728 5.80509C4.67833 4.55821 5.64646 3.59619 6.81049 3.59619H16.6406H18.1062H21.6536C21.7592 3.59619 21.8096 3.73512 21.7316 3.81201C21.7316 3.81201 20.4416 4.72773 19.8856 5.23451C19.8839 5.23539 19.8831 5.23714 19.8815 5.23801C19.7514 5.35946 19.7157 5.52635 19.9376 5.67227L20.1449 5.78674L21.5007 6.58187C21.578 6.62731 21.582 6.74614 21.5064 6.79594L20.57 7.42856C20.1449 7.79816 20.0847 7.88554 20.0847 8.46747L21.0333 21.3565C21.1187 22.5317 20.2546 23.5365 19.158 23.5365H5.70498C4.4052 23.5365 3.38098 22.3456 3.48259 20.9519Z" stroke="#FFCC5A" stroke-width="0.64611" stroke-miterlimit="10"/>
<path d="M14.2147 18.8813C12.9495 18.8813 11.3198 19.8464 9.69687 19.279C7.97726 18.6778 9.69689 21.3393 12.0654 21.3393C15.3551 21.3393 15.5744 18.8814 14.2147 18.8813Z" fill="white" stroke="black" stroke-width="0.438922"/>
<path d="M3.97323 11.2496L3.94692 11.0371H3.73277H3.14952V9.28965H21.3214V11.0371H20.7381H20.524L20.4977 11.2496L20.0405 14.9431H13.7759L13.0996 11.3031V11.2794C13.0996 11.0581 13.0014 10.852 12.837 10.7045C12.6734 10.5577 12.4567 10.4791 12.2354 10.4791C12.0142 10.4791 11.7975 10.5577 11.6339 10.7045C11.4695 10.852 11.3713 11.0581 11.3713 11.2794V11.3031L10.695 14.9431H4.43044L3.97323 11.2496Z" fill="#6376A8" stroke="black" stroke-width="0.484583"/>
</g>
<defs>
<clipPath id="clip0_368_110">
<rect width="21.1601" height="21.1601" fill="white" transform="translate(2.09961 2.8877)"/>
</clipPath>
</defs>
</svg>
