<svg width="19" height="19" viewBox="0 0 19 19" fill="none" xmlns="http://www.w3.org/2000/svg">
<path d="M18.0867 10.9125C18.1828 10.3852 18.2344 9.8461 18.2344 9.30703C18.2344 8.11172 18 6.95156 17.5383 5.86172C17.093 4.80703 16.4531 3.86016 15.6399 3.04688C14.8334 2.23833 13.8773 1.59435 12.825 1.15078C11.7328 0.689063 10.575 0.454687 9.3797 0.454687C8.8172 0.454687 8.25236 0.508594 7.70392 0.614062C6.94505 0.211929 6.09948 0.00113952 5.24064 0C3.84142 0 2.52423 0.546094 1.53517 1.53516C1.04711 2.02071 0.660149 2.59819 0.396648 3.23421C0.133147 3.87023 -0.00166165 4.55218 1.54577e-05 5.24063C1.54577e-05 6.13125 0.229703 7.00781 0.658609 7.78125C0.571891 8.28281 0.525015 8.79609 0.525015 9.30703C0.525015 10.5023 0.759391 11.6625 1.22111 12.7523C1.66642 13.807 2.30392 14.7539 3.1172 15.5672C3.93048 16.3805 4.87736 17.018 5.93205 17.4633C7.02423 17.925 8.18205 18.1594 9.37736 18.1594C9.89767 18.1594 10.418 18.1125 10.9289 18.0211C11.7141 18.4641 12.6 18.7008 13.507 18.7008C14.9063 18.7008 16.2235 18.157 17.2125 17.1656C18.2039 16.1766 18.7477 14.8594 18.7477 13.4602C18.75 12.5695 18.5203 11.6906 18.0867 10.9125ZM16.0219 15.975C15.3492 16.65 14.461 17.0156 13.5094 17.0156C12.8977 17.0156 12.2953 16.8563 11.761 16.5539L11.2336 16.2563L10.636 16.3617C10.2188 16.4367 9.79689 16.4742 9.3797 16.4742C8.40939 16.4742 7.47423 16.2844 6.5883 15.9094C5.73752 15.5508 4.97111 15.0352 4.31017 14.3742C3.65591 13.7222 3.13453 12.9493 2.77502 12.0984C2.40002 11.2148 2.21252 10.2797 2.21252 9.30938C2.21252 8.90156 2.25002 8.48438 2.32033 8.07188L2.42345 7.48359L2.13283 6.96094C1.8397 6.43492 1.68562 5.84281 1.68517 5.24063C1.68517 4.28906 2.05314 3.40078 2.7258 2.72813C3.4008 2.05547 4.28908 1.6875 5.24064 1.6875C5.82428 1.68908 6.39872 1.83309 6.91408 2.10703L7.43908 2.38359L8.02033 2.27109C8.4633 2.18672 8.92033 2.14219 9.3797 2.14219C10.35 2.14219 11.2852 2.33203 12.1688 2.70469C13.0242 3.06563 13.7883 3.58125 14.4469 4.23984C15.1078 4.89844 15.6235 5.66484 15.9844 6.51797C16.3594 7.40156 16.5469 8.33672 16.5469 9.30703C16.5469 9.73828 16.507 10.1742 16.4274 10.6078L16.3172 11.2055L16.6125 11.7352C16.9078 12.2625 17.0625 12.8602 17.0625 13.4625C17.0625 14.4164 16.6945 15.3023 16.0219 15.975ZM11.0485 8.27813L8.97658 7.81875C8.18908 7.63828 7.28205 7.40156 7.28205 6.65859C7.28205 5.91563 7.9172 5.39531 9.06564 5.39531C11.3789 5.39531 11.168 6.98438 12.3164 6.98438C12.9211 6.98438 13.4508 6.62813 13.4508 6.01875C13.4508 4.59375 11.168 3.52266 9.23205 3.52266C7.1297 3.52266 4.89142 4.41562 4.89142 6.79219C4.89142 7.93594 5.29923 9.15469 7.55392 9.71953L10.3524 10.418C11.1985 10.6266 11.4117 11.1023 11.4117 11.5336C11.4117 12.2484 10.7016 12.9469 9.41486 12.9469C6.90236 12.9469 7.25158 11.0133 5.90627 11.0133C5.30158 11.0133 4.8633 11.4305 4.8633 12.0234C4.8633 13.1813 6.26955 14.7281 9.41486 14.7281C12.4078 14.7281 13.8914 13.2867 13.8914 11.3531C13.8914 10.1086 13.3172 8.78438 11.0485 8.27813Z" fill="#FFCC5A"/>
</svg>
