<svg width="21" height="16" viewBox="0 0 21 16" fill="none" xmlns="http://www.w3.org/2000/svg">
<path d="M21 7.54922C21 7.49766 21 7.43906 20.9977 7.37109C20.9953 7.18125 20.9906 6.96797 20.9859 6.74063C20.9672 6.08672 20.9344 5.43516 20.8828 4.82109C20.8125 3.975 20.7094 3.26953 20.5687 2.73984C20.4204 2.18707 20.1295 1.68293 19.7252 1.2778C19.3209 0.872682 18.8173 0.580772 18.2648 0.43125C17.6016 0.253125 16.3031 0.142969 14.475 0.0749999C13.6055 0.0421874 12.675 0.0210936 11.7445 0.00937486C11.4187 0.00468736 11.1164 0.00234375 10.8445 0H10.1555C9.88359 0.00234375 9.58125 0.00468736 9.25547 0.00937486C8.325 0.0210936 7.39453 0.0421874 6.525 0.0749999C4.69687 0.145312 3.39609 0.255469 2.73516 0.43125C2.1825 0.580405 1.67876 0.872192 1.2744 1.27737C0.870044 1.68255 0.579282 2.18689 0.43125 2.73984C0.288281 3.26953 0.1875 3.975 0.117188 4.82109C0.065625 5.43516 0.0328125 6.08672 0.0140625 6.74063C0.00703121 6.96797 0.00468746 7.18125 0.00234371 7.37109C0.00234371 7.43906 0 7.49766 0 7.54922V7.68047C0 7.73203 -3.57977e-08 7.79063 0.00234371 7.85859C0.00468746 8.04844 0.00937496 8.26172 0.0140625 8.48906C0.0328125 9.14297 0.065625 9.79453 0.117188 10.4086C0.1875 11.2547 0.290625 11.9602 0.43125 12.4898C0.73125 13.6125 1.6125 14.4984 2.73516 14.7984C3.39609 14.9766 4.69687 15.0867 6.525 15.1547C7.39453 15.1875 8.325 15.2086 9.25547 15.2203C9.58125 15.225 9.88359 15.2273 10.1555 15.2297H10.8445C11.1164 15.2273 11.4187 15.225 11.7445 15.2203C12.675 15.2086 13.6055 15.1875 14.475 15.1547C16.3031 15.0844 17.6039 14.9742 18.2648 14.7984C19.3875 14.4984 20.2687 13.6148 20.5687 12.4898C20.7117 11.9602 20.8125 11.2547 20.8828 10.4086C20.9344 9.79453 20.9672 9.14297 20.9859 8.48906C20.993 8.26172 20.9953 8.04844 20.9977 7.85859C20.9977 7.79063 21 7.73203 21 7.68047V7.54922ZM19.3125 7.67109C19.3125 7.72031 19.3125 7.77422 19.3102 7.8375C19.3078 8.02031 19.3031 8.22188 19.2984 8.43984C19.282 9.06328 19.2492 9.68672 19.2 10.2656C19.1367 11.0203 19.0477 11.6391 18.9375 12.0539C18.7922 12.5953 18.3656 13.0242 17.8266 13.1672C17.3344 13.2984 16.0945 13.4039 14.4094 13.4672C13.5562 13.5 12.6375 13.5211 11.7211 13.5328C11.4 13.5375 11.1023 13.5398 10.8352 13.5398H10.1648L9.27891 13.5328C8.3625 13.5211 7.44609 13.5 6.59063 13.4672C4.90547 13.4016 3.66328 13.2984 3.17344 13.1672C2.63437 13.0219 2.20781 12.5953 2.0625 12.0539C1.95234 11.6391 1.86328 11.0203 1.8 10.2656C1.75078 9.68672 1.72031 9.06328 1.70156 8.43984C1.69453 8.22188 1.69219 8.01797 1.68984 7.8375C1.68984 7.77422 1.6875 7.71797 1.6875 7.67109V7.55859C1.6875 7.50938 1.6875 7.45547 1.68984 7.39219C1.69219 7.20937 1.69688 7.00781 1.70156 6.78984C1.71797 6.16641 1.75078 5.54297 1.8 4.96406C1.86328 4.20937 1.95234 3.59063 2.0625 3.17578C2.20781 2.63438 2.63437 2.20547 3.17344 2.0625C3.66562 1.93125 4.90547 1.82578 6.59063 1.7625C7.44375 1.72969 8.3625 1.70859 9.27891 1.69687C9.6 1.69219 9.89766 1.68984 10.1648 1.68984H10.8352L11.7211 1.69687C12.6375 1.70859 13.5539 1.72969 14.4094 1.7625C16.0945 1.82812 17.3367 1.93125 17.8266 2.0625C18.3656 2.20781 18.7922 2.63438 18.9375 3.17578C19.0477 3.59063 19.1367 4.20937 19.2 4.96406C19.2492 5.54297 19.2797 6.16641 19.2984 6.78984C19.3055 7.00781 19.3078 7.21172 19.3102 7.39219C19.3102 7.45547 19.3125 7.51172 19.3125 7.55859V7.67109ZM8.41406 10.7555L13.8516 7.59141L8.41406 4.47422V10.7555Z" fill="#FFCC5A"/>
</svg>
