<svg width="34" height="33" viewBox="0 0 34 33" fill="none" xmlns="http://www.w3.org/2000/svg">
<path d="M27.0765 9.1767L28.3283 26.8454C28.3283 26.8454 28.903 32.0001 16.925 32.0001C5.41762 32.0001 6.00704 27.1658 6.00704 27.1658L7.22235 12.2564L7.41084 9.02307C7.50929 7.33428 7.50928 6.62156 9.32365 6.6023C10.0494 6.59463 10.1331 6.60225 10.6635 6.60223L24.2283 6.62156C25.9042 6.62156 26.9599 7.73438 27.0765 9.1767Z" fill="#FFCC5A" stroke="black" stroke-width="0.649143" stroke-miterlimit="10"/>
<path d="M5.72656 6.59985H9.28127C9.16437 11.3398 7.29865 11.0543 7.29865 11.0543C7.29865 10.5221 7.23837 10.4422 6.81236 10.1042L5.874 9.52577C5.79824 9.48023 5.80232 9.37157 5.8797 9.33002L7.23837 8.60293L7.44608 8.49827C7.66846 8.36483 7.63262 8.21223 7.50229 8.10117C7.50066 8.10037 7.49985 8.09877 7.49822 8.09797C6.94106 7.63455 5.64837 6.79721 5.64837 6.79721C5.57017 6.72689 5.62067 6.59985 5.72656 6.59985Z" fill="#FFCC5A"/>
<path d="M10.2161 6.59985H5.72656C5.62067 6.59985 5.57017 6.72689 5.64837 6.79721C5.64837 6.79721 6.94106 7.63455 7.49822 8.09797C7.49984 8.09877 7.50066 8.10037 7.50229 8.10117C7.63262 8.21223 7.66846 8.36483 7.44608 8.49827L7.23837 8.60293L5.8797 9.33002C5.80232 9.37157 5.79824 9.48023 5.874 9.52577L6.81236 10.1042C7.23837 10.4422 7.29865 10.5221 7.29865 11.0543" stroke="black" stroke-width="0.649267" stroke-miterlimit="10"/>
<path d="M20.0157 25.761C18.4005 25.761 16.3199 27.0092 14.248 26.2753C12.0527 25.4977 14.2481 28.9403 17.2719 28.9403C21.4716 28.9403 21.7516 25.761 20.0157 25.761Z" fill="white" stroke="black" stroke-width="0.560346"/>
<path d="M2.1709 6.90991L2.84234 7.28026V13.3058H2.25312L2.1709 6.90991Z" fill="black" stroke="black" stroke-width="0.27665"/>
<path d="M2.53179 11.8499C1.19804 11.8499 1.32136 16.1986 1.32136 16.1986C1.32136 16.1986 1.22875 16.6314 2.53179 16.6314C3.83483 16.6314 3.74222 16.1986 3.74222 16.1986C3.74222 16.1986 3.86555 11.8499 2.53179 11.8499Z" fill="#F9C81E" stroke="black" stroke-width="0.645517"/>
<path d="M7.32144 11.7674V10.5068C7.32144 10.5068 1.95005 6.84821 1.03406 6.49164C0.118066 6.13508 17.9823 1 17.9823 1C17.9823 1 34.1273 6.85815 33.5893 7.17852C33.0512 7.49888 27.1168 10.5345 27.1168 10.5345L27.1999 11.7818C27.0369 11.7818 18.969 9.33176 7.32144 11.7674Z" fill="#3C3C3B" stroke="black" stroke-width="0.645517"/>
<path d="M7.32621 12.4231C7.32621 12.4231 7.31643 10.0218 7.60385 9.11885C8.02033 7.8105 13.6026 6.20628 17.7149 6.26809C21.4899 6.32483 26.4861 7.85689 26.9028 9.44581C27.1805 10.5046 27.2544 12.4749 27.2544 12.4749C27.2544 12.4749 19.4054 9.96 7.32621 12.4231Z" fill="#323232" stroke="black" stroke-width="0.645517"/>
<path d="M18.8684 19.2024C18.914 18.8215 18.8064 18.4381 18.5693 18.1365C18.3322 17.8349 17.985 17.6399 17.6041 17.5943C17.2232 17.5487 16.8398 17.6563 16.5383 17.8934C16.2367 18.1305 16.0416 18.4776 15.9961 18.8585" stroke="black" stroke-width="0.652164"/>
<circle cx="23.5069" cy="18.4835" r="4.73641" transform="rotate(6.82605 23.5069 18.4835)" fill="white" stroke="black" stroke-width="0.652164"/>
<circle cx="11.2853" cy="18.6581" r="4.73641" transform="rotate(6.82605 11.2853 18.6581)" fill="white" stroke="black" stroke-width="0.652164"/>
</svg>
