<svg width="1358" height="675" viewBox="0 0 1358 675" fill="none" xmlns="http://www.w3.org/2000/svg">
<path d="M0 104.277C0 86.6786 14.857 72.8235 32.3969 74.2609C134.13 82.5979 453.506 107.251 673.465 107.303C895.176 107.355 1222.49 82.5086 1325.64 74.207C1343.17 72.7969 1358 86.6432 1358 104.222V607.472C1358 623.121 1345.99 636.131 1330.38 637.298C1234.31 644.481 908.409 667.543 684.535 667.543C460.113 667.543 125.236 644.368 27.623 637.246C11.991 636.105 0 623.088 0 607.414V104.277Z" fill="#FEE05C"/>
<path fill-rule="evenodd" clip-rule="evenodd" d="M1091.53 323.793C1086.39 322.679 1082.57 324.368 1078.78 326.558C1070.43 331.384 1064.1 338.475 1058.12 345.751C1050.05 355.362 1040.96 364.074 1031.02 371.738C1024.86 376.583 1018.88 376.935 1014.17 373.037C1011.5 370.847 1010.25 368.1 1011.57 364.87C1012.55 361.979 1014.08 359.307 1016.08 357C1033.86 339.756 1045.48 318.725 1055.06 296.228C1059.28 285.916 1065.6 276.597 1073.62 268.868C1079.85 263.07 1088 259.767 1096.51 259.587C1101.6 259.346 1106.7 259.866 1112.32 260.07C1115.28 251.958 1118.45 243.754 1121.25 235.42C1130.53 207.781 1141.39 180.736 1152.58 153.747C1160.21 135.353 1167.32 116.735 1174.62 98.1918C1177.55 90.7671 1179.74 82.9525 1183.29 75.9176C1186.65 69.3351 1190.68 63.1152 1195.31 57.3557C1208.57 40.65 1224.16 25.8005 1239.23 10.7654C1242.88 7.15317 1247.08 4.14549 1251.67 1.85572C1259.82 -2.15365 1266.11 0.445015 1269.84 8.57511C1273.69 16.9903 1276.27 25.9287 1277.51 35.1C1280.29 52.9568 1281.41 71.0326 1280.87 89.0965C1280.44 101.622 1278.25 114.025 1274.37 125.942C1268.52 143.241 1263.79 160.931 1258.42 178.398C1256.25 185.451 1253.99 192.523 1251.19 199.335C1244.53 215.024 1238.68 231.038 1233.64 247.318C1229.77 260.311 1224.9 272.933 1220.54 285.741C1219.89 287.597 1219.56 289.62 1219.11 291.309C1224.92 294.001 1230.4 296.247 1235.59 299.013C1243.59 303.263 1248.44 310.15 1251.41 318.688C1256.48 333.241 1256.4 348.072 1254.68 363.125C1252.82 379.293 1252.32 395.479 1255.47 411.627C1256.66 417.641 1257.46 423.804 1255.18 429.892C1252.45 437.131 1247.12 438.449 1241.5 433.011C1240.18 431.731 1239.14 430.196 1238.43 428.5C1236.82 424.727 1235.53 420.828 1234.55 416.843C1232.57 407.562 1230.95 398.281 1229.28 389.001C1227.52 378.867 1224.27 369.047 1219.65 359.858C1215.94 352.619 1209.76 349.297 1201.42 347.905C1200.62 350.243 1199.86 352.285 1199.25 354.364C1195.09 368.564 1190.99 382.764 1186.85 396.945C1186.2 399.117 1185.36 401.214 1184.66 403.367C1183.3 407.451 1181.76 411.293 1175.81 409.437C1175.12 413.595 1174.49 417.196 1173.95 420.816C1172.5 430.561 1171.17 440.324 1169.64 450.051C1166.52 469.949 1163.29 489.81 1160.14 509.69C1156.98 529.57 1153.7 549.431 1150.69 569.329C1149.71 575.807 1149.56 582.415 1148.84 588.949C1147.48 600.365 1146 611.761 1144.45 623.159C1142.91 634.555 1141.39 645.971 1139.52 657.312C1138.63 662.695 1136.94 667.93 1135.69 672.886C1132.35 673.183 1129.55 673.387 1126.75 673.702C1112.79 675.262 1098.9 674.408 1084.93 673.146C1066.74 671.512 1048.55 669.879 1030.35 668.06C1009.08 665.83 987.995 662.108 967.245 656.923C958.056 654.677 948.85 652.56 939.699 650.222C936.905 649.563 934.218 648.513 931.717 647.103C927.077 644.338 926.056 640.755 927.801 635.502C932.051 622.75 938.938 611.223 945.212 599.474C953.602 583.931 962.165 568.463 970.901 553.069C976.284 543.621 982.298 534.507 987.885 525.226C998.651 507.24 1009.23 489.179 1020.02 471.192C1022.34 467.332 1025.23 463.768 1027.68 460.055C1033.25 451.424 1038.69 442.737 1044.16 434.069C1048.12 427.813 1051.96 421.484 1056.06 415.321C1061.97 406.43 1068.24 397.762 1073.99 388.778C1077.15 383.822 1080.12 378.55 1077.87 372.072C1077.54 371.107 1078.3 369.733 1078.65 368.582C1082.37 356.202 1086.21 343.84 1089.9 331.459C1090.66 329.213 1090.98 326.577 1091.53 323.793ZM967.17 651.966C984.637 659.688 1075 670.9 1083.81 667.169C1085.21 661.247 1086.93 655.141 1088.08 648.904C1092.91 622.639 1097.36 596.318 1102.34 570.09C1105.18 555.241 1108.82 540.391 1111.97 525.542C1114.53 513.495 1116.59 501.411 1119.4 489.365C1123.81 471.007 1128.81 452.798 1133.48 434.496C1135.25 427.554 1136.97 420.574 1138.37 413.539C1138.76 411.553 1141.34 408.342 1137.38 407.414C1134.1 406.634 1134.6 410.254 1133.67 412.073C1130.33 419.312 1128.7 427.349 1123.41 433.679C1120.49 437.15 1115.98 438.969 1112.58 437.892C1109.89 437.076 1107.67 433.122 1107.91 428.612C1108.17 424.519 1108.68 420.446 1109.45 416.416C1110.41 410.848 1111.64 405.279 1112.77 399.711L1101.84 395.906C1099.98 398.894 1098.31 401.623 1096.73 404.444C1094.88 407.674 1093.32 411.015 1091.46 414.208C1086.58 422.542 1081.42 430.709 1076.7 439.136C1064.14 461.522 1051.74 484 1039.28 506.441C1038.69 507.518 1038.11 508.613 1037.59 509.727C1026.64 532.966 1014.06 555.333 1001.53 577.738C996.786 585.679 992.79 594.043 989.593 602.722C985.399 614.944 980.08 626.75 973.704 637.989C971.421 642.24 969.509 647.029 967.207 651.966H967.17ZM1191.34 70.7574C1190.02 72.7302 1188.83 74.7889 1187.78 76.9199C1177.35 102.362 1167.01 127.866 1156.76 153.432C1150.69 168.448 1144.44 183.409 1138.64 198.556C1134.32 209.841 1130.57 221.368 1126.62 232.802C1119.9 252.2 1113.03 271.522 1106.63 291.012C1101.89 305.435 1097.85 320.08 1093.39 334.577C1091.02 342.336 1090.92 344.081 1097.81 348.591C1105.47 353.622 1113.9 357.538 1122.05 361.845C1123.12 362.145 1124.23 362.271 1125.34 362.216C1126.88 358.503 1128.44 354.958 1129.85 351.357C1133.26 342.559 1136.44 333.649 1140.02 324.925C1144.16 314.864 1148.58 304.934 1153.01 294.966C1154.55 291.314 1157.45 288.409 1161.1 286.873C1167.23 284.274 1170.76 286.446 1171.02 292.999C1171.12 294.634 1170.97 296.276 1170.55 297.862C1163.78 320.247 1156.98 342.621 1150.13 364.981C1149.5 367.042 1148.97 369.121 1148.28 371.367C1150.11 372.33 1152.06 373.071 1154.07 373.576C1163.22 374.429 1172.39 375.432 1181.58 375.599C1188.61 375.692 1188.82 375.023 1190.77 368.434C1193.12 360.341 1195.28 352.211 1197.63 344.118C1199.66 337.25 1201.79 330.401 1203.96 323.57C1206.4 315.96 1208.96 308.368 1211.39 300.757C1216.14 286.131 1220.84 271.485 1225.66 256.877C1228.17 249.285 1230.9 241.768 1233.44 234.176C1234.22 231.856 1234.46 229.313 1235.3 227.067C1238.64 218.9 1242.28 210.881 1245.62 202.714C1248.09 196.644 1250.55 190.519 1252.5 184.245C1259.15 162.88 1265.63 141.46 1272.09 120.021C1274.1 112.835 1275.28 105.443 1275.61 97.9876C1260.43 97.1895 1245.73 96.5769 1231.55 91.5838C1217.37 86.5906 1204.69 78.8689 1191.34 70.7574ZM1087.21 668.932C1099.14 670.798 1111.28 670.917 1123.24 669.285C1128.55 668.487 1131.33 665.851 1132.52 660.988C1133.78 655.586 1134.82 650.147 1136.1 644.764C1141.17 624.866 1144.28 604.517 1145.38 584.012C1145.6 578.883 1146.1 573.77 1146.89 568.698C1149.24 553.273 1151.84 537.885 1154.31 522.46C1158.35 496.895 1162.34 471.329 1166.28 445.763C1167.69 436.649 1169.12 427.535 1170.42 418.403C1170.78 415.86 1170.7 413.261 1170.83 410.477L1143.9 409.623C1141.06 419.925 1138.01 429.929 1135.54 440.083C1129.98 463.211 1122.96 486.005 1118.84 509.523C1116.43 523.259 1112.7 536.753 1109.93 550.359C1103.14 583.622 1096.52 616.878 1090.09 650.129C1088.92 656.124 1088.23 662.194 1087.21 668.932ZM1083.83 380.908C1083.01 381.928 1082.44 382.504 1081.98 383.172C1077.35 390.597 1072.9 398.319 1068.11 405.706C1055.38 425.345 1042.33 444.797 1029.71 464.51C1021.52 477.318 1013.8 490.497 1005.95 503.49C993.194 524.595 980.331 545.607 967.876 566.86C957.091 585.311 946.697 603.984 936.32 622.713C934.282 626.724 932.784 630.987 931.866 635.391C930.473 641.293 932.125 643.799 937.954 645.414C944.692 647.27 951.467 648.997 958.242 650.63C962.456 651.669 962.994 651.205 964.85 647.326C967.226 642.333 969.732 637.395 972.275 632.477C975.987 625.367 979.7 618.332 983.245 611.13C988.275 600.791 992.878 590.23 998.094 579.984C1007.21 562.034 1016.66 544.252 1025.94 526.377C1030.67 517.263 1035.11 508.001 1040.01 498.98C1047.17 485.801 1054.56 472.752 1061.97 459.703C1073.54 439.359 1085.16 419.04 1096.84 398.746C1097.72 397.205 1098.7 395.738 1099.72 394.161L1083.83 380.908ZM1275.78 92.3077C1276.06 91.3408 1276.26 90.3542 1276.39 89.3564C1276.6 69.6251 1275.98 49.8938 1272.1 30.5152C1270.49 23.5219 1268.04 16.7478 1264.81 10.3385C1262.04 4.41725 1257 3.41491 1251.46 6.97879C1247.95 9.12601 1244.65 11.6128 1241.63 14.4035C1226.09 29.253 1210.79 44.5294 1197.5 61.5878C1196.45 62.9614 1195.65 64.5206 1194.35 66.451C1219.11 84.1219 1245.56 93.7926 1275.78 92.3077ZM1110.58 265.379C1109.53 264.629 1108.38 264.024 1107.16 263.578C1096.03 262.167 1085.47 263.949 1076.63 271.578C1067.35 279.56 1061.5 289.917 1056.84 300.962C1048.32 321.213 1037.61 339.942 1022.04 355.719C1019.83 357.877 1017.87 360.281 1016.21 362.884C1013.72 366.875 1016.21 371.144 1020.85 370.717C1023.69 370.348 1026.4 369.346 1028.8 367.784C1031.97 365.886 1034.88 363.598 1037.48 360.972C1046.15 351.97 1054.47 342.633 1063.21 333.686C1071.3 325.37 1079.92 317.612 1093.35 319.022C1099.12 301.153 1104.87 283.291 1110.62 265.434L1110.58 265.379ZM1217.38 297.509C1208.86 316.294 1202.63 337.139 1203.35 343.728C1206.93 344.387 1210.45 345.331 1213.88 346.55C1219.05 348.796 1221.6 353.752 1224.1 358.448C1230.1 369.585 1232.25 381.966 1234.48 394.309C1236.34 404.574 1238.92 414.727 1241.42 424.844C1242.33 428.556 1245.78 431.656 1247.94 431.526C1250.09 431.396 1252.04 428.333 1251.98 423.433C1251.83 419.137 1251.38 414.858 1250.63 410.625C1247.81 392.193 1249.16 373.817 1250.98 355.422C1252.3 342.15 1251.24 329.12 1245.6 316.888C1240.16 305.008 1229.82 299.959 1217.42 297.509H1217.38ZM1165.26 290.084C1161.25 290.251 1158.71 292.887 1156.8 296.117C1155.01 299.093 1153.43 302.195 1152.08 305.398C1148.89 313.194 1145.9 321.064 1142.8 328.916C1137.9 341.538 1132.69 354.049 1128.21 366.819C1123.54 380.184 1119.28 393.697 1115.44 407.358C1113.82 414.142 1112.73 421.044 1112.19 427.999C1112.18 428.889 1112.39 429.768 1112.81 430.553C1113.23 431.339 1113.84 432.005 1114.59 432.491C1115.44 432.664 1116.33 432.633 1117.17 432.4C1118.01 432.168 1118.79 431.741 1119.43 431.155C1121.68 429.063 1123.47 426.537 1124.7 423.73C1130.89 407.012 1136.92 390.207 1142.78 373.316C1147.8 358.788 1152.61 344.174 1157.23 329.473C1160.68 318.521 1163.72 307.44 1166.93 296.414C1167.55 294.057 1167.81 291.848 1165.3 290.047L1165.26 290.084ZM1122.77 368.36L1089.07 349.241C1086.95 356.257 1084.8 363.218 1082.83 370.234C1082.75 370.729 1082.77 371.236 1082.89 371.722C1083.02 372.208 1083.24 372.662 1083.55 373.056C1091.61 383.154 1100.96 391.451 1114.74 394.718C1118.07 386.127 1120.77 377.305 1122.81 368.323L1122.77 368.36ZM1145.85 377.158L1137.55 401.734C1150.05 406.719 1163.79 407.692 1176.86 404.518C1177.71 404.225 1178.49 403.756 1179.15 403.142C1179.8 402.528 1180.32 401.783 1180.67 400.954C1182.84 394.848 1184.57 388.574 1186.59 381.854L1145.85 377.158Z" fill="black"/>
<path fill-rule="evenodd" clip-rule="evenodd" d="M1137.49 407.414C1134.21 406.634 1134.71 410.254 1133.78 412.073C1130.44 419.312 1128.81 427.349 1123.52 433.679C1120.6 437.15 1116.09 438.969 1112.69 437.892C1110 437.076 1107.78 433.122 1108.02 428.612C1108.28 424.519 1108.79 420.446 1109.56 416.416C1110.52 410.848 1111.75 405.279 1112.88 399.711L1101.95 395.906C1100.09 398.894 1098.42 401.623 1096.84 404.444C1094.99 407.674 1093.43 411.015 1091.57 414.208C1086.69 422.542 1081.53 430.709 1076.81 439.136C1064.25 461.522 1051.85 484 1039.39 506.441C1038.8 507.518 1038.22 508.613 1037.7 509.727C1026.75 532.966 1014.17 555.333 1001.64 577.738C996.896 585.679 992.9 594.043 989.703 602.722C985.509 614.944 980.19 626.75 973.814 637.989C971.345 642.426 969.434 647.178 967.132 652.115C973.164 654.788 987.958 657.888 1005.07 660.635C1005.18 660.115 1005.31 659.595 1005.42 659.076C1007.53 650.98 1010.25 643.056 1013.56 635.372C1013.98 634.277 1015.76 634.815 1015.32 635.929C1011.94 644.014 1009.14 652.325 1006.93 660.802C1022.63 663.271 1040.06 665.424 1054.41 666.705C1055.67 661.364 1056.16 655.868 1055.84 650.389C1055.84 649.201 1057.7 649.294 1057.7 650.482C1058.02 655.985 1057.54 661.507 1056.27 666.872C1070.26 668.06 1081.03 668.357 1083.77 667.187C1085.17 661.266 1086.89 655.159 1088.04 648.922C1092.87 622.657 1097.32 596.337 1102.3 570.109C1105.14 555.259 1108.78 540.41 1111.93 525.56C1114.49 513.514 1116.55 501.43 1119.36 489.383C1123.78 471.025 1128.77 452.816 1133.45 434.514C1135.21 427.572 1136.94 420.593 1138.33 413.558C1138.87 411.553 1141.45 408.361 1137.49 407.414Z" fill="#FFD96C"/>
<path fill-rule="evenodd" clip-rule="evenodd" d="M1191.34 70.7574C1204.69 78.8689 1217.44 86.5907 1231.66 91.5838C1245.88 96.5769 1260.54 97.1524 1275.72 97.9876C1275.4 105.443 1274.21 112.835 1272.2 120.021C1265.74 141.46 1259.2 162.88 1252.62 184.245C1250.67 190.519 1248.2 196.644 1245.73 202.714C1242.39 210.881 1238.75 218.9 1235.41 227.067C1234.48 229.313 1234.24 231.856 1233.55 234.176C1231.01 241.768 1228.28 249.285 1225.77 256.877C1220.95 271.485 1216.25 286.131 1211.5 300.757C1209.03 308.368 1206.47 315.96 1204.08 323.57C1201.9 330.401 1199.77 337.25 1197.75 344.118C1195.39 352.211 1193.24 360.341 1190.88 368.434C1189.02 375.023 1188.73 375.692 1181.69 375.599C1172.5 375.487 1163.33 374.429 1154.18 373.576C1152.17 373.072 1150.23 372.33 1148.39 371.367C1149 369.121 1149.54 367.042 1150.25 364.982C1157.08 342.621 1163.88 320.247 1170.66 297.862C1171.08 296.276 1171.24 294.634 1171.13 292.999C1170.87 286.446 1167.42 284.275 1161.22 286.873C1157.56 288.409 1154.66 291.314 1153.12 294.966C1148.74 304.934 1144.33 314.864 1140.13 324.925C1136.55 333.649 1133.37 342.559 1129.96 351.357C1128.55 354.958 1126.99 358.503 1125.45 362.216C1124.34 362.271 1123.23 362.145 1122.16 361.845C1114.01 357.538 1105.59 353.622 1097.92 348.591C1091.03 344.081 1091.13 342.336 1093.5 334.577C1097.96 320.08 1102 305.435 1106.74 291.012C1113.14 271.523 1120.01 252.2 1126.73 232.802C1130.68 221.368 1134.43 209.841 1138.76 198.556C1144.55 183.409 1150.8 168.448 1156.87 153.432C1167.19 127.928 1177.53 102.424 1187.89 76.9199C1188.9 74.792 1190.06 72.7333 1191.34 70.7574ZM1216.31 183.985C1232.22 181.368 1241.42 173.219 1245.88 157.998C1249.35 146.174 1249.76 133.868 1240.31 123.863C1233.35 116.327 1224.98 111.556 1214.32 111.835C1210.83 111.835 1207.36 112.225 1203.89 112.447C1193.94 113.06 1182.04 122.508 1179.28 132.123C1176.69 140.594 1176.4 149.601 1178.44 158.221C1182.86 175.855 1198.64 186.788 1216.31 184.022V183.985ZM1186.98 259.699C1190.24 258.575 1193.42 257.261 1196.52 255.763C1212.11 247.188 1215.53 227.178 1212.22 213.22C1211.17 209.057 1209.27 205.153 1206.66 201.748C1197.8 190.222 1177.63 184.82 1162.81 197.424C1158.08 201.451 1153.14 205.387 1151.68 211.698C1149.61 219.898 1149.76 228.501 1152.1 236.626C1156.89 252.645 1170.59 261.555 1186.98 259.699Z" fill="#C5C5C8"/>
<path fill-rule="evenodd" clip-rule="evenodd" d="M1087.21 668.932C1088.23 662.194 1088.92 656.124 1090.09 650.129C1096.58 616.878 1103.16 583.646 1109.8 550.433C1112.57 536.753 1116.3 523.259 1118.71 509.597C1122.85 486.079 1129.85 463.285 1135.42 440.157C1137.88 430.004 1140.98 419.999 1143.77 409.697L1170.7 410.551C1170.57 413.335 1170.7 415.934 1170.29 418.477C1168.99 427.609 1167.57 436.723 1166.15 445.837C1162.18 471.415 1158.19 496.981 1154.18 522.535C1151.75 537.96 1149.15 553.347 1146.76 568.772C1145.97 573.844 1145.47 578.957 1145.25 584.086C1144.15 604.592 1141.05 624.94 1135.97 644.839C1134.69 650.222 1133.65 655.66 1132.39 661.062C1131.26 665.925 1128.47 668.487 1123.11 669.359C1111.19 670.954 1099.09 670.81 1087.21 668.932Z" fill="#FA8C65"/>
<path fill-rule="evenodd" clip-rule="evenodd" d="M1083.83 380.908L1099.81 394.086C1098.81 395.664 1097.81 397.131 1096.94 398.671C1085.29 418.978 1073.67 439.297 1062.06 459.628C1054.63 472.622 1047.21 485.726 1040.1 498.905C1035.2 507.926 1030.82 517.189 1026.03 526.303C1016.75 544.178 1007.28 561.96 998.187 579.909C992.989 590.156 988.386 600.717 983.337 611.056C979.829 618.258 976.005 625.293 972.367 632.402C969.843 637.34 967.337 642.277 964.943 647.252C963.086 651.131 962.548 651.595 958.335 650.556C951.559 648.922 944.784 647.215 938.046 645.34C932.218 643.725 930.622 641.219 931.958 635.316C932.877 630.912 934.375 626.649 936.413 622.639C946.715 603.928 957.109 585.237 967.968 566.786C980.423 545.533 993.286 524.521 1006.04 503.416C1013.89 490.423 1021.61 477.299 1029.8 464.436C1042.42 444.723 1055.47 425.27 1068.2 405.632C1072.99 398.207 1077.48 390.615 1082.07 383.098C1082.44 382.504 1083.03 381.928 1083.83 380.908Z" fill="#FA8C65"/>
<path fill-rule="evenodd" clip-rule="evenodd" d="M1275.78 92.3077C1245.56 93.7927 1219.11 84.1219 1194.35 66.3211C1195.59 64.4649 1196.45 62.8315 1197.5 61.4579C1210.79 44.3995 1226.09 29.2159 1241.63 14.2736C1244.65 11.4829 1247.95 8.9961 1251.46 6.84888C1257.03 3.285 1262.04 4.28734 1264.81 10.2086C1268.04 16.6179 1270.49 23.392 1272.1 30.3853C1275.98 49.7639 1276.6 69.4952 1276.39 89.2264C1276.27 90.268 1276.06 91.2983 1275.78 92.3077Z" fill="#E5652E"/>
<path fill-rule="evenodd" clip-rule="evenodd" d="M1110.62 265.434C1104.86 283.34 1099.11 301.221 1093.37 319.078C1079.86 317.667 1071.32 325.426 1063.23 333.742C1054.49 342.689 1046.17 352.025 1037.5 361.028C1034.9 363.653 1031.98 365.942 1028.81 367.84C1026.42 369.401 1023.7 370.404 1020.87 370.773C1016.21 371.2 1013.74 366.931 1016.23 362.94C1017.89 360.35 1019.85 357.958 1022.06 355.812C1037.63 340.072 1048.34 321.305 1056.86 301.054C1061.52 290.01 1067.39 279.653 1076.65 271.671C1085.48 264.042 1095.95 262.26 1107.18 263.671C1108.4 264.104 1109.56 264.697 1110.62 265.434Z" fill="#E5652E"/>
<path fill-rule="evenodd" clip-rule="evenodd" d="M1217.42 297.509C1229.82 299.959 1240.16 304.934 1245.64 316.888C1251.2 329.12 1252.34 342.15 1251.02 355.422C1249.16 373.817 1247.84 392.193 1250.67 410.625C1251.41 414.858 1251.87 419.137 1252.02 423.433C1252.02 428.333 1250.17 431.377 1247.97 431.526C1245.78 431.674 1242.41 428.574 1241.46 424.844C1238.95 414.709 1236.37 404.574 1234.52 394.309C1232.29 381.966 1230.14 369.641 1224.14 358.448C1221.64 353.752 1219.09 348.796 1213.91 346.55C1210.49 345.331 1206.97 344.388 1203.39 343.728C1202.67 337.139 1208.9 316.294 1217.42 297.509Z" fill="#E5652E"/>
<path fill-rule="evenodd" clip-rule="evenodd" d="M1165.3 290.047C1167.81 291.903 1167.55 294.057 1166.9 296.321C1163.68 307.347 1160.64 318.428 1157.19 329.38C1152.56 344.068 1147.75 358.683 1142.75 373.223C1136.92 390.114 1130.89 406.919 1124.67 423.637C1123.43 426.444 1121.64 428.97 1119.4 431.062C1118.76 431.659 1118 432.1 1117.16 432.348C1116.33 432.596 1115.45 432.645 1114.59 432.491C1113.88 431.997 1113.3 431.336 1112.9 430.565C1112.51 429.795 1112.31 428.939 1112.32 428.073C1112.86 421.118 1113.95 414.216 1115.57 407.432C1119.4 393.82 1123.65 380.307 1128.34 366.893C1132.82 354.123 1138.03 341.612 1142.93 328.99C1145.98 321.138 1148.97 313.268 1152.21 305.472C1153.56 302.269 1155.14 299.167 1156.93 296.191C1158.75 292.85 1161.29 290.214 1165.3 290.047Z" fill="#E5652E"/>
<path fill-rule="evenodd" clip-rule="evenodd" d="M1122.81 368.323C1120.78 377.292 1118.09 386.101 1114.78 394.681C1101 391.414 1091.65 383.117 1083.59 373.019C1083.28 372.625 1083.06 372.17 1082.93 371.685C1082.81 371.199 1082.78 370.692 1082.87 370.197C1084.83 363.181 1086.99 356.22 1089.1 349.204L1122.81 368.323ZM1106.26 376.805C1108.54 376.49 1108.95 374.541 1108.63 372.332C1108.28 369.826 1104.25 367.673 1101.21 368.36C1100.69 368.417 1100.2 368.591 1099.76 368.868C1099.33 369.145 1098.96 369.518 1098.69 369.959C1098.42 370.399 1098.25 370.895 1098.2 371.409C1098.15 371.923 1098.22 372.442 1098.4 372.926C1099.05 375.525 1102.49 377.399 1106.26 376.805Z" fill="#F6F5F2"/>
<path fill-rule="evenodd" clip-rule="evenodd" d="M1145.88 377.121L1186.63 381.817C1184.6 388.536 1182.91 394.81 1180.71 400.917C1180.36 401.745 1179.84 402.491 1179.18 403.105C1178.53 403.719 1177.75 404.188 1176.9 404.481C1163.82 407.655 1150.09 406.682 1137.59 401.697L1145.88 377.121ZM1166.17 386.216C1163 386.643 1160.88 388.833 1161.25 391.358C1161.62 393.882 1166.26 396.704 1169.55 396.369C1170.87 396.207 1172.06 395.53 1172.88 394.486C1173.7 393.442 1174.07 392.117 1173.91 390.801C1173.45 387.942 1169.68 385.771 1166.17 386.216Z" fill="#F6F5F2"/>
<path fill-rule="evenodd" clip-rule="evenodd" d="M1216.31 184.022C1198.63 186.788 1182.89 175.855 1178.57 158.258C1176.53 149.638 1176.82 140.632 1179.4 132.16C1182.17 122.545 1194.07 113.097 1204.02 112.484C1207.49 112.262 1210.96 111.965 1214.45 111.872C1225.05 111.593 1233.42 116.364 1240.44 123.9C1249.81 133.998 1249.4 146.174 1246 158.035C1241.42 173.256 1232.21 181.405 1216.31 184.022ZM1207.4 116.772C1207.41 116.945 1207.41 117.119 1207.4 117.292C1205.99 117.496 1204.54 117.626 1203.13 117.886C1193.99 119.575 1187.13 124.624 1183.8 133.181C1181.9 137.97 1181.02 143.107 1181.22 148.259C1181.42 153.41 1182.71 158.461 1184.99 163.084C1186.89 166.981 1189.62 170.42 1192.97 173.163C1196.33 175.906 1200.25 177.888 1204.44 178.973C1214.84 182.036 1230.84 177.006 1237.15 166.945C1240.55 161.354 1242.72 155.102 1243.52 148.606C1245.54 135.186 1235.89 121.283 1222.64 117.737C1217.79 116.457 1212.48 117.032 1207.4 116.772Z" fill="black"/>
<path fill-rule="evenodd" clip-rule="evenodd" d="M1186.98 259.699C1170.53 261.555 1156.84 252.645 1152.12 236.626C1149.77 228.501 1149.63 219.898 1151.69 211.698C1153.22 205.387 1158.15 201.451 1162.83 197.424C1177.68 184.82 1197.82 190.222 1206.67 201.748C1209.29 205.153 1211.19 209.057 1212.24 213.22C1215.55 227.178 1212.13 247.188 1196.54 255.764C1193.43 257.261 1190.24 258.575 1186.98 259.699ZM1179.17 195.623C1178.48 195.637 1177.8 195.686 1177.12 195.772C1166.88 197.628 1159.03 203.196 1155.63 213.053C1153.19 220.582 1153.47 228.727 1156.43 236.069C1163 253.889 1183.16 260.2 1198.17 248.859C1204.65 243.995 1207.45 237.035 1208.83 229.35C1212.74 207.503 1195.04 192.226 1179.22 195.623H1179.17Z" fill="black"/>
<path fill-rule="evenodd" clip-rule="evenodd" d="M1106.25 376.805C1102.54 377.437 1099.05 375.562 1098.5 372.926C1098.31 372.442 1098.25 371.923 1098.3 371.409C1098.35 370.895 1098.51 370.399 1098.78 369.959C1099.05 369.518 1099.42 369.145 1099.86 368.868C1100.29 368.591 1100.79 368.417 1101.3 368.36C1104.25 367.673 1108.28 369.826 1108.72 372.332C1109.02 374.504 1108.54 376.453 1106.25 376.805Z" fill="#C5C5C8"/>
<path fill-rule="evenodd" clip-rule="evenodd" d="M1166.17 386.216C1169.68 385.771 1173.45 387.961 1173.91 390.708C1174.07 392.025 1173.7 393.35 1172.88 394.393C1172.06 395.437 1170.87 396.114 1169.55 396.277C1166.27 396.611 1161.61 393.789 1161.25 391.265C1160.9 388.741 1163 386.643 1166.17 386.216Z" fill="#C5C5C8"/>
<path fill-rule="evenodd" clip-rule="evenodd" d="M1207.4 116.772C1212.48 117.032 1217.79 116.457 1222.6 117.737C1235.85 121.283 1245.5 135.186 1243.48 148.606C1242.68 155.103 1240.5 161.355 1237.1 166.945C1230.78 177.005 1214.82 182.036 1204.39 178.973C1200.19 177.888 1196.28 175.906 1192.92 173.163C1189.56 170.42 1186.84 166.981 1184.94 163.084C1182.65 158.461 1181.37 153.41 1181.16 148.259C1180.96 143.107 1181.84 137.97 1183.75 133.181C1187.07 124.624 1193.94 119.575 1203.07 117.886C1204.48 117.626 1205.93 117.496 1207.34 117.292C1207.37 117.12 1207.39 116.946 1207.4 116.772ZM1189.22 152.04C1189.56 154.438 1190.25 156.776 1191.25 158.982C1193.1 162.286 1195.24 166.073 1198.3 167.929C1209.79 174.908 1228.35 169.785 1231.92 154.453C1234.11 144.968 1232.51 136.578 1224.86 129.821C1216.73 122.675 1207.88 123.677 1198.88 127.427C1189.63 131.362 1187.93 142.926 1189.22 152.04Z" fill="#F6F5F2"/>
<path fill-rule="evenodd" clip-rule="evenodd" d="M1179.22 195.623C1195.04 192.226 1212.75 207.503 1208.92 229.35C1207.55 237.035 1204.74 243.995 1198.27 248.858C1183.25 260.125 1163.09 253.889 1156.52 236.069C1153.57 228.727 1153.29 220.582 1155.72 213.053C1159.12 203.289 1166.97 197.72 1177.22 195.771C1177.88 195.687 1178.55 195.638 1179.22 195.623ZM1199.47 223.002C1198.38 219.114 1197.08 215.285 1195.59 211.531C1191.42 202.454 1183.53 200.393 1174.4 204.366C1163.26 209.266 1157.02 227.234 1169.33 239.113C1179 248.394 1194.05 244.849 1197.47 233.434C1198.34 229.998 1199.01 226.515 1199.47 223.002Z" fill="#F6F5F2"/>
<path fill-rule="evenodd" clip-rule="evenodd" d="M1189.23 152.04C1187.93 142.759 1189.63 131.362 1198.95 127.427C1207.88 123.714 1216.73 122.675 1224.94 129.821C1232.59 136.578 1234.22 144.968 1231.99 154.453C1228.43 169.878 1209.87 174.871 1198.38 167.929C1195.31 166.073 1193.18 162.36 1191.32 158.982C1190.3 156.78 1189.59 154.442 1189.23 152.04ZM1211.36 156.043C1206.66 146.613 1222.79 159.762 1211.2 152.04C1210.39 154.137 1200.7 147.632 1201.5 149.043C1205.38 155.985 1206.86 147.752 1211.2 154.453C1211.96 155.567 1210.15 148.55 1211.36 156.043ZM1205.5 141.543C1209.21 151.306 1209.91 140.022 1216 149.043C1219.34 144.736 1220.37 148.624 1218.5 145.358C1217.27 143.26 1223.27 147.566 1222.25 145.358C1220.39 141.293 1211.49 149.348 1209.5 145.358C1208.57 143.957 1206.74 142.682 1205.5 141.543Z" fill="black"/>
<path fill-rule="evenodd" clip-rule="evenodd" d="M1199.47 223.002C1199 226.515 1198.34 229.998 1197.47 233.434C1194.05 244.849 1179 248.432 1169.33 239.113C1157.02 227.234 1163.35 209.266 1174.4 204.366C1183.53 200.301 1191.42 202.509 1195.59 211.531C1197.08 215.285 1198.38 219.114 1199.47 223.002ZM1189.1 235.995C1191.73 233.972 1193.5 232.617 1192.47 230.259C1189.43 223.317 1186.27 216.412 1182.86 209.637C1182.45 209.028 1181.9 208.527 1181.25 208.178C1180.6 207.829 1179.88 207.642 1179.15 207.633C1177.05 208.134 1177.55 210.268 1178.22 211.772C1181.6 219.642 1185.12 227.42 1189.1 236.051V235.995ZM1170.79 215.317L1169.18 215.466C1168.86 217.322 1167.81 219.419 1168.4 220.867C1170.66 226.119 1173.18 231.255 1175.95 236.255C1176.96 238.111 1178.74 239.132 1181.52 237.703C1177.88 230.167 1174.34 222.742 1170.79 215.317Z" fill="black"/>
<path fill-rule="evenodd" clip-rule="evenodd" d="M1189.1 236.051C1185.18 227.42 1181.67 219.642 1178.13 211.92C1177.46 210.417 1176.96 208.208 1179.05 207.781C1179.79 207.791 1180.51 207.978 1181.16 208.327C1181.8 208.676 1182.35 209.177 1182.77 209.786C1186.18 216.561 1189.34 223.466 1192.38 230.408C1193.49 232.673 1191.73 234.028 1189.1 236.051Z" fill="white"/>
<path fill-rule="evenodd" clip-rule="evenodd" d="M1170.79 215.317C1174.34 222.742 1177.88 230.055 1181.58 237.703C1178.74 239.132 1176.96 238.093 1176.01 236.255C1173.22 231.262 1170.69 226.132 1168.42 220.886C1167.82 219.438 1168.88 217.303 1169.2 215.484L1170.79 215.317Z" fill="white"/>
<path fill-rule="evenodd" clip-rule="evenodd" d="M1073.88 301.407C1063.41 310.354 1055.88 322.029 1048.12 333.259C1040.36 344.489 1032.51 355.107 1022.13 363.589C1020.15 365.282 1017.97 366.74 1015.66 367.933C1016.11 368.906 1016.87 369.706 1017.81 370.208C1018.76 370.711 1019.85 370.89 1020.91 370.717C1023.74 370.348 1026.46 369.346 1028.85 367.784C1032.02 365.886 1034.94 363.598 1037.54 360.972C1046.21 351.97 1054.52 342.633 1063.27 333.686C1071.36 325.37 1079.97 317.612 1093.41 319.022L1102.69 290.418C1092.1 290.598 1081.91 294.486 1073.88 301.407Z" fill="#C15934"/>
<path fill-rule="evenodd" clip-rule="evenodd" d="M1246.38 419.201C1244.04 410.461 1242.23 401.592 1240.94 392.639C1239.29 383.265 1236.63 374.077 1234.27 364.889C1232.18 356.629 1230.34 348.498 1225.53 341.296C1221.65 335.419 1216.64 330.371 1210.79 326.447C1209.61 325.667 1208.4 324.962 1207.08 324.257C1204.39 333.018 1202.89 340.238 1203.26 343.635C1206.83 344.295 1210.35 345.238 1213.78 346.457C1218.96 348.703 1221.5 353.659 1224.01 358.355C1230 369.492 1232.16 381.873 1234.39 394.216C1236.24 404.481 1238.82 414.634 1241.33 424.751C1242.24 428.463 1245.69 431.563 1247.84 431.433C1249.2 431.433 1250.39 430.208 1251.13 428.277C1248.77 425.724 1247.13 422.592 1246.38 419.201Z" fill="#C15934"/>
<path fill-rule="evenodd" clip-rule="evenodd" d="M1254.93 68.9383C1239.88 69.4209 1224.79 64.9289 1213.76 54.293C1211.85 52.4287 1210.09 50.4111 1208.51 48.2604C1204.72 52.5544 1201.06 56.9659 1197.5 61.495C1196.45 62.8686 1195.65 64.4278 1194.35 66.3582C1219.11 84.0848 1245.56 93.7555 1275.78 92.3448C1276.06 91.3779 1276.26 90.3913 1276.39 89.3935C1276.39 81.3933 1276.39 73.3931 1276.06 65.4115C1269.19 67.4758 1262.1 68.6608 1254.93 68.9383Z" fill="#C15934"/>
<path fill-rule="evenodd" clip-rule="evenodd" d="M1200.79 86.4607C1210.43 91.5238 1220.34 96.0354 1230.49 99.9738C1244.85 105.033 1260.22 106.498 1275.28 104.243C1275.48 102.183 1275.67 100.104 1275.8 97.9876C1260.62 97.1895 1245.91 96.5769 1231.73 91.5838C1217.55 86.5907 1204.76 78.8689 1191.42 70.7574C1190.09 72.7302 1188.9 74.789 1187.85 76.9199C1187.63 77.4397 1187.43 77.9594 1187.22 78.4791C1191.47 81.5803 1196.02 84.2538 1200.79 86.4607Z" fill="#AAAAAA"/>
<path fill-rule="evenodd" clip-rule="evenodd" d="M1186.98 259.699C1170.53 261.555 1156.84 252.645 1152.12 236.626C1151.51 234.571 1151.05 232.474 1150.75 230.352C1149.7 235.435 1149.97 240.702 1151.55 245.647C1155.17 256.784 1164.19 266.455 1176.46 267.346C1188.28 268.2 1195.5 262.26 1199.57 253.815C1198.59 254.501 1197.58 255.121 1196.52 255.671C1193.42 257.2 1190.24 258.544 1186.98 259.699Z" fill="#AAAAAA"/>
<path fill-rule="evenodd" clip-rule="evenodd" d="M1178.57 158.258C1178.57 157.924 1178.44 157.59 1178.37 157.274C1177.84 162.412 1178.88 167.589 1181.35 172.124C1187.09 182.704 1195.78 188.31 1207.81 188.829C1215.79 189.219 1223.1 186.602 1227.89 180.551C1224.2 182.218 1220.31 183.373 1216.31 183.985C1198.64 186.788 1182.86 175.855 1178.57 158.258Z" fill="#AAAAAA"/>
<path fill-rule="evenodd" clip-rule="evenodd" d="M1006.93 660.802C1022.63 663.271 1040.06 665.424 1054.41 666.705C1055.57 661.712 1056.07 656.588 1055.9 651.465C1055.86 651.338 1055.86 651.203 1055.9 651.076C1055.9 650.853 1055.9 650.63 1055.9 650.389C1055.87 650.244 1055.9 650.096 1055.96 649.966C1056.03 649.836 1056.14 649.73 1056.27 649.665C1068.46 602.982 1079.99 556.113 1092.89 509.616C1099.48 485.875 1106.4 462.227 1113.96 438.783L1114.16 438.19C1113.68 438.145 1113.21 438.052 1112.75 437.911C1110.06 437.094 1107.83 433.141 1108.07 428.63C1108.34 424.537 1108.85 420.465 1109.61 416.435C1110.1 413.632 1110.65 410.866 1111.23 408.045C1106.03 420.352 1100.44 432.51 1095.08 444.612C1085.3 466.608 1074.88 488.362 1065.38 510.488C1047.69 551.584 1031.39 593.255 1015.26 634.964C1015.38 635.073 1015.46 635.217 1015.49 635.373C1015.52 635.53 1015.5 635.692 1015.43 635.836C1012.01 643.948 1009.17 652.291 1006.93 660.802Z" fill="#FFED6E"/>
<path opacity="0.8" fill-rule="evenodd" clip-rule="evenodd" d="M1158.58 410.087C1155.39 426.403 1152.1 442.7 1148.48 458.96C1143.49 481.42 1138.64 503.936 1135.02 526.655C1127.8 572.002 1123.89 617.776 1118.63 663.363C1118.62 663.491 1118.58 663.613 1118.51 663.725C1118.45 663.836 1118.36 663.933 1118.26 664.011C1118.16 664.089 1118.04 664.145 1117.92 664.178C1117.8 664.21 1117.67 664.217 1117.54 664.199C1117.22 666.112 1117.08 668.051 1117.11 669.99C1119.15 669.804 1121.2 669.582 1123.24 669.285C1128.55 668.487 1131.33 665.851 1132.52 660.988C1133.78 655.586 1134.82 650.147 1136.1 644.764C1141.17 624.866 1144.28 604.517 1145.38 584.011C1145.6 578.883 1146.1 573.77 1146.89 568.698C1149.24 553.273 1151.84 537.885 1154.31 522.46C1158.34 496.894 1162.34 471.329 1166.28 445.763C1167.69 436.649 1169.12 427.535 1170.42 418.403C1170.78 415.86 1170.7 413.261 1170.83 410.477L1158.58 410.087Z" fill="#FF5A5A"/>
<path opacity="0.8" fill-rule="evenodd" clip-rule="evenodd" d="M938.064 645.358L940.923 646.119C963.847 607.511 983.615 567.009 1006.28 528.252C1021.47 502.265 1037.14 476.507 1053.28 450.979C1066.46 430.226 1081.81 410.384 1092.87 388.351L1083.83 380.926C1083.01 381.947 1082.44 382.522 1081.97 383.191C1077.35 390.615 1072.9 398.337 1068.11 405.725C1055.38 425.363 1042.33 444.816 1029.7 464.529C1021.52 477.336 1013.8 490.515 1005.94 503.509C993.193 524.613 980.329 545.625 967.874 566.879C957.09 585.329 946.695 604.003 936.319 622.731C934.281 626.742 932.783 631.005 931.864 635.409C930.584 641.238 932.236 643.743 938.064 645.358Z" fill="#FF5A5A"/>
<path d="M1196 163.043L1195.5 164.543C1196.5 166.043 1200.5 168.043 1203 169.043C1205 169.843 1209.17 170.543 1210.5 170.543L1211 169.043H1207.5C1206.17 168.709 1203 167.743 1201 166.543C1199 165.343 1196.67 163.709 1196 163.043Z" fill="#FFCC5A"/>
<path d="M1229.12 142.251C1229.12 142.251 1224.72 156.816 1220.85 165.745C1219.44 169.005 1212 171.543 1201.5 166.089C1190.86 160.559 1192.64 153.511 1192.64 153.511L1201.79 135.115L1203.84 131.049C1204.91 128.926 1205.31 128.006 1207.66 128.997C1208.6 129.393 1208.7 129.449 1209.39 129.746L1226.88 137.361C1229.04 138.298 1229.78 140.325 1229.12 142.251Z" fill="#FFCC5A" stroke="black" stroke-width="1.34836" stroke-miterlimit="10"/>
<path d="M1203.02 126.981L1207.61 128.97C1204.8 135.019 1202.56 133.607 1202.56 133.607C1202.86 132.92 1202.82 132.783 1202.46 132.109L1201.57 130.838C1201.5 130.737 1201.57 130.599 1201.69 130.588L1203.85 130.411L1204.18 130.392C1204.54 130.344 1204.58 130.127 1204.47 129.911C1204.47 129.909 1204.47 129.907 1204.47 129.905C1204.01 128.995 1202.81 127.192 1202.81 127.192C1202.75 127.057 1202.89 126.921 1203.02 126.981Z" fill="#FFCC5A"/>
<path d="M1208.81 129.493L1203.02 126.981C1202.89 126.921 1202.75 127.057 1202.81 127.192C1202.81 127.192 1204.01 128.995 1204.47 129.905C1204.47 129.907 1204.47 129.909 1204.47 129.911C1204.58 130.127 1204.54 130.344 1204.18 130.392L1203.85 130.411L1201.69 130.588C1201.57 130.599 1201.5 130.737 1201.57 130.838L1202.46 132.109C1202.82 132.783 1202.86 132.92 1202.56 133.607" stroke="black" stroke-width="1.34836" stroke-miterlimit="10"/>
<path d="M1209.82 159.3C1207.74 158.396 1204.36 158.842 1202.1 156.736C1199.7 154.505 1200.6 160.174 1204.51 161.866C1209.92 164.216 1212.06 160.271 1209.82 159.3Z" fill="white" stroke="black" stroke-width="1.34836"/>
<path d="M1198.26 125.392L1198.92 126.245L1195.55 134.018L1194.79 133.689L1198.26 125.392Z" fill="black" stroke="black" stroke-width="1.34836"/>
<path d="M1195.96 131.966C1194.24 131.219 1191.97 136.898 1191.97 136.898C1191.97 136.898 1191.6 137.405 1193.29 138.134C1194.97 138.863 1195.09 138.253 1195.09 138.253C1195.09 138.253 1197.68 132.712 1195.96 131.966Z" fill="#F9C81E" stroke="black" stroke-width="1.34836"/>
<path d="M1202.19 134.539L1202.89 132.913C1202.89 132.913 1198.01 125.187 1197.03 124.215C1196.04 123.242 1221.96 126.613 1221.96 126.613C1221.96 126.613 1239.51 143.203 1238.64 143.316C1237.77 143.428 1228.41 144.024 1228.41 144.024L1227.82 145.679C1227.61 145.588 1213.08 133.161 1202.19 134.539Z" fill="#3C3C3B" stroke="black" stroke-width="1.34836"/>
<path d="M1201.83 135.388C1201.83 135.388 1203.16 132.285 1204.03 131.281C1205.3 129.826 1213.4 130.879 1218.67 133.26C1223.51 135.445 1229.1 140.217 1228.75 142.5C1228.51 144.021 1227.51 146.605 1227.51 146.605C1227.51 146.605 1212.9 132.154 1201.83 135.388Z" fill="#323232" stroke="black" stroke-width="1.34836"/>
<path d="M1212.47 150.395C1212.74 149.929 1212.81 149.375 1212.68 148.853C1212.54 148.331 1212.2 147.885 1211.74 147.613C1211.27 147.341 1210.72 147.266 1210.19 147.403C1209.67 147.54 1209.23 147.879 1208.95 148.345" stroke="black" stroke-width="1.34836"/>
<circle cx="1218.85" cy="152.063" r="7.1187" transform="rotate(30.2724 1218.85 152.063)" fill="white" stroke="black" stroke-width="1.34836"/>
<circle cx="1202.99" cy="145.449" r="7.1187" transform="rotate(30.2724 1202.99 145.449)" fill="white" stroke="black" stroke-width="1.34836"/>
</svg>
