<svg width="1401" height="676" viewBox="0 0 1401 676" fill="none" xmlns="http://www.w3.org/2000/svg">
<path d="M0 104.514C0 86.9958 14.8018 73.1775 32.2701 74.5024C139.31 82.6207 489.486 107.708 730 107.76C972.374 107.813 1331.18 82.5398 1439.74 74.4552C1457.19 73.1555 1472 86.9635 1472 104.463V607.759C1472 623.479 1460.04 636.512 1444.36 637.596C1343.23 644.591 986.487 668 742 668C496.957 668 130.424 644.484 27.6582 637.549C11.9518 636.489 0 623.447 0 607.705V104.514Z" fill="#FEE05C"/>
<path fill-rule="evenodd" clip-rule="evenodd" d="M1091.53 324.25C1086.39 323.136 1082.57 324.825 1078.78 327.015C1070.43 331.842 1064.1 338.932 1058.12 346.208C1050.05 355.819 1040.96 364.531 1031.02 372.195C1024.86 377.04 1018.88 377.392 1014.17 373.494C1011.5 371.304 1010.25 368.557 1011.57 365.327C1012.55 362.436 1014.08 359.764 1016.08 357.457C1033.86 340.213 1045.48 319.182 1055.06 296.685C1059.28 286.373 1065.6 277.054 1073.62 269.325C1079.85 263.527 1088 260.224 1096.51 260.044C1101.6 259.803 1106.7 260.323 1112.32 260.527C1115.28 252.415 1118.45 244.211 1121.25 235.877C1130.53 208.238 1141.39 181.193 1152.58 154.204C1160.21 135.81 1167.32 117.192 1174.62 98.6488C1177.55 91.2241 1179.74 83.4095 1183.29 76.3746C1186.65 69.7921 1190.68 63.5723 1195.31 57.8127C1208.57 41.107 1224.16 26.2576 1239.23 11.2224C1242.88 7.6102 1247.08 4.60252 1251.67 2.31275C1259.82 -1.69661 1266.11 0.902046 1269.84 9.03214C1273.69 17.4474 1276.27 26.3858 1277.51 35.557C1280.29 53.4138 1281.41 71.4896 1280.87 89.5535C1280.44 102.079 1278.25 114.482 1274.37 126.399C1268.52 143.698 1263.79 161.388 1258.42 178.855C1256.25 185.908 1253.99 192.98 1251.19 199.792C1244.53 215.481 1238.68 231.496 1233.64 247.775C1229.77 260.768 1224.9 273.39 1220.54 286.198C1219.89 288.054 1219.56 290.077 1219.11 291.766C1224.92 294.458 1230.4 296.704 1235.59 299.47C1243.59 303.72 1248.44 310.607 1251.41 319.145C1256.48 333.698 1256.4 348.529 1254.68 363.582C1252.82 379.75 1252.32 395.936 1255.47 412.084C1256.66 418.099 1257.46 424.261 1255.18 430.349C1252.45 437.588 1247.12 438.906 1241.5 433.468C1240.18 432.188 1239.14 430.653 1238.43 428.957C1236.82 425.184 1235.53 421.285 1234.55 417.3C1232.57 408.019 1230.95 398.738 1229.28 389.458C1227.52 379.324 1224.27 369.504 1219.65 360.315C1215.94 353.076 1209.76 349.754 1201.42 348.362C1200.62 350.7 1199.86 352.742 1199.25 354.821C1195.09 369.021 1190.99 383.221 1186.85 397.402C1186.2 399.574 1185.36 401.671 1184.66 403.824C1183.3 407.908 1181.76 411.75 1175.81 409.894C1175.12 414.052 1174.49 417.653 1173.95 421.273C1172.5 431.018 1171.17 440.781 1169.64 450.508C1166.52 470.406 1163.29 490.267 1160.14 510.147C1156.98 530.027 1153.7 549.888 1150.69 569.786C1149.71 576.264 1149.56 582.872 1148.84 589.406C1147.48 600.822 1146 612.219 1144.45 623.616C1142.91 635.013 1141.39 646.428 1139.52 657.769C1138.63 663.152 1136.94 668.387 1135.69 673.343C1132.35 673.64 1129.55 673.844 1126.75 674.159C1112.79 675.719 1098.9 674.865 1084.93 673.603C1066.74 671.969 1048.55 670.336 1030.35 668.517C1009.08 666.287 987.995 662.565 967.245 657.38C958.056 655.134 948.85 653.017 939.699 650.679C936.905 650.02 934.218 648.97 931.717 647.56C927.077 644.795 926.056 641.212 927.801 635.959C932.051 623.207 938.938 611.68 945.212 599.931C953.602 584.388 962.165 568.92 970.901 553.526C976.284 544.078 982.298 534.964 987.885 525.683C998.651 507.697 1009.23 489.636 1020.02 471.65C1022.34 467.789 1025.23 464.225 1027.68 460.512C1033.25 451.881 1038.69 443.194 1044.16 434.526C1048.12 428.27 1051.96 421.941 1056.06 415.778C1061.97 406.887 1068.24 398.219 1073.99 389.235C1077.15 384.279 1080.12 379.007 1077.87 372.529C1077.54 371.564 1078.3 370.19 1078.65 369.04C1082.37 356.659 1086.21 344.297 1089.9 331.916C1090.66 329.67 1090.98 327.034 1091.53 324.25ZM967.17 652.424C984.637 660.145 1075 671.357 1083.81 667.626C1085.21 661.704 1086.93 655.598 1088.08 649.361C1092.91 623.096 1097.36 596.775 1102.34 570.547C1105.18 555.698 1108.82 540.848 1111.97 525.999C1114.53 513.952 1116.59 501.868 1119.4 489.822C1123.81 471.464 1128.81 453.255 1133.48 434.953C1135.25 428.011 1136.97 421.031 1138.37 413.996C1138.76 412.01 1141.34 408.799 1137.38 407.871C1134.1 407.091 1134.6 410.711 1133.67 412.53C1130.33 419.769 1128.7 427.806 1123.41 434.136C1120.49 437.607 1115.98 439.426 1112.58 438.35C1109.89 437.533 1107.67 433.579 1107.91 429.069C1108.17 424.976 1108.68 420.903 1109.45 416.873C1110.41 411.305 1111.64 405.736 1112.77 400.168L1101.84 396.363C1099.98 399.351 1098.31 402.08 1096.73 404.901C1094.88 408.131 1093.32 411.472 1091.46 414.665C1086.58 422.999 1081.42 431.166 1076.7 439.593C1064.14 461.979 1051.74 484.457 1039.28 506.898C1038.69 507.975 1038.11 509.07 1037.59 510.184C1026.64 533.423 1014.06 555.79 1001.53 578.195C996.786 586.136 992.79 594.5 989.593 603.179C985.399 615.401 980.08 627.207 973.704 638.446C971.421 642.697 969.509 647.486 967.207 652.424H967.17ZM1191.34 71.2144C1190.02 73.1872 1188.83 75.246 1187.78 77.3769C1177.35 102.819 1167.01 128.323 1156.76 153.889C1150.69 168.906 1144.44 183.866 1138.64 199.013C1134.32 210.298 1130.57 221.825 1126.62 233.259C1119.9 252.657 1113.03 271.98 1106.63 291.469C1101.89 305.892 1097.85 320.537 1093.39 335.034C1091.02 342.793 1090.92 344.538 1097.81 349.048C1105.47 354.079 1113.9 357.995 1122.05 362.302C1123.12 362.602 1124.23 362.728 1125.34 362.673C1126.88 358.96 1128.44 355.415 1129.85 351.814C1133.26 343.016 1136.44 334.106 1140.02 325.382C1144.16 315.321 1148.58 305.391 1153.01 295.423C1154.55 291.771 1157.45 288.866 1161.1 287.33C1167.23 284.732 1170.76 286.903 1171.02 293.456C1171.12 295.091 1170.97 296.733 1170.55 298.319C1163.78 320.704 1156.98 343.078 1150.13 365.439C1149.5 367.499 1148.97 369.578 1148.28 371.824C1150.11 372.787 1152.06 373.529 1154.07 374.033C1163.22 374.886 1172.39 375.889 1181.58 376.056C1188.61 376.149 1188.82 375.48 1190.77 368.891C1193.12 360.798 1195.28 352.668 1197.63 344.575C1199.66 337.707 1201.79 330.858 1203.96 324.027C1206.4 316.417 1208.96 308.825 1211.39 301.214C1216.14 286.588 1220.84 271.942 1225.66 257.334C1228.17 249.742 1230.9 242.225 1233.44 234.633C1234.22 232.313 1234.46 229.77 1235.3 227.524C1238.64 219.357 1242.28 211.338 1245.62 203.171C1248.09 197.101 1250.55 190.976 1252.5 184.702C1259.15 163.337 1265.63 141.917 1272.09 120.478C1274.1 113.292 1275.28 105.9 1275.61 98.4446C1260.43 97.6465 1245.73 97.034 1231.55 92.0408C1217.37 87.0477 1204.69 79.3259 1191.34 71.2144ZM1087.21 669.389C1099.14 671.255 1111.28 671.374 1123.24 669.742C1128.55 668.944 1131.33 666.308 1132.52 661.445C1133.78 656.043 1134.82 650.604 1136.1 645.221C1141.17 625.323 1144.28 604.974 1145.38 584.469C1145.6 579.34 1146.1 574.227 1146.89 569.155C1149.24 553.73 1151.84 538.342 1154.31 522.917C1158.35 497.352 1162.34 471.786 1166.28 446.22C1167.69 437.106 1169.12 427.992 1170.42 418.86C1170.78 416.317 1170.7 413.718 1170.83 410.934L1143.9 410.08C1141.06 420.382 1138.01 430.386 1135.54 440.54C1129.98 463.668 1122.96 486.462 1118.84 509.98C1116.43 523.716 1112.7 537.21 1109.93 550.816C1103.14 584.079 1096.52 617.335 1090.09 650.586C1088.92 656.581 1088.23 662.651 1087.21 669.389ZM1083.83 381.365C1083.01 382.385 1082.44 382.961 1081.98 383.629C1077.35 391.054 1072.9 398.776 1068.11 406.163C1055.38 425.802 1042.33 445.255 1029.71 464.967C1021.52 477.775 1013.8 490.954 1005.95 503.947C993.194 525.052 980.331 546.064 967.876 567.317C957.091 585.768 946.697 604.441 936.32 623.17C934.282 627.181 932.784 631.444 931.866 635.848C930.473 641.75 932.125 644.256 937.954 645.871C944.692 647.727 951.467 649.454 958.242 651.087C962.456 652.127 962.994 651.662 964.85 647.783C967.226 642.79 969.732 637.852 972.275 632.934C975.987 625.824 979.7 618.789 983.245 611.587C988.275 601.248 992.878 590.687 998.094 580.441C1007.21 562.491 1016.66 544.709 1025.94 526.834C1030.67 517.72 1035.11 508.458 1040.01 499.437C1047.17 486.258 1054.56 473.209 1061.97 460.16C1073.54 439.816 1085.16 419.497 1096.84 399.203C1097.72 397.662 1098.7 396.196 1099.72 394.618L1083.83 381.365ZM1275.78 92.7647C1276.06 91.7978 1276.26 90.8112 1276.39 89.8134C1276.6 70.0821 1275.98 50.3509 1272.1 30.9723C1270.49 23.9789 1268.04 17.2049 1264.81 10.7955C1262.04 4.87429 1257 3.87194 1251.46 7.43582C1247.95 9.58304 1244.65 12.0699 1241.63 14.8606C1226.09 29.7101 1210.79 44.9865 1197.5 62.0448C1196.45 63.4184 1195.65 64.9776 1194.35 66.908C1219.11 84.5789 1245.56 94.2497 1275.78 92.7647ZM1110.58 265.836C1109.53 265.087 1108.38 264.481 1107.16 264.035C1096.03 262.624 1085.47 264.406 1076.63 272.035C1067.35 280.017 1061.5 290.374 1056.84 301.419C1048.32 321.67 1037.61 340.399 1022.04 356.176C1019.83 358.334 1017.87 360.738 1016.21 363.341C1013.72 367.332 1016.21 371.601 1020.85 371.174C1023.69 370.805 1026.4 369.803 1028.8 368.241C1031.97 366.343 1034.88 364.055 1037.48 361.429C1046.15 352.427 1054.47 343.09 1063.21 334.143C1071.3 325.827 1079.92 318.069 1093.35 319.479C1099.12 301.61 1104.87 283.748 1110.62 265.891L1110.58 265.836ZM1217.38 297.966C1208.86 316.751 1202.63 337.596 1203.35 344.185C1206.93 344.844 1210.45 345.788 1213.88 347.007C1219.05 349.253 1221.6 354.209 1224.1 358.905C1230.1 370.042 1232.25 382.423 1234.48 394.766C1236.34 405.031 1238.92 415.184 1241.42 425.301C1242.33 429.013 1245.78 432.113 1247.94 431.983C1250.09 431.853 1252.04 428.79 1251.98 423.89C1251.83 419.594 1251.38 415.315 1250.63 411.082C1247.81 392.65 1249.16 374.274 1250.98 355.879C1252.3 342.607 1251.24 329.577 1245.6 317.345C1240.16 305.465 1229.82 300.416 1217.42 297.966H1217.38ZM1165.26 290.541C1161.25 290.708 1158.71 293.344 1156.8 296.574C1155.01 299.55 1153.43 302.652 1152.08 305.855C1148.89 313.651 1145.9 321.521 1142.8 329.373C1137.9 341.995 1132.69 354.506 1128.21 367.276C1123.54 380.641 1119.28 394.154 1115.44 407.815C1113.82 414.599 1112.73 421.501 1112.19 428.456C1112.18 429.346 1112.39 430.225 1112.81 431.01C1113.23 431.796 1113.84 432.462 1114.59 432.948C1115.44 433.121 1116.33 433.09 1117.17 432.857C1118.01 432.625 1118.79 432.198 1119.43 431.612C1121.68 429.52 1123.47 426.994 1124.7 424.187C1130.89 407.469 1136.92 390.664 1142.78 373.773C1147.8 359.245 1152.61 344.631 1157.23 329.93C1160.68 318.978 1163.72 307.897 1166.93 296.871C1167.55 294.514 1167.81 292.305 1165.3 290.504L1165.26 290.541ZM1122.77 368.817L1089.07 349.698C1086.95 356.714 1084.8 363.675 1082.83 370.692C1082.75 371.186 1082.77 371.693 1082.89 372.179C1083.02 372.665 1083.24 373.119 1083.55 373.513C1091.61 383.611 1100.96 391.908 1114.74 395.175C1118.07 386.584 1120.77 377.763 1122.81 368.78L1122.77 368.817ZM1145.85 377.615L1137.55 402.191C1150.05 407.176 1163.79 408.149 1176.86 404.975C1177.71 404.682 1178.49 404.214 1179.15 403.599C1179.8 402.985 1180.32 402.24 1180.67 401.411C1182.84 395.305 1184.57 389.031 1186.59 382.311L1145.85 377.615Z" fill="black"/>
<path fill-rule="evenodd" clip-rule="evenodd" d="M1137.49 407.871C1134.21 407.091 1134.71 410.711 1133.78 412.53C1130.44 419.769 1128.81 427.806 1123.52 434.136C1120.6 437.607 1116.09 439.426 1112.69 438.35C1110 437.533 1107.78 433.579 1108.02 429.069C1108.28 424.976 1108.79 420.903 1109.56 416.873C1110.52 411.305 1111.75 405.736 1112.88 400.168L1101.95 396.363C1100.09 399.351 1098.42 402.08 1096.84 404.901C1094.99 408.131 1093.43 411.472 1091.57 414.665C1086.69 422.999 1081.53 431.166 1076.81 439.593C1064.25 461.979 1051.85 484.457 1039.39 506.898C1038.8 507.975 1038.22 509.07 1037.7 510.184C1026.75 533.423 1014.17 555.79 1001.64 578.195C996.896 586.136 992.9 594.5 989.703 603.179C985.509 615.401 980.19 627.207 973.814 638.446C971.345 642.883 969.434 647.635 967.132 652.572C973.164 655.245 987.958 658.345 1005.07 661.092C1005.18 660.572 1005.31 660.052 1005.42 659.533C1007.53 651.437 1010.25 643.513 1013.56 635.829C1013.98 634.734 1015.76 635.272 1015.32 636.386C1011.94 644.471 1009.14 652.782 1006.93 661.259C1022.63 663.728 1040.06 665.881 1054.41 667.162C1055.67 661.821 1056.16 656.325 1055.84 650.846C1055.84 649.658 1057.7 649.751 1057.7 650.939C1058.02 656.442 1057.54 661.964 1056.27 667.329C1070.26 668.517 1081.03 668.814 1083.77 667.644C1085.17 661.723 1086.89 655.616 1088.04 649.379C1092.87 623.114 1097.32 596.794 1102.3 570.566C1105.14 555.716 1108.78 540.867 1111.93 526.017C1114.49 513.971 1116.55 501.887 1119.36 489.84C1123.78 471.482 1128.77 453.273 1133.45 434.971C1135.21 428.029 1136.94 421.05 1138.33 414.015C1138.87 412.01 1141.45 408.818 1137.49 407.871Z" fill="#FFD96C"/>
<path fill-rule="evenodd" clip-rule="evenodd" d="M1191.34 71.2144C1204.69 79.3259 1217.44 87.0476 1231.66 92.0408C1245.88 97.0339 1260.54 97.6093 1275.72 98.4446C1275.4 105.9 1274.21 113.292 1272.2 120.478C1265.74 141.917 1259.2 163.337 1252.62 184.702C1250.67 190.976 1248.2 197.101 1245.73 203.171C1242.39 211.338 1238.75 219.357 1235.41 227.524C1234.48 229.77 1234.24 232.313 1233.55 234.633C1231.01 242.225 1228.28 249.742 1225.77 257.334C1220.95 271.942 1216.25 286.588 1211.5 301.214C1209.03 308.825 1206.47 316.417 1204.08 324.027C1201.9 330.858 1199.77 337.707 1197.75 344.575C1195.39 352.668 1193.24 360.798 1190.88 368.891C1189.02 375.48 1188.73 376.149 1181.69 376.056C1172.5 375.944 1163.33 374.886 1154.18 374.033C1152.17 373.528 1150.23 372.787 1148.39 371.824C1149 369.578 1149.54 367.499 1150.25 365.438C1157.08 343.078 1163.88 320.704 1170.66 298.319C1171.08 296.733 1171.24 295.091 1171.13 293.456C1170.87 286.903 1167.42 284.731 1161.22 287.33C1157.56 288.866 1154.66 291.771 1153.12 295.423C1148.74 305.391 1144.33 315.321 1140.13 325.382C1136.55 334.106 1133.37 343.016 1129.96 351.814C1128.55 355.415 1126.99 358.96 1125.45 362.673C1124.34 362.728 1123.23 362.602 1122.16 362.302C1114.01 357.995 1105.59 354.079 1097.92 349.048C1091.03 344.538 1091.13 342.793 1093.5 335.034C1097.96 320.537 1102 305.892 1106.74 291.469C1113.14 271.979 1120.01 252.657 1126.73 233.259C1130.68 221.825 1134.43 210.298 1138.76 199.013C1144.55 183.866 1150.8 168.905 1156.87 153.889C1167.19 128.385 1177.53 102.881 1187.89 77.3769C1188.9 75.249 1190.06 73.1903 1191.34 71.2144ZM1216.31 184.442C1232.22 181.825 1241.42 173.676 1245.88 158.455C1249.35 146.631 1249.76 134.325 1240.31 124.32C1233.35 116.784 1224.98 112.013 1214.32 112.292C1210.83 112.292 1207.36 112.682 1203.89 112.904C1193.94 113.517 1182.04 122.965 1179.28 132.58C1176.69 141.051 1176.4 150.058 1178.44 158.678C1182.86 176.312 1198.64 187.245 1216.31 184.479V184.442ZM1186.98 260.156C1190.24 259.032 1193.42 257.718 1196.52 256.22C1212.11 247.645 1215.53 227.635 1212.22 213.677C1211.17 209.514 1209.27 205.61 1206.66 202.205C1197.8 190.679 1177.63 185.277 1162.81 197.881C1158.08 201.908 1153.14 205.844 1151.68 212.155C1149.61 220.355 1149.76 228.958 1152.1 237.083C1156.89 253.102 1170.59 262.012 1186.98 260.156Z" fill="#C5C5C8"/>
<path fill-rule="evenodd" clip-rule="evenodd" d="M1087.21 669.389C1088.23 662.651 1088.92 656.581 1090.09 650.586C1096.58 617.335 1103.16 584.104 1109.8 550.89C1112.57 537.21 1116.3 523.716 1118.71 510.054C1122.85 486.536 1129.85 463.742 1135.42 440.614C1137.88 430.461 1140.98 420.456 1143.77 410.154L1170.7 411.008C1170.57 413.792 1170.7 416.391 1170.29 418.934C1168.99 428.066 1167.57 437.18 1166.15 446.294C1162.18 471.872 1158.19 497.438 1154.18 522.992C1151.75 538.417 1149.15 553.804 1146.76 569.229C1145.97 574.301 1145.47 579.414 1145.25 584.543C1144.15 605.049 1141.05 625.397 1135.97 645.296C1134.69 650.679 1133.65 656.117 1132.39 661.519C1131.26 666.382 1128.47 668.944 1123.11 669.816C1111.19 671.411 1099.09 671.267 1087.21 669.389Z" fill="#FA8C65"/>
<path fill-rule="evenodd" clip-rule="evenodd" d="M1083.83 381.365L1099.81 394.544C1098.81 396.121 1097.81 397.588 1096.94 399.128C1085.29 419.435 1073.67 439.754 1062.06 460.085C1054.63 473.079 1047.21 486.183 1040.1 499.362C1035.2 508.383 1030.82 517.646 1026.03 526.76C1016.75 544.635 1007.28 562.417 998.187 580.366C992.989 590.613 988.386 601.174 983.337 611.513C979.829 618.715 976.005 625.75 972.367 632.859C969.843 637.797 967.337 642.734 964.943 647.709C963.086 651.588 962.548 652.052 958.335 651.013C951.559 649.379 944.784 647.672 938.046 645.797C932.218 644.182 930.622 641.676 931.958 635.773C932.877 631.369 934.375 627.106 936.413 623.096C946.715 604.385 957.109 585.694 967.968 567.243C980.423 545.99 993.286 524.978 1006.04 503.873C1013.89 490.88 1021.61 477.756 1029.8 464.893C1042.42 445.18 1055.47 425.727 1068.2 406.089C1072.99 398.664 1077.48 391.072 1082.07 383.555C1082.44 382.961 1083.03 382.386 1083.83 381.365Z" fill="#FA8C65"/>
<path fill-rule="evenodd" clip-rule="evenodd" d="M1275.78 92.7647C1245.56 94.2497 1219.11 84.5789 1194.35 66.7781C1195.59 64.9219 1196.45 63.2885 1197.5 61.9149C1210.79 44.8566 1226.09 29.673 1241.63 14.7307C1244.65 11.94 1247.95 9.45313 1251.46 7.30591C1257.03 3.74203 1262.04 4.74437 1264.81 10.6656C1268.04 17.0749 1270.49 23.849 1272.1 30.8424C1275.98 50.2209 1276.6 69.9522 1276.39 89.6835C1276.27 90.7251 1276.06 91.7554 1275.78 92.7647Z" fill="#E5652E"/>
<path fill-rule="evenodd" clip-rule="evenodd" d="M1110.62 265.891C1104.86 283.797 1099.11 301.679 1093.37 319.535C1079.86 318.124 1071.32 325.883 1063.23 334.199C1054.49 343.146 1046.17 352.482 1037.5 361.485C1034.9 364.11 1031.98 366.399 1028.81 368.297C1026.42 369.859 1023.7 370.861 1020.87 371.23C1016.21 371.657 1013.74 367.388 1016.23 363.397C1017.89 360.807 1019.85 358.415 1022.06 356.269C1037.63 340.529 1048.34 321.762 1056.86 301.511C1061.52 290.467 1067.39 280.11 1076.65 272.128C1085.48 264.499 1095.95 262.717 1107.18 264.128C1108.4 264.561 1109.56 265.154 1110.62 265.891Z" fill="#E5652E"/>
<path fill-rule="evenodd" clip-rule="evenodd" d="M1217.42 297.966C1229.82 300.416 1240.16 305.391 1245.64 317.345C1251.2 329.577 1252.34 342.607 1251.02 355.879C1249.16 374.274 1247.84 392.65 1250.67 411.082C1251.41 415.315 1251.87 419.594 1252.02 423.89C1252.02 428.79 1250.17 431.834 1247.97 431.983C1245.78 432.131 1242.41 429.032 1241.46 425.301C1238.95 415.166 1236.37 405.031 1234.52 394.766C1232.29 382.423 1230.14 370.098 1224.14 358.905C1221.64 354.209 1219.09 349.253 1213.91 347.007C1210.49 345.788 1206.97 344.845 1203.39 344.185C1202.67 337.596 1208.9 316.751 1217.42 297.966Z" fill="#E5652E"/>
<path fill-rule="evenodd" clip-rule="evenodd" d="M1165.3 290.504C1167.81 292.36 1167.55 294.514 1166.9 296.778C1163.68 307.804 1160.64 318.885 1157.19 329.837C1152.56 344.525 1147.75 359.14 1142.75 373.68C1136.92 390.571 1130.89 407.376 1124.67 424.094C1123.43 426.901 1121.64 429.427 1119.4 431.519C1118.76 432.116 1118 432.557 1117.16 432.805C1116.33 433.054 1115.45 433.102 1114.59 432.948C1113.88 432.454 1113.3 431.793 1112.9 431.022C1112.51 430.252 1112.31 429.396 1112.32 428.53C1112.86 421.575 1113.95 414.673 1115.57 407.89C1119.4 394.277 1123.65 380.764 1128.34 367.35C1132.82 354.58 1138.03 342.069 1142.93 329.447C1145.98 321.595 1148.97 313.725 1152.21 305.929C1153.56 302.726 1155.14 299.624 1156.93 296.648C1158.75 293.307 1161.29 290.671 1165.3 290.504Z" fill="#E5652E"/>
<path fill-rule="evenodd" clip-rule="evenodd" d="M1122.81 368.78C1120.78 377.749 1118.09 386.558 1114.78 395.138C1101 391.871 1091.65 383.574 1083.59 373.476C1083.28 373.082 1083.06 372.627 1082.93 372.142C1082.81 371.656 1082.78 371.149 1082.87 370.654C1084.83 363.638 1086.99 356.677 1089.1 349.661L1122.81 368.78ZM1106.26 377.262C1108.54 376.947 1108.95 374.998 1108.63 372.789C1108.28 370.283 1104.25 368.13 1101.21 368.817C1100.69 368.874 1100.2 369.048 1099.76 369.325C1099.33 369.602 1098.96 369.975 1098.69 370.416C1098.42 370.856 1098.25 371.352 1098.2 371.866C1098.15 372.38 1098.22 372.899 1098.4 373.383C1099.05 375.982 1102.49 377.856 1106.26 377.262Z" fill="#F6F5F2"/>
<path fill-rule="evenodd" clip-rule="evenodd" d="M1145.88 377.578L1186.63 382.274C1184.6 388.993 1182.91 395.267 1180.71 401.374C1180.36 402.203 1179.84 402.948 1179.18 403.562C1178.53 404.176 1177.75 404.645 1176.9 404.938C1163.82 408.112 1150.09 407.139 1137.59 402.154L1145.88 377.578ZM1166.17 386.673C1163 387.1 1160.88 389.29 1161.25 391.815C1161.62 394.339 1166.26 397.161 1169.55 396.827C1170.87 396.664 1172.06 395.987 1172.88 394.943C1173.7 393.899 1174.07 392.574 1173.91 391.258C1173.45 388.399 1169.68 386.228 1166.17 386.673Z" fill="#F6F5F2"/>
<path fill-rule="evenodd" clip-rule="evenodd" d="M1216.31 184.479C1198.63 187.245 1182.89 176.312 1178.57 158.715C1176.53 150.095 1176.82 141.089 1179.4 132.617C1182.17 123.002 1194.07 113.554 1204.02 112.941C1207.49 112.719 1210.96 112.422 1214.45 112.329C1225.05 112.051 1233.42 116.821 1240.44 124.357C1249.81 134.455 1249.4 146.631 1246 158.492C1241.42 173.713 1232.21 181.862 1216.31 184.479ZM1207.4 117.229C1207.41 117.402 1207.41 117.576 1207.4 117.749C1205.99 117.953 1204.54 118.083 1203.13 118.343C1193.99 120.032 1187.13 125.081 1183.8 133.638C1181.9 138.427 1181.02 143.564 1181.22 148.716C1181.42 153.867 1182.71 158.918 1184.99 163.541C1186.89 167.438 1189.62 170.877 1192.97 173.62C1196.33 176.363 1200.25 178.345 1204.44 179.43C1214.84 182.493 1230.84 177.463 1237.15 167.402C1240.55 161.811 1242.72 155.559 1243.52 149.063C1245.54 135.643 1235.89 121.74 1222.64 118.194C1217.79 116.914 1212.48 117.489 1207.4 117.229Z" fill="black"/>
<path fill-rule="evenodd" clip-rule="evenodd" d="M1186.98 260.156C1170.53 262.012 1156.84 253.102 1152.12 237.083C1149.77 228.958 1149.63 220.355 1151.69 212.155C1153.22 205.844 1158.15 201.909 1162.83 197.881C1177.68 185.277 1197.82 190.679 1206.67 202.206C1209.29 205.61 1211.19 209.514 1212.24 213.677C1215.55 227.635 1212.13 247.645 1196.54 256.221C1193.43 257.718 1190.24 259.032 1186.98 260.156ZM1179.17 196.08C1178.48 196.094 1177.8 196.143 1177.12 196.229C1166.88 198.085 1159.03 203.653 1155.63 213.51C1153.19 221.039 1153.47 229.184 1156.43 236.526C1163 254.346 1183.16 260.657 1198.17 249.316C1204.65 244.452 1207.45 237.492 1208.83 229.807C1212.74 207.96 1195.04 192.683 1179.22 196.08H1179.17Z" fill="black"/>
<path fill-rule="evenodd" clip-rule="evenodd" d="M1106.25 377.263C1102.54 377.894 1099.05 376.019 1098.5 373.383C1098.31 372.899 1098.25 372.38 1098.3 371.866C1098.35 371.352 1098.51 370.856 1098.78 370.416C1099.05 369.975 1099.42 369.602 1099.86 369.325C1100.29 369.048 1100.79 368.874 1101.3 368.817C1104.25 368.13 1108.28 370.283 1108.72 372.789C1109.02 374.961 1108.54 376.91 1106.25 377.263Z" fill="#C5C5C8"/>
<path fill-rule="evenodd" clip-rule="evenodd" d="M1166.17 386.673C1169.68 386.228 1173.45 388.418 1173.91 391.165C1174.07 392.482 1173.7 393.807 1172.88 394.85C1172.06 395.894 1170.87 396.571 1169.55 396.734C1166.27 397.068 1161.61 394.246 1161.25 391.722C1160.9 389.198 1163 387.1 1166.17 386.673Z" fill="#C5C5C8"/>
<path fill-rule="evenodd" clip-rule="evenodd" d="M1207.4 117.229C1212.48 117.489 1217.79 116.914 1222.6 118.194C1235.85 121.74 1245.5 135.643 1243.48 149.063C1242.68 155.56 1240.5 161.812 1237.1 167.402C1230.78 177.463 1214.82 182.493 1204.39 179.43C1200.19 178.345 1196.28 176.363 1192.92 173.62C1189.56 170.877 1186.84 167.438 1184.94 163.541C1182.65 158.918 1181.37 153.867 1181.16 148.716C1180.96 143.564 1181.84 138.427 1183.75 133.638C1187.07 125.081 1193.94 120.032 1203.07 118.343C1204.48 118.083 1205.93 117.953 1207.34 117.749C1207.37 117.577 1207.39 117.403 1207.4 117.229ZM1189.22 152.497C1189.56 154.896 1190.25 157.233 1191.25 159.439C1193.1 162.743 1195.24 166.53 1198.3 168.386C1209.79 175.365 1228.35 170.242 1231.92 154.91C1234.11 145.425 1232.51 137.035 1224.86 130.278C1216.73 123.132 1207.88 124.134 1198.88 127.884C1189.63 131.819 1187.93 143.383 1189.22 152.497Z" fill="#F6F5F2"/>
<path fill-rule="evenodd" clip-rule="evenodd" d="M1179.22 196.08C1195.04 192.683 1212.75 207.96 1208.92 229.807C1207.55 237.492 1204.74 244.452 1198.27 249.315C1183.25 260.583 1163.09 254.346 1156.52 236.526C1153.57 229.184 1153.29 221.039 1155.72 213.51C1159.12 203.746 1166.97 198.178 1177.22 196.229C1177.88 196.144 1178.55 196.095 1179.22 196.08ZM1199.47 223.459C1198.38 219.571 1197.08 215.742 1195.59 211.988C1191.42 202.911 1183.53 200.85 1174.4 204.823C1163.26 209.723 1157.02 227.691 1169.33 239.57C1179 248.851 1194.05 245.306 1197.47 233.891C1198.34 230.455 1199.01 226.972 1199.47 223.459Z" fill="#F6F5F2"/>
<path fill-rule="evenodd" clip-rule="evenodd" d="M1189.23 152.497C1187.93 143.216 1189.63 131.819 1198.95 127.884C1207.88 124.171 1216.73 123.132 1224.94 130.278C1232.59 137.035 1234.22 145.425 1231.99 154.91C1228.43 170.335 1209.87 175.328 1198.38 168.386C1195.31 166.53 1193.18 162.817 1191.32 159.439C1190.3 157.237 1189.59 154.899 1189.23 152.497ZM1211.36 156.5C1206.66 147.07 1222.79 160.219 1211.2 152.497C1210.39 154.594 1200.7 148.089 1201.5 149.5C1205.38 156.442 1206.86 148.209 1211.2 154.91C1211.96 156.024 1210.15 149.007 1211.36 156.5ZM1205.5 142C1209.21 151.763 1209.91 140.479 1216 149.5C1219.34 145.193 1220.37 149.081 1218.5 145.815C1217.27 143.717 1223.27 148.023 1222.25 145.815C1220.39 141.75 1211.49 149.805 1209.5 145.815C1208.57 144.414 1206.74 143.139 1205.5 142Z" fill="black"/>
<path fill-rule="evenodd" clip-rule="evenodd" d="M1199.47 223.459C1199 226.972 1198.34 230.455 1197.47 233.891C1194.05 245.306 1179 248.889 1169.33 239.571C1157.02 227.691 1163.35 209.723 1174.4 204.823C1183.53 200.758 1191.42 202.967 1195.59 211.988C1197.08 215.742 1198.38 219.571 1199.47 223.459ZM1189.1 236.452C1191.73 234.429 1193.5 233.074 1192.47 230.717C1189.43 223.774 1186.27 216.869 1182.86 210.094C1182.45 209.485 1181.9 208.984 1181.25 208.635C1180.6 208.286 1179.88 208.099 1179.15 208.09C1177.05 208.591 1177.55 210.725 1178.22 212.229C1181.6 220.099 1185.12 227.877 1189.1 236.508V236.452ZM1170.79 215.774L1169.18 215.923C1168.86 217.779 1167.81 219.876 1168.4 221.324C1170.66 226.576 1173.18 231.712 1175.95 236.712C1176.96 238.568 1178.74 239.589 1181.52 238.16C1177.88 230.624 1174.34 223.199 1170.79 215.774Z" fill="black"/>
<path fill-rule="evenodd" clip-rule="evenodd" d="M1189.1 236.508C1185.18 227.877 1181.67 220.099 1178.13 212.377C1177.46 210.874 1176.96 208.665 1179.05 208.238C1179.79 208.248 1180.51 208.435 1181.16 208.784C1181.8 209.133 1182.35 209.634 1182.77 210.243C1186.18 217.018 1189.34 223.923 1192.38 230.865C1193.49 233.13 1191.73 234.485 1189.1 236.508Z" fill="white"/>
<path fill-rule="evenodd" clip-rule="evenodd" d="M1170.79 215.774C1174.34 223.199 1177.88 230.512 1181.58 238.16C1178.74 239.589 1176.96 238.55 1176.01 236.712C1173.22 231.719 1170.69 226.589 1168.42 221.343C1167.82 219.895 1168.88 217.76 1169.2 215.941L1170.79 215.774Z" fill="white"/>
<path fill-rule="evenodd" clip-rule="evenodd" d="M1073.88 301.864C1063.41 310.811 1055.88 322.486 1048.12 333.716C1040.36 344.946 1032.51 355.564 1022.13 364.046C1020.15 365.739 1017.97 367.197 1015.66 368.39C1016.11 369.364 1016.87 370.163 1017.81 370.665C1018.76 371.168 1019.85 371.347 1020.91 371.174C1023.74 370.805 1026.46 369.803 1028.85 368.241C1032.02 366.343 1034.94 364.055 1037.54 361.429C1046.21 352.427 1054.52 343.09 1063.27 334.143C1071.36 325.827 1079.97 318.069 1093.41 319.479L1102.69 290.875C1092.1 291.055 1081.91 294.943 1073.88 301.864Z" fill="#C15934"/>
<path fill-rule="evenodd" clip-rule="evenodd" d="M1246.38 419.658C1244.04 410.918 1242.23 402.049 1240.94 393.096C1239.29 383.722 1236.63 374.534 1234.27 365.346C1232.18 357.086 1230.34 348.956 1225.53 341.754C1221.65 335.876 1216.64 330.828 1210.79 326.904C1209.61 326.124 1208.4 325.419 1207.08 324.714C1204.39 333.475 1202.89 340.696 1203.26 344.092C1206.83 344.752 1210.35 345.695 1213.78 346.914C1218.96 349.16 1221.5 354.116 1224.01 358.812C1230 369.949 1232.16 382.33 1234.39 394.673C1236.24 404.938 1238.82 415.091 1241.33 425.208C1242.24 428.92 1245.69 432.02 1247.84 431.89C1249.2 431.89 1250.39 430.665 1251.13 428.734C1248.77 426.181 1247.13 423.049 1246.38 419.658Z" fill="#C15934"/>
<path fill-rule="evenodd" clip-rule="evenodd" d="M1254.93 69.3953C1239.88 69.8779 1224.79 65.386 1213.76 54.75C1211.85 52.8857 1210.09 50.8681 1208.51 48.7174C1204.72 53.0114 1201.06 57.4229 1197.5 61.952C1196.45 63.3256 1195.65 64.8848 1194.35 66.8152C1219.11 84.5418 1245.56 94.2125 1275.78 92.8018C1276.06 91.8349 1276.26 90.8483 1276.39 89.8505C1276.39 81.8503 1276.39 73.8502 1276.06 65.8686C1269.19 67.9328 1262.1 69.1178 1254.93 69.3953Z" fill="#C15934"/>
<path fill-rule="evenodd" clip-rule="evenodd" d="M1200.79 86.9177C1210.43 91.9807 1220.34 96.4923 1230.49 100.431C1244.85 105.49 1260.22 106.955 1275.28 104.7C1275.48 102.64 1275.67 100.561 1275.8 98.4446C1260.62 97.6465 1245.91 97.0339 1231.73 92.0408C1217.55 87.0476 1204.76 79.3259 1191.42 71.2144C1190.09 73.1872 1188.9 75.2459 1187.85 77.3769C1187.63 77.8966 1187.43 78.4164 1187.22 78.9361C1191.47 82.0372 1196.02 84.7108 1200.79 86.9177Z" fill="#AAAAAA"/>
<path fill-rule="evenodd" clip-rule="evenodd" d="M1186.98 260.156C1170.53 262.012 1156.84 253.102 1152.12 237.083C1151.51 235.028 1151.05 232.931 1150.75 230.809C1149.7 235.892 1149.97 241.159 1151.55 246.104C1155.17 257.241 1164.19 266.912 1176.46 267.803C1188.28 268.657 1195.5 262.717 1199.57 254.272C1198.59 254.958 1197.58 255.578 1196.52 256.128C1193.42 257.657 1190.24 259.001 1186.98 260.156Z" fill="#AAAAAA"/>
<path fill-rule="evenodd" clip-rule="evenodd" d="M1178.57 158.715C1178.57 158.381 1178.44 158.047 1178.37 157.731C1177.84 162.869 1178.88 168.046 1181.35 172.581C1187.09 183.161 1195.78 188.767 1207.81 189.286C1215.79 189.676 1223.1 187.059 1227.89 181.008C1224.2 182.675 1220.31 183.83 1216.31 184.442C1198.64 187.245 1182.86 176.312 1178.57 158.715Z" fill="#AAAAAA"/>
<path fill-rule="evenodd" clip-rule="evenodd" d="M1006.93 661.259C1022.63 663.728 1040.06 665.881 1054.41 667.162C1055.57 662.169 1056.07 657.045 1055.9 651.922C1055.86 651.795 1055.86 651.66 1055.9 651.533C1055.9 651.31 1055.9 651.087 1055.9 650.846C1055.87 650.701 1055.9 650.553 1055.96 650.423C1056.03 650.293 1056.14 650.187 1056.27 650.122C1068.46 603.439 1079.99 556.57 1092.89 510.073C1099.48 486.332 1106.4 462.684 1113.96 439.241L1114.16 438.647C1113.68 438.602 1113.21 438.509 1112.75 438.368C1110.06 437.551 1107.83 433.598 1108.07 429.087C1108.34 424.994 1108.85 420.922 1109.61 416.892C1110.1 414.089 1110.65 411.323 1111.23 408.502C1106.03 420.809 1100.44 432.967 1095.08 445.069C1085.3 467.065 1074.88 488.819 1065.38 510.945C1047.69 552.041 1031.39 593.712 1015.26 635.421C1015.38 635.53 1015.46 635.674 1015.49 635.83C1015.52 635.987 1015.5 636.149 1015.43 636.293C1012.01 644.405 1009.17 652.748 1006.93 661.259Z" fill="#FFED6E"/>
<path opacity="0.8" fill-rule="evenodd" clip-rule="evenodd" d="M1158.58 410.544C1155.39 426.86 1152.1 443.157 1148.48 459.417C1143.49 481.877 1138.64 504.393 1135.02 527.112C1127.8 572.459 1123.89 618.233 1118.63 663.82C1118.62 663.948 1118.58 664.07 1118.51 664.182C1118.45 664.293 1118.36 664.39 1118.26 664.468C1118.16 664.546 1118.04 664.602 1117.92 664.635C1117.8 664.667 1117.67 664.674 1117.54 664.656C1117.22 666.569 1117.08 668.508 1117.11 670.447C1119.15 670.261 1121.2 670.039 1123.24 669.742C1128.55 668.944 1131.33 666.308 1132.52 661.445C1133.78 656.043 1134.82 650.604 1136.1 645.221C1141.17 625.323 1144.28 604.974 1145.38 584.469C1145.6 579.34 1146.1 574.227 1146.89 569.155C1149.24 553.73 1151.84 538.342 1154.31 522.917C1158.34 497.351 1162.34 471.786 1166.28 446.22C1167.69 437.106 1169.12 427.992 1170.42 418.86C1170.78 416.317 1170.7 413.718 1170.83 410.934L1158.58 410.544Z" fill="#FF5A5A"/>
<path opacity="0.8" fill-rule="evenodd" clip-rule="evenodd" d="M938.064 645.815L940.923 646.576C963.847 607.968 983.615 567.466 1006.28 528.709C1021.47 502.722 1037.14 476.964 1053.28 451.436C1066.46 430.683 1081.81 410.841 1092.87 388.808L1083.83 381.383C1083.01 382.404 1082.44 382.979 1081.97 383.648C1077.35 391.072 1072.9 398.794 1068.11 406.182C1055.38 425.82 1042.33 445.273 1029.7 464.986C1021.52 477.793 1013.8 490.972 1005.94 503.966C993.193 525.07 980.329 546.082 967.874 567.336C957.09 585.786 946.695 604.46 936.319 623.188C934.281 627.199 932.783 631.462 931.864 635.866C930.584 641.695 932.236 644.201 938.064 645.815Z" fill="#FF5A5A"/>
<path d="M1196 163.5L1195.5 165C1196.5 166.5 1200.5 168.5 1203 169.5C1205 170.3 1209.17 171 1210.5 171L1211 169.5H1207.5C1206.17 169.166 1203 168.2 1201 167C1199 165.8 1196.67 164.166 1196 163.5Z" fill="#FFCC5A"/>
<path d="M1229.12 142.708C1229.12 142.708 1224.72 157.273 1220.85 166.202C1219.44 169.462 1212 172 1201.5 166.546C1190.86 161.016 1192.64 153.968 1192.64 153.968L1201.79 135.572L1203.84 131.506C1204.91 129.383 1205.31 128.463 1207.66 129.454C1208.6 129.85 1208.7 129.907 1209.39 130.203L1226.88 137.818C1229.04 138.755 1229.78 140.782 1229.12 142.708Z" fill="#FFCC5A" stroke="black" stroke-width="1.34836" stroke-miterlimit="10"/>
<path d="M1203.02 127.438L1207.61 129.427C1204.8 135.476 1202.56 134.064 1202.56 134.064C1202.86 133.377 1202.82 133.24 1202.46 132.566L1201.57 131.295C1201.5 131.194 1201.57 131.056 1201.69 131.045L1203.85 130.868L1204.18 130.849C1204.54 130.801 1204.58 130.584 1204.47 130.368C1204.47 130.366 1204.47 130.364 1204.47 130.362C1204.01 129.452 1202.81 127.649 1202.81 127.649C1202.75 127.514 1202.89 127.378 1203.02 127.438Z" fill="#FFCC5A"/>
<path d="M1208.81 129.95L1203.02 127.438C1202.89 127.378 1202.75 127.514 1202.81 127.649C1202.81 127.649 1204.01 129.452 1204.47 130.362C1204.47 130.364 1204.47 130.366 1204.47 130.368C1204.58 130.584 1204.54 130.801 1204.18 130.849L1203.85 130.868L1201.69 131.045C1201.57 131.056 1201.5 131.194 1201.57 131.295L1202.46 132.566C1202.82 133.24 1202.86 133.377 1202.56 134.064" stroke="black" stroke-width="1.34836" stroke-miterlimit="10"/>
<path d="M1209.82 159.757C1207.74 158.853 1204.36 159.299 1202.1 157.193C1199.7 154.962 1200.6 160.631 1204.51 162.323C1209.92 164.673 1212.06 160.728 1209.82 159.757Z" fill="white" stroke="black" stroke-width="1.34836"/>
<path d="M1198.26 125.849L1198.92 126.702L1195.55 134.475L1194.79 134.146L1198.26 125.849Z" fill="black" stroke="black" stroke-width="1.34836"/>
<path d="M1195.96 132.423C1194.24 131.676 1191.97 137.356 1191.97 137.356C1191.97 137.356 1191.6 137.862 1193.29 138.591C1194.97 139.32 1195.09 138.71 1195.09 138.71C1195.09 138.71 1197.68 133.169 1195.96 132.423Z" fill="#F9C81E" stroke="black" stroke-width="1.34836"/>
<path d="M1202.19 134.996L1202.89 133.37C1202.89 133.37 1198.01 125.644 1197.03 124.672C1196.04 123.699 1221.96 127.07 1221.96 127.07C1221.96 127.07 1239.51 143.66 1238.64 143.773C1237.77 143.885 1228.41 144.481 1228.41 144.481L1227.82 146.136C1227.61 146.045 1213.08 133.618 1202.19 134.996Z" fill="#3C3C3B" stroke="black" stroke-width="1.34836"/>
<path d="M1201.83 135.845C1201.83 135.845 1203.16 132.742 1204.03 131.738C1205.3 130.283 1213.4 131.336 1218.67 133.717C1223.51 135.902 1229.1 140.674 1228.75 142.957C1228.51 144.478 1227.51 147.062 1227.51 147.062C1227.51 147.062 1212.9 132.611 1201.83 135.845Z" fill="#323232" stroke="black" stroke-width="1.34836"/>
<path d="M1212.47 150.852C1212.74 150.386 1212.81 149.832 1212.68 149.31C1212.54 148.788 1212.2 148.342 1211.74 148.07C1211.27 147.798 1210.72 147.723 1210.19 147.86C1209.67 147.997 1209.23 148.336 1208.95 148.802" stroke="black" stroke-width="1.34836"/>
<circle cx="1218.85" cy="152.52" r="7.1187" transform="rotate(30.2724 1218.85 152.52)" fill="white" stroke="black" stroke-width="1.34836"/>
<circle cx="1202.99" cy="145.906" r="7.1187" transform="rotate(30.2724 1202.99 145.906)" fill="white" stroke="black" stroke-width="1.34836"/>
</svg>
