<svg width="662" height="654" viewBox="0 0 662 654" fill="none" xmlns="http://www.w3.org/2000/svg">
<path d="M0 34.2545C0 16.1146 15.9696 2.08251 33.9803 4.24337C97.304 11.8408 235.781 26.9695 333.492 26.8505C429.491 26.7336 565.425 11.8022 628.028 4.25913C646.043 2.08849 662 16.1245 662 34.2696V601.728C662 616.896 650.654 629.69 635.59 631.466C396.049 659.712 257.004 663.112 25.8255 631.88C11.0191 629.879 0 617.198 0 602.257V34.2545Z" fill="#F6F5F2"/>
<path d="M432 235C419 190 401 167 353 153" stroke="black" stroke-dasharray="10 10"/>
<path d="M205.916 279.699C204.401 300.631 210.256 325.494 226.416 337.021" stroke="black" stroke-dasharray="10 10"/>
<path d="M461.763 450.296C478.098 434.657 487.619 418.658 490.466 392.232" stroke="black" stroke-dasharray="10 10"/>
</svg>
