<svg width="437" height="306" viewBox="0 0 437 306" fill="none" xmlns="http://www.w3.org/2000/svg">
<path d="M190.2 22C191.4 24.1 191.9 26.5 191.5 28.8C189.1 28.5 186.6 28.1 184.2 27.8C184.3 27.1 184.2 26.3 183.8 25.7C185.9 24.4 188 23.2 190.2 22Z" fill="#BC2020"/>
<path d="M177.5 70.6999C176.2 72.0999 174.7 73.1999 173.2 74.0999C172.8 71.1999 171.6 68.6999 170 66.9999C171 66.0999 171.9 64.7999 172.7 63.3999C174.7 65.0999 176.4 67.5999 177.5 70.6999Z" fill="#F7B53C"/>
<path d="M176.3 111.5C176 109.9 175.4 108.5 174.6 107.4C176.6 106.1 178.4 104.1 179.5 101.4C180.7 102.6 181.9 104.1 182.8 105.7C181 108.4 178.7 110.3 176.3 111.5Z" fill="#32AFD6"/>
<path d="M215.3 52.1999C216.7 51.8999 218 51.5999 219.4 51.3999C220.1 54.6999 219.6 58.0999 218.1 61.0999C216.9 60.4999 215.6 59.8999 214.4 59.2999C215.5 56.9999 215.8 54.5999 215.3 52.1999Z" fill="#60CC86"/>
<path d="M291.1 64.2C293.3 64.8 295.3 65.9999 296.7 67.7999C294.9 69.1999 293 70.6999 291.2 72.0999C290.8 71.4999 290.1 71.1 289.5 71C290 68.7 290.6 66.4 291.1 64.2Z" fill="#BC2020"/>
<path d="M241.2 80.9C241.9 82.7 242.3 84.5 242.4 86.2C239.6 85.3 236.9 85.4 234.6 86C234.2 84.7 233.5 83.3 232.5 82.1C235 81 238 80.5 241.2 80.9Z" fill="#F7B53C"/>
<path d="M277.4 99.7C275.9 99.3 274.3 99.2 273 99.4C272.7 97.1 271.6 94.6 269.7 92.4C271.3 91.8 273.1 91.4 275 91.3C276.7 94 277.4 97 277.4 99.7Z" fill="#32AFD6"/>
<path d="M250.6 18C250.9 16.7 251.3 15.3 251.6 14C254.8 14.8 257.7 16.7 259.8 19.3C258.7 20.2 257.6 21 256.5 21.9C255 20 252.9 18.6 250.6 18Z" fill="#60CC86"/>
<path d="M58.2 84C59.4 86.1 59.9 88.5 59.5 90.8C57.1 90.5 54.6 90.1 52.2 89.8C52.3 89.1 52.2 88.3 51.8 87.7C53.9 86.4 56 85.2 58.2 84Z" fill="#BC2020"/>
<path d="M45.5 132.7C44.2 134.1 42.7 135.2 41.2 136.1C40.8 133.2 39.6 130.7 38 129C39 128.1 39.9 126.8 40.7 125.4C42.7 127.1 44.4 129.6 45.5 132.7Z" fill="#F7B53C"/>
<path d="M44.3001 173.5C44.0001 171.9 43.4001 170.5 42.6001 169.4C44.6001 168.1 46.4001 166.1 47.5001 163.4C48.7001 164.6 49.9001 166.1 50.8001 167.7C49.0001 170.4 46.7001 172.3 44.3001 173.5Z" fill="#32AFD6"/>
<path d="M83.2999 114.2C84.6999 113.9 85.9999 113.6 87.3999 113.4C88.0999 116.7 87.5999 120.1 86.0999 123.1C84.8999 122.5 83.5999 121.9 82.3999 121.3C83.4999 119 83.7999 116.6 83.2999 114.2Z" fill="#60CC86"/>
<path d="M159.1 126.2C161.3 126.8 163.3 128 164.7 129.8C162.9 131.2 161 132.7 159.2 134.1C158.8 133.5 158.1 133.1 157.5 133C158 130.7 158.6 128.4 159.1 126.2Z" fill="#BC2020"/>
<path d="M109.2 142.9C109.9 144.7 110.3 146.5 110.4 148.2C107.6 147.3 104.9 147.4 102.6 148C102.2 146.7 101.5 145.3 100.5 144.1C103 143 106 142.5 109.2 142.9Z" fill="#F7B53C"/>
<path d="M145.4 161.7C143.9 161.3 142.3 161.2 141 161.4C140.7 159.1 139.6 156.6 137.7 154.4C139.3 153.8 141.1 153.4 143 153.3C144.7 156 145.4 159 145.4 161.7Z" fill="#32AFD6"/>
<path d="M118.6 80C118.9 78.7 119.3 77.3 119.6 76C122.8 76.8 125.7 78.7 127.8 81.3C126.7 82.2 125.6 83 124.5 83.9C123 82 120.9 80.6 118.6 80Z" fill="#60CC86"/>
<path d="M304.2 117C305.4 119.1 305.9 121.5 305.5 123.8C303.1 123.5 300.6 123.1 298.2 122.8C298.3 122.1 298.2 121.3 297.8 120.7C299.9 119.4 302 118.2 304.2 117Z" fill="#BC2020"/>
<path d="M291.5 165.7C290.2 167.1 288.7 168.2 287.2 169.1C286.8 166.2 285.6 163.7 284 162C285 161.1 285.9 159.8 286.7 158.4C288.7 160.1 290.4 162.6 291.5 165.7Z" fill="#F7B53C"/>
<path d="M290.3 206.5C290 204.9 289.4 203.5 288.6 202.4C290.6 201.1 292.4 199.1 293.5 196.4C294.7 197.6 295.9 199.1 296.8 200.7C295 203.4 292.7 205.3 290.3 206.5Z" fill="#32AFD6"/>
<path d="M329.3 147.2C330.7 146.9 332 146.6 333.4 146.4C334.1 149.7 333.6 153.1 332.1 156.1C330.9 155.5 329.6 154.9 328.4 154.3C329.5 152 329.8 149.6 329.3 147.2Z" fill="#60CC86"/>
<path d="M405.1 159.2C407.3 159.8 409.3 161 410.7 162.8C408.9 164.2 407 165.7 405.2 167.1C404.8 166.5 404.1 166.1 403.5 166C404 163.7 404.6 161.4 405.1 159.2Z" fill="#BC2020"/>
<path d="M355.2 175.9C355.9 177.7 356.3 179.5 356.4 181.2C353.6 180.3 350.9 180.4 348.6 181C348.2 179.7 347.5 178.3 346.5 177.1C349 176 352 175.5 355.2 175.9Z" fill="#F7B53C"/>
<path d="M391.4 194.7C389.9 194.3 388.3 194.2 387 194.4C386.7 192.1 385.6 189.6 383.7 187.4C385.3 186.8 387.1 186.4 389 186.3C390.7 189 391.4 192 391.4 194.7Z" fill="#32AFD6"/>
<path d="M364.6 113C364.9 111.7 365.3 110.3 365.6 109C368.8 109.8 371.7 111.7 373.8 114.3C372.7 115.2 371.6 116 370.5 116.9C369 115 366.9 113.6 364.6 113Z" fill="#60CC86"/>
<path d="M156.105 152.088C156.105 152.088 219.836 136.265 299.5 152.088C299.5 152.088 177.931 186.791 156.105 152.088Z" fill="#0C6ACB" stroke="black" stroke-width="3"/>
<path d="M304.52 270.601C304.52 270.601 263.706 218.329 269.817 218.547C326.127 220.075 354.282 216.801 354.282 216.801L393.35 234.48L304.52 270.601Z" fill="#0C6ACB" stroke="black" stroke-width="2"/>
<path d="M39.7742 197.704L91.9375 187.773C91.9375 187.773 139.954 191.92 182.405 191.92C187.425 191.92 169.528 214.619 164.944 215.273C132.206 219.202 39.7742 197.704 39.7742 197.704Z" fill="#0C6ACB" stroke="black" stroke-width="2"/>
<path d="M286.622 240.373C286.622 240.373 287.059 190.174 299.39 152.088C299.39 152.088 230.64 161.364 155.996 152.088C162.107 168.676 164.944 197.813 164.944 197.813C109.616 207.743 39.7742 197.704 39.7742 197.704C39.7742 197.704 62.8547 275.789 75.6774 287.625C88.5 299.462 361.703 315.126 370.433 288.171C379.163 261.216 395.532 235.571 394.987 235.025C394.441 234.48 344.242 247.466 286.622 240.373Z" fill="#2B94FF" stroke="black" stroke-width="2"/>
<path d="M56.5 244.5C77.78 233.914 105.142 217.128 120.529 201.959C120.311 201.959 120.202 201.959 119.984 201.959C117.474 202.068 115.073 202.068 112.672 202.068C112.563 202.068 112.454 202.068 112.345 202.068C111.144 202.068 109.835 202.068 108.634 202.068C108.525 202.068 108.307 202.068 108.198 202.068C107.325 202.068 106.452 202.068 105.579 202.068C104.924 202.068 104.378 202.068 103.724 202.068C103.615 202.068 103.615 202.068 103.505 202.068C67.8204 201.741 41.5 199 41.5 199C41.5 199 44 208 48.0001 220.5C50.0801 227 53.2262 236.533 56.5 244.5Z" fill="#007EFF"/>
<path d="M333.5 299C346 296.5 358 297.5 369 289C377.884 263.926 391.167 239.936 391.167 239.936C391.167 239.936 390.963 239.936 390.657 240.038C377.892 261.051 354.741 285.803 333.5 299Z" fill="#007EFF"/>
<path d="M219 301C243.324 285.491 269.935 260.097 287.496 241.573C285.532 241.358 285.313 241.573 285.313 238.845C285.313 238.845 285.675 191.086 298 153.5C298 153.5 294.259 154.163 289.132 154.27C244.848 232.351 139.954 272.168 78 288C90 294.5 150 298.5 219 301Z" fill="#007EFF"/>
<path d="M351.553 246.375C334.966 247.248 316.632 246.266 316.632 246.266C316.632 246.266 316.741 256.088 315.541 263.072C316.087 263.072 321.543 263.181 321.543 263.181L319.688 264.818L318.16 272.675L317.505 272.457L308.229 285.771L314.559 288.171C314.777 288.281 314.995 288.39 315.214 288.39C315.432 288.499 315.65 288.499 315.868 288.608C316.087 288.717 316.305 288.717 316.632 288.826C316.851 288.935 317.178 288.935 317.396 288.935L319.361 289.263C319.579 289.263 319.797 289.372 320.015 289.372C320.234 289.372 320.561 289.481 320.779 289.481C320.998 289.481 321.325 289.59 321.543 289.59C321.761 289.59 322.089 289.59 322.307 289.699C322.525 289.699 322.744 289.699 323.071 289.808L324.49 289.918C324.708 289.918 325.035 289.918 325.254 289.918H325.908C326.454 289.918 327.109 289.918 327.654 289.918C328.2 289.918 328.746 289.808 329.291 289.808C329.837 289.808 330.383 289.699 330.928 289.59C331.474 289.481 332.019 289.372 332.565 289.372C333.111 289.263 333.656 289.154 334.202 289.045C334.748 288.935 335.293 288.717 335.73 288.608C336.275 288.39 336.712 288.281 337.258 288.062C337.803 287.844 338.24 287.626 338.676 287.408C339.113 287.189 339.658 286.862 340.095 286.644C340.531 286.316 340.968 286.098 341.404 285.771C341.841 285.443 342.278 285.116 342.605 284.679C343.041 284.352 343.369 283.915 343.696 283.588C344.133 283.152 344.46 282.715 344.787 282.279C345.115 281.842 345.442 281.296 345.77 280.751C346.097 280.205 346.315 279.659 346.534 279.223C346.752 278.677 346.97 278.132 347.079 277.586C347.188 277.15 347.297 276.604 347.407 276.167C347.516 275.622 347.625 275.185 347.625 274.749C347.625 274.203 347.625 273.767 347.625 273.221C347.625 272.675 347.516 272.13 347.407 271.693C347.297 271.257 347.188 270.711 347.079 270.274C346.97 269.838 346.752 269.292 346.534 268.965C346.315 268.528 346.097 268.092 345.77 267.655C345.442 267.219 345.115 266.782 344.787 266.455C344.46 266.128 344.133 265.8 343.805 265.473C343.805 265.473 343.805 265.473 343.696 265.473L349.589 259.362C349.916 258.598 351.444 253.469 351.553 246.375Z" fill="#007EFF"/>
<path d="M145.628 271.038L145.301 265.8L138.862 266.346C138.862 266.346 134.279 266.673 127.404 266.782C124.458 266.782 121.62 266.782 118.783 266.673C119.11 266.346 119.438 266.128 119.656 265.8C120.202 265.255 120.856 264.709 121.402 264.163C121.948 263.618 122.602 262.963 123.257 262.417C123.912 261.762 124.567 261.108 125.112 260.562C125.767 259.907 126.313 259.252 126.967 258.598C127.513 257.943 128.168 257.288 128.714 256.633C129.259 255.979 129.805 255.215 130.35 254.56C130.896 253.796 131.442 253.141 131.987 252.377C132.533 251.614 132.97 250.85 133.515 250.086C133.952 249.322 134.388 248.558 134.825 247.794C135.261 247.03 135.589 246.157 136.025 245.393C136.462 244.52 136.789 243.647 137.007 242.665C137.335 241.792 137.553 240.81 137.662 239.937C137.771 239.064 137.88 238.082 137.989 237.209C137.989 236.226 137.989 235.353 137.88 234.48C137.771 233.607 137.662 232.843 137.444 231.97C137.226 231.097 137.007 230.333 136.68 229.57C136.353 228.806 136.025 228.042 135.589 227.278C135.152 226.514 134.716 225.859 134.17 225.095C133.624 224.441 133.079 223.786 132.533 223.24C131.987 222.695 131.333 222.04 130.678 221.494C130.023 220.948 129.368 220.403 128.604 219.966C127.841 219.53 127.077 219.093 126.313 218.657C125.549 218.329 124.785 217.893 123.912 217.565C123.148 217.238 122.275 216.911 121.402 216.692C120.529 216.474 119.656 216.256 118.783 216.038C117.91 215.819 116.928 215.71 115.946 215.492C114.963 215.383 114.09 215.274 113.108 215.165C112.126 215.056 111.144 215.056 110.271 214.946C109.398 214.946 108.634 214.946 107.761 214.946H107.324C106.342 214.946 105.36 214.946 104.378 215.056C102.741 215.165 101.322 215.274 100.013 215.383C98.5941 215.492 97.1755 215.71 95.9751 215.929C94.6655 216.147 93.356 216.474 92.2647 216.802C91.0643 217.129 89.8639 217.565 88.7726 218.002C87.7904 218.439 86.8083 218.875 85.9353 219.312C85.0622 219.748 84.0801 220.185 83.2071 220.73C82.334 221.167 81.461 221.712 80.6971 222.258C79.8241 222.804 79.0602 223.349 78.2963 223.895L73.9312 227.169L84.4075 244.957L89.7548 240.373C89.973 240.264 90.1913 240.046 90.4095 239.937C90.6278 239.828 90.846 239.609 91.1734 239.5C91.5008 239.282 91.8282 239.173 92.1556 239.064C92.5921 238.846 92.9195 238.736 93.356 238.627C93.7925 238.518 94.229 238.3 94.6655 238.191C95.102 238.082 95.5385 237.972 95.9751 237.863C96.4116 237.754 96.9572 237.645 97.3937 237.645C97.8302 237.536 98.3759 237.536 98.8124 237.536C99.6854 237.536 100.449 237.536 101.213 237.536C101.868 237.536 102.523 237.645 103.068 237.754C103.505 237.863 103.941 237.972 104.378 238.082C104.705 238.191 104.924 238.3 105.142 238.409C105.469 238.627 105.687 238.846 105.906 239.064C106.124 239.282 106.233 239.5 106.451 239.719C106.561 239.937 106.67 240.155 106.779 240.264C106.888 240.482 106.888 240.701 106.888 240.919C106.888 241.137 106.888 241.355 106.888 241.574C106.888 241.792 106.888 242.119 106.779 242.338C106.779 242.665 106.67 242.883 106.561 243.211C106.451 243.538 106.342 243.865 106.233 244.193C106.015 244.629 105.906 244.957 105.687 245.393C105.469 245.83 105.251 246.266 105.033 246.594C104.814 247.03 104.596 247.467 104.269 247.903C104.051 248.34 103.723 248.776 103.396 249.213C103.068 249.649 102.741 250.086 102.523 250.522C102.195 250.959 101.868 251.395 101.541 251.832C101.213 252.268 100.886 252.705 100.449 253.141C100.122 253.578 99.6854 254.014 99.358 254.451C98.9215 254.887 98.485 255.324 98.1576 255.87C97.7211 256.306 97.2846 256.743 96.9572 257.179C96.5207 257.616 96.1933 258.052 95.7568 258.489C95.3203 258.925 94.9929 259.362 94.5564 259.689C94.1199 260.126 93.7925 260.453 93.356 260.889C92.9195 261.326 92.5921 261.653 92.1556 261.981C91.7191 262.308 91.3917 262.745 90.9552 263.072C90.6278 263.399 90.1913 263.727 89.8639 264.054L82.9888 270.384L88.1178 282.715L91.3917 283.152C91.9373 283.261 106.67 284.898 140.827 285.007H149.666L147.047 278.241C146.174 275.731 145.738 272.13 145.628 271.038Z" fill="#007EFF"/>
<path d="M247.772 173.364H228.566L186.661 203.375L201.829 221.817L216.889 212.432L217.871 251.064L197.573 249.099L198.992 271.907L203.03 272.562C210.123 273.762 218.417 274.417 227.911 274.417C245.044 274.417 260.54 272.453 261.195 272.453L265.779 271.907L266.324 248.881L246.245 250.845L247.772 173.364Z" fill="#007EFF"/>
<path d="M345.77 251.504L345.224 255.651L334.529 266.236L335.402 266.346C335.73 266.346 336.057 266.455 336.385 266.455C336.712 266.455 337.039 266.564 337.258 266.673C337.585 266.782 337.803 266.782 338.131 266.891C338.458 267 338.676 267.109 338.895 267.219C339.113 267.328 339.44 267.437 339.658 267.546C339.877 267.655 340.095 267.764 340.313 267.983C340.531 268.092 340.75 268.31 340.968 268.419C341.186 268.637 341.295 268.746 341.514 268.965C341.732 269.183 341.841 269.292 341.95 269.51C342.059 269.729 342.168 269.947 342.277 270.165C342.387 270.383 342.496 270.602 342.605 270.929C342.714 271.147 342.714 271.475 342.823 271.693C342.823 271.911 342.932 272.239 342.932 272.566C342.932 272.893 342.932 273.112 342.932 273.439C342.932 273.766 342.823 274.094 342.823 274.421C342.714 274.748 342.714 275.076 342.605 275.403C342.496 275.84 342.387 276.276 342.168 276.604C342.059 277.04 341.841 277.368 341.623 277.695C341.404 278.022 341.186 278.35 340.968 278.677C340.75 279.004 340.531 279.332 340.204 279.55C339.986 279.877 339.658 280.096 339.331 280.423C339.004 280.641 338.785 280.969 338.458 281.187C338.131 281.405 337.803 281.624 337.476 281.842C337.148 282.06 336.821 282.278 336.494 282.387C336.166 282.606 335.73 282.715 335.402 282.933C335.075 283.042 334.638 283.26 334.202 283.37C333.765 283.479 333.438 283.588 333.002 283.697C332.565 283.806 332.129 283.915 331.692 284.024C331.256 284.133 330.819 284.133 330.382 284.243C329.946 284.352 329.509 284.352 328.964 284.352C328.527 284.352 327.982 284.461 327.545 284.461C327.109 284.461 326.563 284.461 326.126 284.461C325.908 284.461 325.69 284.461 325.472 284.461C325.253 284.461 325.035 284.461 324.817 284.461C324.599 284.461 324.38 284.461 324.162 284.461C323.944 284.461 323.726 284.461 323.507 284.461C323.289 284.461 323.071 284.461 322.853 284.461C322.634 284.461 322.416 284.461 322.198 284.352C321.98 284.352 321.761 284.352 321.543 284.243C321.325 284.243 321.107 284.133 320.888 284.133C320.67 284.133 320.452 284.024 320.234 284.024C320.015 284.024 319.797 283.915 319.688 283.915C319.47 283.915 319.251 283.806 319.142 283.806C318.924 283.806 318.815 283.697 318.597 283.697C318.378 283.697 318.269 283.588 318.051 283.588C317.833 283.588 317.724 283.479 317.505 283.479C317.396 283.479 317.178 283.37 317.069 283.37C316.96 283.37 316.741 283.26 316.632 283.26L319.797 278.677C320.015 278.786 320.234 278.895 320.561 278.895C320.779 279.004 321.107 279.004 321.325 279.114C321.543 279.223 321.87 279.223 322.198 279.332C322.525 279.441 322.744 279.441 323.071 279.55C323.398 279.659 323.726 279.659 324.053 279.768C324.38 279.768 324.708 279.877 325.035 279.877C325.363 279.877 325.69 279.987 326.126 279.987C326.454 279.987 326.89 279.987 327.218 279.987C327.545 279.987 327.763 279.987 328.091 279.987C328.418 279.987 328.636 279.987 328.855 279.877C329.073 279.877 329.4 279.768 329.619 279.768C329.837 279.768 330.164 279.659 330.382 279.659C330.601 279.55 330.819 279.55 331.037 279.441C331.256 279.332 331.474 279.332 331.692 279.223C331.91 279.114 332.129 279.114 332.238 279.004C332.456 278.895 332.565 278.786 332.783 278.677C333.002 278.568 333.111 278.459 333.329 278.35C333.438 278.241 333.656 278.131 333.765 278.022C333.875 277.913 334.093 277.804 334.202 277.695C334.311 277.586 334.42 277.477 334.529 277.258C334.638 277.149 334.748 277.04 334.857 276.822C334.966 276.713 335.075 276.495 335.075 276.385C335.184 276.276 335.184 276.058 335.293 275.949C335.402 275.84 335.402 275.621 335.402 275.512C335.512 275.076 335.512 274.748 335.621 274.421C335.621 274.094 335.621 273.766 335.512 273.439C335.402 273.112 335.293 272.893 335.184 272.675C334.966 272.457 334.748 272.239 334.529 272.02C334.311 271.802 333.984 271.693 333.547 271.475C333.22 271.365 332.674 271.147 332.238 271.147C331.692 271.038 331.146 270.929 330.601 270.929C329.946 270.929 329.291 270.82 328.527 270.82H324.162L324.817 267.437L335.184 257.834L321.543 257.724L321.98 251.286C321.87 251.395 334.638 251.941 345.77 251.504Z" fill="white"/>
<path d="M103.614 219.966C104.487 219.966 105.36 219.857 106.342 219.857C107.215 219.857 108.088 219.857 108.961 219.857C109.834 219.857 110.707 219.966 111.58 220.075C112.453 220.184 113.326 220.294 114.199 220.403C115.072 220.512 115.836 220.73 116.709 220.839C117.473 221.057 118.237 221.167 119.001 221.385C119.765 221.603 120.42 221.821 121.184 222.149C121.838 222.367 122.602 222.694 123.148 223.022C123.803 223.349 124.348 223.677 125.003 224.004C125.549 224.331 126.094 224.768 126.64 225.204C127.186 225.641 127.622 226.077 128.059 226.514C128.495 226.95 128.932 227.496 129.259 227.933C129.696 228.478 130.023 229.024 130.241 229.569C130.569 230.115 130.787 230.661 131.005 231.316C131.223 231.861 131.442 232.516 131.551 233.171C131.66 233.825 131.769 234.48 131.878 235.135C131.987 235.899 131.987 236.554 131.878 237.318C131.878 238.081 131.769 238.736 131.551 239.5C131.442 240.264 131.223 240.919 131.005 241.683C130.787 242.447 130.46 243.101 130.132 243.865C129.805 244.629 129.477 245.284 129.041 245.939C128.713 246.593 128.277 247.357 127.84 248.012C127.404 248.667 126.967 249.322 126.531 249.976C126.094 250.631 125.549 251.286 125.112 251.941C124.567 252.596 124.13 253.25 123.584 253.796C123.039 254.451 122.493 254.996 121.948 255.651C121.402 256.306 120.856 256.852 120.201 257.506C119.656 258.052 119.001 258.707 118.455 259.252C117.91 259.798 117.255 260.344 116.709 260.889C116.164 261.435 115.618 261.981 114.963 262.526C114.418 263.072 113.872 263.508 113.326 264.054C112.781 264.491 112.235 265.036 111.689 265.473C111.689 265.473 107.215 271.038 106.56 270.929C124.239 272.675 139.19 271.475 139.19 271.475C139.19 271.475 139.517 276.167 140.718 279.55C106.56 279.441 92.1555 277.695 92.1555 277.695L89.4273 271.038C89.7547 270.711 90.0821 270.493 90.4094 270.165C90.7368 269.838 91.0642 269.51 91.3916 269.183C91.719 268.856 92.1555 268.528 92.4829 268.201C92.9194 267.873 93.2468 267.546 93.6833 267.11C94.1198 266.782 94.5563 266.346 94.8837 266.018C95.3202 265.582 95.7567 265.254 96.0841 264.818C96.5206 264.381 96.9571 264.054 97.3936 263.617C97.8302 263.181 98.2667 262.744 98.7032 262.308C99.1397 261.871 99.5762 261.435 100.013 260.998C100.449 260.562 100.886 260.125 101.322 259.689C101.759 259.252 102.195 258.816 102.632 258.27C103.068 257.834 103.505 257.288 103.941 256.852C104.378 256.415 104.814 255.869 105.251 255.433C105.687 254.887 106.015 254.451 106.451 253.905C106.888 253.359 107.215 252.923 107.543 252.377C107.87 251.832 108.306 251.395 108.634 250.849C108.961 250.304 109.289 249.867 109.616 249.322C109.943 248.776 110.162 248.34 110.489 247.794C110.816 247.248 111.035 246.812 111.253 246.266C111.471 245.72 111.689 245.284 111.908 244.738C112.126 244.193 112.235 243.756 112.453 243.211C112.562 242.665 112.672 242.228 112.781 241.792C112.89 241.355 112.89 240.81 112.89 240.373C112.89 239.937 112.89 239.5 112.781 239.064C112.672 238.518 112.562 238.081 112.344 237.536C112.126 237.099 111.908 236.554 111.58 236.117C111.253 235.681 110.926 235.244 110.489 234.917C110.053 234.48 109.616 234.153 109.07 233.825C108.525 233.498 107.979 233.171 107.324 232.952C106.67 232.734 105.906 232.516 105.142 232.407C104.378 232.298 103.505 232.189 102.523 232.079C101.541 232.079 100.558 232.079 99.5762 232.079C98.9214 232.079 98.2667 232.189 97.6119 232.189C96.9571 232.298 96.3024 232.407 95.7567 232.516C95.102 232.625 94.5563 232.843 93.9015 232.952C93.2468 233.171 92.7011 233.28 92.0464 233.498C91.5007 233.716 90.8459 233.935 90.3003 234.153C89.7547 234.371 89.209 234.699 88.7725 234.917C88.336 235.135 87.7904 235.462 87.463 235.79C87.0265 236.117 86.5899 236.445 86.2626 236.663L80.697 227.278C81.3518 226.841 82.0066 226.405 82.6613 225.968C83.3161 225.532 84.08 225.095 84.8439 224.659C85.6078 224.222 86.3717 223.895 87.2447 223.458C88.1177 223.131 88.8816 222.694 89.7547 222.367C90.6277 222.04 91.6098 221.712 92.592 221.385C93.5742 221.057 94.6654 220.839 95.8659 220.621C97.0663 220.403 98.2667 220.184 99.5762 220.075C100.886 220.184 102.195 220.075 103.614 219.966Z" fill="white"/>
<path d="M242.425 178.493L240.898 256.411L260.541 254.447L260.104 267.105C260.104 267.105 227.693 271.471 203.794 267.324L203.03 254.665L223.11 256.629L221.691 203.265L202.812 215.051L194.082 204.357L230.203 178.602H242.425V178.493Z" fill="white"/>
<path d="M39.7742 197.704C39.7742 197.704 143.119 204.142 164.944 197.704C164.944 197.704 120.966 210.144 39.7742 197.704Z" fill="black"/>
<path d="M286.622 240.373C286.622 240.373 364.103 243.865 391.713 236.117C391.713 236.008 327.873 251.177 286.622 240.373Z" fill="black"/>
<ellipse cx="120.5" cy="196" rx="30.5" ry="3" fill="#034C98"/>
<path d="M141.86 122.715L146.012 181.197C146.012 181.197 147.918 198.259 108.188 198.259C70.0198 198.259 71.9749 182.258 71.9749 182.258L76.0059 132.909L76.6311 122.206C76.8684 117.4 78.3609 114.894 81.9631 114.185L87.0557 114.185L132.413 114.258C138.537 114.258 141.473 117.941 141.86 122.715Z" fill="#A6CBD9" stroke="black" stroke-width="2.15185" stroke-miterlimit="10"/>
<path d="M135.92 165.729C140.096 171.476 140.1 180.802 140.1 180.802C140.1 180.802 141.891 197.549 108.023 196.94C77.8441 197.397 77.6948 181.411 77.6948 181.411C77.0977 178.061 78.4537 172.191 82.0244 166.643C89.5398 154.966 97.0543 150.818 110.092 150.505C122.235 150.214 128.59 155.645 135.92 165.729Z" fill="#F4F4F4"/>
<path d="M72.9912 175.263C72.9912 175.263 72.6915 174.556 73.4509 173.773C79.2767 177.387 83.7103 173.422 83.5928 174.556C83.5928 174.556 82.3724 177.558 77.4807 177.233C74.8935 176.951 73.7432 177.208 72.9912 175.263Z" fill="black"/>
<path d="M145.304 175.08C145.304 175.08 146.401 173.775 144.544 173.773C138.719 177.388 134.285 173.422 134.403 174.556C134.403 174.556 135.623 177.558 140.515 177.234C143.102 176.951 144.552 177.025 145.304 175.08Z" fill="black"/>
<path d="M72.2304 180.28C72.2304 180.28 72.231 179.666 72.9906 178.702C77.929 182.032 83.3589 178.532 83.2414 179.665C83.2414 179.665 81.3712 182.474 77.0311 182.186C74.3373 182.008 72.9906 181.571 72.2304 180.28Z" fill="black"/>
<path d="M145.764 180.23C145.764 180.23 145.765 179.089 145.004 178.651C140.066 181.982 134.636 178.481 134.753 179.615C134.753 179.615 136.623 182.424 140.964 182.136C143.657 181.957 145.004 181.52 145.764 180.23Z" fill="black"/>
<path d="M71.0522 114.185H82.8437C82.4559 129.704 76.2671 128.769 76.2671 128.769C76.2671 127.027 76.0671 126.765 74.654 125.659L71.5413 123.765C71.29 123.616 71.3035 123.26 71.5602 123.124L76.0671 120.743L76.7561 120.401C77.4938 119.964 77.3749 119.464 76.9426 119.101C76.9372 119.098 76.9344 119.093 76.929 119.09C75.0809 117.573 70.7928 114.831 70.7928 114.831C70.5335 114.601 70.701 114.185 71.0522 114.185Z" fill="#A6CBD9"/>
<path d="M85.9445 114.185H78.4984H71.0522C70.701 114.185 70.5335 114.601 70.7928 114.831C70.7928 114.831 75.0809 117.573 76.929 119.09C76.9344 119.093 76.9371 119.098 76.9426 119.101C77.3749 119.464 77.4938 119.964 76.7561 120.401L76.0671 120.743L71.5602 123.124C71.3035 123.26 71.29 123.616 71.5413 123.765L74.654 125.659C76.0671 126.765 76.2671 127.027 76.2671 128.769" stroke="black" stroke-width="2.1537" stroke-miterlimit="10"/>
<path d="M95.4814 177.519C96.7184 178.93 99.9346 181.753 102.903 181.753C105.872 181.753 108.205 179.989 109 179.107C109.795 179.989 112.128 181.753 115.097 181.753C118.065 181.753 121.281 178.93 122.518 177.519" stroke="black" stroke-width="2.28023" stroke-linecap="round" stroke-linejoin="round"/>
<circle cx="129.043" cy="152.3" r="15.2765" transform="rotate(6.82605 129.043 152.3)" fill="#263238" stroke="black" stroke-width="2.35023"/>
<path d="M129.137 163.715C135.33 163.715 140.35 158.695 140.35 152.503C140.35 146.31 135.33 141.291 129.137 141.291C122.945 141.291 117.925 146.31 117.925 152.503C117.925 158.695 122.945 163.715 129.137 163.715Z" stroke="#EE4623" stroke-width="1.16493" stroke-linecap="round" stroke-linejoin="round"/>
<path d="M129.137 159.791V163.715" stroke="#EE4623" stroke-width="1.16493" stroke-linecap="round" stroke-linejoin="round"/>
<path d="M135.865 152.503H140.35" stroke="#EE4623" stroke-width="1.16493" stroke-linecap="round" stroke-linejoin="round"/>
<path d="M117.925 152.503H121.849" stroke="#EE4623" stroke-width="1.16493" stroke-linecap="round" stroke-linejoin="round"/>
<path d="M129.137 145.215V141.291" stroke="#EE4623" stroke-width="1.16493" stroke-linecap="round" stroke-linejoin="round"/>
<circle cx="89.3277" cy="152.872" r="15.2765" transform="rotate(6.82605 89.3277 152.872)" fill="#263238" stroke="black" stroke-width="2.35023"/>
<path d="M113.969 154.638C114.118 153.4 113.768 152.154 112.998 151.174C112.227 150.194 111.099 149.561 109.861 149.412C108.623 149.264 107.377 149.614 106.397 150.384C105.417 151.155 104.783 152.283 104.635 153.521" stroke="black" stroke-width="2.35023"/>
<path d="M134.517 152.038H133.023C132.811 150.248 131.391 148.828 129.601 148.616V147.122C129.601 147.068 129.557 147.024 129.503 147.024H128.769C128.715 147.024 128.671 147.068 128.671 147.122V148.616C126.881 148.828 125.461 150.248 125.249 152.038H123.755C123.701 152.038 123.657 152.082 123.657 152.136V152.87C123.657 152.924 123.701 152.968 123.755 152.968H125.249C125.461 154.758 126.881 156.178 128.671 156.389V157.884C128.671 157.938 128.715 157.982 128.769 157.982H129.503C129.557 157.982 129.601 157.938 129.601 157.884V156.389C131.391 156.178 132.811 154.758 133.023 152.968H134.517C134.571 152.968 134.615 152.924 134.615 152.87V152.136C134.615 152.082 134.571 152.038 134.517 152.038ZM129.136 155.487C127.487 155.487 126.152 154.151 126.152 152.503C126.152 150.854 127.487 149.519 129.136 149.519C130.785 149.519 132.12 150.854 132.12 152.503C132.12 154.151 130.785 155.487 129.136 155.487Z" fill="#EE4623"/>
<path d="M129.136 151.035C128.744 151.035 128.377 151.187 128.099 151.466C127.822 151.743 127.669 152.11 127.669 152.503C127.669 152.895 127.822 153.262 128.099 153.54C128.377 153.816 128.745 153.97 129.136 153.97C129.528 153.97 129.896 153.817 130.174 153.54C130.45 153.262 130.604 152.894 130.604 152.503C130.604 152.111 130.451 151.743 130.174 151.466C129.896 151.187 129.529 151.035 129.136 151.035Z" fill="#EE4623"/>
<path d="M149.436 107.154L149.436 107.154C153.323 109.896 155.475 112.22 156.645 113.817C157.23 114.616 157.571 115.235 157.762 115.636C157.763 115.639 157.764 115.641 157.765 115.644L142.609 131.01C142.402 130.893 142.154 130.755 141.867 130.598C140.938 130.091 139.606 129.392 137.984 128.62C134.745 127.077 130.326 125.227 125.646 124.03C116.295 121.639 102.286 121.639 92.9351 124.03C88.2551 125.227 83.836 127.077 80.5977 128.62C78.9757 129.392 77.6433 130.091 76.7146 130.598C76.4276 130.755 76.179 130.893 75.9721 131.01L60.8163 115.644C60.8175 115.641 60.8187 115.639 60.8199 115.636C61.0103 115.235 61.3513 114.616 61.9365 113.817C63.1067 112.22 65.2588 109.896 69.1453 107.154C72.3203 104.915 76.0152 104.981 79.5451 105.2C79.7454 105.212 79.9462 105.225 80.1471 105.238C81.6549 105.336 83.1652 105.433 84.4629 105.291C85.968 105.126 87.4236 104.615 88.356 103.218C89.3026 101.799 89.1569 100.065 88.7572 98.466C88.4468 97.224 87.9236 95.8534 87.4066 94.4992C87.2528 94.0964 87.0996 93.695 86.9527 93.2989C86.2909 91.5145 85.7286 89.772 85.5848 88.1286C85.4435 86.5134 85.7116 85.0558 86.6585 83.7693L86.6585 83.7692C88.0036 81.9414 90.0411 80.5337 92.4252 79.4603C94.804 78.3892 97.4651 77.6791 99.9779 77.2115C102.487 76.7447 104.818 76.5249 106.524 76.4222C107.376 76.3709 108.069 76.3489 108.547 76.3398C108.786 76.3352 108.971 76.3338 109.095 76.3336C109.157 76.3335 109.204 76.3336 109.235 76.3338L109.268 76.3341L109.276 76.3341L109.277 76.3342L109.277 76.3342L109.278 76.3342L109.291 76.3343L109.305 76.3342L109.305 76.3342L109.305 76.3342L109.307 76.3341L109.315 76.3341L109.349 76.3338C109.38 76.3336 109.428 76.3335 109.492 76.3336C109.618 76.3338 109.808 76.3352 110.052 76.3398C110.54 76.349 111.247 76.3709 112.116 76.4223C113.856 76.5251 116.232 76.745 118.786 77.2121C121.345 77.68 124.051 78.3906 126.463 79.4624C128.882 80.537 130.938 81.9447 132.281 83.7692C133.222 85.0482 133.471 86.4972 133.3 88.1091C133.125 89.7506 132.522 91.4923 131.815 93.2775C131.659 93.6722 131.496 94.0721 131.333 94.4735C130.781 95.8291 130.223 97.2015 129.885 98.4452C129.451 100.042 129.271 101.787 130.225 103.218L130.226 103.218C131.158 104.615 132.614 105.126 134.119 105.291C135.417 105.433 136.928 105.336 138.436 105.238C138.636 105.225 138.837 105.212 139.037 105.2C142.567 104.981 146.262 104.915 149.436 107.154Z" fill="#353535" stroke="black" stroke-width="2.11532"/>
<path d="M73.2374 108.789C80.948 106.16 89.7282 109.273 91.9979 105.121C94.2675 100.968 89.0314 89.3742 90.4555 85.0536C91.9979 80.3738 101.846 78.2706 109.896 78.2329C118.055 78.1948 127.954 80.3126 129.632 85.0536C131.31 89.7946 125.685 100.595 127.954 104.748C130.224 108.901 141.573 106.458 145.966 108.424C151.994 111.123 153.645 115.455 155.375 118.037L158.246 115.166C158.246 115.166 157.991 111.368 150.155 105.713C143.222 100.709 134.154 106.167 131.445 102.015C128.737 97.8622 137.946 88.5754 133.447 82.3203C127.559 74.1339 109.896 74.3713 109.896 74.3713C109.896 74.3713 92.5853 74.1339 86.6968 82.3203C82.1967 88.5754 91.0539 97.8622 88.346 102.015C85.6381 106.167 76.5704 100.709 69.6358 105.713C61.7995 111.368 60.7896 115.422 60.7896 115.422L63.328 117.747C65.7862 115.145 67.6584 111.211 73.2374 108.789Z" fill="#EC4032" stroke="black" stroke-width="2.11532"/>
<path d="M75.4971 132.032L75.7929 132.332C75.7929 132.332 75.8374 132.305 75.9233 132.255L75.4971 132.032Z" fill="#EC4032"/>
<path d="M121.398 106.925C121.452 106.631 121.353 106.274 121.1 106.121C120.919 106.012 120.701 106.029 120.51 106.089C120.063 106.23 119.706 106.576 119.434 106.974C119.095 107.472 119.003 107.925 118.465 108.163C118.187 108.287 117.853 108.351 117.562 108.452C113.668 109.789 111.953 110.378 109.657 111.165C109.571 111.195 109.485 111.224 109.401 111.252C109.221 111.314 109.046 111.373 108.876 111.432C108.792 111.46 108.707 111.49 108.62 111.519C106.324 112.308 104.608 112.897 100.714 114.232C100.423 114.333 100.121 114.485 99.8255 114.559C99.2547 114.7 98.8969 114.403 98.3165 114.22C97.8523 114.074 97.3546 114.022 96.9157 114.187C96.7297 114.256 96.5468 114.376 96.4737 114.573C96.3719 114.848 96.5214 115.187 96.7488 115.385C96.9761 115.581 97.2608 115.668 97.5374 115.749C97.3498 116.23 97.2735 116.794 97.4579 117.306C97.6424 117.818 98.1337 118.239 98.625 118.188C98.9653 118.153 99.2435 117.908 99.4502 117.628C99.6554 117.346 99.808 117.021 100.015 116.74C100.14 116.569 100.285 116.417 100.431 116.264L109.229 113.244L110.266 112.888L119.063 109.868C119.273 109.898 119.485 109.928 119.691 109.985C120.03 110.079 120.354 110.24 120.693 110.336C121.032 110.432 121.405 110.45 121.693 110.271C122.111 110.011 122.231 109.378 122.051 108.865C121.873 108.351 121.456 107.955 121.006 107.694C121.175 107.462 121.345 107.219 121.398 106.925Z" fill="white"/>
<path d="M97.0874 107.143C97.0286 106.851 97.1192 106.49 97.3688 106.333C97.5485 106.22 97.7664 106.234 97.9572 106.291C98.4055 106.423 98.7713 106.762 99.0495 107.155C99.3977 107.647 99.4979 108.098 100.04 108.326C100.322 108.445 100.655 108.502 100.948 108.598C104.866 109.863 106.593 110.418 108.903 111.165C108.99 111.194 109.075 111.22 109.161 111.247C109.34 111.306 109.517 111.363 109.688 111.418C109.773 111.445 109.859 111.474 109.946 111.502C112.256 112.247 113.983 112.804 117.901 114.069C118.195 114.163 118.499 114.313 118.796 114.38C119.37 114.511 119.722 114.205 120.299 114.012C120.76 113.858 121.258 113.798 121.7 113.952C121.887 114.017 122.072 114.135 122.148 114.329C122.255 114.601 122.111 114.945 121.889 115.147C121.666 115.348 121.382 115.44 121.107 115.526C121.304 116.004 121.39 116.566 121.216 117.081C121.043 117.596 120.558 118.027 120.065 117.984C119.725 117.954 119.44 117.715 119.23 117.438C119.019 117.162 118.861 116.838 118.65 116.561C118.521 116.392 118.373 116.242 118.224 116.093L109.37 113.235L108.327 112.898L99.4725 110.041C99.2626 110.074 99.0527 110.11 98.8476 110.17C98.5105 110.269 98.1893 110.438 97.8522 110.539C97.5151 110.64 97.1431 110.667 96.8505 110.492C96.4275 110.239 96.2972 109.61 96.4657 109.093C96.6342 108.576 97.0429 108.173 97.4881 107.903C97.3196 107.675 97.1462 107.435 97.0874 107.143Z" fill="white"/>
<path fill-rule="evenodd" clip-rule="evenodd" d="M115.903 102.753C116.843 101.434 118.205 99.5466 118.205 97.4799C118.205 93.4005 116.152 89.1772 109.76 89.1772C103.369 89.1772 101.282 93.3994 101.282 97.4799C101.282 99.5392 102.757 101.423 103.599 102.74C103.926 103.246 104.077 104.72 104.077 104.837C104.077 104.924 104.09 105.007 104.108 105.091C104.203 105.752 104.776 106.071 105.482 106.096C105.482 106.096 106.008 106.105 106.087 106.096C106.889 106.004 107.511 105.661 107.595 104.986C107.663 105.654 108.303 106.096 109.743 106.096C111.183 106.096 111.802 105.677 111.887 105.029C112 105.7 112.653 106.031 113.472 106.096C113.529 106.1 114.082 106.096 114.082 106.096C114.828 106.038 115.418 105.632 115.418 104.897L115.406 104.893C115.407 104.87 115.414 104.848 115.414 104.825C115.415 104.696 115.571 103.222 115.903 102.753ZM106.547 98.6962C106.263 98.7052 105.981 98.6571 105.716 98.5549C105.451 98.4527 105.209 98.2984 105.005 98.1012C104.801 97.9039 104.639 97.6678 104.528 97.4069C104.418 97.1459 104.361 96.8654 104.361 96.5819C104.361 96.2985 104.418 96.018 104.528 95.757C104.639 95.496 104.801 95.2599 105.005 95.0627C105.209 94.8655 105.451 94.7112 105.716 94.609C105.981 94.5068 106.263 94.4587 106.547 94.4677C107.097 94.4849 107.619 94.7151 108.002 95.1097C108.386 95.5042 108.6 96.032 108.6 96.5814C108.6 97.1309 108.386 97.6588 108.003 98.0535C107.62 98.4482 107.098 98.6787 106.548 98.6962H106.547ZM109.738 102.766C108.865 102.766 108.156 103.23 108.156 102.578C108.156 101.926 108.865 100.578 109.738 100.578C110.614 100.578 111.321 101.925 111.321 102.578C111.321 103.231 110.614 102.766 109.738 102.766ZM112.905 98.6962C112.627 98.6961 112.352 98.6414 112.094 98.535C111.837 98.4286 111.604 98.2727 111.407 98.0763C111.21 97.8798 111.054 97.6466 110.948 97.3899C110.841 97.1332 110.786 96.8581 110.787 96.5804C110.787 96.3026 110.841 96.0275 110.948 95.7709C111.055 95.5143 111.211 95.2811 111.408 95.0847C111.605 94.8884 111.838 94.7326 112.095 94.6264C112.353 94.5201 112.628 94.4655 112.906 94.4656C113.469 94.4656 114.008 94.6884 114.405 95.0851C114.803 95.4818 115.026 96.0199 115.026 96.5809C115.026 97.1419 114.803 97.6799 114.405 98.0766C114.008 98.4733 113.469 98.6962 112.906 98.6962H112.905Z" fill="white"/>
<ellipse cx="229.5" cy="151" rx="30.5" ry="3" fill="#034C98"/>
<path d="M262.87 75.9867L267.022 134.26C267.022 134.26 268.928 151.261 229.196 151.261C191.024 151.261 192.98 135.316 192.98 135.316L197.011 86.1439L197.636 75.48C198.027 68.8166 205.012 67.4233 208.455 67.5596H253.422C258.369 67.5596 262.483 71.2298 262.87 75.9867Z" fill="#8EBFED" stroke="black" stroke-width="2.16335" stroke-miterlimit="10"/>
<path d="M265.383 128.782C265.799 128.842 266.087 137.091 266.087 137.091C266.087 137.091 269.361 150.51 229.441 150.637C193.419 150.753 193.886 139.136 193.886 139.136C194.198 135.557 194.501 128.624 194.501 128.624C200.651 127.832 217.357 125.466 230.941 125.206C243.594 124.964 257.695 127.673 265.383 128.782Z" fill="#F4F4F4"/>
<path fill-rule="evenodd" clip-rule="evenodd" d="M255.407 125.242C255.522 125.239 255.637 125.237 255.753 125.234C257.683 127.825 260.074 131.568 261.554 135.182C262.363 137.159 262.928 139.164 262.956 140.956C262.97 141.88 262.839 142.775 262.509 143.581C261.701 143.779 260.826 143.979 259.88 144.179L259.839 144.125C260.714 143.46 261.123 142.424 261.101 140.984C261.079 139.525 260.608 137.767 259.838 135.885C258.301 132.132 255.688 128.161 253.743 125.654L254.216 125.287C254.612 125.272 255.009 125.257 255.407 125.242Z" fill="#DFDEDE"/>
<path fill-rule="evenodd" clip-rule="evenodd" d="M249.53 125.312C251.361 128.771 253.531 133.538 254.896 138.132C255.683 140.783 256.217 143.423 256.243 145.744C256.25 146.403 256.217 147.049 256.132 147.67C255.506 147.737 254.869 147.805 254.221 147.871C254.341 147.245 254.397 146.541 254.389 145.764C254.366 143.685 253.882 141.23 253.118 138.66C251.695 133.869 249.349 128.841 247.484 125.421C248.166 125.385 248.848 125.348 249.53 125.312Z" fill="#DFDEDE"/>
<path fill-rule="evenodd" clip-rule="evenodd" d="M242.607 124.379C244.191 128.199 246.052 133.42 247.226 138.446C247.911 141.377 248.371 144.278 248.393 146.814C248.402 147.891 248.333 148.931 248.156 149.895C247.523 149.941 246.882 149.986 246.233 150.03C246.448 149.128 246.549 148.055 246.539 146.83C246.518 144.484 246.09 141.731 245.421 138.868C244.214 133.703 242.254 128.297 240.651 124.508C241.304 124.465 241.956 124.422 242.607 124.379Z" fill="#DFDEDE"/>
<path fill-rule="evenodd" clip-rule="evenodd" d="M235.747 124.116C237.137 128.091 238.712 133.314 239.725 138.35C240.349 141.452 240.766 144.513 240.786 147.183C240.793 148.146 240.749 149.079 240.637 149.957C240.016 149.98 239.389 150.003 238.756 150.025C238.881 149.19 238.939 148.243 238.931 147.197C238.913 144.691 238.519 141.757 237.907 138.716C236.87 133.559 235.225 128.18 233.814 124.212C234.46 124.181 235.104 124.149 235.747 124.116Z" fill="#DFDEDE"/>
<path fill-rule="evenodd" clip-rule="evenodd" d="M204.698 126.809L205.177 127.101C203.647 129.607 201.586 133.581 200.371 137.346C199.763 139.232 199.385 141.014 199.367 142.507C199.349 144.012 199.696 145.074 200.366 145.72L200.33 145.757C199.426 145.517 198.603 145.278 197.855 145.041C197.599 144.247 197.502 143.375 197.513 142.485C197.534 140.729 197.971 138.748 198.607 136.777C199.781 133.135 201.69 129.355 203.219 126.761C203.71 126.776 204.203 126.792 204.698 126.809Z" fill="#DFDEDE"/>
<path fill-rule="evenodd" clip-rule="evenodd" d="M211.535 125.94C210.141 129.144 208.392 133.846 207.328 138.33C206.755 140.742 206.39 143.054 206.373 145.019C206.363 146.148 206.469 147.112 206.686 147.898C206.015 147.81 205.361 147.721 204.724 147.63C204.57 146.804 204.511 145.916 204.519 145.003C204.538 142.845 204.935 140.383 205.523 137.902C206.553 133.561 208.198 129.052 209.576 125.804C210.226 125.849 210.879 125.894 211.535 125.94Z" fill="#DFDEDE"/>
<path fill-rule="evenodd" clip-rule="evenodd" d="M219.859 124.077C217.987 127.989 215.688 133.597 214.276 138.953C213.498 141.905 213.001 144.739 212.977 147.15C212.967 148.228 213.051 149.191 213.233 150.028C212.589 149.99 211.952 149.952 211.323 149.913C211.173 149.033 211.114 148.096 211.123 147.132C211.149 144.506 211.686 141.507 212.483 138.48C213.852 133.289 216.021 127.899 217.865 123.956C218.528 123.996 219.192 124.037 219.859 124.077Z" fill="#DFDEDE"/>
<path fill-rule="evenodd" clip-rule="evenodd" d="M225.278 125.362C224.061 129.138 222.651 134.219 221.758 139.091C221.226 141.996 220.883 144.8 220.867 147.196C220.86 148.249 220.916 149.196 221.038 150.024C220.404 150.003 219.778 149.981 219.158 149.959C219.049 149.084 219.006 148.15 219.013 147.183C219.03 144.638 219.392 141.718 219.934 138.757C220.808 133.988 222.163 129.041 223.364 125.258C224 125.294 224.638 125.328 225.278 125.362Z" fill="#DFDEDE"/>
<path fill-rule="evenodd" clip-rule="evenodd" d="M230.769 123.964C230.67 128.176 230.633 133.785 230.788 139.156C230.882 142.393 231.046 145.533 231.306 148.222C231.389 149.074 231.481 149.874 231.582 150.613C230.97 150.625 230.347 150.633 229.714 150.637C229.62 149.931 229.537 149.185 229.462 148.41C229.195 145.663 229.03 142.478 228.936 139.218C228.78 133.835 228.816 128.219 228.915 123.987C229.399 123.99 229.886 123.986 230.376 123.974C230.507 123.971 230.638 123.968 230.769 123.964Z" fill="#DFDEDE"/>
<path d="M230.404 133.307C238.686 133.307 257.831 135.518 266.152 137.148L263.84 85.2917C263.429 81.2177 262.484 72.8951 261.991 72.1967C261.498 71.4983 257.882 69.2281 256.136 68.1803C239.084 68.1221 204.537 67.8415 202.823 68.8787C201.229 69.8433 199.228 72.8945 198.509 74.4659L193.886 137.148C202.823 135.926 219.618 133.307 230.404 133.307Z" fill="#7CAAD4"/>
<ellipse cx="230.326" cy="69.8496" rx="5.38148" ry="3.21927" fill="#558DC1"/>
<path d="M262.87 75.9859L267.022 134.259C267.022 134.259 268.929 151.26 229.196 151.26C191.025 151.26 192.98 135.316 192.98 135.316L197.011 86.1431L197.636 75.4792C197.855 71.7493 199.926 68.6423 202.5 67.5589C204.63 67.5591 206.852 67.559 208.456 67.5588H253.422C258.369 67.5588 262.483 71.229 262.87 75.9859Z" stroke="black" stroke-width="2.16335" stroke-miterlimit="10"/>
<path d="M192.052 67.5623H203.843C203.456 83.1832 197.267 82.2422 197.267 82.2422C197.267 80.4885 197.067 80.2252 195.654 79.1114L192.541 77.205C192.29 77.0549 192.303 76.6967 192.56 76.5598L197.067 74.1636L197.756 73.8187C198.494 73.3789 198.375 72.876 197.942 72.51C197.937 72.5074 197.934 72.5021 197.929 72.4995C196.081 70.9722 191.793 68.2127 191.793 68.2127C191.533 67.9809 191.701 67.5623 192.052 67.5623Z" fill="#7CAAD4"/>
<path d="M206.944 67.5623H199.498H192.052C191.701 67.5623 191.533 67.9809 191.793 68.2127C191.793 68.2127 196.081 70.9722 197.929 72.4995C197.934 72.5021 197.937 72.5074 197.942 72.51C198.375 72.876 198.494 73.3789 197.756 73.8187L197.067 74.1636L192.56 76.5598C192.303 76.6967 192.29 77.0549 192.541 77.205L195.654 79.1114C197.067 80.2252 197.267 80.4885 197.267 82.2422" stroke="black" stroke-width="2.16296" stroke-miterlimit="10"/>
<path d="M239.452 129.916C234.094 129.916 227.193 134.002 220.32 131.599C213.038 129.053 220.32 140.324 230.351 140.324C244.282 140.324 245.21 129.916 239.452 129.916Z" fill="white" stroke="black" stroke-width="1.85874"/>
<path d="M217.924 50.197C215.116 48.8304 212.837 43.0013 211.235 43.0186C209.632 43.0358 208.634 49.3374 206.344 52.206C210.517 52.563 214.328 51.8235 217.924 50.197Z" fill="#DAA640" stroke="black" stroke-width="2.12257"/>
<path d="M251.708 53.5505C248.948 51.3383 248.048 44.2039 246.506 44.2206C244.964 44.2372 242.557 49.6479 240.09 52.0129C244.079 53.3859 247.788 54.6117 251.708 53.5505Z" fill="#D9A640" stroke="black" stroke-width="2.12257"/>
<path d="M196.811 48.061L196.811 48.0623C197.662 52.6087 198.934 57.0117 200.227 61.4846C200.707 63.147 201.19 64.819 201.655 66.5117L201.656 66.5147C201.731 66.79 201.785 66.854 201.79 66.8595C201.791 66.8607 201.792 66.8612 201.793 66.862C201.794 66.8629 201.799 66.8667 201.809 66.8729C201.831 66.8853 201.885 66.912 201.994 66.9398C207.357 68.3016 212.672 69.5476 218.068 70.0233C225.623 70.6869 233.184 70.673 240.729 69.8333L240.729 69.8333C245.776 69.2737 250.801 68.616 255.786 67.7465L255.789 67.746C256.472 67.6284 256.809 67.4552 257.007 67.2763C257.196 67.1067 257.399 66.8055 257.549 66.1376L196.811 48.061ZM196.811 48.061C196.741 47.6939 196.709 47.363 196.679 46.986M196.811 48.061L196.679 46.986M196.679 46.986C197.688 47.4777 198.657 47.9089 199.612 48.3337C200.427 48.6961 201.231 49.0539 202.041 49.4406L202.041 49.4409C205.494 51.0883 209.065 51.6974 212.97 51.0157L212.972 51.0153C217.239 50.2634 221.397 49.0341 225.034 46.2099L196.679 46.986ZM256.014 69.0517C257.631 68.7732 258.469 68.096 258.842 66.4254C259.319 64.2722 259.874 62.1382 260.428 60.0038C260.905 58.17 261.382 56.3359 261.809 54.4891C262.295 52.4145 262.689 50.319 263.097 48.1512C263.179 47.7172 263.261 47.2804 263.344 46.8403L256.014 69.0517ZM256.014 69.0517C250.992 69.9276 245.938 70.5887 240.875 71.1501L256.014 69.0517ZM261.845 47.6365C261.826 47.7379 261.807 47.8391 261.788 47.94C261.383 50.0925 260.998 52.1414 260.519 54.1871L260.518 54.1905C260.095 56.0189 259.623 57.8362 259.145 59.6734C259.106 59.8226 259.068 59.972 259.029 60.1215C258.514 62.1038 257.998 64.1092 257.549 66.1361L261.845 47.6365ZM261.845 47.6365C261.609 47.7598 261.375 47.8802 261.141 47.9976C260.771 48.1851 260.4 48.3746 260.027 48.565C258.518 49.3356 256.983 50.1198 255.42 50.8373L255.418 50.8383C251.908 52.4418 248.328 52.5733 244.662 52.027L261.845 47.6365ZM228.564 42.7022C227.522 43.9344 226.387 45.1606 225.034 46.2095L228.564 42.7022ZM228.564 42.7022C228.662 42.8499 228.784 43.03 228.924 43.2073C232.958 48.3978 238.298 51.0833 244.662 52.0269C244.662 52.0269 244.661 52.0269 244.661 52.0268L228.564 42.7022Z" fill="#030101" stroke="black" stroke-width="2.64985"/>
<path d="M202.624 68.2127C207.902 69.5763 213.216 70.8473 218.635 71.3341C226.14 72.0057 233.66 71.9938 241.172 71.1451C246.157 70.5847 251.118 69.9248 256.054 69.0501C257.644 68.7719 258.475 68.095 258.835 66.425C259.705 62.4232 260.841 58.4876 261.749 54.493C262.434 51.4836 264.546 45.3436 263.574 45.1755C263.246 44.9622 261.832 46.0317 260.504 46.8209C258.711 47.8864 256.81 48.7571 254.924 49.6374C251.768 51.1071 248.531 51.2418 245.082 50.7184C239.1 49.8154 234.282 46.7691 230.553 41.8878C230.116 41.3167 229.89 40.5775 228.982 40.7263C228.089 40.8726 226.299 44.0422 224.626 45.1145C221.294 47.7378 217.617 48.9719 213.509 49.7071C209.96 50.3365 206.722 49.7879 203.549 48.2404C201.014 47.0085 196.223 43.3117 195.845 44.3701C195.589 44.6364 196.298 47.0062 196.566 48.3002C197.765 54.1016 199.689 60.6893 201.364 66.8519C201.545 67.5563 201.822 68.0063 202.624 68.2127Z" fill="#EEDB49" stroke="black" stroke-width="2.12257"/>
<path d="M229.304 64.8994C231.693 64.5109 233.437 62.298 233.391 59.7069C233.352 58.5066 233.134 57.3341 232.471 56.296C231.571 54.889 230.173 54.3771 228.562 54.8436C226.39 55.4631 225.123 57.2044 225.218 59.4235C225.278 60.8395 225.641 62.1919 226.297 63.4547C226.981 64.7949 227.789 65.1404 229.304 64.8994Z" fill="#F04F48" stroke="black" stroke-width="1.51612"/>
<path d="M247.144 64.3679C248.86 63.961 249.551 63.0321 249.487 61.0814C249.464 60.8829 249.45 60.5849 249.394 60.2964C248.887 57.6278 246.553 56.867 244.012 58.5476C243.811 58.6853 243.622 58.8409 243.443 58.9964C241.949 60.2592 241.718 61.5264 242.71 62.9341C243.67 64.2879 245.269 64.8037 247.144 64.3679Z" fill="#EF4E47" stroke="black" stroke-width="1.51612"/>
<path d="M214.863 64.1297C215.996 63.7111 216.568 62.5452 216.53 60.9299C216.481 59.1562 215.497 57.5511 214.285 57.2568C213.205 56.9909 211.697 58.1173 210.999 59.6811C210.458 60.916 210.757 62.5285 211.714 63.4598C212.609 64.3225 213.679 64.5588 214.863 64.1297Z" fill="#EE4E47" stroke="black" stroke-width="1.51612"/>
<path d="M192.844 96.3277C194.852 96.3189 196.86 96.3027 198.869 96.3027C221.483 96.3017 244.099 96.3027 266.713 96.3036C267.36 96.3036 267.361 96.3041 267.361 96.9582C267.36 98.9578 267.347 100.958 267.367 102.957C267.371 103.359 267.3 103.513 266.859 103.491C266.024 103.449 265.185 103.497 264.349 103.466C263.908 103.45 263.722 103.548 263.748 104.043C263.792 104.898 263.734 105.757 263.769 106.613C263.786 107.051 263.626 107.16 263.224 107.149C262.337 107.125 261.45 107.153 260.563 107.131C260.225 107.122 260.139 107.235 260.147 107.563C260.169 108.486 260.146 109.411 260.16 110.335C260.166 110.657 260.069 110.77 259.731 110.761C258.812 110.737 257.89 110.767 256.97 110.745C256.641 110.737 256.535 110.83 256.542 111.165C256.563 112.072 256.534 112.98 256.557 113.887C256.567 114.248 256.491 114.376 256.094 114.375C250.871 114.361 245.649 114.363 240.426 114.372C240.088 114.373 239.96 114.301 239.971 113.933C240 113.026 239.963 112.118 239.993 111.211C240.007 110.821 239.877 110.734 239.51 110.744C238.59 110.771 237.669 110.743 236.748 110.759C236.466 110.764 236.378 110.682 236.383 110.394C236.4 109.47 236.366 108.545 236.4 107.622C236.415 107.205 236.271 107.118 235.889 107.129C234.986 107.157 234.081 107.127 233.178 107.151C232.823 107.16 232.72 107.042 232.724 106.69C232.74 105.178 232.72 103.666 232.739 102.154C232.743 101.802 232.647 101.699 232.294 101.703C230.805 101.722 229.315 101.721 227.825 101.704C227.466 101.699 227.37 101.828 227.373 102.17C227.387 103.682 227.367 105.195 227.387 106.707C227.392 107.066 227.284 107.157 226.938 107.148C226.068 107.123 225.196 107.161 224.327 107.127C223.898 107.111 223.742 107.207 223.764 107.674C223.805 108.562 223.759 109.455 223.783 110.344C223.791 110.685 223.68 110.766 223.359 110.759C222.472 110.738 221.584 110.773 220.698 110.743C220.295 110.728 220.145 110.814 220.163 111.254C220.201 112.16 220.162 113.069 220.182 113.976C220.188 114.284 220.104 114.372 219.791 114.371C214.535 114.362 209.279 114.362 204.023 114.37C203.693 114.371 203.586 114.265 203.592 113.936C203.61 113.012 203.582 112.087 203.607 111.163C203.616 110.821 203.499 110.741 203.183 110.747C202.262 110.763 201.341 110.737 200.421 110.76C200.085 110.768 199.987 110.662 199.993 110.333C200.011 109.409 199.985 108.484 200.007 107.56C200.015 107.231 199.924 107.123 199.59 107.13C198.687 107.152 197.782 107.128 196.879 107.148C196.532 107.155 196.408 107.047 196.416 106.688C196.436 105.798 196.399 104.906 196.426 104.017C196.439 103.604 196.326 103.451 195.898 103.465C194.995 103.494 194.09 103.473 193.186 103.48C192.969 103.481 192.816 103.488 192.819 103.177C192.839 100.893 192.84 98.6077 192.847 96.3228L192.844 96.3277Z" fill="black"/>
<path d="M256.098 115.158C256.096 115.158 256.093 115.158 256.09 115.158C251.393 115.145 246.416 115.144 240.426 115.155C240.24 115.154 239.815 115.156 239.493 114.823C239.171 114.49 239.185 114.05 239.189 113.906C239.203 113.473 239.201 113.026 239.2 112.593C239.198 112.246 239.197 111.891 239.203 111.534C238.794 111.54 238.386 111.539 237.988 111.537C237.58 111.536 237.171 111.535 236.762 111.542C236.626 111.545 236.215 111.551 235.903 111.238C235.591 110.925 235.599 110.514 235.602 110.379C235.609 109.988 235.607 109.597 235.605 109.207C235.603 108.786 235.6 108.353 235.609 107.92C235.228 107.927 234.848 107.926 234.48 107.925C234.057 107.924 233.621 107.923 233.197 107.934C233.051 107.938 232.607 107.949 232.272 107.617C231.936 107.284 231.941 106.83 231.943 106.68C231.951 105.949 231.95 105.217 231.95 104.485C231.949 103.828 231.949 103.171 231.954 102.515C230.746 102.633 229.47 102.633 228.157 102.516C228.16 103.095 228.16 103.674 228.159 104.253C228.158 105.055 228.157 105.883 228.168 106.696C228.17 106.844 228.176 107.295 227.844 107.622C227.513 107.949 227.076 107.936 226.915 107.932C226.521 107.92 226.113 107.923 225.719 107.925C225.338 107.927 224.948 107.929 224.555 107.919C224.567 108.342 224.564 108.761 224.56 109.17C224.557 109.55 224.554 109.944 224.564 110.324C224.568 110.467 224.579 110.903 224.255 111.23C223.93 111.557 223.503 111.547 223.341 111.543C222.947 111.535 222.539 111.536 222.146 111.538C221.756 111.541 221.356 111.543 220.954 111.534C220.965 111.964 220.962 112.392 220.96 112.809C220.957 113.192 220.955 113.576 220.963 113.959C220.966 114.098 220.975 114.521 220.664 114.838C220.353 115.157 219.93 115.158 219.789 115.156C214.754 115.146 209.598 115.146 204.024 115.155C203.875 115.155 203.446 115.155 203.123 114.825C202.8 114.496 202.808 114.063 202.811 113.921C202.82 113.498 202.818 113.074 202.816 112.651C202.815 112.285 202.813 111.911 202.818 111.535C202.508 111.538 202.198 111.537 201.888 111.535C201.411 111.534 200.919 111.532 200.44 111.544C200.297 111.548 199.858 111.559 199.529 111.23C199.2 110.903 199.209 110.463 199.212 110.318C199.22 109.881 199.218 109.444 199.217 109.007C199.216 108.652 199.215 108.287 199.219 107.922C198.877 107.926 198.537 107.925 198.204 107.925C197.767 107.924 197.332 107.923 196.895 107.933C196.745 107.936 196.295 107.946 195.958 107.608C195.621 107.269 195.631 106.819 195.634 106.671C195.643 106.263 195.64 105.842 195.637 105.435C195.634 105.05 195.631 104.655 195.638 104.258C195.142 104.268 194.646 104.267 194.162 104.265C193.839 104.264 193.515 104.263 193.191 104.265C192.987 104.266 192.624 104.269 192.331 103.974C192.132 103.775 192.034 103.505 192.036 103.171C192.052 101.434 192.057 98.4405 192.059 97.234C192.061 96.3035 192.816 95.5428 193.743 95.5379L194.758 95.5325C196.128 95.5252 197.497 95.5173 198.867 95.5173C216.958 95.5168 235.05 95.5173 253.143 95.5178L266.712 95.5183C267.147 95.5183 267.522 95.5183 267.833 95.8321C268.141 96.1434 268.141 96.521 268.141 96.9576C268.14 97.4879 268.139 98.0177 268.138 98.5481C268.135 99.9913 268.132 101.484 268.147 102.949C268.149 103.169 268.154 103.628 267.803 103.966C267.452 104.305 266.977 104.281 266.819 104.273C266.397 104.252 265.974 104.255 265.528 104.258C265.204 104.26 264.872 104.262 264.538 104.255C264.549 104.642 264.546 105.025 264.542 105.397C264.537 105.806 264.533 106.193 264.549 106.58C264.555 106.74 264.575 107.227 264.221 107.588C263.903 107.912 263.488 107.94 263.203 107.932C262.768 107.92 262.319 107.921 261.886 107.922C261.574 107.923 261.255 107.924 260.935 107.92C260.94 108.308 260.938 108.695 260.937 109.073C260.936 109.489 260.935 109.905 260.941 110.321C260.943 110.465 260.951 110.903 260.621 111.231C260.29 111.559 259.852 111.548 259.711 111.544C259.254 111.532 258.783 111.534 258.328 111.535C258.001 111.536 257.666 111.537 257.329 111.534C257.332 111.858 257.331 112.181 257.33 112.496C257.328 112.947 257.326 113.413 257.338 113.865C257.342 114.051 257.354 114.487 257.028 114.822C256.735 115.122 256.359 115.158 256.098 115.158ZM248.087 113.578C250.796 113.578 253.322 113.582 255.768 113.588C255.763 113.218 255.765 112.85 255.766 112.49C255.768 112.059 255.77 111.614 255.759 111.182C255.756 111.038 255.746 110.6 256.072 110.273C256.399 109.945 256.842 109.956 256.986 109.959C257.428 109.97 257.882 109.969 258.321 109.967C258.666 109.965 259.019 109.964 259.373 109.969C259.371 109.668 259.372 109.368 259.373 109.069C259.374 108.579 259.376 108.073 259.364 107.58C259.36 107.418 259.35 106.986 259.677 106.658C260.004 106.331 260.44 106.342 260.581 106.346C261.009 106.356 261.452 106.355 261.88 106.354C262.239 106.354 262.608 106.352 262.977 106.359C262.97 106.028 262.974 105.7 262.978 105.381C262.982 104.931 262.987 104.507 262.965 104.083C262.957 103.915 262.93 103.402 263.296 103.029C263.621 102.698 264.042 102.669 264.375 102.682C264.749 102.696 265.121 102.693 265.515 102.69C265.863 102.687 266.221 102.685 266.582 102.695C266.57 101.308 266.573 99.9054 266.575 98.5456C266.576 98.0595 266.577 97.5738 266.578 97.0877L253.143 97.0872C235.05 97.0867 216.959 97.0862 198.867 97.0867C197.5 97.0867 196.133 97.0946 194.767 97.1019L193.751 97.1073C193.68 97.1078 193.622 97.1658 193.622 97.236C193.621 98.3369 193.615 100.924 193.603 102.694C193.791 102.694 193.98 102.695 194.167 102.696C194.728 102.697 195.309 102.699 195.871 102.681C196.029 102.676 196.513 102.661 196.87 103.018C197.19 103.339 197.215 103.756 197.206 104.042C197.192 104.496 197.196 104.967 197.199 105.422C197.202 105.729 197.204 106.043 197.201 106.358C197.536 106.354 197.871 106.355 198.205 106.355C198.653 106.356 199.118 106.357 199.57 106.346C199.713 106.342 200.147 106.332 200.473 106.659C200.8 106.987 200.79 107.432 200.787 107.578C200.776 108.049 200.777 108.533 200.779 109.001C200.78 109.323 200.781 109.646 200.778 109.968C201.153 109.964 201.527 109.965 201.893 109.966C202.318 109.968 202.743 109.969 203.168 109.961C203.328 109.958 203.754 109.951 204.078 110.278C204.402 110.607 204.39 111.041 204.387 111.183C204.374 111.666 204.376 112.163 204.377 112.644C204.378 112.958 204.379 113.271 204.377 113.584C209.67 113.576 214.591 113.577 219.394 113.586C219.393 113.323 219.394 113.061 219.396 112.798C219.399 112.276 219.403 111.783 219.382 111.286C219.375 111.126 219.355 110.639 219.704 110.287C220.053 109.934 220.522 109.95 220.723 109.958C221.188 109.974 221.669 109.971 222.135 109.969C222.416 109.967 222.704 109.965 222.993 109.968C222.991 109.694 222.993 109.422 222.995 109.155C223 108.655 223.004 108.183 222.981 107.709C222.973 107.544 222.95 107.04 223.307 106.677C223.664 106.316 224.147 106.334 224.355 106.343C224.799 106.36 225.241 106.357 225.708 106.355C226 106.353 226.299 106.351 226.6 106.355C226.593 105.65 226.594 104.94 226.594 104.251C226.595 103.559 226.596 102.867 226.589 102.176C226.588 102.02 226.584 101.547 226.948 101.213C227.333 100.859 227.865 100.911 228.092 100.934C229.41 101.064 230.685 101.068 231.882 100.945C232.262 100.906 232.781 100.853 233.167 101.207C233.526 101.536 233.52 101.991 233.518 102.162C233.508 102.936 233.509 103.71 233.51 104.484C233.51 105.109 233.511 105.734 233.506 106.359C233.835 106.354 234.161 106.355 234.481 106.356C234.937 106.357 235.407 106.358 235.863 106.344C236.042 106.339 236.513 106.324 236.857 106.672C237.201 107.02 237.184 107.494 237.178 107.65C237.16 108.16 237.163 108.688 237.165 109.198C237.167 109.455 237.168 109.711 237.167 109.968C237.446 109.967 237.719 109.968 237.992 109.969C238.483 109.97 238.991 109.972 239.485 109.958C239.657 109.953 240.116 109.94 240.455 110.281C240.792 110.622 240.777 111.084 240.772 111.235C240.756 111.68 240.758 112.141 240.76 112.586C240.761 112.913 240.763 113.248 240.758 113.585C243.374 113.581 245.796 113.578 248.087 113.578ZM192.841 97.2345H192.843H192.841Z" fill="black"/>
<path d="M242.658 110.805C242.173 110.805 241.688 110.79 241.204 110.81C240.905 110.823 240.788 110.735 240.794 110.418C240.811 109.462 240.809 108.504 240.794 107.548C240.79 107.248 240.876 107.133 241.191 107.138C242.177 107.155 243.163 107.152 244.15 107.14C244.406 107.137 244.5 107.207 244.496 107.477C244.483 108.467 244.481 109.458 244.497 110.448C244.502 110.749 244.382 110.82 244.113 110.812C243.629 110.797 243.143 110.808 242.659 110.808C242.658 110.807 242.658 110.806 242.658 110.805Z" fill="#FDFDFD"/>
<path d="M244.151 110.935C244.137 110.935 244.122 110.935 244.108 110.935C243.769 110.924 243.423 110.926 243.088 110.929C242.945 110.93 242.802 110.931 242.658 110.931C242.648 110.931 242.64 110.93 242.631 110.928C242.496 110.928 242.36 110.926 242.224 110.925C241.89 110.921 241.546 110.918 241.209 110.933C241.075 110.939 240.906 110.931 240.793 110.821C240.679 110.709 240.669 110.536 240.671 110.416C240.687 109.516 240.687 108.579 240.672 107.55C240.67 107.415 240.681 107.246 240.792 107.136C240.903 107.024 241.076 107.014 241.192 107.016C242.07 107.031 243.009 107.031 244.147 107.018C244.274 107.015 244.414 107.027 244.511 107.125C244.609 107.223 244.619 107.366 244.618 107.479C244.603 108.541 244.603 109.511 244.618 110.446C244.621 110.623 244.585 110.743 244.503 110.824C244.408 110.918 244.27 110.935 244.151 110.935ZM243.515 110.681C243.715 110.681 243.916 110.683 244.116 110.689C244.229 110.692 244.301 110.679 244.331 110.649C244.362 110.619 244.376 110.552 244.374 110.45C244.359 109.513 244.358 108.54 244.373 107.476C244.374 107.384 244.363 107.322 244.339 107.298C244.314 107.273 244.253 107.26 244.151 107.263C243.01 107.277 242.069 107.276 241.189 107.262C241.072 107.26 240.999 107.276 240.965 107.31C240.93 107.345 240.914 107.422 240.916 107.546C240.932 108.578 240.931 109.518 240.916 110.42C240.914 110.536 240.93 110.612 240.964 110.645C240.999 110.679 241.074 110.693 241.198 110.688C241.542 110.673 241.889 110.676 242.226 110.679C242.37 110.681 242.513 110.682 242.657 110.682C242.667 110.682 242.675 110.683 242.684 110.685C242.818 110.685 242.952 110.684 243.086 110.683C243.227 110.682 243.371 110.681 243.515 110.681Z" fill="black"/>
<path d="M244.573 105.321C244.572 104.835 244.589 104.348 244.567 103.862C244.553 103.568 244.668 103.475 244.94 103.477C245.926 103.483 246.911 103.483 247.897 103.476C248.153 103.475 248.263 103.586 248.262 103.836C248.26 104.842 248.26 105.848 248.262 106.854C248.262 107.117 248.123 107.196 247.879 107.194C246.911 107.188 245.942 107.187 244.973 107.194C244.679 107.196 244.554 107.09 244.567 106.779C244.589 106.294 244.573 105.807 244.573 105.321Z" fill="#FDFDFD"/>
<path d="M244.962 107.318C244.842 107.318 244.674 107.303 244.562 107.185C244.474 107.094 244.436 106.964 244.445 106.774C244.459 106.436 244.456 106.088 244.453 105.753C244.452 105.609 244.45 105.465 244.45 105.321C244.45 105.175 244.452 105.029 244.453 104.882C244.456 104.549 244.46 104.204 244.444 103.868C244.435 103.689 244.47 103.565 244.552 103.479C244.657 103.369 244.817 103.354 244.931 103.354C244.934 103.354 244.937 103.354 244.94 103.354C245.921 103.36 246.915 103.36 247.895 103.354C248.052 103.352 248.178 103.393 248.262 103.476C248.344 103.558 248.384 103.676 248.384 103.837C248.382 104.843 248.382 105.848 248.384 106.855C248.384 107.004 248.346 107.115 248.266 107.194C248.154 107.307 247.982 107.318 247.878 107.318C246.855 107.311 245.904 107.311 244.973 107.318C244.969 107.318 244.966 107.318 244.962 107.318ZM244.932 103.6C244.826 103.6 244.76 103.616 244.728 103.649C244.696 103.682 244.682 103.752 244.687 103.857C244.703 104.2 244.7 104.548 244.697 104.885C244.696 105.03 244.694 105.176 244.694 105.321C244.694 105.464 244.696 105.607 244.697 105.751C244.7 106.089 244.704 106.44 244.689 106.785C244.684 106.899 244.7 106.977 244.737 107.016C244.775 107.055 244.847 107.074 244.971 107.073C245.903 107.066 246.855 107.066 247.879 107.073C247.881 107.073 247.883 107.073 247.885 107.073C247.989 107.073 248.058 107.055 248.093 107.021C248.124 106.991 248.139 106.935 248.139 106.856C248.137 105.849 248.137 104.843 248.139 103.837C248.139 103.746 248.123 103.684 248.089 103.65C248.055 103.617 247.987 103.6 247.897 103.6C246.915 103.606 245.92 103.607 244.939 103.6C244.937 103.6 244.934 103.6 244.932 103.6Z" fill="black"/>
<path d="M240.661 105.358C240.661 105.862 240.653 106.365 240.665 106.869C240.671 107.108 240.582 107.197 240.344 107.195C239.357 107.188 238.37 107.188 237.383 107.193C237.131 107.195 237.023 107.1 237.025 106.837C237.034 105.829 237.038 104.821 237.023 103.814C237.018 103.531 237.139 103.477 237.38 103.478C238.367 103.484 239.354 103.486 240.341 103.476C240.581 103.474 240.668 103.56 240.663 103.796C240.653 104.317 240.66 104.837 240.661 105.358Z" fill="#FDFDFD"/>
<path d="M240.353 107.318C240.35 107.318 240.347 107.318 240.343 107.318C239.44 107.311 238.472 107.31 237.383 107.316C237.21 107.316 237.1 107.279 237.019 107.198C236.939 107.117 236.901 106.999 236.903 106.835C236.911 105.884 236.916 104.859 236.9 103.815C236.898 103.654 236.932 103.543 237.007 103.466C237.106 103.367 237.26 103.355 237.381 103.355C238.522 103.362 239.462 103.362 240.34 103.353C240.439 103.352 240.584 103.362 240.682 103.461C240.778 103.559 240.787 103.7 240.785 103.798C240.778 104.178 240.78 104.558 240.781 104.938L240.783 105.358C240.783 105.513 240.782 105.67 240.782 105.825C240.78 106.172 240.779 106.519 240.787 106.866C240.789 106.965 240.781 107.108 240.683 107.208C240.589 107.305 240.451 107.318 240.353 107.318ZM238.823 107.067C239.354 107.067 239.859 107.069 240.345 107.072C240.42 107.073 240.485 107.06 240.509 107.036C240.539 107.005 240.544 106.93 240.542 106.872C240.534 106.523 240.536 106.173 240.537 105.824C240.538 105.669 240.538 105.513 240.538 105.358L240.537 104.939C240.535 104.557 240.533 104.175 240.54 103.793C240.542 103.712 240.531 103.657 240.508 103.633C240.484 103.609 240.43 103.6 240.342 103.598C239.464 103.607 238.522 103.608 237.379 103.6C237.265 103.6 237.207 103.611 237.181 103.639C237.156 103.664 237.143 103.724 237.144 103.811C237.16 104.858 237.155 105.884 237.147 106.837C237.146 106.93 237.161 106.993 237.192 107.024C237.223 107.055 237.276 107.065 237.382 107.071C237.886 107.068 238.365 107.067 238.823 107.067Z" fill="black"/>
<path d="M242.684 103.517C242.182 103.517 241.681 103.509 241.18 103.521C240.946 103.526 240.855 103.448 240.858 103.203C240.869 102.213 240.867 101.223 240.859 100.234C240.857 99.9782 240.956 99.8696 241.213 99.8716C242.216 99.8785 243.218 99.8814 244.221 99.8746C244.484 99.8726 244.565 99.9787 244.562 100.236C244.55 101.209 244.548 102.182 244.562 103.154C244.567 103.443 244.468 103.533 244.188 103.523C243.687 103.504 243.185 103.518 242.684 103.517Z" fill="#FDFDFD"/>
<path d="M244.232 103.646C244.215 103.646 244.199 103.646 244.183 103.645C243.834 103.632 243.477 103.635 243.132 103.638C242.982 103.639 242.831 103.641 242.683 103.64L242.252 103.639C241.895 103.637 241.538 103.635 241.182 103.644C241.086 103.646 240.938 103.638 240.842 103.541C240.744 103.444 240.734 103.301 240.735 103.202C240.745 102.327 240.745 101.384 240.737 100.235C240.736 100.066 240.773 99.9484 240.855 99.8664C240.935 99.7859 241.043 99.7495 241.214 99.7485C242.381 99.7564 243.336 99.7574 244.22 99.7515C244.391 99.7505 244.493 99.7863 244.571 99.8644C244.673 99.9675 244.685 100.118 244.684 100.237C244.671 101.317 244.671 102.271 244.684 103.153C244.686 103.277 244.674 103.433 244.568 103.538C244.476 103.628 244.345 103.646 244.232 103.646ZM243.57 103.39C243.777 103.39 243.985 103.392 244.192 103.4C244.297 103.403 244.368 103.391 244.398 103.362C244.427 103.332 244.442 103.263 244.44 103.155C244.427 102.272 244.427 101.316 244.44 100.234C244.441 100.132 244.427 100.066 244.398 100.037C244.371 100.01 244.314 99.996 244.227 99.996C244.226 99.996 244.224 99.996 244.222 99.996C243.337 100.002 242.38 100.001 241.212 99.9931C241.124 99.996 241.059 100.008 241.029 100.039C240.998 100.071 240.981 100.135 240.982 100.232C240.991 101.382 240.99 102.327 240.981 103.203C240.98 103.287 240.992 103.343 241.015 103.365C241.037 103.388 241.091 103.4 241.178 103.397C241.537 103.389 241.896 103.39 242.254 103.392L242.684 103.393C242.828 103.388 242.982 103.392 243.131 103.391C243.275 103.391 243.422 103.39 243.57 103.39Z" fill="black"/>
<path d="M248.389 108.949C248.389 108.464 248.401 107.977 248.384 107.492C248.375 107.231 248.46 107.138 248.723 107.14C249.708 107.151 250.693 107.151 251.677 107.139C251.937 107.136 252.026 107.218 252.022 107.483C252.01 108.471 252.007 109.46 252.023 110.448C252.028 110.754 251.895 110.813 251.633 110.811C250.682 110.803 249.731 110.801 248.78 110.812C248.481 110.816 248.367 110.719 248.384 110.407C248.408 109.922 248.39 109.435 248.389 108.949Z" fill="#FDFDFD"/>
<path d="M248.761 110.935C248.632 110.935 248.476 110.918 248.371 110.809C248.26 110.693 248.255 110.52 248.262 110.401C248.279 110.063 248.275 109.717 248.271 109.382C248.269 109.238 248.267 109.094 248.267 108.95C248.267 108.803 248.268 108.656 248.269 108.509C248.272 108.177 248.274 107.833 248.262 107.496C248.258 107.38 248.266 107.233 248.365 107.131C248.466 107.027 248.628 107.019 248.725 107.018C249.725 107.029 250.718 107.029 251.676 107.017C251.788 107.015 251.938 107.027 252.036 107.126C252.135 107.225 252.146 107.37 252.145 107.485C252.131 108.589 252.131 109.558 252.145 110.447C252.148 110.618 252.112 110.736 252.032 110.816C251.928 110.922 251.766 110.934 251.633 110.934C250.531 110.924 249.625 110.925 248.781 110.935C248.775 110.935 248.768 110.935 248.761 110.935ZM248.712 107.263C248.623 107.263 248.566 107.276 248.54 107.302C248.514 107.329 248.503 107.391 248.507 107.488C248.519 107.829 248.516 108.176 248.514 108.511C248.513 108.657 248.512 108.803 248.512 108.95C248.512 109.093 248.513 109.236 248.515 109.379C248.519 109.718 248.523 110.068 248.506 110.413C248.5 110.527 248.514 110.603 248.547 110.638C248.581 110.674 248.652 110.69 248.778 110.689C249.623 110.679 250.531 110.679 251.634 110.688C251.762 110.686 251.827 110.675 251.858 110.643C251.888 110.613 251.902 110.548 251.9 110.45C251.886 109.558 251.886 108.587 251.9 107.481C251.901 107.385 251.889 107.324 251.863 107.299C251.838 107.273 251.778 107.258 251.679 107.262C250.719 107.274 249.724 107.274 248.722 107.263C248.719 107.263 248.716 107.263 248.712 107.263Z" fill="black"/>
<path d="M213.934 107.145C214.418 107.145 214.902 107.156 215.386 107.141C215.647 107.132 215.778 107.18 215.772 107.491C215.754 108.479 215.757 109.467 215.77 110.455C215.773 110.721 215.674 110.811 215.422 110.81C214.438 110.803 213.454 110.799 212.47 110.806C212.204 110.808 212.13 110.693 212.133 110.441C212.143 109.453 212.146 108.465 212.132 107.476C212.128 107.202 212.23 107.133 212.482 107.141C212.966 107.156 213.45 107.145 213.934 107.145Z" fill="#FDFDFD"/>
<path d="M215.431 110.933C215.428 110.933 215.424 110.933 215.421 110.933C214.26 110.924 213.322 110.923 212.471 110.929C212.469 110.929 212.466 110.929 212.464 110.929C212.308 110.929 212.2 110.893 212.125 110.816C212.022 110.713 212.01 110.561 212.012 110.44C212.023 109.287 212.023 108.346 212.011 107.478C212.009 107.373 212.019 107.221 212.12 107.121C212.22 107.023 212.37 107.014 212.487 107.018C212.826 107.029 213.172 107.026 213.508 107.024C213.65 107.023 213.793 107.022 213.935 107.022C214.076 107.022 214.217 107.023 214.358 107.024C214.695 107.026 215.042 107.029 215.382 107.017C215.53 107.012 215.681 107.022 215.783 107.123C215.863 107.202 215.898 107.319 215.895 107.492C215.879 108.367 215.879 109.308 215.894 110.453C215.895 110.559 215.885 110.713 215.781 110.818C215.68 110.919 215.535 110.933 215.431 110.933ZM213.581 110.68C214.137 110.68 214.742 110.682 215.423 110.687C215.517 110.69 215.578 110.674 215.606 110.645C215.635 110.616 215.649 110.553 215.648 110.457C215.633 109.31 215.634 108.366 215.649 107.489C215.651 107.392 215.638 107.326 215.61 107.299C215.573 107.262 215.466 107.261 215.389 107.263C215.043 107.275 214.694 107.273 214.355 107.27C214.073 107.268 213.79 107.268 213.508 107.27C213.171 107.272 212.822 107.274 212.478 107.264C212.38 107.26 212.316 107.272 212.291 107.297C212.266 107.321 212.253 107.383 212.255 107.476C212.267 108.345 212.268 109.288 212.256 110.443C212.255 110.549 212.268 110.614 212.297 110.644C212.324 110.671 212.374 110.682 212.469 110.684C212.822 110.681 213.189 110.68 213.581 110.68Z" fill="black"/>
<path d="M210.208 103.48C210.676 103.48 211.143 103.492 211.61 103.475C211.919 103.465 212.016 103.591 212.012 103.891C211.999 104.846 212 105.801 212.012 106.756C212.016 107.045 211.937 107.197 211.625 107.195C210.657 107.188 209.688 107.188 208.72 107.196C208.465 107.198 208.364 107.106 208.367 106.844C208.376 105.839 208.377 104.833 208.365 103.828C208.362 103.571 208.443 103.469 208.706 103.476C209.207 103.49 209.707 103.48 210.208 103.48Z" fill="#FDFDFD"/>
<path d="M208.711 107.319C208.606 107.319 208.46 107.305 208.359 107.204C208.279 107.124 208.243 107.009 208.245 106.843C208.255 105.769 208.254 104.783 208.243 103.829C208.242 103.71 208.254 103.56 208.356 103.459C208.458 103.358 208.606 103.351 208.71 103.353C209.063 103.364 209.423 103.361 209.771 103.359C209.917 103.358 210.063 103.357 210.209 103.357C210.348 103.357 210.488 103.358 210.627 103.359C210.948 103.362 211.281 103.365 211.606 103.353C211.792 103.346 211.918 103.384 212.006 103.471C212.125 103.588 212.136 103.767 212.134 103.893C212.122 104.825 212.122 105.787 212.134 106.755C212.136 106.896 212.124 107.073 212.006 107.191C211.921 107.277 211.799 107.312 211.623 107.318C210.602 107.311 209.653 107.311 208.721 107.319C208.718 107.319 208.714 107.319 208.711 107.319ZM208.68 103.598C208.603 103.598 208.552 103.61 208.527 103.634C208.5 103.661 208.486 103.726 208.487 103.827C208.498 104.782 208.499 105.77 208.489 106.845C208.488 106.939 208.502 107.001 208.531 107.03C208.561 107.06 208.625 107.072 208.719 107.073C209.652 107.065 210.603 107.065 211.625 107.072C211.724 107.074 211.796 107.054 211.833 107.018C211.874 106.977 211.892 106.894 211.89 106.758C211.878 105.788 211.878 104.823 211.89 103.889C211.892 103.763 211.874 103.684 211.836 103.646C211.799 103.61 211.724 103.594 211.615 103.597C211.284 103.609 210.949 103.607 210.625 103.604C210.34 103.602 210.056 103.602 209.772 103.604C209.422 103.606 209.06 103.608 208.703 103.598C208.695 103.598 208.687 103.598 208.68 103.598Z" fill="black"/>
<path d="M208.233 108.975C208.233 109.443 208.212 109.914 208.24 110.381C208.262 110.731 208.106 110.815 207.801 110.812C206.85 110.804 205.898 110.804 204.947 110.812C204.697 110.814 204.587 110.742 204.59 110.47C204.602 109.465 204.602 108.459 204.592 107.454C204.589 107.205 204.69 107.14 204.918 107.142C205.92 107.151 206.922 107.151 207.923 107.144C208.162 107.142 208.241 107.233 208.234 107.469C208.22 107.971 208.229 108.473 208.229 108.975C208.231 108.975 208.232 108.975 208.233 108.975Z" fill="#FDFDFD"/>
<path d="M204.934 110.934C204.817 110.934 204.675 110.919 204.578 110.821C204.5 110.743 204.466 110.631 204.468 110.467C204.479 109.508 204.48 108.522 204.469 107.454C204.468 107.358 204.478 107.219 204.573 107.124C204.668 107.028 204.802 107.016 204.919 107.018C205.926 107.026 206.936 107.026 207.922 107.019C208.021 107.02 208.16 107.029 208.255 107.127C208.352 107.225 208.359 107.371 208.357 107.471C208.346 107.824 208.349 108.185 208.351 108.534C208.351 108.671 208.352 108.807 208.352 108.944C208.355 108.954 208.356 108.963 208.356 108.973C208.356 109.114 208.354 109.256 208.352 109.397C208.347 109.718 208.343 110.049 208.363 110.371C208.374 110.563 208.337 110.701 208.25 110.795C208.131 110.92 207.942 110.932 207.801 110.933C206.832 110.925 205.872 110.925 204.948 110.933C204.943 110.934 204.939 110.934 204.934 110.934ZM204.909 107.264C204.823 107.264 204.768 107.275 204.745 107.297C204.723 107.32 204.712 107.373 204.713 107.451C204.724 108.522 204.723 109.509 204.712 110.47C204.711 110.56 204.723 110.62 204.75 110.647C204.779 110.676 204.836 110.689 204.945 110.688C205.869 110.68 206.831 110.68 207.801 110.688C207.941 110.688 208.03 110.67 208.071 110.626C208.109 110.586 208.124 110.505 208.117 110.387C208.097 110.056 208.101 109.719 208.106 109.394C208.107 109.264 208.109 109.133 208.11 109.003C208.107 108.994 208.106 108.984 208.106 108.974C208.106 108.828 208.106 108.682 208.105 108.537C208.103 108.186 208.101 107.823 208.111 107.465C208.113 107.38 208.102 107.322 208.08 107.299C208.058 107.277 208.006 107.266 207.928 107.266C207.926 107.266 207.924 107.266 207.923 107.266C206.935 107.273 205.924 107.272 204.917 107.264C204.914 107.264 204.911 107.264 204.909 107.264Z" fill="black"/>
<path d="M200.777 105.319C200.776 104.831 200.796 104.343 200.77 103.857C200.754 103.561 200.86 103.473 201.138 103.476C202.108 103.485 203.079 103.483 204.05 103.477C204.301 103.476 204.412 103.565 204.409 103.831C204.4 104.822 204.399 105.814 204.409 106.805C204.412 107.088 204.302 107.197 204.025 107.195C203.055 107.188 202.084 107.187 201.113 107.196C200.846 107.198 200.767 107.083 200.773 106.831C200.786 106.327 200.777 105.822 200.777 105.319Z" fill="#FEFEFE"/>
<path d="M201.105 107.318C200.949 107.318 200.837 107.28 200.761 107.203C200.656 107.096 200.648 106.937 200.651 106.827C200.66 106.467 200.658 106.099 200.655 105.743L200.654 105.319C200.654 105.172 200.655 105.025 200.657 104.879C200.661 104.546 200.665 104.2 200.647 103.864C200.641 103.75 200.645 103.585 200.75 103.475C200.854 103.366 201.013 103.355 201.139 103.354C202.205 103.364 203.254 103.359 204.049 103.355C204.162 103.356 204.31 103.366 204.415 103.473C204.495 103.552 204.532 103.67 204.53 103.833C204.521 104.847 204.521 105.846 204.53 106.804C204.532 106.984 204.493 107.108 204.408 107.194C204.323 107.28 204.213 107.319 204.023 107.319C202.962 107.311 202.01 107.312 201.113 107.32C201.111 107.318 201.108 107.318 201.105 107.318ZM200.899 105.318L200.9 105.741C200.902 106.099 200.904 106.469 200.895 106.833C200.893 106.935 200.906 107.001 200.935 107.031C200.963 107.059 201.023 107.075 201.112 107.073C202.01 107.064 202.963 107.064 204.026 107.072C204.136 107.073 204.199 107.055 204.235 107.02C204.27 106.984 204.287 106.912 204.286 106.806C204.276 105.846 204.276 104.845 204.286 103.83C204.287 103.737 204.273 103.675 204.242 103.645C204.212 103.615 204.15 103.6 204.055 103.6C204.054 103.6 204.052 103.6 204.05 103.6C203.254 103.605 202.204 103.609 201.136 103.599C201.03 103.598 200.956 103.613 200.927 103.643C200.898 103.674 200.885 103.744 200.891 103.851C200.91 104.195 200.906 104.544 200.902 104.881C200.9 105.027 200.899 105.173 200.899 105.318Z" fill="black"/>
<path d="M198.874 99.8769C199.358 99.8769 199.842 99.8848 200.325 99.8735C200.563 99.8681 200.696 99.9108 200.693 100.198C200.68 101.203 200.682 102.208 200.695 103.213C200.698 103.458 200.619 103.525 200.382 103.522C199.381 103.511 198.38 103.511 197.379 103.522C197.146 103.524 197.058 103.461 197.061 103.212C197.073 102.207 197.076 101.202 197.06 100.197C197.056 99.9079 197.186 99.8681 197.422 99.8735C197.906 99.8853 198.39 99.8774 198.874 99.8769Z" fill="#FDFDFD"/>
<path d="M200.398 103.644C200.393 103.644 200.388 103.644 200.382 103.644C199.426 103.634 198.416 103.634 197.381 103.644C197.264 103.644 197.132 103.634 197.04 103.542C196.948 103.45 196.938 103.316 196.94 103.21C196.953 102.103 196.953 101.118 196.939 100.198C196.937 100.038 196.97 99.9292 197.046 99.854C197.143 99.7573 197.288 99.7485 197.426 99.7499C197.77 99.7583 198.112 99.7563 198.456 99.7548L198.875 99.7534L199.31 99.7544C199.648 99.7558 199.986 99.7573 200.324 99.7494C200.467 99.7465 200.609 99.7568 200.708 99.8555C200.784 99.9311 200.818 100.04 200.816 100.199C200.804 101.158 200.805 102.143 200.818 103.211C200.82 103.318 200.81 103.452 200.719 103.543C200.633 103.63 200.51 103.644 200.398 103.644ZM198.877 103.391C199.391 103.391 199.895 103.394 200.385 103.399C200.491 103.398 200.532 103.384 200.546 103.37C200.557 103.359 200.575 103.324 200.574 103.214C200.56 102.145 200.559 101.158 200.571 100.196C200.572 100.112 200.56 100.055 200.536 100.03C200.501 99.9955 200.401 99.994 200.33 99.9955C199.989 100.003 199.649 100.001 199.309 100L198.875 99.9994L198.458 100.001C198.111 100.003 197.766 100.004 197.421 99.996C197.344 99.9935 197.251 99.996 197.218 100.029C197.194 100.052 197.182 100.111 197.184 100.195C197.198 101.117 197.198 102.105 197.184 103.213C197.183 103.321 197.202 103.357 197.213 103.369C197.228 103.383 197.271 103.399 197.379 103.398C197.885 103.393 198.386 103.391 198.877 103.391ZM198.875 99.8761H198.878H198.875Z" fill="black"/>
<path d="M206.442 103.517C205.941 103.517 205.44 103.51 204.94 103.521C204.728 103.525 204.645 103.458 204.647 103.235C204.656 102.213 204.655 101.192 204.651 100.169C204.65 99.9506 204.746 99.8745 204.952 99.875C205.97 99.8789 206.988 99.8799 208.006 99.874C208.23 99.8726 208.295 99.9811 208.295 100.182C208.293 101.204 208.288 102.226 208.298 103.248C208.301 103.487 208.19 103.522 207.994 103.519C207.477 103.512 206.959 103.517 206.442 103.517Z" fill="#FDFDFD"/>
<path d="M204.92 103.644C204.823 103.644 204.708 103.63 204.625 103.548C204.534 103.458 204.524 103.326 204.525 103.235C204.533 102.337 204.535 101.363 204.529 100.171C204.529 100.032 204.563 99.9295 204.633 99.8588C204.726 99.765 204.857 99.7532 204.949 99.7532C204.95 99.7532 204.952 99.7532 204.953 99.7532C205.971 99.7572 206.989 99.7586 208.006 99.7527C208.152 99.7513 208.241 99.7856 208.312 99.8559C208.408 99.9521 208.418 100.089 208.418 100.183L208.417 100.499C208.415 101.4 208.413 102.332 208.422 103.248C208.423 103.383 208.392 103.481 208.326 103.547C208.238 103.634 208.117 103.645 207.993 103.643C207.622 103.637 207.251 103.638 206.881 103.639L206.443 103.64L206.005 103.639C205.652 103.638 205.297 103.637 204.944 103.644C204.936 103.644 204.927 103.644 204.92 103.644ZM204.95 99.9987C204.9 99.9987 204.834 100.005 204.807 100.032C204.78 100.059 204.774 100.122 204.774 100.17C204.78 101.364 204.778 102.339 204.77 103.237C204.769 103.332 204.787 103.363 204.797 103.373C204.807 103.384 204.839 103.401 204.939 103.399C205.294 103.391 205.651 103.393 206.007 103.394L206.444 103.395L206.881 103.394C207.253 103.393 207.625 103.392 207.998 103.397C208.083 103.398 208.137 103.39 208.154 103.373C208.162 103.366 208.179 103.339 208.178 103.251C208.169 102.333 208.171 101.4 208.174 100.499L208.175 100.183C208.175 100.104 208.164 100.053 208.14 100.03C208.114 100.003 208.056 99.9943 208.009 99.9983C206.99 100.004 205.972 100.003 204.953 99.9987C204.952 99.9987 204.951 99.9987 204.95 99.9987Z" fill="black"/>
<path d="M233.434 101.664C233.434 101.177 233.44 100.69 233.431 100.204C233.426 99.9906 233.445 99.8644 233.72 99.8693C234.672 99.886 235.625 99.884 236.576 99.8712C236.86 99.8673 236.953 99.9606 236.949 100.248C236.934 101.221 236.931 102.194 236.95 103.167C236.956 103.47 236.841 103.527 236.572 103.523C235.654 103.509 234.734 103.505 233.815 103.524C233.502 103.531 233.411 103.426 233.424 103.123C233.445 102.637 233.43 102.15 233.43 101.664C233.431 101.664 233.432 101.664 233.434 101.664Z" fill="#FDFDFD"/>
<path d="M233.784 103.647C233.658 103.647 233.51 103.629 233.41 103.527C233.302 103.416 233.295 103.25 233.301 103.117C233.316 102.78 233.313 102.434 233.31 102.1C233.308 101.954 233.307 101.809 233.307 101.663C233.307 101.653 233.308 101.642 233.311 101.632L233.312 101.246C233.313 100.899 233.314 100.553 233.307 100.207C233.305 100.069 233.31 99.9374 233.402 99.8446C233.471 99.7749 233.576 99.741 233.721 99.7464C234.59 99.7616 235.524 99.7626 236.574 99.7484C236.698 99.7474 236.852 99.7582 236.957 99.8633C237.061 99.9689 237.073 100.125 237.071 100.249C237.054 101.319 237.054 102.272 237.072 103.164C237.075 103.341 237.041 103.455 236.962 103.534C236.862 103.635 236.713 103.647 236.57 103.645C235.504 103.629 234.629 103.63 233.817 103.646C233.806 103.647 233.796 103.647 233.784 103.647ZM233.551 101.695C233.551 101.829 233.553 101.963 233.554 102.097C233.558 102.435 233.561 102.784 233.545 103.128C233.54 103.248 233.553 103.322 233.585 103.355C233.618 103.388 233.694 103.406 233.812 103.401C234.627 103.384 235.505 103.384 236.574 103.4C236.692 103.402 236.762 103.39 236.79 103.362C236.816 103.335 236.829 103.268 236.828 103.169C236.81 102.274 236.81 101.318 236.827 100.246C236.828 100.138 236.814 100.067 236.784 100.037C236.754 100.007 236.682 99.9914 236.578 99.9939C235.525 100.008 234.589 100.008 233.717 99.9919C233.608 99.987 233.583 100.011 233.576 100.018C233.55 100.044 233.552 100.151 233.553 100.202C233.56 100.55 233.559 100.898 233.557 101.247L233.556 101.663C233.556 101.674 233.554 101.685 233.551 101.695ZM233.433 101.663H233.436H233.433Z" fill="black"/>
<ellipse cx="337.5" cy="236" rx="30.5" ry="3" fill="#034C98"/>
<path d="M377.87 161.715L382.023 220.197C382.023 220.197 383.929 237.259 344.196 237.259C306.025 237.259 307.98 221.258 307.98 221.258L312.011 171.908L312.637 161.206C312.963 155.616 312.963 153.257 318.982 153.193C321.389 153.168 321.667 153.193 323.426 153.193L368.422 153.257C373.982 153.257 377.483 156.941 377.87 161.715Z" fill="#FFCC5A" stroke="black" stroke-width="2.15329" stroke-miterlimit="10"/>
<path d="M307.052 153.185H318.844C318.456 168.704 312.267 167.769 312.267 167.769C312.267 166.027 312.067 165.765 310.654 164.658L307.542 162.765C307.29 162.615 307.304 162.26 307.56 162.124L312.067 159.743L312.756 159.401C313.494 158.964 313.375 158.464 312.943 158.1C312.937 158.098 312.935 158.093 312.929 158.09C311.081 156.573 306.793 153.831 306.793 153.831C306.534 153.601 306.701 153.185 307.052 153.185Z" fill="#FFCC5A"/>
<path d="M321.945 153.185H307.052C306.701 153.185 306.534 153.601 306.793 153.831C306.793 153.831 311.081 156.573 312.929 158.09C312.935 158.093 312.937 158.098 312.943 158.1C313.375 158.464 313.494 158.964 312.756 159.401L312.067 159.743L307.56 162.124C307.304 162.26 307.29 162.615 307.542 162.765L310.654 164.658C312.067 165.765 312.267 166.027 312.267 167.769" stroke="black" stroke-width="2.1537" stroke-miterlimit="10"/>
<path fill-rule="evenodd" clip-rule="evenodd" d="M342.001 215.907C345.917 215.752 353.167 216.469 356.124 218.783C359.166 221.074 357.578 227.246 354.853 227.792C351.41 228.482 351.267 225.641 341.37 227.362L338.358 228.223C336.493 228.509 334.055 228.653 332.62 225.928C330.901 220.114 336.156 215.88 342.001 215.907Z" fill="#231F20"/>
<path fill-rule="evenodd" clip-rule="evenodd" d="M348.874 218.472C346.536 218.146 344.813 217.895 341.785 218.316C339.668 218.512 336.207 220.621 336.207 221.095C336.207 221.338 336.493 221.481 337.067 221.481C337.497 221.481 342.916 221.059 345.789 221.199C347.395 221.231 349.043 221.39 350.646 221.32C352.702 221.32 352.558 219.903 351.841 219.285C350.926 218.905 349.83 218.607 348.874 218.472Z" fill="white"/>
<path d="M317.093 150.713C317.067 150.697 317.043 150.682 317.023 150.668C317.7 146.401 318.974 142.573 322.221 139.663C325.575 136.657 331.191 134.493 340.901 134.081C353.65 133.539 361.785 135.721 366.705 139.019C371.479 142.218 373.3 146.515 373.376 150.637C373.345 150.66 373.307 150.685 373.261 150.714C372.97 150.897 372.495 151.129 371.822 151.39C370.485 151.91 368.496 152.5 365.952 153.056C360.872 154.166 353.656 155.123 345.177 155.123C336.696 155.123 329.48 154.166 324.4 153.056C321.856 152.5 319.867 151.909 318.531 151.389C317.858 151.128 317.383 150.896 317.093 150.713ZM373.489 150.545C373.488 150.546 373.488 150.547 373.487 150.547C373.496 150.537 373.498 150.536 373.489 150.545ZM316.866 150.546C316.866 150.546 316.865 150.545 316.865 150.544C316.856 150.535 316.858 150.536 316.866 150.546Z" fill="#0C50FF" stroke="black" stroke-width="1.8545"/>
<path d="M340.258 154.391C340.258 149.638 341.258 146.637 342.555 143.596C342.799 143.024 343.055 142.447 343.318 141.855C344.387 139.45 345.569 136.789 346.493 133.168C359.835 134.762 366.263 137.82 369.491 141.137C372.424 144.151 372.84 147.475 373.245 150.708C373.277 150.969 373.31 151.229 373.343 151.487C373.312 151.512 373.275 151.54 373.229 151.571C372.941 151.77 372.47 152.021 371.8 152.307C370.47 152.873 368.489 153.517 365.955 154.124C360.892 155.336 353.7 156.381 345.249 156.381C341.993 156.381 339.796 156.326 338.364 156.23C338.717 156.073 339.089 155.894 339.39 155.698C339.56 155.588 339.75 155.446 339.907 155.267C340.06 155.092 340.258 154.794 340.258 154.391Z" fill="#E50E0E" stroke="black" stroke-width="1.8545"/>
<path d="M334.972 144.888L334.982 144.87L334.99 144.852C336.663 141.302 339.418 138.324 341.792 136.216C342.974 135.166 344.049 134.344 344.827 133.785C345.104 133.585 345.344 133.419 345.536 133.289C345.711 133.427 345.926 133.601 346.175 133.807C346.892 134.401 347.884 135.266 348.979 136.345C351.179 138.514 353.751 141.503 355.366 144.858C356.804 147.847 357.658 150.851 358.152 153.116C358.399 154.246 358.555 155.186 358.649 155.842C358.649 155.842 358.649 155.842 358.649 155.842H331.792C331.814 155.737 331.838 155.625 331.863 155.507C332.053 154.619 332.324 153.401 332.649 152.081C333.308 149.402 334.159 146.434 334.972 144.888Z" fill="#EDDA48" stroke="black" stroke-width="1.8545"/>
<path d="M360.302 128.273C355.884 127.31 351.789 125.903 346.73 126.336C346.655 126.697 346.406 126.995 346.075 127.141V128.253C346.474 128.429 346.753 128.825 346.753 129.287C346.753 129.738 346.486 130.126 346.102 130.308C346.792 130.507 347.298 131.15 347.298 131.915C347.299 132.177 347.238 132.434 347.121 132.668C347.005 132.902 346.835 133.105 346.626 133.261L346.605 133.277C346.51 133.346 346.407 133.405 346.299 133.453C346.122 133.527 345.397 133.628 344.985 133.442C344.906 133.407 344.831 133.365 344.759 133.318L344.663 133.248C344.266 132.943 344.008 132.46 344.008 131.915C344.008 131.169 344.489 130.538 345.153 130.322C344.751 130.147 344.471 129.75 344.471 129.287C344.471 128.841 344.731 128.457 345.108 128.273V127.122C344.873 127.007 344.685 126.814 344.575 126.576C336.735 128.294 321.068 132.546 320.837 126.582C320.743 124.136 324.223 122.416 330.05 123.68C336.606 125.101 339.564 126.129 344.49 125.905C344.586 125.377 345.051 124.975 345.612 124.975C345.839 124.975 346.062 125.042 346.251 125.17C346.44 125.297 346.586 125.478 346.672 125.69C351.729 124.655 370.345 119.316 370.345 125.757C370.345 128.815 365.942 129.502 360.302 128.273Z" fill="#0C50FF"/>
<path d="M344.49 125.905C344.586 125.377 345.051 124.975 345.612 124.975C345.839 124.975 346.062 125.042 346.251 125.17C346.44 125.297 346.586 125.478 346.672 125.69C351.729 124.655 370.345 119.316 370.345 125.757C370.345 128.815 365.942 129.502 360.302 128.273C355.884 127.31 351.789 125.903 346.73 126.336C346.655 126.697 346.406 126.995 346.075 127.141V128.253C346.474 128.429 346.753 128.825 346.753 129.287C346.753 129.738 346.486 130.126 346.102 130.308C346.792 130.507 347.298 131.15 347.298 131.915C347.299 132.177 347.238 132.434 347.121 132.668C347.005 132.902 346.835 133.105 346.626 133.261L346.605 133.277C346.51 133.346 346.407 133.405 346.299 133.453C346.122 133.527 345.397 133.628 344.985 133.442C344.906 133.407 344.831 133.365 344.759 133.318L344.663 133.248C344.266 132.943 344.008 132.46 344.008 131.915C344.008 131.169 344.489 130.538 345.153 130.322C344.751 130.147 344.471 129.75 344.471 129.287C344.471 128.841 344.731 128.457 345.108 128.273V127.122C344.873 127.007 344.685 126.814 344.575 126.576M344.49 125.905C339.564 126.129 336.606 125.101 330.05 123.68C324.223 122.416 320.743 124.136 320.837 126.582C321.068 132.546 336.735 128.294 344.575 126.576M344.49 125.905C344.47 126.029 344.458 126.337 344.575 126.576" stroke="black" stroke-width="1.8545"/>
<path d="M346.254 125.155C346.448 125.284 346.599 125.466 346.687 125.68C346.758 125.772 346.801 126.069 346.746 126.331C346.669 126.695 346.414 126.995 346.073 127.143V128.212C346.484 128.39 346.77 128.84 346.77 129.305C346.77 129.76 346.518 130.116 346.122 130.299C346.832 130.5 347.331 131.184 347.331 131.955C347.331 132.218 347.269 132.478 347.149 132.714C347.029 132.949 346.855 133.154 346.64 133.311L346.618 133.327C346.52 133.397 346.415 133.457 346.304 133.504C346.122 133.579 345.376 133.682 344.952 133.494C344.871 133.458 344.793 133.416 344.72 133.368L344.621 133.299C344.212 132.991 343.947 132.504 343.947 131.955C343.947 131.203 344.395 130.565 345.078 130.348C344.666 130.171 344.423 129.772 344.423 129.305C344.423 128.856 344.691 128.398 345.078 128.212V127.123C344.837 127.007 344.643 126.813 344.53 126.573C344.41 126.332 344.422 126.022 344.443 125.897C344.542 125.364 345.02 124.959 345.597 124.959C345.831 124.959 346.06 125.027 346.254 125.155Z" fill="#C4C4C4" stroke="black" stroke-width="1.23633"/>
<path d="M346.384 126.077C346.384 126.493 346.049 126.827 345.639 126.827C345.229 126.827 344.894 126.493 344.894 126.077C344.894 125.661 345.229 125.327 345.639 125.327C346.049 125.327 346.384 125.661 346.384 126.077Z" fill="#E50E0E" stroke="black" stroke-width="0.927248"/>
<path d="M346.867 131.951C346.867 132.662 346.294 133.235 345.59 133.235C344.887 133.235 344.313 132.662 344.313 131.951C344.313 131.24 344.887 130.667 345.59 130.667C346.294 130.667 346.867 131.24 346.867 131.951Z" fill="#4AB24B" stroke="black" stroke-width="0.927248"/>
<path d="M316.739 151.066C316.742 151.063 316.744 151.059 316.747 151.055C317.053 151.165 317.462 151.306 317.973 151.468C319.215 151.862 321.059 152.384 323.489 152.905C328.351 153.946 335.56 154.982 345.001 154.982C355.045 154.982 362.257 153.947 366.974 152.903C369.333 152.382 371.068 151.858 372.221 151.461C372.65 151.313 372.999 151.183 373.269 151.077C373.502 151.415 373.776 151.86 373.978 152.33C374.188 152.818 374.283 153.247 374.253 153.573C374.228 153.839 374.124 154.069 373.78 154.274C371.572 155.585 365.181 157.999 345.001 157.999C325.722 157.999 319.184 155.53 316.175 154.245C315.868 154.048 315.772 153.827 315.748 153.573C315.718 153.247 315.813 152.818 316.024 152.33C316.228 151.855 316.505 151.406 316.739 151.066ZM317.133 150.54C317.133 150.54 317.133 150.54 317.133 150.54L317.133 150.54L317.133 150.54Z" fill="#3E4347" stroke="black" stroke-width="1.8545"/>
<path d="M312.156 192.124C310.368 190.399 308.981 188.243 309.59 185.846C309.631 185.667 309.853 185.417 309.959 185.315C311.563 184.008 314.125 183.676 316.18 183.35C319.126 182.884 322.238 182.92 325.202 183.248C328.104 183.564 331.01 184.219 333.761 185.117C335.005 185.523 337.473 186.402 337.473 186.402C338.225 186.665 340.276 187.604 340.397 188.999C340.437 189.463 340.477 189.656 340.397 190.115C340.292 190.711 340.24 191.37 339.459 193.602C338.677 195.834 336.964 197.285 336.964 197.285C334.918 199.432 331.214 199.887 328.239 199.702C324.878 199.494 321.621 198.416 318.759 196.839C316.4 195.538 314.047 193.949 312.156 192.124Z" fill="#333333" stroke="black" stroke-width="2.16989"/>
<path d="M378.029 192.124C379.818 190.399 381.204 188.243 380.595 185.846C380.554 185.667 380.332 185.417 380.226 185.315C378.622 184.008 376.061 183.676 374.005 183.35C371.059 182.884 367.947 182.92 364.983 183.248C362.081 183.564 359.175 184.219 356.425 185.117C355.18 185.523 352.712 186.402 352.712 186.402C351.96 186.665 349.909 187.604 349.789 188.999C349.749 189.463 349.709 189.656 349.789 190.115C349.893 190.711 349.945 191.37 350.726 193.602C351.508 195.834 353.221 197.285 353.221 197.285C355.267 199.432 358.971 199.887 361.946 199.702C365.307 199.494 368.564 198.416 371.426 196.839C373.785 195.538 376.138 193.949 378.029 192.124Z" fill="#333333" stroke="black" stroke-width="2.16989"/>
<path d="M340.443 189.975C342.148 191.164 347.418 192.083 349.897 189.975" stroke="black" stroke-width="2.78986" stroke-linejoin="round"/>
</svg>
