<svg width="290" height="144" viewBox="0 0 290 144" fill="none" xmlns="http://www.w3.org/2000/svg">
<path d="M218.235 5.63306H71.4185C53.9985 5.63306 37.292 11.4309 24.9742 21.7512C12.6564 32.0715 5.73633 46.0687 5.73633 60.6638C5.73633 75.2589 12.6564 89.2562 24.9742 99.5764C37.292 109.897 46.7978 114.175 64.2177 114.175H70.1898C68.6083 121.503 63.4382 129.363 45.8038 137.711C45.8038 137.711 96.3913 142.21 113.203 115.695H218.235C235.655 115.695 252.361 109.897 264.679 99.5764C276.997 89.2562 283.917 75.2589 283.917 60.6638C283.917 46.0687 276.997 32.0715 264.679 21.7512C252.361 11.4309 235.655 5.63306 218.235 5.63306Z" stroke="#FEE05C" stroke-width="11" stroke-linejoin="round" stroke-dasharray="1 1"/>
<path d="M216.463 1H69.5991C52.1791 1 35.4726 6.79787 23.1548 17.1181C10.8371 27.4384 3.91699 41.4357 3.91699 56.0308C3.91699 70.6258 10.8371 84.6231 23.1548 94.9434C35.4726 105.264 52.1791 111.062 69.5991 111.062H70.0894C68.5079 118.402 63.0357 129.613 45.4013 137.961C45.4013 137.961 94.5878 137.576 111.384 111.062H216.463C233.883 111.062 250.589 105.264 262.907 94.9434C275.225 84.6231 282.145 70.6258 282.145 56.0308C282.145 41.4357 275.225 27.4384 262.907 17.1181C250.589 6.79787 233.883 1 216.463 1Z" fill="#FFFBEF" stroke="#0B0505" stroke-linejoin="round"/>
</svg>
