<svg width="375" height="121" viewBox="0 0 375 121" fill="none" xmlns="http://www.w3.org/2000/svg">
<path d="M108.625 6.00012H293.935C316.812 6.00012 331.996 9.6958 347.538 20.0001C363.08 30.3044 370.312 46.3733 370.312 60.9458C370.312 75.5183 363.08 89.494 347.538 99.7983C331.996 110.103 315.916 115.892 293.935 115.892H161.348H109.244H63.2489C48.7489 115.892 29.2475 112 11.2479 101.5C-12.4996 80.5001 38 112.488 29.7485 60.9458C27.4449 46.5565 36.2696 30.3044 51.812 20.0001C67.3544 9.6958 79.7483 6.00012 108.625 6.00012Z" fill="#FFFBEF" stroke="#FEE05C" stroke-width="9" stroke-linejoin="round" stroke-dasharray="2 2"/>
<path d="M104.625 1.00012H289.935C312.812 1.00012 327.996 4.6958 343.538 15.0001C359.08 25.3044 366.312 41.3733 366.312 55.9458C366.312 70.5183 359.08 84.494 343.538 94.7983C327.996 105.103 311.916 110.892 289.935 110.892H157.348H105.244H59.2489C44.7489 110.892 25.2475 107 7.24792 96.5001C-16.4996 75.5001 34 107.488 25.7485 55.9458C23.4449 41.5565 32.2696 25.3044 47.812 15.0001C63.3544 4.6958 75.7483 1.00012 104.625 1.00012Z" fill="#FFFBEF" stroke="#0B0505" stroke-linejoin="round"/>
</svg>
