<svg width="334" height="154" viewBox="0 0 334 154" fill="none" xmlns="http://www.w3.org/2000/svg">
<path fill-rule="evenodd" clip-rule="evenodd" d="M270.971 54.7425C266.953 54.9352 260.695 56.6092 260.383 57.679C259.894 59.3496 260.944 65.6125 259.188 68.986C258.44 70.424 255.598 70.2951 254.497 70.7635C250.812 72.3304 239.904 75.3023 237.655 79.0444C236.754 80.5436 231.217 99.1459 228.275 108.636C227.943 109.706 227.569 110.696 227.162 111.612L227.012 110.9C225.812 105.164 225.212 101.692 225.212 100.483C225.212 98.5939 226.763 90.6245 225.212 88.5978C223.677 86.5914 219.977 84.9509 218.313 84.9183L218.263 84.9178C217.17 84.9178 216.222 84.5858 215.418 83.9219L214.239 83.3461C208.244 80.4232 204.742 78.82 203.732 78.5362C202.12 78.0835 199.377 79.0481 200.748 80.4962C201.663 81.4615 203.961 83.1693 207.642 85.6195L209.03 86.691L208.862 86.7761C207.068 87.6937 206.013 88.466 205.698 89.093C205.372 89.7393 205.529 90.5039 206.166 91.3866L206.069 91.4782C205.263 92.2471 204.86 92.7628 204.86 93.0254V94.3082C204.058 95.4496 203.857 96.4015 204.258 97.1639C204.659 97.9263 205.295 98.587 206.166 99.1459C206.808 100.786 207.572 101.953 208.459 102.648C209.345 103.342 210.878 103.92 213.056 104.382L215.026 108.961L216.623 115.393L217.428 122.571L217.195 122.736C216.112 123.502 215.418 124.07 215.418 124.657C215.418 125.572 219.788 147.081 226.586 148.044C228.056 148.252 235.682 147.231 238.185 145.252L238.148 145.466C237.559 148.923 237.684 150.718 238.522 150.852C248.825 152.493 278.086 153 326.304 152.373C326.591 127.507 325.294 110.947 322.413 102.692C315.044 81.5803 306.919 74.3695 304.076 73.7519C301.587 73.211 292.953 69.8721 290.539 68.986C288.964 68.4075 288.626 66.6732 286.831 66.6732L286.686 66.6739C284.95 66.6909 283.41 66.9926 282.545 66.125C280.275 63.8481 280.909 60.6966 279.968 57.679C279.449 56.0164 275.903 54.5061 270.971 54.7425Z" fill="#FFCC5A"/>
<path d="M286.831 66.6736L286.686 66.6743C286.257 66.6785 285.84 66.7001 285.442 66.7171L286.28 69.4925L286.298 69.784C286.842 79.353 282.02 83.9337 271.83 83.5262C261.64 83.1188 256.572 79.9872 256.625 74.1317L256.628 73.9534L256.628 70.3095L256.467 70.3393C255.694 70.48 254.949 70.5716 254.497 70.7638C250.812 72.3308 239.904 75.3027 237.655 79.0448C236.754 80.544 231.217 99.1463 228.275 108.637C228.168 108.983 228.056 109.322 227.939 109.652L227.939 111.527L227.971 111.641C229.003 115.389 227.63 118.452 223.853 120.833C221.175 122.52 218.426 123.615 215.604 124.118C215.483 124.3 215.418 124.478 215.418 124.658C215.418 125.572 219.788 147.082 226.586 148.044C228.056 148.252 235.682 147.231 238.185 145.252L238.148 145.466L238.114 145.672C237.564 148.994 237.701 150.721 238.522 150.852C248.825 152.493 278.086 153 326.304 152.373C326.591 127.507 325.294 110.947 322.413 102.692C315.044 81.5807 306.919 74.3699 304.076 73.7523C301.587 73.2114 292.953 69.8725 290.539 68.9864C288.964 68.4079 288.626 66.6736 286.831 66.6736Z" fill="#282F40"/>
<path fill-rule="evenodd" clip-rule="evenodd" d="M282.012 60.7042C281.776 60.2501 281.15 60.309 280.737 60.515C279.498 61.3952 280.794 63.1013 281.137 64.1754C282.019 66.2588 283.55 68.2949 285.665 69.2686C285.489 71.3397 285.291 73.4062 285.218 75.4837C282.515 78.7413 277.957 79.9303 273.912 80.8447C267.558 82.552 260.387 79.054 258.242 72.9517C260.683 71.6042 261.473 68.0763 260.745 65.6149C260.681 65.442 260.405 65.3656 260.307 65.5586C259.639 66.8942 259.728 68.5237 258.968 69.8432C251.675 70.5215 242.263 73.1952 237.486 78.9256C235.368 81.7925 234.529 85.5213 233.487 88.844C231.262 95.6941 229.489 102.683 227.306 109.54L227.049 108.242C226.344 104.668 225.704 101.046 226.18 97.4111L226.188 97.2372C226.344 94.3451 227.275 88.9707 224.967 87.0182C222.879 85.4678 219.854 84.222 217.234 84.9367C212.571 82.9206 208.546 79.5255 203.58 78.2032C202.051 77.8976 199.852 78.2595 200.214 80.2741C201.215 83.7977 205.408 85.1653 208.274 86.9823C206.437 87.466 204.197 89.6369 205.632 91.53C205.645 91.5635 205.656 91.5889 205.667 91.609C204.503 92.1103 204.34 93.3702 204.625 94.4505C204.654 94.736 204.732 94.4907 204.559 94.7494C203.245 95.953 203.826 99.3082 205.805 99.4216C205.675 101.011 206.726 102.555 208.057 103.423C209.492 104.357 211.567 104.397 212.755 105.676C215.544 110.454 216.506 116.094 216.81 121.566C214.971 122.234 213.322 124.234 214.992 125.93C215.025 125.934 215.058 125.937 215.091 125.94C216.06 128.45 216.433 131.127 216.945 133.749C217.733 138.222 219.786 142.33 222.408 146.057C225.44 150.99 233.592 150.208 237.699 147.024C237.683 147.86 237.541 148.69 237.817 149.497C238.223 150.368 239.214 149.992 239.312 149.134C241.483 150.32 241.994 146.405 239.581 147.026C239.767 144.195 239.874 141.36 239.962 138.524C242.694 139.383 242.812 134.979 240.017 135.86L240.02 134.642C240.041 125.305 239.935 115.936 238.666 106.673C238.549 105.98 238.35 105.31 238.235 104.621C238.222 104.55 238.108 104.57 238.107 104.638C237.911 117.607 238.783 130.604 237.873 143.577C237.115 143.802 236.813 144.646 236.252 145.139C235.007 146.256 233.311 146.8 231.652 146.989C227.007 147.622 225.002 146.244 222.934 142.321C223.866 142.927 225.127 141.857 224.558 140.899L224.541 140.87C223.95 139.854 222.282 140.463 222.494 141.6C220.414 138.365 219.326 134.716 218.522 131.014L218.413 130.572C218.022 129.001 217.515 127.2 216.577 125.778C222.299 124.361 227.897 120.043 228.792 114.12C230.245 118.555 232.213 122.89 234.089 127.204C234.669 128.704 234.91 130.316 235.741 131.707C235.934 132.029 236.423 131.946 236.533 131.607C237.279 128.362 235.016 125.276 233.841 122.356C232.882 120.705 230.127 113.168 228.42 113.149C230.339 104.978 232.898 96.8672 235.335 88.7973C237.692 77.9008 242.495 75.7996 252.67 72.3688C250.834 81.4556 242.456 90.2514 246.914 99.7823L247.023 100.029C247.479 101.08 247.857 102.139 247.539 103.293C247.23 104.412 246.527 105.383 245.964 106.39C242.817 112.076 244.983 118.716 246.2 124.637C247.736 131.581 249.254 138.531 250.843 145.464C251.156 146.847 251.359 148.272 251.832 149.613C252.076 150.304 253.294 150.239 253.215 149.432C253.065 147.866 252.613 146.34 252.281 144.802C250.303 134.849 247.627 125.013 245.925 115.016C244.831 107.616 249.14 106.479 248.979 101.698C248.394 99.2522 246.843 97.0699 246.932 94.4639C246.588 86.4869 252.568 79.9058 253.306 72.1475L254.61 71.6957C255.261 71.469 255.912 71.2406 256.561 71.0067C253.146 94.211 254.183 117.922 255.89 141.241C256.239 142.317 255.907 153.318 257.369 152.651C257.443 153.071 257.673 153.484 258.172 153.482C262.706 153.522 267.242 153.592 271.776 153.645C273.957 153.449 276.955 154.258 278.81 153.036C280.952 152.442 281.198 143.321 281.771 141.312L281.994 139.851C285.634 115.979 288.891 91.614 286.275 67.5053C289.914 67.6412 290.666 71.458 290.936 74.237C291.611 80.3707 295.689 85.6529 295.885 91.857C295.902 93.3622 295.609 94.8203 294.99 96.2023C293.347 99.5882 290.506 103.503 292.629 107.284C295.141 110.228 294.923 111.003 294.002 114.641C291.409 126.668 287.103 138.23 283.006 149.826C283.896 154.333 289.25 137.601 289.754 136.339C292.123 137.497 293.418 133.655 290.7 133.381C292.446 127.704 294.052 121.983 295.39 116.2L295.425 116.037C296.016 113.365 297.178 110.236 295.216 107.866C290.155 102.893 298.559 97.3353 297.499 91.3115C298.414 91.9709 299.8 91.2772 299.779 90.1695C299.821 88.9225 298.097 88.2837 297.267 89.2352C296.414 84.348 293.447 80.0814 292.549 75.2086L292.508 74.9797C292.204 73.2575 292.118 71.4454 291.247 69.8758C292.432 70.6237 293.694 71.2282 294.993 71.7616C292.672 73.6452 297.166 75.3642 296.794 72.4545C309.522 76.0324 312.399 81.0219 317.072 92.4802C316.199 91.6562 314.704 92.7226 315.227 93.7735C315.643 94.8806 317.462 94.5569 317.461 93.3769L317.674 93.8704C320.508 100.454 323.087 107.197 324.383 114.243C321.841 113.894 322.488 117.842 324.792 116.729C325.716 122.995 325.731 129.35 325.618 135.666C323.473 134.574 323.409 138.287 325.597 137.228C325.517 142.404 325.4 147.581 325.312 152.757C325.294 153.859 327.043 153.853 327.071 152.757C327.275 144.803 327.647 136.835 327.47 128.879C327.637 115.071 323.551 101.761 317.463 89.3915C312.077 75.1486 304.637 73.5288 290.948 69.3878C289.684 67.5653 286.985 65.8417 284.782 66.986C283.55 65.0533 282.924 62.7635 282.012 60.7042ZM305.465 110.344C305.414 110.169 305.156 110.213 305.148 110.386C305.033 112.62 305.136 114.869 305.293 117.113C305.388 118.483 305.505 119.851 305.605 121.212C305.868 124.801 306.08 128.394 306.242 131.991C306.185 131.968 306.127 131.948 306.067 131.932C305.788 131.858 305.509 131.858 305.231 131.932C304.982 131.999 304.765 132.117 304.578 132.287L304.538 132.324C304.385 132.462 304.276 132.626 304.213 132.815C304.122 132.983 304.077 133.163 304.077 133.355L304.078 133.403C304.079 133.679 304.149 133.935 304.293 134.174C304.432 134.403 304.62 134.585 304.856 134.722C305.101 134.86 305.365 134.929 305.649 134.93C305.679 134.933 305.71 134.935 305.74 134.937C305.951 134.945 306.148 134.902 306.33 134.809L306.358 134.801C306.427 136.625 306.483 138.451 306.525 140.276C306.562 141.867 306.612 143.458 306.645 145.049L306.66 145.845L306.69 147.604C306.7 148.327 306.695 149.02 306.948 149.702L306.979 149.781C307.161 150.236 307.303 150.87 307.79 151.124C308.179 151.326 308.703 151.251 308.926 150.857C309.114 150.527 308.951 150.053 308.674 149.83C308.679 149.815 308.688 149.802 308.695 149.787C308.737 149.667 308.802 149.553 308.841 149.431C308.962 149.045 308.929 148.633 308.93 148.232C308.93 147.525 308.906 146.817 308.886 146.111C308.844 144.607 308.794 143.104 308.733 141.602C308.528 136.562 308.142 131.521 307.7 126.495L307.55 124.799C307.35 122.543 307.143 120.285 306.85 118.041C306.837 117.933 306.823 117.826 306.807 117.719C306.965 117.642 307.111 117.537 307.227 117.419C307.692 116.944 307.974 116.236 308.238 115.625L308.299 115.486C308.586 114.835 308.85 114.175 308.987 113.475L309 113.411C309.062 113.113 309.185 112.585 308.86 112.441C308.69 112.366 308.583 112.419 308.528 112.584C308.521 112.606 308.526 112.63 308.539 112.648C308.405 112.848 308.195 113.034 308.063 113.219L307.61 113.849L307.385 114.166C307.101 114.572 306.798 114.96 306.485 115.344C306.238 113.66 305.936 111.984 305.465 110.344ZM286.878 147.858C286.311 147.427 285.388 147.661 285.388 148.457C285.388 149.258 286.313 149.488 286.878 149.056L286.906 149.036L286.933 149.015C287.241 148.781 287.252 148.172 286.957 147.919L286.933 147.9C286.916 147.885 286.897 147.872 286.878 147.858ZM311.528 146.304C311.272 146.304 311.033 146.367 310.811 146.493C310.715 146.564 310.619 146.636 310.523 146.709C310.346 146.88 310.225 147.084 310.157 147.319L310.106 147.686C310.099 147.876 310.139 148.053 310.229 148.218C310.287 148.389 310.385 148.538 310.523 148.663C310.652 148.798 310.804 148.894 310.981 148.948C311.136 149.028 311.302 149.069 311.48 149.069L311.528 149.068C311.786 149.068 312.025 149.005 312.247 148.879C312.344 148.808 312.439 148.735 312.535 148.663C312.711 148.491 312.833 148.288 312.901 148.053C312.918 147.931 312.934 147.808 312.952 147.686C312.959 147.495 312.918 147.319 312.829 147.154C312.771 146.982 312.673 146.833 312.535 146.709C312.406 146.573 312.254 146.478 312.077 146.423C311.922 146.343 311.755 146.303 311.577 146.303L311.528 146.304ZM247.002 143.754L246.641 143.801C246.295 143.878 246.016 144.126 245.83 144.408C245.73 144.56 245.677 144.723 245.668 144.899C245.628 145.073 245.637 145.249 245.693 145.424C245.735 145.596 245.816 145.746 245.936 145.873C245.977 145.936 246.026 145.994 246.081 146.045C246.194 146.229 246.365 146.349 246.542 146.473C246.691 146.565 246.852 146.615 247.026 146.623C247.14 146.652 247.256 146.652 247.372 146.623C247.545 146.615 247.706 146.565 247.855 146.473C247.943 146.407 248.031 146.34 248.118 146.274C248.196 146.187 248.267 146.097 248.335 146.003C248.38 145.9 248.425 145.798 248.469 145.696C248.55 145.451 248.51 145.234 248.466 144.989C248.459 144.947 248.448 144.91 248.433 144.869L248.403 144.792C248.324 144.588 248.281 144.519 248.14 144.341L248.087 144.272C248.06 144.237 248.032 144.203 248.001 144.173C247.913 144.084 247.787 144.01 247.688 143.934C247.476 143.815 247.247 143.756 247.002 143.754ZM293.791 142.897C293.591 142.898 293.403 142.946 293.23 143.044L293.003 143.214C292.865 143.35 292.77 143.508 292.716 143.692C292.704 143.788 292.69 143.884 292.676 143.98C292.671 144.128 292.703 144.268 292.773 144.398C292.817 144.532 292.894 144.647 293.003 144.746C293.104 144.851 293.224 144.926 293.362 144.97C293.482 145.031 293.612 145.063 293.75 145.063L293.791 145.063C293.992 145.063 294.18 145.013 294.354 144.915L294.58 144.746C294.718 144.611 294.813 144.451 294.867 144.268C294.879 144.171 294.893 144.076 294.907 143.98C294.913 143.831 294.881 143.692 294.81 143.563C294.765 143.429 294.689 143.312 294.58 143.214C294.479 143.108 294.359 143.033 294.221 142.99C294.101 142.929 293.974 142.898 293.837 142.896L293.791 142.897ZM302.941 142.453C302.653 142.45 302.36 142.529 302.125 142.691C301.896 142.85 301.722 143.02 301.61 143.276C301.58 143.346 301.549 143.414 301.523 143.484C301.404 143.791 301.382 144.099 301.547 144.399C301.705 144.69 302.047 144.817 302.354 144.904C302.613 144.979 302.907 144.991 303.165 144.902C303.293 144.857 303.418 144.811 303.534 144.742C303.751 144.612 303.868 144.458 304.013 144.268C304.126 144.08 304.183 143.876 304.183 143.659C304.183 143.441 304.126 143.238 304.013 143.049C303.791 142.681 303.38 142.456 302.941 142.453ZM317.563 142.711C317.199 142.711 316.879 142.875 316.66 143.151C316.438 143.431 316.356 143.78 316.454 144.127C316.558 144.494 316.871 144.816 317.259 144.908C317.545 144.977 317.78 144.974 318.066 144.927C318.307 144.887 318.492 144.747 318.677 144.602C318.888 144.435 318.953 144.13 318.918 143.883C318.885 143.636 318.768 143.475 318.59 143.329L318.588 143.325L318.655 143.375C318.63 143.353 318.605 143.331 318.58 143.308C318.572 143.294 318.565 143.28 318.558 143.265C318.456 143.096 318.318 142.963 318.146 142.864C317.965 142.762 317.772 142.711 317.563 142.711ZM232.645 138.652C232.445 138.6 232.244 138.6 232.044 138.652C231.896 138.685 231.768 138.751 231.659 138.849C231.548 138.919 231.458 139.008 231.39 139.119L231.368 139.157C231.21 139.417 231.186 139.715 231.253 140.004C231.337 140.362 231.677 140.688 232.044 140.772L232.056 140.774L232.068 140.778C232.217 140.823 232.368 140.83 232.517 140.796C232.667 140.79 232.807 140.747 232.935 140.666C233.098 140.565 233.234 140.433 233.339 140.275C233.422 140.149 233.466 140.014 233.473 139.867C233.499 139.771 233.499 139.675 233.473 139.578C233.466 139.432 233.422 139.297 233.339 139.171L233.162 138.949L233.144 138.935C233.004 138.798 232.837 138.704 232.645 138.652ZM246.533 131.559C244.725 131.559 244.728 134.285 246.533 134.285C248.342 134.285 248.339 131.559 246.533 131.559ZM312.745 131.214C312.554 131.173 312.364 131.181 312.175 131.239C312.061 131.286 311.948 131.332 311.834 131.378L311.545 131.595C311.491 131.639 311.465 131.688 311.415 131.751L311.353 131.83C311.263 131.946 311.261 131.971 311.163 132.22C311.096 132.458 311.096 132.697 311.163 132.936C311.194 133.051 311.243 133.159 311.305 133.26C311.361 133.356 311.429 133.441 311.506 133.519L311.545 133.557C311.674 133.693 311.827 133.788 312.004 133.844C312.116 133.907 312.236 133.938 312.364 133.938C312.554 133.98 312.745 133.972 312.934 133.914C313.048 133.867 313.161 133.82 313.275 133.774L313.564 133.557L313.788 133.276L313.859 133.111L313.931 132.945L313.982 132.576C313.989 132.385 313.949 132.208 313.86 132.041C313.825 131.925 313.764 131.822 313.676 131.736C313.613 131.631 313.527 131.548 313.419 131.487C313.331 131.401 313.225 131.342 313.105 131.308C312.993 131.245 312.873 131.214 312.745 131.214ZM223.298 129.267C223.147 129.262 223.007 129.292 222.877 129.359C222.831 129.374 222.787 129.393 222.744 129.414C222.578 129.51 222.445 129.638 222.347 129.799C222.267 129.922 222.223 130.055 222.216 130.198C222.186 130.328 222.189 130.458 222.225 130.587L222.237 130.626C222.267 130.732 222.313 130.83 222.373 130.92C222.379 130.93 222.386 130.941 222.394 130.95C222.486 131.093 222.609 131.209 222.761 131.296C222.929 131.39 223.11 131.438 223.306 131.44C223.696 131.44 224.033 131.235 224.238 130.92C224.267 130.875 224.284 130.819 224.304 130.773C224.323 130.731 224.352 130.676 224.367 130.626C224.419 130.436 224.419 130.245 224.367 130.055C224.332 129.916 224.267 129.794 224.169 129.69C224.091 129.574 223.987 129.481 223.859 129.414C223.7 129.324 223.529 129.276 223.347 129.268L223.298 129.267ZM299.654 127.933C299.463 127.883 299.273 127.879 299.083 127.922L299.036 127.933C298.884 127.968 298.753 128.035 298.64 128.134C298.514 128.215 298.414 128.321 298.341 128.452C298.236 128.628 298.183 128.818 298.182 129.022C298.183 129.225 298.236 129.416 298.341 129.591C298.444 129.762 298.583 129.896 298.758 129.996L298.91 130.067C299.037 130.145 299.172 130.186 299.319 130.193C299.416 130.219 299.515 130.219 299.611 130.193C299.71 130.193 299.803 130.169 299.888 130.121C299.982 130.095 300.062 130.05 300.131 129.983C300.251 129.908 300.345 129.808 300.414 129.684L300.526 129.428L300.564 129.144L300.526 128.861L300.465 128.722C300.41 128.53 300.31 128.364 300.166 128.223C300.021 128.083 299.85 127.987 299.654 127.933ZM231.244 125.672C231.042 125.611 230.842 125.602 230.642 125.645C230.507 125.645 230.38 125.679 230.263 125.746C230.135 125.781 230.024 125.842 229.93 125.934C229.766 126.037 229.638 126.173 229.543 126.344L229.391 126.694C229.3 126.92 229.333 127.254 229.388 127.482C229.434 127.669 229.522 127.833 229.653 127.972C229.719 128.081 229.808 128.167 229.919 128.231C230.047 128.344 230.194 128.424 230.362 128.472L230.408 128.484L230.424 128.488C230.427 128.489 230.43 128.489 230.432 128.489C230.434 128.491 230.437 128.491 230.438 128.491C230.504 128.507 230.572 128.516 230.642 128.519C230.842 128.562 231.042 128.554 231.244 128.492C231.362 128.444 231.482 128.394 231.602 128.345C231.704 128.27 231.805 128.193 231.907 128.117C231.986 128.018 232.064 127.918 232.143 127.821C232.254 127.653 232.313 127.471 232.321 127.276C232.357 127.147 232.357 127.018 232.321 126.888C232.321 126.755 232.286 126.633 232.219 126.519C232.158 126.337 232.055 126.18 231.907 126.048C231.805 125.971 231.704 125.895 231.602 125.82C231.482 125.77 231.362 125.72 231.244 125.672ZM319.225 120.874C319.017 120.819 318.809 120.819 318.601 120.874L318.321 120.988C318.183 121.06 318.074 121.158 317.991 121.283C317.886 121.392 317.816 121.523 317.78 121.671C317.698 121.875 317.708 122.198 317.773 122.406C317.846 122.642 317.959 122.829 318.134 123.006C318.425 123.298 318.872 123.383 319.268 123.294C319.377 123.27 319.481 123.223 319.575 123.166C319.874 122.986 320.075 122.672 320.074 122.325C320.074 122.288 320.071 122.25 320.066 122.213C320.085 122.136 320.092 122.057 320.089 121.974L320.048 121.671L320.045 121.663C319.99 121.471 319.89 121.305 319.746 121.165C319.612 121.036 319.456 120.943 319.277 120.887L319.232 120.874H319.225ZM215.132 90.7775C215.509 87.7756 216.926 84.5459 221.248 86.3087L221.569 86.4256C222.638 86.8189 223.884 87.3356 224.535 88.2441C224.983 88.8701 224.831 90.0831 224.893 90.8135C225.175 93.1886 225.024 95.5603 224.731 97.9253C224.352 103.469 225.551 109.212 227.939 114.25C225.549 118.008 222.35 121.513 217.987 123.079C217.802 118.807 216.941 114.613 216.025 110.444L215.989 110.262C215.623 108.382 215.439 106.453 214.168 104.889C211.584 102.163 208.028 103.706 206.327 99.3259C206.685 99.1503 206.487 98.5498 206.057 98.6652C204.565 98.9224 204.323 96.2352 205.344 95.5877C206.408 94.9574 205.337 93.7945 205.789 92.9552C206.042 92.5935 206.587 92.5814 206.834 92.1644C207.488 90.6299 204.212 89.6465 208.065 87.9166C208.854 87.6441 209.735 87.8131 210.531 87.81C211.701 87.9162 212.631 88.7171 213.701 88.9691C212.536 91.9003 215.475 94.7228 218.129 92.3817C219.573 93.7077 221.187 96.7302 217.677 95.3211C215.96 94.2072 214.481 92.7673 212.487 92.0813L212.444 92.0686C211.704 91.8329 208.465 90.3037 208.625 91.6272C209.839 92.765 211.84 92.7516 213.245 93.6752C215.193 94.5506 216.439 96.6718 218.772 96.6424C219.309 99.8146 215.604 97.8845 214.225 97.0097L213.842 96.808C211.896 95.7867 209.921 94.8404 207.652 94.8278C207.025 94.8238 207.028 95.762 207.652 95.77C210.609 95.788 213.016 97.5841 215.494 98.9196C215.738 100.771 212.947 99.9607 211.888 99.6875C210.778 99.5359 208.994 98.369 208.023 98.9854C207.643 99.9343 209.315 99.8636 209.897 100.152C207.239 101.392 209.568 102.173 210.281 100.267L210.49 100.336C212.27 100.917 216.587 102.114 216.073 99.1838C216.725 99.4639 217.519 99.6315 218.239 99.476C220.034 102.056 222.898 101.058 218.736 99.2991C219.674 98.8751 219.987 97.2383 219.086 96.6292C222.363 96.4348 219.93 93.0946 218.574 91.9815C218.702 91.8558 218.826 91.7275 218.941 91.5976C219.723 91.9595 220.545 92.1793 221.424 92.257C222.266 92.3306 222.453 90.9395 221.623 90.8256C220.733 90.7036 219.914 90.4731 219.13 90.0387C217.943 89.5405 217.537 91.6812 216.349 91.7571C215.701 91.8818 215.262 91.3295 215.132 90.7775ZM242.719 118.4C242.432 118.4 242.177 118.516 241.969 118.701C241.761 118.886 241.671 119.164 241.659 119.429C241.653 119.571 241.684 119.704 241.75 119.827C241.793 119.954 241.866 120.064 241.969 120.158C242.162 120.344 242.448 120.46 242.719 120.46C243.006 120.46 243.262 120.343 243.47 120.158C243.678 119.972 243.768 119.696 243.78 119.429C243.786 119.288 243.755 119.155 243.689 119.032C243.651 118.918 243.588 118.816 243.5 118.729L243.47 118.701C243.277 118.513 242.991 118.4 242.719 118.4ZM234.025 112.043L233.979 112.044C233.736 112.045 233.511 112.104 233.301 112.222C233.21 112.29 233.119 112.357 233.029 112.426C232.863 112.589 232.748 112.781 232.685 113.002C232.62 113.233 232.62 113.465 232.685 113.695C232.707 113.828 232.758 113.956 232.838 114.068C232.956 114.259 233.114 114.414 233.312 114.527C233.518 114.644 233.74 114.702 233.979 114.703C234.217 114.702 234.439 114.644 234.645 114.527C234.844 114.414 235.001 114.259 235.118 114.068C235.199 113.956 235.25 113.828 235.273 113.695C235.337 113.465 235.337 113.233 235.273 113.002C235.214 112.797 235.111 112.617 234.963 112.461L234.928 112.426C234.806 112.299 234.663 112.209 234.496 112.156C234.349 112.081 234.192 112.044 234.025 112.043ZM300.377 112.115C300.275 112.088 300.174 112.088 300.072 112.115C299.92 112.121 299.778 112.166 299.647 112.246C299.57 112.305 299.493 112.363 299.415 112.421L299.348 112.499C299.204 112.669 299.2 112.698 299.09 112.958C299.044 113.103 299.037 113.247 299.071 113.392C299.071 113.49 299.097 113.581 299.147 113.666C299.174 113.758 299.221 113.839 299.291 113.906C299.341 113.987 299.407 114.053 299.491 114.101C299.599 114.196 299.726 114.262 299.872 114.296L300.169 114.334C300.207 114.329 300.247 114.324 300.286 114.32C300.332 114.318 300.378 114.313 300.422 114.305L300.467 114.295L300.508 114.285C300.562 114.27 300.614 114.249 300.665 114.223C300.762 114.196 300.846 114.15 300.918 114.08C301.042 114.002 301.141 113.897 301.213 113.768L301.232 113.725C301.258 113.679 301.28 113.632 301.297 113.581C301.344 113.501 301.367 113.415 301.369 113.323C301.396 113.2 301.394 113.078 301.362 112.956L301.349 112.915L301.243 112.67C301.188 112.587 301.13 112.502 301.056 112.434C301.011 112.395 300.901 112.312 300.84 112.271L300.802 112.246C300.671 112.166 300.529 112.121 300.377 112.115ZM315.224 109.741C314.665 110.284 314.912 111.281 315.694 111.474L315.784 111.496C316.54 111.682 317.221 111.019 317.029 110.284L317.007 110.198C316.809 109.438 315.782 109.198 315.224 109.741ZM222.325 103.999C222.331 103.924 222.231 103.897 222.182 103.942C221.517 104.521 221.093 105.215 220.286 105.664C219.475 106.114 218.639 106.078 217.794 106.369C217.507 106.468 217.505 106.841 217.794 106.939C219.394 107.481 222.204 105.641 222.325 103.999ZM297.513 103.881C297.334 103.828 297.155 103.82 296.977 103.859C296.856 103.859 296.743 103.888 296.639 103.947C296.525 103.978 296.427 104.034 296.343 104.115C296.242 104.172 296.162 104.251 296.101 104.349C295.983 104.475 295.903 104.623 295.861 104.792L295.814 105.139L295.861 105.486C295.907 105.589 295.952 105.694 295.997 105.797L296.12 105.959C296.22 106.088 296.236 106.09 296.478 106.265C296.632 106.36 296.799 106.412 296.977 106.419C297.096 106.451 297.215 106.451 297.334 106.419C297.455 106.419 297.568 106.389 297.672 106.33C297.786 106.299 297.885 106.243 297.969 106.163C298.115 106.07 298.23 105.948 298.314 105.797C298.36 105.694 298.405 105.589 298.449 105.486L298.498 105.139L298.449 104.792L298.446 104.781C298.383 104.564 298.27 104.375 298.107 104.215L297.839 104.014C297.735 103.948 297.626 103.915 297.513 103.881ZM233.118 104.141C232.736 104.039 232.317 104.147 232.037 104.419C231.757 104.691 231.647 105.097 231.751 105.468C231.855 105.83 232.154 106.124 232.528 106.222C232.64 106.251 232.753 106.267 232.867 106.262C233.059 106.26 233.238 106.213 233.405 106.12L233.621 105.957C233.726 105.864 233.799 105.752 233.841 105.624C233.909 105.5 233.939 105.368 233.934 105.224L233.935 105.199C233.939 105.148 233.932 105.097 233.916 105.047C233.916 104.995 233.908 104.944 233.894 104.894C233.793 104.533 233.49 104.24 233.118 104.141ZM315.494 100.512C315.371 100.508 315.257 100.532 315.15 100.587C315.039 100.622 314.944 100.681 314.864 100.766C314.775 100.844 314.715 100.938 314.679 101.045C314.622 101.149 314.597 101.26 314.601 101.379C314.601 101.536 314.643 101.682 314.723 101.816C314.77 101.875 314.817 101.934 314.864 101.992C314.974 102.1 315.105 102.174 315.257 102.215L315.345 102.245C315.475 102.29 315.602 102.293 315.737 102.276C315.879 102.257 316.01 102.219 316.126 102.134C316.239 102.069 316.328 101.982 316.395 101.872L316.471 101.698C316.487 101.639 316.494 101.551 316.498 101.489C316.498 101.48 316.498 101.472 316.5 101.462C316.5 101.41 316.483 101.283 316.469 101.23C316.439 101.12 316.377 101.016 316.306 100.927C316.246 100.835 316.163 100.762 316.061 100.709L316.052 100.702L316.042 100.695C316.01 100.674 315.977 100.653 315.944 100.63C315.806 100.552 315.655 100.512 315.494 100.512ZM244.26 99.56C244.039 99.56 243.834 99.6149 243.643 99.7222C243.637 99.7247 243.63 99.7275 243.624 99.7303C243.442 99.8347 243.297 99.9756 243.19 100.152C243.079 100.336 243.024 100.535 243.024 100.746C243.024 100.959 243.079 101.156 243.19 101.34C243.297 101.517 243.442 101.658 243.624 101.762C243.63 101.766 243.637 101.769 243.643 101.772C243.834 101.879 244.039 101.932 244.26 101.934C244.479 101.932 244.685 101.879 244.875 101.772C245.248 101.56 245.481 101.164 245.481 100.746C245.481 100.328 245.248 99.9326 244.875 99.7222C244.685 99.6149 244.479 99.56 244.26 99.56ZM301.547 98.0103L301.509 98.0095C301.363 98.004 301.227 98.0335 301.101 98.0993C300.97 98.1407 300.856 98.2119 300.759 98.3124L300.557 98.4758L300.499 98.5218C300.489 98.5296 300.48 98.5376 300.471 98.5457C300.335 98.6782 300.243 98.8337 300.19 99.0133C300.174 99.1166 300.16 99.2184 300.149 99.3216C300.119 99.5896 300.282 99.8645 300.461 100.055C300.557 100.155 300.672 100.226 300.804 100.269C300.931 100.334 301.069 100.363 301.216 100.358C301.515 100.332 301.799 100.271 302.014 100.045C302.039 100.019 302.063 99.9904 302.087 99.9622L302.26 99.7692C302.391 99.6407 302.482 99.4891 302.531 99.3149C302.545 99.2224 302.558 99.1312 302.57 99.0401C302.583 98.7653 302.445 98.508 302.26 98.3124C302.089 98.1312 301.799 98.0204 301.547 98.0103ZM308.51 95.1881C307.076 95.1881 307.078 97.3501 308.51 97.3501C309.944 97.3501 309.941 95.1881 308.51 95.1881ZM236.381 92.1569L236.335 92.1577C236.098 92.159 235.876 92.2167 235.67 92.3333L235.403 92.533C235.24 92.6938 235.127 92.8815 235.063 93.0986C235.048 93.2124 235.033 93.3264 235.016 93.439C235.01 93.6159 235.048 93.7808 235.131 93.9336C235.183 94.0918 235.274 94.2297 235.403 94.3464C235.523 94.4711 235.664 94.5595 235.828 94.6105C235.985 94.6909 236.154 94.7284 236.335 94.7217C236.574 94.7202 236.796 94.6627 237.002 94.5461C237.091 94.4791 237.179 94.4121 237.269 94.3464C237.419 94.198 237.527 94.0266 237.592 93.8304L237.607 93.7808L237.655 93.439C237.662 93.2634 237.624 93.0986 237.541 92.9458C237.488 92.7863 237.397 92.6496 237.269 92.533C237.149 92.4082 237.007 92.3197 236.844 92.2689C236.7 92.1952 236.545 92.1574 236.381 92.1569ZM242.842 88.1101C242.714 88.1059 242.595 88.1314 242.484 88.1878C242.369 88.2239 242.27 88.2869 242.186 88.374C242.008 88.5122 241.899 88.7882 241.899 89.012C241.899 89.2358 242.008 89.5121 242.186 89.65C242.302 89.7612 242.438 89.839 242.595 89.8819L242.842 89.9142C243.082 89.9249 243.326 89.8029 243.498 89.65C243.532 89.6193 243.565 89.5885 243.6 89.5588C243.755 89.4194 243.823 89.2117 243.833 89.012C243.837 88.9062 243.813 88.807 243.764 88.7146C243.732 88.6181 243.677 88.5362 243.6 88.4651C243.565 88.4356 243.532 88.405 243.498 88.374C243.311 88.2065 243.093 88.1221 242.842 88.1101ZM201.902 80.9002C200.996 79.8274 201.524 79.0638 202.886 79.3292C205.232 79.6376 207.441 81.0785 209.507 82.1117C211.763 83.2692 214.087 84.2239 216.388 85.3116C215.439 85.8778 214.733 86.7644 214.193 87.776C213.117 86.9816 211.741 86.6018 210.397 86.5523C207.96 84.2843 203.923 83.7649 201.902 80.9002ZM308.992 84.4616C308.747 84.4627 308.516 84.5188 308.301 84.6309L308.255 84.6558L307.959 84.8783C307.816 85.0069 307.715 85.1596 307.656 85.3353C307.565 85.5042 307.524 85.6878 307.53 85.8835C307.524 86.0792 307.565 86.2615 307.656 86.4304C307.715 86.6073 307.816 86.7587 307.959 86.8874C308.041 86.9906 308.146 87.071 308.271 87.1301C308.389 87.1769 308.504 87.2252 308.622 87.2734C308.753 87.3136 308.904 87.319 309.046 87.3257C309.304 87.3243 309.544 87.2613 309.768 87.1354L310.058 86.9184C310.197 86.7922 310.296 86.6435 310.354 86.4706C310.436 86.3183 310.478 86.1557 310.478 85.9821L310.477 85.9344C310.477 85.9238 310.477 85.9116 310.475 85.8996C310.459 85.7736 310.441 85.6476 310.423 85.5218C310.378 85.3367 310.291 85.1745 310.161 85.0378C310.128 84.9734 310.084 84.9212 310.027 84.8783C309.845 84.7013 309.63 84.5807 309.382 84.5122C309.252 84.4963 309.122 84.4787 308.992 84.4616ZM244.945 80.9108C244.758 80.9108 244.586 80.9564 244.426 81.0462C244.356 81.0986 244.287 81.1507 244.218 81.203C244.089 81.3277 244.001 81.4751 243.953 81.644L243.915 81.9092C243.911 82.0474 243.94 82.1748 244.005 82.2942C244.046 82.4173 244.117 82.5246 244.218 82.6157C244.31 82.7134 244.42 82.7819 244.549 82.8221C244.67 82.8851 244.802 82.9133 244.945 82.908C245.129 82.908 245.303 82.8623 245.463 82.7712C245.532 82.7203 245.603 82.668 245.672 82.6157C245.788 82.5015 245.872 82.368 245.922 82.2165L245.935 82.1748L245.972 81.9092C245.978 81.7713 245.949 81.644 245.884 81.5247C245.843 81.4002 245.771 81.2928 245.672 81.203C245.578 81.105 245.467 81.0368 245.34 80.9966C245.23 80.9399 245.112 80.9114 244.987 80.9102L244.945 80.9108ZM300.93 79.4589L300.881 79.4596C300.607 79.4609 300.352 79.5279 300.114 79.6619C300.012 79.7385 299.91 79.8149 299.808 79.8926C299.619 80.0761 299.489 80.2932 299.416 80.5439L299.363 80.9352C299.354 81.139 299.398 81.328 299.494 81.5035C299.554 81.6873 299.659 81.8453 299.808 81.9794C299.945 82.1229 300.108 82.2246 300.296 82.2837C300.477 82.3761 300.672 82.4191 300.881 82.4109C301.156 82.4109 301.411 82.3439 301.648 82.2099C301.75 82.1335 301.852 82.0559 301.956 81.9794C302.144 81.7944 302.273 81.5773 302.346 81.328L302.4 80.9352C302.408 80.7329 302.364 80.5427 302.269 80.3669C302.208 80.1848 302.104 80.0252 301.956 79.8926C301.818 79.7479 301.655 79.6459 301.466 79.5869C301.299 79.5015 301.121 79.4595 300.93 79.4589ZM249.851 75.7734C249.726 75.7411 249.6 75.7411 249.475 75.7734C249.287 75.7813 249.112 75.8362 248.949 75.9368L248.663 76.1514C248.659 76.1552 248.655 76.1594 248.651 76.1648C248.479 76.3335 248.359 76.5333 248.293 76.7625L248.243 77.1231C248.236 77.3094 248.276 77.4835 248.363 77.6445C248.415 77.7991 248.5 77.9337 248.618 78.05L248.663 78.0933C248.792 78.2274 248.942 78.3225 249.117 78.3775C249.228 78.4406 249.348 78.4714 249.475 78.4714C249.662 78.5129 249.851 78.5049 250.039 78.4472C250.151 78.4003 250.264 78.3547 250.377 78.3093L250.413 78.289C250.839 78.0626 251.103 77.5882 251.103 77.1231C251.103 76.6579 250.839 76.182 250.413 75.9555C250.4 75.9503 250.389 75.9435 250.377 75.9368C250.214 75.8362 250.039 75.7813 249.851 75.7734Z" fill="black"/>
<path d="M291.379 17.7889C291.379 17.7889 293.964 39.8558 293.964 54.0667C293.964 59.2559 287.933 65.7689 268.102 65.7689C249.095 65.7689 248.818 54.0667 248.818 54.0667L250.386 24.1123L250.775 17.4735C250.979 14.006 250.979 12.5427 254.725 12.5031C256.223 12.4874 256.396 12.503 257.491 12.503L285.499 12.5427C288.959 12.5427 291.139 14.8275 291.379 17.7889Z" fill="#FFCC5A" stroke="black" stroke-width="1.29705" stroke-miterlimit="10"/>
<path d="M247.297 12.4978H254.637C254.395 22.2299 250.543 21.6437 250.543 21.6437C250.543 20.5511 250.419 20.387 249.539 19.6931L247.602 18.5054C247.445 18.4119 247.454 18.1888 247.613 18.1034L250.419 16.6106L250.848 16.3957C251.307 16.1217 251.233 15.8084 250.964 15.5803C250.96 15.5787 250.959 15.5754 250.955 15.5738C249.805 14.6223 247.136 12.903 247.136 12.903C246.974 12.7586 247.079 12.4978 247.297 12.4978Z" fill="#FFCC5A"/>
<path d="M256.567 12.4978H247.297C247.079 12.4978 246.974 12.7586 247.136 12.903C247.136 12.903 249.805 14.6223 250.955 15.5738C250.959 15.5754 250.96 15.5787 250.964 15.5803C251.233 15.8084 251.307 16.1217 250.848 16.3957L250.419 16.6106L247.613 18.1034C247.454 18.1888 247.445 18.4119 247.602 18.5054L249.539 19.6931C250.419 20.387 250.543 20.5511 250.543 21.6437" stroke="black" stroke-width="1.2973" stroke-miterlimit="10"/>
<path d="M275.344 51.8401C272.01 51.8401 267.714 54.403 263.436 52.8961C258.903 51.2994 263.436 58.3679 269.679 58.3679C278.35 58.3679 278.929 51.8401 275.344 51.8401Z" fill="white" stroke="black" stroke-width="1.11963"/>
<path d="M239.957 13.1353L241.344 13.8957V26.2675H240.127L239.957 13.1353Z" fill="black" stroke="black" stroke-width="0.552776"/>
<path d="M240.701 23.2773C237.947 23.2773 238.202 32.2064 238.202 32.2064C238.202 32.2064 238.011 33.095 240.701 33.095C243.391 33.095 243.2 32.2064 243.2 32.2064C243.2 32.2064 243.455 23.2773 240.701 23.2773Z" fill="#F9C81E" stroke="black" stroke-width="1.28981"/>
<path d="M250.59 23.108V20.5196C250.59 20.5196 239.5 13.0077 237.608 12.2756C235.717 11.5435 272.602 1 272.602 1C272.602 1 305.936 13.0281 304.825 13.6859C303.714 14.3437 291.462 20.5765 291.462 20.5765L291.633 23.1374C291.297 23.1374 264.464 14.9308 250.59 23.108Z" fill="#3C3C3B" stroke="black" stroke-width="1.28981"/>
<path d="M250.602 24.4541C250.602 24.4541 250.582 19.5237 251.175 17.6698C252.035 14.9835 263.561 11.6896 272.052 11.8165C279.846 11.9331 290.161 15.0787 291.022 18.3411C291.595 20.5151 291.748 24.5605 291.748 24.5605C291.748 24.5605 263.629 13.6886 250.602 24.4541Z" fill="#323232" stroke="black" stroke-width="1.28981"/>
<path d="M273.708 38.3735C273.802 37.5914 273.58 36.8042 273.09 36.185C272.601 35.5658 271.884 35.1653 271.097 35.0717C270.311 34.9781 269.519 35.199 268.897 35.6858C268.274 36.1726 267.871 36.8855 267.777 37.6675" stroke="black" stroke-width="1.30309"/>
<path d="M293.017 38.0564C292.374 43.3958 287.498 47.212 282.121 46.5719C276.743 45.9317 272.911 41.079 273.554 35.7396C274.196 30.4001 279.072 26.5839 284.45 27.2241C289.827 27.8643 293.659 32.717 293.017 38.0564Z" fill="white" stroke="black" stroke-width="1.30309"/>
<path d="M267.779 38.415C267.136 43.7545 262.26 47.5707 256.883 46.9305C251.505 46.2903 247.673 41.4376 248.316 36.0982C248.958 30.7588 253.834 26.9426 259.211 27.5828C264.589 28.2229 268.421 33.0756 267.779 38.415Z" fill="white" stroke="black" stroke-width="1.30309"/>
<path fill-rule="evenodd" clip-rule="evenodd" d="M221.308 61.5494C219.744 61.114 218.106 60.8943 216.518 60.6931C216.176 60.6509 215.858 60.8863 215.834 61.218C215.785 61.5498 216.03 61.8534 216.347 61.8955C217.887 62.0892 219.475 62.2965 220.965 62.7157C221.283 62.8066 221.625 62.6194 221.723 62.2975C221.821 61.9758 221.625 61.6405 221.308 61.5494Z" fill="#FEE05C"/>
<path fill-rule="evenodd" clip-rule="evenodd" d="M226.048 55.3767C223.531 52.8286 220.697 50.6085 218.229 47.992C218.009 47.7476 217.618 47.7346 217.373 47.9627C217.129 48.191 217.105 48.575 217.349 48.8194C219.817 51.4434 222.652 53.6708 225.168 56.2264C225.413 56.465 225.804 56.4684 226.048 56.2337C226.268 55.9993 226.292 55.6153 226.048 55.3767Z" fill="#FEE05C"/>
<path fill-rule="evenodd" clip-rule="evenodd" d="M230.764 45.576C230.837 47.0344 230.91 48.4928 230.984 49.9515C230.984 50.2855 231.277 50.5435 231.619 50.5272C231.961 50.5108 232.206 50.2264 232.206 49.8921C232.132 48.4312 232.059 46.9706 231.986 45.51C231.961 45.176 231.668 44.9197 231.326 44.9379C231.008 44.9561 230.74 45.2422 230.764 45.576Z" fill="#FEE05C"/>
<path d="M50.6254 7H150.375C162.21 7 173.561 10.9859 181.93 18.0809C190.298 25.176 195 34.7989 195 44.8327C195 54.8666 190.298 64.4895 181.93 71.5845C173.561 78.6795 167.102 81.6206 155.267 81.6206H151.209C152.284 86.6583 155.796 92.0624 167.778 97.8015C167.778 97.8015 133.408 100.894 121.985 82.6654H50.6254C38.79 82.6654 27.4394 78.6795 19.0705 71.5845C10.7016 64.4895 6.00001 54.8666 6.00001 44.8327C6.00001 34.7989 10.7016 25.176 19.0705 18.0809C27.4394 10.9859 38.79 7 50.6254 7Z" stroke="#FEE05C" stroke-width="11" stroke-linejoin="round" stroke-dasharray="1 1"/>
<path d="M50.3709 4H151.077C163.023 4 174.479 7.9781 182.925 15.0592C191.372 22.1402 196.117 31.7442 196.117 41.7583C196.117 51.7725 191.372 61.3764 182.925 68.4575C174.479 75.5386 163.023 79.5167 151.077 79.5167H150.741C151.826 84.5535 155.578 92.2452 167.67 97.973C167.67 97.973 133.942 97.7094 122.425 79.5167H50.3709C38.4258 79.5167 26.9699 75.5386 18.5234 68.4575C10.0769 61.3764 5.33172 51.7725 5.33172 41.7583C5.33172 31.7442 10.0769 22.1402 18.5234 15.0592C26.9699 7.9781 38.4258 4 50.3709 4Z" fill="#FFFBEF" stroke="#0B0505" stroke-linejoin="round"/>
<path d="M53.6943 22.9209V24.0708H47.9229V22.9209H53.6943ZM48.1426 18.3359V29H46.729V18.3359H48.1426ZM54.9248 18.3359V29H53.5186V18.3359H54.9248ZM61.9048 27.645V23.5654C61.9048 23.2529 61.8413 22.9819 61.7144 22.7524C61.5923 22.5181 61.4067 22.3374 61.1577 22.2104C60.9087 22.0835 60.6011 22.02 60.2349 22.02C59.8931 22.02 59.5928 22.0786 59.334 22.1958C59.0801 22.313 58.8799 22.4668 58.7334 22.6572C58.5918 22.8477 58.521 23.0527 58.521 23.2725H57.166C57.166 22.9893 57.2393 22.7085 57.3857 22.4302C57.5322 22.1519 57.7422 21.9004 58.0156 21.6758C58.2939 21.4463 58.626 21.2656 59.0117 21.1338C59.4023 20.9971 59.8369 20.9287 60.3154 20.9287C60.8916 20.9287 61.3994 21.0264 61.8389 21.2217C62.2832 21.417 62.6299 21.7124 62.8789 22.1079C63.1328 22.4985 63.2598 22.9893 63.2598 23.5801V27.2715C63.2598 27.5352 63.2817 27.8159 63.3257 28.1138C63.3745 28.4116 63.4453 28.668 63.5381 28.8828V29H62.1245C62.0562 28.8438 62.0024 28.6362 61.9634 28.3774C61.9243 28.1138 61.9048 27.8696 61.9048 27.645ZM62.1392 24.1953L62.1538 25.1475H60.7842C60.3984 25.1475 60.0542 25.1792 59.7515 25.2427C59.4487 25.3013 59.1948 25.3916 58.9897 25.5137C58.7847 25.6357 58.6284 25.7896 58.521 25.9751C58.4136 26.1558 58.3599 26.3682 58.3599 26.6123C58.3599 26.8613 58.416 27.0884 58.5283 27.2935C58.6406 27.4985 58.8091 27.6621 59.0337 27.7842C59.2632 27.9014 59.5439 27.96 59.876 27.96C60.291 27.96 60.6572 27.8721 60.9746 27.6963C61.292 27.5205 61.5435 27.3057 61.729 27.0518C61.9194 26.7979 62.022 26.5513 62.0366 26.312L62.6152 26.9639C62.5811 27.1689 62.4883 27.396 62.3369 27.645C62.1855 27.894 61.9829 28.1333 61.729 28.3628C61.48 28.5874 61.1821 28.7754 60.8354 28.9268C60.4937 29.0732 60.1079 29.1465 59.6782 29.1465C59.1411 29.1465 58.6699 29.0415 58.2646 28.8315C57.8643 28.6216 57.5518 28.3408 57.3271 27.9893C57.1074 27.6328 56.9976 27.2349 56.9976 26.7954C56.9976 26.3706 57.0806 25.9971 57.2466 25.6748C57.4126 25.3477 57.6519 25.0767 57.9644 24.8618C58.2769 24.6421 58.6528 24.4761 59.0923 24.3638C59.5317 24.2515 60.0225 24.1953 60.5645 24.1953H62.1392ZM71.3677 21.0752V29H70.0127V21.0752H71.3677ZM70.9062 24.7153V25.8286C70.6328 25.9312 70.3545 26.0239 70.0713 26.1069C69.793 26.1851 69.4976 26.2485 69.1851 26.2974C68.8774 26.3413 68.543 26.3633 68.1816 26.3633C67.5566 26.3633 67.0146 26.2559 66.5557 26.041C66.0967 25.8213 65.7427 25.4917 65.4937 25.0522C65.2446 24.6079 65.1201 24.0488 65.1201 23.375V21.0605H66.4751V23.375C66.4751 23.8145 66.541 24.1709 66.6729 24.4443C66.8047 24.7178 66.9976 24.9204 67.2515 25.0522C67.5054 25.1792 67.8154 25.2427 68.1816 25.2427C68.5332 25.2427 68.8628 25.2207 69.1704 25.1768C69.4829 25.1279 69.7808 25.0645 70.064 24.9863C70.3521 24.9082 70.6328 24.8179 70.9062 24.7153ZM78.9263 24.5103V25.6089H74.7368V24.5103H78.9263ZM75.0225 21.0752V29H73.6675V21.0752H75.0225ZM80.0249 21.0752V29H78.6626V21.0752H80.0249ZM83.6724 26.854L87.3271 21.0752H88.6895V29H87.3271V23.2212L83.6724 29H82.3247V21.0752H83.6724V26.854ZM96.0576 21.0752V29H94.7026V21.0752H96.0576ZM101.258 21.0752L97.5005 25.6162H95.6035L95.3984 24.4297H96.9512L99.6099 21.0752H101.258ZM99.8003 29L96.8853 25.4111L97.7568 24.4297L101.521 29H99.8003ZM107.374 27.645V23.5654C107.374 23.2529 107.31 22.9819 107.183 22.7524C107.061 22.5181 106.875 22.3374 106.626 22.2104C106.377 22.0835 106.07 22.02 105.704 22.02C105.362 22.02 105.062 22.0786 104.803 22.1958C104.549 22.313 104.349 22.4668 104.202 22.6572C104.061 22.8477 103.99 23.0527 103.99 23.2725H102.635C102.635 22.9893 102.708 22.7085 102.854 22.4302C103.001 22.1519 103.211 21.9004 103.484 21.6758C103.763 21.4463 104.095 21.2656 104.48 21.1338C104.871 20.9971 105.306 20.9287 105.784 20.9287C106.36 20.9287 106.868 21.0264 107.308 21.2217C107.752 21.417 108.099 21.7124 108.348 22.1079C108.602 22.4985 108.729 22.9893 108.729 23.5801V27.2715C108.729 27.5352 108.75 27.8159 108.794 28.1138C108.843 28.4116 108.914 28.668 109.007 28.8828V29H107.593C107.525 28.8438 107.471 28.6362 107.432 28.3774C107.393 28.1138 107.374 27.8696 107.374 27.645ZM107.608 24.1953L107.623 25.1475H106.253C105.867 25.1475 105.523 25.1792 105.22 25.2427C104.917 25.3013 104.664 25.3916 104.458 25.5137C104.253 25.6357 104.097 25.7896 103.99 25.9751C103.882 26.1558 103.829 26.3682 103.829 26.6123C103.829 26.8613 103.885 27.0884 103.997 27.2935C104.109 27.4985 104.278 27.6621 104.502 27.7842C104.732 27.9014 105.013 27.96 105.345 27.96C105.76 27.96 106.126 27.8721 106.443 27.6963C106.761 27.5205 107.012 27.3057 107.198 27.0518C107.388 26.7979 107.491 26.5513 107.505 26.312L108.084 26.9639C108.05 27.1689 107.957 27.396 107.806 27.645C107.654 27.894 107.452 28.1333 107.198 28.3628C106.949 28.5874 106.651 28.7754 106.304 28.9268C105.962 29.0732 105.577 29.1465 105.147 29.1465C104.61 29.1465 104.139 29.0415 103.733 28.8315C103.333 28.6216 103.021 28.3408 102.796 27.9893C102.576 27.6328 102.466 27.2349 102.466 26.7954C102.466 26.3706 102.549 25.9971 102.715 25.6748C102.881 25.3477 103.121 25.0767 103.433 24.8618C103.746 24.6421 104.122 24.4761 104.561 24.3638C105 24.2515 105.491 24.1953 106.033 24.1953H107.608ZM112.215 22.5986V32.0469H110.853V21.0752H112.098L112.215 22.5986ZM117.554 24.9717V25.1255C117.554 25.7017 117.486 26.2363 117.349 26.7295C117.212 27.2178 117.012 27.6426 116.749 28.0039C116.49 28.3652 116.17 28.646 115.789 28.8462C115.408 29.0464 114.971 29.1465 114.478 29.1465C113.975 29.1465 113.531 29.0635 113.145 28.8975C112.759 28.7314 112.432 28.4897 112.164 28.1724C111.895 27.855 111.68 27.4741 111.519 27.0298C111.363 26.5854 111.255 26.085 111.197 25.5283V24.708C111.255 24.1221 111.365 23.5972 111.526 23.1333C111.688 22.6694 111.9 22.2739 112.164 21.9468C112.432 21.6147 112.757 21.3633 113.138 21.1924C113.519 21.0166 113.958 20.9287 114.456 20.9287C114.954 20.9287 115.396 21.0264 115.782 21.2217C116.167 21.4121 116.492 21.6855 116.756 22.042C117.02 22.3984 117.217 22.8257 117.349 23.3237C117.486 23.8169 117.554 24.3662 117.554 24.9717ZM116.192 25.1255V24.9717C116.192 24.5762 116.15 24.2051 116.067 23.8584C115.984 23.5068 115.855 23.1992 115.679 22.9355C115.508 22.667 115.289 22.457 115.02 22.3057C114.751 22.1494 114.432 22.0713 114.061 22.0713C113.719 22.0713 113.421 22.1299 113.167 22.2471C112.918 22.3643 112.706 22.5229 112.53 22.7231C112.354 22.9185 112.21 23.1431 112.098 23.397C111.99 23.646 111.91 23.9048 111.856 24.1733V26.0703C111.954 26.4121 112.09 26.7344 112.266 27.0371C112.442 27.335 112.676 27.5767 112.969 27.7622C113.262 27.9429 113.631 28.0332 114.075 28.0332C114.441 28.0332 114.756 27.9575 115.02 27.8062C115.289 27.6499 115.508 27.4375 115.679 27.1689C115.855 26.9004 115.984 26.5928 116.067 26.2461C116.15 25.8945 116.192 25.521 116.192 25.1255ZM120.396 23.7998H122.776C123.416 23.7998 123.956 23.9121 124.395 24.1367C124.834 24.3564 125.167 24.6616 125.391 25.0522C125.621 25.438 125.735 25.8774 125.735 26.3706C125.735 26.7368 125.672 27.0811 125.545 27.4033C125.418 27.7207 125.228 27.999 124.974 28.2383C124.725 28.4775 124.415 28.6655 124.043 28.8022C123.677 28.9341 123.255 29 122.776 29H119.407V21.0752H120.762V27.8867H122.776C123.167 27.8867 123.479 27.8159 123.714 27.6743C123.948 27.5327 124.117 27.3496 124.219 27.125C124.322 26.9004 124.373 26.666 124.373 26.4219C124.373 26.1826 124.322 25.9482 124.219 25.7188C124.117 25.4893 123.948 25.2988 123.714 25.1475C123.479 24.9912 123.167 24.9131 122.776 24.9131H120.396V23.7998ZM130.716 29.1465C130.164 29.1465 129.664 29.0537 129.214 28.8682C128.77 28.6777 128.387 28.4116 128.064 28.0698C127.747 27.728 127.503 27.3228 127.332 26.854C127.161 26.3853 127.076 25.8726 127.076 25.3159V25.0083C127.076 24.3638 127.171 23.79 127.361 23.2871C127.552 22.7793 127.811 22.3496 128.138 21.998C128.465 21.6465 128.836 21.3804 129.251 21.1997C129.666 21.019 130.096 20.9287 130.54 20.9287C131.106 20.9287 131.595 21.0264 132.005 21.2217C132.42 21.417 132.759 21.6904 133.023 22.042C133.287 22.3887 133.482 22.7988 133.609 23.2725C133.736 23.7412 133.799 24.2539 133.799 24.8105V25.4185H127.881V24.3125H132.444V24.21C132.425 23.8584 132.352 23.5166 132.225 23.1846C132.103 22.8525 131.907 22.5791 131.639 22.3643C131.37 22.1494 131.004 22.042 130.54 22.042C130.232 22.042 129.949 22.1079 129.69 22.2397C129.432 22.3667 129.209 22.5571 129.024 22.811C128.838 23.0649 128.694 23.375 128.592 23.7412C128.489 24.1074 128.438 24.5298 128.438 25.0083V25.3159C128.438 25.6919 128.489 26.0459 128.592 26.3779C128.699 26.7051 128.853 26.9932 129.053 27.2422C129.258 27.4912 129.505 27.6865 129.793 27.8281C130.086 27.9697 130.418 28.0405 130.789 28.0405C131.268 28.0405 131.673 27.9429 132.005 27.7476C132.337 27.5522 132.627 27.291 132.876 26.9639L133.697 27.6157C133.526 27.8745 133.309 28.1211 133.045 28.3555C132.781 28.5898 132.457 28.7803 132.071 28.9268C131.69 29.0732 131.238 29.1465 130.716 29.1465ZM136.736 22.5986V32.0469H135.374V21.0752H136.619L136.736 22.5986ZM142.076 24.9717V25.1255C142.076 25.7017 142.007 26.2363 141.871 26.7295C141.734 27.2178 141.534 27.6426 141.27 28.0039C141.011 28.3652 140.691 28.646 140.311 28.8462C139.93 29.0464 139.493 29.1465 139 29.1465C138.497 29.1465 138.052 29.0635 137.667 28.8975C137.281 28.7314 136.954 28.4897 136.685 28.1724C136.417 27.855 136.202 27.4741 136.041 27.0298C135.884 26.5854 135.777 26.085 135.718 25.5283V24.708C135.777 24.1221 135.887 23.5972 136.048 23.1333C136.209 22.6694 136.421 22.2739 136.685 21.9468C136.954 21.6147 137.278 21.3633 137.659 21.1924C138.04 21.0166 138.479 20.9287 138.978 20.9287C139.476 20.9287 139.917 21.0264 140.303 21.2217C140.689 21.4121 141.014 21.6855 141.277 22.042C141.541 22.3984 141.739 22.8257 141.871 23.3237C142.007 23.8169 142.076 24.3662 142.076 24.9717ZM140.713 25.1255V24.9717C140.713 24.5762 140.672 24.2051 140.589 23.8584C140.506 23.5068 140.376 23.1992 140.201 22.9355C140.03 22.667 139.81 22.457 139.542 22.3057C139.273 22.1494 138.953 22.0713 138.582 22.0713C138.24 22.0713 137.942 22.1299 137.688 22.2471C137.439 22.3643 137.227 22.5229 137.051 22.7231C136.875 22.9185 136.731 23.1431 136.619 23.397C136.512 23.646 136.431 23.9048 136.377 24.1733V26.0703C136.475 26.4121 136.612 26.7344 136.788 27.0371C136.963 27.335 137.198 27.5767 137.491 27.7622C137.784 27.9429 138.152 28.0332 138.597 28.0332C138.963 28.0332 139.278 27.9575 139.542 27.8062C139.81 27.6499 140.03 27.4375 140.201 27.1689C140.376 26.9004 140.506 26.5928 140.589 26.2461C140.672 25.8945 140.713 25.521 140.713 25.1255ZM145.943 28.1797L148.147 21.0752H149.598L146.419 30.2231C146.346 30.4185 146.248 30.6284 146.126 30.853C146.009 31.0825 145.857 31.2998 145.672 31.5049C145.486 31.71 145.262 31.876 144.998 32.0029C144.739 32.1348 144.429 32.2007 144.068 32.2007C143.96 32.2007 143.824 32.186 143.658 32.1567C143.492 32.1274 143.375 32.103 143.306 32.0835L143.299 30.9849C143.338 30.9897 143.399 30.9946 143.482 30.9995C143.57 31.0093 143.631 31.0142 143.665 31.0142C143.973 31.0142 144.234 30.9727 144.449 30.8896C144.664 30.8115 144.844 30.6772 144.991 30.4868C145.142 30.3013 145.271 30.0449 145.379 29.7178L145.943 28.1797ZM144.324 21.0752L146.382 27.2275L146.734 28.6558L145.76 29.1538L142.845 21.0752H144.324ZM17.5933 43.8179H14.7441V42.668H17.5933C18.145 42.668 18.5918 42.5801 18.9336 42.4043C19.2754 42.2285 19.5244 41.9844 19.6807 41.6719C19.8418 41.3594 19.9224 41.0029 19.9224 40.6025C19.9224 40.2363 19.8418 39.8921 19.6807 39.5698C19.5244 39.2476 19.2754 38.9888 18.9336 38.7935C18.5918 38.5933 18.145 38.4932 17.5933 38.4932H15.0737V48H13.6602V37.3359H17.5933C18.3989 37.3359 19.0801 37.4751 19.6367 37.7534C20.1934 38.0317 20.6157 38.4175 20.9038 38.9106C21.1919 39.3989 21.3359 39.958 21.3359 40.5879C21.3359 41.2715 21.1919 41.855 20.9038 42.3384C20.6157 42.8218 20.1934 43.1904 19.6367 43.4443C19.0801 43.6934 18.3989 43.8179 17.5933 43.8179ZM22.4565 44.1255V43.957C22.4565 43.3857 22.5396 42.856 22.7056 42.3677C22.8716 41.8745 23.1108 41.4473 23.4233 41.0859C23.7358 40.7197 24.1143 40.4365 24.5586 40.2363C25.0029 40.0312 25.501 39.9287 26.0527 39.9287C26.6094 39.9287 27.1099 40.0312 27.5542 40.2363C28.0034 40.4365 28.3843 40.7197 28.6968 41.0859C29.0142 41.4473 29.2559 41.8745 29.4219 42.3677C29.5879 42.856 29.6709 43.3857 29.6709 43.957V44.1255C29.6709 44.6968 29.5879 45.2266 29.4219 45.7148C29.2559 46.2031 29.0142 46.6304 28.6968 46.9966C28.3843 47.3579 28.0059 47.6411 27.5615 47.8462C27.1221 48.0464 26.624 48.1465 26.0674 48.1465C25.5107 48.1465 25.0103 48.0464 24.5659 47.8462C24.1216 47.6411 23.7407 47.3579 23.4233 46.9966C23.1108 46.6304 22.8716 46.2031 22.7056 45.7148C22.5396 45.2266 22.4565 44.6968 22.4565 44.1255ZM23.8115 43.957V44.1255C23.8115 44.521 23.8579 44.8945 23.9507 45.2461C24.0435 45.5928 24.1826 45.9004 24.3682 46.1689C24.5586 46.4375 24.7954 46.6499 25.0786 46.8062C25.3618 46.9575 25.6914 47.0332 26.0674 47.0332C26.4385 47.0332 26.7632 46.9575 27.0415 46.8062C27.3247 46.6499 27.5591 46.4375 27.7446 46.1689C27.9302 45.9004 28.0693 45.5928 28.1621 45.2461C28.2598 44.8945 28.3086 44.521 28.3086 44.1255V43.957C28.3086 43.5664 28.2598 43.1978 28.1621 42.8511C28.0693 42.4995 27.9277 42.1895 27.7373 41.9209C27.5518 41.6475 27.3174 41.4326 27.0342 41.2764C26.7559 41.1201 26.4287 41.042 26.0527 41.042C25.6816 41.042 25.3545 41.1201 25.0713 41.2764C24.793 41.4326 24.5586 41.6475 24.3682 41.9209C24.1826 42.1895 24.0435 42.4995 23.9507 42.8511C23.8579 43.1978 23.8115 43.5664 23.8115 43.957ZM32.7324 36.75V48H31.3701V36.75H32.7324ZM37.5737 40.0752L34.1167 43.7739L32.1831 45.7808L32.0732 44.3379L33.4575 42.6826L35.9185 40.0752H37.5737ZM36.3359 48L33.5088 44.2207L34.2119 43.0122L37.9326 48H36.3359ZM42.1147 48.1465C41.563 48.1465 41.0625 48.0537 40.6133 47.8682C40.1689 47.6777 39.7856 47.4116 39.4634 47.0698C39.146 46.728 38.9019 46.3228 38.731 45.854C38.5601 45.3853 38.4746 44.8726 38.4746 44.3159V44.0083C38.4746 43.3638 38.5698 42.79 38.7603 42.2871C38.9507 41.7793 39.2095 41.3496 39.5366 40.998C39.8638 40.6465 40.2349 40.3804 40.6499 40.1997C41.0649 40.019 41.4946 39.9287 41.939 39.9287C42.5054 39.9287 42.9937 40.0264 43.4038 40.2217C43.8188 40.417 44.1582 40.6904 44.4219 41.042C44.6855 41.3887 44.8809 41.7988 45.0078 42.2725C45.1348 42.7412 45.1982 43.2539 45.1982 43.8105V44.4185H39.2803V43.3125H43.8433V43.21C43.8237 42.8584 43.7505 42.5166 43.6235 42.1846C43.5015 41.8525 43.3062 41.5791 43.0376 41.3643C42.769 41.1494 42.4028 41.042 41.939 41.042C41.6313 41.042 41.3481 41.1079 41.0894 41.2397C40.8306 41.3667 40.6084 41.5571 40.4229 41.811C40.2373 42.0649 40.0933 42.375 39.9907 42.7412C39.8882 43.1074 39.8369 43.5298 39.8369 44.0083V44.3159C39.8369 44.6919 39.8882 45.0459 39.9907 45.3779C40.0981 45.7051 40.252 45.9932 40.4521 46.2422C40.6572 46.4912 40.9038 46.6865 41.1919 46.8281C41.4849 46.9697 41.8169 47.0405 42.188 47.0405C42.6665 47.0405 43.0718 46.9429 43.4038 46.7476C43.7358 46.5522 44.0264 46.291 44.2754 45.9639L45.0957 46.6157C44.9248 46.8745 44.7075 47.1211 44.4438 47.3555C44.1802 47.5898 43.8555 47.7803 43.4697 47.9268C43.0889 48.0732 42.6372 48.1465 42.1147 48.1465ZM48.1353 41.3203V48H46.7803V40.0752H48.0986L48.1353 41.3203ZM50.6108 40.0312L50.6035 41.291C50.4912 41.2666 50.3838 41.252 50.2812 41.2471C50.1836 41.2373 50.0713 41.2324 49.9443 41.2324C49.6318 41.2324 49.356 41.2812 49.1167 41.3789C48.8774 41.4766 48.6748 41.6133 48.5088 41.7891C48.3428 41.9648 48.2109 42.1748 48.1133 42.4189C48.0205 42.6582 47.9595 42.9219 47.9302 43.21L47.5493 43.4297C47.5493 42.9512 47.5957 42.502 47.6885 42.082C47.7861 41.6621 47.9351 41.291 48.1353 40.9688C48.3354 40.6416 48.5894 40.3877 48.897 40.207C49.2095 40.0215 49.5806 39.9287 50.0103 39.9287C50.1079 39.9287 50.2202 39.9409 50.3472 39.9653C50.4741 39.9849 50.562 40.0068 50.6108 40.0312ZM59.7222 43.8179H56.873V42.668H59.7222C60.2739 42.668 60.7207 42.5801 61.0625 42.4043C61.4043 42.2285 61.6533 41.9844 61.8096 41.6719C61.9707 41.3594 62.0513 41.0029 62.0513 40.6025C62.0513 40.2363 61.9707 39.8921 61.8096 39.5698C61.6533 39.2476 61.4043 38.9888 61.0625 38.7935C60.7207 38.5933 60.2739 38.4932 59.7222 38.4932H57.2026V48H55.7891V37.3359H59.7222C60.5278 37.3359 61.209 37.4751 61.7656 37.7534C62.3223 38.0317 62.7446 38.4175 63.0327 38.9106C63.3208 39.3989 63.4648 39.958 63.4648 40.5879C63.4648 41.2715 63.3208 41.855 63.0327 42.3384C62.7446 42.8218 62.3223 43.1904 61.7656 43.4443C61.209 43.6934 60.5278 43.8179 59.7222 43.8179ZM66.4019 41.3203V48H65.0469V40.0752H66.3652L66.4019 41.3203ZM68.8774 40.0312L68.8701 41.291C68.7578 41.2666 68.6504 41.252 68.5479 41.2471C68.4502 41.2373 68.3379 41.2324 68.2109 41.2324C67.8984 41.2324 67.6226 41.2812 67.3833 41.3789C67.144 41.4766 66.9414 41.6133 66.7754 41.7891C66.6094 41.9648 66.4775 42.1748 66.3799 42.4189C66.2871 42.6582 66.2261 42.9219 66.1968 43.21L65.8159 43.4297C65.8159 42.9512 65.8623 42.502 65.9551 42.082C66.0527 41.6621 66.2017 41.291 66.4019 40.9688C66.6021 40.6416 66.856 40.3877 67.1636 40.207C67.4761 40.0215 67.8472 39.9287 68.2769 39.9287C68.3745 39.9287 68.4868 39.9409 68.6138 39.9653C68.7407 39.9849 68.8286 40.0068 68.8774 40.0312ZM69.6245 44.1255V43.957C69.6245 43.3857 69.7075 42.856 69.8735 42.3677C70.0396 41.8745 70.2788 41.4473 70.5913 41.0859C70.9038 40.7197 71.2822 40.4365 71.7266 40.2363C72.1709 40.0312 72.6689 39.9287 73.2207 39.9287C73.7773 39.9287 74.2778 40.0312 74.7222 40.2363C75.1714 40.4365 75.5522 40.7197 75.8647 41.0859C76.1821 41.4473 76.4238 41.8745 76.5898 42.3677C76.7559 42.856 76.8389 43.3857 76.8389 43.957V44.1255C76.8389 44.6968 76.7559 45.2266 76.5898 45.7148C76.4238 46.2031 76.1821 46.6304 75.8647 46.9966C75.5522 47.3579 75.1738 47.6411 74.7295 47.8462C74.29 48.0464 73.792 48.1465 73.2354 48.1465C72.6787 48.1465 72.1782 48.0464 71.7339 47.8462C71.2896 47.6411 70.9087 47.3579 70.5913 46.9966C70.2788 46.6304 70.0396 46.2031 69.8735 45.7148C69.7075 45.2266 69.6245 44.6968 69.6245 44.1255ZM70.9795 43.957V44.1255C70.9795 44.521 71.0259 44.8945 71.1187 45.2461C71.2114 45.5928 71.3506 45.9004 71.5361 46.1689C71.7266 46.4375 71.9634 46.6499 72.2466 46.8062C72.5298 46.9575 72.8594 47.0332 73.2354 47.0332C73.6064 47.0332 73.9312 46.9575 74.2095 46.8062C74.4927 46.6499 74.7271 46.4375 74.9126 46.1689C75.0981 45.9004 75.2373 45.5928 75.3301 45.2461C75.4277 44.8945 75.4766 44.521 75.4766 44.1255V43.957C75.4766 43.5664 75.4277 43.1978 75.3301 42.8511C75.2373 42.4995 75.0957 42.1895 74.9053 41.9209C74.7197 41.6475 74.4854 41.4326 74.2021 41.2764C73.9238 41.1201 73.5967 41.042 73.2207 41.042C72.8496 41.042 72.5225 41.1201 72.2393 41.2764C71.9609 41.4326 71.7266 41.6475 71.5361 41.9209C71.3506 42.1895 71.2114 42.4995 71.1187 42.8511C71.0259 43.1978 70.9795 43.5664 70.9795 43.957ZM83.7236 45.854L87.3784 40.0752H88.7407V48H87.3784V42.2212L83.7236 48H82.376V40.0752H83.7236V45.854ZM97.5957 44.2134H96.1382V43.3784H97.4858C97.8618 43.3784 98.1597 43.332 98.3794 43.2393C98.5991 43.1416 98.7554 43.0073 98.8481 42.8364C98.9409 42.6655 98.9873 42.4653 98.9873 42.2358C98.9873 42.0308 98.9336 41.8379 98.8262 41.6572C98.7236 41.4717 98.5576 41.3228 98.3281 41.2104C98.0986 41.0933 97.791 41.0347 97.4053 41.0347C97.0928 41.0347 96.8096 41.0908 96.5557 41.2031C96.3018 41.3105 96.0991 41.4595 95.9478 41.6499C95.8013 41.8354 95.728 42.0454 95.728 42.2798H94.373C94.373 41.7964 94.5098 41.3813 94.7832 41.0347C95.0615 40.6831 95.4302 40.4121 95.8892 40.2217C96.353 40.0312 96.8584 39.936 97.4053 39.936C97.8643 39.936 98.2744 39.9873 98.6357 40.0898C99.002 40.1875 99.312 40.334 99.5659 40.5293C99.8198 40.7197 100.013 40.959 100.145 41.2471C100.281 41.5303 100.35 41.8599 100.35 42.2358C100.35 42.5044 100.286 42.7583 100.159 42.9976C100.032 43.2368 99.8491 43.4492 99.6099 43.6348C99.3706 43.8154 99.0801 43.957 98.7383 44.0596C98.4014 44.1621 98.0205 44.2134 97.5957 44.2134ZM96.1382 43.7007H97.5957C98.0693 43.7007 98.4868 43.7471 98.8481 43.8398C99.2095 43.9277 99.5122 44.0596 99.7563 44.2354C100 44.4111 100.184 44.6284 100.306 44.8872C100.433 45.1411 100.496 45.4341 100.496 45.7661C100.496 46.1372 100.42 46.4717 100.269 46.7695C100.123 47.0625 99.9126 47.3115 99.6392 47.5166C99.3657 47.7217 99.0386 47.8779 98.6577 47.9854C98.2817 48.0928 97.8643 48.1465 97.4053 48.1465C96.8926 48.1465 96.3945 48.0586 95.9111 47.8828C95.4277 47.707 95.0298 47.436 94.7173 47.0698C94.4048 46.6987 94.2485 46.2275 94.2485 45.6562H95.6035C95.6035 45.8955 95.6792 46.1226 95.8306 46.3374C95.9819 46.5522 96.1919 46.7256 96.4604 46.8574C96.7339 46.9893 97.0488 47.0552 97.4053 47.0552C97.7861 47.0552 98.1035 46.9966 98.3574 46.8794C98.6113 46.7622 98.8018 46.606 98.9287 46.4106C99.0605 46.2153 99.1265 46.0029 99.1265 45.7734C99.1265 45.4756 99.0679 45.2363 98.9507 45.0557C98.8335 44.875 98.6528 44.7432 98.4087 44.6602C98.1694 44.5723 97.8618 44.5283 97.4858 44.5283H96.1382V43.7007ZM106.927 46.645V42.5654C106.927 42.2529 106.863 41.9819 106.736 41.7524C106.614 41.5181 106.429 41.3374 106.18 41.2104C105.931 41.0835 105.623 41.02 105.257 41.02C104.915 41.02 104.615 41.0786 104.356 41.1958C104.102 41.313 103.902 41.4668 103.755 41.6572C103.614 41.8477 103.543 42.0527 103.543 42.2725H102.188C102.188 41.9893 102.261 41.7085 102.408 41.4302C102.554 41.1519 102.764 40.9004 103.038 40.6758C103.316 40.4463 103.648 40.2656 104.034 40.1338C104.424 39.9971 104.859 39.9287 105.337 39.9287C105.914 39.9287 106.421 40.0264 106.861 40.2217C107.305 40.417 107.652 40.7124 107.901 41.1079C108.155 41.4985 108.282 41.9893 108.282 42.5801V46.2715C108.282 46.5352 108.304 46.8159 108.348 47.1138C108.396 47.4116 108.467 47.668 108.56 47.8828V48H107.146C107.078 47.8438 107.024 47.6362 106.985 47.3774C106.946 47.1138 106.927 46.8696 106.927 46.645ZM107.161 43.1953L107.176 44.1475H105.806C105.42 44.1475 105.076 44.1792 104.773 44.2427C104.471 44.3013 104.217 44.3916 104.012 44.5137C103.807 44.6357 103.65 44.7896 103.543 44.9751C103.436 45.1558 103.382 45.3682 103.382 45.6123C103.382 45.8613 103.438 46.0884 103.55 46.2935C103.663 46.4985 103.831 46.6621 104.056 46.7842C104.285 46.9014 104.566 46.96 104.898 46.96C105.313 46.96 105.679 46.8721 105.997 46.6963C106.314 46.5205 106.565 46.3057 106.751 46.0518C106.941 45.7979 107.044 45.5513 107.059 45.312L107.637 45.9639C107.603 46.1689 107.51 46.396 107.359 46.645C107.208 46.894 107.005 47.1333 106.751 47.3628C106.502 47.5874 106.204 47.7754 105.857 47.9268C105.516 48.0732 105.13 48.1465 104.7 48.1465C104.163 48.1465 103.692 48.0415 103.287 47.8315C102.886 47.6216 102.574 47.3408 102.349 46.9893C102.129 46.6328 102.02 46.2349 102.02 45.7954C102.02 45.3706 102.103 44.9971 102.269 44.6748C102.435 44.3477 102.674 44.0767 102.986 43.8618C103.299 43.6421 103.675 43.4761 104.114 43.3638C104.554 43.2515 105.044 43.1953 105.586 43.1953H107.161ZM111.768 41.5986V51.0469H110.406V40.0752H111.651L111.768 41.5986ZM117.107 43.9717V44.1255C117.107 44.7017 117.039 45.2363 116.902 45.7295C116.766 46.2178 116.565 46.6426 116.302 47.0039C116.043 47.3652 115.723 47.646 115.342 47.8462C114.961 48.0464 114.524 48.1465 114.031 48.1465C113.528 48.1465 113.084 48.0635 112.698 47.8975C112.312 47.7314 111.985 47.4897 111.717 47.1724C111.448 46.855 111.233 46.4741 111.072 46.0298C110.916 45.5854 110.809 45.085 110.75 44.5283V43.708C110.809 43.1221 110.918 42.5972 111.08 42.1333C111.241 41.6694 111.453 41.2739 111.717 40.9468C111.985 40.6147 112.31 40.3633 112.691 40.1924C113.072 40.0166 113.511 39.9287 114.009 39.9287C114.507 39.9287 114.949 40.0264 115.335 40.2217C115.721 40.4121 116.045 40.6855 116.309 41.042C116.573 41.3984 116.771 41.8257 116.902 42.3237C117.039 42.8169 117.107 43.3662 117.107 43.9717ZM115.745 44.1255V43.9717C115.745 43.5762 115.704 43.2051 115.621 42.8584C115.538 42.5068 115.408 42.1992 115.232 41.9355C115.062 41.667 114.842 41.457 114.573 41.3057C114.305 41.1494 113.985 41.0713 113.614 41.0713C113.272 41.0713 112.974 41.1299 112.72 41.2471C112.471 41.3643 112.259 41.5229 112.083 41.7231C111.907 41.9185 111.763 42.1431 111.651 42.397C111.543 42.646 111.463 42.9048 111.409 43.1733V45.0703C111.507 45.4121 111.644 45.7344 111.819 46.0371C111.995 46.335 112.229 46.5767 112.522 46.7622C112.815 46.9429 113.184 47.0332 113.628 47.0332C113.995 47.0332 114.31 46.9575 114.573 46.8062C114.842 46.6499 115.062 46.4375 115.232 46.1689C115.408 45.9004 115.538 45.5928 115.621 45.2461C115.704 44.8945 115.745 44.521 115.745 44.1255ZM123.509 46.645V42.5654C123.509 42.2529 123.445 41.9819 123.318 41.7524C123.196 41.5181 123.011 41.3374 122.762 41.2104C122.513 41.0835 122.205 41.02 121.839 41.02C121.497 41.02 121.197 41.0786 120.938 41.1958C120.684 41.313 120.484 41.4668 120.337 41.6572C120.196 41.8477 120.125 42.0527 120.125 42.2725H118.77C118.77 41.9893 118.843 41.7085 118.99 41.4302C119.136 41.1519 119.346 40.9004 119.62 40.6758C119.898 40.4463 120.23 40.2656 120.616 40.1338C121.006 39.9971 121.441 39.9287 121.919 39.9287C122.496 39.9287 123.003 40.0264 123.443 40.2217C123.887 40.417 124.234 40.7124 124.483 41.1079C124.737 41.4985 124.864 41.9893 124.864 42.5801V46.2715C124.864 46.5352 124.886 46.8159 124.93 47.1138C124.979 47.4116 125.049 47.668 125.142 47.8828V48H123.729C123.66 47.8438 123.606 47.6362 123.567 47.3774C123.528 47.1138 123.509 46.8696 123.509 46.645ZM123.743 43.1953L123.758 44.1475H122.388C122.002 44.1475 121.658 44.1792 121.355 44.2427C121.053 44.3013 120.799 44.3916 120.594 44.5137C120.389 44.6357 120.232 44.7896 120.125 44.9751C120.018 45.1558 119.964 45.3682 119.964 45.6123C119.964 45.8613 120.02 46.0884 120.132 46.2935C120.245 46.4985 120.413 46.6621 120.638 46.7842C120.867 46.9014 121.148 46.96 121.48 46.96C121.895 46.96 122.261 46.8721 122.579 46.6963C122.896 46.5205 123.147 46.3057 123.333 46.0518C123.523 45.7979 123.626 45.5513 123.641 45.312L124.219 45.9639C124.185 46.1689 124.092 46.396 123.941 46.645C123.79 46.894 123.587 47.1333 123.333 47.3628C123.084 47.5874 122.786 47.7754 122.439 47.9268C122.098 48.0732 121.712 48.1465 121.282 48.1465C120.745 48.1465 120.274 48.0415 119.869 47.8315C119.468 47.6216 119.156 47.3408 118.931 46.9893C118.711 46.6328 118.602 46.2349 118.602 45.7954C118.602 45.3706 118.685 44.9971 118.851 44.6748C119.017 44.3477 119.256 44.0767 119.568 43.8618C119.881 43.6421 120.257 43.4761 120.696 43.3638C121.136 43.2515 121.626 43.1953 122.168 43.1953H123.743ZM132.078 36.6255H133.191C133.191 37.104 133.118 37.4849 132.972 37.7681C132.825 38.0464 132.625 38.2612 132.371 38.4126C132.122 38.564 131.839 38.6787 131.521 38.7568C131.209 38.835 130.884 38.9106 130.547 38.9839C130.127 39.0718 129.737 39.2109 129.375 39.4014C129.019 39.5869 128.711 39.8506 128.453 40.1924C128.199 40.5342 128.011 40.9785 127.889 41.5254C127.771 42.0723 127.74 42.7485 127.793 43.5542V44.228H126.68V43.5542C126.68 42.6509 126.766 41.8623 126.937 41.1885C127.112 40.5146 127.359 39.9458 127.676 39.4819C127.994 39.0181 128.37 38.6494 128.804 38.376C129.244 38.1025 129.727 37.9146 130.254 37.812C130.635 37.7388 130.962 37.6606 131.236 37.5776C131.509 37.4897 131.717 37.3726 131.858 37.2261C132.005 37.0796 132.078 36.8794 132.078 36.6255ZM130.474 40.5293C130.992 40.5293 131.453 40.6196 131.858 40.8003C132.264 40.981 132.608 41.2324 132.891 41.5547C133.174 41.877 133.389 42.2578 133.536 42.6973C133.687 43.1318 133.763 43.6055 133.763 44.1182V44.2793C133.763 44.8311 133.682 45.3438 133.521 45.8174C133.365 46.2861 133.133 46.6963 132.825 47.0479C132.522 47.3945 132.151 47.6655 131.712 47.8608C131.277 48.0562 130.782 48.1538 130.225 48.1538C129.668 48.1538 129.17 48.0562 128.731 47.8608C128.296 47.6655 127.925 47.3945 127.618 47.0479C127.31 46.6963 127.076 46.2861 126.915 45.8174C126.758 45.3438 126.68 44.8311 126.68 44.2793V44.1182C126.68 43.9961 126.702 43.8765 126.746 43.7593C126.79 43.6421 126.844 43.5225 126.907 43.4004C126.976 43.2783 127.037 43.1489 127.09 43.0122C127.271 42.5728 127.518 42.165 127.83 41.7891C128.147 41.4131 128.526 41.1104 128.965 40.8809C129.41 40.6465 129.913 40.5293 130.474 40.5293ZM130.21 41.6353C129.712 41.6353 129.302 41.75 128.98 41.9795C128.663 42.209 128.426 42.5142 128.27 42.895C128.113 43.271 128.035 43.6787 128.035 44.1182V44.2793C128.035 44.6504 128.079 45.002 128.167 45.334C128.255 45.666 128.387 45.9614 128.562 46.2202C128.743 46.4741 128.97 46.6743 129.244 46.8208C129.522 46.9673 129.849 47.0405 130.225 47.0405C130.601 47.0405 130.926 46.9673 131.199 46.8208C131.473 46.6743 131.697 46.4741 131.873 46.2202C132.049 45.9614 132.181 45.666 132.269 45.334C132.356 45.002 132.4 44.6504 132.4 44.2793V44.1182C132.4 43.7861 132.356 43.4712 132.269 43.1733C132.181 42.8755 132.046 42.6118 131.866 42.3823C131.69 42.1528 131.463 41.9722 131.185 41.8403C130.911 41.7036 130.586 41.6353 130.21 41.6353ZM139.974 46.645V42.5654C139.974 42.2529 139.91 41.9819 139.783 41.7524C139.661 41.5181 139.476 41.3374 139.227 41.2104C138.978 41.0835 138.67 41.02 138.304 41.02C137.962 41.02 137.662 41.0786 137.403 41.1958C137.149 41.313 136.949 41.4668 136.802 41.6572C136.661 41.8477 136.59 42.0527 136.59 42.2725H135.235C135.235 41.9893 135.308 41.7085 135.455 41.4302C135.601 41.1519 135.811 40.9004 136.084 40.6758C136.363 40.4463 136.695 40.2656 137.081 40.1338C137.471 39.9971 137.906 39.9287 138.384 39.9287C138.96 39.9287 139.468 40.0264 139.908 40.2217C140.352 40.417 140.699 40.7124 140.948 41.1079C141.202 41.4985 141.329 41.9893 141.329 42.5801V46.2715C141.329 46.5352 141.351 46.8159 141.395 47.1138C141.443 47.4116 141.514 47.668 141.607 47.8828V48H140.193C140.125 47.8438 140.071 47.6362 140.032 47.3774C139.993 47.1138 139.974 46.8696 139.974 46.645ZM140.208 43.1953L140.223 44.1475H138.853C138.467 44.1475 138.123 44.1792 137.82 44.2427C137.518 44.3013 137.264 44.3916 137.059 44.5137C136.854 44.6357 136.697 44.7896 136.59 44.9751C136.482 45.1558 136.429 45.3682 136.429 45.6123C136.429 45.8613 136.485 46.0884 136.597 46.2935C136.709 46.4985 136.878 46.6621 137.103 46.7842C137.332 46.9014 137.613 46.96 137.945 46.96C138.36 46.96 138.726 46.8721 139.043 46.6963C139.361 46.5205 139.612 46.3057 139.798 46.0518C139.988 45.7979 140.091 45.5513 140.105 45.312L140.684 45.9639C140.65 46.1689 140.557 46.396 140.406 46.645C140.254 46.894 140.052 47.1333 139.798 47.3628C139.549 47.5874 139.251 47.7754 138.904 47.9268C138.562 48.0732 138.177 48.1465 137.747 48.1465C137.21 48.1465 136.739 48.0415 136.333 47.8315C135.933 47.6216 135.621 47.3408 135.396 46.9893C135.176 46.6328 135.066 46.2349 135.066 45.7954C135.066 45.3706 135.149 44.9971 135.315 44.6748C135.481 44.3477 135.721 44.0767 136.033 43.8618C136.346 43.6421 136.722 43.4761 137.161 43.3638C137.601 43.2515 138.091 43.1953 138.633 43.1953H140.208ZM146.573 40.0752V48H145.21V40.0752H146.573ZM149.231 40.0752V41.1738H142.603V40.0752H149.231ZM151.678 42.7998H154.058C154.698 42.7998 155.237 42.9121 155.677 43.1367C156.116 43.3564 156.448 43.6616 156.673 44.0522C156.902 44.438 157.017 44.8774 157.017 45.3706C157.017 45.7368 156.954 46.0811 156.827 46.4033C156.7 46.7207 156.509 46.999 156.255 47.2383C156.006 47.4775 155.696 47.6655 155.325 47.8022C154.959 47.9341 154.537 48 154.058 48H150.689V40.0752H152.044V46.8867H154.058C154.449 46.8867 154.761 46.8159 154.996 46.6743C155.23 46.5327 155.398 46.3496 155.501 46.125C155.604 45.9004 155.655 45.666 155.655 45.4219C155.655 45.1826 155.604 44.9482 155.501 44.7188C155.398 44.4893 155.23 44.2988 154.996 44.1475C154.761 43.9912 154.449 43.9131 154.058 43.9131H151.678V42.7998ZM159.837 40.0752V48H158.482V40.0752H159.837ZM165.931 44.5137H163.331L163.316 43.4297H165.44C165.86 43.4297 166.209 43.3882 166.487 43.3052C166.771 43.2222 166.983 43.0977 167.125 42.9316C167.266 42.7656 167.337 42.5605 167.337 42.3164C167.337 42.126 167.295 41.96 167.212 41.8184C167.134 41.6719 167.015 41.5522 166.854 41.4595C166.692 41.3618 166.492 41.291 166.253 41.2471C166.019 41.1982 165.743 41.1738 165.425 41.1738H163.689V48H162.334V40.0752H165.425C165.928 40.0752 166.38 40.1191 166.78 40.207C167.186 40.2949 167.53 40.4292 167.813 40.6099C168.101 40.7856 168.321 41.0103 168.472 41.2837C168.624 41.5571 168.699 41.8794 168.699 42.2505C168.699 42.4897 168.65 42.7168 168.553 42.9316C168.455 43.1465 168.311 43.3369 168.121 43.5029C167.93 43.6689 167.696 43.8057 167.417 43.9131C167.139 44.0156 166.819 44.0815 166.458 44.1108L165.931 44.5137ZM165.931 48H162.84L163.514 46.9014H165.931C166.307 46.9014 166.619 46.855 166.868 46.7622C167.117 46.6646 167.303 46.5278 167.425 46.3521C167.552 46.1714 167.615 45.9565 167.615 45.7075C167.615 45.4585 167.552 45.2461 167.425 45.0703C167.303 44.8896 167.117 44.7529 166.868 44.6602C166.619 44.5625 166.307 44.5137 165.931 44.5137H163.873L163.887 43.4297H166.458L166.949 43.8398C167.383 43.874 167.752 43.9814 168.055 44.1621C168.357 44.3428 168.587 44.5723 168.743 44.8506C168.899 45.124 168.978 45.4219 168.978 45.7441C168.978 46.1152 168.907 46.4424 168.765 46.7256C168.628 47.0088 168.428 47.2456 168.165 47.436C167.901 47.6216 167.581 47.7632 167.205 47.8608C166.829 47.9536 166.404 48 165.931 48ZM175.467 46.645V42.5654C175.467 42.2529 175.403 41.9819 175.276 41.7524C175.154 41.5181 174.969 41.3374 174.72 41.2104C174.471 41.0835 174.163 41.02 173.797 41.02C173.455 41.02 173.155 41.0786 172.896 41.1958C172.642 41.313 172.442 41.4668 172.295 41.6572C172.154 41.8477 172.083 42.0527 172.083 42.2725H170.728C170.728 41.9893 170.801 41.7085 170.948 41.4302C171.094 41.1519 171.304 40.9004 171.578 40.6758C171.856 40.4463 172.188 40.2656 172.574 40.1338C172.964 39.9971 173.399 39.9287 173.877 39.9287C174.454 39.9287 174.961 40.0264 175.401 40.2217C175.845 40.417 176.192 40.7124 176.441 41.1079C176.695 41.4985 176.822 41.9893 176.822 42.5801V46.2715C176.822 46.5352 176.844 46.8159 176.888 47.1138C176.937 47.4116 177.007 47.668 177.1 47.8828V48H175.687C175.618 47.8438 175.564 47.6362 175.525 47.3774C175.486 47.1138 175.467 46.8696 175.467 46.645ZM175.701 43.1953L175.716 44.1475H174.346C173.96 44.1475 173.616 44.1792 173.313 44.2427C173.011 44.3013 172.757 44.3916 172.552 44.5137C172.347 44.6357 172.19 44.7896 172.083 44.9751C171.976 45.1558 171.922 45.3682 171.922 45.6123C171.922 45.8613 171.978 46.0884 172.09 46.2935C172.203 46.4985 172.371 46.6621 172.596 46.7842C172.825 46.9014 173.106 46.96 173.438 46.96C173.853 46.96 174.219 46.8721 174.537 46.6963C174.854 46.5205 175.105 46.3057 175.291 46.0518C175.481 45.7979 175.584 45.5513 175.599 45.312L176.177 45.9639C176.143 46.1689 176.05 46.396 175.899 46.645C175.748 46.894 175.545 47.1333 175.291 47.3628C175.042 47.5874 174.744 47.7754 174.397 47.9268C174.056 48.0732 173.67 48.1465 173.24 48.1465C172.703 48.1465 172.232 48.0415 171.827 47.8315C171.426 47.6216 171.114 47.3408 170.889 46.9893C170.669 46.6328 170.56 46.2349 170.56 45.7954C170.56 45.3706 170.643 44.9971 170.809 44.6748C170.975 44.3477 171.214 44.0767 171.526 43.8618C171.839 43.6421 172.215 43.4761 172.654 43.3638C173.094 43.2515 173.584 43.1953 174.126 43.1953H175.701ZM180.418 45.854L184.073 40.0752H185.435V48H184.073V42.2212L180.418 48H179.07V40.0752H180.418V45.854ZM183.333 37.2041H184.432C184.432 37.585 184.344 37.9243 184.168 38.2222C183.992 38.5151 183.741 38.7446 183.414 38.9106C183.086 39.0767 182.698 39.1597 182.249 39.1597C181.57 39.1597 181.033 38.979 180.638 38.6177C180.247 38.2515 180.052 37.7803 180.052 37.2041H181.15C181.15 37.4922 181.233 37.7461 181.399 37.9658C181.565 38.1855 181.849 38.2954 182.249 38.2954C182.64 38.2954 182.918 38.1855 183.084 37.9658C183.25 37.7461 183.333 37.4922 183.333 37.2041ZM69.5586 66.1797L71.7632 59.0752H73.2134L70.0347 68.2231C69.9614 68.4185 69.8638 68.6284 69.7417 68.853C69.6245 69.0825 69.4731 69.2998 69.2876 69.5049C69.1021 69.71 68.8774 69.876 68.6138 70.0029C68.355 70.1348 68.0449 70.2007 67.6836 70.2007C67.5762 70.2007 67.4395 70.186 67.2734 70.1567C67.1074 70.1274 66.9902 70.103 66.9219 70.0835L66.9146 68.9849C66.9536 68.9897 67.0146 68.9946 67.0977 68.9995C67.1855 69.0093 67.2466 69.0142 67.2808 69.0142C67.5884 69.0142 67.8496 68.9727 68.0645 68.8896C68.2793 68.8115 68.46 68.6772 68.6064 68.4868C68.7578 68.3013 68.8872 68.0449 68.9946 67.7178L69.5586 66.1797ZM67.9399 59.0752L69.998 65.2275L70.3496 66.6558L69.3755 67.1538L66.4604 59.0752H67.9399ZM75.4546 59.0752H76.8096L76.6924 62.0415C76.6631 62.7935 76.5776 63.4429 76.436 63.9897C76.2944 64.5366 76.1138 65.0029 75.894 65.3887C75.6743 65.7695 75.4277 66.0894 75.1543 66.3481C74.8857 66.6069 74.6074 66.8242 74.3193 67H73.6455L73.6821 65.894L73.9604 65.8867C74.1216 65.6963 74.2778 65.501 74.4292 65.3008C74.5806 65.0957 74.7197 64.854 74.8467 64.5757C74.9736 64.2925 75.0786 63.9482 75.1616 63.543C75.2495 63.1328 75.3057 62.6323 75.3301 62.0415L75.4546 59.0752ZM75.7915 59.0752H80.5596V67H79.2046V60.3276H75.7915V59.0752ZM73.3379 65.8867H81.5776V69.3364H80.2227V67H74.6929V69.3364H73.3306L73.3379 65.8867ZM87.752 65.645V61.5654C87.752 61.2529 87.6885 60.9819 87.5615 60.7524C87.4395 60.5181 87.2539 60.3374 87.0049 60.2104C86.7559 60.0835 86.4482 60.02 86.082 60.02C85.7402 60.02 85.4399 60.0786 85.1812 60.1958C84.9272 60.313 84.7271 60.4668 84.5806 60.6572C84.439 60.8477 84.3682 61.0527 84.3682 61.2725H83.0132C83.0132 60.9893 83.0864 60.7085 83.2329 60.4302C83.3794 60.1519 83.5894 59.9004 83.8628 59.6758C84.1411 59.4463 84.4731 59.2656 84.8589 59.1338C85.2495 58.9971 85.6841 58.9287 86.1626 58.9287C86.7388 58.9287 87.2466 59.0264 87.686 59.2217C88.1304 59.417 88.4771 59.7124 88.7261 60.1079C88.98 60.4985 89.1069 60.9893 89.1069 61.5801V65.2715C89.1069 65.5352 89.1289 65.8159 89.1729 66.1138C89.2217 66.4116 89.2925 66.668 89.3853 66.8828V67H87.9717C87.9033 66.8438 87.8496 66.6362 87.8105 66.3774C87.7715 66.1138 87.752 65.8696 87.752 65.645ZM87.9863 62.1953L88.001 63.1475H86.6313C86.2456 63.1475 85.9014 63.1792 85.5986 63.2427C85.2959 63.3013 85.042 63.3916 84.8369 63.5137C84.6318 63.6357 84.4756 63.7896 84.3682 63.9751C84.2607 64.1558 84.207 64.3682 84.207 64.6123C84.207 64.8613 84.2632 65.0884 84.3755 65.2935C84.4878 65.4985 84.6562 65.6621 84.8809 65.7842C85.1104 65.9014 85.3911 65.96 85.7231 65.96C86.1382 65.96 86.5044 65.8721 86.8218 65.6963C87.1392 65.5205 87.3906 65.3057 87.5762 65.0518C87.7666 64.7979 87.8691 64.5513 87.8838 64.312L88.4624 64.9639C88.4282 65.1689 88.3354 65.396 88.1841 65.645C88.0327 65.894 87.8301 66.1333 87.5762 66.3628C87.3271 66.5874 87.0293 66.7754 86.6826 66.9268C86.3408 67.0732 85.9551 67.1465 85.5254 67.1465C84.9883 67.1465 84.5171 67.0415 84.1118 66.8315C83.7114 66.6216 83.3989 66.3408 83.1743 65.9893C82.9546 65.6328 82.8447 65.2349 82.8447 64.7954C82.8447 64.3706 82.9277 63.9971 83.0938 63.6748C83.2598 63.3477 83.499 63.0767 83.8115 62.8618C84.124 62.6421 84.5 62.4761 84.9395 62.3638C85.3789 62.2515 85.8696 62.1953 86.4116 62.1953H87.9863ZM96.5337 59.0752V60.1958H92.7031V59.0752H96.5337ZM97.7275 59.0752V67H96.3726V59.0752H97.7275ZM92.3735 59.0752H93.7358L93.5308 62.8984C93.4966 63.4893 93.4404 64.0117 93.3623 64.4658C93.2891 64.915 93.1865 65.3008 93.0547 65.623C92.9277 65.9453 92.7666 66.209 92.5713 66.4141C92.3809 66.6143 92.1514 66.7632 91.8828 66.8608C91.6143 66.9536 91.3042 67 90.9526 67H90.5278V65.8062L90.8208 65.7842C91.0308 65.7695 91.209 65.7207 91.3555 65.6377C91.5068 65.5547 91.6338 65.4326 91.7363 65.2715C91.8389 65.1055 91.9219 64.8931 91.9854 64.6343C92.0537 64.3755 92.105 64.0679 92.1392 63.7114C92.1782 63.355 92.2075 62.9399 92.2271 62.4663L92.3735 59.0752ZM103.199 67.1465C102.647 67.1465 102.146 67.0537 101.697 66.8682C101.253 66.6777 100.87 66.4116 100.547 66.0698C100.23 65.728 99.9858 65.3228 99.8149 64.854C99.644 64.3853 99.5586 63.8726 99.5586 63.3159V63.0083C99.5586 62.3638 99.6538 61.79 99.8442 61.2871C100.035 60.7793 100.293 60.3496 100.621 59.998C100.948 59.6465 101.319 59.3804 101.734 59.1997C102.149 59.019 102.579 58.9287 103.023 58.9287C103.589 58.9287 104.078 59.0264 104.488 59.2217C104.903 59.417 105.242 59.6904 105.506 60.042C105.77 60.3887 105.965 60.7988 106.092 61.2725C106.219 61.7412 106.282 62.2539 106.282 62.8105V63.4185H100.364V62.3125H104.927V62.21C104.908 61.8584 104.834 61.5166 104.708 61.1846C104.585 60.8525 104.39 60.5791 104.122 60.3643C103.853 60.1494 103.487 60.042 103.023 60.042C102.715 60.042 102.432 60.1079 102.173 60.2397C101.915 60.3667 101.692 60.5571 101.507 60.811C101.321 61.0649 101.177 61.375 101.075 61.7412C100.972 62.1074 100.921 62.5298 100.921 63.0083V63.3159C100.921 63.6919 100.972 64.0459 101.075 64.3779C101.182 64.7051 101.336 64.9932 101.536 65.2422C101.741 65.4912 101.988 65.6865 102.276 65.8281C102.569 65.9697 102.901 66.0405 103.272 66.0405C103.75 66.0405 104.156 65.9429 104.488 65.7476C104.82 65.5522 105.11 65.291 105.359 64.9639L106.18 65.6157C106.009 65.8745 105.792 66.1211 105.528 66.3555C105.264 66.5898 104.939 66.7803 104.554 66.9268C104.173 67.0732 103.721 67.1465 103.199 67.1465ZM113.24 62.5103V63.6089H109.051V62.5103H113.24ZM109.336 59.0752V67H107.981V59.0752H109.336ZM114.339 59.0752V67H112.977V59.0752H114.339ZM121.897 62.5103V63.6089H117.708V62.5103H121.897ZM117.994 59.0752V67H116.639V59.0752H117.994ZM122.996 59.0752V67H121.634V59.0752H122.996ZM124.82 63.1255V62.957C124.82 62.3857 124.903 61.856 125.069 61.3677C125.235 60.8745 125.474 60.4473 125.787 60.0859C126.099 59.7197 126.478 59.4365 126.922 59.2363C127.366 59.0312 127.864 58.9287 128.416 58.9287C128.973 58.9287 129.473 59.0312 129.917 59.2363C130.367 59.4365 130.748 59.7197 131.06 60.0859C131.377 60.4473 131.619 60.8745 131.785 61.3677C131.951 61.856 132.034 62.3857 132.034 62.957V63.1255C132.034 63.6968 131.951 64.2266 131.785 64.7148C131.619 65.2031 131.377 65.6304 131.06 65.9966C130.748 66.3579 130.369 66.6411 129.925 66.8462C129.485 67.0464 128.987 67.1465 128.431 67.1465C127.874 67.1465 127.374 67.0464 126.929 66.8462C126.485 66.6411 126.104 66.3579 125.787 65.9966C125.474 65.6304 125.235 65.2031 125.069 64.7148C124.903 64.2266 124.82 63.6968 124.82 63.1255ZM126.175 62.957V63.1255C126.175 63.521 126.221 63.8945 126.314 64.2461C126.407 64.5928 126.546 64.9004 126.731 65.1689C126.922 65.4375 127.159 65.6499 127.442 65.8062C127.725 65.9575 128.055 66.0332 128.431 66.0332C128.802 66.0332 129.126 65.9575 129.405 65.8062C129.688 65.6499 129.922 65.4375 130.108 65.1689C130.293 64.9004 130.433 64.5928 130.525 64.2461C130.623 63.8945 130.672 63.521 130.672 63.1255V62.957C130.672 62.5664 130.623 62.1978 130.525 61.8511C130.433 61.4995 130.291 61.1895 130.101 60.9209C129.915 60.6475 129.681 60.4326 129.397 60.2764C129.119 60.1201 128.792 60.042 128.416 60.042C128.045 60.042 127.718 60.1201 127.435 60.2764C127.156 60.4326 126.922 60.6475 126.731 60.9209C126.546 61.1895 126.407 61.4995 126.314 61.8511C126.221 62.1978 126.175 62.5664 126.175 62.957Z" fill="black"/>
</svg>
