<svg width="353" height="406" viewBox="0 0 353 406" fill="none" xmlns="http://www.w3.org/2000/svg">
<path fill-rule="evenodd" clip-rule="evenodd" d="M186.778 143.889C176.227 144.397 159.799 148.817 158.978 151.641C157.695 156.052 160.451 172.587 155.842 181.494C153.877 185.29 146.415 184.95 143.524 186.186C133.851 190.323 105.213 198.17 99.3084 208.049C96.9429 212.008 82.4054 261.12 74.6808 286.176C73.8099 289.001 72.8263 291.613 71.7569 294.033L71.3639 292.153C68.2144 277.009 66.6396 267.842 66.6396 264.65C66.6396 259.663 70.711 238.622 66.6396 233.272C62.6089 227.975 52.8951 223.643 48.5247 223.557L48.3939 223.556C45.5244 223.556 43.0345 222.679 40.9243 220.927L37.8303 219.406C22.0907 211.69 12.895 207.457 10.243 206.708C6.01126 205.512 -1.19077 208.059 2.41025 211.882C4.81091 214.431 10.8435 218.94 20.5081 225.409L24.1522 228.238L23.7119 228.462C19.0023 230.885 16.2332 232.924 15.4044 234.579C14.5501 236.285 14.9601 238.304 16.6341 240.635L16.3802 240.876C14.2632 242.906 13.2047 244.268 13.2047 244.961V248.348C11.0987 251.362 10.5721 253.875 11.6252 255.888C12.6782 257.9 14.3478 259.645 16.6341 261.12C18.3188 265.45 20.325 268.532 22.6528 270.365C24.9806 272.199 29.0037 273.725 34.722 274.944L39.8966 287.033L44.0896 304.016L46.2024 322.967L45.5889 323.401C42.7456 325.424 40.9243 326.924 40.9243 328.474C40.9243 330.889 52.3967 387.677 70.2459 390.218C74.1062 390.768 94.1259 388.072 100.699 382.847L100.602 383.412C99.0555 392.539 99.3827 397.279 101.584 397.631C128.633 401.964 205.457 403.303 332.053 401.647C332.806 335.998 329.4 292.276 321.836 270.483C302.488 214.744 281.157 195.707 273.694 194.076C267.157 192.648 244.489 183.833 238.153 181.494C234.017 179.966 233.13 175.387 228.417 175.387L228.036 175.389C223.477 175.434 219.435 176.231 217.164 173.94C211.204 167.929 212.87 159.608 210.397 151.641C209.035 147.252 199.726 143.264 186.778 143.889Z" fill="#FFCC5A"/>
<path d="M228.417 175.387L228.036 175.389C226.909 175.4 225.814 175.457 224.769 175.502L226.97 182.83L227.018 183.599C228.447 208.863 215.785 220.957 189.033 219.881C162.28 218.805 148.973 210.537 149.111 195.078L149.119 194.607L149.119 184.987L148.698 185.066C146.668 185.437 144.711 185.679 143.524 186.186C133.851 190.323 105.213 198.17 99.3083 208.049C96.9428 212.008 82.4053 261.12 74.6807 286.176C74.3984 287.092 74.1043 287.985 73.7993 288.857L73.7992 293.809L73.8832 294.109C76.5906 304.003 72.9859 312.091 63.0692 318.376C56.0401 322.83 48.8213 325.722 41.4125 327.05C41.0944 327.531 40.9242 328 40.9242 328.474C40.9242 330.889 52.3966 387.677 70.2458 390.218C74.1061 390.768 94.1259 388.072 100.699 382.847L100.602 383.412L100.512 383.954C99.0693 392.727 99.4267 397.286 101.584 397.631C128.633 401.964 205.457 403.303 332.053 401.647C332.806 335.998 329.4 292.276 321.836 270.483C302.488 214.744 281.157 195.707 273.694 194.076C267.157 192.648 244.489 183.833 238.153 181.494C234.016 179.966 233.13 175.387 228.417 175.387Z" fill="#282F40"/>
<path fill-rule="evenodd" clip-rule="evenodd" d="M215.765 159.628C215.146 158.429 213.502 158.584 212.417 159.128C209.164 161.452 212.568 165.956 213.468 168.792C215.783 174.292 219.804 179.668 225.354 182.239C224.894 187.707 224.373 193.163 224.181 198.648C217.084 207.248 205.119 210.387 194.498 212.801C177.816 217.309 158.988 208.074 153.358 191.963C159.766 188.405 161.84 179.091 159.928 172.593C159.762 172.136 159.037 171.934 158.78 172.444C157.025 175.97 157.259 180.272 155.264 183.756C136.117 185.547 111.406 192.606 98.8617 207.735C93.3027 215.304 91.1007 225.148 88.3627 233.921C82.5208 252.006 77.8661 270.457 72.1369 288.561L71.4614 285.135C69.6105 275.699 67.9286 266.135 69.1787 256.539L69.201 256.08C69.6095 248.445 72.0552 234.255 65.9944 229.1C60.5122 225.007 52.5705 221.718 45.691 223.605C33.4485 218.282 22.8817 209.319 9.84311 205.827C5.83023 205.021 0.0571594 205.976 1.00571 211.295C3.63437 220.598 14.6426 224.209 22.1679 229.006C17.3441 230.283 11.4635 236.014 15.2322 241.012C15.2648 241.101 15.2938 241.168 15.3228 241.221C12.2664 242.544 11.8383 245.871 12.5884 248.723C12.6644 249.477 12.8672 248.829 12.4142 249.512C8.96555 252.69 10.4899 261.548 15.685 261.847C15.3449 266.045 18.1043 270.121 21.5992 272.411C25.3662 274.877 30.8129 274.983 33.9316 278.359C41.2537 290.974 43.7795 305.866 44.5777 320.311C39.751 322.076 35.4205 327.355 39.8057 331.833C39.8923 331.843 39.9788 331.853 40.0665 331.86C42.6086 338.488 43.5901 345.554 44.9344 352.476C47.0028 364.287 52.393 375.132 59.2762 384.972C67.236 397.997 88.6401 395.932 99.4231 387.526C99.38 389.731 99.008 391.924 99.7309 394.055C100.798 396.354 103.399 395.361 103.657 393.096C109.357 396.228 110.7 385.889 104.363 387.529C104.851 380.055 105.133 372.571 105.362 365.084C112.536 367.353 112.846 355.724 105.508 358.049L105.516 354.834C105.57 330.184 105.291 305.448 101.962 280.992C101.654 279.162 101.133 277.393 100.828 275.574C100.796 275.386 100.495 275.44 100.494 275.62C99.9787 309.86 102.269 344.173 99.8794 378.425C97.89 379.017 97.0968 381.247 95.6239 382.547C92.3538 385.497 87.9005 386.933 83.5457 387.433C71.3514 389.104 66.0865 385.465 60.656 375.109C63.1053 376.708 66.415 373.884 64.9221 371.353L64.8754 371.277C63.3249 368.595 58.9466 370.202 59.5011 373.205C54.0413 364.663 51.1837 355.03 49.0734 345.257L48.7879 344.089C47.762 339.94 46.4306 335.186 43.9671 331.432C58.9908 327.69 73.687 316.292 76.0379 300.654C79.8523 312.363 85.0198 323.809 89.945 335.197C91.4661 339.156 92.0999 343.413 94.2802 347.086C94.7873 347.936 96.073 347.716 96.3598 346.821C98.3206 338.255 92.3788 330.108 89.2938 322.397C86.7745 318.039 79.5434 298.139 75.06 298.091C80.0979 276.516 86.8173 255.103 93.2165 233.798C99.4042 205.029 112.014 199.482 138.727 190.424C133.909 214.414 111.91 237.637 123.616 262.8L123.901 263.452C125.098 266.227 126.093 269.022 125.257 272.067C124.446 275.022 122.599 277.588 121.121 280.245C112.86 295.256 118.546 312.787 121.74 328.42C125.775 346.753 129.761 365.102 133.931 383.407C134.753 387.059 135.286 390.821 136.528 394.359C137.169 396.185 140.367 396.012 140.16 393.881C139.766 389.748 138.578 385.718 137.708 381.659C132.515 355.381 125.488 329.413 121.021 303.02C118.147 283.482 129.461 280.48 129.038 267.856C127.501 261.4 123.43 255.638 123.664 248.758C122.759 227.698 138.46 210.323 140.398 189.84L143.821 188.647C145.531 188.048 147.24 187.445 148.943 186.828C139.978 248.09 142.7 310.692 147.182 372.257C148.098 375.098 147.227 404.142 151.065 402.381C151.259 403.49 151.862 404.581 153.173 404.575C165.078 404.681 176.986 404.865 188.891 405.004C194.617 404.489 202.488 406.624 207.358 403.397C212.982 401.829 213.628 377.748 215.132 372.444L215.718 368.587C225.273 305.561 233.825 241.234 226.956 177.583C236.512 177.942 238.485 188.019 239.193 195.356C240.966 211.55 251.674 225.496 252.188 241.876C252.231 245.849 251.463 249.699 249.838 253.348C245.524 262.287 238.064 272.622 243.64 282.606C250.234 290.378 249.663 292.424 247.243 302.029C240.436 333.782 229.13 364.308 218.375 394.923C220.712 406.822 234.767 362.647 236.09 359.316C242.311 362.373 245.71 352.229 238.574 351.506C243.157 336.516 247.376 321.413 250.888 306.144L250.981 305.714C252.532 298.659 255.583 290.399 250.431 284.141C237.144 271.013 259.209 256.339 256.425 240.435C258.829 242.176 262.467 240.345 262.412 237.42C262.521 234.128 257.995 232.442 255.816 234.954C253.577 222.051 245.786 210.786 243.428 197.921L243.321 197.317C242.523 192.77 242.297 187.986 240.012 183.842C243.123 185.816 246.437 187.412 249.845 188.821C243.751 193.794 255.551 198.332 254.575 190.65C287.992 200.096 295.545 213.269 307.814 243.521C305.522 241.345 301.596 244.161 302.968 246.935C304.063 249.858 308.837 249.004 308.835 245.888L309.395 247.191C316.835 264.573 323.606 282.376 327.009 300.978C320.334 300.057 322.033 310.481 328.082 307.542C330.509 324.085 330.547 340.863 330.251 357.539C324.62 354.655 324.45 364.457 330.196 361.662C329.986 375.328 329.678 388.995 329.447 402.661C329.4 405.57 333.992 405.555 334.064 402.661C334.601 381.662 335.578 360.625 335.114 339.62C335.551 303.163 324.824 268.024 308.841 235.366C294.699 197.763 275.165 193.486 239.226 182.553C235.908 177.742 228.82 173.191 223.038 176.213C219.802 171.11 218.159 165.064 215.765 159.628ZM277.341 290.685C277.207 290.222 276.53 290.338 276.508 290.795C276.207 296.694 276.475 302.631 276.888 308.555C277.138 312.172 277.446 315.784 277.707 319.376C278.398 328.853 278.956 338.34 279.38 347.834C279.231 347.774 279.079 347.721 278.92 347.678C278.188 347.483 277.456 347.483 276.725 347.678C276.073 347.856 275.502 348.168 275.011 348.617L274.907 348.715C274.505 349.079 274.219 349.511 274.052 350.01C273.815 350.454 273.695 350.929 273.695 351.436L273.698 351.564C273.701 352.292 273.886 352.968 274.262 353.599C274.628 354.204 275.121 354.685 275.74 355.046C276.385 355.41 277.077 355.591 277.822 355.594C277.902 355.601 277.982 355.609 278.062 355.612C278.616 355.633 279.134 355.52 279.612 355.276L279.684 355.255C279.865 360.071 280.014 364.89 280.122 369.71C280.22 373.91 280.35 378.111 280.437 382.311L280.478 384.412L280.557 389.056C280.582 390.965 280.57 392.794 281.234 394.595L281.314 394.803C281.792 396.005 282.165 397.679 283.444 398.348C284.465 398.882 285.841 398.684 286.428 397.644C286.92 396.774 286.493 395.521 285.765 394.933C285.779 394.895 285.801 394.859 285.819 394.82C285.932 394.501 286.102 394.201 286.203 393.879C286.522 392.86 286.435 391.773 286.439 390.715C286.439 388.847 286.374 386.979 286.323 385.113C286.21 381.143 286.08 377.177 285.921 373.21C285.383 359.903 284.369 346.596 283.208 333.326L282.814 328.847C282.289 322.891 281.746 316.929 280.977 311.004C280.941 310.721 280.905 310.438 280.865 310.154C281.278 309.953 281.662 309.673 281.966 309.362C283.186 308.11 283.926 306.239 284.62 304.626L284.78 304.259C285.533 302.54 286.229 300.799 286.587 298.951L286.621 298.781C286.785 297.995 287.108 296.601 286.254 296.22C285.808 296.021 285.526 296.163 285.381 296.598C285.363 296.655 285.378 296.718 285.41 296.768C285.059 297.295 284.508 297.787 284.16 298.275L282.971 299.938L282.382 300.773C281.636 301.846 280.839 302.872 280.017 303.884C279.369 299.44 278.576 295.013 277.341 290.685ZM228.541 389.728C227.052 388.588 224.629 389.208 224.629 391.31C224.629 393.422 227.056 394.031 228.541 392.891L228.615 392.838L228.686 392.782C229.494 392.164 229.522 390.558 228.747 389.888L228.686 389.838C228.639 389.799 228.592 389.764 228.541 389.728ZM293.259 385.623C292.585 385.623 291.958 385.789 291.375 386.122C291.122 386.31 290.872 386.501 290.618 386.692C290.155 387.145 289.836 387.683 289.659 388.302L289.524 389.271C289.506 389.774 289.611 390.241 289.847 390.677C289.999 391.129 290.256 391.522 290.618 391.851C290.959 392.209 291.357 392.46 291.82 392.605C292.229 392.816 292.665 392.923 293.131 392.923L293.259 392.92C293.935 392.92 294.562 392.754 295.145 392.421C295.399 392.234 295.649 392.042 295.902 391.851C296.362 391.398 296.685 390.86 296.862 390.241C296.906 389.919 296.949 389.593 296.996 389.271C297.014 388.769 296.906 388.302 296.674 387.866C296.522 387.413 296.265 387.021 295.902 386.692C295.562 386.335 295.164 386.083 294.7 385.938C294.292 385.727 293.853 385.621 293.386 385.62L293.259 385.623ZM123.848 378.892L122.899 379.017C121.99 379.218 121.259 379.873 120.77 380.62C120.509 381.019 120.368 381.451 120.346 381.915C120.241 382.375 120.263 382.838 120.411 383.302C120.52 383.754 120.733 384.151 121.049 384.487C121.157 384.654 121.284 384.806 121.429 384.94C121.726 385.425 122.175 385.743 122.639 386.069C123.029 386.313 123.453 386.444 123.91 386.465C124.21 386.543 124.515 386.543 124.819 386.465C125.272 386.444 125.695 386.313 126.086 386.069C126.318 385.896 126.55 385.719 126.778 385.545C126.981 385.315 127.169 385.078 127.347 384.831C127.466 384.558 127.582 384.289 127.698 384.02C127.912 383.372 127.807 382.799 127.69 382.152C127.673 382.042 127.643 381.943 127.604 381.837L127.525 381.631C127.317 381.093 127.206 380.911 126.836 380.443L126.695 380.259C126.625 380.167 126.553 380.077 126.47 379.997C126.239 379.763 125.909 379.568 125.648 379.367C125.09 379.052 124.489 378.896 123.848 378.892ZM246.69 376.628C246.165 376.631 245.672 376.759 245.216 377.017L244.622 377.467C244.26 377.824 244.01 378.241 243.869 378.727C243.837 378.981 243.8 379.236 243.764 379.487C243.75 379.88 243.833 380.248 244.018 380.591C244.133 380.945 244.336 381.249 244.622 381.511C244.886 381.787 245.202 381.985 245.564 382.102C245.88 382.263 246.22 382.348 246.581 382.349L246.69 382.346C247.219 382.346 247.712 382.215 248.168 381.957L248.762 381.511C249.124 381.154 249.374 380.733 249.515 380.248C249.548 379.993 249.584 379.742 249.62 379.487C249.635 379.094 249.552 378.727 249.367 378.387C249.247 378.033 249.048 377.725 248.762 377.467C248.498 377.187 248.183 376.989 247.82 376.876C247.504 376.713 247.171 376.631 246.811 376.626L246.69 376.628ZM270.713 375.457C269.957 375.45 269.188 375.658 268.569 376.087C267.968 376.504 267.512 376.954 267.218 377.629C267.138 377.814 267.059 377.994 266.99 378.178C266.679 378.988 266.621 379.802 267.052 380.595C267.468 381.363 268.366 381.699 269.171 381.929C269.851 382.127 270.623 382.159 271.3 381.922C271.637 381.805 271.966 381.681 272.27 381.501C272.839 381.157 273.147 380.75 273.527 380.248C273.824 379.753 273.973 379.214 273.973 378.641C273.973 378.064 273.824 377.53 273.527 377.031C272.944 376.058 271.865 375.464 270.713 375.457ZM309.104 376.14C308.148 376.14 307.308 376.571 306.731 377.3C306.149 378.04 305.935 378.96 306.192 379.877C306.464 380.846 307.286 381.695 308.304 381.939C309.057 382.12 309.673 382.113 310.422 381.989C311.056 381.883 311.541 381.514 312.027 381.132C312.581 380.69 312.751 379.884 312.661 379.232C312.574 378.581 312.265 378.157 311.798 377.771L311.795 377.76L311.969 377.891C311.903 377.835 311.838 377.774 311.773 377.714C311.752 377.679 311.733 377.64 311.715 377.601C311.447 377.155 311.085 376.805 310.632 376.543C310.158 376.274 309.651 376.14 309.104 376.14ZM86.1536 365.421C85.6284 365.283 85.0996 365.283 84.5745 365.421C84.1866 365.51 83.8501 365.683 83.5637 365.941C83.2736 366.126 83.0366 366.362 82.8574 366.655L82.7999 366.755C82.3866 367.442 82.3218 368.227 82.4993 368.991C82.7198 369.936 83.6107 370.796 84.5745 371.019L84.6069 371.025L84.6393 371.033C85.0305 371.154 85.4256 371.171 85.8164 371.083C86.2115 371.065 86.5773 370.952 86.9138 370.74C87.3411 370.471 87.6997 370.124 87.9749 369.706C88.1926 369.374 88.3081 369.016 88.3266 368.63C88.395 368.376 88.395 368.121 88.3266 367.866C88.3081 367.48 88.1926 367.123 87.9749 366.791L87.5117 366.206L87.4643 366.168C87.0948 365.806 86.657 365.559 86.1536 365.421ZM122.617 346.695C117.868 346.695 117.876 353.892 122.617 353.892C127.364 353.892 127.358 346.695 122.617 346.695ZM296.453 345.785C295.953 345.676 295.453 345.697 294.957 345.849C294.656 345.973 294.359 346.097 294.062 346.217L293.302 346.791C293.16 346.907 293.091 347.034 292.961 347.201L292.798 347.409C292.563 347.717 292.557 347.782 292.298 348.439C292.124 349.069 292.124 349.699 292.298 350.329C292.382 350.633 292.508 350.92 292.671 351.185C292.82 351.44 292.999 351.664 293.199 351.869L293.302 351.971C293.642 352.328 294.044 352.579 294.508 352.728C294.801 352.895 295.116 352.976 295.453 352.976C295.953 353.085 296.453 353.064 296.949 352.912C297.249 352.788 297.546 352.664 297.844 352.544L298.604 351.971L299.19 351.228L299.378 350.792L299.567 350.354L299.701 349.381C299.719 348.874 299.614 348.407 299.379 347.969C299.289 347.66 299.129 347.388 298.897 347.161C298.731 346.886 298.506 346.666 298.223 346.504C297.992 346.277 297.713 346.121 297.398 346.033C297.104 345.867 296.789 345.785 296.453 345.785ZM61.6117 340.643C61.2166 340.63 60.8472 340.711 60.5067 340.888C60.3872 340.927 60.271 340.976 60.159 341.033C59.7208 341.284 59.3731 341.624 59.116 342.049C58.9059 342.374 58.79 342.724 58.7719 343.103C58.6932 343.444 58.7004 343.788 58.7952 344.129L58.8263 344.232C58.9059 344.511 59.0255 344.769 59.1844 345.006C59.1996 345.035 59.2174 345.063 59.2391 345.088C59.4818 345.463 59.8041 345.771 60.2025 346.001C60.6443 346.249 61.1188 346.376 61.6331 346.38C62.658 346.38 63.5417 345.838 64.0814 345.006C64.1574 344.89 64.2009 344.741 64.2548 344.621C64.3023 344.508 64.3783 344.363 64.4185 344.232C64.5558 343.729 64.5558 343.227 64.4185 342.724C64.328 342.356 64.1574 342.034 63.9003 341.762C63.6942 341.454 63.4226 341.21 63.0854 341.033C62.6675 340.795 62.2184 340.668 61.7419 340.646L61.6117 340.643ZM262.083 337.123C261.581 336.989 261.082 336.978 260.584 337.092L260.46 337.123C260.062 337.215 259.717 337.392 259.421 337.653C259.091 337.866 258.826 338.145 258.635 338.492C258.359 338.956 258.221 339.458 258.218 339.996C258.221 340.534 258.359 341.036 258.635 341.5C258.906 341.949 259.272 342.303 259.732 342.569L260.13 342.756C260.463 342.961 260.818 343.071 261.203 343.088C261.459 343.156 261.717 343.156 261.97 343.088C262.231 343.088 262.474 343.025 262.698 342.898C262.944 342.831 263.155 342.71 263.336 342.533C263.651 342.335 263.897 342.073 264.078 341.744L264.372 341.068L264.473 340.318L264.372 339.571L264.212 339.203C264.067 338.697 263.806 338.259 263.426 337.887C263.046 337.519 262.597 337.264 262.083 337.123ZM82.4736 331.153C81.9452 330.99 81.4197 330.969 80.8945 331.082C80.5399 331.082 80.2068 331.171 79.8985 331.348C79.5617 331.439 79.2724 331.602 79.0257 331.843C78.5951 332.115 78.2579 332.476 78.008 332.925L77.61 333.849C77.3709 334.447 77.4579 335.329 77.6024 335.93C77.7219 336.425 77.9537 336.857 78.2977 337.225C78.4716 337.512 78.7034 337.738 78.9971 337.908C79.3324 338.206 79.7191 338.418 80.1579 338.544L80.2788 338.577L80.3223 338.587C80.3299 338.591 80.3368 338.591 80.344 338.591C80.3476 338.595 80.3552 338.595 80.3589 338.595C80.5323 338.637 80.7098 338.662 80.8945 338.669C81.4197 338.782 81.9452 338.761 82.4736 338.598C82.785 338.47 83.1001 338.34 83.4152 338.209C83.6832 338.011 83.948 337.809 84.2156 337.607C84.4221 337.346 84.6285 337.083 84.8349 336.825C85.125 336.383 85.2804 335.902 85.3022 335.388C85.3967 335.045 85.3967 334.706 85.3022 334.362C85.3022 334.012 85.2116 333.69 85.0345 333.389C84.8748 332.908 84.6032 332.494 84.2156 332.144C83.948 331.942 83.6832 331.74 83.4152 331.542C83.1001 331.411 82.785 331.28 82.4736 331.153ZM313.468 318.485C312.921 318.339 312.374 318.339 311.827 318.485L311.092 318.785C310.73 318.976 310.443 319.234 310.226 319.564C309.951 319.854 309.767 320.197 309.672 320.59C309.458 321.128 309.484 321.981 309.654 322.529C309.846 323.152 310.143 323.647 310.603 324.115C311.367 324.886 312.541 325.109 313.58 324.875C313.866 324.812 314.138 324.688 314.384 324.536C315.17 324.061 315.699 323.233 315.695 322.317C315.695 322.218 315.688 322.119 315.673 322.02C315.724 321.818 315.742 321.609 315.735 321.389L315.626 320.59L315.619 320.569C315.474 320.062 315.213 319.624 314.833 319.252C314.482 318.913 314.072 318.666 313.604 318.519L313.486 318.485H313.468ZM40.1747 239.025C41.1642 231.099 44.884 222.573 56.2298 227.227L57.0726 227.535C59.8799 228.574 63.1514 229.938 64.86 232.336C66.0371 233.989 65.6391 237.191 65.8017 239.12C66.5416 245.39 66.1447 251.652 65.374 257.896C64.3791 272.531 67.5285 287.695 73.7988 300.997C67.5235 310.917 59.125 320.17 47.6684 324.305C47.1838 313.026 44.9235 301.953 42.5179 290.947L42.4232 290.467C41.4613 285.504 40.9797 280.41 37.6435 276.282C30.8571 269.084 21.5231 273.158 17.0572 261.594C17.9952 261.13 17.4773 259.545 16.347 259.85C12.4301 260.529 11.7937 253.434 14.4745 251.725C17.268 250.06 14.4557 246.99 15.6447 244.774C16.3075 243.819 17.7381 243.787 18.3867 242.687C20.1056 238.635 11.5033 236.039 21.6195 231.472C23.69 230.752 26.0043 231.198 28.0926 231.19C31.1646 231.47 33.606 233.585 36.4153 234.25C33.3564 241.989 41.0747 249.441 48.0411 243.26C51.8319 246.761 56.0712 254.741 46.8564 251.021C42.3463 248.08 38.4634 244.278 33.2278 242.467L33.1172 242.433C31.1737 241.811 22.6689 237.774 23.0906 241.268C26.2763 244.272 31.5303 244.237 35.2198 246.675C40.3347 248.986 43.6056 254.587 49.7288 254.509C51.1406 262.884 41.4137 257.788 37.7916 255.479L36.7873 254.946C31.6782 252.25 26.4922 249.751 20.534 249.718C18.8898 249.708 18.897 252.185 20.534 252.206C28.299 252.253 34.619 256.995 41.1236 260.521C41.7639 265.41 34.4368 263.27 31.6564 262.549C28.7412 262.148 24.0594 259.068 21.5079 260.695C20.5101 263.2 24.9015 263.014 26.4302 263.774C19.4504 267.049 25.5657 269.112 27.4371 264.078L27.9852 264.26C32.6591 265.795 43.9923 268.954 42.6443 261.219C44.3549 261.958 46.4406 262.401 48.3308 261.99C53.0445 268.802 60.5636 266.166 49.6346 261.523C52.0974 260.404 52.9199 256.082 50.5542 254.474C59.1569 253.961 52.77 245.142 49.2094 242.204C49.5456 241.872 49.8712 241.533 50.1747 241.19C52.2278 242.145 54.386 242.726 56.6938 242.931C58.9026 243.125 59.3948 239.453 57.2149 239.152C54.8789 238.83 52.7272 238.221 50.6705 237.074C47.5529 235.759 46.4888 241.411 43.3687 241.611C41.6668 241.94 40.5155 240.482 40.1747 239.025ZM112.602 311.952C111.849 311.952 111.18 312.26 110.633 312.748C110.086 313.237 109.85 313.969 109.818 314.67C109.803 315.045 109.883 315.395 110.057 315.721C110.169 316.057 110.361 316.347 110.633 316.595C111.14 317.087 111.889 317.391 112.602 317.391C113.356 317.391 114.026 317.083 114.573 316.595C115.12 316.103 115.355 315.374 115.388 314.67C115.402 314.298 115.322 313.948 115.149 313.622C115.048 313.32 114.882 313.052 114.652 312.823L114.573 312.748C114.066 312.253 113.316 311.952 112.602 311.952ZM89.7755 295.17L89.6548 295.172C89.0174 295.176 88.4267 295.331 87.8766 295.642C87.6375 295.823 87.3985 296 87.1627 296.181C86.7248 296.612 86.4242 297.118 86.2573 297.702C86.0871 298.311 86.0871 298.923 86.2573 299.531C86.3152 299.882 86.4492 300.222 86.6593 300.515C86.9711 301.021 87.3836 301.428 87.9055 301.729C88.4452 302.037 89.0283 302.189 89.6548 302.192C90.281 302.189 90.8645 302.037 91.4041 301.729C91.9257 301.428 92.3385 301.021 92.6464 300.515C92.8601 300.222 92.9941 299.882 93.052 299.531C93.2222 298.923 93.2222 298.311 93.052 297.702C92.8973 297.16 92.6271 296.685 92.2384 296.274L92.1466 296.181C91.8279 295.844 91.4512 295.607 91.013 295.469C90.6279 295.271 90.2154 295.171 89.7755 295.17ZM263.981 295.359C263.713 295.288 263.448 295.288 263.18 295.359C262.782 295.377 262.409 295.494 262.065 295.706C261.862 295.862 261.659 296.014 261.456 296.166L261.279 296.374C260.901 296.824 260.892 296.9 260.602 297.585C260.482 297.968 260.464 298.35 260.551 298.732C260.551 298.99 260.62 299.231 260.75 299.454C260.822 299.698 260.946 299.91 261.13 300.087C261.261 300.303 261.434 300.476 261.656 300.604C261.938 300.855 262.271 301.028 262.655 301.117L263.434 301.219C263.535 301.205 263.64 301.191 263.742 301.181C263.864 301.177 263.983 301.163 264.099 301.142L264.216 301.117L264.323 301.089C264.465 301.048 264.603 300.994 264.738 300.926C264.991 300.855 265.212 300.731 265.401 300.547C265.726 300.342 265.987 300.066 266.175 299.723L266.226 299.609C266.295 299.489 266.353 299.365 266.397 299.231C266.519 299.019 266.581 298.792 266.585 298.548C266.657 298.223 266.652 297.901 266.566 297.579L266.534 297.472L266.255 296.824C266.11 296.605 265.958 296.382 265.763 296.201C265.645 296.1 265.358 295.88 265.196 295.77L265.096 295.706C264.752 295.494 264.379 295.377 263.981 295.359ZM302.961 289.093C301.495 290.526 302.143 293.159 304.196 293.668L304.432 293.725C306.416 294.217 308.206 292.465 307.702 290.526L307.644 290.299C307.123 288.293 304.428 287.659 302.961 289.093ZM59.059 273.933C59.0735 273.735 58.8127 273.664 58.6823 273.781C56.9367 275.31 55.8248 277.143 53.7061 278.328C51.5762 279.517 49.3818 279.421 47.1617 280.189C46.4083 280.451 46.4047 281.435 47.1617 281.693C51.3629 283.127 58.7403 278.268 59.059 273.933ZM256.461 273.622C255.993 273.48 255.523 273.459 255.055 273.562C254.737 273.562 254.44 273.639 254.168 273.795C253.868 273.877 253.61 274.025 253.39 274.237C253.125 274.39 252.915 274.598 252.756 274.856C252.444 275.189 252.234 275.579 252.126 276.024L252.003 276.941L252.126 277.858C252.245 278.13 252.365 278.406 252.481 278.679L252.804 279.107C253.067 279.449 253.109 279.452 253.745 279.913C254.15 280.164 254.588 280.303 255.055 280.32C255.367 280.405 255.679 280.405 255.993 280.32C256.308 280.32 256.606 280.243 256.881 280.087C257.178 280.006 257.438 279.857 257.66 279.645C258.043 279.4 258.344 279.078 258.565 278.679C258.685 278.406 258.804 278.13 258.92 277.858L259.047 276.941L258.92 276.024L258.913 275.996C258.746 275.423 258.449 274.924 258.022 274.503L257.319 273.972C257.044 273.799 256.758 273.71 256.461 273.622ZM87.3956 274.308C86.3927 274.039 85.2914 274.322 84.5565 275.041C83.8209 275.759 83.5312 276.831 83.8064 277.811C84.0781 278.767 84.864 279.542 85.8455 279.8C86.1389 279.878 86.4359 279.921 86.7365 279.906C87.2402 279.903 87.7107 279.779 88.149 279.531L88.714 279.103C88.9896 278.855 89.1812 278.562 89.2938 278.222C89.4713 277.896 89.5509 277.546 89.5365 277.167L89.5397 277.1C89.5509 276.966 89.5328 276.831 89.489 276.7C89.489 276.562 89.4673 276.428 89.4311 276.297C89.1667 275.342 88.3699 274.57 87.3956 274.308ZM303.67 264.726C303.348 264.715 303.047 264.779 302.769 264.924C302.475 265.016 302.225 265.171 302.015 265.398C301.783 265.603 301.624 265.851 301.53 266.134C301.381 266.407 301.316 266.7 301.327 267.015C301.327 267.429 301.436 267.815 301.646 268.169C301.769 268.325 301.892 268.48 302.015 268.632C302.305 268.919 302.649 269.113 303.047 269.223L303.279 269.301C303.62 269.421 303.953 269.428 304.308 269.383C304.681 269.333 305.025 269.234 305.329 269.007C305.626 268.837 305.861 268.607 306.035 268.317L306.234 267.857C306.278 267.702 306.296 267.468 306.307 267.305C306.307 267.28 306.307 267.259 306.311 267.234C306.311 267.096 306.267 266.761 306.231 266.622C306.151 266.332 305.989 266.056 305.804 265.822C305.644 265.579 305.427 265.387 305.159 265.246L305.135 265.228L305.108 265.21C305.025 265.154 304.938 265.097 304.851 265.037C304.489 264.832 304.094 264.726 303.67 264.726ZM116.648 262.213C116.068 262.213 115.529 262.358 115.029 262.641C115.011 262.648 114.993 262.655 114.979 262.663C114.5 262.938 114.12 263.31 113.837 263.777C113.548 264.262 113.403 264.786 113.403 265.345C113.403 265.907 113.548 266.427 113.837 266.912C114.12 267.38 114.5 267.751 114.979 268.027C114.993 268.037 115.011 268.044 115.029 268.052C115.529 268.335 116.068 268.476 116.648 268.48C117.224 268.476 117.763 268.335 118.264 268.052C119.241 267.493 119.854 266.449 119.854 265.345C119.854 264.24 119.241 263.197 118.264 262.641C117.763 262.358 117.224 262.213 116.648 262.213ZM267.053 258.121L266.954 258.119C266.57 258.105 266.212 258.182 265.882 258.356C265.538 258.466 265.238 258.653 264.984 258.919L264.455 259.35L264.302 259.472C264.276 259.492 264.251 259.513 264.227 259.535C263.872 259.885 263.629 260.295 263.492 260.769C263.448 261.042 263.412 261.311 263.383 261.583C263.304 262.291 263.731 263.017 264.201 263.519C264.455 263.784 264.756 263.972 265.103 264.085C265.436 264.255 265.799 264.333 266.183 264.318C266.969 264.252 267.715 264.088 268.28 263.494C268.345 263.423 268.407 263.349 268.472 263.275L268.924 262.765C269.268 262.426 269.508 262.025 269.638 261.565C269.674 261.321 269.707 261.081 269.739 260.84C269.772 260.115 269.41 259.435 268.924 258.919C268.476 258.44 267.715 258.148 267.053 258.121ZM285.334 250.67C281.568 250.67 281.575 256.378 285.334 256.378C289.098 256.378 289.091 250.67 285.334 250.67ZM95.9606 242.667L95.8419 242.669C95.2186 242.673 94.6358 242.825 94.0958 243.133L93.3936 243.66C92.9658 244.085 92.6692 244.58 92.5023 245.153C92.4628 245.454 92.4226 245.755 92.3791 246.052C92.361 246.519 92.4628 246.955 92.6797 247.358C92.8173 247.776 93.0564 248.14 93.3936 248.448C93.7083 248.777 94.0781 249.011 94.5087 249.145C94.9216 249.357 95.3671 249.456 95.8419 249.439C96.4681 249.435 97.0515 249.283 97.5912 248.975C97.8262 248.798 98.058 248.621 98.2934 248.448C98.6879 248.056 98.9713 247.604 99.1408 247.086L99.1807 246.955L99.3075 246.052C99.3256 245.589 99.2246 245.153 99.0073 244.75C98.8693 244.329 98.6302 243.968 98.2934 243.66C97.9783 243.331 97.6053 243.097 97.1779 242.963C96.7998 242.768 96.3936 242.669 95.9606 242.667ZM112.926 231.983C112.589 231.972 112.277 232.039 111.984 232.188C111.684 232.283 111.423 232.449 111.202 232.679C110.734 233.044 110.449 233.773 110.449 234.364C110.449 234.955 110.734 235.684 111.202 236.048C111.506 236.342 111.865 236.547 112.277 236.66L112.926 236.746C113.556 236.774 114.197 236.452 114.646 236.048C114.737 235.967 114.824 235.886 114.914 235.808C115.323 235.439 115.5 234.891 115.526 234.364C115.537 234.085 115.475 233.823 115.345 233.579C115.261 233.324 115.117 233.108 114.914 232.92C114.824 232.842 114.737 232.761 114.646 232.679C114.157 232.237 113.585 232.014 112.926 231.983ZM5.43951 212.948C3.05969 210.116 4.44537 208.1 8.02182 208.801C14.1824 209.615 19.9804 213.419 25.4061 216.147C31.328 219.203 37.431 221.723 43.4717 224.595C40.9792 226.09 39.1256 228.43 37.7095 231.101C34.8828 229.004 31.2693 228.001 27.7421 227.871C21.3429 221.883 10.7454 220.511 5.43951 212.948ZM286.601 222.351C285.956 222.354 285.351 222.502 284.784 222.798L284.664 222.863L283.889 223.451C283.512 223.79 283.248 224.194 283.092 224.657C282.853 225.103 282.744 225.588 282.762 226.105C282.744 226.621 282.853 227.103 283.092 227.548C283.248 228.016 283.512 228.415 283.889 228.755C284.102 229.028 284.378 229.24 284.707 229.396C285.015 229.52 285.319 229.647 285.627 229.774C285.971 229.88 286.369 229.895 286.743 229.912C287.42 229.909 288.05 229.742 288.637 229.41L289.397 228.837C289.763 228.504 290.024 228.111 290.176 227.655C290.392 227.253 290.501 226.823 290.501 226.365L290.498 226.239C290.498 226.211 290.498 226.179 290.494 226.147C290.451 225.815 290.404 225.482 290.357 225.15C290.237 224.661 290.009 224.233 289.669 223.872C289.582 223.702 289.466 223.564 289.317 223.451C288.84 222.984 288.275 222.665 287.623 222.484C287.282 222.442 286.942 222.396 286.601 222.351ZM118.445 212.976C117.956 212.976 117.503 213.097 117.083 213.334C116.898 213.472 116.717 213.61 116.536 213.748C116.199 214.077 115.967 214.466 115.841 214.912L115.743 215.612C115.732 215.977 115.808 216.313 115.978 216.629C116.087 216.954 116.272 217.237 116.536 217.478C116.779 217.736 117.068 217.916 117.405 218.023C117.724 218.189 118.072 218.263 118.445 218.249C118.93 218.249 119.387 218.129 119.807 217.888C119.988 217.754 120.173 217.616 120.354 217.478C120.659 217.176 120.879 216.824 121.011 216.424L121.045 216.313L121.143 215.612C121.157 215.248 121.081 214.912 120.911 214.597C120.803 214.268 120.614 213.985 120.354 213.748C120.107 213.489 119.817 213.309 119.484 213.203C119.194 213.053 118.884 212.978 118.555 212.975L118.445 212.976ZM265.432 209.142L265.306 209.144C264.585 209.147 263.915 209.324 263.292 209.678C263.024 209.88 262.756 210.082 262.488 210.287C261.992 210.772 261.651 211.345 261.459 212.007L261.318 213.04C261.296 213.578 261.412 214.077 261.662 214.54C261.821 215.025 262.097 215.443 262.488 215.797C262.846 216.176 263.274 216.444 263.77 216.6C264.245 216.844 264.755 216.958 265.306 216.936C266.026 216.936 266.697 216.759 267.319 216.405C267.587 216.204 267.855 215.999 268.127 215.797C268.62 215.308 268.96 214.735 269.152 214.077L269.293 213.04C269.315 212.506 269.199 212.003 268.949 211.54C268.79 211.059 268.515 210.637 268.127 210.287C267.765 209.905 267.338 209.636 266.841 209.48C266.403 209.255 265.935 209.144 265.432 209.142ZM131.327 199.413C130.997 199.328 130.668 199.328 130.339 199.413C129.846 199.434 129.386 199.579 128.958 199.844L128.209 200.411C128.198 200.421 128.187 200.432 128.176 200.446C127.723 200.892 127.409 201.419 127.235 202.024L127.104 202.976C127.086 203.468 127.191 203.928 127.419 204.353C127.555 204.761 127.78 205.116 128.09 205.423L128.209 205.538C128.546 205.892 128.941 206.143 129.401 206.288C129.69 206.455 130.005 206.536 130.339 206.536C130.831 206.645 131.327 206.625 131.82 206.472C132.113 206.348 132.41 206.228 132.707 206.108L132.801 206.055C133.921 205.457 134.612 204.204 134.612 202.976C134.612 201.748 133.921 200.492 132.801 199.894C132.768 199.88 132.74 199.862 132.707 199.844C132.28 199.579 131.82 199.434 131.327 199.413Z" fill="black"/>
<path d="M240.36 46.3255C240.36 46.3255 247.145 104.585 247.145 142.104C247.145 155.804 231.311 173 179.247 173C129.343 173 128.615 142.104 128.615 142.104L132.734 63.02L133.755 45.4927C134.289 36.3381 134.289 32.4745 144.124 32.3701C148.059 32.3285 148.513 32.3699 151.388 32.3698L224.92 32.4745C234.005 32.4745 239.727 38.5069 240.36 46.3255Z" fill="#FFCC5A" stroke="black" stroke-width="3.51889" stroke-miterlimit="10"/>
<path d="M124.623 32.356H143.893C143.259 58.0502 133.145 56.5024 133.145 56.5024C133.145 53.6179 132.818 53.1847 130.509 51.3526L125.422 48.2168C125.012 47.97 125.034 47.3809 125.453 47.1557L132.818 43.2143L133.944 42.6469C135.15 41.9236 134.956 41.0963 134.249 40.4943C134.24 40.49 134.236 40.4813 134.227 40.477C131.207 37.9649 124.199 33.4258 124.199 33.4258C123.775 33.0446 124.049 32.356 124.623 32.356Z" fill="#FFCC5A"/>
<path d="M148.96 32.356H124.623C124.049 32.356 123.775 33.0446 124.199 33.4258C124.199 33.4258 131.207 37.9649 134.227 40.477C134.236 40.4813 134.24 40.49 134.249 40.4943C134.956 41.0963 135.15 41.9236 133.944 42.6469L132.818 43.2143L125.453 47.1557C125.034 47.3809 125.012 47.97 125.422 48.2168L130.509 51.3526C132.818 53.1848 133.145 53.6179 133.145 56.5024" stroke="black" stroke-width="3.51956" stroke-miterlimit="10"/>
<path d="M198.26 136.226C189.504 136.226 178.226 142.992 166.994 139.014C155.094 134.798 166.995 153.46 183.386 153.46C206.152 153.46 207.67 136.226 198.26 136.226Z" fill="white" stroke="black" stroke-width="3.03753"/>
<path d="M105.352 34.0388L108.991 36.0464V68.71H105.797L105.352 34.0388Z" fill="black" stroke="black" stroke-width="1.49967"/>
<path d="M107.304 60.8152C100.074 60.8152 100.743 84.3892 100.743 84.3892C100.743 84.3892 100.241 86.7353 107.304 86.7353C114.368 86.7353 113.866 84.3892 113.866 84.3892C113.866 84.3892 114.534 60.8152 107.304 60.8152Z" fill="#F9C81E" stroke="black" stroke-width="3.49923"/>
<path d="M133.267 60.3683V53.5347C133.267 53.5347 104.15 33.7021 99.1846 31.7692C94.2192 29.8363 191.058 2 191.058 2C191.058 2 278.577 33.756 275.661 35.4926C272.744 37.2293 240.574 53.6849 240.574 53.6849L241.025 60.446C240.141 60.446 169.693 38.7793 133.267 60.3683Z" fill="#3C3C3B" stroke="black" stroke-width="3.49923"/>
<path d="M133.298 63.9225C133.298 63.9225 133.245 50.9055 134.803 46.0109C137.061 38.9186 167.321 30.2224 189.613 30.5575C210.077 30.8651 237.16 39.1701 239.419 47.7833C240.924 53.5229 241.325 64.2034 241.325 64.2034C241.325 64.2034 167.5 35.5 133.298 63.9225Z" fill="#323232" stroke="black" stroke-width="3.49923"/>
<path d="M193.963 100.672C194.21 98.607 193.627 96.5286 192.342 94.8938C191.056 93.2591 189.174 92.2018 187.109 91.9546C185.045 91.7075 182.966 92.2907 181.332 93.5759C179.697 94.8611 178.639 96.7432 178.392 98.8079" stroke="black" stroke-width="3.53526"/>
<circle cx="219.108" cy="96.7757" r="25.6752" transform="rotate(6.82605 219.108 96.7757)" fill="white" stroke="black" stroke-width="3.53526"/>
<circle cx="152.846" cy="97.7225" r="25.6752" transform="rotate(6.82605 152.846 97.7225)" fill="white" stroke="black" stroke-width="3.53526"/>
<path fill-rule="evenodd" clip-rule="evenodd" d="M56.3872 161.86C52.2813 160.711 47.9826 160.131 43.8126 159.6C42.9144 159.488 42.0805 160.11 42.0164 160.985C41.8881 161.861 42.53 162.663 43.364 162.774C47.4057 163.286 51.5754 163.833 55.4888 164.939C56.3228 165.179 57.2213 164.685 57.478 163.835C57.7346 162.986 57.2212 162.101 56.3872 161.86Z" fill="#FEE05C"/>
<path fill-rule="evenodd" clip-rule="evenodd" d="M68.833 145.563C62.2251 138.836 54.7832 132.974 48.3036 126.066C47.7263 125.421 46.6998 125.387 46.0582 125.989C45.4167 126.592 45.3528 127.606 45.9943 128.251C52.4739 135.178 59.9158 141.059 66.5237 147.806C67.1653 148.436 68.1915 148.445 68.833 147.826C69.4104 147.207 69.4746 146.193 68.833 145.563Z" fill="#FEE05C"/>
<path fill-rule="evenodd" clip-rule="evenodd" d="M81.215 119.687C81.4075 123.537 81.5995 127.388 81.792 131.239C81.792 132.121 82.5622 132.802 83.4604 132.759C84.3586 132.716 84.9997 131.965 84.9997 131.082C84.8073 127.225 84.6152 123.369 84.4227 119.513C84.3586 118.631 83.5886 117.954 82.6904 118.002C81.8564 118.05 81.1508 118.806 81.215 119.687Z" fill="#FEE05C"/>
</svg>
