<svg width="555" height="75" viewBox="0 0 555 75" fill="none" xmlns="http://www.w3.org/2000/svg">
<path d="M481.176 24.33L483.861 62.1545C483.861 62.1545 485.094 73.1896 459.396 73.1896C434.708 73.1896 435.973 62.8404 435.973 62.8404L438.58 30.923L438.985 24.0011C439.17 20.8352 439.256 18.92 442.729 18.8134H446.023L475.065 18.8601C478.78 18.8601 480.925 21.2424 481.176 24.33Z" fill="#7EA16B" stroke="black" stroke-width="1.39294" stroke-miterlimit="10"/>
<ellipse cx="441.729" cy="63.69" rx="1.79" ry="1.89059" fill="#8EB47A"/>
<ellipse cx="444.612" cy="59.2122" rx="1.09389" ry="1.19406" fill="#8EB47A"/>
<ellipse cx="439.84" cy="56.6249" rx="0.894752" ry="0.99477" fill="#8EB47A"/>
<ellipse cx="445.408" cy="29.1614" rx="0.894752" ry="0.99477" fill="#8EB47A"/>
<ellipse cx="479.617" cy="55.6299" rx="0.894752" ry="0.99477" fill="#8EB47A"/>
<path d="M466.789 24.1866C468.53 25.4066 472.281 28.2688 473.352 29.9579" stroke="black" stroke-width="0.795557" stroke-linecap="round"/>
<path d="M467.585 26.2759C467.983 25.7122 468.857 24.5848 469.176 24.5848" stroke="black" stroke-width="0.795557" stroke-linecap="round"/>
<path d="M469.275 27.5692C469.574 27.0718 470.25 26.0571 470.568 25.9775" stroke="black" stroke-width="0.795557" stroke-linecap="round"/>
<path d="M470.867 29.0618C471.033 28.5645 471.523 27.5299 472.16 27.3707" stroke="black" stroke-width="0.795557" stroke-linecap="round"/>
<path d="M435.372 18.8135H442.999C442.748 28.8502 438.745 28.2457 438.745 28.2457C438.745 27.1189 438.616 26.9497 437.702 26.234L435.689 25.0091C435.526 24.9127 435.535 24.6826 435.701 24.5946L438.616 23.055L439.061 22.8334C439.539 22.5508 439.462 22.2277 439.182 21.9925C439.179 21.9908 439.177 21.9874 439.173 21.9857C437.978 21.0045 435.205 19.2314 435.205 19.2314C435.037 19.0825 435.145 18.8135 435.372 18.8135Z" fill="#7EA16B"/>
<path d="M445.004 18.8135H440.188H435.372C435.145 18.8135 435.037 19.0825 435.205 19.2314C435.205 19.2314 437.978 21.0045 439.173 21.9857C439.177 21.9874 439.179 21.9908 439.182 21.9925C439.462 22.2277 439.539 22.5508 439.061 22.8334L438.616 23.055L435.701 24.5946C435.535 24.6826 435.526 24.9127 435.689 25.0091L437.702 26.234C438.616 26.9497 438.745 27.1189 438.745 28.2457" stroke="black" stroke-width="1.39294" stroke-miterlimit="10"/>
<rect x="435.842" y="36.6736" width="48.3121" height="13.4004" rx="6.24027" fill="black"/>
<rect x="437.076" y="38.084" width="45.8436" height="10.5793" rx="5.28964" fill="#494949"/>
<rect x="439.016" y="39.6708" width="42.1408" height="7.4055" rx="3.70275" fill="url(#paint0_linear_1103_1429)"/>
<path d="M466.029 59.3853C462.563 59.3852 458.1 62.0284 453.655 60.4743C448.945 58.8277 453.655 66.1174 460.142 66.1174C469.152 66.1174 469.753 59.3853 466.029 59.3853Z" fill="white" stroke="black" stroke-width="1.20217"/>
<path d="M404.833 26.4692L407.413 62.8123C407.413 62.8123 408.598 73.4152 383.907 73.4152C360.185 73.4152 361.4 63.4714 361.4 63.4714L363.906 32.804L364.294 26.1532C364.497 22.6795 364.497 21.2135 368.237 21.1739C369.733 21.1581 369.906 21.1738 370.999 21.1738L398.961 21.2135C402.416 21.2135 404.592 23.5025 404.833 26.4692Z" fill="#FFCC5A" stroke="black" stroke-width="1.33813" stroke-miterlimit="10"/>
<path d="M360.825 21.1687H368.152C367.911 30.8124 364.065 30.2315 364.065 30.2315C364.065 29.1488 363.941 28.9863 363.063 28.2986L361.128 27.1217C360.972 27.029 360.981 26.8079 361.14 26.7234L363.941 25.2441L364.369 25.0311C364.828 24.7597 364.754 24.4492 364.485 24.2232C364.482 24.2216 364.48 24.2183 364.477 24.2167C363.328 23.2739 360.663 21.5702 360.663 21.5702C360.502 21.4272 360.606 21.1687 360.825 21.1687Z" fill="#FFCC5A"/>
<path d="M370.079 21.1687H360.825C360.606 21.1687 360.502 21.4272 360.663 21.5702C360.663 21.5702 363.328 23.2739 364.477 24.2167C364.48 24.2183 364.482 24.2216 364.485 24.2232C364.754 24.4492 364.828 24.7597 364.369 25.0311L363.941 25.2441L361.14 26.7234C360.981 26.8079 360.972 27.029 361.128 27.1217L363.063 28.2986C363.941 28.9863 364.065 29.1488 364.065 30.2315" stroke="black" stroke-width="1.33839" stroke-miterlimit="10"/>
<path d="M391.169 63.9466C390.731 64.8369 390.082 65.5602 389.326 66.1306C386.546 68.2032 382.24 68.1893 379.642 66.3253C379.566 66.2697 379.491 66.214 379.415 66.1445C378.72 65.5881 378.146 64.9204 377.753 64.1414C377.361 63.3763 376.998 62.1243 377.557 61.4149C378.131 60.7055 379.068 60.3299 379.959 60.622C380.412 60.7611 380.896 60.942 381.349 61.1367C383.117 61.874 384.96 61.9574 386.894 61.3593C387.528 61.1645 388.193 60.9559 388.873 60.8863C390.746 60.7055 391.985 62.3191 391.169 63.9466Z" fill="black" stroke="black" stroke-width="0.996922"/>
<path d="M385.755 64.4509C386.976 64.63 388.113 65.1303 388.898 66.0673C386.219 67.8833 382.233 67.8146 379.817 66.083C379.815 66.0813 379.813 66.0796 379.81 66.0779C379.869 66.0189 379.944 65.9563 380.029 65.893C380.123 65.8222 380.222 65.7558 380.31 65.6975C380.327 65.6869 380.343 65.6762 380.359 65.6655C380.421 65.6253 380.481 65.5855 380.523 65.5551C380.968 65.2649 381.459 65.0259 381.966 64.839C383.04 64.4448 384.432 64.2568 385.755 64.4509Z" fill="#E50E0E" stroke="black" stroke-width="0.598153"/>
<path d="M387.846 41.9011C388.103 43.054 388.779 44.0605 389.304 45.1185C389.684 45.8836 389.988 46.6855 390.402 47.432C390.8 48.1483 391.295 48.8065 391.823 49.4329C393.696 51.6564 396.176 53.5871 399.067 53.8915C399.807 53.9694 400.555 53.9386 401.297 53.8723C401.918 53.8169 402.545 53.7352 403.127 53.5119C404.366 53.0369 405.296 51.9548 405.866 50.7563C406.437 49.5579 406.69 48.2372 406.932 46.9318C407.181 45.5831 407.421 44.1926 407.138 42.8511C407.03 42.3404 406.848 41.8473 406.627 41.3745C406.28 40.6335 405.833 39.9337 405.252 39.3583C403.853 37.9734 401.828 37.4381 399.876 37.183C397.747 36.905 395.583 36.8956 393.451 37.1545C390.902 37.4644 387.102 38.5641 387.846 41.9011Z" fill="#263238"/>
<path d="M369.124 37.7308C367.191 37.7308 364.418 38.407 364.051 39.3526C363.199 40.045 362.081 39.3526 361.64 44.5297C362.081 46.7128 361.64 45.7772 362.263 47.5237C362.081 47.8356 362.837 48.6457 362.263 48.7088C362.764 49.7855 363.084 50.6707 363.585 51.7474C363.716 52.0271 363.849 52.3112 364.051 52.5443C364.454 53.01 365.074 53.2129 365.662 53.3961C366.534 53.6676 367.418 53.9413 368.331 53.9715C369.12 53.9973 369.904 53.8399 370.672 53.6545C371.473 53.4609 372.272 53.2354 373.019 52.8849C374.627 52.1313 375.918 50.8397 377.074 49.4915C378.209 48.168 379.26 46.7485 379.956 45.1502C380.653 43.552 380.979 41.754 380.634 40.045C380.56 39.6797 380.45 39.3083 380.213 39.0215C379.934 38.6836 379.513 38.5021 379.109 38.3326C378.048 37.8889 376.976 37.455 375.859 37.1687C375.144 36.9855 373.18 36.4447 372.582 37.0031C373.362 37.5806 368.966 36.7271 369.124 37.7308Z" fill="#263238"/>
<path d="M407.181 42.0701C406.886 40.8826 406.24 39.7379 405.285 38.9597C403.434 37.4513 400.467 36.9906 398.171 36.7114C396.805 36.5452 395.417 36.509 394.048 36.644C394.062 36.6242 394.074 36.6028 394.079 36.5776C393.797 36.3582 393.409 36.3494 393.052 36.3631C392.01 36.4032 390.976 36.5546 389.941 36.678C386.076 37.1376 381.97 36.882 378.091 36.5611C377.099 36.4789 376.381 36.367 375.452 36.7257C373.863 36.4997 372.237 36.5173 370.643 36.7114C368.346 36.9906 365.38 37.4519 363.528 38.9597C362.573 39.7379 361.928 40.8826 361.633 42.0701C361.191 43.851 361.427 45.7257 361.759 47.5302C361.974 48.6985 362.231 49.8673 362.692 50.9621C363.198 52.1638 364.001 53.3074 365.177 53.8713C365.678 54.1115 366.226 54.2371 366.775 54.3199C369.578 54.7417 372.534 54.0402 374.848 52.4035C376.374 51.3247 377.609 49.8723 378.609 48.2932C379.627 46.6845 380.416 45.3052 380.947 43.4766C381.102 43.2824 381.263 43.0932 381.433 42.9117C382.016 42.293 382.712 42.011 383.515 41.7351C384.382 41.4373 385.354 41.4548 386.209 41.7839C386.731 41.9847 387.269 42.3105 387.662 42.7082C387.64 42.6226 387.682 42.7954 387.662 42.7082C388.183 44.8138 389.046 46.4607 390.207 48.2932C391.207 49.8723 392.441 51.3247 393.967 52.4035C396.281 54.0402 399.237 54.7417 402.04 54.3199C402.589 54.2371 403.137 54.1115 403.638 53.8713C404.814 53.3074 405.616 52.1638 406.123 50.9621C406.584 49.8673 406.841 48.6985 407.056 47.5302C407.386 45.7257 407.623 43.851 407.181 42.0701ZM377.867 47.8495C376.954 49.2552 375.827 50.548 374.434 51.5084C372.321 52.9652 369.622 53.5899 367.063 53.2142C366.562 53.1407 366.061 53.0288 365.604 52.8149C364.531 52.313 363.797 51.295 363.335 50.2255C362.914 49.2508 362.68 48.2104 362.484 47.1704C362.181 45.5639 361.964 43.8949 362.369 42.3098C362.638 41.2523 363.227 40.2332 364.1 39.5399C365.79 38.1973 368.498 37.787 370.596 37.5385C373.039 37.2489 375.565 37.4014 377.875 38.2784C378.849 38.6481 379.844 39.2147 380.227 40.1625C380.531 40.9133 380.39 41.7602 380.191 42.544C379.715 44.4187 378.927 46.2177 377.867 47.8495ZM387.621 40.0332C387.499 40.3431 387.443 40.6673 387.432 40.9975C386.209 40.6626 385.864 40.4478 384.692 40.5114C382.972 40.6048 382.223 40.9975 381.382 41.2821C381.397 40.8543 381.35 40.0577 381.193 39.659C380.773 38.5944 379.683 37.9576 378.617 37.5424C378.479 37.4886 378.341 37.4382 378.202 37.3893C378.393 37.4025 378.584 37.4162 378.776 37.4277C380.002 37.5018 381.23 37.544 382.458 37.5555C384.888 37.578 387.32 37.4787 389.74 37.2572C390.412 37.1957 391.083 37.125 391.753 37.0443C391.227 37.1793 390.708 37.3444 390.198 37.5424C389.131 37.9581 388.041 38.9686 387.621 40.0332ZM406.329 47.1699C406.133 48.2098 405.899 49.2508 405.478 50.2249C405.015 51.295 404.282 52.3125 403.209 52.8143C402.751 53.0282 402.251 53.1401 401.75 53.2136C399.191 53.5893 396.492 52.9646 394.379 51.5079C392.986 50.5475 391.859 49.2547 390.946 47.8489C389.886 46.2172 389.098 44.4187 388.622 42.544C388.423 41.7608 388.282 40.9133 388.586 40.1625C388.969 39.2147 389.964 38.6481 390.938 38.2784C393.247 37.4014 395.774 37.2484 398.218 37.5385C400.315 37.7875 403.023 38.1978 404.714 39.5399C405.586 40.2327 406.176 41.2518 406.445 42.3092C406.848 43.8944 406.632 45.5634 406.329 47.1699Z" fill="#101011"/>
<path d="M387.662 42.7082C387.269 42.3105 386.731 41.9847 386.209 41.7839C385.354 41.4548 384.382 41.4373 383.515 41.7351C382.712 42.011 382.016 42.293 381.433 42.9117C381.263 43.0932 381.102 43.2824 380.947 43.4766C380.416 45.3052 379.627 46.6845 378.609 48.2932C377.609 49.8723 376.374 51.3247 374.848 52.4035C372.534 54.0402 369.578 54.7417 366.775 54.3199C366.226 54.2371 365.678 54.1115 365.177 53.8713C364.001 53.3074 363.198 52.1638 362.692 50.9621C362.231 49.8673 361.974 48.6985 361.759 47.5302C361.427 45.7257 361.191 43.851 361.633 42.0701C361.928 40.8826 362.573 39.7379 363.528 38.9597C365.38 37.4519 368.346 36.9906 370.643 36.7114C372.237 36.5173 373.863 36.4997 375.452 36.7257C376.381 36.367 377.099 36.4789 378.091 36.5611C381.97 36.882 386.076 37.1376 389.941 36.678C390.976 36.5546 392.01 36.4032 393.052 36.3631C393.409 36.3494 393.797 36.3582 394.079 36.5776C394.074 36.6028 394.062 36.6242 394.048 36.644C395.417 36.509 396.805 36.5452 398.171 36.7114C400.467 36.9906 403.434 37.4513 405.285 38.9597C406.24 39.7379 406.886 40.8826 407.181 42.0701C407.623 43.851 407.386 45.7257 407.056 47.5302C406.841 48.6985 406.584 49.8673 406.123 50.9621C405.616 52.1638 404.814 53.3074 403.638 53.8713C403.137 54.1115 402.589 54.2371 402.04 54.3199C399.237 54.7417 396.281 54.0402 393.967 52.4035C392.441 51.3247 391.207 49.8723 390.207 48.2932C389.046 46.4607 388.183 44.8138 387.662 42.7082ZM387.662 42.7082C387.682 42.7954 387.64 42.6226 387.662 42.7082ZM377.867 47.8495C376.954 49.2552 375.827 50.548 374.434 51.5084C372.321 52.9652 369.622 53.5899 367.063 53.2142C366.562 53.1407 366.061 53.0288 365.604 52.8149C364.531 52.313 363.797 51.295 363.335 50.2255C362.914 49.2508 362.68 48.2104 362.484 47.1704C362.181 45.5639 361.964 43.8949 362.369 42.3098C362.638 41.2523 363.227 40.2332 364.1 39.5399C365.79 38.1973 368.498 37.787 370.596 37.5385C373.039 37.2489 375.565 37.4014 377.875 38.2784C378.849 38.6481 379.844 39.2147 380.227 40.1625C380.531 40.9133 380.39 41.7602 380.191 42.544C379.715 44.4187 378.927 46.2177 377.867 47.8495ZM387.621 40.0332C387.499 40.3431 387.443 40.6673 387.432 40.9975C386.209 40.6626 385.864 40.4478 384.692 40.5114C382.972 40.6048 382.223 40.9975 381.382 41.2821C381.397 40.8543 381.35 40.0577 381.193 39.659C380.773 38.5944 379.683 37.9576 378.617 37.5424C378.479 37.4886 378.341 37.4382 378.202 37.3893C378.393 37.4025 378.584 37.4162 378.776 37.4277C380.002 37.5018 381.23 37.544 382.458 37.5555C384.888 37.578 387.32 37.4787 389.74 37.2572C390.412 37.1957 391.083 37.125 391.753 37.0443C391.227 37.1793 390.708 37.3444 390.198 37.5424C389.131 37.9581 388.041 38.9686 387.621 40.0332ZM406.329 47.1699C406.133 48.2098 405.899 49.2508 405.478 50.2249C405.015 51.295 404.282 52.3125 403.209 52.8143C402.751 53.0282 402.251 53.1401 401.75 53.2136C399.191 53.5893 396.492 52.9646 394.379 51.5079C392.986 50.5475 391.859 49.2547 390.946 47.8489C389.886 46.2172 389.098 44.4187 388.622 42.544C388.423 41.7608 388.282 40.9133 388.586 40.1625C388.969 39.2147 389.964 38.6481 390.938 38.2784C393.247 37.4014 395.774 37.2484 398.218 37.5385C400.315 37.7875 403.023 38.1978 404.714 39.5399C405.586 40.2327 406.176 41.2518 406.445 42.3092C406.848 43.8944 406.632 45.5634 406.329 47.1699Z" stroke="black" stroke-width="0.37887"/>
<path d="M353.219 21.6997L354.613 22.4686V34.9778H353.389L353.219 21.6997Z" fill="black" stroke="black" stroke-width="0.574332"/>
<path d="M353.967 31.9531C351.198 31.9531 351.454 40.9813 351.454 40.9813C351.454 40.9813 351.262 41.8798 353.967 41.8798C356.672 41.8798 356.48 40.9813 356.48 40.9813C356.48 40.9813 356.736 31.9531 353.967 31.9531Z" fill="#F9C81E" stroke="black" stroke-width="1.34011"/>
<path d="M363.911 31.7838V29.1666C363.911 29.1666 352.759 21.5713 350.858 20.8311C348.956 20.0908 386.043 9.4303 386.043 9.4303C386.043 9.4303 419.56 21.592 418.443 22.2571C417.326 22.9221 405.006 29.2242 405.006 29.2242L405.179 31.8135C404.84 31.8135 388.091 26.7272 363.911 31.7838Z" fill="#3C3C3B" stroke="black" stroke-width="1.34011"/>
<path d="M363.922 33.1444C363.922 33.1444 363.902 28.1593 364.498 26.2848C365.363 23.5686 376.952 20.2382 385.489 20.3665C393.326 20.4843 403.698 23.6649 404.563 26.9635C405.14 29.1616 405.293 33.252 405.293 33.252C405.293 33.252 388.999 28.031 363.922 33.1444Z" fill="#323232" stroke="black" stroke-width="1.34011"/>
<path d="M548.161 26.6617L550.736 62.9212C550.736 62.9212 551.917 73.4997 527.285 73.4997C503.62 73.4997 504.832 63.5787 504.832 63.5787L507.332 32.9819L507.719 26.3465C507.866 23.3665 508.792 21.8126 511.025 21.3733L514.182 21.3733L542.304 21.4181C546.101 21.4181 547.921 23.7018 548.161 26.6617Z" fill="#A6CBD9" stroke="black" stroke-width="1.33416" stroke-miterlimit="10"/>
<path d="M544.478 53.331C547.068 56.8938 547.07 62.6762 547.07 62.6762C547.07 62.6762 548.181 73.0596 527.182 72.682C508.471 72.9652 508.378 63.0537 508.378 63.0537C508.008 60.9771 508.849 57.3371 511.063 53.8975C515.722 46.6578 520.381 44.0858 528.465 43.8919C535.993 43.7114 539.934 47.0789 544.478 53.331Z" fill="#F4F4F4"/>
<path d="M505.463 59.2424C505.463 59.2424 505.277 58.8035 505.748 58.3181C509.36 60.5591 512.109 58.1008 512.036 58.8035C512.036 58.8035 511.279 60.6649 508.247 60.4638C506.643 60.2885 505.929 60.4479 505.463 59.2424Z" fill="black"/>
<path d="M550.296 59.1285C550.296 59.1285 550.976 58.3193 549.825 58.3179C546.213 60.5589 543.464 58.1006 543.537 58.8033C543.537 58.8033 544.294 60.6647 547.327 60.4636C548.931 60.2883 549.83 60.334 550.296 59.1285Z" fill="black"/>
<path d="M504.991 62.3529C504.991 62.3529 504.992 61.9717 505.463 61.3742C508.525 63.4391 511.891 61.2686 511.818 61.9713C511.818 61.9713 510.659 63.713 507.968 63.5345C506.298 63.4238 505.463 63.1528 504.991 62.3529Z" fill="black"/>
<path d="M550.582 62.3216C550.582 62.3216 550.582 61.6145 550.11 61.3429C547.048 63.4079 543.682 61.2373 543.755 61.9401C543.755 61.9401 544.914 63.6817 547.605 63.5033C549.275 63.3925 550.11 63.1216 550.582 62.3216Z" fill="black"/>
<path d="M504.261 21.3734H511.572C511.332 30.9949 507.494 30.4153 507.494 30.4153C507.494 29.3352 507.37 29.173 506.494 28.4869L504.564 27.3127C504.409 27.2203 504.417 26.9997 504.576 26.9153L507.37 25.4394L507.798 25.227C508.255 24.9561 508.181 24.6463 507.913 24.4209C507.91 24.4193 507.908 24.416 507.905 24.4144C506.759 23.4737 504.1 21.774 504.1 21.774C503.94 21.6313 504.043 21.3734 504.261 21.3734Z" fill="#A6CBD9"/>
<path d="M513.495 21.3734H508.878H504.261C504.043 21.3734 503.94 21.6313 504.1 21.774C504.1 21.774 506.759 23.4737 507.905 24.4144C507.908 24.416 507.91 24.4193 507.913 24.4209C508.181 24.6463 508.255 24.9561 507.798 25.227L507.37 25.4394L504.576 26.9153C504.417 26.9997 504.409 27.2203 504.564 27.3127L506.494 28.4869C507.37 29.173 507.494 29.3352 507.494 30.4153" stroke="black" stroke-width="1.33531" stroke-miterlimit="10"/>
<path d="M507.425 45.5149C506.316 44.4453 505.457 43.109 505.834 41.6225C505.86 41.5115 505.997 41.357 506.063 41.2937C507.057 40.4834 508.646 40.2775 509.92 40.0752C511.746 39.7861 513.676 39.8084 515.514 40.0119C517.313 40.208 519.115 40.6137 520.82 41.1708C521.591 41.4227 523.122 41.9674 523.122 41.9674C523.588 42.1304 524.86 42.7126 524.934 43.5774C524.959 43.8653 524.984 43.9852 524.934 44.2693C524.87 44.6391 524.838 45.0477 524.353 46.4315C523.868 47.8153 522.806 48.715 522.806 48.715C521.538 50.0464 519.241 50.328 517.397 50.2139C515.313 50.0848 513.293 49.416 511.519 48.4383C510.056 47.6317 508.597 46.6465 507.425 45.5149Z" fill="#333333" stroke="black" stroke-width="1.34534"/>
<path d="M548.266 45.5149C549.375 44.4453 550.234 43.109 549.857 41.6225C549.831 41.5115 549.694 41.357 549.628 41.2937C548.634 40.4834 547.045 40.2775 545.771 40.0752C543.945 39.7861 542.015 39.8084 540.177 40.0119C538.378 40.208 536.576 40.6137 534.871 41.1708C534.099 41.4227 532.569 41.9674 532.569 41.9674C532.103 42.1304 530.831 42.7126 530.756 43.5774C530.732 43.8653 530.707 43.9852 530.756 44.2693C530.821 44.6391 530.853 45.0477 531.338 46.4315C531.823 47.8153 532.884 48.715 532.884 48.715C534.153 50.0464 536.449 50.328 538.294 50.2139C540.378 50.0848 542.398 49.416 544.172 48.4383C545.635 47.6317 547.093 46.6465 548.266 45.5149Z" fill="#333333" stroke="black" stroke-width="1.34534"/>
<path d="M524.964 44.1829C526.021 44.9196 529.288 45.4898 530.825 44.1829" stroke="black" stroke-width="1.72973" stroke-linejoin="round"/>
<g clip-path="url(#clip0_1103_1429)">
<path d="M502.035 12.5246C500.645 13.9721 502.702 29.2113 506.376 31.8218C508.232 33.1404 509.231 29.284 511.481 27.0819C513.733 24.8797 516.962 23.0112 517.36 21.6916C518.05 19.3994 504.693 9.75739 502.035 12.5246Z" fill="black"/>
<path d="M503.915 14.5265C502.454 15.958 506.028 27.0996 507.468 28.078C508.907 29.0563 510.143 25.7734 511.655 24.7885C513.938 23.302 515.653 22.8546 515.551 21.1131C515.45 19.3717 505.397 13.0742 503.915 14.5265Z" fill="#FCC7C3"/>
<path d="M553.685 12.8042C555.048 14.2773 552.13 29.181 549.776 31.9366C547.895 33.2202 546.171 29.4243 543.962 27.1795C541.754 24.9356 538.56 23.0055 538.188 21.6792C537.541 19.3737 551.079 9.9877 553.685 12.8042Z" fill="black"/>
<path d="M551.767 14.7707C553.2 16.2296 549.415 27.3011 547.956 28.252C546.498 29.2028 545.324 25.8972 543.832 24.8838C541.578 23.3547 539.872 22.874 540.007 21.1354C540.142 19.3959 550.314 13.2908 551.767 14.7707Z" fill="#FCC7C3"/>
<path d="M547.939 25.4494C542.242 18.9778 527.904 18.9623 527.904 18.9623C527.904 18.9623 513.451 18.9778 507.752 25.4494C503.596 30.1701 507.752 34.2558 507.752 34.2558C507.752 34.2558 507.624 31.9369 511.509 27.9745C518.633 22.0978 537.06 22.1928 543.994 27.9745C547.938 31.9148 548.702 34.2558 548.702 34.2558C548.702 34.2558 552.096 30.1707 547.939 25.4494Z" fill="black"/>
</g>
<path d="M519.407 60.6403C520.174 61.5154 522.168 63.2658 524.009 63.2658C525.849 63.2658 527.296 62.1718 527.789 61.6248C528.282 62.1718 529.728 63.2658 531.568 63.2658C533.409 63.2658 535.403 61.5154 536.17 60.6403" stroke="black" stroke-width="1.41376" stroke-linecap="round" stroke-linejoin="round"/>
<path d="M121.603 25.2113L124.031 59.4081C124.031 59.4081 125.145 69.3849 101.914 69.3849C79.5952 69.3849 80.7384 60.0283 80.7384 60.0283L83.0955 31.1719L83.4611 24.9139C83.5998 22.1035 84.4725 20.638 86.5789 20.2237L89.5567 20.2236L116.079 20.2659C119.66 20.2659 121.377 22.4197 121.603 25.2113Z" fill="#A6CBD9" stroke="black" stroke-width="1.25827" stroke-miterlimit="10"/>
<path d="M118.129 50.3633C120.571 53.7234 120.573 59.1768 120.573 59.1768C120.573 59.1768 121.621 68.9696 101.816 68.6135C84.17 68.8806 84.0827 59.5329 84.0827 59.5329C83.7336 57.5744 84.5264 54.1415 86.6143 50.8975C91.0089 44.0696 95.4029 41.6439 103.026 41.4611C110.127 41.2908 113.843 44.4668 118.129 50.3633Z" fill="#F4F4F4"/>
<path d="M81.3321 55.9385C81.3321 55.9385 81.1568 55.5246 81.6009 55.0668C85.0075 57.1804 87.5999 54.8618 87.5312 55.5246C87.5312 55.5246 86.8176 57.2801 83.9573 57.0904C82.4444 56.9251 81.7718 57.0754 81.3321 55.9385Z" fill="black"/>
<path d="M123.616 55.8312C123.616 55.8312 124.258 55.068 123.172 55.0667C119.766 57.1803 117.173 54.8618 117.242 55.5245C117.242 55.5245 117.956 57.28 120.816 57.0903C122.329 56.925 123.177 56.9682 123.616 55.8312Z" fill="black"/>
<path d="M80.8864 58.8721C80.8864 58.8721 80.8868 58.5125 81.331 57.949C84.2187 59.8965 87.3937 57.8495 87.325 58.5122C87.325 58.5122 86.2314 60.1548 83.6936 59.9865C82.1184 59.882 81.331 59.6265 80.8864 58.8721Z" fill="black"/>
<path d="M123.886 58.8425C123.886 58.8425 123.886 58.1756 123.441 57.9195C120.553 59.867 117.378 57.8199 117.447 58.4827C117.447 58.4827 118.541 60.1253 121.078 59.957C122.654 59.8525 123.441 59.5969 123.886 58.8425Z" fill="black"/>
<path d="M80.1973 20.2235H87.0922C86.8655 29.2977 83.2466 28.7511 83.2466 28.7511C83.2466 27.7324 83.1297 27.5794 82.3034 26.9324L80.4833 25.8249C80.3364 25.7378 80.3443 25.5297 80.4944 25.4502L83.1297 24.0582L83.5326 23.8579C83.9639 23.6024 83.8944 23.3103 83.6416 23.0976C83.6385 23.0961 83.6369 23.0931 83.6337 23.0915C82.553 22.2044 80.0457 20.6013 80.0457 20.6013C79.894 20.4667 79.9919 20.2235 80.1973 20.2235Z" fill="#A6CBD9"/>
<path d="M88.9054 20.2235H84.5514H80.1973C79.9919 20.2235 79.894 20.4667 80.0457 20.6013C80.0457 20.6013 82.553 22.2044 83.6337 23.0915C83.6369 23.0931 83.6385 23.0961 83.6416 23.0977C83.8944 23.3103 83.9639 23.6024 83.5326 23.8579L83.1297 24.0582L80.4944 25.4502C80.3443 25.5297 80.3364 25.7378 80.4833 25.8249L82.3034 26.9324C83.1297 27.5794 83.2466 27.7324 83.2466 28.7511" stroke="black" stroke-width="1.25935" stroke-miterlimit="10"/>
<path d="M120.798 27.4749L116.349 22.1305C131.655 28.7427 128.278 32.057 128.278 55.327L124.611 66.7871L101.999 71.5792V70.3452L101.825 71.5792L90.098 67.3159L80.9664 63.3495L75.9885 55.327C77.4017 37.6982 73.4974 21.4418 96.0118 21.1272C93.2288 21.8622 88.032 23.9992 86.4318 24.4223C84.8316 24.8454 84.7794 26.1851 84.2994 29.0057L81.2555 60.4731C81.3152 59.8561 81.7317 61.2516 82.01 61.6747C82.3579 62.2036 86.3077 64.0777 90.098 65.9938C93.9979 67.9653 100.463 70.3746 101.999 70.3452L111.478 66.4669L123.841 61.1459L120.798 27.4749Z" fill="#D9D9D9"/>
<path d="M100.187 21.1272H96.0118M96.0118 21.1272C73.4974 21.4418 77.4017 37.6982 75.9885 55.327L80.9664 63.3495L90.098 67.3159L101.825 71.5792L101.999 70.3452M96.0118 21.1272C93.2288 21.8622 88.032 23.9992 86.4318 24.4223C84.8316 24.8454 84.7794 26.1851 84.2994 29.0057L81.2555 60.4731C81.3152 59.8561 81.7317 61.2516 82.01 61.6747C82.3579 62.2036 86.3077 64.0777 90.098 65.9938C93.9979 67.9653 100.463 70.3746 101.999 70.3452M101.999 70.3452L111.478 66.4669L123.841 61.1459L120.798 27.4749L116.349 22.1305C131.655 28.7427 128.278 32.057 128.278 55.327L124.611 66.7871L101.999 71.5792V70.3452Z" stroke="black" stroke-width="1.06943"/>
<path d="M102.709 8.2598C109.738 8.11623 115.073 7.77648 122.015 14.2535C128.957 20.7306 133.984 51.0804 133.668 55.5048C133.26 61.2342 130.712 66.2507 126.189 67.845C122.989 68.9732 103.532 73.6636 102.534 72.0759C101.315 70.1367 119.882 63.5307 122.797 61.146C127.754 57.0914 125.581 45.2791 124.886 39.8142C124.318 35.3566 121.146 25.2704 115.145 22.9787C111.506 21.5887 94.2731 20.7751 88.4463 24.3008C82.5913 27.8436 79.2018 36.4907 78.6179 44.1343C77.5743 57.7966 81.7475 61.0347 83.9228 62.6445C87.5755 65.3476 101.664 70.313 101.664 71.6352C101.664 73.931 90.4176 71.6047 86.0112 71.1933C74.0445 69.642 71.0675 60.3527 71.3128 56.7389C71.3128 39.8142 76.4594 21.3476 83.4012 14.8705C90.3368 8.39348 95.0072 8.41712 102.709 8.2598Z" fill="white" stroke="black" stroke-width="1.24767"/>
<path d="M86.063 36.4292L82.9543 38.9727V40.6684L83.5196 45.4727L85.121 48.864L88.4181 49.7118H94.0703L97.65 47.8278L99.9108 43.1176L100.476 38.4075L99.063 36.4292L94.5413 35.5814H89.6427L86.063 36.4292Z" fill="#E84D4D" stroke="black" stroke-width="0.179726"/>
<path d="M119.128 36.5236L122.237 39.0671V40.7627L121.671 45.5671L120.07 48.9584L116.773 49.8062H111.121L107.541 47.9221L105.28 43.212L104.715 38.5019L106.128 36.5236L110.65 35.6758H115.548L119.128 36.5236Z" fill="#E84D4D" stroke="black" stroke-width="0.179726"/>
<path d="M122.823 35.9171C121.264 35.6256 119.696 35.3342 118.12 35.1399C114.447 34.6807 110.774 34.5923 107.119 35.3518C104.195 35.9612 101.262 35.9789 98.3208 35.4137C96.2599 35.0074 94.1814 34.7336 92.0765 34.7336C90.5088 34.8485 88.9323 34.8926 87.3734 35.0957C85.5415 35.3342 83.7272 35.6963 81.9041 36.0054C81.5518 36.0672 81.3493 36.2438 81.3316 36.6236C81.2788 37.9483 81.1995 39.273 81.1643 40.6066C81.1643 40.8362 81.2964 41.1718 81.4814 41.2778C81.8337 41.4986 81.8865 41.8077 81.9834 42.1433C82.5294 43.9449 83.0314 45.773 83.6744 47.5393C84.2557 49.1467 85.5767 50.021 87.1885 50.2859C89.7602 50.701 92.3407 50.648 94.8772 49.968C96.3656 49.5706 97.5722 48.8111 98.3913 47.4333C99.2368 46.0115 99.9414 44.5278 100.426 42.9558C100.796 41.7723 101.113 40.5713 101.456 39.379C101.606 38.8491 102.029 38.7785 102.487 38.7696C102.971 38.7696 103.455 38.7785 103.64 39.3613C103.808 39.8912 103.975 40.43 104.107 40.9687C104.662 43.1501 105.411 45.2431 106.556 47.1949C107.445 48.7227 108.731 49.5971 110.404 50.021C112.606 50.5774 114.834 50.6038 117.071 50.4184C119.212 50.2418 120.867 49.288 121.598 47.1772C122.197 45.4463 122.664 43.6623 123.193 41.9137C123.245 41.7282 123.386 41.5692 123.483 41.3926C123.642 41.1012 123.924 40.8097 123.932 40.5183C123.95 39.3613 123.915 38.2044 123.844 37.0563C123.783 36.1202 123.747 36.0849 122.823 35.9171ZM99.8797 40.1827C99.7124 41.7635 99.2544 43.2649 98.5939 44.7044C98.2856 45.3668 97.9157 46.0026 97.5458 46.6385C96.7972 47.9191 95.6698 48.6521 94.2255 48.9877C91.8475 49.5264 89.4784 49.4646 87.1092 48.97C86.2197 48.7846 85.5591 48.2723 85.1276 47.4687C83.692 44.7927 83.4102 41.9578 84.0443 39.0169C84.194 38.3369 84.7136 37.9748 85.2861 37.6834C86.572 37.0298 87.9723 36.8179 89.3815 36.6677C90.2534 36.5794 91.1253 36.5618 91.9972 36.5088C91.9884 36.5441 92.006 36.4734 91.9972 36.5088C93.128 36.5088 95.3352 36.8267 96.9821 37.0917C97.5018 37.18 98.0214 37.4096 98.5058 37.6392C99.6595 38.1956 100.012 38.9021 99.8797 40.1827ZM120.269 46.9123C119.714 48.1399 118.842 48.917 117.477 49.076C116.561 49.182 115.636 49.288 114.72 49.3939C113.152 49.3851 111.611 49.2438 110.114 48.7492C109.259 48.4666 108.546 47.9897 108.009 47.2655C106.406 45.093 105.472 42.6467 105.226 39.9619C105.111 38.7166 105.693 37.9395 106.864 37.4626C108.608 36.7561 110.44 36.5794 112.289 36.5264C114.174 36.4823 116.067 36.5176 117.891 37.0122C118.736 37.2418 119.573 37.5862 120.339 38.0101C121.088 38.4252 121.132 39.273 121.237 40.0414C121.563 42.4259 121.255 44.7132 120.269 46.9123Z" fill="black"/>
<mask id="path-61-outside-1_1103_1429" maskUnits="userSpaceOnUse" x="75.9675" y="49.6" width="8.3869" height="10.916" fill="black">
<rect fill="white" x="75.9675" y="49.6" width="8.3869" height="10.916"/>
<path fill-rule="evenodd" clip-rule="evenodd" d="M78.9554 58.0027C78.9093 58.2848 79.1007 58.5508 79.3828 58.5968C79.6648 58.6428 79.9308 58.4515 79.9769 58.1694L80.2884 56.2602L81.7439 56.4984C82.026 56.5446 82.2921 56.3533 82.3382 56.0713C82.3844 55.7892 82.1932 55.5232 81.9111 55.477L80.4551 55.2387L81.0367 51.675C81.0827 51.3929 80.8914 51.1269 80.6093 51.0809C80.3272 51.0349 80.0612 51.2262 80.0152 51.5083L79.4337 55.0716L78.1931 54.8685C77.911 54.8224 77.6449 55.0136 77.5988 55.2957C77.5526 55.5777 77.7438 55.8438 78.0259 55.89L79.267 56.0931L78.9554 58.0027Z"/>
</mask>
<path fill-rule="evenodd" clip-rule="evenodd" d="M78.9554 58.0027C78.9093 58.2848 79.1007 58.5508 79.3828 58.5968C79.6648 58.6428 79.9308 58.4515 79.9769 58.1694L80.2884 56.2602L81.7439 56.4984C82.026 56.5446 82.2921 56.3533 82.3382 56.0713C82.3844 55.7892 82.1932 55.5232 81.9111 55.477L80.4551 55.2387L81.0367 51.675C81.0827 51.3929 80.8914 51.1269 80.6093 51.0809C80.3272 51.0349 80.0612 51.2262 80.0152 51.5083L79.4337 55.0716L78.1931 54.8685C77.911 54.8224 77.6449 55.0136 77.5988 55.2957C77.5526 55.5777 77.7438 55.8438 78.0259 55.89L79.267 56.0931L78.9554 58.0027Z" fill="#D1D1D1"/>
<path d="M79.3828 58.5968L79.505 57.848L79.3828 58.5968ZM78.9554 58.0027L78.2066 57.8805L78.9554 58.0027ZM79.9769 58.1694L79.2281 58.0472L79.9769 58.1694ZM80.2884 56.2602L80.411 55.5115L79.6619 55.3889L79.5397 56.138L80.2884 56.2602ZM81.7439 56.4984L81.6214 57.2471L81.6214 57.2471L81.7439 56.4984ZM82.3382 56.0713L83.0869 56.1938L83.0869 56.1938L82.3382 56.0713ZM81.9111 55.477L81.7886 56.2257L81.7886 56.2257L81.9111 55.477ZM80.4551 55.2387L79.7064 55.1165L79.5842 55.865L80.3326 55.9874L80.4551 55.2387ZM81.0367 51.675L81.7855 51.7972L81.7855 51.7972L81.0367 51.675ZM80.6093 51.0809L80.4871 51.8296L80.6093 51.0809ZM80.0152 51.5083L80.764 51.6305L80.764 51.6305L80.0152 51.5083ZM79.4337 55.0716L79.3112 55.8203L80.0602 55.9429L80.1825 55.1938L79.4337 55.0716ZM78.1931 54.8685L78.3156 54.1198L78.3156 54.1198L78.1931 54.8685ZM77.5988 55.2957L76.8501 55.1732L77.5988 55.2957ZM78.0259 55.89L77.9034 56.6387L77.9034 56.6387L78.0259 55.89ZM79.267 56.0931L80.0158 56.2153L80.1379 55.4668L79.3895 55.3444L79.267 56.0931ZM79.505 57.848C79.6364 57.8695 79.7256 57.9934 79.7041 58.1249L78.2066 57.8805C78.0931 58.5761 78.565 59.232 79.2606 59.3456L79.505 57.848ZM79.2281 58.0472C79.2496 57.9158 79.3735 57.8266 79.505 57.848L79.2606 59.3456C79.9562 59.4591 80.6121 58.9872 80.7256 58.2916L79.2281 58.0472ZM79.5397 56.138L79.2281 58.0472L80.7256 58.2916L81.0372 56.3824L79.5397 56.138ZM81.8665 55.7497L80.411 55.5115L80.1659 57.0089L81.6214 57.2471L81.8665 55.7497ZM81.5895 55.9488C81.611 55.8173 81.735 55.7282 81.8665 55.7497L81.6214 57.2471C82.317 57.3609 82.9731 56.8894 83.0869 56.1938L81.5895 55.9488ZM81.7886 56.2257C81.6571 56.2042 81.568 56.0802 81.5895 55.9488L83.0869 56.1938C83.2008 55.4983 82.7292 54.8421 82.0336 54.7283L81.7886 56.2257ZM80.3326 55.9874L81.7886 56.2257L82.0336 54.7283L80.5777 54.49L80.3326 55.9874ZM80.2879 51.5528L79.7064 55.1165L81.2039 55.3609L81.7855 51.7972L80.2879 51.5528ZM80.4871 51.8296C80.3557 51.8082 80.2665 51.6842 80.2879 51.5528L81.7855 51.7972C81.899 51.1016 81.4271 50.4456 80.7315 50.3321L80.4871 51.8296ZM80.764 51.6305C80.7425 51.7619 80.6186 51.8511 80.4871 51.8296L80.7315 50.3321C80.0359 50.2186 79.38 50.6905 79.2665 51.3861L80.764 51.6305ZM80.1825 55.1938L80.764 51.6305L79.2665 51.3861L78.685 54.9494L80.1825 55.1938ZM78.0705 55.6172L79.3112 55.8203L79.5562 54.3229L78.3156 54.1198L78.0705 55.6172ZM78.3475 55.4182C78.326 55.5496 78.202 55.6388 78.0705 55.6172L78.3156 54.1198C77.62 54.006 76.9639 54.4776 76.8501 55.1732L78.3475 55.4182ZM78.1484 55.1413C78.2799 55.1628 78.369 55.2868 78.3475 55.4182L76.8501 55.1732C76.7362 55.8687 77.2078 56.5248 77.9034 56.6387L78.1484 55.1413ZM79.3895 55.3444L78.1484 55.1413L77.9034 56.6387L79.1445 56.8418L79.3895 55.3444ZM79.7041 58.1249L80.0158 56.2153L78.5183 55.9709L78.2066 57.8805L79.7041 58.1249Z" fill="black" mask="url(#path-61-outside-1_1103_1429)"/>
<path d="M81.7107 47.756C81.7107 47.756 78.679 49.5852 79.7189 50.8852C81.312 52.8766 83.1336 49.4626 83.1336 49.4626" stroke="black" stroke-width="0.974563" stroke-linecap="round"/>
<path d="M107.916 56.9044C104.783 56.9044 100.747 59.294 96.7285 57.889C92.4704 56.4003 96.7286 62.9909 102.594 62.9909C110.74 62.9909 111.283 56.9044 107.916 56.9044Z" fill="white" stroke="black" stroke-width="1.08688"/>
<path d="M262.639 24.0189L265.356 62.3243C265.356 62.3243 266.604 73.4998 240.599 73.4998C215.616 73.4998 216.896 63.019 216.896 63.019L219.534 30.6957L219.944 23.6858C220.091 21.155 221.377 19.1714 223.127 18.4793C224.328 18.4792 225.874 18.4793 226.759 18.4794L227.025 18.4794H256.455C260.215 18.4794 262.386 20.892 262.639 24.0189Z" fill="#D7AA7B" stroke="black" stroke-width="1.41591" stroke-miterlimit="10"/>
<path d="M260.587 39.2029C260.587 33.2088 255.502 28.3491 249.229 28.3491C246.3 28.3462 243.483 29.433 241.366 31.3824C239.25 29.433 236.433 28.3462 233.503 28.3491C227.231 28.3491 222.146 33.2088 222.146 39.2029C222.146 42.8388 224.023 46.0477 226.895 48.0175C226.063 49.991 225.637 52.1009 225.641 54.2305C225.641 62.9911 226.58 69.0602 241.261 69.0602C256.281 69.0602 257.092 62.9911 257.092 54.2305C257.092 52.0249 256.644 49.9256 255.838 48.0175C258.71 46.0477 260.587 42.8372 260.587 39.2029Z" fill="#F2D0A9"/>
<path d="M216.288 18.4736H224.006C223.752 28.6304 219.702 28.0185 219.702 28.0185C219.702 26.8783 219.571 26.7071 218.646 25.9829L216.609 24.7433C216.444 24.6457 216.453 24.4129 216.621 24.3238L219.571 22.7658L220.022 22.5416C220.504 22.2556 220.427 21.9286 220.144 21.6907C220.14 21.6889 220.138 21.6855 220.135 21.6838C218.925 20.6908 216.119 18.8965 216.119 18.8965C215.949 18.7459 216.059 18.4736 216.288 18.4736Z" fill="#D7AA7A"/>
<path d="M226.035 18.4736H221.162H216.288C216.059 18.4736 215.949 18.7459 216.119 18.8965C216.119 18.8965 218.925 20.6908 220.135 21.6838C220.138 21.6855 220.14 21.6889 220.144 21.6907C220.427 21.9286 220.504 22.2556 220.022 22.5416L219.571 22.7658L216.621 24.3238C216.453 24.4129 216.444 24.6457 216.609 24.7433L218.646 25.9829C219.571 26.7071 219.702 26.8783 219.702 28.0185" stroke="black" stroke-width="1.41565" stroke-miterlimit="10"/>
<path d="M247.313 59.5303C243.806 59.5303 239.289 62.205 234.791 60.6323C230.025 58.966 234.791 66.3429 241.356 66.3429C250.474 66.3429 251.081 59.5303 247.313 59.5303Z" fill="white" stroke="black" stroke-width="1.21654"/>
<path d="M244.748 40.3091C245.019 41.5233 245.731 42.5833 246.284 43.6976C246.684 44.5035 247.004 45.348 247.44 46.1342C247.859 46.8886 248.381 47.5818 248.937 48.2415C250.91 50.5834 253.521 52.6167 256.566 52.9373C257.345 53.0194 258.134 52.987 258.914 52.9171C259.569 52.8588 260.229 52.7727 260.842 52.5376C262.147 52.0373 263.127 50.8976 263.727 49.6354C264.328 48.3732 264.595 46.9822 264.849 45.6074C265.111 44.1869 265.364 42.7225 265.066 41.3096C264.953 40.7718 264.761 40.2525 264.528 39.7545C264.163 38.9741 263.692 38.237 263.08 37.631C261.607 36.1724 259.474 35.6086 257.418 35.34C255.176 35.0472 252.896 35.0373 250.651 35.31C247.967 35.6364 243.965 36.7946 244.748 40.3091Z" fill="#263238"/>
<path d="M225.03 35.917C222.994 35.917 220.073 36.6292 219.687 37.6251C218.789 38.3543 217.612 37.6251 217.147 43.0776C217.612 45.3769 217.147 44.3915 217.804 46.2309C217.612 46.5593 218.408 47.4126 217.804 47.479C218.332 48.613 218.669 49.5453 219.196 50.6793C219.334 50.9739 219.474 51.2731 219.687 51.5186C220.111 52.0091 220.764 52.2228 221.383 52.4157C222.302 52.7017 223.233 52.9899 224.194 53.0217C225.026 53.0488 225.851 52.8831 226.66 52.6878C227.504 52.4839 228.345 52.2465 229.132 51.8773C230.825 51.0836 232.185 49.7232 233.403 48.3034C234.598 46.9095 235.704 45.4145 236.438 43.7312C237.172 42.0478 237.515 40.1543 237.152 38.3543C237.074 37.9696 236.959 37.5785 236.709 37.2764C236.415 36.9205 235.972 36.7293 235.546 36.5508C234.429 36.0835 233.299 35.6266 232.123 35.325C231.37 35.1321 229.302 34.5625 228.672 35.1506C229.493 35.7588 224.863 34.8599 225.03 35.917Z" fill="#263238"/>
<path d="M265.111 40.4871C264.8 39.2364 264.12 38.0309 263.114 37.2112C261.164 35.6226 258.04 35.1374 255.622 34.8433C254.184 34.6683 252.721 34.6302 251.28 34.7723C251.295 34.7515 251.307 34.729 251.312 34.7024C251.015 34.4713 250.606 34.4621 250.23 34.4765C249.133 34.5187 248.044 34.6781 246.954 34.8081C242.883 35.2922 238.559 35.023 234.474 34.685C233.429 34.5984 232.672 34.4806 231.695 34.8583C230.021 34.6203 228.308 34.6388 226.629 34.8433C224.21 35.1374 221.086 35.6232 219.136 37.2112C218.13 38.0309 217.45 39.2364 217.14 40.4871C216.674 42.3628 216.923 44.3372 217.273 46.2377C217.5 47.4681 217.77 48.6991 218.255 49.8521C218.788 51.1178 219.635 52.3222 220.873 52.9161C221.4 53.1691 221.977 53.3014 222.556 53.3886C225.508 53.8328 228.621 53.094 231.058 51.3702C232.665 50.234 233.966 48.7043 235.019 47.0412C236.092 45.347 236.923 43.8943 237.482 41.9684C237.645 41.7639 237.814 41.5646 237.994 41.3734C238.607 40.7218 239.341 40.4248 240.187 40.1343C241.1 39.8206 242.123 39.8391 243.024 40.1857C243.574 40.3971 244.139 40.7403 244.554 41.1591C244.531 41.069 244.574 41.2509 244.554 41.1591C245.103 43.3767 246.012 45.1113 247.234 47.0412C248.287 48.7043 249.587 50.234 251.194 51.3702C253.632 53.094 256.744 53.8328 259.696 53.3886C260.275 53.3014 260.852 53.1691 261.38 52.9161C262.618 52.3222 263.463 51.1178 263.997 49.8521C264.483 48.6991 264.753 47.4681 264.979 46.2377C265.327 44.3372 265.576 42.3628 265.111 40.4871ZM234.238 46.5739C233.276 48.0545 232.089 49.416 230.622 50.4275C228.396 51.9618 225.554 52.6197 222.859 52.224C222.331 52.1466 221.804 52.0288 221.322 51.8035C220.192 51.2749 219.42 50.2028 218.933 49.0763C218.489 48.0498 218.243 46.954 218.036 45.8588C217.717 44.1668 217.489 42.409 217.915 40.7395C218.198 39.6258 218.819 38.5525 219.738 37.8223C221.518 36.4082 224.37 35.9761 226.579 35.7144C229.153 35.4094 231.814 35.57 234.247 36.4937C235.272 36.8831 236.32 37.4798 236.723 38.478C237.043 39.2688 236.895 40.1607 236.685 40.9862C236.184 42.9606 235.354 44.8554 234.238 46.5739ZM244.511 38.3418C244.382 38.6682 244.323 39.0096 244.311 39.3574C243.024 39.0047 242.661 38.7785 241.426 38.8455C239.614 38.9438 238.826 39.3574 237.94 39.6572C237.956 39.2066 237.906 38.3676 237.74 37.9477C237.299 36.8264 236.151 36.1558 235.027 35.7185C234.882 35.6619 234.737 35.6087 234.59 35.5573C234.792 35.5712 234.993 35.5856 235.195 35.5978C236.486 35.6757 237.78 35.7202 239.073 35.7323C241.633 35.756 244.193 35.6515 246.742 35.4181C247.45 35.3534 248.156 35.2789 248.862 35.194C248.308 35.3361 247.761 35.5099 247.225 35.7185C246.101 36.1564 244.953 37.2206 244.511 38.3418ZM264.214 45.8582C264.007 46.9534 263.761 48.0498 263.317 49.0758C262.83 50.2028 262.058 51.2743 260.928 51.8029C260.446 52.0282 259.919 52.146 259.391 52.2234C256.696 52.6191 253.853 51.9612 251.628 50.4269C250.161 49.4154 248.974 48.0539 248.012 46.5733C246.896 44.8548 246.066 42.9606 245.565 40.9862C245.355 40.1613 245.207 39.2688 245.527 38.478C245.93 37.4798 246.978 36.8831 248.004 36.4937C250.436 35.57 253.097 35.4089 255.671 35.7144C257.88 35.9767 260.732 36.4088 262.513 37.8223C263.432 38.5519 264.052 39.6252 264.336 40.7389C264.761 42.4084 264.533 44.1662 264.214 45.8582Z" fill="#101011"/>
<path d="M244.554 41.1591C244.139 40.7403 243.574 40.3971 243.024 40.1857C242.123 39.8391 241.1 39.8206 240.187 40.1343C239.341 40.4248 238.607 40.7218 237.994 41.3734C237.814 41.5646 237.645 41.7639 237.482 41.9684C236.923 43.8943 236.092 45.347 235.019 47.0412C233.966 48.7043 232.665 50.234 231.058 51.3702C228.621 53.094 225.508 53.8328 222.556 53.3886C221.977 53.3014 221.4 53.1691 220.873 52.9161C219.635 52.3222 218.788 51.1178 218.255 49.8521C217.77 48.6991 217.5 47.4681 217.273 46.2377C216.923 44.3372 216.674 42.3628 217.14 40.4871C217.45 39.2364 218.13 38.0309 219.136 37.2112C221.086 35.6232 224.21 35.1374 226.629 34.8433C228.308 34.6388 230.021 34.6203 231.695 34.8583C232.672 34.4806 233.429 34.5984 234.474 34.685C238.559 35.023 242.883 35.2922 246.954 34.8081C248.044 34.6781 249.133 34.5187 250.23 34.4765C250.606 34.4621 251.015 34.4713 251.312 34.7024C251.307 34.729 251.295 34.7515 251.28 34.7723C252.721 34.6302 254.184 34.6683 255.622 34.8433C258.04 35.1374 261.164 35.6226 263.114 37.2112C264.12 38.0309 264.8 39.2364 265.111 40.4871C265.576 42.3628 265.327 44.3372 264.979 46.2377C264.753 47.4681 264.483 48.6991 263.997 49.8521C263.463 51.1178 262.618 52.3222 261.38 52.9161C260.852 53.1691 260.275 53.3014 259.696 53.3886C256.744 53.8328 253.632 53.094 251.194 51.3702C249.587 50.234 248.287 48.7043 247.234 47.0412C246.012 45.1113 245.103 43.3767 244.554 41.1591ZM244.554 41.1591C244.574 41.2509 244.531 41.069 244.554 41.1591ZM234.238 46.5739C233.276 48.0545 232.089 49.416 230.622 50.4275C228.396 51.9618 225.554 52.6197 222.859 52.224C222.331 52.1466 221.804 52.0288 221.322 51.8035C220.192 51.2749 219.42 50.2028 218.933 49.0763C218.489 48.0498 218.243 46.954 218.036 45.8588C217.717 44.1668 217.489 42.409 217.915 40.7395C218.198 39.6258 218.819 38.5525 219.738 37.8223C221.518 36.4082 224.37 35.9761 226.579 35.7144C229.153 35.4094 231.814 35.57 234.247 36.4937C235.272 36.8831 236.32 37.4798 236.723 38.478C237.043 39.2688 236.895 40.1607 236.685 40.9862C236.184 42.9606 235.354 44.8554 234.238 46.5739ZM244.511 38.3418C244.382 38.6682 244.323 39.0096 244.311 39.3574C243.024 39.0047 242.661 38.7785 241.426 38.8455C239.614 38.9438 238.826 39.3574 237.94 39.6572C237.956 39.2066 237.906 38.3676 237.74 37.9477C237.299 36.8264 236.151 36.1558 235.027 35.7185C234.882 35.6619 234.737 35.6087 234.59 35.5573C234.792 35.5712 234.993 35.5856 235.195 35.5978C236.486 35.6757 237.78 35.7202 239.073 35.7323C241.633 35.756 244.193 35.6515 246.742 35.4181C247.45 35.3534 248.156 35.2789 248.862 35.194C248.308 35.3361 247.761 35.5099 247.225 35.7185C246.101 36.1564 244.953 37.2206 244.511 38.3418ZM264.214 45.8582C264.007 46.9534 263.761 48.0498 263.317 49.0758C262.83 50.2028 262.058 51.2743 260.928 51.8029C260.446 52.0282 259.919 52.146 259.391 52.2234C256.696 52.6191 253.853 51.9612 251.628 50.4269C250.161 49.4154 248.974 48.0539 248.012 46.5733C246.896 44.8548 246.066 42.9606 245.565 40.9862C245.355 40.1613 245.207 39.2688 245.527 38.478C245.93 37.4798 246.978 36.8831 248.004 36.4937C250.436 35.57 253.097 35.4089 255.671 35.7144C257.88 35.9767 260.732 36.4088 262.513 37.8223C263.432 38.5519 264.052 39.6252 264.336 40.7389C264.761 42.4084 264.533 44.1662 264.214 45.8582Z" stroke="black" stroke-width="0.399025"/>
<path d="M48.7201 23.1669L51.3884 60.7474C51.3884 60.7474 52.6134 71.7113 27.0814 71.7113C2.55254 71.7113 3.80894 61.4289 3.80894 61.4289L6.39946 29.7173L6.80125 22.8401C7.0111 19.2481 7.01107 17.7322 10.8785 17.6912C12.4255 17.6749 12.604 17.6911 13.7345 17.6911L42.649 17.7322C46.2213 17.7322 48.4715 20.0991 48.7201 23.1669Z" fill="#FFCC5A" stroke="black" stroke-width="1.41589" stroke-miterlimit="10"/>
<path d="M3.21183 17.686H10.7889C10.5398 27.6581 6.56285 27.0574 6.56285 27.0574C6.56285 25.9379 6.43436 25.7698 5.52629 25.0587L3.52609 23.8417C3.36462 23.7459 3.3733 23.5173 3.53825 23.4299L6.43436 21.9002L6.87711 21.68C7.35112 21.3993 7.27472 21.0782 6.99692 20.8446C6.99344 20.8429 6.99171 20.8395 6.98823 20.8378C5.80062 19.8629 3.04514 18.1012 3.04514 18.1012C2.87846 17.9533 2.98611 17.686 3.21183 17.686Z" fill="#FFCC5A"/>
<path d="M12.7815 17.686H3.21182C2.98611 17.686 2.87846 17.9533 3.04514 18.1012C3.04514 18.1012 5.80062 19.8629 6.98823 20.8378C6.99171 20.8395 6.99344 20.8429 6.99692 20.8446C7.27472 21.0782 7.35112 21.3993 6.87711 21.68L6.43436 21.9002L3.53825 23.4299C3.3733 23.5173 3.36462 23.7459 3.52609 23.8417L5.52629 25.0587C6.43436 25.7698 6.56285 25.9379 6.56285 27.0574" stroke="black" stroke-width="1.61578" stroke-miterlimit="10"/>
<path d="M9.65847 35.4934L6.24219 38.2885V40.1519L6.86333 45.4316L8.62323 49.1585L12.2466 50.0902H18.458L22.3919 48.0197L24.8764 42.8435L25.4976 37.6674L23.9447 35.4934L18.9756 34.5616H13.5924L9.65847 35.4934Z" fill="#263238" stroke="black" stroke-width="0.230592"/>
<path d="M45.9936 35.5972L49.4099 38.3924V40.2558L48.7888 45.5355L47.0289 49.2624L43.4055 50.1941H37.1941L33.2602 48.1236L30.7757 42.9474L30.1545 37.7712L31.7074 35.5972L36.6765 34.6655H42.0597L45.9936 35.5972Z" fill="#263238" stroke="black" stroke-width="0.230592"/>
<path d="M50.0546 34.9308C48.3415 34.6105 46.6187 34.2902 44.8862 34.0767C40.8502 33.572 36.8142 33.475 32.7975 34.3096C29.5842 34.9793 26.3612 34.9987 23.1285 34.3776C20.8637 33.9311 18.5795 33.6302 16.2663 33.6302C14.5435 33.7564 12.811 33.8049 11.0979 34.0282C9.08472 34.2902 7.09091 34.6881 5.08742 35.0278C4.70028 35.0958 4.47767 35.2899 4.45831 35.7072C4.40024 37.163 4.31313 38.6188 4.27441 40.0843C4.27441 40.3366 4.41959 40.7054 4.62285 40.8219C5.00999 41.0645 5.06807 41.4042 5.17453 41.773C5.77461 43.7529 6.3263 45.7619 7.03284 47.703C7.67163 49.4694 9.12344 50.4302 10.8946 50.7214C13.7208 51.1775 16.5567 51.1193 19.3441 50.372C20.9798 49.9352 22.3058 49.1006 23.2059 47.5865C24.1351 46.024 24.9094 44.3935 25.4417 42.6659C25.8482 41.3654 26.1967 40.0455 26.5741 38.7353C26.7387 38.1529 27.2032 38.0753 27.7065 38.0656C28.2389 38.0656 28.7712 38.0753 28.9744 38.7158C29.1583 39.2982 29.3422 39.8902 29.4874 40.4822C30.0972 42.8794 30.9199 45.1796 32.1781 47.3245C33.1556 49.0035 34.5687 49.9643 36.4077 50.4302C38.8273 51.0416 41.2761 51.0707 43.7344 50.8669C46.0864 50.6728 47.906 49.6247 48.7093 47.3051C49.3674 45.4028 49.8804 43.4423 50.4611 41.5207C50.5192 41.3169 50.6741 41.1422 50.7805 40.9481C50.9547 40.6278 51.2645 40.3075 51.2741 39.9872C51.2935 38.7158 51.2548 37.4444 51.1774 36.1828C51.1096 35.154 51.0709 35.1152 50.0546 34.9308ZM24.8416 39.6184C24.6577 41.3557 24.1544 43.0056 23.4285 44.5876C23.0898 45.3155 22.6833 46.0143 22.2768 46.713C21.4541 48.1203 20.2152 48.9259 18.6279 49.2947C16.0147 49.8867 13.4111 49.8188 10.8075 49.2753C9.82998 49.0714 9.10408 48.5085 8.62983 47.6253C7.0522 44.6846 6.74248 41.5692 7.43935 38.3373C7.60388 37.59 8.17493 37.1921 8.80404 36.8718C10.2171 36.1536 11.756 35.9207 13.3046 35.7557C14.2628 35.6587 15.221 35.6393 16.1792 35.581C16.1695 35.6198 16.1889 35.5422 16.1792 35.581C17.4219 35.581 19.8474 35.9304 21.6573 36.2216C22.2284 36.3186 22.7994 36.571 23.3318 36.8233C24.5997 37.4347 24.9868 38.2112 24.8416 39.6184ZM47.2478 47.0139C46.6381 48.363 45.6799 49.217 44.1797 49.3917C43.1731 49.5082 42.1568 49.6247 41.1502 49.7411C39.4274 49.7314 37.7337 49.5761 36.0883 49.0326C35.1494 48.7221 34.3655 48.198 33.7751 47.4021C32.0135 45.0146 30.9876 42.3262 30.7166 39.3758C30.5908 38.0074 31.2296 37.1533 32.5168 36.6292C34.4332 35.8528 36.4464 35.6587 38.4789 35.6004C40.5502 35.5519 42.6311 35.5907 44.6346 36.1342C45.5637 36.3866 46.4832 36.7651 47.3252 37.2309C48.1479 37.6871 48.1963 38.6188 48.3125 39.4632C48.6706 42.0836 48.3318 44.5973 47.2478 47.0139Z" fill="black"/>
<path d="M24.6221 58.1346C25.8926 57.4231 31.0254 56.5185 31.0254 58.592C31.0254 61.1838 27.5188 61.0313 27.5188 61.0313C27.5188 61.0313 31.4964 60.0675 30.7205 62.8608C29.9582 65.6051 27.8237 64.5379 27.2139 64.233" stroke="black" stroke-width="1.42398"/>
<path d="M47.5497 63.6567C46.8574 62.0335 44.2501 62.0668 41.7253 63.724C41.6994 63.7411 41.6736 63.7628 41.6457 63.7792C41.6362 63.7482 41.6311 63.7148 41.6218 63.685C40.8203 60.7739 38.8829 59.0273 37.2923 59.7899C35.7052 60.5464 35.0652 63.5231 35.867 66.4349C36.4924 68.7129 37.5876 70.5587 38.8927 71.0835C40.0972 71.5677 42.2609 70.888 44.2341 69.5891C46.7576 67.9309 48.2434 65.273 47.5497 63.6567Z" fill="#D13852" stroke="black" stroke-width="1.38932"/>
<path d="M52.7647 17.6851C46.6941 9.49724 34.6683 5.07117 27.4759 5.07117C20.1566 5.07117 8.25903 9.17664 2.42811 18.1016C-2.43084 25.539 6.66759 24.5665 6.66759 24.5665L27.4759 21.3488L48.3079 24.5665C49.8223 24.5665 58.3672 25.2415 52.7647 17.6851Z" fill="white" stroke="black" stroke-width="1.41589"/>
<path d="M7.9707 23.0529C7.9707 23.0529 14.1543 13.0214 27.907 13.0214C41.6598 13.0214 46.9614 23.0529 46.9614 23.0529H7.9707Z" fill="white"/>
<path d="M6.07037 26.1021C6.19523 27.7934 15.7855 29.1089 28.4846 29.1089C41.1837 29.1089 49.1112 27.3236 49.1345 26.1021C49.2833 18.2885 28.6998 22.1556 28.6998 22.1556C28.6998 22.1556 5.43535 17.5005 6.07037 26.1021Z" fill="#454C53" stroke="black" stroke-width="1.54685"/>
<path d="M27.5805 19.5891C13.7712 19.5891 5.22467 22.3352 5.22461 24.0027C5.22457 25.1122 6.0576 26.1341 6.0576 26.1341C6.0576 26.1341 18.8254 23.4145 27.5805 23.4145C36.3355 23.4145 49.1894 26.1579 49.1894 26.1579C49.1894 26.1579 50.5633 25.1794 50.5633 24.0027C50.5633 22.826 42.5393 19.5891 27.5805 19.5891Z" fill="#FFBE0B" stroke="black" stroke-width="1.41589"/>
<path d="M27.514 9.42432C26.7657 9.42432 24.4855 11.4714 23.0516 11.4714C21.6176 11.4714 23.8479 16.4174 27.514 17.1846C31.1802 16.4174 33.4599 11.4714 31.9765 11.4714C30.4931 11.4714 28.2624 9.42432 27.514 9.42432Z" fill="#FFBE0B" stroke="black" stroke-width="1.41589"/>
<path d="M196.675 24.0238L199.377 62.0822C199.377 62.0822 200.618 73.1855 174.761 73.1855C149.92 73.1855 151.193 62.7723 151.193 62.7723L153.816 30.6575L154.223 23.6929C154.435 20.0553 154.435 18.52 158.352 18.4786C159.919 18.462 160.1 18.4785 161.244 18.4784L190.526 18.52C194.144 18.52 196.423 20.9171 196.675 24.0238Z" fill="#FFCC5A" stroke="black" stroke-width="1.40129" stroke-miterlimit="10"/>
<path d="M150.589 18.4733H158.262C158.01 28.5721 153.982 27.9638 153.982 27.9638C153.982 26.83 153.852 26.6598 152.933 25.9397L150.907 24.7072C150.743 24.6102 150.752 24.3787 150.919 24.2901L153.852 22.741L154.301 22.518C154.781 22.2337 154.703 21.9086 154.422 21.6719C154.418 21.6702 154.417 21.6668 154.413 21.6651C153.21 20.6778 150.42 18.8937 150.42 18.8937C150.251 18.7439 150.36 18.4733 150.589 18.4733Z" fill="#FFCC5A"/>
<path d="M160.28 18.4733H150.589C150.36 18.4733 150.251 18.7439 150.42 18.8937C150.42 18.8937 153.21 20.6778 154.413 21.6651C154.417 21.6668 154.418 21.6702 154.422 21.6719C154.703 21.9086 154.781 22.2337 154.301 22.518L153.852 22.741L150.919 24.2901C150.752 24.3787 150.743 24.6102 150.907 24.7072L152.933 25.9397C153.852 26.6598 153.982 26.83 153.982 27.9638" stroke="black" stroke-width="1.40156" stroke-miterlimit="10"/>
<path d="M153.331 37.9682L154.476 43.1918V46.6742L157.148 49.7834L161.729 51.4003L167.582 50.7784L172.035 47.296L173.308 43.938L176.871 44.4355L180.179 48.291L182.851 50.7784L186.668 51.4003H190.612L193.539 49.7834L195.957 46.6742L196.593 42.0725L197.865 37.9682L194.557 36.1027H187.813L181.96 37.9682L178.779 40.7044L176.871 43.1918H173.69L172.035 39.9582L167.582 37.9682L161.729 36.1027H155.24L153.331 37.9682Z" fill="white" stroke="black" stroke-width="0.189854"/>
<path d="M199.241 35.9046C199.197 35.0464 194.548 35.0116 193.69 35.0116C187.196 35.0116 181.261 36.1235 176.925 40.8222C176.129 41.6853 174.553 41.6853 173.757 40.8222C166.359 32.8053 151.495 35.0265 151.441 36.0986C151.212 40.658 152.887 51.9832 162.399 52.2021C172.014 52.4235 172.263 44.5981 175.022 44.5981C175.144 44.5981 175.541 44.5981 175.663 44.5981C178.421 44.5981 178.673 52.4235 188.285 52.2021C196.803 52.0031 199.561 42.2873 199.241 35.9046ZM162.758 51.1997C156.47 51.1997 154.564 45.0185 154.564 38.9218C154.564 36.8946 154.979 36.9841 159.913 36.9841C165.094 36.9841 172.105 38.3746 172.105 43.3469C172.108 48.2745 167.754 51.1997 162.758 51.1997ZM187.919 51.1997C182.923 51.1997 178.569 48.2745 178.569 43.3469C178.569 37.3 188.858 36.4817 195.008 37.1234C195.332 37.1583 195.764 37.2951 195.894 37.6358C196.4 38.9392 196.652 51.1997 187.919 51.1997Z" fill="black" stroke="black" stroke-width="0.379709"/>
<path d="M181.435 59.2958C177.949 59.2958 173.457 61.9552 168.985 60.3916C164.246 58.7347 168.985 66.0696 175.512 66.0696C184.578 66.0696 185.183 59.2958 181.435 59.2958Z" fill="white" stroke="black" stroke-width="1.2096"/>
<path d="M167.423 7.41804C165.595 6.52869 164.112 2.73531 163.07 2.74654C162.027 2.75777 161.377 6.85861 159.887 8.72539C162.602 8.95774 165.083 8.47651 167.423 7.41804Z" fill="#DAA640" stroke="black" stroke-width="1.38129"/>
<path d="M189.408 9.60063C187.612 8.16102 187.027 3.51824 186.023 3.52905C185.02 3.53986 183.453 7.06099 181.848 8.60004C184.444 9.49354 186.857 10.2913 189.408 9.60063Z" fill="#D9A640" stroke="black" stroke-width="1.38129"/>
<path d="M153.683 6.02849L153.683 6.02765C153.638 5.78876 153.617 5.57338 153.598 5.32808C154.254 5.64802 154.885 5.92863 155.506 6.20511C156.036 6.44095 156.56 6.67379 157.087 6.92545L157.087 6.92562C159.334 7.99767 161.658 8.39405 164.199 7.95043L164.201 7.95019C166.977 7.46086 169.683 6.66084 172.05 4.82273C172.93 4.14014 173.669 3.34218 174.347 2.54032C174.411 2.63636 174.49 2.75346 174.581 2.8688C177.207 6.24681 180.682 7.99449 184.823 8.60856C187.209 8.96406 189.539 8.87848 191.823 7.83502L191.824 7.83433C192.841 7.36746 193.84 6.85708 194.822 6.35564C195.065 6.23184 195.306 6.10859 195.546 5.98667C195.699 5.91017 195.851 5.8317 196.005 5.75136C195.993 5.81734 195.981 5.88316 195.968 5.94884C195.705 7.34963 195.454 8.68301 195.142 10.0143L195.142 10.0165C194.866 11.2064 194.559 12.3891 194.248 13.5847C194.223 13.6818 194.198 13.7789 194.172 13.8762C193.837 15.1665 193.501 16.4719 193.209 17.7912C193.112 18.2259 192.979 18.4219 192.857 18.5323C192.728 18.6487 192.508 18.7614 192.064 18.838L192.062 18.8383C188.818 19.4041 185.548 19.8321 182.264 20.1963L182.264 20.1963C177.354 20.7427 172.433 20.7518 167.517 20.32C164.005 20.0104 160.547 19.1996 157.057 18.3133C156.986 18.2952 156.95 18.2779 156.936 18.2698C156.929 18.2658 156.926 18.2633 156.925 18.2627L156.923 18.2611C156.92 18.2575 156.885 18.2158 156.836 18.0366L156.836 18.0347C156.533 16.9332 156.219 15.8451 155.906 14.7632C155.065 11.8525 154.237 8.9871 153.683 6.02849Z" fill="#030101" stroke="black" stroke-width="1.72443"/>
<path d="M157.465 19.1418C160.9 20.0292 164.358 20.8563 167.885 21.1731C172.769 21.6102 177.663 21.6024 182.551 21.0502C185.795 20.6855 189.023 20.256 192.236 19.6868C193.271 19.5057 193.811 19.0652 194.045 17.9785C194.612 15.3742 195.351 12.8131 195.942 10.2135C196.388 8.25513 197.762 4.25938 197.13 4.15005C196.916 4.01121 195.996 4.70721 195.131 5.22082C193.965 5.91417 192.727 6.48083 191.5 7.05365C189.447 8.0101 187.34 8.09774 185.095 7.75716C181.202 7.16953 178.067 5.18709 175.64 2.0105C175.356 1.63882 175.209 1.15782 174.618 1.25467C174.037 1.34987 172.872 3.4125 171.783 4.11032C169.615 5.81748 167.222 6.62056 164.549 7.09902C162.239 7.50862 160.132 7.15158 158.067 6.14454C156.418 5.34289 153.3 2.93713 153.054 3.62587C152.887 3.79919 153.349 5.34138 153.523 6.18348C154.303 9.95883 155.555 14.2459 156.645 18.2563C156.763 18.7147 156.943 19.0075 157.465 19.1418Z" fill="#EEDB49" stroke="black" stroke-width="1.38129"/>
<path d="M174.829 16.9859C176.383 16.733 177.518 15.2929 177.488 13.6068C177.463 12.8256 177.321 12.0626 176.889 11.3871C176.304 10.4714 175.394 10.1383 174.346 10.4419C172.932 10.845 172.107 11.9782 172.17 13.4223C172.209 14.3438 172.445 15.2239 172.872 16.0457C173.317 16.9178 173.842 17.1427 174.829 16.9859Z" fill="#F04F48" stroke="black" stroke-width="0.986639"/>
<path d="M186.438 16.6397C187.555 16.3749 188.005 15.7704 187.963 14.501C187.948 14.3718 187.939 14.1779 187.903 13.9902C187.573 12.2535 186.054 11.7584 184.4 12.8521C184.27 12.9417 184.146 13.0429 184.03 13.1441C183.057 13.9659 182.907 14.7906 183.553 15.7066C184.178 16.5876 185.218 16.9233 186.438 16.6397Z" fill="#EF4E47" stroke="black" stroke-width="0.986639"/>
<path d="M165.432 16.4847C166.169 16.2123 166.541 15.4536 166.517 14.4024C166.485 13.2481 165.844 12.2035 165.056 12.0121C164.353 11.839 163.371 12.5721 162.917 13.5897C162.565 14.3933 162.76 15.4427 163.382 16.0488C163.965 16.6101 164.661 16.7639 165.432 16.4847Z" fill="#EE4E47" stroke="black" stroke-width="0.986639"/>
<path d="M332.557 24.5485L335.244 61.9915C335.247 62.0352 335.25 62.072 335.253 62.1156C335.305 62.9755 335.38 72.9999 310.729 72.9999C287.078 72.9999 287.191 63.6237 287.247 62.7955C287.25 62.7521 287.254 62.7155 287.258 62.6723L289.865 31.0863L290.271 24.2223C290.407 21.9073 291.691 20.1499 293.266 19.3491C293.599 19.1797 293.975 19.1246 294.348 19.1224C295.497 19.1157 296.511 19.0938 297.284 19.1242H326.432C329.639 19.1242 332.306 21.4866 332.557 24.5485Z" fill="#B1B1B1" stroke="black" stroke-width="1.33955" stroke-miterlimit="10"/>
<path d="M295.944 19.8308C295.184 20.4399 294.87 27.3894 294.822 31.7556C294.814 32.4911 294.559 33.2012 293.999 33.6771C292.599 34.8647 290.22 36.4916 290.122 36.9803C289.923 37.9787 289.221 45.9945 289.222 46.5935C289.222 46.9448 293.221 52.6193 293.221 53.3853C293.221 54.1512 293.133 65.2948 293.221 65.9651C293.309 66.6353 297.189 71.3826 298.902 71.7557C301.294 72.2767 315.347 73.5529 324.118 71.3564C325.054 71.1221 328.863 66.6353 329.301 65.9651C329.739 65.2948 329.201 53.2667 329.5 52.6677C329.906 51.856 333.288 47.462 333.288 46.696C333.288 45.93 332.989 38.609 332.69 37.3111C332.442 36.2347 328.135 33.4174 328.135 32.9111C328.135 32.3174 328.185 20.0131 327.275 19.8308C326.278 19.6311 320.136 19.6528 319.172 19.6528C318.208 19.6528 316.994 25.7913 316.145 26.1131C315.049 26.5284 308.626 26.1131 307.224 26.1131C305.821 26.1131 304.861 19.9968 303.867 19.8308C302.671 19.6311 296.442 19.4314 295.944 19.8308Z" fill="#E0E0E0"/>
<path d="M318.437 72.6983C319.266 72.5406 325.929 65.8448 326.311 65.1991C326.666 64.6003 326.265 57.1877 326.693 55.672C326.743 55.4961 326.866 55.3581 326.979 55.2143L333.877 46.4155M303.288 72.4022C301.793 72.0428 296.088 65.8448 296.012 65.1991C295.955 64.7211 295.928 59.5985 295.837 56.9691C295.803 55.9889 295.357 54.9829 294.747 54.215L288.736 46.6485" stroke="#B1B1B1" stroke-width="1.14818"/>
<path d="M332.557 24.5485L335.243 61.9916C335.247 62.0352 335.25 62.072 335.253 62.1157C335.304 62.9755 335.379 73 310.728 73C287.077 73 287.191 63.6238 287.247 62.7955C287.25 62.7522 287.254 62.7156 287.257 62.6723L289.865 31.0864L290.27 24.2224C290.447 21.2337 292.463 18.9406 294.684 19.1242C295.704 19.1243 296.604 19.1241 297.284 19.1243H326.432C329.976 19.2965 332.306 21.4867 332.557 24.5485Z" stroke="black" stroke-width="1.346" stroke-miterlimit="10"/>
<path d="M286.651 19H292.129C293.438 19 294.698 19.7897 294.845 21.0903C295.258 24.7503 292.457 26.9527 290.948 27.8609C290.368 28.21 289.34 28.4172 289.276 27.7434C289.235 27.3229 289.555 26.7938 288.985 26.353L286.968 25.1392C286.805 25.0437 286.814 24.8157 286.98 24.7285L289.902 23.2029L290.348 22.9833C290.824 22.7048 290.75 22.3865 290.473 22.1538C290.471 22.1513 290.467 22.1492 290.465 22.1466C290.462 22.1442 290.459 22.1423 290.456 22.1401C289.456 21.3294 287.364 19.9773 286.694 19.5487C286.553 19.4583 286.369 19.35 286.407 19.1866C286.431 19.0856 286.522 19 286.651 19Z" fill="#B1B1B1"/>
<path d="M296.304 19.1187H293.891H291.478H286.651C286.522 19.1187 286.431 19.2043 286.407 19.3053C286.369 19.4687 286.553 19.5769 286.694 19.6673C287.364 20.0959 289.456 21.448 290.456 22.2587C290.459 22.261 290.462 22.2628 290.465 22.2653V22.2653C290.467 22.2679 290.471 22.27 290.473 22.2724C290.75 22.5051 290.824 22.8234 290.348 23.1019L289.902 23.3216L286.98 24.8472C286.814 24.9343 286.805 25.1623 286.968 25.2579L288.985 26.4717C289.902 27.1808 290.031 27.3485 290.031 28.465" stroke="black" stroke-width="1.346" stroke-miterlimit="10"/>
<path d="M289.371 38.6763V41.5874H288.534C287.925 41.5874 287.438 41.0992 287.438 40.5096V38.9178C287.438 38.3282 287.925 37.8399 288.534 37.8399C288.996 37.8399 289.371 38.2144 289.371 38.6763Z" fill="#3A3A3A" stroke="black" stroke-width="0.873963"/>
<path d="M334.085 37.8429C334.694 37.8429 335.181 38.3311 335.181 38.9207V40.5125C335.181 41.1021 334.694 41.5904 334.085 41.5904C333.623 41.5904 333.248 41.2159 333.248 40.754V38.6792C333.248 38.2173 333.623 37.8429 334.085 37.8429Z" fill="#3A3A3A" stroke="black" stroke-width="0.873963"/>
<path d="M311.113 35.7144C309.511 35.7144 296.648 35.9361 290.418 35.7144C287.747 35.7144 288.814 40.1015 289.082 41.7007C289.75 45.6915 290.935 46.6145 293.088 47.687C295.758 49.0173 302.434 49.6824 304.437 47.687C305.93 46.1996 308.031 40.8944 308.442 40.3704C309.855 38.5701 312.449 39.139 313.116 39.7052C314.682 41.0355 315.786 43.6961 317.121 46.3567C318.456 49.0173 321.127 49.0173 327.135 48.3521C333.475 47.6502 333.811 41.7007 333.811 39.0401V39.0393C333.811 36.8459 333.811 35.7144 332.476 35.7144C326.022 35.9361 312.715 35.7144 311.113 35.7144Z" fill="#D9D9D9"/>
<path d="M311.113 35.7144C309.511 35.7144 296.648 35.9361 290.418 35.7144C287.747 35.7144 288.814 40.1015 289.082 41.7007C289.75 45.6915 290.935 46.6145 293.088 47.687C295.758 49.0173 302.434 49.6824 304.437 47.687C305.93 46.1996 308.031 40.8944 308.442 40.3704C309.855 38.5701 312.449 39.139 313.116 39.7052C314.682 41.0355 315.786 43.6961 317.121 46.3567C318.456 49.0173 321.127 49.0173 327.135 48.3521C333.475 47.6502 333.811 41.7007 333.811 39.0401V39.0393C333.811 36.8459 333.811 35.7144 332.476 35.7144C326.022 35.9361 312.715 35.7144 311.113 35.7144Z" fill="url(#paint1_linear_1103_1429)"/>
<path d="M311.113 35.7144C309.511 35.7144 296.648 35.9361 290.418 35.7144C287.747 35.7144 288.814 40.1015 289.082 41.7007C289.75 45.6915 290.935 46.6145 293.088 47.687C295.758 49.0173 302.434 49.6824 304.437 47.687C305.93 46.1996 308.031 40.8944 308.442 40.3704C309.855 38.5701 312.449 39.139 313.116 39.7052C314.682 41.0355 315.786 43.6961 317.121 46.3567C318.456 49.0173 321.127 49.0173 327.135 48.3521C333.475 47.6502 333.811 41.7007 333.811 39.0401V39.0393C333.811 36.8459 333.811 35.7144 332.476 35.7144C326.022 35.9361 312.715 35.7144 311.113 35.7144Z" stroke="black" stroke-width="0.985981"/>
<line x1="311.007" y1="35.7144" x2="311.007" y2="39.1199" stroke="black" stroke-width="0.394392"/>
<path d="M288.926 53.161C289.329 53.1561 289.66 52.8303 289.665 52.4331C289.67 52.036 289.347 51.718 288.943 51.7228L288.926 53.161ZM288.943 51.7228C288.834 51.7242 288.704 51.751 288.666 51.7582C288.591 51.7723 288.513 51.7877 288.417 51.8035C288.229 51.8345 287.99 51.8643 287.717 51.8657C287.173 51.8684 286.492 51.7593 285.807 51.3144L284.983 52.5206C285.956 53.1532 286.933 53.3077 287.689 53.3039C288.065 53.302 288.387 53.261 288.624 53.2218C288.741 53.2024 288.842 53.1828 288.907 53.1705C289.009 53.1513 288.98 53.1603 288.926 53.161L288.943 51.7228ZM285.807 51.3144C285.262 50.9598 285.115 50.3444 285.339 49.8473C285.548 49.3835 286.205 48.7999 287.726 48.8757L287.835 47.4393C285.907 47.3433 284.542 48.101 284.007 49.2908C283.486 50.4473 283.871 51.7977 284.983 52.5206L285.807 51.3144Z" fill="#E48F0B"/>
<path d="M317.377 59.3215C313.904 59.3215 309.43 61.9406 304.975 60.4007C300.254 58.769 304.975 65.9924 311.477 65.9924C320.507 65.9924 321.109 59.3215 317.377 59.3215Z" fill="white" stroke="black" stroke-width="1.15669"/>
<defs>
<linearGradient id="paint0_linear_1103_1429" x1="440.514" y1="43.9025" x2="480.451" y2="44.0788" gradientUnits="userSpaceOnUse">
<stop stop-color="#FE3061"/>
<stop offset="1" stop-color="#FC7DFF"/>
</linearGradient>
<linearGradient id="paint1_linear_1103_1429" x1="287.532" y1="41.0765" x2="332.547" y2="41.5761" gradientUnits="userSpaceOnUse">
<stop stop-color="#2400FF"/>
<stop offset="0.135793" stop-color="#009688"/>
<stop offset="0.241535" stop-color="#EDDA48"/>
<stop offset="0.385726" stop-color="#E84D1F"/>
<stop offset="0.515625" stop-color="#E50E0E"/>
<stop offset="0.639765" stop-color="#E7491D"/>
<stop offset="0.816741" stop-color="#EDDA48"/>
<stop offset="0.906204" stop-color="#009688"/>
<stop offset="1" stop-color="#1932D8"/>
</linearGradient>
<clipPath id="clip0_1103_1429">
<rect width="54.1931" height="38.3485" fill="white" transform="translate(500.806 11.2695)"/>
</clipPath>
</defs>
</svg>
