<svg width="1400" height="938" viewBox="0 0 1400 938" fill="none" xmlns="http://www.w3.org/2000/svg">
<path d="M0 32.7051C0 15.1171 14.9237 1.27349 32.4538 2.6998C140.463 11.4878 494.601 38.7014 736 38.5104C973.452 38.3224 1321.61 11.4447 1428.56 2.70871C1446.09 1.27653 1461 15.1231 1461 32.7145V873.419C1461 889.071 1448.77 902.111 1433.17 903.327C875.378 946.792 565.38 952.132 27.4293 903.643C11.9902 902.252 0 889.282 0 873.781V32.7051Z" fill="#F6F5F2"/>
<path d="M306.885 142.134C298.297 195.466 312.922 240.866 344 277" stroke="black" stroke-dasharray="10 10"/>
<path d="M61.7519 143.108C32.6925 235.156 37.2006 450.396 150 600" stroke="black" stroke-dasharray="10 10"/>
<path d="M454.117 528.202C473.999 602 527.425 723.175 674 740" stroke="black" stroke-dasharray="10 10"/>
<path d="M188 146C138 376 418 718 904 404" stroke="black" stroke-dasharray="10 10"/>
</svg>
