<svg width="100" height="100" viewBox="0 0 100 100" fill="none" xmlns="http://www.w3.org/2000/svg">
<circle cx="50" cy="50" r="50" fill="#FFD4D4"/>
<path d="M62.144 27.544V74.056C62.144 74.584 61.952 75.04 61.568 75.424C61.184 75.808 60.728 76 60.2 76H46.088C45.56 76 45.104 75.808 44.72 75.424C44.336 75.04 44.144 74.584 44.144 74.056V44.968L36.08 51.16C35.696 51.448 35.264 51.592 34.784 51.592C34.352 51.592 33.872 51.256 33.344 50.584L27.008 42.376C26.816 42.04 26.72 41.728 26.72 41.44C26.72 40.576 27.032 39.952 27.656 39.568L45.008 26.104C45.488 25.768 46.016 25.6 46.592 25.6H60.2C60.728 25.6 61.184 25.792 61.568 26.176C61.952 26.56 62.144 27.016 62.144 27.544Z" fill="#FF5252"/>
</svg>
