<svg width="100" height="100" viewBox="0 0 100 100" fill="none" xmlns="http://www.w3.org/2000/svg">
<circle cx="50" cy="50" r="50" fill="#FFD4D4"/>
<path d="M70.88 60.7586C71.408 60.7586 71.864 60.9506 72.248 61.3346C72.632 61.7186 72.824 62.1746 72.824 62.7026V73.6466C72.824 74.1746 72.632 74.6306 72.248 75.0146C71.864 75.3986 71.408 75.5906 70.88 75.5906H28.544C28.016 75.5906 27.56 75.3986 27.176 75.0146C26.792 74.6306 26.6 74.1746 26.6 73.6466V66.1586C26.6 64.4306 27.2 63.1346 28.4 62.2706C38.576 54.9266 44.744 50.3186 46.904 48.4466C50.312 45.4706 52.016 43.0706 52.016 41.2466C52.016 39.7586 51.632 38.8706 50.864 38.5826C50.48 38.4386 50.048 38.3666 49.568 38.3666C49.136 38.3666 48.752 38.4146 48.416 38.5106C48.128 38.5586 47.864 38.6546 47.624 38.7986C47.384 38.8946 47.168 39.0386 46.976 39.2306C46.784 39.4226 46.616 39.5906 46.472 39.7346C46.376 39.8786 46.256 40.0946 46.112 40.3826C45.968 40.6706 45.872 40.8866 45.824 41.0306C45.584 41.6066 45.464 41.9426 45.464 42.0386C45.08 43.1426 44.12 43.6946 42.584 43.6946H29.048C28.616 43.6946 28.232 43.5506 27.896 43.2626C27.608 42.9266 27.464 42.5426 27.464 42.1106C27.464 36.7826 29.528 32.4626 33.656 29.1506C37.832 25.8386 43.136 24.1826 49.568 24.1826C56.048 24.1826 61.208 25.6226 65.048 28.5026C68.936 31.3346 70.88 35.2706 70.88 40.3106C70.88 44.1026 69.56 47.5346 66.92 50.6066C64.28 53.6786 60.248 57.0626 54.824 60.7586H70.88Z" fill="#FF5252"/>
</svg>
