<svg width="48" height="37" viewBox="0 0 48 37" fill="none" xmlns="http://www.w3.org/2000/svg">
<g clip-path="url(#clip0_44_132)">
<path d="M40.6339 3.22675C37.5745 1.85841 34.2938 0.85027 30.8637 0.272869C30.8012 0.261725 30.7388 0.289574 30.7066 0.345272C30.2847 1.07677 29.8173 2.03106 29.4901 2.78113C25.8007 2.24273 22.1302 2.24273 18.5165 2.78113C18.1892 2.01439 17.7048 1.07677 17.281 0.345272C17.2488 0.291432 17.1864 0.263584 17.124 0.272869C13.6957 0.848425 10.415 1.85656 7.35375 3.22675C7.32725 3.23789 7.30453 3.25647 7.28946 3.28059C1.06666 12.3427 -0.638023 21.1821 0.198238 29.912C0.202022 29.9547 0.226618 29.9955 0.260674 30.0215C4.3663 32.9605 8.34329 34.7447 12.2464 35.9274C12.3089 35.9459 12.3751 35.9237 12.4148 35.8735C13.3381 34.6445 14.1612 33.3486 14.8668 31.9858C14.9085 31.906 14.8687 31.8113 14.7836 31.7797C13.4781 31.297 12.2351 30.7084 11.0393 30.0401C10.9448 29.9862 10.9372 29.8544 11.0242 29.7912C11.2758 29.6074 11.5275 29.4162 11.7678 29.2231C11.8113 29.1879 11.8718 29.1804 11.9229 29.2027C19.7784 32.6987 28.283 32.6987 36.0458 29.2027C36.0969 29.1786 36.1575 29.186 36.2028 29.2213C36.4432 29.4144 36.6948 29.6074 36.9483 29.7912C37.0353 29.8544 37.0296 29.9862 36.9351 30.0401C35.7393 30.7214 34.4963 31.297 33.1889 31.7778C33.1038 31.8094 33.0659 31.906 33.1076 31.9858C33.8284 33.3467 34.6514 34.6426 35.5577 35.8717C35.5955 35.9237 35.6636 35.9459 35.7261 35.9274C39.6481 34.7447 43.6251 32.9605 47.7307 30.0215C47.7667 29.9955 47.7894 29.9565 47.7932 29.9138C48.794 19.8212 46.1169 11.0543 40.6963 3.28243C40.6831 3.25647 40.6604 3.23789 40.6339 3.22675ZM16.0399 24.5964C13.6749 24.5964 11.7261 22.4799 11.7261 19.8806C11.7261 17.2813 13.6371 15.1648 16.0399 15.1648C18.4616 15.1648 20.3915 17.2999 20.3536 19.8806C20.3536 22.4799 18.4427 24.5964 16.0399 24.5964ZM31.9894 24.5964C29.6244 24.5964 27.6757 22.4799 27.6757 19.8806C27.6757 17.2813 29.5865 15.1648 31.9894 15.1648C34.4111 15.1648 36.341 17.2999 36.3032 19.8806C36.3032 22.4799 34.4111 24.5964 31.9894 24.5964Z" fill="white"/>
</g>
<defs>
<clipPath id="clip0_44_132">
<rect width="48" height="36.2449" fill="white"/>
</clipPath>
</defs>
</svg>
