<svg width="52" height="40" viewBox="0 0 52 40" fill="none" xmlns="http://www.w3.org/2000/svg">
<path d="M38.8007 37.4348C38.6701 37.7604 38.471 38.0543 38.2169 38.2969C37.9628 38.5395 37.6594 38.7251 37.3272 38.8413C36.9951 38.9575 36.6418 39.0016 36.2911 38.9706C35.9404 38.9395 35.6004 38.8341 35.2941 38.6614L25.7925 31.3088L19.6961 36.9121C19.5546 37.0162 19.3891 37.0831 19.2148 37.1069C19.0406 37.1306 18.8631 37.1104 18.6987 37.048L19.8676 26.6324L19.9026 26.6638L19.9271 26.4582C19.9271 26.4582 37.0229 10.9584 37.7193 10.2998C38.4262 9.6412 38.1918 9.49833 38.1918 9.49833C38.2338 8.69686 36.9284 9.49833 36.9284 9.49833L14.2752 24.0084L4.8436 20.8095C4.8436 20.8095 3.39474 20.2938 3.25826 19.1543C3.11477 18.0253 4.88909 17.412 4.88909 17.412L42.3948 2.57432C42.3948 2.57432 45.478 1.20833 45.478 3.47336L38.8007 37.4348Z" fill="white"/>
</svg>
