<svg width="49" height="40" viewBox="0 0 49 40" fill="none" xmlns="http://www.w3.org/2000/svg">
<g clip-path="url(#clip0_44_148)">
<path d="M49 4.87036C47.197 5.66979 45.2595 6.21007 43.226 6.45314C45.3018 5.20912 46.8957 3.23916 47.6462 0.891988C45.6729 2.06287 43.5139 2.88783 41.2626 3.33122C39.4287 1.37773 36.8162 0.156868 33.9247 0.156868C28.3727 0.156868 23.8714 4.65754 23.8714 10.2085C23.8714 10.9965 23.9604 11.7636 24.1317 12.4995C15.7769 12.0801 8.36943 8.0784 3.41105 1.99687C2.54589 3.48146 2.05015 5.20835 2.05015 7.05027C2.05015 10.5377 3.82506 13.6143 6.52236 15.417C4.92593 15.367 3.36463 14.9358 1.9688 14.1595C1.96823 14.2017 1.96823 14.2438 1.96823 14.2861C1.96823 19.1563 5.43345 23.2191 10.0322 24.1425C8.55181 24.5451 6.99902 24.604 5.4924 24.3148C6.77157 28.3083 10.4843 31.2143 14.8832 31.2956C11.4426 33.9915 7.10787 35.5986 2.39813 35.5986C1.58657 35.5986 0.786488 35.5509 0 35.4581C4.44886 38.3102 9.73301 39.9743 15.4101 39.9743C33.9013 39.9743 44.0127 24.6573 44.0127 11.3743C44.0127 10.9383 44.0032 10.5048 43.9836 10.0738C45.9517 8.65119 47.6504 6.88915 49 4.87036Z" fill="white"/>
</g>
<defs>
<clipPath id="clip0_44_148">
<rect width="49" height="40" fill="white"/>
</clipPath>
</defs>
</svg>
