<svg width="42" height="48" viewBox="0 0 42 48" fill="none" xmlns="http://www.w3.org/2000/svg">
<circle cx="21" cy="27" r="20.5" fill="white" stroke="black"/>
<path d="M25.6953 13.4062V39H19.7715V20.0859L13.9355 21.791V17.291L25.1504 13.4062H25.6953Z" fill="#FEE05C"/>
<path d="M25.6953 13.4062H26.6953V12.4062H25.6953V13.4062ZM25.6953 39V40H26.6953V39H25.6953ZM19.7715 39H18.7715V40H19.7715V39ZM19.7715 20.0859H20.7715V18.752L19.491 19.1261L19.7715 20.0859ZM13.9355 21.791H12.9355V23.125L14.216 22.7509L13.9355 21.791ZM13.9355 17.291L13.6082 16.3461L12.9355 16.5791V17.291H13.9355ZM25.1504 13.4062V12.4062H24.9821L24.8231 12.4613L25.1504 13.4062ZM24.6953 13.4062V39H26.6953V13.4062H24.6953ZM25.6953 38H19.7715V40H25.6953V38ZM20.7715 39V20.0859H18.7715V39H20.7715ZM19.491 19.1261L13.6551 20.8311L14.216 22.7509L20.0519 21.0458L19.491 19.1261ZM14.9355 21.791V17.291H12.9355V21.791H14.9355ZM14.2629 18.2359L25.4777 14.3512L24.8231 12.4613L13.6082 16.3461L14.2629 18.2359ZM25.1504 14.4062H25.6953V12.4062H25.1504V14.4062Z" fill="black"/>
</svg>
