<svg width="42" height="48" viewBox="0 0 42 48" fill="none" xmlns="http://www.w3.org/2000/svg">
<circle cx="21" cy="27" r="20.5" fill="white" stroke="black"/>
<path d="M29.4414 34.4297V39H11.582V35.1328L19.8086 26.4844C20.5352 25.6523 21.1211 24.9082 21.5664 24.252C22.0117 23.584 22.334 22.9805 22.5332 22.4414C22.7441 21.9023 22.8496 21.416 22.8496 20.9824C22.8496 20.2441 22.7383 19.6289 22.5156 19.1367C22.3047 18.6328 21.9883 18.252 21.5664 17.9941C21.1562 17.7363 20.6465 17.6074 20.0371 17.6074C19.4277 17.6074 18.8945 17.7832 18.4375 18.1348C17.9805 18.4863 17.623 18.9668 17.3652 19.5762C17.1191 20.1855 16.9961 20.8711 16.9961 21.6328H11.0547C11.0547 20.0625 11.4355 18.627 12.1973 17.3262C12.9707 16.0254 14.043 14.9883 15.4141 14.2148C16.7852 13.4297 18.373 13.0371 20.1777 13.0371C22.0645 13.0371 23.6465 13.3301 24.9238 13.916C26.2012 14.502 27.1621 15.3516 27.8066 16.4648C28.4629 17.5664 28.791 18.8965 28.791 20.4551C28.791 21.3457 28.6504 22.2012 28.3691 23.0215C28.0879 23.8418 27.6836 24.6562 27.1562 25.4648C26.6289 26.2617 25.9844 27.082 25.2227 27.9258C24.4727 28.7695 23.6172 29.666 22.6562 30.6152L19.3516 34.4297H29.4414Z" fill="#FEE05C"/>
<path d="M29.4414 34.4297H30.4414V33.4297H29.4414V34.4297ZM29.4414 39V40H30.4414V39H29.4414ZM11.582 39H10.582V40H11.582V39ZM11.582 35.1328L10.8575 34.4436L10.582 34.7332V35.1328H11.582ZM19.8086 26.4844L20.5332 27.1736L20.5478 27.1582L20.5618 27.1421L19.8086 26.4844ZM21.5664 24.252L22.3939 24.8135L22.3985 24.8067L21.5664 24.252ZM22.5332 22.4414L21.602 22.077L21.5985 22.0858L21.5952 22.0948L22.5332 22.4414ZM22.5156 19.1367L21.5932 19.5229L21.5987 19.536L21.6045 19.5489L22.5156 19.1367ZM21.5664 17.9941L21.0342 18.8408L21.045 18.8474L21.5664 17.9941ZM17.3652 19.5762L16.4443 19.1865L16.4411 19.1941L16.438 19.2017L17.3652 19.5762ZM16.9961 21.6328V22.6328H17.9961V21.6328H16.9961ZM11.0547 21.6328H10.0547V22.6328H11.0547V21.6328ZM12.1973 17.3262L11.3377 16.8151L11.3343 16.8209L12.1973 17.3262ZM15.4141 14.2148L15.9054 15.0858L15.911 15.0826L15.4141 14.2148ZM27.8066 16.4648L26.9411 16.9659L26.9475 16.9766L27.8066 16.4648ZM27.1562 25.4648L27.9902 26.0167L27.9939 26.0111L27.1562 25.4648ZM25.2227 27.9258L24.4804 27.2557L24.4752 27.2614L25.2227 27.9258ZM22.6562 30.6152L21.9535 29.9038L21.9259 29.9311L21.9004 29.9604L22.6562 30.6152ZM19.3516 34.4297L18.5958 33.7749L17.1621 35.4297H19.3516V34.4297ZM28.4414 34.4297V39H30.4414V34.4297H28.4414ZM29.4414 38H11.582V40H29.4414V38ZM12.582 39V35.1328H10.582V39H12.582ZM12.3066 35.822L20.5332 27.1736L19.084 25.7952L10.8575 34.4436L12.3066 35.822ZM20.5618 27.1421C21.3056 26.2904 21.9189 25.5134 22.3939 24.8135L20.7389 23.6905C20.3233 24.303 19.7647 25.0143 19.0554 25.8266L20.5618 27.1421ZM22.3985 24.8067C22.8714 24.0972 23.2366 23.4228 23.4712 22.7881L21.5952 22.0948C21.4314 22.5381 21.152 23.0707 20.7344 23.6973L22.3985 24.8067ZM23.4644 22.8058C23.7065 22.1873 23.8496 21.5748 23.8496 20.9824H21.8496C21.8496 21.2572 21.7818 21.6174 21.602 22.077L23.4644 22.8058ZM23.8496 20.9824C23.8496 20.1511 23.7253 19.3845 23.4267 18.7246L21.6045 19.5489C21.7513 19.8733 21.8496 20.3372 21.8496 20.9824H23.8496ZM23.4381 18.7506C23.1549 18.074 22.708 17.5198 22.0879 17.1409L21.045 18.8474C21.2686 18.9841 21.4545 19.1916 21.5932 19.5229L23.4381 18.7506ZM22.0986 17.1475C21.4926 16.7666 20.7865 16.6074 20.0371 16.6074V18.6074C20.5064 18.6074 20.8199 18.7061 21.0342 18.8408L22.0986 17.1475ZM20.0371 16.6074C19.2206 16.6074 18.47 16.8482 17.8278 17.3421L19.0472 18.9274C19.3191 18.7183 19.6349 18.6074 20.0371 18.6074V16.6074ZM17.8278 17.3421C17.2149 17.8136 16.7593 18.442 16.4443 19.1865L18.2862 19.9658C18.4868 19.4916 18.746 19.1591 19.0472 18.9274L17.8278 17.3421ZM16.438 19.2017C16.1368 19.9474 15.9961 20.7629 15.9961 21.6328H17.9961C17.9961 20.9793 18.1014 20.4237 18.2925 19.9506L16.438 19.2017ZM16.9961 20.6328H11.0547V22.6328H16.9961V20.6328ZM12.0547 21.6328C12.0547 20.2324 12.3921 18.9725 13.0602 17.8315L11.3343 16.8209C10.479 18.2815 10.0547 19.8926 10.0547 21.6328H12.0547ZM13.0568 17.8372C13.7374 16.6927 14.68 15.7771 15.9054 15.0858L14.9227 13.3439C13.406 14.1995 12.2041 15.3581 11.3377 16.8151L13.0568 17.8372ZM15.911 15.0826C17.1104 14.3958 18.5222 14.0371 20.1777 14.0371V12.0371C18.2239 12.0371 16.4599 12.4636 14.9171 13.3471L15.911 15.0826ZM20.1777 14.0371C21.9673 14.0371 23.3971 14.3159 24.5069 14.8249L25.3408 13.0071C23.8959 12.3443 22.1616 12.0371 20.1777 12.0371V14.0371ZM24.5069 14.8249C25.6144 15.333 26.41 16.0483 26.9412 16.9659L28.6721 15.9638C27.9142 14.6548 26.7879 13.6709 25.3408 13.0071L24.5069 14.8249ZM26.9475 16.9766C27.4935 17.8932 27.791 19.0378 27.791 20.4551H29.791C29.791 18.7551 29.4322 17.2397 28.6657 15.953L26.9475 16.9766ZM27.791 20.4551C27.791 21.2384 27.6677 21.9841 27.4232 22.6972L29.3151 23.3458C29.6331 22.4183 29.791 21.453 29.791 20.4551H27.791ZM27.4232 22.6972C27.1716 23.4311 26.8059 24.1715 26.3186 24.9186L27.9939 26.0111C28.5613 25.141 29.0042 24.2525 29.3151 23.3458L27.4232 22.6972ZM26.3223 24.913C25.8271 25.6613 25.2147 26.4423 24.4804 27.2557L25.9649 28.5959C26.754 27.7218 27.4307 26.8622 27.9902 26.0167L26.3223 24.913ZM24.4752 27.2614C23.7421 28.0862 22.9019 28.9669 21.9535 29.9038L23.359 31.3267C24.3325 30.3651 25.2032 29.4528 25.9701 28.5901L24.4752 27.2614ZM21.9004 29.9604L18.5958 33.7749L20.1074 35.0845L23.4121 31.27L21.9004 29.9604ZM19.3516 35.4297H29.4414V33.4297H19.3516V35.4297Z" fill="black"/>
</svg>
