<svg width="42" height="47" viewBox="0 0 42 47" fill="none" xmlns="http://www.w3.org/2000/svg">
<circle cx="21" cy="26" r="20.5" fill="white" stroke="black"/>
<path d="M17.9785 23.7246H20.8613C21.5996 23.7246 22.2031 23.5957 22.6719 23.3379C23.1523 23.0684 23.5098 22.6934 23.7441 22.2129C23.9785 21.7207 24.0957 21.1406 24.0957 20.4727C24.0957 19.957 23.9844 19.4824 23.7617 19.0488C23.5508 18.6152 23.2227 18.2695 22.7773 18.0117C22.332 17.7422 21.7637 17.6074 21.0723 17.6074C20.6035 17.6074 20.1465 17.707 19.7012 17.9062C19.2559 18.0938 18.8867 18.3633 18.5938 18.7148C18.3125 19.0664 18.1719 19.4941 18.1719 19.998H12.2305C12.2305 18.5449 12.6289 17.3027 13.4258 16.2715C14.2344 15.2285 15.2949 14.4316 16.6074 13.8809C17.9316 13.3184 19.3555 13.0371 20.8789 13.0371C22.6953 13.0371 24.2891 13.3184 25.6602 13.8809C27.0312 14.4316 28.0977 15.252 28.8594 16.3418C29.6328 17.4199 30.0195 18.7559 30.0195 20.3496C30.0195 21.2285 29.8145 22.0547 29.4043 22.8281C28.9941 23.6016 28.4199 24.2812 27.6816 24.8672C26.9434 25.4531 26.0762 25.916 25.0801 26.2559C24.0957 26.584 23.0176 26.748 21.8457 26.748H17.9785V23.7246ZM17.9785 28.1367V25.1836H21.8457C23.123 25.1836 24.2891 25.3301 25.3438 25.623C26.3984 25.9043 27.3066 26.3262 28.0684 26.8887C28.8301 27.4512 29.416 28.1484 29.8262 28.9805C30.2363 29.8008 30.4414 30.7441 30.4414 31.8105C30.4414 33.0059 30.2012 34.0723 29.7207 35.0098C29.2402 35.9473 28.5664 36.7383 27.6992 37.3828C26.832 38.0273 25.8184 38.5195 24.6582 38.8594C23.498 39.1875 22.2383 39.3516 20.8789 39.3516C19.8125 39.3516 18.7461 39.2109 17.6797 38.9297C16.6133 38.6367 15.6406 38.1914 14.7617 37.5938C13.8828 36.9844 13.1738 36.2109 12.6348 35.2734C12.1074 34.3242 11.8438 33.1934 11.8438 31.8809H17.7852C17.7852 32.4199 17.9316 32.9121 18.2246 33.3574C18.5293 33.791 18.9336 34.1367 19.4375 34.3945C19.9414 34.6523 20.4863 34.7812 21.0723 34.7812C21.7988 34.7812 22.4141 34.6465 22.918 34.377C23.4336 34.0957 23.8262 33.7207 24.0957 33.252C24.3652 32.7832 24.5 32.2617 24.5 31.6875C24.5 30.8203 24.3535 30.1289 24.0605 29.6133C23.7793 29.0977 23.3633 28.7227 22.8125 28.4883C22.2734 28.2539 21.623 28.1367 20.8613 28.1367H17.9785Z" fill="#FEE05C"/>
<path d="M17.9785 23.7246V22.7246H16.9785V23.7246H17.9785ZM22.6719 23.3379L23.1538 24.2141L23.1611 24.21L22.6719 23.3379ZM23.7441 22.2129L24.6429 22.6513L24.647 22.6428L23.7441 22.2129ZM23.7617 19.0488L22.8625 19.4863L22.8672 19.496L22.8722 19.5056L23.7617 19.0488ZM22.7773 18.0117L22.2595 18.8672L22.2679 18.8723L22.2763 18.8771L22.7773 18.0117ZM19.7012 17.9062L20.0892 18.8279L20.0994 18.8236L20.1095 18.8191L19.7012 17.9062ZM18.5938 18.7148L17.8255 18.0747L17.8191 18.0823L17.8129 18.0901L18.5938 18.7148ZM18.1719 19.998V20.998H19.1719V19.998H18.1719ZM12.2305 19.998H11.2305V20.998H12.2305V19.998ZM13.4258 16.2715L12.6355 15.6588L12.6345 15.66L13.4258 16.2715ZM16.6074 13.8809L16.9944 14.803L16.9984 14.8013L16.6074 13.8809ZM25.6602 13.8809L25.2806 14.8061L25.2874 14.8088L25.6602 13.8809ZM28.8594 16.3418L28.0397 16.9147L28.0468 16.9247L28.8594 16.3418ZM25.0801 26.2559L25.3963 27.2046L25.403 27.2023L25.0801 26.2559ZM17.9785 26.748H16.9785V27.748H17.9785V26.748ZM17.9785 28.1367H16.9785V29.1367H17.9785V28.1367ZM17.9785 25.1836V24.1836H16.9785V25.1836H17.9785ZM25.3438 25.623L25.0761 26.5866L25.0861 26.5893L25.3438 25.623ZM29.8262 28.9805L28.9292 29.4226L28.9317 29.4277L29.8262 28.9805ZM27.6992 37.3828L27.1027 36.5802L27.6992 37.3828ZM24.6582 38.8594L24.9304 39.8217L24.9393 39.819L24.6582 38.8594ZM17.6797 38.9297L17.4148 39.894L17.4247 39.8966L17.6797 38.9297ZM14.7617 37.5938L14.1919 38.4156L14.1994 38.4207L14.7617 37.5938ZM12.6348 35.2734L11.7606 35.7591L11.7642 35.7655L11.7679 35.7719L12.6348 35.2734ZM11.8438 31.8809V30.8809H10.8438V31.8809H11.8438ZM17.7852 31.8809H18.7852V30.8809H17.7852V31.8809ZM18.2246 33.3574L17.3892 33.907L17.3976 33.9198L17.4064 33.9324L18.2246 33.3574ZM22.918 34.377L23.3896 35.2588L23.3968 35.2548L22.918 34.377ZM24.0605 29.6133L23.1827 30.0921L23.1868 30.0997L23.1911 30.1073L24.0605 29.6133ZM22.8125 28.4883L22.4138 29.4054L22.4209 29.4084L22.8125 28.4883ZM17.9785 24.7246H20.8613V22.7246H17.9785V24.7246ZM20.8613 24.7246C21.7072 24.7246 22.4919 24.5781 23.1538 24.2141L22.19 22.4617C21.9143 22.6133 21.492 22.7246 20.8613 22.7246V24.7246ZM23.1611 24.21C23.8133 23.8442 24.3165 23.3205 24.6429 22.6513L22.8454 21.7745C22.7031 22.0662 22.4914 22.2925 22.1826 22.4657L23.1611 24.21ZM24.647 22.6428C24.9581 21.9895 25.0957 21.2565 25.0957 20.4727H23.0957C23.0957 21.0247 22.9989 21.4519 22.8413 21.783L24.647 22.6428ZM25.0957 20.4727C25.0957 19.8076 24.9507 19.1751 24.6513 18.592L22.8722 19.5056C23.018 19.7897 23.0957 20.1065 23.0957 20.4727H25.0957ZM24.661 18.6114C24.3569 17.9864 23.8839 17.4969 23.2784 17.1463L22.2763 18.8771C22.5614 19.0422 22.7446 19.2441 22.8625 19.4863L24.661 18.6114ZM23.2951 17.1562C22.6504 16.766 21.888 16.6074 21.0723 16.6074V18.6074C21.6394 18.6074 22.0137 18.7184 22.2595 18.8672L23.2951 17.1562ZM21.0723 16.6074C20.457 16.6074 19.8612 16.7391 19.2928 16.9934L20.1095 18.8191C20.4317 18.6749 20.75 18.6074 21.0723 18.6074V16.6074ZM19.3131 16.9846C18.7289 17.2306 18.2266 17.5934 17.8255 18.0747L19.362 19.355C19.5468 19.1332 19.7829 18.9569 20.0892 18.8279L19.3131 16.9846ZM17.8129 18.0901C17.3729 18.6402 17.1719 19.2957 17.1719 19.998H19.1719C19.1719 19.6925 19.2521 19.4926 19.3746 19.3395L17.8129 18.0901ZM18.1719 18.998H12.2305V20.998H18.1719V18.998ZM13.2305 19.998C13.2305 18.7394 13.5711 17.719 14.2171 16.8829L12.6345 15.66C11.6868 16.8865 11.2305 18.3505 11.2305 19.998H13.2305ZM14.2161 16.8842C14.9109 15.988 15.8279 15.2925 16.9944 14.803L16.2205 12.9588C14.762 13.5708 13.5579 14.469 12.6355 15.6588L14.2161 16.8842ZM16.9984 14.8013C18.1918 14.2943 19.4818 14.0371 20.8789 14.0371V12.0371C19.2292 12.0371 17.6715 12.3424 16.2165 12.9605L16.9984 14.8013ZM20.8789 14.0371C22.5937 14.0371 24.0538 14.3027 25.2806 14.806L26.0397 12.9557C24.5243 12.334 22.797 12.0371 20.8789 12.0371V14.0371ZM25.2874 14.8088C26.499 15.2955 27.4015 16.0015 28.0397 16.9147L29.679 15.7689C28.7938 14.5024 27.5635 13.5678 26.0329 12.9529L25.2874 14.8088ZM28.0468 16.9247C28.6755 17.801 29.0195 18.922 29.0195 20.3496H31.0195C31.0195 18.5898 30.5901 17.0388 29.6719 15.7589L28.0468 16.9247ZM29.0195 20.3496C29.0195 21.0658 28.8542 21.7311 28.5208 22.3596L30.2878 23.2966C30.7748 22.3783 31.0195 21.3912 31.0195 20.3496H29.0195ZM28.5208 22.3596C28.1801 23.0021 27.6986 23.5771 27.06 24.0839L28.3033 25.6505C29.1412 24.9854 29.8081 24.201 30.2878 23.2966L28.5208 22.3596ZM27.06 24.0839C26.421 24.591 25.6576 25.0022 24.7572 25.3094L25.403 27.2023C26.4947 26.8298 27.4657 26.3153 28.3033 25.6505L27.06 24.0839ZM24.7639 25.3072C23.8937 25.5972 22.9238 25.748 21.8457 25.748V27.748C23.1113 27.748 24.2977 27.5707 25.3963 27.2045L24.7639 25.3072ZM21.8457 25.748H17.9785V27.748H21.8457V25.748ZM18.9785 26.748V23.7246H16.9785V26.748H18.9785ZM18.9785 28.1367V25.1836H16.9785V28.1367H18.9785ZM17.9785 26.1836H21.8457V24.1836H17.9785V26.1836ZM21.8457 26.1836C23.0473 26.1836 24.1217 26.3214 25.0761 26.5866L25.6114 24.6595C24.4565 24.3387 23.1988 24.1836 21.8457 24.1836V26.1836ZM25.0861 26.5893C26.0378 26.8431 26.8278 27.2157 27.4743 27.6931L28.6624 26.0842C27.7855 25.4367 26.7591 24.9655 25.6014 24.6568L25.0861 26.5893ZM27.4743 27.6931C28.1104 28.1628 28.5912 28.7369 28.9292 29.4226L30.7231 28.5383C30.2409 27.56 29.5498 26.7395 28.6624 26.0842L27.4743 27.6931ZM28.9317 29.4277C29.262 30.0882 29.4414 30.8741 29.4414 31.8105H31.4414C31.4414 30.6141 31.2107 29.5134 30.7206 28.5333L28.9317 29.4277ZM29.4414 31.8105C29.4414 32.8688 29.2297 33.7753 28.8308 34.5537L30.6106 35.4659C31.1727 34.3692 31.4414 33.1429 31.4414 31.8105H29.4414ZM28.8308 34.5537C28.4221 35.3511 27.8501 36.0247 27.1027 36.5802L28.2957 38.1854C29.2827 37.4518 30.0584 36.5434 30.6106 35.4659L28.8308 34.5537ZM27.1027 36.5802C26.3411 37.1462 25.4371 37.5892 24.3771 37.8997L24.9393 39.819C26.1997 39.4499 27.3229 38.9084 28.2957 38.1854L27.1027 36.5802ZM24.3861 37.8971C23.3249 38.1972 22.1578 38.3516 20.8789 38.3516V40.3516C22.3188 40.3516 23.6712 40.1778 24.9304 39.8216L24.3861 37.8971ZM20.8789 38.3516C19.9015 38.3516 18.9207 38.2228 17.9347 37.9627L17.4247 39.8966C18.5714 40.1991 19.7235 40.3516 20.8789 40.3516V38.3516ZM17.9446 37.9654C16.9799 37.7004 16.1084 37.3002 15.324 36.7668L14.1994 38.4207C15.1729 39.0826 16.2467 39.5731 17.4148 39.894L17.9446 37.9654ZM15.3315 36.772C14.5758 36.248 13.9677 35.5855 13.5017 34.775L11.7679 35.7719C12.3799 36.8364 13.1899 37.7208 14.1919 38.4155L15.3315 36.772ZM13.5089 34.7878C13.0797 34.0152 12.8438 33.0587 12.8438 31.8809H10.8438C10.8438 33.328 11.1351 34.6332 11.7606 35.7591L13.5089 34.7878ZM11.8438 32.8809H17.7852V30.8809H11.8438V32.8809ZM16.7852 31.8809C16.7852 32.6129 16.9876 33.2966 17.3892 33.907L19.06 32.8078C18.8757 32.5276 18.7852 32.2269 18.7852 31.8809H16.7852ZM17.4064 33.9324C17.8109 34.508 18.3435 34.9581 18.982 35.2848L19.893 33.5043C19.5237 33.3153 19.2477 33.074 19.0428 32.7825L17.4064 33.9324ZM18.982 35.2848C19.632 35.6173 20.3337 35.7812 21.0723 35.7812V33.7812C20.6389 33.7812 20.2508 33.6874 19.893 33.5043L18.982 35.2848ZM21.0723 35.7812C21.9198 35.7812 22.7065 35.6241 23.3896 35.2587L22.4463 33.4952C22.1216 33.6688 21.6779 33.7812 21.0723 33.7812V35.7812ZM23.3968 35.2548C24.0598 34.8932 24.5933 34.3927 24.9626 33.7504L23.2288 32.7535C23.059 33.0487 22.8074 33.2982 22.4391 33.4991L23.3968 35.2548ZM24.9626 33.7504C25.3248 33.1206 25.5 32.4254 25.5 31.6875H23.5C23.5 32.098 23.4057 32.4458 23.2288 32.7535L24.9626 33.7504ZM25.5 31.6875C25.5 30.7219 25.3391 29.8393 24.93 29.1193L23.1911 30.1073C23.3679 30.4185 23.5 30.9188 23.5 31.6875H25.5ZM24.9384 29.1344C24.5472 28.4171 23.9577 27.8888 23.2041 27.5681L22.4209 29.4084C22.7689 29.5565 23.0114 29.7782 23.1827 30.0921L24.9384 29.1344ZM23.2112 27.5712C22.515 27.2685 21.7214 27.1367 20.8613 27.1367V29.1367C21.5247 29.1367 22.0318 29.2393 22.4138 29.4054L23.2112 27.5712ZM20.8613 27.1367H17.9785V29.1367H20.8613V27.1367Z" fill="black"/>
</svg>
