<svg width="826" height="237" viewBox="0 0 826 237" fill="none" xmlns="http://www.w3.org/2000/svg">
<path d="M27.5 111.142C23.2555 132.025 16.8643 133.202 10.5 134.765L1.44038 144.188C-1.92751 148.877 15.0379 170.631 17.8457 176.643C25.146 192.275 20.3742 216.505 27.3937 222.758C34.8239 229.377 176.206 229.011 211.023 232.137C245.84 235.264 608.886 236.827 636.402 236.827C663.919 236.827 804.308 239.953 817.224 219.632C830.14 199.31 826.209 97.6994 821.716 30.481C818.874 -12.0458 784.654 2.34406 743.66 2.34406C702.666 2.34406 363.496 9.62609 345.526 8.06287L345.434 8.05487C326.557 6.41253 26.6228 -19.6819 25.2104 39.7738C23.7955 99.3284 29.5871 100.874 27.5 111.142Z" fill="#FFDB89"/>
<path d="M25.5129 174.24C27.0759 186.574 25.2896 203.539 30.6485 212.995C34.4444 219.984 40.2499 222.04 45.3855 223.273C52.3074 224.918 483.699 223.273 490.621 222.862C503.349 222.04 691.512 222.862 704.239 223.273C728.578 224.095 752.916 224.507 777.254 227.796C791.098 229.44 815.701 221.52 817.711 191.096C818.827 172.184 816.371 151.217 816.148 132.305C815.924 110.104 816.817 87.4922 816.594 65.2914C816.148 38.9793 799.137 13.3803 783.73 12.147C773.458 11.3247 762.964 14.2026 752.916 14.6137C739.742 15.0248 726.568 15.0248 713.394 15.0248C700.89 15.0248 512.727 15.0248 500.223 13.7915C490.175 12.5581 56.9003 15.8561 46.8524 18.734C39.9305 20.7896 32.2115 23.3565 28.1923 34.8681C25.5129 42.6795 26.8526 46.7907 27.2992 55.4244C27.9691 67.7582 27.5225 80.5031 27.2992 92.4258C27.0759 104.348 28.6389 117.463 22.8334 123.218C16.3581 128.563 7.20329 128.946 0.0580838 143.405C-0.165204 144.639 0.281372 146.694 0.951235 147.517C8.98959 154.917 19.9307 160.262 24.6197 175.473C25.7362 179.173 28.8622 175.884 27.7458 172.184C23.28 156.973 14.7951 153.684 7.20329 145.461C4.5 142.533 4.5 143.999 4.5 143.405C4.5 143.405 3.41699 140.911 12 135.893C20.583 130.876 24.1732 128.563 29.5321 124.041C30.2019 123.63 30.4252 121.985 30.4252 121.163C30.8718 106.362 31.0951 84.6144 30.8718 69.8138C30.8718 60.769 29.5321 48.8464 31.0951 40.6238C31.9567 36.195 38.2498 26.836 51.5 24.5899C120.661 12.8661 412.5 19.9584 496.873 19.9584C554 19.9584 743.149 17.0175 776.5 17.0175C785.432 15.7841 804.313 22.1231 809.449 38.5682C813.915 52.1354 812.575 71.0472 812.128 86.2589C811.235 117.504 813.245 148.75 813.691 179.996C814.361 226.453 785.97 224.095 769 222.862C751.36 221.629 728.131 217.928 710.268 217.517C693.521 217.106 501.339 216.695 484.593 218.34C478.117 219.162 46.9485 219.984 40.4732 217.106C36.2307 215.462 31.7649 211.762 29.5321 204.361C27.2992 196.961 27.9691 181.64 26.6293 173.418C26.8526 171.773 25.2896 172.184 25.5129 174.24Z" fill="#0E0E0E"/>
</svg>
