<svg width="826" height="154" viewBox="0 0 826 154" fill="none" xmlns="http://www.w3.org/2000/svg">
<path d="M24.7819 71.9995C20.5351 85.4995 12.2638 85.169 5.8961 86.1796L0.99921 93.9995C-2.37047 97.0312 14.604 111.094 17.4133 114.981C24.7174 125.086 19.9431 140.75 26.9663 144.793C34.4005 149.071 175.858 148.835 210.694 150.856C245.529 152.877 608.769 153.888 636.3 153.888C663.831 153.888 804.295 155.909 817.218 142.771C830.14 129.634 826.207 63.9465 821.712 20.4921C818.869 -7 784.63 2.30252 743.614 2.30252C702.599 2.30252 363.248 7.0101 345.268 5.99953L345.176 5.99436C326.289 4.93267 26.1951 -11.9365 24.7819 26.4995C23.3663 64.9995 26.87 65.3614 24.7819 71.9995Z" fill="#FFDB89"/>
<path d="M25.5177 113.565C27.081 121.434 25.2944 129.304 30.6543 135.338C34.4509 139.797 40.2575 141.109 45.3941 141.896C52.3173 142.945 483.791 141.896 490.714 141.634C503.444 141.109 691.643 141.634 704.372 141.896C728.715 142.421 753.058 142.683 777.401 144.781C791.248 145.831 815.855 143.732 817.865 124.32C818.982 112.253 816.525 98.8744 816.302 86.8074C816.078 72.6418 816.972 58.2139 816.748 44.0483C816.302 27.2594 799.288 13.8807 783.878 13.0938C773.605 12.5691 763.108 14.4054 753.058 14.6677C739.882 14.9301 726.705 14.9301 713.529 14.9301C701.022 14.9301 512.824 14.9301 500.317 14.1431C490.267 13.3561 56.9111 12.5052 46.8612 14.3415C39.938 15.6531 32.2176 17.291 28.1977 24.6361C25.5177 29.6203 26.8577 32.2436 27.3043 37.7524C27.9743 45.6222 27.5277 53.7543 27.3043 61.3618C27.081 68.9692 28.6443 72.9041 22.8378 76.5767C16.3612 79.9869 2.51472 85.2335 0.0580947 93.8902C-0.165235 94.6772 0.281425 95.9888 0.951415 96.5135C8.99129 101.235 19.9345 104.646 24.6244 114.352C25.741 116.713 28.8677 114.614 27.751 112.253C23.2844 102.547 14.7979 100.448 7.20465 95.2018C4.52469 92.8409 4.52469 95.4642 5.41801 92.8409C6.53466 90.48 11.6713 88.3814 13.9046 86.8074C19.0411 83.3972 24.1777 79.9869 29.5376 77.1013C30.2076 76.839 30.431 75.7897 30.431 75.2651C30.8776 65.8213 31.101 56.3776 30.8776 46.9338C30.8776 41.1627 29.5376 33.5552 31.101 28.3087C36.4609 10.7328 310.006 24.1537 496.967 18.078C530.243 21.2259 740.998 20.9636 774.498 18.078C783.431 17.291 804.465 16.504 809.602 26.9971C814.068 35.6538 812.728 47.7208 812.282 57.4269C811.388 77.3637 813.398 97.3004 813.845 117.237C814.515 146.88 780.528 140.584 763.555 139.797C745.912 139.01 728.269 138.486 710.402 138.223C693.652 137.961 501.434 137.699 484.684 138.748C478.208 139.273 46.9574 139.797 40.4808 137.961C36.2375 136.912 31.771 134.551 29.5376 129.829C27.3043 125.107 27.9743 118.287 26.6344 113.04C26.8577 111.991 25.2944 112.253 25.5177 113.565Z" fill="#0E0E0E"/>
</svg>
