<svg width="284" height="154" viewBox="0 0 284 154" fill="none" xmlns="http://www.w3.org/2000/svg">
<path d="M9.30017 71.5785C7.84417 85.1479 5.00832 84.8156 2.82513 85.8314L1.14621 93.6916C-0.00909793 96.7389 6.03205 104.246 6.99522 108.153C9.49947 118.31 10.3258 139.944 10.0491 144.746C9.30017 157.743 61.0973 148.809 73.0406 150.84C84.984 152.872 209.522 153.888 218.961 153.888C228.4 153.888 276.559 155.919 280.99 142.714C285.42 129.509 284.072 63.484 282.531 19.8062C281.556 -7.8272 269.817 1.52314 255.754 1.52314C241.692 1.52314 135.197 0.921896 128.997 1.52331C68.4963 7.392 9.78551 -12.8534 9.30017 25.8446C8.81484 64.5425 10.0161 64.9062 9.30017 71.5785Z" fill="#FFDB89"/>
<path d="M9.74001 108.607C10.275 117.15 9.66358 131.62 11.4979 138.169C12.7972 143.01 14.7843 145.867 16.5422 146.721C18.9115 147.86 167.842 148.942 170.211 148.657C174.568 148.088 238.875 149.664 243.231 149.948C251.562 150.518 258.722 146.142 267.053 148.42C271.792 149.559 280.213 147.281 280.901 126.209C281.283 113.111 280.442 98.5884 280.366 85.4897C280.289 70.113 280.595 54.4516 280.519 39.0749C280.366 20.8506 277.774 6.32787 272.5 5.47361C268.984 4.9041 262.162 6.89772 258.722 7.18247C254.213 7.46723 249.704 7.46723 245.194 7.46723C240.914 7.46723 176.78 6.32787 172.5 5.47361C169.061 4.61934 20.4836 4.8351 17.0443 6.82837C14.675 8.25214 12.0329 10.03 10.6572 18.0031C9.74001 23.4134 10.1986 26.261 10.3514 32.2408C10.5807 40.7834 10.4279 49.6108 10.3514 57.8686C10.275 66.1265 10.81 70.3978 8.82286 74.3843C6.60642 78.0861 0.840719 84.2931 0 93.69C0.000109271 95.4682 1.10353 95.4561 1.33282 96.0256C4.08426 101.151 7.82929 98.9256 9.43429 109.461C9.81644 112.024 10.8864 109.746 10.5043 107.183C8.97572 96.6476 5.59167 98.7055 3.0215 95.4682C0.555837 93.3709 1.51075 93.0972 2.51792 90.7263C4.02867 87.7626 5.00141 87.1982 5.7657 85.4897C7.52357 81.7879 9.28144 78.0861 11.1157 74.9538C11.345 74.6691 11.4214 73.5301 11.4214 72.9606C11.5743 62.7094 11.6507 52.4583 11.5743 42.2072C11.5743 35.9426 11.1157 27.6847 11.6507 21.9897C11.9454 18.925 12.5164 12.4397 17.0443 10.8843C40.7039 2.75667 121.757 7.46723 175 7.46723C194.335 7.46723 258.036 10.5995 269.5 7.46723C272.557 6.61296 276.315 9.17575 278.073 20.5659C279.602 29.9628 279.143 43.0614 278.99 53.5973C278.684 75.2386 279.372 96.8799 279.525 118.521C279.754 150.698 269.183 146.142 263.375 145.288C257.337 144.434 249.345 148.705 243.231 148.42C237.499 148.136 175.943 145.582 170.211 146.721C167.995 147.291 21.5 147.065 16.5422 144.644C15.09 143.505 11.88 137.315 11.1157 132.189C10.3514 127.064 10.5807 113.733 10.1222 108.038C10.1986 106.899 9.66358 107.183 9.74001 108.607Z" fill="#0E0E0E"/>
</svg>
