<svg width="1031" height="267" viewBox="0 0 1031 267" fill="none" xmlns="http://www.w3.org/2000/svg">
<path d="M31.2263 124.1C25.9271 147.627 15.606 147.051 7.66025 148.812L1.54981 162.439C-2.65495 167.723 18.5261 192.229 22.0316 199.003C31.1459 216.614 25.1884 243.911 33.9521 250.955C43.2287 258.412 219.743 258 263.211 261.522C306.679 265.044 759.937 266.805 794.29 266.805C828.644 266.805 1003.92 270.327 1020.04 247.433C1036.17 224.539 1031.26 110.067 1025.65 34.3394C1022.1 -13.5705 979.38 2.64078 928.2 2.64078C877.02 2.64078 453.571 10.8446 431.136 9.08349C408.701 7.32239 19.3058 -22.7458 22.0316 38.6024C24.7574 99.9507 33.8319 112.532 31.2263 124.1Z" fill="#FFDB89"/>
<path d="M31.8443 199.654C33.7952 214.261 31.5656 228.868 38.2544 240.066C42.9923 248.343 50.2385 250.778 56.6486 252.239C65.2884 254.186 603.737 252.239 612.377 251.752C628.263 250.778 863.122 251.752 879.008 252.239C909.386 253.212 939.764 253.699 970.143 257.594C987.422 259.542 1018.13 255.647 1020.64 219.617C1022.03 197.22 1018.97 172.388 1018.69 149.991C1018.41 123.699 1019.52 96.9197 1019.25 70.6274C1018.69 39.4663 997.455 14.6347 978.225 13.174C965.405 12.2003 952.306 15.6085 939.764 16.0954C923.321 16.5823 906.878 16.5823 890.434 16.5823C874.827 16.5823 639.968 16.5823 624.361 15.1216C611.82 13.6609 71.0211 12.0817 58.4795 15.4899C49.8398 17.9244 40.2053 20.9643 35.1887 34.5973C31.8443 43.8483 33.5165 48.7172 34.0739 58.942C34.91 73.5488 34.3526 88.6425 34.0739 102.762C33.7952 116.882 35.7461 124.186 28.4999 131.002C20.4176 137.332 3.1382 147.07 0.0724982 163.137C-0.206202 164.598 0.351198 167.032 1.1873 168.006C11.2205 176.77 24.8768 183.1 30.7295 201.115C32.123 205.497 36.0248 201.602 34.6313 197.22C29.0573 179.205 18.4667 175.309 8.99091 165.572C5.6465 161.19 5.6465 166.058 6.7613 161.19C8.15481 156.808 14.5649 152.912 17.3519 149.991C23.762 143.661 30.1721 137.332 36.8609 131.976C37.697 131.489 37.9757 129.542 37.9757 128.568C38.5331 111.04 38.8118 93.5114 38.5331 75.9833C38.5331 65.2716 36.8609 51.1517 38.8118 41.4138C38.8118 -5.06452 435.82 27.8498 484 20.7208C542.82 20.7208 923.623 20.7208 970.143 20.7208C981.291 19.2601 1003.92 19.5036 1010.33 38.9794C1015.9 55.0469 1014.23 77.444 1013.67 95.459C1012.56 132.463 1015.06 169.467 1015.62 206.471C1016.46 261.49 973.362 255.647 948 251.752C922.638 247.857 908.829 245.909 886.533 245.422C865.63 244.935 657 251.351 604.852 246.396C569 252.091 58.5995 248.343 50.5172 244.935C45.2219 242.988 39.6479 238.606 36.8609 229.841C34.0739 221.077 34.91 208.418 33.2378 198.68C33.5165 196.733 31.5656 197.22 31.8443 199.654Z" fill="#0E0E0E"/>
</svg>
