<svg width="283" height="69" viewBox="0 0 283 69" fill="none" xmlns="http://www.w3.org/2000/svg">
<path d="M8.30489 32.0709C6.84891 38.1507 4.01311 38.0018 1.82995 38.4569L0.151064 41.9787C-1.00422 43.344 4.81543 49.6773 5.77859 51.4277C8.28279 55.9789 6.64595 63.0331 9.05383 64.8536C11.6026 66.7806 60.1011 66.674 72.0443 67.5843C83.9874 68.4945 208.523 68.9496 217.962 68.9496C227.401 68.9496 275.559 69.8598 279.99 63.9434C284.42 58.0269 283.072 28.4442 281.531 8.87425C280.556 -3.50696 268.817 0.682472 254.755 0.682472C240.693 0.682472 124.347 2.80256 118.183 2.34744L118.151 2.34511C111.676 1.86696 8.78941 -5.73013 8.30489 11.5797C7.81956 28.9184 9.02081 29.0814 8.30489 32.0709Z" fill="#FFDB89"/>
<path d="M8.73302 51.4731C9.26803 55.1099 8.65659 58.7467 10.4909 61.5349C11.7903 63.5957 13.7775 64.2018 15.5354 64.5655C17.9047 65.0504 165.569 64.5655 167.939 64.4443C172.295 64.2018 236.703 64.4443 241.06 64.5655C249.391 64.808 257.722 64.9292 266.053 65.899C270.792 66.3839 279.213 65.4141 279.901 56.4434C280.283 50.8669 279.442 44.6844 279.366 39.108C279.289 32.5617 279.595 25.8943 279.519 19.3481C279.366 11.5896 273.543 5.40701 268.269 5.04333C264.753 4.80088 261.161 5.64946 257.722 5.77069C253.212 5.89192 248.703 5.89192 244.194 5.89192C239.913 5.89192 175.506 5.89192 171.225 5.52824C167.786 5.16456 19.4769 4.77136 16.0375 5.61994C13.6681 6.22608 11.0259 6.98296 9.65019 10.3773C8.73302 12.6806 9.1916 13.8929 9.34447 16.4386C9.57376 20.0754 9.4209 23.8334 9.34447 27.349C9.26803 30.8646 9.80305 32.683 7.81585 34.3801C5.59935 35.9561 0.860623 38.3806 0.019882 42.3811C-0.0565491 42.7448 0.096313 43.3509 0.325606 43.5933C3.07712 45.7754 6.82224 47.3514 8.42729 51.8367C8.80945 52.9278 9.87948 51.958 9.49733 50.8669C7.96871 46.3816 5.06433 45.4117 2.46567 42.9872C1.5485 41.8962 1.5485 43.1084 1.85423 41.8962C2.23638 40.8051 3.99429 39.8353 4.75861 39.108C6.51652 37.532 8.27443 35.9561 10.1088 34.6226C10.3381 34.5014 10.4145 34.0165 10.4145 33.774C10.5674 29.4099 10.6438 25.0457 10.5674 20.6815C10.5674 18.0146 10.1088 14.499 10.6438 12.0745C12.4781 3.95229 106.094 10.1544 170.079 7.34664C181.467 8.80135 253.595 8.68013 265.059 7.34664C268.116 6.98296 275.315 6.61928 277.073 11.4683C278.602 15.4688 278.143 21.0452 277.99 25.5306C277.684 34.7438 278.372 43.957 278.525 53.1702C278.754 66.8688 267.123 63.9594 261.314 63.5957C255.276 63.232 249.238 62.9896 243.124 62.8684C237.391 62.7471 171.608 62.6259 165.875 63.1108C163.659 63.3533 16.0704 63.5957 13.8539 62.7471C12.4017 62.2622 10.8731 61.1712 10.1088 58.9891C9.34447 56.807 9.57376 53.6551 9.11517 51.2306C9.1916 50.7457 8.65659 50.8669 8.73302 51.4731Z" fill="#0E0E0E"/>
</svg>
