<svg width="826" height="170" viewBox="0 0 826 170" fill="none" xmlns="http://www.w3.org/2000/svg">
<path d="M25.2104 79.0152C20.9659 93.9944 12.699 93.6277 6.33466 94.749L1.44038 103.426C-1.92751 106.79 15.0379 122.393 17.8457 126.706C25.146 137.919 20.3742 155.299 27.3937 159.784C34.8239 164.532 176.206 164.269 211.023 166.512C245.84 168.755 608.886 169.876 636.402 169.876C663.919 169.876 804.308 172.118 817.224 157.542C830.14 142.965 826.209 70.0798 821.716 21.8641C818.874 -8.64035 784.654 1.68145 743.66 1.68145C702.666 1.68145 363.496 6.90485 345.526 5.78355L345.434 5.77782C326.557 4.59977 26.6228 -14.1177 25.2104 28.5298C23.7955 71.2482 27.2974 71.6497 25.2104 79.0152Z" fill="#FFDB89"/>
<path d="M25.5129 124.992C27.0759 133.757 25.2896 142.521 30.6485 149.24C34.4444 154.206 40.2499 155.667 45.3855 156.543C52.3074 157.712 483.699 156.543 490.621 156.251C503.349 155.667 691.512 156.251 704.239 156.543C728.578 157.127 752.916 157.42 777.254 159.757C791.098 160.925 815.701 158.588 817.71 136.97C818.827 123.532 816.371 108.633 816.147 95.1946C815.924 79.4193 816.817 63.3518 816.594 47.5765C816.147 28.8798 799.136 13.9808 783.73 13.1044C773.458 12.5202 762.964 14.5651 752.916 14.8572C739.742 15.1494 726.568 15.1494 713.394 15.1494C700.89 15.1494 512.727 15.1494 500.223 14.273C490.175 13.3966 56.9003 12.449 46.8524 14.494C39.9305 15.9546 32.2115 17.7786 28.1923 25.9584C25.5129 31.509 26.8526 34.4303 27.2992 40.5652C27.9691 49.3293 27.5225 58.3855 27.2992 66.8574C27.0759 75.3294 28.6389 79.7114 22.8334 83.8013C16.3581 87.5991 2.51425 93.4418 0.0580838 103.082C-0.165204 103.959 0.281372 105.419 0.951235 106.004C8.98959 111.262 19.9307 115.06 24.6197 125.869C25.7362 128.498 28.8622 126.161 27.7458 123.532C23.28 112.723 14.7951 110.386 7.20329 104.543C4.52384 101.914 4.52384 104.835 5.41699 101.914C6.53343 99.2845 11.669 96.9474 13.9019 95.1946C19.0375 91.3969 24.1732 87.5991 29.5321 84.3856C30.2019 84.0935 30.4252 82.9249 30.4252 82.3406C30.8718 71.8238 31.0951 61.3069 30.8718 50.79C30.8718 44.363 29.5321 35.891 31.0951 30.0483C36.454 10.4752 309.947 25.4212 496.873 18.655C530.143 22.1606 740.858 21.8685 774.352 18.655C783.283 17.7786 804.313 16.9022 809.449 28.5876C813.915 38.2281 812.575 51.6664 812.128 62.4754C811.235 84.6777 813.245 106.88 813.691 129.082C814.361 162.094 780.38 155.082 763.41 154.206C745.771 153.33 728.131 152.745 710.268 152.453C693.521 152.161 501.339 151.869 484.592 153.038C478.117 153.622 46.9485 154.206 40.4732 152.161C36.2307 150.993 31.7649 148.363 29.5321 143.105C27.2992 137.846 27.9691 130.251 26.6293 124.408C26.8526 123.24 25.2896 123.532 25.5129 124.992Z" fill="#0E0E0E"/>
</svg>
