<svg width="284" height="196" viewBox="0 0 284 196" fill="none" xmlns="http://www.w3.org/2000/svg">
<path d="M9.30017 91.0999C7.84417 108.37 5.00832 107.947 2.82513 109.24L1.14621 119.244C-0.00909865 123.122 6.03205 132.677 6.99522 137.649C9.49947 150.577 7.6412 179.051 10.0491 184.222C12.598 189.696 61.0973 189.393 73.0406 191.979C84.984 194.564 209.522 195.857 218.961 195.857C228.4 195.857 276.559 198.442 280.99 181.636C285.42 164.83 284.072 80.7979 282.531 25.2079C281.556 -9.96189 269.817 1.93855 255.754 1.93855C241.692 1.93855 135.197 1.17332 128.997 1.93875C68.4963 9.408 9.78551 -16.3588 9.30017 32.8931C8.81484 82.145 10.0161 82.6079 9.30017 91.0999Z" fill="#FFDB89"/>
<path d="M9.70535 136.766C10.2384 147.753 9.62919 166.362 11.457 174.785C12.7516 181.01 14.7317 182.841 16.4833 183.94C18.8442 185.405 167.245 188.64 169.606 188.273C173.947 187.541 238.024 189.567 242.365 189.934C250.666 190.666 257.802 185.039 266.103 187.968C270.825 189.433 279.216 186.504 279.901 159.404C280.282 142.558 279.444 123.882 279.368 107.036C279.292 87.2606 279.597 67.119 279.52 47.3437C279.368 23.9062 273.566 5.22953 268.311 4.1309C264.808 3.39848 261.229 5.96195 257.802 6.32816C253.308 6.69437 248.815 6.69437 244.322 6.69437C240.057 6.69437 175.88 6.69437 171.615 5.59574C168.188 4.49711 20.4107 3.3093 16.9836 5.87277C14.6228 7.70382 11.9901 9.99026 10.6192 20.2441C9.70535 27.2021 10.1623 30.8642 10.3146 38.5546C10.5431 49.541 10.3908 60.8935 10.3146 71.5136C10.2384 82.1337 10.7715 93.6268 8.79146 98.7538C6.58291 103.514 4 106.5 0 117.582C0.000108882 119.869 1.09961 119.853 1.32808 120.586C4.06973 127.177 7.80142 124.315 9.40072 137.865C9.7815 141.161 10.8477 138.231 10.4669 134.935C8.94378 121.386 5.57178 124.032 3.01075 119.869C0.553859 117.172 1.50537 122.82 2.50896 119.77C4.01433 115.959 4.23843 115.197 5 113C6.75161 108.239 9.24841 103.514 11.0762 99.4862C11.3046 99.12 11.3808 97.6551 11.3808 96.9227C11.5331 83.7391 11.6093 64.5556 11.5331 51.372C11.5331 43.3154 11.0762 32.6953 11.6093 25.3711C11.9029 21.4297 12.4718 13.0893 16.9836 11.0889C40.5591 0.636318 122.947 8.1503 176 8.1503C195.267 8.1503 252 10.5 264.946 8.1503C267.992 7.05167 275.332 8.89163 277.083 23.54C278.607 35.625 278.15 52.4706 277.997 66.0204C277.693 93.8524 278.378 121.684 278.53 149.516C278.759 190.898 268.788 186.882 263 185.783C256.984 184.685 248.458 188.335 242.365 187.968C236.654 187.602 175.317 184.318 169.606 185.783C167.397 186.516 18.6919 183.366 16.4833 180.803C15.0363 179.338 11.8377 173.686 11.0762 167.094C10.3146 160.503 10.5431 143.358 10.0861 136.034C10.1623 134.569 9.62919 134.935 9.70535 136.766Z" fill="#0E0E0E"/>
</svg>
