<svg width="1031" height="154" viewBox="0 0 1031 154" fill="none" xmlns="http://www.w3.org/2000/svg">
<path d="M30.9346 71.9995C25.6339 85.4995 15.3097 85.169 7.36165 86.1796L1.24943 93.9995C-2.95655 97.0312 18.2307 111.094 21.7372 114.981C30.8541 125.086 24.8949 140.75 33.6612 144.793C42.9404 149.071 219.506 148.835 262.987 150.856C306.467 152.877 759.857 153.888 794.221 153.888C828.585 153.888 1003.91 155.909 1020.04 142.771C1036.17 129.634 1031.26 63.9465 1025.65 20.4921C1022.1 -7 979.365 2.30252 928.17 2.30252C876.975 2.30252 453.402 7.0101 430.961 5.99953L430.846 5.99436C407.271 4.93266 32.6985 -11.9365 30.9346 26.4995C29.1677 64.9995 33.541 65.3614 30.9346 71.9995Z" fill="#FFDB89"/>
<path d="M31.8508 113.565C33.8021 121.434 31.572 129.304 38.2622 135.338C43.0011 139.797 50.2488 141.109 56.6602 141.896C65.3016 142.945 603.86 141.896 612.501 141.634C628.391 141.109 863.297 141.634 879.186 141.896C909.571 142.421 939.955 142.683 970.34 144.781C987.623 145.831 1018.34 143.732 1020.85 124.32C1022.24 112.253 1019.17 98.8744 1018.89 86.8074C1018.62 72.6418 1019.73 58.2139 1019.45 44.0483C1018.89 27.2594 997.658 13.8807 978.424 13.0938C965.601 12.5691 952.499 14.4054 939.955 14.6677C923.509 14.9301 907.062 14.9301 890.615 14.9301C875.005 14.9301 640.098 14.9301 624.488 14.1431C611.944 13.3561 71.0355 12.5052 58.4914 14.3415C49.85 15.6531 40.2135 17.291 35.1959 24.6361C31.8508 29.6203 33.5233 32.2436 34.0809 37.7524C34.9171 45.6222 34.3596 53.7543 34.0809 61.3618C33.8021 68.9692 35.7534 72.9041 28.5057 76.5767C20.4218 79.9869 3.13884 85.2335 0.0725129 93.8902C-0.206244 94.6772 0.35127 95.9888 1.18754 96.5135C11.2228 101.235 24.8819 104.646 30.7358 114.352C32.1296 116.713 36.0322 114.614 34.6384 112.253C29.0632 102.547 18.4705 100.448 8.99273 95.2018C5.64765 92.8409 5.64765 95.4642 6.76268 92.8409C8.15646 90.48 14.5679 88.3814 17.3554 86.8074C23.7668 83.3972 30.1783 79.9869 36.8684 77.1013C37.7047 76.839 37.9835 75.7897 37.9835 75.2651C38.541 65.8213 38.8197 56.3776 38.541 46.9338C38.541 41.1627 36.8684 33.5552 38.8197 28.3087C45.5099 10.7328 386.944 24.1537 620.307 18.078C661.841 21.2259 924.902 20.9636 966.716 18.078C977.866 17.291 1004.12 16.504 1010.53 26.9971C1016.11 35.6538 1014.43 47.7208 1013.88 57.4269C1012.76 77.3637 1015.27 97.3004 1015.83 117.237C1016.66 146.88 974.242 140.584 953.057 139.797C931.035 139.01 909.013 138.486 886.713 138.223C865.806 137.961 625.882 137.699 604.975 138.748C596.891 139.273 58.6115 139.797 50.5275 137.961C45.2311 136.912 39.656 134.551 36.8684 129.829C34.0809 125.107 34.9171 118.287 33.2446 113.04C33.5233 111.991 31.572 112.253 31.8508 113.565Z" fill="#0E0E0E"/>
</svg>
