<svg width="1031" height="375" viewBox="0 0 1031 375" fill="none" xmlns="http://www.w3.org/2000/svg">
<path d="M31.2263 174.298C25.9271 207.341 21.9458 211.027 14 213.5L1.54981 228.145C-2.65495 235.566 18.5261 269.985 22.0316 279.499C31.1459 304.233 25.1884 342.571 33.9521 352.465C43.2287 362.938 219.743 362.359 263.211 367.306C306.679 372.253 759.937 374.726 794.29 374.726C828.644 374.726 1003.92 379.673 1020.04 347.518C1036.17 315.363 1031.26 154.588 1025.65 48.2295C1022.1 -19.0598 979.38 3.70896 928.2 3.70896C877.02 3.70896 453.571 15.2312 431.136 12.7577C408.701 10.2843 19.3058 -31.9464 22.0316 54.2169C24.7574 140.38 33.8319 158.051 31.2263 174.298Z" fill="#FFDB89"/>
<path d="M31.8443 278.532C33.7952 299.035 31.5656 319.539 38.2544 335.258C42.9923 346.877 50.2385 350.294 56.6486 352.344C65.2884 355.078 603.737 358.597 612.377 357.914C628.263 356.547 863.122 356.872 879.008 357.555C909.386 358.922 941.622 352.087 972 357.555C992 357.555 1018.13 357.129 1020.64 306.553C1022.03 275.114 1018.97 240.258 1018.69 208.82C1018.41 171.913 1019.52 134.324 1019.25 97.4172C1018.69 53.6763 1002.73 22.9211 983.5 20.8707C970.68 19.5038 952.306 20.1872 939.764 20.8707C923.321 21.5541 906.878 21.5541 890.434 21.5541C874.827 21.5541 645.5 17.568 624 17.568C602.5 17.5679 71.0211 15.2366 58.4795 20.0208C49.8398 23.438 40.2053 27.7052 35.1887 46.8418C31.8443 59.8274 33.5165 66.6619 34.0739 81.0144C34.91 101.518 34.3526 122.705 34.0739 142.525C33.7952 162.345 35.7461 181.597 28.4999 191.165C20.4176 200.05 13.5 207.5 0.0724982 227.273C-0.206202 229.323 0.351198 232.74 1.1873 234.107C11.2205 246.41 24.8768 255.294 30.7295 280.582C32.123 286.733 36.0248 281.266 34.6313 275.114C29.0573 249.827 18.4667 244.359 8.99091 230.69C5.6465 224.539 5.3852 235.835 6.5 229C11.7387 225.461 14.5649 221.92 17.3519 217.82C23.762 208.935 30.1721 200.05 36.8609 192.532C37.697 191.849 37.9757 189.115 37.9757 187.748C38.5331 163.144 38.8118 129.539 38.5331 104.935C38.5331 89.8993 36.8609 70.0791 38.8118 56.4101C37.3101 46.9592 41.6862 31.6937 55.5 26.426C98 10.2192 404 26.426 480 21.5541C556 16.6823 923.623 27.3634 970.143 27.3634C981.291 25.313 1003.92 25.6548 1010.33 52.9929C1015.9 75.5468 1014.23 106.986 1013.67 132.273C1012.56 184.216 1015.06 236.158 1015.62 288.1C1016.46 365.33 986 351.661 948 351.661C910 351.661 901.304 352.344 879.008 351.661C858.105 350.977 658.648 354.7 604.5 354.7C564.648 354.7 58.5995 346.877 50.5172 342.093C45.2219 339.359 39.6479 333.208 36.8609 320.906C34.0739 308.603 34.91 290.834 33.2378 277.165C33.5165 274.431 31.5656 275.114 31.8443 278.532Z" fill="#0E0E0E"/>
</svg>
