<svg width="825" height="328" viewBox="0 0 825 328" fill="none" xmlns="http://www.w3.org/2000/svg">
<path d="M27.5 153.348C23.2555 182.161 16.8643 183.784 10.5 185.941L1.44038 198.942C-1.92751 205.413 15.0379 235.427 17.8457 243.723C25.146 265.291 21.8163 297.912 26.5 308C39.5 336 176.206 315.977 211.023 320.291C245.84 324.604 608.886 326.761 636.402 326.761C663.919 326.761 800.084 335.389 813 307.35C825.916 279.311 826.209 134.8 821.716 42.0561C818.874 -16.6201 784.654 3.2342 743.66 3.2342C702.666 3.2342 363.496 13.2816 345.526 11.1247L345.434 11.1137C326.557 8.84767 26.6228 -27.156 25.2104 54.8777C23.7955 137.048 29.5871 139.18 27.5 153.348Z" fill="#FFDB89"/>
<path d="M25.5129 243.591C27.0759 261.121 25.2896 285.234 30.6485 298.673C34.4444 308.607 40.2499 311.529 45.3855 313.282C52.3074 315.619 483.699 313.282 490.621 312.697C503.349 311.529 691.512 312.697 704.239 313.282C728.578 314.45 752.916 315.035 777.254 319.709C791.098 322.047 815.701 310.789 817.711 267.549C818.827 240.669 816.371 210.868 816.148 183.989C815.924 152.435 816.817 120.297 816.594 88.7429C816.148 51.3456 799.137 14.9619 783.73 13.2089C773.458 12.0402 762.964 16.1305 752.916 16.7149C739.742 17.2992 726.568 17.2992 713.394 17.2992C700.89 17.2992 512.727 17.2992 500.223 15.5462C490.175 13.7932 56.9003 18.4807 46.8524 22.571C39.9305 25.4927 32.2115 29.141 28.1923 45.5023C25.5129 56.6046 26.8526 62.4479 27.2992 74.7189C27.9691 92.2489 27.5225 110.363 27.2992 127.309C27.0759 144.255 28.6389 162.894 22.8334 171.074C16.3581 178.671 7.20329 179.215 0.0580838 199.766C-0.165204 201.519 0.281372 204.441 0.951235 205.609C8.98959 216.127 19.9307 223.724 24.6197 245.344C25.7362 250.603 28.8622 245.928 27.7458 240.669C23.28 219.049 14.7951 214.374 7.20329 202.688C4.5 198.526 4.5 200.609 4.5 199.766C4.5 199.766 3.41699 196.221 12 189.089C20.583 181.958 24.1732 178.671 29.5321 172.243C30.2019 171.659 30.4252 169.321 30.4252 168.153C30.8718 147.117 31.0951 116.207 30.8718 95.1706C30.8718 82.3152 29.5321 65.3696 31.0951 53.6829C31.9567 47.3883 38.2498 34.0863 51.5 30.894C120.661 14.231 412.5 24.3112 496.873 24.3112C554 24.3112 743.149 20.1313 776.5 20.1313C785.432 18.3783 804.313 27.388 809.449 50.7613C813.915 70.0442 812.575 96.9236 812.128 118.544C811.235 162.953 813.245 207.362 813.691 251.772C814.361 317.801 785.97 314.45 769 312.697C751.36 310.944 728.131 305.685 710.268 305.101C693.521 304.517 501.339 303.932 484.593 306.27C478.117 307.438 46.9485 308.607 40.4732 304.517C36.2307 302.179 31.7649 296.92 29.5321 286.402C27.2992 275.884 27.9691 254.109 26.6293 242.422C26.8526 240.085 25.2896 240.669 25.5129 243.591Z" fill="#0E0E0E"/>
</svg>
