<svg width="1031" height="181" viewBox="0 0 1031 181" fill="none" xmlns="http://www.w3.org/2000/svg">
<path d="M31.2263 84.128C25.9271 100.076 15.606 99.686 7.66025 100.88L1.54981 110.118C-2.65495 113.7 18.5261 130.313 22.0316 134.905C31.1459 146.843 25.1884 165.348 33.9521 170.123C43.2287 175.178 219.743 174.899 263.211 177.286C306.679 179.674 759.937 180.868 794.29 180.868C828.644 180.868 1003.92 183.256 1020.04 167.735C1036.17 152.215 1031.26 74.6144 1025.65 23.2788C1022.1 -9.19943 979.38 1.79025 928.2 1.79025C877.02 1.79025 453.571 7.35163 431.136 6.15778L431.021 6.15167C407.453 4.8974 32.9897 -15.0312 31.2263 30.3758C29.4599 75.8584 33.8319 76.2859 31.2263 84.128Z" fill="#FFDB89"/>
<path d="M31.8443 132.849C33.7952 142.15 31.5656 151.45 38.2544 158.581C42.9923 163.851 50.2385 165.401 56.6486 166.331C65.2884 167.572 603.737 166.331 612.377 166.021C628.263 165.401 863.122 166.021 879.008 166.331C909.386 166.952 939.764 167.262 970.143 169.742C987.422 170.982 1018.13 168.502 1020.64 145.56C1022.03 131.299 1018.97 115.488 1018.69 101.227C1018.41 84.4858 1019.52 67.4346 1019.25 50.6934C1018.69 30.852 997.455 15.0409 978.225 14.1108C965.405 13.4908 952.306 15.6609 939.764 15.9709C923.321 16.281 906.878 16.281 890.434 16.281C874.827 16.281 639.968 16.281 624.361 15.3509C611.82 14.4208 71.0211 13.4153 58.4795 15.5854C49.8398 17.1355 40.2053 19.0712 35.1887 27.7518C31.8443 33.6422 33.5165 36.7424 34.0739 43.2529C34.91 52.5535 34.3526 62.1642 34.0739 71.1548C33.7952 80.1455 35.7461 84.7958 28.4999 89.1361C20.4176 93.1664 3.1382 99.3668 0.0724982 109.598C-0.206202 110.528 0.351198 112.078 1.1873 112.698C11.2205 118.278 24.8768 122.308 30.7295 133.779C32.123 136.569 36.0248 134.089 34.6313 131.299C29.0573 119.828 18.4667 117.348 8.99091 111.148C5.6465 108.357 5.6465 111.458 6.7613 108.357C8.15481 105.567 14.5649 103.087 17.3519 101.227C23.762 97.1967 30.1721 93.1664 36.8609 89.7561C37.697 89.4461 37.9757 88.206 37.9757 87.586C38.5331 76.4252 38.8118 65.2644 38.5331 54.1036C38.5331 47.2831 36.8609 38.2925 38.8118 32.0921C45.5006 11.3206 386.866 27.1817 620.18 20.0012C661.707 23.7215 924.714 23.4115 966.52 20.0012C977.667 19.0712 1003.92 18.1411 1010.33 30.542C1015.9 40.7727 1014.23 55.0337 1013.67 66.5045C1012.56 90.0662 1015.06 113.628 1015.62 137.189C1016.46 172.222 974.044 164.781 952.863 163.851C930.846 162.921 908.829 162.301 886.533 161.991C865.63 161.681 625.755 161.371 604.852 162.611C596.77 163.231 58.5996 163.851 50.5172 161.681C45.2219 160.441 39.6479 157.651 36.8609 152.07C34.0739 146.49 34.91 138.43 33.2378 132.229C33.5165 130.989 31.5656 131.299 31.8443 132.849Z" fill="#0E0E0E"/>
</svg>
