<svg width="826" height="302" viewBox="0 0 826 302" fill="none" xmlns="http://www.w3.org/2000/svg">
<path d="M27.5 143.969C23.2555 171.02 16.8643 172.544 10.5 174.569L1.44038 186.775C-1.92751 192.85 15.0379 221.028 17.8457 228.816C25.146 249.065 20.3742 280.452 27.3937 288.551C34.8239 297.125 176.206 296.651 211.023 300.701C245.84 304.751 603.484 294 631 294C658.516 294 804.308 310.826 817.224 284.502C830.14 258.177 826.209 126.556 821.716 39.4839C818.874 -15.6036 784.654 3.03639 743.66 3.03639C702.666 3.03639 363.496 12.4692 345.526 10.4443L345.434 10.4339C326.557 8.30653 26.6228 -25.4951 25.2104 51.5213C23.7955 128.666 29.5871 130.668 27.5 143.969Z" fill="#FFDB89"/>
<path d="M25.5129 221.809C27.0759 237.683 25.2896 259.518 30.6485 271.688C34.4444 280.683 40.2499 283.329 45.3855 284.916C52.3074 287.033 483.699 284.916 490.621 284.387C503.349 283.329 691.512 284.387 704.239 284.916C728.578 285.975 752.916 286.504 777.254 290.737C791.098 292.853 815.701 282.659 817.711 243.503C818.827 219.163 816.371 192.177 816.148 167.837C815.924 139.264 816.817 110.161 816.594 81.588C816.148 47.7234 799.137 14.7765 783.73 13.1891C773.458 12.1309 762.964 15.8348 752.916 16.3639C739.742 16.8931 726.568 16.8931 713.394 16.8931C700.89 16.8931 512.727 16.8931 500.223 15.3057C490.175 13.7183 56.9003 17.963 46.8524 21.6669C39.9305 24.3126 32.2115 27.6162 28.1923 42.432C25.5129 52.4856 26.8526 57.7769 27.2992 68.8888C27.9691 84.7628 27.5225 101.166 27.2992 116.511C27.0759 131.856 28.6389 148.734 22.8334 156.142C16.3581 163.021 7.20329 163.514 0.0580838 182.124C-0.165204 183.711 0.281372 186.357 0.951235 187.415C8.98959 196.939 19.9307 203.818 24.6197 223.396C25.7362 228.158 28.8622 223.925 27.7458 219.163C23.28 199.585 14.7951 195.352 7.20329 184.769C4.5 181.001 4.5 182.887 4.5 182.124C4.5 182.124 3.41699 178.913 12 172.455C20.583 165.998 24.1732 163.021 29.5321 157.2C30.2019 156.671 30.4252 154.555 30.4252 153.497C30.8718 134.448 31.0951 106.457 30.8718 87.4085C30.8718 75.7675 29.5321 60.4226 31.0951 49.8399C31.9567 44.1399 38.2498 32.0945 51.5 29.2037C120.661 14.1147 412.5 23.2427 496.873 23.2427C554 23.2427 743.149 19.4577 776.5 19.4577C785.432 17.8703 804.313 26.0288 809.449 47.1942C813.915 64.6557 812.575 88.9959 812.128 108.574C811.235 148.788 813.245 189.002 813.691 229.217C814.361 289.009 785.97 285.975 769 284.387C751.36 282.8 728.131 278.038 710.268 277.508C693.521 276.979 501.339 276.45 484.593 278.567C478.117 279.625 46.9485 280.683 40.4732 276.979C36.2307 274.863 31.7649 270.101 29.5321 260.576C27.2992 251.052 27.9691 231.333 26.6293 220.751C26.8526 218.634 25.2896 219.163 25.5129 221.809Z" fill="#0E0E0E"/>
</svg>
