<svg width="283" height="69" viewBox="0 0 283 69" fill="none" xmlns="http://www.w3.org/2000/svg">
<path d="M8.30489 32.0709C6.84891 38.1507 4.01311 38.0018 1.82995 38.4569L0.151064 41.9787C-1.00422 43.344 4.81543 49.6773 5.77859 51.4277C8.28279 55.9789 6.64595 63.0331 9.05383 64.8536C11.6026 66.7806 60.1011 66.674 72.0443 67.5843C83.9874 68.4945 208.523 68.9496 217.962 68.9496C227.401 68.9496 275.559 69.8598 279.99 63.9434C284.42 58.0269 283.072 28.4442 281.531 8.87425C280.556 -3.50696 268.817 0.682472 254.755 0.682472C240.693 0.682472 124.347 2.80256 118.183 2.34744L118.151 2.34511C111.676 1.86696 8.78941 -5.73013 8.30489 11.5797C7.81956 28.9184 9.02081 29.0814 8.30489 32.0709Z" fill="#FFDB89"/>
<path d="M8.67064 51.4731C9.20183 55.1099 8.59475 58.7467 10.416 61.5349C11.706 63.5957 13.6791 64.2018 15.4244 64.5655C17.7768 65.0504 164.387 64.5655 166.739 64.4443C171.065 64.2018 235.013 64.4443 239.338 64.5655C247.609 64.808 255.881 64.9292 264.152 65.899C268.857 66.3839 277.219 65.4141 277.902 56.4434C278.281 50.8669 277.446 44.6844 277.37 39.108C277.295 32.5617 277.598 25.8943 277.522 19.3481C277.37 11.5896 271.589 5.40701 266.353 5.04333C262.862 4.80088 259.296 5.64946 255.881 5.77069C251.404 5.89192 246.927 5.89192 242.449 5.89192C238.2 5.89192 174.252 5.89192 170.002 5.52824C166.587 5.16456 19.3378 4.77136 15.9229 5.61994C13.5705 6.22608 10.9472 6.98296 9.58126 10.3773C8.67064 12.6806 9.12595 13.8929 9.27772 16.4386C9.50537 20.0754 9.35361 23.8334 9.27772 27.349C9.20183 30.8646 9.73303 32.683 7.76002 34.3801C5.55935 35.9561 0.854476 38.3806 0.01974 42.3811C-0.0561451 42.7448 0.095625 43.3509 0.32328 43.5933C3.05514 45.7754 6.77351 47.3514 8.3671 51.8367C8.74652 52.9278 9.80892 51.958 9.42949 50.8669C7.91179 46.3816 5.02816 45.4117 2.44806 42.9872C1.53744 41.8962 1.53744 43.1084 1.84098 41.8962C2.22041 40.8051 3.96576 39.8353 4.72461 39.108C6.46997 37.532 8.21533 35.9561 10.0366 34.6226C10.2642 34.5014 10.3401 34.0165 10.3401 33.774C10.4919 29.4099 10.5678 25.0457 10.4919 20.6815C10.4919 18.0146 10.0366 14.499 10.5678 12.0745C12.389 3.95229 105.337 10.1544 168.864 7.34664C180.171 8.80135 251.783 8.68013 263.166 7.34664C266.201 6.98296 273.349 6.61928 275.094 11.4683C276.612 15.4688 276.156 21.0452 276.004 25.5306C275.701 34.7438 276.384 43.957 276.536 53.1702C276.763 66.8688 265.215 63.9594 259.448 63.5957C253.453 63.232 247.458 62.9896 241.387 62.8684C235.696 62.7471 170.382 62.6259 164.69 63.1108C162.49 63.3533 15.9556 63.5957 13.7549 62.7471C12.3131 62.2622 10.7954 61.1712 10.0366 58.9891C9.27772 56.807 9.50537 53.6551 9.05006 51.2306C9.12595 50.7457 8.59475 50.8669 8.67064 51.4731Z" fill="#0E0E0E"/>
</svg>
