<svg width="826" height="107" viewBox="0 0 826 107" fill="none" xmlns="http://www.w3.org/2000/svg">
<path d="M25.2104 49.7331C20.9659 59.1612 12.699 58.9304 6.33466 59.6361L1.44038 65.0974C-1.92751 67.2147 15.0379 77.0358 17.8457 79.7502C25.146 86.8078 20.3742 97.747 27.3937 100.57C34.8239 103.558 176.206 103.393 211.023 104.805C245.84 106.216 608.886 106.922 636.402 106.922C663.919 106.922 804.308 108.333 817.224 99.1585C830.14 89.9837 826.209 44.1091 821.716 13.7615C818.874 -5.43834 784.654 1.05833 743.66 1.05833C702.666 1.05833 363.496 4.34599 345.526 3.64024L345.434 3.63663C326.557 2.89515 26.6228 -8.88587 25.2104 17.957C23.7955 44.8445 27.2974 45.0972 25.2104 49.7331Z" fill="#FFDB89"/>
<path d="M25.5129 78.8524C27.0759 84.397 25.2896 89.9416 30.6485 94.1925C34.4444 97.3344 40.2499 98.2585 45.3855 98.813C52.3074 99.5523 483.699 98.813 490.621 98.6282C503.349 98.2585 691.512 98.6282 704.239 98.813C728.578 99.1826 752.916 99.3675 777.254 100.846C791.098 101.585 815.701 100.107 817.71 86.43C818.827 77.9283 816.371 68.5024 816.147 60.0007C815.924 50.0204 816.817 39.8552 816.594 29.8749C816.147 18.0464 799.136 8.62053 783.73 8.06606C773.458 7.69642 762.964 8.99017 752.916 9.17499C739.742 9.35981 726.568 9.35981 713.394 9.35981C700.89 9.35981 512.727 9.35981 500.223 8.80535C490.175 8.25088 56.9003 7.65141 46.8524 8.94516C39.9305 9.86926 32.2115 11.0232 28.1923 16.1982C25.5129 19.7098 26.8526 21.558 27.2992 25.4392C27.9691 30.9838 27.5225 36.7133 27.2992 42.0731C27.0759 47.4329 28.6389 50.2052 22.8334 52.7927C16.3581 55.1953 2.51425 58.8917 0.0580838 64.9908C-0.165204 65.5453 0.281372 66.4694 0.951235 66.839C8.98959 70.1658 19.9307 72.5685 24.6197 79.4068C25.7362 81.0702 28.8622 79.5917 27.7458 77.9283C23.28 71.0899 14.7951 69.6113 7.20329 65.9149C4.52384 64.2515 4.52384 66.0998 5.41699 64.2515C6.53343 62.5882 11.669 61.1096 13.9019 60.0007C19.0375 57.598 24.1732 55.1953 29.5321 53.1623C30.2019 52.9775 30.4252 52.2382 30.4252 51.8686C30.8718 45.215 31.0951 38.5615 30.8718 31.9079C30.8718 27.8419 29.5321 22.4821 31.0951 18.7857C36.454 6.40268 309.947 15.8583 496.873 11.5777C530.143 13.7955 740.858 13.6107 774.352 11.5777C783.283 11.0232 804.313 10.4687 809.449 17.8616C813.915 23.9606 812.575 32.4624 812.128 39.3008C811.235 53.3471 813.245 67.3935 813.691 81.4399C814.361 102.325 780.38 97.8889 763.41 97.3344C745.771 96.78 728.131 96.4103 710.268 96.2255C693.521 96.0407 501.339 95.8559 484.592 96.5952C478.117 96.9648 46.9485 97.3344 40.4732 96.0407C36.2307 95.3014 31.7649 93.638 29.5321 90.3113C27.2992 86.9845 27.9691 82.1791 26.6293 78.4827C26.8526 77.7434 25.2896 77.9283 25.5129 78.8524Z" fill="#0E0E0E"/>
</svg>
