<svg width="1031" height="114" viewBox="0 0 1031 114" fill="none" xmlns="http://www.w3.org/2000/svg">
<path d="M31.2263 52.9867C25.9271 63.0316 15.606 62.7856 7.66025 63.5376L1.54981 69.3561C-2.65495 71.6119 18.5261 82.0755 22.0316 84.9675C31.1459 92.4868 25.1884 104.142 33.9521 107.149C43.2287 110.333 219.743 110.157 263.211 111.661C306.679 113.165 759.937 113.917 794.29 113.917C828.644 113.917 1003.92 115.421 1020.04 105.646C1036.17 95.8705 1031.26 46.9947 1025.65 14.6618C1022.1 -5.79412 979.38 1.12756 928.2 1.12756C877.02 1.12756 453.571 4.63031 431.136 3.87838L431.021 3.87453C407.453 3.08455 32.9897 -9.46718 31.2263 19.1317C29.4599 47.7782 33.8319 48.0475 31.2263 52.9867Z" fill="#FFDB89"/>
<path d="M31.8443 83.6616C33.7952 89.5044 31.5656 95.3471 38.2544 99.8265C42.9923 103.137 50.2385 104.111 56.6486 104.695C65.2884 105.474 603.737 104.695 612.377 104.501C628.263 104.111 863.122 104.501 879.008 104.695C909.386 105.085 939.764 105.28 970.143 106.838C987.422 107.617 1018.13 106.059 1020.64 91.6467C1022.03 82.6879 1018.97 72.7552 1018.69 63.7964C1018.41 53.2795 1019.52 42.5679 1019.25 32.051C1018.69 19.5865 997.455 9.65389 978.225 9.06962C965.405 8.6801 952.306 10.0434 939.764 10.2382C923.321 10.4329 906.878 10.4329 890.434 10.4329C874.827 10.4329 639.968 10.4329 624.361 9.84864C611.82 9.26437 71.0211 8.63267 58.4795 9.99597C49.8398 10.9698 40.2053 12.1857 35.1887 17.6389C31.8443 21.3393 33.5165 23.2869 34.0739 27.3768C34.91 33.2195 34.3526 39.257 34.0739 44.905C33.7952 50.5529 35.7461 53.4743 28.4999 56.2009C20.4176 58.7327 3.1382 62.6279 0.0724982 69.0549C-0.206202 69.6391 0.351198 70.6129 1.1873 71.0024C11.2205 74.508 24.8768 77.0399 30.7295 84.2459C32.123 85.9987 36.0248 84.4407 34.6313 82.6879C29.0573 75.4818 18.4667 73.9238 8.99091 70.0286C5.6465 68.2758 5.6465 70.2234 6.7613 68.2758C8.15481 66.523 14.5649 64.965 17.3519 63.7964C23.762 61.2646 30.1721 58.7327 36.8609 56.5904C37.697 56.3956 37.9757 55.6166 37.9757 55.2271C38.5331 48.2158 38.8118 41.2046 38.5331 34.1933C38.5331 29.9086 36.8609 24.2607 38.8118 20.3655C45.5006 7.3168 386.866 17.2808 620.18 12.77C661.707 15.1071 924.714 14.9123 966.52 12.77C977.667 12.1857 1003.92 11.6015 1010.33 19.3918C1015.9 25.8187 1014.23 34.7776 1013.67 41.9836C1012.56 56.7852 1015.06 71.5867 1015.62 86.3883C1016.46 108.396 974.044 103.722 952.863 103.137C930.846 102.553 908.829 102.164 886.533 101.969C865.63 101.774 625.755 101.579 604.852 102.358C596.77 102.748 58.5996 103.137 50.5172 101.774C45.2219 100.995 39.6479 99.2422 36.8609 95.7366C34.0739 92.231 34.91 87.1673 33.2378 83.2721C33.5165 82.4931 31.5656 82.6879 31.8443 83.6616Z" fill="#0E0E0E"/>
</svg>
