<svg width="284" height="131" viewBox="0 0 284 131" fill="none" xmlns="http://www.w3.org/2000/svg">
<path d="M9.30491 60.8882C7.84893 72.431 5.01313 72.1484 2.82998 73.0124L1.15109 79.6987C-0.00419831 82.2908 6.03684 88.6767 7 92C9.50421 100.641 7.64597 119.672 10.0539 123.128C12.6027 126.786 61.1012 126.584 73.0443 128.312C84.9874 130.04 209.523 130.904 218.962 130.904C228.401 130.904 276.559 132.632 280.99 121.4C285.42 110.167 284.072 54.0026 282.531 16.8482C281.556 -6.6582 269.817 1.29566 255.755 1.29566C241.693 1.29566 135.2 0.78421 129 1.2958C68.5 6.288 9.79024 -10.9337 9.30491 21.9846C8.81959 54.903 10.0208 55.2124 9.30491 60.8882Z" fill="#FFDB89"/>
<path d="M9.6707 92.0834C10.2019 99.2894 9.59481 111.495 11.4161 117.02C12.7061 121.104 14.6791 122.305 16.4245 123.025C18.7769 123.986 166.648 126.108 169 125.868C173.325 125.387 237.175 126.716 241.5 126.956C249.771 127.437 256.881 123.746 265.153 125.667C269.858 126.628 278.219 124.707 278.902 106.932C279.281 95.8823 278.447 83.632 278.371 72.5827C278.295 59.6118 278.598 46.4007 278.522 33.4297C278.371 18.0568 272.589 5.80647 267.353 5.08586C263.863 4.60546 260.296 6.28687 256.881 6.52707C252.404 6.76728 247.927 6.76728 243.449 6.76728C239.2 6.76728 175.252 6.76728 171.002 6.04667C167.588 5.32606 20.3378 4.54696 16.923 6.22838C14.5706 7.42939 11.9472 8.9291 10.5813 15.6548C9.6707 20.2186 10.126 22.6206 10.2778 27.6649C10.5054 34.8709 10.3537 42.3172 10.2778 49.2831C10.2019 56.249 10.7331 59.852 8.76007 63.2148C6.55941 66.3375 0.834736 71.5733 0 79.5C0.000108493 81 1.09568 80.9898 1.32334 81.4702C4.0552 85.7938 7.77357 83.9165 9.36716 92.804C9.74658 94.9658 10.809 93.0442 10.4295 90.8823C8.91184 81.9949 5.55188 83.7308 3 81C0.551882 79.2308 1.5 79 2.5 77C4 74.5 4.96582 74.0239 5.72467 72.5827C7.47003 69.4601 9.21539 66.3375 11.0366 63.6952C11.2643 63.455 11.3402 62.4942 11.3402 62.0138C11.4919 53.3665 11.5678 44.7192 11.4919 36.072C11.4919 30.7875 11.0366 23.8216 11.5678 19.0176C11.8604 16.4324 12.4273 10.9618 16.923 9.6497C40.4143 2.79371 120.636 8.26669 173.5 8.26669C192.698 8.26669 252.618 10.3645 264 7.72224C267.036 7.00163 274.349 8.20849 276.094 17.8166C277.612 25.7433 277.156 36.7926 277.005 45.6801C276.701 63.9354 277.384 82.1908 277.536 100.446C277.764 127.589 267.268 123.746 261.5 123.025C255.505 122.305 246.571 124.474 240.5 124.234C234.809 123.994 174.691 123.273 169 124.234C166.799 124.715 18.6251 122.649 16.4245 120.967C14.9827 120.007 11.7955 116.3 11.0366 111.976C10.2778 107.652 10.5054 96.407 10.0501 91.6029C10.126 90.6421 9.59481 90.8823 9.6707 92.0834Z" fill="#0E0E0E"/>
</svg>
