<svg width="283" height="58" viewBox="0 0 283 58" fill="none" xmlns="http://www.w3.org/2000/svg">
<path d="M8.30489 27.4229C6.84891 32.6216 4.01311 32.4943 1.82995 32.8835L0.151064 35.8948C-1.00422 37.0623 4.81543 42.4777 5.77859 43.9744C8.28279 47.866 6.64595 53.8979 9.05383 55.4545C11.6026 57.1022 60.1011 57.0111 72.0443 57.7894C83.9874 58.5678 208.523 58.9569 217.962 58.9569C227.401 58.9569 275.559 59.7352 279.99 54.6762C284.42 49.6172 283.072 24.3218 281.531 7.58812C280.556 -2.99871 268.817 0.583563 254.755 0.583563C240.693 0.583563 124.347 2.39639 118.183 2.00723L118.151 2.00524C111.676 1.59639 8.78941 -4.89968 8.30489 9.9015C7.81956 24.7273 9.02081 24.8667 8.30489 27.4229Z" fill="#FFDB89"/>
<path d="M8.67064 43.6164C9.20183 46.7166 8.59475 49.8168 10.416 52.1937C11.706 53.9504 13.6791 54.4671 15.4244 54.7772C17.7768 55.1905 164.387 54.7772 166.739 54.6738C171.065 54.4671 235.013 54.6738 239.338 54.7772C247.609 54.9838 255.881 55.0872 264.152 55.9139C268.857 56.3273 277.219 55.5006 277.902 47.8534C278.281 43.0997 277.446 37.8293 277.37 33.0756C277.295 27.4953 277.598 21.8115 277.522 16.2311C277.37 9.61733 271.589 4.34696 266.353 4.03694C262.862 3.83026 259.296 4.55364 255.881 4.65698C251.404 4.76032 246.927 4.76032 242.449 4.76032C238.2 4.76032 174.252 4.76032 170.002 4.4503C166.587 4.14028 19.3378 3.80509 15.9229 4.52848C13.5705 5.04518 10.9472 5.69039 9.58126 8.58393C8.67064 10.5474 9.12595 11.5808 9.27772 13.751C9.50537 16.8512 9.35361 20.0547 9.27772 23.0516C9.20183 26.0485 9.73303 27.5986 7.76002 29.0454C5.55935 30.3888 0.854476 32.4556 0.01974 35.8658C-0.0561451 36.1759 0.095625 36.6926 0.32328 36.8992C3.05514 38.7594 6.77351 40.1028 8.3671 43.9264C8.74652 44.8565 9.80892 44.0297 9.42949 43.0997C7.91179 39.2761 5.02816 38.4494 2.44806 36.3825C1.53744 35.4525 1.53744 36.4859 1.84098 35.4525C2.22041 34.5224 3.96576 33.6957 4.72461 33.0756C6.46997 31.7322 8.21533 30.3888 10.0366 29.252C10.2642 29.1487 10.3401 28.7353 10.3401 28.5287C10.4919 24.8084 10.5678 21.0881 10.4919 17.3679C10.4919 15.0944 10.0366 12.0975 10.5678 10.0307C12.389 3.10687 105.337 8.3939 168.864 6.00041C180.171 7.2405 251.783 7.13716 263.166 6.00041C266.201 5.69039 273.349 5.38037 275.094 9.51399C276.612 12.9242 276.156 17.6779 276.004 21.5015C275.701 29.3554 276.384 37.2093 276.536 45.0632C276.763 56.7406 265.215 54.2605 259.448 53.9504C253.453 53.6404 247.458 53.4337 241.387 53.3304C235.696 53.2271 170.382 53.1237 164.69 53.5371C162.49 53.7438 15.9556 53.9504 13.7549 53.2271C12.3131 52.8137 10.7954 51.8836 10.0366 50.0235C9.27772 48.1634 9.50537 45.4765 9.05006 43.4097C9.12595 42.9963 8.59475 43.0997 8.67064 43.6164Z" fill="#0E0E0E"/>
</svg>
