<svg width="1031" height="333" viewBox="0 0 1031 333" fill="none" xmlns="http://www.w3.org/2000/svg">
<path d="M31.2263 154.777C25.9271 184.119 21.9458 187.392 14 189.588L1.54981 202.593C-2.65495 209.182 18.5261 239.747 22.0316 248.195C31.1459 270.159 25.1884 304.203 33.9521 312.989C43.2287 322.289 219.743 321.775 263.211 326.168C306.679 330.56 759.937 332.757 794.29 332.757C828.644 332.757 1003.92 337.15 1020.04 308.596C1036.17 280.043 1031.26 137.274 1025.65 42.8278C1022.1 -16.9251 979.38 3.29355 928.2 3.29355C877.02 3.29355 453.571 13.5253 431.136 11.3288C408.701 9.13243 19.3058 -28.3684 22.0316 48.1446C24.7574 124.658 33.8319 140.349 31.2263 154.777Z" fill="#FFDB89"/>
<path d="M31.8443 247.387C33.7952 265.606 31.5656 283.825 38.2544 297.792C42.9923 308.116 50.2385 311.153 56.6486 312.975C65.2884 315.404 603.737 318.531 612.377 317.923C628.263 316.709 863.122 316.997 879.008 317.605C909.386 318.819 941.622 312.746 972 317.605C992 317.605 1018.13 317.226 1020.64 272.286C1022.03 244.351 1018.97 213.379 1018.69 185.444C1018.41 152.65 1019.52 119.249 1019.25 86.4558C1018.69 47.5893 1002.73 20.2613 983.5 18.4394C970.68 17.2248 952.306 17.8321 939.764 18.4393C923.321 19.0466 906.878 19.0466 890.434 19.0466C874.827 19.0466 645.5 15.5047 624 15.5047C602.5 15.5046 71.0211 13.4331 58.4795 17.6842C49.8398 20.7206 40.2053 24.5122 35.1887 41.5163C31.8443 53.0548 33.5165 59.1277 34.0739 71.8808C34.91 90.0995 34.3526 108.925 34.0739 126.537C33.7952 144.148 35.7461 161.255 28.4999 169.757C20.4176 177.652 13.5 184.271 0.0724982 201.841C-0.206202 203.663 0.351198 206.699 1.1873 207.914C11.2205 218.845 24.8768 226.74 30.7295 249.209C32.123 254.675 36.0248 249.817 34.6313 244.351C29.0573 221.881 18.4667 217.023 8.99091 204.877C5.6465 199.412 5.3852 209.448 6.5 203.375C11.7387 200.231 14.5649 197.085 17.3519 193.441C23.762 185.546 30.1721 177.652 36.8609 170.971C37.697 170.364 37.9757 167.935 37.9757 166.72C38.5331 144.858 38.8118 114.998 38.5331 93.136C38.5331 79.7756 36.8609 62.1642 38.8118 50.0184C37.3101 41.6207 41.6862 28.0563 55.5 23.3756C98 8.97483 404 23.3756 480 19.0466C556 14.7177 923.623 24.2085 970.143 24.2085C981.291 22.3866 1003.92 22.6904 1010.33 46.9819C1015.9 67.0225 1014.23 94.9578 1013.67 117.428C1012.56 163.582 1015.06 209.735 1015.62 255.889C1016.46 324.513 986 312.367 948 312.367C910 312.367 901.304 312.975 879.008 312.367C858.105 311.76 658.648 315.068 604.5 315.068C564.648 315.068 58.5995 308.116 50.5172 303.865C45.2219 301.436 39.6479 295.971 36.8609 285.039C34.0739 274.108 34.91 258.319 33.2378 246.173C33.5165 243.744 31.5656 244.351 31.8443 247.387Z" fill="#0E0E0E"/>
</svg>
