<svg width="64" height="50" viewBox="0 0 64 50" fill="none" xmlns="http://www.w3.org/2000/svg">
<g clip-path="url(#clip0_4794_439)">
<path d="M54.076 5.16642C50.0225 3.34916 45.6758 2.01028 41.131 1.24345C41.0482 1.22865 40.9656 1.26564 40.9229 1.33961C40.3639 2.31109 39.7447 3.57846 39.3111 4.57461C34.4229 3.85958 29.5597 3.85958 24.7718 4.57461C24.338 3.55632 23.6963 2.31109 23.1348 1.33961C23.0922 1.2681 23.0095 1.23112 22.9267 1.24345C18.3844 2.00783 14.0377 3.34671 9.98173 5.16642C9.94662 5.18121 9.91652 5.2059 9.89655 5.23793C1.65171 17.2731 -0.6069 29.0125 0.501097 40.6064C0.50611 40.6631 0.538698 40.7173 0.583821 40.7518C6.02353 44.655 11.2928 47.0246 16.4643 48.5953C16.547 48.62 16.6347 48.5904 16.6874 48.5238C17.9107 46.8915 19.0012 45.1704 19.9361 43.3605C19.9913 43.2545 19.9386 43.1288 19.8259 43.0869C18.0962 42.4458 16.4492 41.6641 14.8649 40.7765C14.7396 40.705 14.7296 40.5299 14.8449 40.446C15.1782 40.2019 15.5117 39.948 15.8301 39.6915C15.8877 39.6447 15.9679 39.6348 16.0356 39.6644C26.4437 44.3074 37.7117 44.3074 47.997 39.6644C48.0647 39.6324 48.145 39.6423 48.2051 39.6891C48.5235 39.9455 48.8569 40.2019 49.1928 40.446C49.3081 40.5299 49.3006 40.705 49.1753 40.7765C47.591 41.6814 45.944 42.4458 44.2118 43.0844C44.099 43.1263 44.0489 43.2545 44.104 43.3605C45.0591 45.1679 46.1495 46.889 47.3503 48.5213C47.4004 48.5904 47.4906 48.62 47.5734 48.5953C52.7699 47.0246 58.0392 44.655 63.4789 40.7518C63.5265 40.7173 63.5566 40.6655 63.5617 40.6088C64.8877 27.2051 61.3406 15.5619 54.1587 5.24038C54.1411 5.2059 54.1111 5.18121 54.076 5.16642ZM21.4904 33.5469C18.3569 33.5469 15.7749 30.7361 15.7749 27.284C15.7749 23.832 18.3068 21.0211 21.4904 21.0211C24.699 21.0211 27.256 23.8566 27.2058 27.284C27.2058 30.7361 24.6739 33.5469 21.4904 33.5469ZM42.6225 33.5469C39.489 33.5469 36.9071 30.7361 36.9071 27.284C36.9071 23.832 39.4389 21.0211 42.6225 21.0211C45.8312 21.0211 48.3881 23.8566 48.338 27.284C48.338 30.7361 45.8312 33.5469 42.6225 33.5469Z" fill="white"/>
</g>
<defs>
<clipPath id="clip0_4794_439">
<rect width="63.5972" height="48.1359" fill="white" transform="translate(0.238281 0.882812)"/>
</clipPath>
</defs>
</svg>
