<svg width="55" height="56" viewBox="0 0 55 56" fill="none" xmlns="http://www.w3.org/2000/svg">
<path d="M27.2181 21.6399C25.9411 21.6403 24.6929 22.0194 23.6313 22.7293C22.5698 23.4391 21.7425 24.4477 21.2542 25.6276C20.7658 26.8075 20.6383 28.1058 20.8877 29.3582C21.1372 30.6106 21.7523 31.7609 22.6555 32.6637C23.5586 33.5665 24.7092 34.1812 25.9617 34.4302C27.2141 34.6791 28.5123 34.5511 29.6921 34.0623C30.8718 33.5735 31.8801 32.7459 32.5896 31.6841C33.299 30.6223 33.6776 29.374 33.6776 28.097C33.6763 26.3844 32.9953 24.7424 31.7841 23.5317C30.5729 22.3209 28.9306 21.6405 27.2181 21.6399ZM42.3149 16.6766C41.9862 15.8435 41.4898 15.0869 40.8566 14.4536C40.2233 13.8204 39.4667 13.324 38.6336 12.9953C36.0915 11.9917 30.0387 12.2169 27.2181 12.2169C24.3975 12.2169 18.3507 11.9832 15.8013 12.9953C14.9682 13.324 14.2116 13.8204 13.5784 14.4536C12.9451 15.0869 12.4487 15.8435 12.12 16.6766C11.1176 19.2187 11.3416 25.2776 11.3416 28.0958C11.3416 30.9139 11.1176 36.9655 12.1248 39.5162C12.4535 40.3492 12.9499 41.1059 13.5832 41.7391C14.2165 42.3724 14.9731 42.8688 15.8061 43.1975C18.3483 44.201 24.4011 43.9759 27.2229 43.9759C30.0447 43.9759 36.089 44.2095 38.6385 43.1975C39.4715 42.8688 40.2282 42.3724 40.8614 41.7391C41.4947 41.1059 41.9911 40.3492 42.3198 39.5162C43.3306 36.974 43.0982 30.9152 43.0982 28.097C43.0982 25.2788 43.3306 19.2284 42.3198 16.6778L42.3149 16.6766ZM27.2181 38.0236C25.2548 38.0236 23.3356 37.4414 21.7032 36.3506C20.0707 35.2599 18.7984 33.7096 18.0471 31.8957C17.2958 30.0819 17.0992 28.086 17.4822 26.1604C17.8652 24.2348 18.8107 22.4661 20.1989 21.0778C21.5872 19.6896 23.3559 18.7442 25.2815 18.3611C27.2071 17.9781 29.203 18.1747 31.0168 18.926C32.8307 19.6773 34.381 20.9496 35.4717 22.5821C36.5625 24.2145 37.1446 26.1337 37.1446 28.097C37.1462 29.401 36.8906 30.6925 36.3923 31.8976C35.894 33.1027 35.1629 34.1976 34.2408 35.1197C33.3187 36.0418 32.2238 36.7729 31.0187 37.2712C29.8136 37.7695 28.5221 38.0251 27.2181 38.0236ZM37.5538 20.071C37.0955 20.0712 36.6474 19.9355 36.2662 19.6811C35.885 19.4266 35.5879 19.0648 35.4123 18.6415C35.2368 18.2181 35.1907 17.7522 35.28 17.3027C35.3692 16.8531 35.5898 16.4402 35.9138 16.116C36.2378 15.7919 36.6506 15.5711 37.1001 15.4816C37.5496 15.3921 38.0156 15.4379 38.439 15.6132C38.8625 15.7885 39.2244 16.0855 39.479 16.4666C39.7337 16.8476 39.8696 17.2957 39.8696 17.754C39.8709 18.0583 39.8121 18.3599 39.6965 18.6415C39.581 18.923 39.411 19.179 39.1963 19.3947C38.9816 19.6105 38.7264 19.7817 38.4454 19.8985C38.1643 20.0154 37.863 20.0757 37.5587 20.0758L37.5538 20.071ZM48.5239 0.980469H5.91224C4.37115 0.980469 2.89318 1.59266 1.80347 2.68238C0.713757 3.77209 0.101563 5.25006 0.101562 6.79115L0.101563 49.4028C0.101563 50.9439 0.713757 52.4219 1.80347 53.5116C2.89318 54.6013 4.37115 55.2135 5.91224 55.2135H48.5239C50.065 55.2135 51.5429 54.6013 52.6327 53.5116C53.7224 52.4219 54.3346 50.9439 54.3346 49.4028V6.79115C54.3346 5.25006 53.7224 3.77209 52.6327 2.68238C51.5429 1.59266 50.065 0.980469 48.5239 0.980469ZM46.4514 36.0867C46.2953 39.1893 45.5871 41.9385 43.3221 44.1974C41.0572 46.4563 38.3104 47.179 35.2114 47.3267C32.0143 47.5071 22.4291 47.5071 19.232 47.3267C16.1294 47.1705 13.3899 46.4611 11.1213 44.1974C8.85269 41.9337 8.13967 39.1833 7.99198 36.0867C7.81161 32.8884 7.81161 23.302 7.99198 20.1073C8.14814 17.0046 8.84785 14.2555 11.1213 11.9965C13.3947 9.73765 16.1415 9.02342 19.232 8.87573C22.4291 8.69536 32.0143 8.69536 35.2114 8.87573C38.314 9.03189 41.062 9.74128 43.3221 12.005C45.5822 14.2688 46.3037 17.0192 46.4514 20.1218C46.6318 23.308 46.6318 32.8859 46.4514 36.0867Z" fill="white"/>
</svg>
