<svg width="58" height="58" viewBox="0 0 58 58" fill="none" xmlns="http://www.w3.org/2000/svg">
<g clip-path="url(#clip0_4860_1231)">
<path d="M14.4392 29.6303L14.5624 29.4367L21.9877 17.8207C22.0962 17.6506 22.3514 17.6682 22.4334 17.853C23.674 20.6331 24.7443 24.0906 24.2429 26.2431C24.0288 27.1288 23.4423 28.3282 22.7824 29.4367C22.6974 29.5981 22.6036 29.7564 22.5038 29.9089C22.4569 29.9793 22.3777 30.0203 22.2927 30.0203H14.6562C14.4509 30.0203 14.3307 29.7975 14.4392 29.6303Z" fill="black"/>
<g clip-path="url(#clip1_4860_1231)">
<path d="M46.161 49.5887C45.9963 49.9926 45.7451 50.3572 45.4244 50.6582C45.1037 50.9591 44.721 51.1894 44.3019 51.3336C43.8828 51.4777 43.437 51.5324 42.9945 51.4939C42.552 51.4554 42.1231 51.3246 41.7365 51.1104L29.7479 41.9891L22.0557 48.9403C21.8771 49.0693 21.6683 49.1524 21.4484 49.1819C21.2285 49.2113 21.0046 49.1862 20.7972 49.1089L22.2721 36.1877L22.3162 36.2266L22.3471 35.9716C22.3471 35.9716 43.9179 16.7433 44.7966 15.9263C45.6886 15.1093 45.3927 14.9321 45.3927 14.9321C45.4457 13.9378 43.7986 14.9321 43.7986 14.9321L15.2158 32.9326L3.31542 28.9642C3.31542 28.9642 1.48732 28.3244 1.3151 26.9108C1.13406 25.5102 3.37283 24.7494 3.37283 24.7494L50.696 6.34245C50.696 6.34245 54.5862 4.64788 54.5862 7.45776L46.161 49.5887Z" fill="white"/>
</g>
</g>
<defs>
<clipPath id="clip0_4860_1231">
<rect width="57.0873" height="57.0874" fill="white" transform="translate(0.355469 0.126953)"/>
</clipPath>
<clipPath id="clip1_4860_1231">
<rect width="62.7961" height="46.6214" fill="white" transform="translate(-2.5 4.88477)"/>
</clipPath>
</defs>
</svg>
