<svg width="58" height="58" viewBox="0 0 58 58" fill="none" xmlns="http://www.w3.org/2000/svg">
<g clip-path="url(#clip0_4794_429)">
<path d="M14.365 29.6303L14.4881 29.4367L21.9135 17.8207C22.022 17.6506 22.2771 17.6682 22.3592 17.853C23.5997 20.6331 24.6701 24.0906 24.1687 26.2431C23.9546 27.1288 23.3681 28.3282 22.7082 29.4367C22.6232 29.5981 22.5294 29.7564 22.4296 29.9089C22.3827 29.9793 22.3035 30.0203 22.2185 30.0203H14.582C14.3767 30.0203 14.2565 29.7975 14.365 29.6303Z" fill="black"/>
<path d="M47.4646 31.7887V33.6274C47.4646 33.733 47.4001 33.8268 47.3062 33.8679C46.7315 34.1142 44.7637 35.0174 43.9455 36.1553C41.8575 39.0615 40.2622 43.217 36.6961 43.217H21.819C16.5463 43.217 12.2734 38.9296 12.2734 33.6391V33.469C12.2734 33.3283 12.3878 33.2139 12.5286 33.2139H20.822C20.9862 33.2139 21.1064 33.3664 21.0918 33.5277C21.0331 34.0673 21.1328 34.6186 21.388 35.1201C21.8806 36.1201 22.9012 36.7448 24.0038 36.7448H28.1095V33.5394H24.0507C23.8425 33.5394 23.7194 33.2989 23.8396 33.1289C23.8836 33.0614 23.9335 32.9911 23.9862 32.9119C24.3704 32.3664 24.9188 31.5189 25.4643 30.5541C25.8367 29.903 26.1974 29.208 26.4877 28.51C26.5464 28.3839 26.5933 28.2549 26.6402 28.1287C26.7194 27.9059 26.8015 27.6977 26.8602 27.4895C26.9189 27.3135 26.9657 27.1287 27.0127 26.9557C27.1505 26.3633 27.2091 25.7358 27.2091 25.0847C27.2091 24.8296 27.1974 24.5627 27.174 24.3076C27.1622 24.029 27.1271 23.7504 27.0918 23.4718C27.0684 23.2255 27.0244 22.982 26.9775 22.7269C26.9189 22.3545 26.8367 21.985 26.7429 21.6125L26.7106 21.4718C26.6402 21.2166 26.5816 20.9732 26.4995 20.7181C26.2678 19.9175 26.001 19.1374 25.7194 18.4072C25.6168 18.1169 25.4994 17.8383 25.3821 17.5597C25.2092 17.1403 25.0331 16.7591 24.8719 16.3984C24.7898 16.2341 24.7194 16.0846 24.649 15.9321C24.5698 15.7591 24.4877 15.586 24.4056 15.4218C24.347 15.2957 24.2795 15.1784 24.2326 15.0611L23.7311 14.1344C23.6607 14.0083 23.778 13.8587 23.9158 13.8969L27.0538 14.7473H27.0626C27.0684 14.7473 27.0713 14.7503 27.0743 14.7503L27.4877 14.8646L27.9423 14.9937L28.1095 15.0406V13.1755C28.1095 12.2751 28.8309 11.5449 29.7224 11.5449C30.1682 11.5449 30.5729 11.7267 30.8632 12.0229C31.1535 12.3191 31.3353 12.7238 31.3353 13.1755V15.9438L31.6697 16.0376C31.696 16.0465 31.7224 16.0582 31.7459 16.0758C31.828 16.1374 31.9453 16.2283 32.0949 16.3397C32.2122 16.4335 32.3383 16.5479 32.4908 16.6653C32.7928 16.9086 33.1535 17.2224 33.5494 17.5832C33.655 17.6741 33.7576 17.7679 33.8515 17.8618C34.3618 18.3368 34.9336 18.894 35.4791 19.5099C35.6316 19.6829 35.7812 19.8588 35.9336 20.0436C36.0861 20.2313 36.2474 20.416 36.3882 20.6008C36.573 20.8471 36.7724 21.1023 36.9454 21.3691C37.0275 21.4953 37.1213 21.6243 37.2005 21.7504C37.4234 22.0876 37.6199 22.4366 37.8076 22.7856C37.8868 22.9469 37.9689 23.1228 38.0393 23.2958C38.2475 23.7621 38.4117 24.2372 38.5172 24.7123C38.5495 24.8149 38.573 24.9264 38.5847 25.0261V25.0496C38.6199 25.1903 38.6316 25.3399 38.6434 25.4923C38.6903 25.9792 38.6668 26.466 38.5613 26.9557C38.5172 27.164 38.4586 27.3604 38.3882 27.5687C38.3178 27.7681 38.2474 27.9763 38.1566 28.1728C37.9806 28.5804 37.7724 28.988 37.526 29.3693C37.4469 29.51 37.353 29.6596 37.2592 29.8004C37.1565 29.9499 37.051 30.0907 36.9571 30.2285C36.8281 30.4045 36.6903 30.5892 36.5495 30.7535C36.4234 30.9265 36.2944 31.0995 36.1536 31.252C35.9571 31.4837 35.7694 31.7036 35.5729 31.9148C35.4557 32.0526 35.3295 32.1934 35.2005 32.3195C35.0744 32.4602 34.9453 32.5863 34.828 32.7036C34.6316 32.9001 34.4674 33.0526 34.3295 33.1787L34.0069 33.4749C33.96 33.516 33.8984 33.5394 33.8339 33.5394H31.3353V36.7448H34.4791C35.1829 36.7448 35.8516 36.4955 36.3911 36.038C36.5759 35.8767 37.3823 35.1788 38.3354 34.1259C38.3677 34.0907 38.4088 34.0644 38.4557 34.0526L47.1391 31.5423C47.3004 31.4954 47.4646 31.6186 47.4646 31.7887Z" fill="black"/>
<g clip-path="url(#clip1_4794_429)">
<path d="M58.3218 11.5113C56.2211 12.4431 53.9639 13.0728 51.5948 13.3561C54.0132 11.9061 55.8701 9.6101 56.7445 6.87438C54.4455 8.23909 51.9302 9.20061 49.3073 9.7174C47.1708 7.44053 44.1271 6.01758 40.7582 6.01758C34.29 6.01758 29.0457 11.2633 29.0457 17.7331C29.0457 18.6515 29.1494 19.5456 29.349 20.4033C19.6152 19.9145 10.9852 15.2504 5.20841 8.16216C4.20047 9.8925 3.6229 11.9053 3.6229 14.0521C3.6229 18.1168 5.69076 21.7027 8.83324 23.8037C6.97333 23.7455 5.15434 23.243 3.52813 22.3382C3.52746 22.3873 3.52746 22.4363 3.52746 22.4856C3.52746 28.1621 7.56461 32.8974 12.9223 33.9737C11.1977 34.4429 9.38857 34.5115 7.63329 34.1744C9.12358 38.829 13.4491 42.216 18.574 42.3109C14.5656 45.453 9.51539 47.3261 4.02831 47.3261C3.0828 47.3261 2.15067 47.2706 1.23438 47.1624C6.41751 50.4865 12.5738 52.4261 19.1879 52.4261C40.731 52.4261 52.5113 34.5737 52.5113 19.0919C52.5113 18.5837 52.5002 18.0785 52.4774 17.5761C54.7704 15.918 56.7494 13.8643 58.3218 11.5113Z" fill="white"/>
</g>
</g>
<defs>
<clipPath id="clip0_4794_429">
<rect width="57.0874" height="57.0874" fill="white" transform="translate(0.28125 0.126953)"/>
</clipPath>
<clipPath id="clip1_4794_429">
<rect width="57.0874" height="46.6214" fill="white" transform="translate(1.23438 5.83594)"/>
</clipPath>
</defs>
</svg>
