<svg width="60" height="88" viewBox="0 0 60 88" fill="none" xmlns="http://www.w3.org/2000/svg">
<path d="M55.7935 28.2258L58.9828 73.1454C58.9868 73.2017 58.9913 73.2494 58.9946 73.3057C59.0559 74.3738 59.0935 86.3595 29.8804 86.3595C1.85549 86.3595 1.93772 75.1512 2.00441 74.1215C2.00803 74.0657 2.01307 74.018 2.01763 73.9623L5.11303 36.0702L5.59418 27.8345C5.84549 23.533 5.84545 21.7176 10.4769 21.6686C12.3295 21.649 12.5432 21.6684 13.897 21.6684L48.5231 21.7176C52.8011 21.7176 55.4958 24.5521 55.7935 28.2258Z" fill="#FFCC5A" stroke="black" stroke-width="1.65702" stroke-miterlimit="10"/>
<path d="M1.29665 21.6625H6.0751C8.42983 21.6625 10.3767 23.6211 10.0116 25.9474C9.53289 28.9978 8.66119 30.7138 7.79723 31.6765C6.69737 32.9022 5.36487 31.5068 4.06829 30.4915L1.67299 29.0341C1.47962 28.9194 1.49002 28.6456 1.68755 28.5409L5.15575 26.7091L5.68595 26.4454C6.25062 26.111 6.16304 25.7288 5.83463 25.4493C5.83121 25.4464 5.82734 25.4439 5.82411 25.4408C5.82103 25.4378 5.81751 25.4356 5.8142 25.4329C4.63896 24.4692 2.19316 22.8684 1.37237 22.3371C1.18821 22.2179 0.94489 22.0682 1.01487 21.8603C1.05172 21.7508 1.15468 21.6625 1.29665 21.6625Z" fill="#FFCC5A"/>
<path d="M12.7567 21.6625H1.29665C1.15468 21.6625 1.05172 21.7508 1.01487 21.8603C0.94489 22.0682 1.18821 22.2179 1.37237 22.3371C2.19316 22.8684 4.63896 24.4692 5.8142 25.4329C5.81751 25.4356 5.82103 25.4378 5.82411 25.4408V25.4408C5.82734 25.4439 5.8312 25.4464 5.83463 25.4493C6.16304 25.7288 6.25062 26.111 5.68595 26.4454L5.15574 26.7091L1.68755 28.5409C1.49002 28.6456 1.47962 28.9194 1.67299 29.0341L4.06829 30.4915C5.15574 31.343 5.30961 31.5443 5.30961 32.885" stroke="black" stroke-width="1.65734" stroke-miterlimit="10"/>
<path d="M4.92751 46.4919L5.79493 50.4486C5.85954 50.7432 5.89212 51.044 5.89212 51.3457V53.4569C5.89212 54.4589 6.25119 55.4276 6.90421 56.1875L8.32315 57.8386C8.80057 58.3941 9.41532 58.8148 10.1061 59.0586L13.5743 60.2828C14.1629 60.4906 14.7906 60.5642 15.4113 60.4982L20.1967 59.9898C20.9764 59.907 21.7171 59.607 22.3347 59.124L25.7885 56.4234C26.3559 55.9797 26.7908 55.389 27.046 54.7155L27.1376 54.4736C27.7359 52.8947 29.3471 51.94 31.0194 52.1735C31.8919 52.2953 32.69 52.7315 33.2637 53.4001L36.2854 56.9217L38.5164 58.9985C39.122 59.5622 39.8808 59.934 40.6973 60.067L43.6243 60.5439C43.847 60.5802 44.0723 60.5984 44.298 60.5984H47.5429C48.2516 60.5984 48.9486 60.4186 49.5689 60.076L51.3307 59.1026C51.8276 58.8281 52.2636 58.4554 52.6121 58.0072L54.2537 55.8958C54.7051 55.3154 54.9957 54.6264 55.0964 53.898L55.648 49.9077C55.6793 49.6818 55.7289 49.4588 55.7964 49.2409L56.1985 47.9441C56.7826 46.0599 55.9662 44.0195 54.2478 43.0505C53.6198 42.6963 52.9087 42.509 52.1877 42.509H45.9646C45.5329 42.509 45.1037 42.5757 44.6924 42.7068L39.2047 44.4559C38.6683 44.6269 38.1719 44.9042 37.745 45.2714L34.9585 47.6682C34.7403 47.8559 34.542 48.0656 34.3668 48.294L33.3955 49.5598C32.7511 50.3996 31.7529 50.8919 30.6944 50.8919C29.4161 50.8919 28.2456 50.1758 27.6634 49.0378L27.3283 48.3827C26.8931 47.532 26.1801 46.8555 25.3077 46.4657L21.3897 44.715L15.0892 42.7068C14.6778 42.5757 14.2487 42.509 13.8169 42.509H8.13182C7.27475 42.509 6.45173 42.8444 5.83882 43.4435C5.02963 44.2344 4.68519 45.3866 4.92751 46.4919Z" fill="white" stroke="black" stroke-width="0.224503"/>
<path d="M58.8273 42.2749C58.7761 41.2601 53.2783 41.219 52.2642 41.219C44.5846 41.219 37.5671 42.5338 32.4393 48.09C31.4974 49.1107 29.6347 49.1107 28.6928 48.09C19.945 38.61 2.36803 41.2366 2.30483 42.5043C2.034 47.8959 4.01408 61.2879 15.2626 61.5468C26.6315 61.8085 26.9264 52.555 30.1884 52.555C30.3329 52.555 30.8023 52.555 30.9467 52.555C34.2087 52.555 34.5067 61.8085 45.8725 61.5468C55.9445 61.3114 59.2065 49.8225 58.8273 42.2749ZM15.6869 60.3614C8.25108 60.3614 5.99716 53.0521 5.99716 45.8428C5.99716 43.4456 6.48767 43.5515 12.3226 43.5515C18.4494 43.5515 26.7398 45.1957 26.7398 51.0755C26.7428 56.9023 21.594 60.3614 15.6869 60.3614ZM45.4392 60.3614C39.5321 60.3614 34.3833 56.9023 34.3833 51.0755C34.3833 43.925 46.5496 42.9573 53.8229 43.7162C54.2051 43.7574 54.7167 43.9191 54.8702 44.3221C55.469 45.8634 55.7669 60.3614 45.4392 60.3614Z" fill="black" stroke="black" stroke-width="0.449006"/>
<path d="M37.7725 69.935C33.6496 69.935 28.3386 73.0798 23.0499 71.2308C17.446 69.2716 23.0499 77.945 30.7685 77.945C41.4889 77.945 42.2036 69.935 37.7725 69.935Z" fill="white" stroke="black" stroke-width="1.43036"/>
<path d="M16.6251 9.98424C18.5376 9.67653 19.0877 6.58852 17.9851 4.99597C17.2475 3.93067 16.6016 3.05962 16.0572 3.06548C15.3683 3.0729 14.8245 4.59024 14.1713 6.31291C13.5236 8.02101 14.8216 10.2744 16.6251 9.98424Z" fill="#DAA640" stroke="black" stroke-width="1.63338"/>
<path d="M42.3484 11.2024C44.3842 11.6258 45.5342 8.78621 44.813 6.83601C44.2434 5.29562 43.781 3.98434 43.2003 3.99059C42.5525 3.99756 41.7064 5.24144 40.7629 6.66578C39.7127 8.25116 40.4866 10.8152 42.3484 11.2024Z" fill="#D9A640" stroke="black" stroke-width="1.63338"/>
<path d="M4.95829 6.94676L4.9581 6.94576C4.95295 6.9184 4.94957 6.7826 5.17338 6.62963C5.39937 6.47517 5.61665 6.48001 5.71721 6.52638C6.1932 6.74589 6.63977 6.94422 7.08149 7.1404C7.70218 7.41606 8.3133 7.68747 8.98301 8.00741L8.98344 8.00761C11.6403 9.27531 14.3883 9.74403 17.3936 9.21944L17.3952 9.21916C20.6788 8.64053 23.8785 7.69451 26.6771 5.52094C27.547 4.84646 28.2935 4.08275 28.9784 3.30369C29.1722 3.08313 29.3338 3.04212 29.3997 3.03943C29.4326 3.03809 29.4642 3.04378 29.5002 3.06141C29.5373 3.07956 29.5984 3.12015 29.6712 3.21148C32.7756 7.20528 36.8844 9.27161 41.7814 9.99769C44.6022 10.4181 47.3576 10.3169 50.0584 9.08298L50.0601 9.08216C51.2624 8.53009 52.4442 7.92657 53.6053 7.33361C53.8919 7.18725 54.1772 7.04154 54.4613 6.89739C54.5805 6.8382 54.6956 6.85577 54.7868 6.92299C54.8759 6.98859 54.9176 7.08125 54.8952 7.20015C54.6056 8.7368 54.3237 10.2073 53.9836 11.66L53.983 11.6625C53.6574 13.0697 53.2939 14.4684 52.9264 15.8823C52.8966 15.997 52.8668 16.1118 52.8369 16.2266C52.4407 17.7525 52.0436 19.2961 51.6982 20.8562C51.5831 21.3702 51.4262 21.602 51.2815 21.7325C51.1287 21.8702 50.8691 22.0035 50.3436 22.0939L50.3414 22.0943C46.5054 22.7635 42.6385 23.2695 38.7551 23.7002L38.7547 23.7002C32.9487 24.3463 27.1304 24.3571 21.3165 23.8464C17.1639 23.4803 13.0739 22.5214 8.94684 21.4734C8.86328 21.4521 8.82155 21.4316 8.80483 21.4221C8.79654 21.4173 8.79286 21.4144 8.792 21.4137L8.79003 21.4118C8.78633 21.4075 8.74471 21.3583 8.68699 21.1464L8.68636 21.1441C8.32829 19.8416 7.95655 18.5549 7.58695 17.2756C6.59251 13.8336 5.61359 10.4453 4.95829 6.94676Z" fill="#030101" stroke="black" stroke-width="2.03914"/>
<path d="M9.43185 22.4529C13.493 23.5022 17.5825 24.4803 21.7527 24.8549C27.528 25.3717 33.3151 25.3626 39.0953 24.7095C42.9314 24.2782 46.7492 23.7704 50.5478 23.0973C51.7715 22.8832 52.4109 22.3623 52.6875 21.0772C53.3575 17.9977 54.2313 14.9691 54.9303 11.8952C55.3317 10.1316 56.3699 6.97085 56.512 5.50659C56.5668 4.94173 56.0361 4.71807 55.547 5.00598C55.0979 5.27035 54.5252 5.66242 53.9719 5.99127C52.5925 6.81116 51.1292 7.48123 49.6781 8.15859C47.2499 9.28959 44.7583 9.39323 42.1044 8.9905C37.5008 8.29562 33.7937 5.95139 30.9236 2.19506C30.5876 1.75555 30.414 1.18676 29.715 1.30129C29.0279 1.41387 27.6502 3.85293 26.3625 4.67811C23.7986 6.69682 20.9689 7.64646 17.8083 8.21224C15.0768 8.6966 12.5853 8.27439 10.1437 7.08357C8.69677 6.38048 6.29474 4.63392 5.03177 4.11082C4.48355 3.88377 4.15101 4.40808 4.26947 4.98951C4.40457 5.65268 4.64715 6.5375 4.76956 7.12962C5.69242 11.594 7.17315 16.6634 8.46185 21.4057C8.60132 21.9478 8.81423 22.2941 9.43185 22.4529Z" fill="#EEDB49" stroke="black" stroke-width="1.63338"/>
<path d="M29.9625 19.9034C31.8008 19.6044 33.143 17.9015 33.1078 15.9076C33.0772 14.9839 32.9094 14.0817 32.3992 13.2828C31.7073 12.2 30.6311 11.8061 29.3913 12.1652C27.7198 12.6418 26.7447 13.9818 26.8181 15.6895C26.8642 16.7792 27.1434 17.8198 27.6486 18.7916C28.175 19.8229 28.7963 20.0888 29.9625 19.9034Z" fill="#F04F48" stroke="black" stroke-width="1.1667"/>
<path d="M43.6914 19.4942C45.012 19.181 45.5437 18.4662 45.4949 16.9651C45.4769 16.8124 45.4662 16.5831 45.423 16.3611C45.0331 14.3075 43.237 13.722 41.2813 15.0153C41.1272 15.1212 40.9814 15.241 40.8437 15.3606C39.6937 16.3324 39.5162 17.3076 40.2797 18.3908C41.0183 19.4326 42.2485 19.8295 43.6914 19.4942Z" fill="#EF4E47" stroke="black" stroke-width="1.1667"/>
<path d="M18.8503 19.3108C19.7224 18.9887 20.1622 18.0915 20.1333 16.8485C20.0954 15.4835 19.3382 14.2484 18.4059 14.0219C17.5746 13.8173 16.4138 14.6841 15.8766 15.8875C15.4607 16.8378 15.691 18.0786 16.4271 18.7953C17.1161 19.4592 17.9395 19.641 18.8503 19.3108Z" fill="#EE4E47" stroke="black" stroke-width="1.1667"/>
</svg>
