<svg width="81" height="84" viewBox="0 0 81 84" fill="none" xmlns="http://www.w3.org/2000/svg">
<path d="M64.7104 22.495L67.7851 65.8334C67.7851 65.8334 69.1968 78.4772 39.7752 78.4772C11.5095 78.4772 12.9573 66.6193 12.9573 66.6193L15.9425 30.0491L16.4055 22.1182C16.5784 19.1554 18.3585 16.983 20.4183 16.2276C21.9953 16.2275 23.3916 16.1869 24.4171 16.2277H57.7143C61.3774 16.2277 64.4239 18.9572 64.7104 22.495Z" fill="#B1B1B1" stroke="black" stroke-width="1.59397" stroke-miterlimit="10"/>
<path d="M22.8862 17.0439C21.9379 17.8126 21.5972 27.3204 21.5972 32.1334C20.5956 33.3873 16.375 36.1524 16.2355 36.859C16.0078 38.0126 15.2065 47.2742 15.207 47.9663C15.2073 48.3722 19.7756 54.9287 19.7756 55.8137C19.7756 56.6988 19.6755 69.5744 19.7756 70.3488C19.8758 71.1232 24.3081 76.6084 26.2653 77.0395C28.9978 77.6414 45.0513 79.1159 55.0705 76.5781C56.1393 76.3074 60.4903 71.1232 60.991 70.3488C61.4917 69.5744 60.8774 55.6768 61.2189 54.9846C61.6818 54.0468 65.5454 48.9698 65.5454 48.0848C65.5454 47.1997 65.2039 38.7408 64.8623 37.2412C64.579 35.9974 59.6597 32.7422 59.6597 32.1573C59.6597 31.4714 59.7163 17.2546 58.6765 17.0439C57.538 16.8132 50.522 16.8383 49.4204 16.8383C48.3188 16.8383 46.9325 23.9309 45.9624 24.3026C44.71 24.7826 37.3737 24.3026 35.7714 24.3026C34.169 24.3026 33.0728 17.2358 31.9366 17.0439C30.5704 16.8132 23.4555 16.5825 22.8862 17.0439Z" fill="#E0E0E0"/>
<path d="M48.5812 78.1284C49.5281 77.9463 57.139 70.2098 57.5758 69.4637C58.0125 68.7176 57.4463 58.8162 58.145 58.1767L66.2188 47.7606M31.2752 77.7864C29.5682 77.3711 23.0511 70.2098 22.9638 69.4637C22.8764 68.7176 22.8499 58.1767 22.6222 58.1767L14.6523 48.0298" stroke="#B1B1B1" stroke-width="1.36626"/>
<path d="M64.7101 22.495L67.7848 65.8334C67.7848 65.8334 69.1964 78.4772 39.7749 78.4772C11.5092 78.4772 12.957 66.6193 12.957 66.6193L15.9421 30.0491L16.4051 22.1182C16.6067 18.665 18.9095 16.0155 21.4464 16.2276C22.612 16.2277 23.6404 16.2275 24.4167 16.2277H57.714C61.762 16.4267 64.4236 18.9573 64.7101 22.495Z" stroke="black" stroke-width="1.60165" stroke-miterlimit="10"/>
<path d="M12.2706 16.084H21.002C20.7149 27.5752 16.1321 26.8831 16.1321 26.8831C16.1321 25.593 15.984 25.3993 14.9376 24.5799L12.6327 23.1775C12.4466 23.0671 12.4566 22.8036 12.6467 22.7029L15.984 20.9402L16.4942 20.6865C17.0404 20.363 16.9524 19.993 16.6323 19.7237C16.6283 19.7218 16.6263 19.7179 16.6223 19.716C15.2537 18.5925 12.0785 16.5625 12.0785 16.5625C11.8864 16.392 12.0105 16.084 12.2706 16.084Z" fill="#B1B1B1"/>
<path d="M23.2979 16.2212H17.7841H12.2703C12.0102 16.2212 11.8862 16.5292 12.0782 16.6996C12.0782 16.6996 15.2535 18.7297 16.622 19.8531C16.626 19.8551 16.628 19.859 16.632 19.8609C16.9522 20.1301 17.0402 20.5001 16.494 20.8236L15.9838 21.0774L12.6465 22.8401C12.4564 22.9408 12.4464 23.2042 12.6325 23.3146L14.9374 24.7171C15.9838 25.5364 16.1318 25.7301 16.1318 27.0202" stroke="black" stroke-width="1.60165" stroke-miterlimit="10"/>
<path d="M47.3692 62.6724C43.4018 62.6724 38.2913 65.6985 33.2021 63.9193C27.8097 62.034 33.2022 70.3801 40.6295 70.3801C50.9453 70.3801 51.633 62.6724 47.3692 62.6724Z" fill="white" stroke="black" stroke-width="1.37638"/>
<path d="M63.6829 25.404L58.049 18.6361C77.4323 27.0094 73.1556 31.2066 73.1556 60.6748L68.5116 75.1874L39.8771 81.256V79.6933L39.6569 81.256L24.8062 75.8571L13.2423 70.8342L6.93848 60.6748C8.72813 38.3504 3.78376 17.7639 32.2952 17.3655C28.7709 18.2962 22.1898 21.0024 20.1634 21.5382C18.137 22.074 18.0709 23.7707 17.4631 27.3426L13.6084 67.1916C13.684 66.4103 14.2114 68.1776 14.5639 68.7133C15.0044 69.3831 20.0063 71.7564 24.8062 74.1828C29.7449 76.6795 37.9314 79.7305 39.8771 79.6933L51.8816 74.7819L67.5376 68.0436L63.6829 25.404Z" fill="#D9D9D9"/>
<path d="M37.583 17.3655H32.2952M32.2952 17.3655C3.78376 17.7639 8.72813 38.3504 6.93848 60.6748L13.2423 70.8342L24.8062 75.8571L39.6569 81.256L39.8771 79.6933M32.2952 17.3655C28.7709 18.2962 22.1898 21.0024 20.1634 21.5382C18.137 22.074 18.0709 23.7707 17.4631 27.3426L13.6084 67.1916C13.684 66.4103 14.2114 68.1775 14.5639 68.7133C15.0044 69.3831 20.0063 71.7564 24.8062 74.1828C29.7449 76.6795 37.9314 79.7305 39.8771 79.6933M39.8771 79.6933L51.8816 74.7819L67.5376 68.0436L63.6829 25.404L58.049 18.6361C77.4323 27.0094 73.1556 31.2066 73.1556 60.6748L68.5116 75.1874L39.8771 81.256V79.6933Z" stroke="black" stroke-width="1.35429"/>
<path d="M40.7763 1.07069C49.6772 0.888873 56.434 0.458629 65.2249 8.66094C74.0157 16.8632 80.3818 55.2971 79.9822 60.9C79.4648 68.1554 76.2377 74.5082 70.5108 76.5271C66.4579 77.9559 41.8182 83.8955 40.5548 81.885C39.0116 79.4293 62.5234 71.0636 66.2154 68.0438C72.493 62.9092 69.7411 47.9505 68.8601 41.0299C68.1414 35.3851 64.1244 22.6123 56.5252 19.7101C51.9163 17.9499 30.0935 16.9196 22.7146 21.3845C15.3001 25.8709 11.0077 36.8212 10.2683 46.5008C8.94675 63.8022 14.2314 67.9028 16.9862 69.9414C21.6118 73.3645 39.4533 79.6525 39.4533 81.3269C39.4533 84.2342 25.2109 81.2883 19.6309 80.7673C4.47666 78.8028 0.706794 67.0392 1.01734 62.4627C1.01734 41.0299 7.5348 17.6446 16.3256 9.44229C25.1086 1.23998 31.023 1.26991 40.7763 1.07069Z" fill="white" stroke="black" stroke-width="1.58"/>
<path d="M28.9659 80.3175C28.9391 80.307 28.9126 80.2919 28.8876 80.2727C28.7446 80.1585 28.7214 79.9323 28.8372 79.7683C28.8648 79.7288 29.5261 78.7946 30.4105 78.7582C30.9347 78.7366 31.4054 79.0245 31.808 79.6131C31.9144 79.768 31.8793 79.9966 31.7286 80.1234C31.5793 80.2506 31.3726 80.2265 31.2661 80.0715C30.9908 79.668 30.6963 79.4694 30.3901 79.4819C29.8416 79.505 29.3592 80.1755 29.3542 80.1814C29.2597 80.3191 29.1001 80.37 28.9659 80.3175Z" fill="#F0F0F0" stroke="white" stroke-width="1.12857"/>
<path d="M50.7781 79.6893C50.6478 79.7479 50.4859 79.705 50.3843 79.574C50.3784 79.567 49.8648 78.9194 49.3122 78.9252C49.0076 78.9287 48.7231 79.1417 48.4682 79.5565C48.3693 79.7165 48.1647 79.749 48.0087 79.6312C47.8534 79.5115 47.8072 79.285 47.9048 79.1255C48.2785 78.5177 48.7336 78.2072 49.2593 78.2023C50.1445 78.1948 50.8501 79.095 50.8796 79.1331C51.0019 79.2917 50.9908 79.5183 50.8535 79.6394C50.8301 79.6611 50.8044 79.6775 50.7781 79.6893Z" fill="#F0F0F0" stroke="white" stroke-width="1.12857"/>
<path d="M44.4691 40.926C44.7755 42.2998 45.5811 43.499 46.207 44.7598C46.6591 45.6715 47.0217 46.627 47.515 47.5165C47.9887 48.37 48.5793 49.1543 49.2085 49.9007C51.4404 52.5502 54.3949 54.8507 57.8394 55.2135C58.7214 55.3063 59.6133 55.2697 60.4966 55.1906C61.2369 55.1246 61.9837 55.0272 62.6775 54.7612C64.1541 54.1952 65.2622 52.9057 65.9417 51.4777C66.6212 50.0497 66.9237 48.4759 67.2112 46.9204C67.5078 45.3133 67.794 43.6565 67.4569 42.0579C67.3288 41.4495 67.1112 40.8619 66.8479 40.2986C66.435 39.4156 65.9019 38.5817 65.2093 37.8961C63.5426 36.2458 61.1297 35.6079 58.8038 35.304C56.2668 34.9727 53.688 34.9616 51.1477 35.2701C48.1109 35.6393 43.5831 36.9497 44.4691 40.926Z" fill="#263238"/>
<path d="M22.1606 35.9568C19.8565 35.9568 16.5523 36.7625 16.1152 37.8893C15.0995 38.7143 13.7683 37.8893 13.2419 44.0582C13.7681 46.6596 13.2422 45.5447 13.9848 47.6258C13.7683 47.9974 14.6689 48.9628 13.9848 49.038C14.582 50.3209 14.9633 51.3757 15.5605 52.6587C15.716 52.992 15.8741 53.3305 16.1152 53.6083C16.5954 54.1632 17.3337 54.405 18.0347 54.6233C19.0736 54.9468 20.1275 55.2729 21.2146 55.3089C22.1555 55.3396 23.0891 55.152 24.0045 54.9311C24.9597 54.7004 25.911 54.4318 26.8009 54.0142C28.7172 53.1162 30.2552 51.577 31.6331 49.9706C32.9856 48.3935 34.2374 46.7021 35.0672 44.7976C35.8976 42.8932 36.2864 40.7508 35.8754 38.7143C35.7872 38.279 35.6565 37.8366 35.3736 37.4948C35.0411 37.0922 34.5399 36.8758 34.0584 36.6739C32.7942 36.1452 31.5162 35.6282 30.1859 35.287C29.334 35.0687 26.9936 34.4243 26.2808 35.0897C27.2099 35.7779 21.9718 34.7608 22.1606 35.9568Z" fill="#263238"/>
<path d="M67.5076 41.1272C67.1561 39.7123 66.3871 38.3483 65.2489 37.4209C63.0425 35.6236 59.5078 35.0746 56.7715 34.7419C55.1447 34.5439 53.4897 34.5008 51.8589 34.6616C51.8759 34.638 51.8896 34.6125 51.8962 34.5825C51.5597 34.3211 51.0971 34.3106 50.6718 34.3269C49.4304 34.3746 48.1988 34.555 46.9646 34.7021C42.3591 35.2498 37.4674 34.9452 32.8448 34.5629C31.6629 34.4648 30.807 34.3315 29.7009 34.7589C27.8074 34.4897 25.8696 34.5106 23.9696 34.7419C21.2333 35.0746 17.6986 35.6243 15.4922 37.4209C14.3534 38.3483 13.5851 39.7123 13.2336 41.1272C12.707 43.2493 12.9886 45.4832 13.3845 47.6334C13.6406 49.0255 13.9464 50.4183 14.4959 51.7228C15.0989 53.1547 16.0561 54.5174 17.4569 55.1893C18.0534 55.4755 18.7068 55.6252 19.3614 55.7239C22.7008 56.2265 26.223 55.3905 28.9809 53.4403C30.7992 52.1548 32.2705 50.4241 33.4616 48.5425C34.6756 46.6256 35.6157 44.9822 36.2482 42.8032C36.4331 42.5718 36.6245 42.3463 36.8277 42.13C37.5216 41.3928 38.3514 41.0568 39.3085 40.7281C40.3415 40.3732 41.4993 40.3941 42.5185 40.7862C43.1405 41.0254 43.7808 41.4137 44.2492 41.8875C44.2238 41.7856 44.2728 41.9915 44.2492 41.8875C44.8706 44.3966 45.899 46.359 47.2815 48.5425C48.4732 50.4241 49.9446 52.1548 51.7622 53.4403C54.5201 55.3905 58.0417 56.2265 61.3817 55.7239C62.0363 55.6252 62.689 55.4755 63.2862 55.1893C64.687 54.5174 65.6435 53.1547 66.2472 51.7228C66.7967 50.4183 67.1025 49.0255 67.3586 47.6334C67.7526 45.4832 68.0342 43.2493 67.5076 41.1272ZM32.5783 48.0138C31.4904 49.6889 30.1471 51.2293 28.4869 52.3737C25.9689 54.1096 22.753 54.854 19.7045 54.4063C19.1073 54.3187 18.5108 54.1854 17.9659 53.9305C16.6872 53.3325 15.813 52.1195 15.2623 50.845C14.7605 49.6837 14.4815 48.4438 14.2476 47.2047C13.8863 45.2904 13.6289 43.3016 14.1104 41.4128C14.4312 40.1528 15.1329 38.9385 16.173 38.1124C18.1874 36.5124 21.4143 36.0236 23.9134 35.7275C26.8254 35.3824 29.8355 35.5641 32.5881 36.6092C33.7484 37.0497 34.9343 37.7248 35.3903 38.8542C35.7523 39.7489 35.5844 40.758 35.3472 41.6919C34.7801 43.9258 33.8412 46.0695 32.5783 48.0138ZM44.2009 38.7001C44.0552 39.0694 43.9886 39.4556 43.9748 39.8491C42.5185 39.4501 42.1075 39.1942 40.7106 39.27C38.6608 39.3812 37.7689 39.8491 36.7663 40.1883C36.7846 39.6785 36.7278 38.7293 36.5409 38.2542C36.0411 36.9856 34.7422 36.2268 33.4714 35.7321C33.3074 35.668 33.1428 35.6079 32.9768 35.5497C33.2048 35.5654 33.4329 35.5818 33.6609 35.5955C35.1218 35.6837 36.5853 35.7341 38.0489 35.7478C40.9446 35.7746 43.8416 35.6563 46.7255 35.3922C47.5258 35.319 48.3256 35.2347 49.124 35.1387C48.4974 35.2994 47.8787 35.4962 47.2717 35.7321C45.9996 36.2275 44.7007 37.4316 44.2009 38.7001ZM66.4929 47.204C66.259 48.4432 65.98 49.6837 65.4782 50.8444C64.9274 52.1195 64.0539 53.3318 62.7746 53.9298C62.2297 54.1847 61.6332 54.3181 61.036 54.4056C57.9868 54.8533 54.771 54.1089 52.2536 52.3731C50.5934 51.2287 49.2501 49.6882 48.1622 48.0132C46.8993 46.0688 45.9604 43.9258 45.3933 41.6919C45.1561 40.7586 44.9888 39.7489 45.3502 38.8542C45.8069 37.7248 46.9927 37.0497 48.1531 36.6092C50.905 35.5641 53.9157 35.3818 56.8277 35.7275C59.3268 36.0242 62.5538 36.5131 64.5681 38.1124C65.6076 38.9378 66.31 40.1521 66.6308 41.4122C67.1116 43.301 66.8542 45.2898 66.4929 47.204Z" fill="#101011"/>
<path d="M44.2492 41.8875C43.7808 41.4137 43.1405 41.0254 42.5185 40.7862C41.4993 40.3941 40.3415 40.3732 39.3085 40.7281C38.3514 41.0568 37.5216 41.3928 36.8277 42.13C36.6245 42.3463 36.4331 42.5718 36.2482 42.8032C35.6157 44.9822 34.6756 46.6256 33.4616 48.5425C32.2705 50.4241 30.7992 52.1548 28.9809 53.4403C26.223 55.3905 22.7008 56.2265 19.3614 55.7239C18.7068 55.6252 18.0534 55.4755 17.4569 55.1893C16.0561 54.5174 15.0989 53.1547 14.4959 51.7228C13.9464 50.4183 13.6406 49.0255 13.3845 47.6334C12.9886 45.4832 12.707 43.2493 13.2336 41.1272C13.5851 39.7123 14.3534 38.3483 15.4922 37.4209C17.6986 35.6243 21.2333 35.0746 23.9696 34.7419C25.8696 34.5106 27.8074 34.4897 29.7009 34.7589C30.807 34.3315 31.6629 34.4648 32.8448 34.5629C37.4674 34.9452 42.3591 35.2498 46.9646 34.7021C48.1988 34.555 49.4304 34.3746 50.6718 34.3269C51.0971 34.3106 51.5597 34.3211 51.8962 34.5825C51.8896 34.6125 51.8759 34.638 51.8589 34.6616C53.4897 34.5008 55.1447 34.5439 56.7715 34.7419C59.5078 35.0746 63.0425 35.6236 65.2489 37.4209C66.3871 38.3483 67.1561 39.7123 67.5076 41.1272C68.0342 43.2493 67.7526 45.4832 67.3586 47.6334C67.1025 49.0255 66.7967 50.4183 66.2472 51.7228C65.6435 53.1547 64.687 54.5174 63.2862 55.1893C62.689 55.4755 62.0363 55.6252 61.3817 55.7239C58.0417 56.2265 54.5201 55.3905 51.7622 53.4403C49.9446 52.1548 48.4732 50.4241 47.2815 48.5425C45.899 46.359 44.8706 44.3966 44.2492 41.8875ZM44.2492 41.8875C44.2728 41.9915 44.2238 41.7856 44.2492 41.8875ZM32.5783 48.0138C31.4904 49.6889 30.1471 51.2293 28.4869 52.3737C25.9689 54.1096 22.753 54.854 19.7045 54.4063C19.1073 54.3187 18.5108 54.1854 17.9659 53.9305C16.6872 53.3325 15.813 52.1195 15.2623 50.845C14.7605 49.6837 14.4815 48.4438 14.2476 47.2047C13.8863 45.2904 13.6289 43.3016 14.1104 41.4128C14.4312 40.1528 15.1329 38.9385 16.173 38.1124C18.1874 36.5124 21.4143 36.0236 23.9134 35.7275C26.8254 35.3824 29.8355 35.5641 32.5881 36.6092C33.7484 37.0497 34.9343 37.7248 35.3903 38.8542C35.7523 39.7489 35.5844 40.758 35.3472 41.6919C34.7801 43.9258 33.8412 46.0695 32.5783 48.0138ZM44.2009 38.7001C44.0552 39.0694 43.9886 39.4556 43.9748 39.8491C42.5185 39.4501 42.1075 39.1942 40.7106 39.27C38.6608 39.3812 37.7689 39.8491 36.7663 40.1883C36.7846 39.6785 36.7278 38.7293 36.5409 38.2542C36.0411 36.9856 34.7422 36.2268 33.4714 35.7321C33.3074 35.668 33.1428 35.6079 32.9768 35.5497C33.2048 35.5654 33.4329 35.5818 33.6609 35.5955C35.1218 35.6837 36.5853 35.7341 38.0489 35.7478C40.9446 35.7746 43.8416 35.6563 46.7255 35.3922C47.5258 35.319 48.3256 35.2347 49.124 35.1387C48.4974 35.2994 47.8787 35.4962 47.2717 35.7321C45.9996 36.2275 44.7007 37.4316 44.2009 38.7001ZM66.4929 47.204C66.259 48.4432 65.98 49.6837 65.4782 50.8444C64.9274 52.1195 64.0539 53.3318 62.7746 53.9298C62.2297 54.1847 61.6332 54.3181 61.036 54.4056C57.9868 54.8533 54.771 54.1089 52.2536 52.3731C50.5934 51.2287 49.2501 49.6882 48.1622 48.0132C46.8993 46.0688 45.9604 43.9258 45.3933 41.6919C45.1561 40.7586 44.9889 39.7489 45.3502 38.8542C45.8069 37.7248 46.9927 37.0497 48.1531 36.6092C50.905 35.5641 53.9157 35.3818 56.8277 35.7275C59.3268 36.0242 62.5538 36.5131 64.5681 38.1124C65.6076 38.9378 66.31 40.1521 66.6308 41.4122C67.1116 43.301 66.8542 45.2898 66.4929 47.204Z" stroke="black" stroke-width="0.451453"/>
</svg>
