<svg width="59" height="84" viewBox="0 0 59 84" fill="none" xmlns="http://www.w3.org/2000/svg">
<path d="M53.8466 26.6268L56.9229 69.9582C56.9229 69.9582 58.3352 82.5998 28.8985 82.5998C0.618274 82.5998 2.06683 70.7439 2.06683 70.7439L5.05353 34.1796L5.51676 26.2501C5.69255 22.6889 6.79841 20.832 9.46736 20.307L13.2406 20.3069L46.8469 20.3605C51.3847 20.3605 53.5599 23.0896 53.8466 26.6268Z" fill="#A6CBD9" stroke="black" stroke-width="1.59437" stroke-miterlimit="10"/>
<path d="M49.4442 58.4973C52.5389 62.755 52.5414 69.6651 52.5414 69.6651C52.5414 69.6651 53.8688 82.0737 28.7745 81.6225C6.41433 81.9609 6.30376 70.1164 6.30376 70.1164C5.86137 67.6346 6.866 63.2848 9.51163 59.1743C15.0801 50.5226 20.6478 47.449 30.3075 47.2173C39.3049 47.0015 44.0134 51.0258 49.4442 58.4973Z" fill="#F4F4F4"/>
<path d="M2.82103 65.5618C2.82103 65.5618 2.59895 65.0374 3.16162 64.4573C7.47812 67.1354 10.7631 64.1976 10.676 65.0374C10.676 65.0374 9.77178 67.2618 6.14742 67.0214C4.23049 66.812 3.3782 67.0024 2.82103 65.5618Z" fill="black"/>
<path d="M56.3992 65.4257C56.3992 65.4257 57.2123 64.4587 55.8367 64.457C51.5202 67.1351 48.2352 64.1973 48.3223 65.0371C48.3223 65.0371 49.2265 67.2615 52.8509 67.0211C54.7678 66.8117 55.842 66.8663 56.3992 65.4257Z" fill="black"/>
<path d="M2.25531 69.2789C2.25531 69.2789 2.25578 68.8233 2.81859 68.1093C6.47761 70.577 10.5008 67.9831 10.4137 68.823C10.4137 68.823 9.028 70.9043 5.81229 70.691C3.81636 70.5587 2.81859 70.2348 2.25531 69.2789Z" fill="black"/>
<path d="M56.7388 69.2416C56.7388 69.2416 56.7392 68.3965 56.1755 68.072C52.5165 70.5397 48.4934 67.9458 48.5804 68.7856C48.5804 68.7856 49.9661 70.8669 53.1818 70.6537C55.1778 70.5213 56.1755 70.1975 56.7388 69.2416Z" fill="black"/>
<path d="M1.38291 20.3071H10.1195C9.83221 31.8051 5.24672 31.1125 5.24672 31.1125C5.24672 29.8216 5.09858 29.6278 4.05154 28.808L1.74527 27.4047C1.55908 27.2942 1.56909 27.0306 1.75928 26.9299L5.09858 25.1661L5.60908 24.9122C6.15562 24.5885 6.06753 24.2183 5.74722 23.9489C5.74321 23.947 5.74121 23.9431 5.73721 23.9412C4.36785 22.817 1.19072 20.7858 1.19072 20.7858C0.998531 20.6152 1.12265 20.3071 1.38291 20.3071Z" fill="#A6CBD9"/>
<path d="M12.417 20.3071H6.89997H1.38291C1.12265 20.3071 0.998531 20.6152 1.19072 20.7858C1.19072 20.7858 4.36785 22.817 5.73721 23.9412C5.74121 23.9431 5.74321 23.947 5.74722 23.9489C6.06753 24.2183 6.15562 24.5885 5.60908 24.9122L5.09858 25.1661L1.75928 26.9299C1.56909 27.0306 1.55908 27.2942 1.74527 27.4047L4.05154 28.808C5.09858 29.6278 5.24672 29.8216 5.24672 31.1125" stroke="black" stroke-width="1.59574" stroke-miterlimit="10"/>
<path d="M19.0725 67.644C20.1817 69.2517 22.4991 71.345 24.7174 69.2015C26.9357 67.0579 27.9276 70.8092 29.0367 70.8092C30.9304 70.8092 31.6157 68.4646 33.4913 68.4646C35.367 68.4646 35.1325 73.3881 39.8216 67.644" stroke="black" stroke-width="1.40672" stroke-linecap="round"/>
<mask id="path-10-inside-1_1003_2117" fill="white">
<path fill-rule="evenodd" clip-rule="evenodd" d="M3.43679 16.2035C4.66953 18.3396 6.38351 20.3389 8.82187 21.3643C9.66043 23.6957 11.7571 25.8983 15.2832 26.2636C23.7696 26.2636 26.0301 29.7484 27.3536 31.7889C27.9015 32.6335 28.2889 33.2307 28.8908 33.2307C29.4928 33.2307 29.8802 32.6335 30.428 31.7889C31.7516 29.7484 34.0121 26.2636 42.4985 26.2636C47.4172 25.8358 49.6578 23.7141 50.5209 21.4954C52.7784 20.4323 54.3892 18.5218 55.5634 16.4871C57.6269 12.9035 59.0002 9.09392 59.0002 5.03894C59.0002 3.54738 58.6771 2.04936 58.1116 0.641739C57.639 -0.493209 57.1314 0.224804 56.9366 0.72568C56.5653 1.7365 55.8677 2.64965 55.1948 3.53041L55.1375 3.60549C55.0534 3.71526 54.9696 3.82565 54.8855 3.93628C54.1984 4.84082 53.4988 5.76179 52.5892 6.49821C51.2233 7.60881 49.8281 8.6613 48.2272 9.50716C47.3904 9.95063 46.5258 10.3504 45.6613 10.7501C44.8643 11.1186 44.0673 11.4871 43.2923 11.8898C43.2308 11.9217 43.1685 11.954 43.1053 11.9867C42.8781 12.1043 42.6409 12.2272 42.4 12.3564C39.3445 11.7277 35.0897 11.3932 28.8908 11.3932C24.6548 11.3932 20.8975 11.8161 17.5868 12.6383C17.0236 12.2875 16.431 11.9807 15.8949 11.7031L15.8949 11.7031L15.7079 11.6061C14.9329 11.2035 14.1359 10.835 13.3389 10.4665L13.3389 10.4665C12.4744 10.0667 11.6098 9.66698 10.773 9.22352C9.17211 8.37765 7.77683 7.32517 6.41093 6.21457C5.50141 5.47814 4.80177 4.55716 4.11463 3.65261C4.03059 3.54199 3.94674 3.43161 3.86271 3.32184L3.80541 3.24683L3.80541 3.24682C3.1325 2.36604 2.43485 1.45288 2.06354 0.442034C1.70502 -0.31614 1.13084 0.0701676 0.888571 0.358093C0.323117 1.76571 0 3.26373 0 4.75529C0 8.81027 1.37325 12.6199 3.43679 16.2035Z"/>
</mask>
<path fill-rule="evenodd" clip-rule="evenodd" d="M3.43679 16.2035C4.66953 18.3396 6.38351 20.3389 8.82187 21.3643C9.66043 23.6957 11.7571 25.8983 15.2832 26.2636C23.7696 26.2636 26.0301 29.7484 27.3536 31.7889C27.9015 32.6335 28.2889 33.2307 28.8908 33.2307C29.4928 33.2307 29.8802 32.6335 30.428 31.7889C31.7516 29.7484 34.0121 26.2636 42.4985 26.2636C47.4172 25.8358 49.6578 23.7141 50.5209 21.4954C52.7784 20.4323 54.3892 18.5218 55.5634 16.4871C57.6269 12.9035 59.0002 9.09392 59.0002 5.03894C59.0002 3.54738 58.6771 2.04936 58.1116 0.641739C57.639 -0.493209 57.1314 0.224804 56.9366 0.72568C56.5653 1.7365 55.8677 2.64965 55.1948 3.53041L55.1375 3.60549C55.0534 3.71526 54.9696 3.82565 54.8855 3.93628C54.1984 4.84082 53.4988 5.76179 52.5892 6.49821C51.2233 7.60881 49.8281 8.6613 48.2272 9.50716C47.3904 9.95063 46.5258 10.3504 45.6613 10.7501C44.8643 11.1186 44.0673 11.4871 43.2923 11.8898C43.2308 11.9217 43.1685 11.954 43.1053 11.9867C42.8781 12.1043 42.6409 12.2272 42.4 12.3564C39.3445 11.7277 35.0897 11.3932 28.8908 11.3932C24.6548 11.3932 20.8975 11.8161 17.5868 12.6383C17.0236 12.2875 16.431 11.9807 15.8949 11.7031L15.8949 11.7031L15.7079 11.6061C14.9329 11.2035 14.1359 10.835 13.3389 10.4665L13.3389 10.4665C12.4744 10.0667 11.6098 9.66698 10.773 9.22352C9.17211 8.37765 7.77683 7.32517 6.41093 6.21457C5.50141 5.47814 4.80177 4.55716 4.11463 3.65261C4.03059 3.54199 3.94674 3.43161 3.86271 3.32184L3.80541 3.24683L3.80541 3.24682C3.1325 2.36604 2.43485 1.45288 2.06354 0.442034C1.70502 -0.31614 1.13084 0.0701676 0.888571 0.358093C0.323117 1.76571 0 3.26373 0 4.75529C0 8.81027 1.37325 12.6199 3.43679 16.2035Z" fill="#EC4032"/>
<path d="M8.82187 21.3643L10.3302 20.8218L10.092 20.1596L9.44329 19.8867L8.82187 21.3643ZM3.43679 16.2035L2.04767 17.0034L2.04843 17.0047L3.43679 16.2035ZM15.2832 26.2636L15.118 27.858L15.2004 27.8666H15.2832V26.2636ZM27.3536 31.7889L28.6984 30.9165H28.6984L27.3536 31.7889ZM30.428 31.7889L29.0832 30.9165L29.0832 30.9165L30.428 31.7889ZM42.4985 26.2636V27.8666H42.568L42.6373 27.8605L42.4985 26.2636ZM50.5209 21.4954L49.838 20.0452L49.259 20.3178L49.027 20.9142L50.5209 21.4954ZM55.5634 16.4871L56.9517 17.2884L56.9525 17.287L55.5634 16.4871ZM58.1116 0.641739L59.599 0.0442237L59.5953 0.0348403L59.5914 0.0255051L58.1116 0.641739ZM56.9366 0.72568L55.4426 0.14485L55.4372 0.158866L55.432 0.172983L56.9366 0.72568ZM55.1948 3.53041L53.9211 2.55727L53.921 2.55737L55.1948 3.53041ZM55.1375 3.60549L56.4103 4.57984L56.4113 4.57853L55.1375 3.60549ZM54.8855 3.93628L56.162 4.90593L56.162 4.90592L54.8855 3.93628ZM52.5892 6.49821L51.5805 5.25242L51.578 5.2545L52.5892 6.49821ZM48.2272 9.50716L47.4783 8.08988L47.4766 8.09082L48.2272 9.50716ZM45.6613 10.7501L46.334 12.2051L46.334 12.2051L45.6613 10.7501ZM43.2923 11.8898L44.0311 13.3123L44.0313 13.3122L43.2923 11.8898ZM43.1053 11.9867L42.3682 10.5633L42.3682 10.5633L43.1053 11.9867ZM42.4 12.3564L42.0769 13.9265L42.6459 14.0436L43.1578 13.7689L42.4 12.3564ZM17.5868 12.6383L16.7394 13.999L17.3151 14.3574L17.9732 14.194L17.5868 12.6383ZM15.8949 11.7031L16.632 10.2796L16.5207 10.222L16.4018 10.1824L15.8949 11.7031ZM15.8949 11.7031L15.1572 13.1262L15.2688 13.184L15.388 13.2238L15.8949 11.7031ZM15.7079 11.6061L14.9688 13.0286L14.9702 13.0293L15.7079 11.6061ZM13.3389 10.4665L14.0116 9.01148L14.0022 9.00719L13.3389 10.4665ZM13.3389 10.4665L12.6661 11.9214L12.6756 11.9257L13.3389 10.4665ZM10.773 9.22352L11.5236 7.80717L11.5219 7.80623L10.773 9.22352ZM6.41093 6.21457L7.42218 4.97085L7.41963 4.96878L6.41093 6.21457ZM4.11463 3.65261L5.39105 2.68297L5.39104 2.68296L4.11463 3.65261ZM3.86271 3.32184L2.58888 4.29488L2.58988 4.29619L3.86271 3.32184ZM3.80541 3.24683L5.07925 2.27379L5.0586 2.24677L5.03684 2.22064L3.80541 3.24683ZM3.80541 3.24682L2.53165 4.21996L2.55225 4.24693L2.57398 4.27301L3.80541 3.24682ZM2.06354 0.442034L3.56819 -0.110669L3.54339 -0.17819L3.51264 -0.243218L2.06354 0.442034ZM0.888571 0.358093L-0.33795 -0.673947L-0.503189 -0.47757L-0.598856 -0.23942L0.888571 0.358093ZM9.44329 19.8867C7.45275 19.0496 5.96582 17.3789 4.82514 15.4023L2.04843 17.0047C3.37324 19.3004 5.31426 21.6281 8.20046 22.8419L9.44329 19.8867ZM15.4484 24.6692C12.6044 24.3745 10.985 22.6423 10.3302 20.8218L7.31352 21.9069C8.33582 24.7491 10.9099 27.422 15.118 27.858L15.4484 24.6692ZM28.6984 30.9165C28.0215 29.873 26.9668 28.2301 24.8577 26.904C22.75 25.5789 19.7475 24.6606 15.2832 24.6606V27.8666C19.3053 27.8666 21.6762 28.6907 23.1513 29.6181C24.6249 30.5446 25.3621 31.6642 26.0088 32.6612L28.6984 30.9165ZM28.8908 31.6277C29.0225 31.6277 29.1432 31.6645 29.2289 31.7103C29.2994 31.7479 29.3122 31.7734 29.2676 31.7262C29.2228 31.6787 29.1545 31.595 29.052 31.4491C28.9495 31.3032 28.8394 31.134 28.6984 30.9165L26.0088 32.6612C26.2544 33.0398 26.5736 33.5426 26.9363 33.9268C27.3336 34.3478 27.9735 34.8336 28.8908 34.8336V31.6277ZM29.0832 30.9165C28.9422 31.134 28.8322 31.3032 28.7297 31.4491C28.6272 31.595 28.5589 31.6787 28.514 31.7262C28.4695 31.7734 28.4823 31.7479 28.5528 31.7103C28.6385 31.6645 28.7592 31.6277 28.8908 31.6277V34.8336C29.8082 34.8336 30.448 34.3478 30.8454 33.9268C31.2081 33.5426 31.5273 33.0398 31.7729 32.6612L29.0832 30.9165ZM42.4985 24.6606C38.0341 24.6606 35.0316 25.5789 32.924 26.904C30.8149 28.2301 29.7601 29.873 29.0832 30.9165L31.7729 32.6612C32.4195 31.6642 33.1567 30.5446 34.6304 29.6181C36.1055 28.6907 38.4764 27.8666 42.4985 27.8666V24.6606ZM49.027 20.9142C48.4307 22.447 46.8059 24.2799 42.3596 24.6667L42.6373 27.8605C48.0284 27.3916 50.8848 24.9812 52.0148 22.0765L49.027 20.9142ZM54.175 15.6859C53.0891 17.5676 51.6878 19.1741 49.838 20.0452L51.2038 22.9456C53.869 21.6905 55.6893 19.476 56.9517 17.2884L54.175 15.6859ZM57.3972 5.03894C57.3972 8.72356 56.1505 12.2553 54.1743 15.6873L56.9525 17.287C59.1034 13.5517 60.6031 9.46427 60.6031 5.03894H57.3972ZM56.6242 1.23925C57.1231 2.48131 57.3972 3.77685 57.3972 5.03894H60.6031C60.6031 3.31791 60.231 1.61741 59.599 0.0442237L56.6242 1.23925ZM58.4307 1.30651C58.4455 1.26839 58.4602 1.2449 58.4576 1.24862C58.455 1.25238 58.4345 1.28229 58.3909 1.32496C58.3497 1.36533 58.258 1.44652 58.1096 1.51728C57.952 1.59237 57.7252 1.65709 57.4545 1.63523C57.1805 1.6131 56.9636 1.51051 56.8183 1.40566C56.5768 1.23147 56.5543 1.07179 56.6318 1.25797L59.5914 0.0255051C59.4326 -0.355782 59.1694 -0.85132 58.6937 -1.19443C58.0828 -1.63511 57.3426 -1.66857 56.7302 -1.37673C56.2522 -1.14888 55.9604 -0.778326 55.8142 -0.565308C55.647 -0.321559 55.5252 -0.0674659 55.4426 0.14485L58.4307 1.30651ZM56.4686 4.50355C57.1095 3.66459 57.9713 2.55793 58.4413 1.27838L55.432 0.172983C55.1594 0.915072 54.6259 1.6347 53.9211 2.55727L56.4686 4.50355ZM56.4113 4.57853L56.4687 4.50345L53.921 2.55737L53.8636 2.63245L56.4113 4.57853ZM56.162 4.90592C56.2463 4.79489 56.3284 4.68686 56.4103 4.57984L53.8646 2.63114C53.7785 2.74366 53.6929 2.85641 53.6091 2.96664L56.162 4.90592ZM53.5979 7.744C54.6825 6.86586 55.4936 5.78577 56.162 4.90593L53.6091 2.96663C52.9032 3.89587 52.315 4.65772 51.5806 5.25243L53.5979 7.744ZM48.976 10.9244C50.7181 10.004 52.2106 8.87205 53.6005 7.74193L51.578 5.2545C50.2361 6.34558 48.938 7.31863 47.4783 8.08988L48.976 10.9244ZM46.334 12.2051C47.1918 11.8085 48.0961 11.3908 48.9778 10.9235L47.4766 8.09082C46.6847 8.51049 45.8598 8.8923 44.9886 9.29515L46.334 12.2051ZM44.0313 13.3122C44.768 12.9294 45.5312 12.5762 46.334 12.2051L44.9886 9.29515C44.1973 9.66103 43.3665 10.0448 42.5533 10.4674L44.0313 13.3122ZM43.8424 13.4102C43.9054 13.3775 43.9686 13.3448 44.0311 13.3123L42.5535 10.4672C42.4931 10.4986 42.4316 10.5305 42.3682 10.5633L43.8424 13.4102ZM43.1578 13.7689C43.3867 13.6461 43.6138 13.5285 43.8424 13.4102L42.3682 10.5633C42.1425 10.6801 41.895 10.8083 41.6422 10.9439L43.1578 13.7689ZM28.8908 12.9961C35.051 12.9961 39.1794 13.3303 42.0769 13.9265L42.723 10.7864C39.5096 10.1252 35.1283 9.79023 28.8908 9.79023V12.9961ZM17.9732 14.194C21.1348 13.4088 24.7593 12.9961 28.8908 12.9961V9.79023C24.5503 9.79023 20.6603 10.2233 17.2005 11.0826L17.9732 14.194ZM15.1578 13.1265C15.7023 13.4084 16.2388 13.6872 16.7394 13.999L18.4342 11.2776C17.8085 10.8879 17.1598 10.553 16.632 10.2796L15.1578 13.1265ZM15.388 13.2238L15.388 13.2238L16.4018 10.1824L16.4018 10.1824L15.388 13.2238ZM14.9702 13.0293L15.1572 13.1262L16.6325 10.2799L16.4455 10.183L14.9702 13.0293ZM12.6662 11.9214C13.4689 12.2926 14.2321 12.6458 14.9688 13.0286L16.4469 10.1837C15.6336 9.76117 14.8029 9.37739 14.0116 9.01151L12.6662 11.9214ZM12.6756 11.9257L12.6756 11.9257L14.0022 9.00719L14.0022 9.00718L12.6756 11.9257ZM10.0224 10.6399C10.904 11.1071 11.8084 11.5248 12.6661 11.9214L14.0116 9.0115C13.1403 8.60865 12.3155 8.22685 11.5236 7.80717L10.0224 10.6399ZM5.39968 7.45828C6.78959 8.5884 8.28204 9.72032 10.0242 10.6408L11.5219 7.80623C10.0622 7.03499 8.76408 6.06193 7.42218 4.97085L5.39968 7.45828ZM2.83821 4.62226C3.5066 5.50211 4.31768 6.58221 5.40223 7.46035L7.41963 4.96878C6.68514 4.37407 6.09695 3.61221 5.39105 2.68297L2.83821 4.62226ZM2.58988 4.29619C2.67181 4.40322 2.75387 4.51124 2.83821 4.62226L5.39104 2.68296C5.30731 2.57274 5.22167 2.46 5.13555 2.3475L2.58988 4.29619ZM2.53158 4.21987L2.58888 4.29488L5.13655 2.3488L5.07925 2.27379L2.53158 4.21987ZM2.57398 4.27301L2.57399 4.27302L5.03684 2.22064L5.03683 2.22064L2.57398 4.27301ZM0.558888 0.994736C1.02891 2.27431 1.89068 3.38099 2.53165 4.21996L5.07917 2.27369C4.37432 1.35109 3.84079 0.631447 3.56819 -0.110669L0.558888 0.994736ZM2.11509 1.39013C2.09564 1.41325 2.07402 1.43494 2.03759 1.46021C2.0074 1.48115 1.89601 1.55437 1.70551 1.5873C1.48212 1.62592 1.19232 1.59826 0.927983 1.437C0.81033 1.36523 0.730534 1.28617 0.681623 1.22666C0.634107 1.16883 0.615333 1.12917 0.614441 1.12729L3.51264 -0.243218C3.33486 -0.619172 3.05104 -1.02321 2.59755 -1.29985C2.11715 -1.59291 1.60145 -1.64816 1.15941 -1.57175C0.39976 -1.44043 -0.112757 -0.941577 -0.33795 -0.673947L2.11509 1.39013ZM1.60295 4.75529C1.60295 3.4932 1.87705 2.19766 2.376 0.955607L-0.598856 -0.23942C-1.23082 1.33376 -1.60295 3.03426 -1.60295 4.75529H1.60295ZM4.8259 15.4036C2.8497 11.9717 1.60295 8.43991 1.60295 4.75529H-1.60295C-1.60295 9.18062 -0.103205 13.2681 2.04767 17.0034L4.8259 15.4036Z" fill="black" mask="url(#path-10-inside-1_1003_2117)"/>
<path d="M57.4543 44.2961L55.7444 55.8203L42.038 56.0665L41.0711 56.0773L38.7683 56.1156L36.0006 56.1679L34.1996 56.2006L31.7124 50.6215L27.835 50.5947L25.2718 56.139L12.8605 55.7486L11.9206 55.7152L9.65427 55.6465L6.93124 55.5653L3.72503 55.4633L2.18328 43.9165C2.18328 43.9165 6.05368 42.5096 12.2329 41.3078C13.1653 41.1166 14.1429 40.9452 15.1749 40.782C15.9637 40.6526 16.7715 40.5334 17.6131 40.4221C17.9361 40.3709 18.2681 40.3284 18.6089 40.2856C22.0161 39.8612 25.8151 39.5915 29.8457 39.6192C34.1712 39.6484 38.2182 40.0173 41.8053 40.5528C42.6996 40.6757 43.5682 40.8152 44.4001 40.9654C45.1427 41.0876 45.8581 41.2262 46.5471 41.3653C46.8513 41.4208 47.1469 41.4853 47.4321 41.5409C53.6031 42.8276 57.4543 44.2961 57.4543 44.2961Z" fill="#8B68C4" stroke="black" stroke-width="1.52585"/>
</svg>
