<svg width="80" height="81" viewBox="0 0 80 81" fill="none" xmlns="http://www.w3.org/2000/svg">
<path d="M63.9043 21.7484L66.9344 63.742C66.9382 63.7947 66.9425 63.8393 66.9455 63.8919C67.0038 64.8905 67.0394 76.0954 39.2847 76.0954C12.6588 76.0954 12.7369 65.6173 12.8002 64.6546C12.8037 64.6023 12.8085 64.5578 12.8128 64.5057L15.7537 29.0818L16.2108 21.3826C16.357 18.9211 17.4998 16.9308 19.1169 15.9796C19.5288 15.7373 20.0118 15.664 20.4898 15.664C21.6825 15.664 23.006 15.6641 23.8238 15.6641L24.121 15.6641H56.9968C61.1966 15.6641 63.6214 18.314 63.9043 21.7484Z" fill="#D7AA7B" stroke="black" stroke-width="1.58166" stroke-miterlimit="10"/>
<path d="M61.613 38.4256C61.613 31.8421 55.9321 26.5045 48.9254 26.5045C46.851 26.5024 44.8269 26.9813 43.0207 27.8777C41.2451 28.7589 39.0389 28.7589 37.2632 27.8777C35.4571 26.9813 33.433 26.5024 31.3585 26.5045C24.3518 26.5045 18.6709 31.8421 18.6709 38.4256C18.6709 41.3109 19.7656 43.9514 21.5831 46.0107C22.8079 47.3984 23.4006 49.3317 22.9943 51.1375C22.7143 52.3816 22.5732 53.6531 22.5751 54.931C22.5751 64.5533 23.6241 71.2192 40.0246 71.2192C56.8026 71.2192 57.7089 64.5533 57.7089 54.931C57.7089 53.6288 57.5641 52.3603 57.2904 51.14C56.885 49.3327 57.4773 47.3975 58.7026 46.0085C60.519 43.9491 61.613 41.3088 61.613 38.4256Z" fill="#F2D0A9"/>
<path d="M12.1275 15.6575H16.7932C18.9612 15.6575 20.7527 17.461 20.4166 19.6028C19.9611 22.5055 19.12 24.1261 18.2889 25.0283C17.2423 26.1645 15.9848 24.8476 14.7608 23.9052L12.4851 22.5438C12.3014 22.4366 12.3113 22.1809 12.4989 22.0831L15.794 20.3719L16.2977 20.1255C16.8342 19.8131 16.751 19.4561 16.439 19.195C16.4357 19.1923 16.4321 19.19 16.429 19.1871C16.4261 19.1843 16.4227 19.1822 16.4196 19.1797C15.2991 18.2763 12.9628 16.7734 12.1913 16.2825C12.0217 16.1746 11.7975 16.0405 11.8577 15.8488C11.8907 15.7435 11.9898 15.6575 12.1275 15.6575Z" fill="#D7AA7A"/>
<path d="M23.0155 15.6575H17.5715H12.1275C11.9898 15.6575 11.8907 15.7435 11.8577 15.8488C11.7975 16.0405 12.0217 16.1746 12.1913 16.2825C12.9628 16.7734 15.299 18.2763 16.4196 19.1797C16.4227 19.1822 16.4261 19.1843 16.429 19.1871V19.1871C16.4321 19.19 16.4357 19.1923 16.439 19.195C16.751 19.4561 16.8342 19.8131 16.2977 20.1255L15.794 20.3719L12.4989 22.0831C12.3113 22.1809 12.3014 22.4366 12.4851 22.5438L14.7608 23.9052C15.794 24.7007 15.9402 24.8887 15.9402 26.1411" stroke="black" stroke-width="1.58138" stroke-miterlimit="10"/>
<path d="M6.95974 57.528C8.44896 36.3571 4.30482 17.1479 31.898 16.7687C28.4184 17.6723 21.9206 20.2995 19.9198 20.8196C17.919 21.3397 17.8538 22.9868 17.2537 26.4544L13.4478 65.1395C13.5225 64.381 14.0432 66.0967 14.3912 66.6168C14.8261 67.267 19.7647 69.5709 24.5038 71.9265C29.3801 74.3503 37.463 77.3122 39.384 77.276L51.2365 72.5081L64.0993 67.0648C65.645 66.4107 66.59 64.8319 66.4363 63.1606L62.9434 25.17C62.9077 24.7811 62.7531 24.4126 62.5008 24.1145C61.2051 22.5842 62.7974 20.4959 64.5201 21.5221C75.1868 27.8769 72.2927 34.432 72.2419 58.1887C72.2411 58.5939 72.1774 59.0094 72.052 59.3947L68.3478 70.7762C67.9199 72.0908 66.8211 73.0758 65.4677 73.3578L40.8692 78.4836C40.1032 78.6433 39.384 78.0585 39.384 77.276C39.2716 78.0598 38.469 78.5438 37.7234 78.2773L24.5038 73.552L14.1914 69.1477C13.4718 68.8403 12.8626 68.3212 12.445 67.6594L7.5492 59.9015C7.10336 59.1951 6.90112 58.3614 6.95974 57.528Z" fill="#D9D9D9"/>
<path d="M37.119 16.7687H31.898M31.898 16.7687C4.30482 17.1479 8.44896 36.3571 6.95974 57.528C6.90112 58.3614 7.10336 59.1951 7.5492 59.9015L12.445 67.6594C12.8626 68.3212 13.4718 68.8403 14.1914 69.1477L24.5038 73.552L37.7234 78.2773C38.469 78.5438 39.2716 78.0598 39.384 77.276V77.276M31.898 16.7687C28.4184 17.6723 21.9206 20.2995 19.9198 20.8196C17.919 21.3397 17.8538 22.9868 17.2537 26.4544L13.4478 65.1395C13.5225 64.381 14.0432 66.0967 14.3912 66.6168C14.8261 67.267 19.7647 69.5709 24.5038 71.9265C29.3801 74.3503 37.463 77.3122 39.384 77.276M39.384 77.276L51.2365 72.5081L64.0993 67.0648C65.645 66.4107 66.59 64.8319 66.4363 63.1606L62.9434 25.17C62.9077 24.7811 62.7531 24.4126 62.5008 24.1145V24.1145C61.2051 22.5842 62.7974 20.4959 64.5201 21.5221C75.1868 27.8769 72.2927 34.432 72.2419 58.1887C72.2411 58.5939 72.1774 59.0094 72.052 59.3947L68.3478 70.7762C67.9199 72.0908 66.8211 73.0758 65.4677 73.3578L40.8692 78.4836C40.1032 78.6433 39.384 78.0585 39.384 77.276V77.276Z" stroke="black" stroke-width="1.33714"/>
<path d="M40.2728 0.949786C49.061 0.773283 55.7323 0.355606 64.4119 8.31834C73.0914 16.2811 79.3769 53.5923 78.9824 59.0316C78.4715 66.0751 75.2853 72.2423 69.6309 74.2023C65.6293 75.5893 41.3015 81.3555 40.0541 79.4036C38.5305 77.0197 61.7447 68.8984 65.3899 65.9668C71.588 60.9821 68.871 46.4603 68.0011 39.7419C67.2915 34.2619 63.3253 21.8622 55.8224 19.0448C51.2718 17.336 29.7252 16.3358 22.4397 20.6702C15.119 25.0257 10.881 35.6561 10.151 45.053C8.84615 61.849 14.064 65.8298 16.7839 67.8089C21.3509 71.132 38.9665 77.2364 38.9665 78.8618C38.9665 81.6842 24.9045 78.8243 19.3951 78.3187C4.43265 76.4115 0.710506 64.9915 1.01712 60.5487C1.01712 39.7419 7.45208 17.0396 16.1316 9.07687C24.8034 1.11413 30.643 1.14319 40.2728 0.949786Z" fill="white" stroke="black" stroke-width="1.56"/>
<path d="M28.6132 77.8863C28.5867 77.8761 28.5606 77.8615 28.5361 77.8429C28.3953 77.7323 28.3729 77.5124 28.4875 77.3526C28.5149 77.3141 29.1696 76.4042 30.0424 76.3666C30.5596 76.3443 31.0234 76.6231 31.4192 77.1945C31.5238 77.3448 31.4886 77.5672 31.3397 77.6908C31.192 77.8149 30.9881 77.7919 30.8834 77.6415C30.6127 77.2498 30.3226 77.0575 30.0205 77.0703C29.4792 77.0941 29.0016 77.7472 28.9967 77.753C28.9031 77.8871 28.7455 77.937 28.6132 77.8863Z" fill="#F0F0F0" stroke="white" stroke-width="1.11429"/>
<path d="M50.1488 77.2764C50.0203 77.333 49.8605 77.2909 49.7599 77.1633C49.7541 77.1565 49.2457 76.5257 48.7004 76.5299C48.3998 76.5326 48.1195 76.739 47.869 77.1416C47.7718 77.297 47.5699 77.3281 47.4157 77.2132C47.2621 77.0965 47.216 76.8761 47.312 76.7213C47.6793 76.1312 48.1276 75.8305 48.6464 75.827C49.5199 75.8219 50.2184 76.6988 50.2476 76.7359C50.3687 76.8904 50.3583 77.1106 50.2231 77.228C50.2001 77.2491 50.1747 77.265 50.1488 77.2764Z" fill="#F0F0F0" stroke="white" stroke-width="1.11429"/>
<mask id="path-10-outside-1_1129_1322" maskUnits="userSpaceOnUse" x="7.10088" y="52.0193" width="9.68172" height="13.031" fill="black">
<rect fill="white" x="7.10088" y="52.0193" width="9.68172" height="13.031"/>
<path fill-rule="evenodd" clip-rule="evenodd" d="M10.5711 62.098C10.5127 62.45 10.7513 62.7836 11.1042 62.8431C11.457 62.9026 11.7904 62.6653 11.8489 62.3133L11.9353 61.7926C12.1024 60.7856 13.053 60.1021 14.0606 60.2643V60.2643C14.414 60.3211 14.7455 60.0815 14.8013 59.729C14.857 59.3765 14.6157 59.0447 14.2624 58.9879V58.9879C13.2618 58.8269 12.584 57.8841 12.7499 56.8843L13.174 54.3292C13.2324 53.9771 12.9938 53.6435 12.6409 53.584C12.2881 53.5246 11.9547 53.7618 11.8963 54.1139L11.428 56.9351C11.2853 57.7947 10.4738 58.3783 9.61358 58.2399V58.2399C9.26025 58.183 8.92867 58.4226 8.87296 58.7751C8.81726 59.1276 9.05853 59.4594 9.41186 59.5162V59.5162C10.2652 59.6536 10.8434 60.4577 10.7018 61.3104L10.5711 62.098Z"/>
</mask>
<path fill-rule="evenodd" clip-rule="evenodd" d="M10.5711 62.098C10.5127 62.45 10.7513 62.7836 11.1042 62.8431C11.457 62.9026 11.7904 62.6653 11.8489 62.3133L11.9353 61.7926C12.1024 60.7856 13.053 60.1021 14.0606 60.2643V60.2643C14.414 60.3211 14.7455 60.0815 14.8013 59.729C14.857 59.3765 14.6157 59.0447 14.2624 58.9879V58.9879C13.2618 58.8269 12.584 57.8841 12.7499 56.8843L13.174 54.3292C13.2324 53.9771 12.9938 53.6435 12.6409 53.584C12.2881 53.5246 11.9547 53.7618 11.8963 54.1139L11.428 56.9351C11.2853 57.7947 10.4738 58.3783 9.61358 58.2399V58.2399C9.26025 58.183 8.92867 58.4226 8.87296 58.7751C8.81726 59.1276 9.05853 59.4594 9.41186 59.5162V59.5162C10.2652 59.6536 10.8434 60.4577 10.7018 61.3104L10.5711 62.098Z" fill="#D1D1D1"/>
<path d="M11.1042 62.8431L11.2637 61.908L11.2637 61.908L11.1042 62.8431ZM10.5711 62.098L11.5072 62.2514L11.5072 62.2514L10.5711 62.098ZM11.8489 62.3133L10.9128 62.1598L11.8489 62.3133ZM14.8013 59.729L15.7385 59.8752L15.7385 59.8752L14.8013 59.729ZM13.174 54.3292L12.238 54.1757L12.238 54.1757L13.174 54.3292ZM12.6409 53.584L12.4814 54.5191L12.4814 54.5191L12.6409 53.584ZM11.8963 54.1139L12.8323 54.2673L12.8323 54.2673L11.8963 54.1139ZM8.87296 58.7751L9.81019 58.9213L8.87296 58.7751ZM10.7018 61.3104L9.76577 61.1569L10.7018 61.3104ZM9.61358 58.2399L9.76616 57.3036L9.76616 57.3036L9.61358 58.2399ZM14.2624 58.9879L14.1098 59.9241L14.1098 59.9241L14.2624 58.9879ZM14.0606 60.2643L13.9081 61.2005L13.9081 61.2005L14.0606 60.2643ZM11.2637 61.908C11.4235 61.9349 11.5346 62.0859 11.5072 62.2514L9.63505 61.9445C9.49072 62.8141 10.0792 63.6324 10.9447 63.7782L11.2637 61.908ZM10.9128 62.1598C10.9408 61.9911 11.1007 61.8805 11.2637 61.908L10.9447 63.7782C11.8134 63.9246 12.64 63.3396 12.7849 62.4667L10.9128 62.1598ZM10.9992 61.6392L10.9128 62.1598L12.7849 62.4667L12.8713 61.946L10.9992 61.6392ZM13.864 59.5828C13.8908 59.4134 14.0502 59.3018 14.2132 59.328L13.9081 61.2005C14.7777 61.3405 15.6003 60.7495 15.7385 59.8752L13.864 59.5828ZM14.1098 59.9241C13.9502 59.8985 13.8378 59.7486 13.864 59.5828L15.7385 59.8752C15.8761 59.0044 15.2812 58.191 14.4149 58.0516L14.1098 59.9241ZM12.238 54.1757L11.8139 56.7309L13.686 57.0378L14.1101 54.4826L12.238 54.1757ZM12.4814 54.5191C12.3217 54.4922 12.2105 54.3412 12.238 54.1757L14.1101 54.4826C14.2544 53.613 13.6659 52.7947 12.8004 52.6489L12.4814 54.5191ZM12.8323 54.2673C12.8043 54.436 12.6445 54.5466 12.4814 54.5191L12.8004 52.6489C11.9317 52.5025 11.1051 53.0876 10.9602 53.9605L12.8323 54.2673ZM12.3641 57.0886L12.8323 54.2673L10.9602 53.9605L10.4919 56.7817L12.3641 57.0886ZM9.81019 58.9213C9.78342 59.0907 9.62404 59.2023 9.461 59.1761L9.76616 57.3036C8.89647 57.1637 8.07391 57.7546 7.93574 58.6289L9.81019 58.9213ZM9.56444 58.58C9.724 58.6057 9.8364 58.7555 9.81019 58.9213L7.93574 58.6289C7.79812 59.4997 8.39306 60.3131 9.25928 60.4525L9.56444 58.58ZM11.5072 62.2514L11.6379 61.4638L9.76577 61.1569L9.63505 61.9445L11.5072 62.2514ZM9.25928 60.4525C9.59433 60.5064 9.82134 60.8221 9.76577 61.1569L11.6379 61.4638C11.8654 60.0932 10.9361 58.8007 9.56444 58.58L9.25928 60.4525ZM10.4919 56.7817C10.4349 57.1256 10.1103 57.359 9.76616 57.3036L9.461 59.1761C10.8374 59.3976 12.1358 58.4639 12.3641 57.0886L10.4919 56.7817ZM14.4149 58.0516C13.9327 57.974 13.606 57.5196 13.686 57.0378L11.8139 56.7309C11.562 58.2486 12.591 59.6797 14.1098 59.9241L14.4149 58.0516ZM12.8713 61.946C12.9529 61.4548 13.4165 61.1214 13.9081 61.2005L14.2132 59.328C12.6894 59.0828 11.252 60.1165 10.9992 61.6392L12.8713 61.946Z" fill="black" mask="url(#path-10-outside-1_1129_1322)"/>
<path d="M14.005 49.5056C14.005 49.5056 10.2143 51.7544 11.5146 53.3525C13.5064 55.8007 15.784 51.6036 15.784 51.6036" stroke="black" stroke-width="1.21853" stroke-linecap="round"/>
<path d="M46.783 60.7523C42.8658 60.7522 37.82 63.69 32.7953 61.9627C27.4712 60.1325 32.7953 68.2349 40.1286 68.2349C50.3139 68.2349 50.9929 60.7523 46.783 60.7523Z" fill="white" stroke="black" stroke-width="1.35896"/>
<path d="M65.6155 44.3622C64.8849 50.3633 59.338 54.6691 53.2001 53.9467C47.0623 53.2243 42.7057 47.7528 43.4364 41.7517C44.167 35.7506 49.7138 31.4448 55.8517 32.1672C61.9895 32.8896 66.3461 38.3611 65.6155 44.3622Z" fill="#263238" stroke="black" stroke-width="1.71829"/>
<path d="M54.5941 51.2628C59.1215 51.2628 62.7916 47.6541 62.7916 43.2026C62.7916 38.7511 59.1215 35.1425 54.5941 35.1425C50.0667 35.1425 46.3965 38.7511 46.3965 43.2026C46.3965 47.6541 50.0667 51.2628 54.5941 51.2628Z" stroke="#EE4623" stroke-width="0.851696" stroke-linecap="round" stroke-linejoin="round"/>
<path d="M54.5938 48.4413V51.2623" stroke="#EE4623" stroke-width="0.851696" stroke-linecap="round" stroke-linejoin="round"/>
<path d="M59.5127 43.2026H62.7917" stroke="#EE4623" stroke-width="0.851696" stroke-linecap="round" stroke-linejoin="round"/>
<path d="M46.3965 43.2026H49.2656" stroke="#EE4623" stroke-width="0.851696" stroke-linecap="round" stroke-linejoin="round"/>
<path d="M54.5936 37.9635V35.1425" stroke="#EE4623" stroke-width="0.851696" stroke-linecap="round" stroke-linejoin="round"/>
<path d="M36.5793 44.7732C35.8487 50.7743 30.3019 55.0801 24.164 54.3577C18.0261 53.6353 13.6696 48.1639 14.4002 42.1627C15.1308 36.1616 20.6777 31.8558 26.8155 32.5782C32.9534 33.3006 37.3099 38.7721 36.5793 44.7732Z" fill="#263238" stroke="black" stroke-width="1.71829"/>
<path d="M43.5049 44.7372C43.6132 43.8474 43.3576 42.9517 42.7943 42.2472C42.231 41.5427 41.4061 41.0871 40.5011 40.9806C39.5961 40.8741 38.6852 41.1254 37.9687 41.6793C37.2521 42.2331 36.7887 43.0442 36.6804 43.934" stroke="black" stroke-width="1.71829"/>
<g clip-path="url(#clip0_1129_1322)">
<path d="M58.5276 42.8688H57.435C57.2803 41.5818 56.2423 40.5611 54.9333 40.409V39.3347C54.9333 39.2961 54.9011 39.2644 54.8618 39.2644H54.3253C54.2859 39.2644 54.2538 39.2961 54.2538 39.3347V40.409C52.9448 40.5611 51.9067 41.5818 51.752 42.8688H50.6594C50.6201 42.8688 50.5879 42.9005 50.5879 42.9392V43.4666C50.5879 43.5053 50.6201 43.537 50.6594 43.537H51.752C51.9067 44.824 52.9448 45.8447 54.2538 45.9968V47.0711C54.2538 47.1097 54.2859 47.1414 54.3253 47.1414H54.8618C54.9011 47.1414 54.9333 47.1097 54.9333 47.0711V45.9968C56.2423 45.8447 57.2803 44.824 57.435 43.537H58.5276C58.567 43.537 58.5992 43.5053 58.5992 43.4666V42.9392C58.5992 42.9005 58.567 42.8688 58.5276 42.8688ZM54.5935 45.348C53.3883 45.348 52.4119 44.388 52.4119 43.2029C52.4119 42.0178 53.3883 41.0578 54.5935 41.0578C55.7988 41.0578 56.7752 42.0178 56.7752 43.2029C56.7752 44.388 55.7988 45.348 54.5935 45.348Z" fill="#EE4623"/>
<path d="M54.5944 42.1477C54.3074 42.1477 54.0392 42.2567 53.8362 42.4572C53.6332 42.6567 53.5215 42.9205 53.5215 43.2027C53.5215 43.4849 53.6332 43.7486 53.8362 43.9482C54.0392 44.1468 54.3083 44.2576 54.5944 44.2576C54.8805 44.2576 55.1497 44.1477 55.3526 43.9482C55.5547 43.7486 55.6674 43.484 55.6674 43.2027C55.6674 42.9213 55.5556 42.6567 55.3526 42.4572C55.1497 42.2567 54.8814 42.1477 54.5944 42.1477Z" fill="#EE4623"/>
</g>
<defs>
<clipPath id="clip0_1129_1322">
<rect x="50.0166" y="38.7015" width="9.15574" height="9.00227" rx="3.85605" fill="white"/>
</clipPath>
</defs>
</svg>
