<svg width="67" height="70" viewBox="0 0 67 70" fill="none" xmlns="http://www.w3.org/2000/svg">
<path d="M62.1457 7.98705L65.5292 55.1375C65.5331 55.1925 65.5376 55.2388 65.5409 55.2938C65.6061 56.3766 65.7003 69 34.6583 69C4.87569 69 5.01836 57.1929 5.08907 56.1499C5.09276 56.0954 5.0977 56.0492 5.10219 55.9948L8.38616 16.2199L8.89654 7.57635C9.06868 4.66115 10.6847 2.44805 12.6681 1.43962C13.0876 1.22634 13.5609 1.15696 14.0315 1.15421C15.4777 1.14576 16.7546 1.11824 17.7281 1.1565H54.4335C58.4715 1.1565 61.8299 4.13135 62.1457 7.98705Z" fill="#B1B1B1" stroke="black" stroke-width="1.68684" stroke-miterlimit="10"/>
<path d="M16.0407 2.04621C15.0836 2.81319 14.688 11.5645 14.628 17.0626C14.6179 17.9888 14.2971 18.883 13.5909 19.4823C11.829 20.9778 8.83217 23.0264 8.70929 23.6419C8.45827 24.8991 7.57502 34.9931 7.57556 35.7474C7.57588 36.1898 12.6118 43.3354 12.6118 44.3C12.6118 45.2646 12.5014 59.2972 12.6118 60.1412C12.7222 60.9852 17.6082 66.9634 19.7657 67.4332C22.7779 68.0891 40.4746 69.6962 51.5193 66.9303C52.6974 66.6353 57.4937 60.9852 58.0457 60.1412C58.5977 59.2972 57.9204 44.1507 58.297 43.3964C58.8072 42.3742 63.0663 36.841 63.0663 35.8765C63.0663 34.9119 62.6898 25.6929 62.3132 24.0584C62.001 22.7029 56.5781 19.1552 56.5781 18.5177C56.5781 17.7701 56.6406 2.27582 55.4944 2.0462C54.2393 1.79476 46.5052 1.82211 45.2908 1.82211C44.0765 1.82211 42.5482 9.55208 41.4789 9.95721C40.0983 10.4803 32.0111 9.95721 30.2447 9.95721C28.4784 9.95721 27.2699 2.25529 26.0175 2.0462C24.5114 1.79476 16.6683 1.54331 16.0407 2.04621Z" fill="#E0E0E0"/>
<path d="M44.3657 68.62C45.4095 68.4215 53.7995 59.9897 54.2809 59.1766C54.7273 58.4226 54.2231 49.0883 54.7616 47.1796C54.8241 46.9581 54.9798 46.7843 55.1218 46.6032L63.8086 35.5233M25.2884 68.2473C23.4067 67.7946 16.2225 59.9897 16.1263 59.1766C16.055 58.5748 16.0205 52.124 15.9055 48.8129C15.8627 47.5786 15.302 46.3118 14.5338 45.3448L6.96411 35.8166" stroke="#B1B1B1" stroke-width="1.44586"/>
<path d="M62.1454 7.987L65.5289 55.1375C65.5329 55.1924 65.5373 55.2388 65.5406 55.2938C65.6058 56.3765 65.7 68.9999 34.658 68.9999C4.87544 68.9999 5.01812 57.1929 5.08882 56.1499C5.09252 56.0953 5.09745 56.0492 5.10195 55.9947L8.38591 16.2199L8.8963 7.5763C9.11852 3.81275 11.657 0.925185 14.4536 1.15634C15.7384 1.15646 16.8722 1.15622 17.7279 1.15645H54.4333C58.8956 1.37339 61.8296 4.1313 62.1454 7.987Z" stroke="black" stroke-width="1.69496" stroke-miterlimit="10"/>
<path d="M4.33811 1H11.2369C12.8851 1 14.4712 1.99438 14.6563 3.63218C15.1771 8.24106 11.6497 11.0145 9.74958 12.1582C9.01935 12.5978 7.72455 12.8587 7.64335 12.0102C7.59266 11.4807 7.99511 10.8144 7.27814 10.2593L4.73732 8.73089C4.5322 8.61056 4.54322 8.32345 4.75275 8.21367L8.43166 6.29256L8.99408 6.016C9.59305 5.66529 9.50016 5.26445 9.15179 4.9714C9.14816 4.96834 9.14406 4.96572 9.14063 4.96244C9.13736 4.95931 9.13363 4.95703 9.13012 4.95418C7.87087 3.93331 5.23647 2.23063 4.39255 1.69094C4.21447 1.57706 3.98271 1.44075 4.03127 1.23503C4.0613 1.1078 4.17562 1 4.33811 1Z" fill="#B1B1B1"/>
<path d="M16.4944 1.14941H13.4553H10.4163H4.33811C4.17562 1.14941 4.0613 1.25721 4.03127 1.38444C3.98271 1.59016 4.21447 1.72648 4.39255 1.84036C5.23648 2.38005 7.87087 4.08272 9.13012 5.1036C9.13363 5.10644 9.13736 5.10873 9.14063 5.11185V5.11185C9.14406 5.11514 9.14816 5.11776 9.15179 5.12081C9.50016 5.41386 9.59305 5.81471 8.99408 6.16542L8.43166 6.44197L4.75275 8.36308C4.54322 8.47286 4.5322 8.75997 4.73732 8.88031L7.27814 10.4087C8.43166 11.3018 8.59487 11.5129 8.59487 12.9189" stroke="black" stroke-width="1.69496" stroke-miterlimit="10"/>
<path d="M7.76289 25.7775V29.4434H6.70972C5.94204 29.4434 5.32933 28.8286 5.32933 28.0862V26.0816C5.32933 25.3392 5.94204 24.7243 6.70972 24.7243C7.29137 24.7243 7.76289 25.1959 7.76289 25.7775Z" fill="#3A3A3A" stroke="black" stroke-width="1.10055"/>
<path d="M63.0161 25.7812C63.0161 25.1995 63.4876 24.728 64.0693 24.728C64.8369 24.728 65.4497 25.3429 65.4497 26.0853V28.0898C65.4497 28.8322 64.8369 29.4471 64.0693 29.4471C63.4876 29.4471 63.0161 28.9756 63.0161 28.3939V25.7812Z" fill="#3A3A3A" stroke="black" stroke-width="1.10055"/>
<path d="M35.142 22.0477C33.1244 22.0477 16.9278 22.3269 9.08153 22.0477C5.7189 22.0477 7.06206 27.5723 7.39928 29.586C8.24083 34.6116 9.73283 35.7738 12.4439 37.1244C15.8067 38.7996 24.2138 39.6371 26.7354 37.1244C28.6151 35.2513 31.2617 28.5707 31.7795 27.9109C33.5586 25.6438 36.8249 26.3603 37.6642 27.0733C39.6361 28.7485 41.0269 32.0988 42.7082 35.4492C44.3896 38.7996 47.7522 38.7996 55.3183 37.962C63.3024 37.0781 63.7251 29.5861 63.725 26.2357V26.2348C63.7249 23.4726 63.7248 22.0477 62.0436 22.0477C53.9172 22.3269 37.1596 22.0477 35.142 22.0477Z" fill="#D9D9D9"/>
<path d="M35.142 22.0477C33.1244 22.0477 16.9278 22.3269 9.08153 22.0477C5.7189 22.0477 7.06206 27.5723 7.39928 29.586C8.24083 34.6116 9.73283 35.7738 12.4439 37.1244C15.8067 38.7996 24.2138 39.6371 26.7354 37.1244C28.6151 35.2513 31.2617 28.5707 31.7795 27.9109C33.5586 25.6438 36.8249 26.3603 37.6642 27.0733C39.6361 28.7485 41.0269 32.0988 42.7082 35.4492C44.3896 38.7996 47.7522 38.7996 55.3183 37.962C63.3024 37.0781 63.7251 29.5861 63.725 26.2357V26.2348C63.7249 23.4726 63.7248 22.0477 62.0436 22.0477C53.9172 22.3269 37.1596 22.0477 35.142 22.0477Z" fill="url(#paint0_linear_1082_1485)"/>
<path d="M35.142 22.0477C33.1244 22.0477 16.9278 22.3269 9.08153 22.0477C5.7189 22.0477 7.06206 27.5723 7.39928 29.586C8.24083 34.6116 9.73283 35.7738 12.4439 37.1244C15.8067 38.7996 24.2138 39.6371 26.7354 37.1244C28.6151 35.2513 31.2617 28.5707 31.7795 27.9109C33.5586 25.6438 36.8249 26.3603 37.6642 27.0733C39.6361 28.7485 41.0269 32.0988 42.7082 35.4492C44.3896 38.7996 47.7522 38.7996 55.3183 37.962C63.3024 37.0781 63.7251 29.5861 63.725 26.2357V26.2348C63.7249 23.4726 63.7248 22.0477 62.0436 22.0477C53.9172 22.3269 37.1596 22.0477 35.142 22.0477Z" stroke="black" stroke-width="1.24161"/>
<line x1="35.0078" y1="22.0478" x2="35.0078" y2="26.3363" stroke="black" stroke-width="0.496642"/>
<path d="M7.2027 44.0175C7.71037 44.0114 8.12688 43.6011 8.13299 43.101C8.1391 42.6009 7.7325 42.2005 7.22482 42.2066L7.2027 44.0175ZM7.22482 42.2066C7.08692 42.2082 6.92349 42.242 6.87544 42.2511C6.78131 42.2688 6.68231 42.2882 6.56184 42.3081C6.32523 42.3472 6.02459 42.3847 5.68006 42.3864C4.99502 42.3899 4.13726 42.2525 3.27544 41.6922L2.23705 43.2112C3.46245 44.0078 4.69309 44.2023 5.64483 44.1975C6.11869 44.1951 6.52352 44.1436 6.82289 44.0941C6.97041 44.0698 7.09701 44.045 7.17904 44.0295C7.30715 44.0054 7.27042 44.0167 7.2027 44.0175L7.22482 42.2066ZM3.27544 41.6922C2.58854 41.2457 2.40358 40.4708 2.68556 39.8448C2.94866 39.2607 3.77604 38.5259 5.69193 38.6213L5.82908 36.8124C3.40119 36.6916 1.68283 37.6458 1.00793 39.144C0.351927 40.6003 0.836721 42.3009 2.23705 43.2112L3.27544 41.6922Z" fill="#E48F0B"/>
<path d="M43.0297 51.7752C38.6562 51.7752 33.0227 55.0733 27.4126 53.1341C21.4683 51.0794 27.4126 60.1756 35.6002 60.1756C46.9719 60.1756 47.73 51.7752 43.0297 51.7752Z" fill="white" stroke="black" stroke-width="1.45657"/>
<defs>
<linearGradient id="paint0_linear_1082_1485" x1="5.4478" y1="28.8" x2="62.1333" y2="29.4291" gradientUnits="userSpaceOnUse">
<stop stop-color="#2400FF"/>
<stop offset="0.135793" stop-color="#009688"/>
<stop offset="0.241535" stop-color="#EDDA48"/>
<stop offset="0.385726" stop-color="#E84D1F"/>
<stop offset="0.515625" stop-color="#E50E0E"/>
<stop offset="0.639765" stop-color="#E7491D"/>
<stop offset="0.816741" stop-color="#EDDA48"/>
<stop offset="0.906204" stop-color="#009688"/>
<stop offset="1" stop-color="#1932D8"/>
</linearGradient>
</defs>
</svg>
