<svg width="67" height="71" viewBox="0 0 67 71" fill="none" xmlns="http://www.w3.org/2000/svg">
<path d="M62.2478 8.07921L65.637 55.8495C65.641 55.9062 65.6455 55.9541 65.6489 56.0109C65.7142 57.1175 65.7951 69.8962 34.7137 69.8962C4.89429 69.8962 5.02338 57.9445 5.09423 56.8782C5.09797 56.822 5.10301 56.7743 5.1076 56.7181L8.39702 16.4206L8.90827 7.6631C9.07976 4.72547 10.682 2.49151 12.654 1.4622C13.0939 1.23258 13.5934 1.15915 14.0896 1.1561C15.5227 1.1473 16.7881 1.12023 17.7549 1.15865H54.5226C58.5674 1.15865 61.9315 4.17271 62.2478 8.07921Z" fill="#B1B1B1" stroke="black" stroke-width="1.76011" stroke-miterlimit="10"/>
<path d="M16.0667 2.06017C15.1097 2.83585 14.7131 11.6717 14.6519 17.2441C14.6414 18.2024 14.3117 19.1282 13.5834 19.7512C11.8148 21.2641 8.84522 23.3203 8.72281 23.9405C8.47137 25.2143 7.58661 35.4412 7.58716 36.2055C7.58748 36.6537 12.6319 43.8935 12.6319 44.8708C12.6319 45.8481 12.5213 60.0656 12.6319 60.9208C12.7425 61.7759 17.6368 67.8328 19.798 68.3088C22.8153 68.9734 40.542 70.6017 51.6055 67.7993C52.7856 67.5004 57.5901 61.7759 58.143 60.9208C58.6959 60.0656 58.0175 44.7196 58.3947 43.9553C58.9058 42.9196 63.1721 37.3135 63.1721 36.3363C63.1721 35.359 62.795 26.0184 62.4178 24.3625C62.105 22.9891 56.673 19.3946 56.673 18.7487C56.673 17.9913 56.7355 2.29281 55.5873 2.06015C54.3301 1.8054 46.5829 1.83312 45.3665 1.83312C44.1501 1.83312 42.6192 9.66495 41.5481 10.0754C40.1651 10.6054 32.0642 10.0754 30.2948 10.0754C28.5255 10.0754 27.315 2.272 26.0604 2.06015C24.5518 1.8054 16.6953 1.55064 16.0667 2.06017Z" fill="#E0E0E0"/>
<path d="M44.4388 69.5113C45.4843 69.3101 53.8886 60.7673 54.3708 59.9434C54.8172 59.1808 54.3146 49.7551 54.8495 47.7985C54.9128 47.567 55.0733 47.3847 55.2203 47.1951L63.9147 35.9783M25.329 69.1336C23.4442 68.675 16.2478 60.7673 16.1513 59.9434C16.0805 59.338 16.0459 52.8921 15.9327 49.5164C15.8893 48.2203 15.3064 46.8845 14.5054 45.8646L6.97363 36.2756" stroke="#B1B1B1" stroke-width="1.50866"/>
<path d="M62.2488 8.07932L65.638 55.8496C65.642 55.9063 65.6465 55.9542 65.6499 56.011C65.7151 57.1176 65.796 69.8963 34.7147 69.8963C4.89526 69.8963 5.02435 57.9446 5.09521 56.8783C5.09895 56.8221 5.10399 56.7744 5.10858 56.7182L8.39799 16.4207L8.90924 7.66321C9.13185 3.85006 11.6747 0.924446 14.4759 1.15864C15.763 1.15877 16.8987 1.15852 17.7558 1.15875H54.5236C58.9935 1.37855 61.9325 4.17281 62.2488 8.07932Z" stroke="black" stroke-width="1.76859" stroke-miterlimit="10"/>
<path d="M4.34352 1.00012H9.65271C12.0277 1.00012 13.9861 2.97145 13.639 5.32091C13.1388 8.70768 12.1904 10.5935 11.2508 11.6406C10.0821 12.9429 8.66624 11.4603 7.28855 10.3815L4.74341 8.83289C4.53794 8.71097 4.54899 8.42008 4.75888 8.30886L8.44403 6.36243L9.00741 6.08223C9.60739 5.72689 9.51434 5.32077 9.16538 5.02386C9.16174 5.02076 9.15764 5.0181 9.1542 5.01478C9.15093 5.01162 9.14719 5.0093 9.14368 5.00642C7.88767 3.97651 5.26595 2.26171 4.40899 1.70725C4.22323 1.58706 3.98068 1.44074 4.03894 1.22729C4.0728 1.10321 4.18539 1.00012 4.34352 1.00012Z" fill="#B1B1B1"/>
<path d="M16.5205 1.15155H10.432H4.34352C4.18539 1.15155 4.0728 1.25464 4.03894 1.37872C3.98068 1.59217 4.22323 1.73848 4.40899 1.85868C5.26595 2.41314 7.88767 4.12794 9.14368 5.15784C9.14719 5.16073 9.15093 5.16305 9.1542 5.16621V5.16621C9.15764 5.16953 9.16174 5.17219 9.16538 5.17528C9.51434 5.47219 9.60739 5.87832 9.00741 6.23365L8.44403 6.51385L4.75888 8.46028C4.54899 8.57151 4.53794 8.8624 4.74341 8.98432L7.28855 10.5329C8.44403 11.4377 8.60752 11.6516 8.60752 13.0761" stroke="black" stroke-width="1.76859" stroke-miterlimit="10"/>
<path d="M7.75207 26.0857V29.8017H6.72008C5.9697 29.8017 5.36031 29.1922 5.36031 28.4432V26.4122C5.36031 25.6633 5.9697 25.0537 6.72008 25.0537C7.29003 25.0537 7.75207 25.5158 7.75207 26.0857Z" fill="#3A3A3A" stroke="black" stroke-width="1.14835"/>
<path d="M63.1445 26.0893C63.1445 25.5194 63.6065 25.0573 64.1765 25.0573C64.9269 25.0573 65.5362 25.6669 65.5362 26.4158V28.4468C65.5362 29.1958 64.9269 29.8053 64.1765 29.8053C63.6065 29.8053 63.1445 29.3433 63.1445 28.7733V26.0893Z" fill="#3A3A3A" stroke="black" stroke-width="1.14835"/>
<path d="M60.7919 23.5323L60.7905 23.5323L35.4561 23.8308L35.4488 23.8309L35.4415 23.8308L10.1035 23.485L10.1032 23.485C8.66367 23.4645 7.53347 24.7089 7.69187 26.1377C7.69187 26.1377 7.69187 26.1377 7.69188 26.1377C7.69188 26.1378 7.69189 26.1378 7.69189 26.1379L8.34016 31.9612L8.34017 31.9613C8.75481 35.6905 11.4537 38.8023 15.1012 39.6134C16.8415 39.9983 18.6272 40.2099 20.4179 40.3105L20.4183 40.3105C20.6719 40.3249 20.9263 40.3423 21.1813 40.3598C21.8931 40.4085 22.6095 40.4575 23.3261 40.4425C24.2901 40.4224 25.1766 40.2849 25.9242 39.9058L25.9248 39.9055C26.7275 39.4997 27.3695 38.8127 27.9419 37.9769C28.368 37.3547 28.7307 36.69 29.0928 36.0265C29.223 35.7881 29.353 35.5498 29.4859 35.3137M60.7919 23.5323L29.9862 35.5953M60.7919 23.5323C62.2323 23.5118 63.3609 24.7568 63.1997 26.1803L63.1996 26.1815L62.555 31.9865C62.555 31.9866 62.5549 31.9867 62.5549 31.9868C62.1367 35.7339 59.42 38.8566 55.7543 39.6642C53.9899 40.0525 52.1828 40.257 50.3647 40.3578C50.1358 40.3702 49.9091 40.3842 49.6847 40.3982C47.9917 40.5032 46.4288 40.6001 45.0265 39.9227L45.0259 39.9224C44.1876 39.5186 43.5443 38.8576 42.9779 38.0496C42.5497 37.4387 42.188 36.7796 41.8171 36.104C41.6892 35.8709 41.5602 35.6359 41.427 35.4001L40.9271 35.6826L60.7919 23.5323ZM29.4859 35.3137L29.9862 35.5953M29.4859 35.3137C29.4858 35.3137 29.4858 35.3138 29.4857 35.3139L29.9862 35.5953M29.4859 35.3137C29.8207 34.718 30.1519 34.1044 30.4859 33.4857C31.0396 32.4596 31.6012 31.4192 32.2002 30.4223M29.9862 35.5953C30.332 34.9803 30.6672 34.359 31.0025 33.7376C31.5502 32.7224 32.0981 31.7069 32.6923 30.7181M32.2002 30.4223C32.2001 30.4225 32.2 30.4226 32.1999 30.4227L32.6923 30.7181M32.2002 30.4223L32.6923 30.7181M32.2002 30.4223L32.6923 30.7181M34.8723 28.8169C34.8717 28.8169 34.871 28.8168 34.8704 28.8168L34.8302 29.3896L34.8745 28.8171C34.8738 28.817 34.8731 28.817 34.8723 28.8169ZM36.047 28.8305C36.0468 28.8305 36.0465 28.8305 36.0463 28.8305L36.0722 29.4041L36.047 28.8305Z" fill="url(#paint0_linear_1003_1940)" stroke="black" stroke-width="1.14835"/>
<path d="M35.4478 23.7148H35.7923H35.4478Z" fill="#3A3A3A" stroke="black" stroke-width="2.2713"/>
<path d="M7.2182 44.6135C7.74712 44.607 8.17883 44.1781 8.18244 43.6555C8.18606 43.1328 7.76021 42.7143 7.23129 42.7208L7.2182 44.6135ZM7.23129 42.7208C7.08824 42.7225 6.91985 42.7578 6.87365 42.7666C6.77909 42.7847 6.68054 42.8042 6.56048 42.8243C6.32488 42.8636 6.02619 42.9013 5.68422 42.903C5.00466 42.9064 4.15495 42.7688 3.3007 42.2071L2.21861 43.7891C3.45513 44.6021 4.69737 44.8007 5.65736 44.7958C6.13517 44.7934 6.54316 44.7408 6.84445 44.6904C6.99283 44.6657 7.12027 44.6405 7.20217 44.6248C7.33242 44.6 7.29095 44.6126 7.2182 44.6135L7.23129 42.7208ZM3.3007 42.2071C2.63069 41.7665 2.44434 40.997 2.72402 40.369C2.98307 39.7874 3.79852 39.0502 5.70203 39.146L5.836 37.2556C3.38837 37.1324 1.65375 38.1065 0.973218 39.6345C0.313312 41.1163 0.797858 42.8549 2.21861 43.7891L3.3007 42.2071Z" fill="#E48F0B"/>
<path d="M43.1006 52.4442C38.7197 52.4442 33.0766 55.7857 27.457 53.821C21.5025 51.7393 27.457 60.9553 35.6585 60.9553C47.0495 60.9553 47.8089 52.4442 43.1006 52.4442Z" fill="white" stroke="black" stroke-width="1.51983"/>
<defs>
<linearGradient id="paint0_linear_1003_1940" x1="5.70525" y1="30.2603" x2="62.204" y2="30.8345" gradientUnits="userSpaceOnUse">
<stop stop-color="#2400FF"/>
<stop offset="0.135793" stop-color="#009688"/>
<stop offset="0.241535" stop-color="#EDDA48"/>
<stop offset="0.385726" stop-color="#E84D1F"/>
<stop offset="0.515625" stop-color="#E50E0E"/>
<stop offset="0.639765" stop-color="#E7491D"/>
<stop offset="0.816741" stop-color="#EDDA48"/>
<stop offset="0.906204" stop-color="#009688"/>
<stop offset="1" stop-color="#1932D8"/>
</linearGradient>
</defs>
</svg>
