<svg width="75" height="74" viewBox="0 0 75 74" fill="none" xmlns="http://www.w3.org/2000/svg">
<path d="M64.1131 8.00698L67.5239 56.0493C67.5239 56.0493 69.0898 70.0654 36.4528 70.0654C5.09789 70.0654 6.70393 56.9205 6.70393 56.9205L10.0153 16.3809L10.5289 7.58924C10.7238 3.64091 11.9499 1.58209 14.909 1.00004L19.0925 1L56.3525 1.05938C61.3837 1.05938 63.7953 4.08521 64.1131 8.00698Z" fill="#A6CBD9" stroke="black" stroke-width="1.76771" stroke-miterlimit="10"/>
<path d="M59.2314 43.3423C62.6626 48.0629 62.6654 55.7243 62.6654 55.7243C62.6654 55.7243 64.1371 69.4819 36.3145 68.9816C11.5234 69.3568 11.4008 56.2246 11.4008 56.2246C10.9103 53.4731 12.0241 48.6503 14.9574 44.0929C21.1312 34.5006 27.3043 31.0928 38.0142 30.8359C47.9898 30.5967 53.2103 35.0585 59.2314 43.3423Z" fill="#F4F4F4"/>
<path d="M7.53804 51.1749C7.53804 51.1749 7.29182 50.5934 7.91567 49.9503C12.7014 52.9195 16.3435 49.6623 16.247 50.5934C16.247 50.5934 15.2445 53.0597 11.2261 52.7932C9.10073 52.5609 8.15579 52.7721 7.53804 51.1749Z" fill="black"/>
<path d="M66.9411 51.0242C66.9411 51.0242 67.8426 49.952 66.3174 49.9501C61.5317 52.9194 57.8896 49.6622 57.9861 50.5933C57.9861 50.5933 58.9886 53.0595 63.007 52.793C65.1324 52.5608 66.3233 52.6214 66.9411 51.0242Z" fill="black"/>
<path d="M6.91341 55.2961C6.91341 55.2961 6.91392 54.791 7.53792 53.9993C11.5948 56.7353 16.0553 53.8594 15.9588 54.7905C15.9588 54.7905 14.4224 57.0981 10.8571 56.8617C8.64417 56.7149 7.53792 56.3559 6.91341 55.2961Z" fill="black"/>
<path d="M67.3194 55.2548C67.3194 55.2548 67.3198 54.3178 66.6949 53.958C62.638 56.694 58.1775 53.8181 58.274 54.7492C58.274 54.7492 59.8104 57.0568 63.3757 56.8204C65.5886 56.6736 66.6949 56.3146 67.3194 55.2548Z" fill="black"/>
<path d="M5.94436 1H15.6308C15.3123 13.7481 10.2282 12.9802 10.2282 12.9802C10.2282 11.549 10.064 11.3341 8.90313 10.4251L6.34611 8.86931C6.13969 8.74682 6.15078 8.45457 6.36165 8.34282L10.064 6.38732L10.63 6.10581C11.236 5.74694 11.1383 5.3365 10.7832 5.0378C10.7787 5.03565 10.7765 5.03135 10.7721 5.0292C9.25383 3.78284 5.73127 1.53078 5.73127 1.53078C5.51819 1.34168 5.65581 1 5.94436 1Z" fill="#A6CBD9"/>
<path d="M18.1781 1H12.0612H5.94436C5.65581 1 5.51819 1.34168 5.73127 1.53078C5.73127 1.53078 9.25382 3.78284 10.7721 5.0292C10.7765 5.03135 10.7787 5.03565 10.7832 5.0378C11.1383 5.3365 11.236 5.74694 10.63 6.10581L10.064 6.38732L6.36165 8.34282C6.15078 8.45457 6.13969 8.74682 6.34611 8.86931L8.90312 10.4251C10.064 11.3341 10.2282 11.549 10.2282 12.9802" stroke="black" stroke-width="1.76923" stroke-miterlimit="10"/>
<path d="M50.2069 40.4338C47.061 39.1754 41.1135 36.1554 36.8353 36.1554C32.557 36.1554 28.3117 38.2733 23.9075 40.4338C17.4643 43.5944 9.27865 43.6714 5.32336 48.6155C5.32336 49.4672 20.8081 67.55 21.6307 68.4016C24.7721 69.9015 29.6271 70.706 32.3116 70.9014C38.0918 71.322 38.3585 71.0888 42.4899 70.9014C46.6212 70.7139 53.3516 68.3784 54.176 67.5268C55.0004 66.6751 69.837 49.2421 68.5786 46.9771C62.2869 42.6988 53.3527 41.6921 50.2069 40.4338Z" fill="#353535" stroke="black" stroke-width="1.76168"/>
<path d="M61.0152 57.658C63.6032 50.0557 62.8385 43.3366 59.3072 42.6504C55.7759 41.9642 50.8153 47.5707 48.2273 55.173C45.6393 62.7752 46.4039 69.4943 49.9352 70.1806C53.4666 70.8668 58.4272 65.2602 61.0152 57.658Z" fill="#0E0E0E"/>
<path d="M69.7638 45.4781L59.97 43.6478C59.97 43.6478 54.5782 45.648 51.4304 54.5231C48.2584 63.4631 50.9432 69.5469 50.9432 69.5469L60.8032 71.8003L69.7638 45.4781Z" fill="#444444"/>
<path d="M69.7638 45.4781L59.97 43.6478C59.97 43.6478 54.5782 45.648 51.4304 54.5231C48.2584 63.4631 50.9432 69.5469 50.9432 69.5469L60.8032 71.8003L69.7638 45.4781Z" stroke="black" stroke-width="0.912758" stroke-miterlimit="10"/>
<path d="M70.4586 59.6467C72.9332 52.3776 72.4318 45.9976 69.3389 45.3966C66.2459 44.7955 61.7324 50.201 59.2579 57.4701C56.7833 64.7392 57.2846 71.1192 60.3776 71.7202C63.4706 72.3213 67.984 66.9158 70.4586 59.6467Z" fill="#C4D28A"/>
<path d="M68.8372 59.3314C70.7847 53.6105 70.6551 48.6409 68.5477 48.2314C66.4402 47.8219 63.153 52.1275 61.2055 57.8484C59.258 63.5692 59.3876 68.5388 61.4951 68.9484C63.6025 69.3579 66.8897 65.0522 68.8372 59.3314Z" fill="#232323"/>
<path d="M70.4586 59.6465C72.9668 52.2785 72.3965 45.7997 69.1848 45.1756C65.9731 44.5515 61.3362 50.0184 58.8279 57.3864C56.3197 64.7543 56.89 71.2331 60.1017 71.8572C63.3134 72.4813 67.9503 67.0144 70.4586 59.6465Z" stroke="black" stroke-width="1.00667" stroke-miterlimit="10"/>
<path d="M69.0466 59.3721C70.9942 53.6512 70.8176 48.6725 68.6524 48.2517C66.4871 47.831 63.153 52.1275 61.2055 57.8484C59.258 63.5692 59.4345 68.5479 61.5998 68.9687C63.765 69.3895 67.0991 65.0929 69.0466 59.3721Z" stroke="black" stroke-width="0.628239" stroke-miterlimit="10"/>
<path d="M25.0631 70.4687C28.5946 69.7824 29.3594 63.0629 26.7712 55.4602C24.183 47.8574 19.2221 42.2505 15.6905 42.9368C12.159 43.6231 11.3943 50.3426 13.9824 57.9453C16.5706 65.5481 21.5316 71.1549 25.0631 70.4687Z" fill="#0E0E0E"/>
<path d="M5.23315 45.763L15.0276 43.9326C15.0276 43.9326 20.4197 45.9329 23.5677 54.8085C26.7399 63.7491 24.0549 69.8333 24.0549 69.8333L14.1943 72.0868L5.23315 45.763Z" fill="#444444"/>
<path d="M5.23315 45.763L15.0276 43.9326C15.0276 43.9326 20.4197 45.9329 23.5677 54.8085C26.7399 63.7491 24.0549 69.8333 24.0549 69.8333L14.1943 72.0868L5.23315 45.763Z" stroke="black" stroke-width="0.912758" stroke-miterlimit="10"/>
<path d="M14.621 72.3243C17.6737 71.729 18.1258 65.2842 15.6308 57.9294C13.1358 50.5747 8.63848 45.095 5.58577 45.6903C2.53306 46.2856 2.08095 52.7304 4.57596 60.0852C7.07096 67.44 11.5683 72.9196 14.621 72.3243Z" fill="#C4D28A"/>
<path d="M13.2428 69.2838C15.4938 68.8464 15.7397 63.8538 13.792 58.1327C11.8444 52.4115 8.44075 48.1281 6.18977 48.5655C3.93879 49.0029 3.69289 53.9955 5.64053 59.7167C7.58818 65.4379 10.9918 69.7212 13.2428 69.2838Z" fill="#232323"/>
<path d="M14.7382 72.1751C17.8788 71.5627 18.3985 65.0932 15.8989 57.7251C13.3994 50.3569 8.82715 44.8803 5.68656 45.4928C2.54596 46.1052 2.02627 52.5747 4.52581 59.9429C7.02535 67.311 11.5976 72.7876 14.7382 72.1751Z" stroke="black" stroke-width="1.00667" stroke-miterlimit="10"/>
<path d="M14.1845 23.767L9.81714 27.3402V29.7224L10.6112 36.4719L12.861 41.2362L17.493 42.4273H25.4336L30.4626 39.7804L33.6388 33.1633L34.4329 26.5462L32.4478 23.767L26.0953 22.5759H19.2135L14.1845 23.767Z" fill="#995F3F" stroke="black" stroke-width="0.252492"/>
<path d="M60.6357 23.8998L65.0031 27.4731V29.8553L64.209 36.6047L61.9592 41.3691L57.3272 42.5602H49.3866L44.3576 39.9133L41.1814 33.2962L40.3873 26.679L42.3724 23.8998L48.7249 22.7087H55.6067L60.6357 23.8998Z" fill="#995F3F" stroke="black" stroke-width="0.252492"/>
<path d="M65.8271 23.0476C63.6371 22.6381 61.4347 22.2287 59.2199 21.9557C54.0603 21.3106 48.9007 21.1865 43.7659 22.2535C39.6581 23.1096 35.5378 23.1344 31.4052 22.3404C28.5099 21.7696 25.5899 21.385 22.6327 21.385C20.4303 21.5463 18.2155 21.6083 16.0255 21.8937C13.4519 22.2287 10.9031 22.7374 8.34183 23.1716C7.84691 23.2585 7.56232 23.5066 7.53758 24.0401C7.46334 25.9012 7.35198 27.7623 7.30249 29.6358C7.30249 29.9583 7.48809 30.4298 7.74792 30.5787C8.24284 30.8889 8.31708 31.3231 8.45319 31.7946C9.22032 34.3257 9.92558 36.8939 10.8288 39.3754C11.6454 41.6335 13.5014 42.8618 15.7657 43.234C19.3786 43.8171 23.0039 43.7427 26.5674 42.7873C28.6584 42.229 30.3535 41.162 31.5042 39.2265C32.692 37.2289 33.6819 35.1445 34.3624 32.9361C34.8821 31.2735 35.3275 29.5861 35.81 27.9112C36.0204 27.1667 36.6143 27.0675 37.2577 27.0551C37.9382 27.0551 38.6187 27.0675 38.8786 27.8863C39.1136 28.6308 39.3487 29.3876 39.5343 30.1444C40.3138 33.209 41.3655 36.1495 42.974 38.8915C44.2237 41.0379 46.0302 42.2662 48.3811 42.8618C51.4743 43.6434 54.6047 43.6806 57.7475 43.4201C60.7541 43.1719 63.0803 41.832 64.1072 38.8667C64.9486 36.4349 65.6044 33.9286 66.3468 31.472C66.421 31.2115 66.619 30.9881 66.7551 30.74C66.9778 30.3306 67.3737 29.9211 67.3861 29.5117C67.4109 27.8863 67.3614 26.261 67.2624 24.6481C67.1758 23.3329 67.1263 23.2833 65.8271 23.0476ZM33.5953 29.0402C33.3602 31.2611 32.7168 33.3703 31.7888 35.3927C31.3557 36.3232 30.8361 37.2165 30.3164 38.1098C29.2647 39.9089 27.6809 40.9387 25.6518 41.4101C22.311 42.167 18.9827 42.0801 15.6543 41.3853C14.4046 41.1248 13.4767 40.4051 12.8704 39.2761C10.8536 35.5167 10.4576 31.534 11.3485 27.4025C11.5588 26.4471 12.2888 25.9384 13.0931 25.529C14.8996 24.6109 16.8669 24.3131 18.8466 24.1022C20.0715 23.9781 21.2964 23.9533 22.5214 23.8788C22.509 23.9285 22.5337 23.8292 22.5214 23.8788C24.11 23.8788 27.2108 24.3255 29.5245 24.6977C30.2545 24.8218 30.9845 25.1444 31.6651 25.467C33.2859 26.2486 33.7809 27.2412 33.5953 29.0402ZM62.2389 38.4944C61.4594 40.219 60.2345 41.3109 58.3166 41.5342C57.0298 41.6831 55.7307 41.832 54.4439 41.9809C52.2415 41.9684 50.0762 41.7699 47.9728 41.0751C46.7726 40.6781 45.7704 40.0081 45.0156 38.9907C42.7637 35.9386 41.4522 32.5018 41.1057 28.73C40.9449 26.9806 41.7615 25.8888 43.4071 25.2188C45.857 24.2262 48.4306 23.9781 51.0289 23.9037C53.6768 23.8416 56.337 23.8913 58.8982 24.5861C60.086 24.9086 61.2614 25.3925 62.3379 25.9881C63.3896 26.5712 63.4515 27.7623 63.5999 28.8417C64.0578 32.1916 63.6247 35.4051 62.2389 38.4944Z" fill="black"/>
</svg>
