<svg width="77" height="80" viewBox="0 0 77 80" fill="none" xmlns="http://www.w3.org/2000/svg">
<path d="M73.1987 30.228C73.0928 29.3736 71.2055 29.4549 71.1734 30.3791C71.1602 30.7566 71.7702 35.9659 71.7702 35.9659L73.9178 35.7331C73.9178 35.7331 73.3046 31.083 73.1987 30.228Z" fill="#B4B4B4" stroke="black" stroke-width="1.39671"/>
<path d="M76.1596 47.4145C76.2927 48.8735 74.9423 50.1441 73.143 50.2528L71.3848 50.3591L69.9521 34.6534L71.7103 34.5471C73.5096 34.4384 75.0757 35.5327 75.2088 36.9917L76.1596 47.4145Z" fill="#B4B4B4" stroke="black" stroke-width="1.39671"/>
<path d="M64.3382 20.0752L67.577 65.6916C67.577 65.6916 69.064 78.9999 38.0726 78.9999C8.29865 78.9999 9.82372 66.5188 9.82372 66.5188L12.9682 28.0263L13.4559 19.6786C13.7106 15.3186 13.7106 13.4785 18.405 13.4288C20.2828 13.409 20.4995 13.4286 21.8717 13.4286L56.9689 13.4785C61.3051 13.4785 64.0365 16.3515 64.3382 20.0752Z" fill="#FFCC5A" stroke="black" stroke-width="1.67957" stroke-miterlimit="10"/>
<path d="M9.10049 13.4224H18.2978C17.9954 25.5268 13.1681 24.7976 13.1681 24.7976C13.1681 23.4387 13.0121 23.2347 11.9098 22.3716L9.48195 20.8944C9.28595 20.7781 9.29649 20.5006 9.49671 20.3945L13.0121 18.5377L13.5495 18.2704C14.1249 17.9297 14.0321 17.5399 13.6949 17.2563C13.6907 17.2543 13.6886 17.2502 13.6844 17.2482C12.2428 16.0647 8.89816 13.9264 8.89816 13.9264C8.69584 13.7468 8.82651 13.4224 9.10049 13.4224Z" fill="#FFCC5A"/>
<path d="M20.7165 13.4224H9.10049C8.82651 13.4224 8.69584 13.7468 8.89816 13.9264C8.89816 13.9264 12.2428 16.0647 13.6844 17.2482C13.6886 17.2502 13.6907 17.2543 13.6949 17.2563C14.0321 17.5399 14.1249 17.9297 13.5495 18.2704L13.0121 18.5377L9.49671 20.3945C9.29649 20.5006 9.28595 20.7781 9.48195 20.8944L11.9098 22.3716C13.0121 23.2347 13.1681 23.4387 13.1681 24.7976" stroke="black" stroke-width="1.67989" stroke-miterlimit="10"/>
<path d="M46.0727 62.3521C41.8937 62.352 36.5105 65.5396 31.1497 63.6654C25.4696 61.6796 31.1498 70.471 38.9734 70.471C49.8397 70.471 50.5641 62.3521 46.0727 62.3521Z" fill="white" stroke="black" stroke-width="1.44982"/>
<path d="M38.6964 8.80005C8.42186 8.80005 5.76672 31.3334 5.76672 31.3334H6.19689C10.3057 21.4355 18.6271 14.607 38.6964 14.607C58.7657 14.607 66.6465 21.3143 70.7553 31.2122L71.6335 31.3334C71.6335 31.3334 68.9783 8.80005 38.6964 8.80005Z" fill="black"/>
<path d="M38.5519 1C0.781874 1 3.95417 30.6112 3.95417 30.6112H5.4555C9.77447 19.1136 17.4674 8.80001 38.5519 8.80001C59.6364 8.80001 68.2452 19.6415 71.3627 30.6112H73.1568C73.1568 30.6112 76.3219 1 38.5519 1Z" fill="#B4B4B4" stroke="black" stroke-width="1.39671"/>
<path d="M3.85905 30.4925C3.90709 29.9175 5.93368 29.6653 6.00736 30.5875C6.03746 30.9642 5.73817 36.0124 5.73817 36.0124L3.58986 35.9174C3.58986 35.9174 3.78732 31.3512 3.85905 30.4925Z" fill="#B4B4B4" stroke="black" stroke-width="1.39671"/>
<path d="M71.5464 51.0016C71.5828 51.4006 71.3209 51.7889 70.856 52.0347C69.5477 52.7212 69.0549 52.751 67.6363 52.2293C67.132 52.042 66.8025 51.6894 66.7661 51.2905C66.2597 45.7396 65.7529 40.183 65.2465 34.6321C65.2101 34.2332 65.472 33.8449 65.9369 33.599C67.2452 32.9125 67.738 32.8828 69.1566 33.4045C69.6609 33.5918 69.9904 33.9443 70.0268 34.3433C70.5331 39.8942 71.0395 45.4451 71.5464 51.0016Z" fill="#020202" stroke="black" stroke-width="1.39671"/>
<path d="M5.88182 51.0772C5.84522 51.4761 6.10861 51.8645 6.5761 52.1103C7.8919 52.7968 8.38752 52.8266 9.81417 52.3049C10.3214 52.1176 10.6528 51.765 10.6894 51.3661C11.1986 45.8152 11.7084 40.2586 12.2176 34.7077C12.2542 34.3088 11.9908 33.9204 11.5233 33.6746C10.2075 32.9881 9.71188 32.9583 8.28524 33.48C7.77801 33.6673 7.44665 34.0199 7.41006 34.4188C6.90082 39.9697 6.39158 45.5206 5.88182 51.0772Z" fill="#020202" stroke="black" stroke-width="1.39671"/>
<path d="M1.24253 47.4901C1.10868 48.9491 2.46678 50.2196 4.27634 50.3284L6.04451 50.4346L7.48535 34.7289L5.71718 34.6227C3.90762 34.514 2.33256 35.6083 2.19871 37.0673L1.24253 47.4901Z" fill="#B4B4B4" stroke="black" stroke-width="1.39671"/>
<path d="M43.0173 39.4452C43.3401 40.8923 44.1887 42.1556 44.848 43.4836C45.3242 44.444 45.7062 45.4504 46.2258 46.3874C46.7248 47.2865 47.3469 48.1126 48.0097 48.8988C50.3606 51.6897 53.4728 54.113 57.1011 54.4951C58.0302 54.5928 58.9696 54.5543 59.9001 54.471C60.6798 54.4015 61.4665 54.2989 62.1974 54.0187C63.7528 53.4225 64.92 52.0642 65.6357 50.56C66.3515 49.0558 66.6701 47.398 66.9729 45.7596C67.2854 44.0667 67.5868 42.3215 67.2317 40.6376C67.0968 39.9967 66.8676 39.3778 66.5903 38.7843C66.1553 37.8543 65.5937 36.9758 64.8642 36.2537C63.1086 34.5154 60.567 33.8435 58.1169 33.5233C55.4445 33.1743 52.7281 33.1626 50.0523 33.4875C46.8535 33.8765 42.0841 35.2568 43.0173 39.4452Z" fill="#E84D4D"/>
<path d="M19.5188 34.211C17.0918 34.211 13.6112 35.0596 13.1508 36.2465C12.0809 37.1156 10.6787 36.2465 10.1243 42.7446C10.6785 45.4848 10.1245 44.3104 10.9068 46.5026C10.6787 46.894 11.6273 47.9109 10.9068 47.9901C11.5358 49.3415 11.9375 50.4526 12.5665 51.804C12.7303 52.1551 12.8968 52.5117 13.1508 52.8043C13.6566 53.3887 14.4343 53.6435 15.1728 53.8734C16.2671 54.2142 17.3772 54.5577 18.5224 54.5956C19.5134 54.6279 20.4969 54.4303 21.4611 54.1976C22.4673 53.9546 23.4693 53.6717 24.4067 53.2318C26.4252 52.2859 28.0453 50.6646 29.4968 48.9724C30.9214 47.3112 32.24 45.5296 33.1141 43.5235C33.9888 41.5174 34.3983 39.2607 33.9654 37.1156C33.8725 36.6571 33.7348 36.191 33.4368 35.8309C33.0865 35.4069 32.5587 35.179 32.0514 34.9663C30.7197 34.4093 29.3736 33.8648 27.9724 33.5054C27.0749 33.2755 24.6097 32.5967 23.8588 33.2975C24.8375 34.0224 19.3199 32.9511 19.5188 34.211Z" fill="#E84D4D"/>
<path d="M67.2851 39.6573C66.9148 38.1668 66.1048 36.7301 64.9059 35.7532C62.5818 33.86 58.8585 33.2817 55.9762 32.9313C54.2626 32.7227 52.5193 32.6773 50.8015 32.8466C50.8194 32.8218 50.8338 32.795 50.8407 32.7633C50.4863 32.4879 49.999 32.4769 49.551 32.4941C48.2434 32.5444 46.9461 32.7344 45.646 32.8893C40.7948 33.4662 35.642 33.1454 30.7729 32.7427C29.5279 32.6394 28.6263 32.4989 27.4611 32.9492C25.4667 32.6655 23.4254 32.6876 21.4241 32.9313C18.5418 33.2817 14.8185 33.8607 12.4944 35.7532C11.2948 36.7301 10.4854 38.1668 10.1152 39.6573C9.56048 41.8926 9.8571 44.2457 10.2742 46.5106C10.5439 47.977 10.866 49.444 11.4448 50.8182C12.0801 52.3265 13.0883 53.7619 14.5639 54.4696C15.1922 54.7711 15.8804 54.9288 16.57 55.0328C20.0875 55.5622 23.7977 54.6817 26.7027 52.6274C28.618 51.2732 30.1679 49.4502 31.4225 47.4682C32.7013 45.4491 33.6916 43.7179 34.3578 41.4227C34.5526 41.1789 34.7542 40.9414 34.9683 40.7136C35.6992 39.937 36.5732 39.5831 37.5814 39.2368C38.6695 38.863 39.8891 38.885 40.9627 39.2981C41.6179 39.55 42.2923 39.959 42.7858 40.4582C42.7589 40.3508 42.8106 40.5676 42.7858 40.4582C43.4403 43.1011 44.5235 45.1682 45.9798 47.4682C47.2351 49.4502 48.785 51.2732 50.6996 52.6274C53.6046 54.6817 57.3141 55.5622 60.8323 55.0328C61.5219 54.9288 62.2095 54.7711 62.8385 54.4696C64.3141 53.7619 65.3216 52.3265 65.9575 50.8182C66.5363 49.444 66.8584 47.977 67.1282 46.5106C67.5432 44.2457 67.8398 41.8926 67.2851 39.6573ZM30.4921 46.9113C29.3462 48.6758 27.9312 50.2984 26.1824 51.5038C23.53 53.3323 20.1426 54.1164 16.9313 53.6449C16.3023 53.5526 15.674 53.4122 15.1 53.1437C13.7531 52.5138 12.8323 51.236 12.2521 49.8936C11.7236 48.6702 11.4297 47.3643 11.1833 46.059C10.8027 44.0426 10.5316 41.9477 11.0388 39.9581C11.3767 38.6308 12.1158 37.3517 13.2115 36.4815C15.3333 34.7963 18.7324 34.2813 21.3649 33.9694C24.4323 33.6059 27.6029 33.7973 30.5024 34.8981C31.7247 35.3621 32.9738 36.0733 33.4542 37.2629C33.8354 38.2054 33.6586 39.2683 33.4088 40.2521C32.8114 42.6052 31.8224 44.8632 30.4921 46.9113ZM42.7348 37.1007C42.5814 37.4896 42.5112 37.8965 42.4967 38.3109C40.9627 37.8907 40.5298 37.621 39.0584 37.7009C36.8991 37.8181 35.9597 38.3109 34.9036 38.6682C34.9228 38.1313 34.863 37.1314 34.6661 36.6309C34.1396 35.2947 32.7715 34.4954 31.4329 33.9743C31.2601 33.9068 31.0867 33.8435 30.9119 33.7822C31.1521 33.7987 31.3923 33.8159 31.6325 33.8304C33.1713 33.9233 34.7129 33.9763 36.2546 33.9908C39.3048 34.019 42.3563 33.8944 45.3941 33.6163C46.2372 33.5392 47.0796 33.4504 47.9206 33.3492C47.2606 33.5185 46.6089 33.7257 45.9695 33.9743C44.6295 34.4961 43.2613 35.7644 42.7348 37.1007ZM66.2163 46.0583C65.9699 47.3636 65.676 48.6702 65.1475 49.8929C64.5673 51.236 63.6472 52.5131 62.2996 53.143C61.7257 53.4115 61.0973 53.5519 60.4683 53.6442C57.2563 54.1158 53.8689 53.3316 51.2172 51.5032C49.4684 50.2977 48.0534 48.6751 46.9075 46.9106C45.5772 44.8625 44.5882 42.6052 43.9909 40.2521C43.741 39.269 43.5648 38.2054 43.9454 37.2629C44.4265 36.0733 45.6756 35.3621 46.8979 34.8981C49.7967 33.7973 52.968 33.6053 56.0354 33.9694C58.6679 34.282 62.067 34.7969 64.1888 36.4815C65.2838 37.351 66.0236 38.6301 66.3615 39.9574C66.868 41.947 66.5969 44.0419 66.2163 46.0583Z" fill="#101011"/>
<path d="M42.7858 40.4582C42.2923 39.959 41.6179 39.55 40.9627 39.2981C39.8891 38.885 38.6695 38.863 37.5814 39.2368C36.5732 39.5831 35.6992 39.937 34.9683 40.7136C34.7542 40.9414 34.5526 41.1789 34.3578 41.4227C33.6916 43.7179 32.7013 45.4491 31.4225 47.4682C30.1679 49.4502 28.618 51.2732 26.7027 52.6274C23.7977 54.6816 20.0875 55.5622 16.57 55.0328C15.8804 54.9288 15.1922 54.7711 14.5639 54.4696C13.0883 53.7619 12.0801 52.3265 11.4448 50.8182C10.866 49.444 10.5439 47.977 10.2742 46.5106C9.8571 44.2457 9.56048 41.8926 10.1152 39.6573C10.4854 38.1668 11.2948 36.7301 12.4944 35.7532C14.8185 33.8607 18.5418 33.2817 21.4241 32.9313C23.4254 32.6876 25.4667 32.6655 27.4611 32.9492C28.6263 32.4989 29.5279 32.6394 30.7729 32.7427C35.642 33.1454 40.7948 33.4662 45.646 32.8893C46.9461 32.7344 48.2434 32.5444 49.551 32.4941C49.999 32.4769 50.4863 32.4879 50.8407 32.7633C50.8338 32.795 50.8194 32.8218 50.8015 32.8466C52.5193 32.6773 54.2626 32.7227 55.9762 32.9313C58.8585 33.2817 62.5818 33.86 64.9059 35.7532C66.1048 36.7301 66.9148 38.1668 67.2851 39.6573C67.8398 41.8926 67.5432 44.2457 67.1282 46.5106C66.8584 47.977 66.5363 49.444 65.9575 50.8182C65.3216 52.3265 64.3141 53.7619 62.8385 54.4696C62.2095 54.7711 61.5219 54.9288 60.8323 55.0328C57.3141 55.5622 53.6046 54.6816 50.6996 52.6274C48.785 51.2732 47.2351 49.4502 45.9798 47.4682C44.5235 45.1682 43.4403 43.1011 42.7858 40.4582ZM42.7858 40.4582C42.8106 40.5676 42.7589 40.3508 42.7858 40.4582ZM30.4921 46.9113C29.3462 48.6758 27.9312 50.2984 26.1824 51.5038C23.53 53.3323 20.1426 54.1164 16.9313 53.6449C16.3023 53.5526 15.674 53.4122 15.1 53.1437C13.7531 52.5138 12.8323 51.236 12.2521 49.8936C11.7236 48.6702 11.4297 47.3643 11.1833 46.059C10.8027 44.0426 10.5316 41.9477 11.0388 39.9581C11.3767 38.6308 12.1158 37.3517 13.2115 36.4815C15.3333 34.7963 18.7324 34.2813 21.3649 33.9694C24.4323 33.6059 27.6029 33.7973 30.5024 34.8981C31.7247 35.3621 32.9738 36.0733 33.4542 37.2629C33.8354 38.2054 33.6586 39.2683 33.4088 40.2521C32.8114 42.6052 31.8224 44.8632 30.4921 46.9113ZM42.7348 37.1007C42.5814 37.4896 42.5112 37.8965 42.4967 38.3109C40.9627 37.8907 40.5298 37.621 39.0584 37.7009C36.8991 37.8181 35.9597 38.3109 34.9036 38.6682C34.9228 38.1313 34.863 37.1314 34.6661 36.6309C34.1396 35.2947 32.7715 34.4954 31.4329 33.9743C31.2601 33.9068 31.0867 33.8435 30.9119 33.7822C31.1521 33.7987 31.3923 33.8159 31.6324 33.8304C33.1713 33.9233 34.7129 33.9763 36.2546 33.9908C39.3048 34.019 42.3563 33.8944 45.3941 33.6163C46.2372 33.5392 47.0796 33.4504 47.9206 33.3492C47.2606 33.5185 46.6089 33.7257 45.9695 33.9743C44.6295 34.4961 43.2613 35.7644 42.7348 37.1007ZM66.2163 46.0583C65.9699 47.3636 65.676 48.6702 65.1475 49.8929C64.5673 51.236 63.6472 52.5131 62.2996 53.143C61.7257 53.4115 61.0973 53.5519 60.4683 53.6442C57.2563 54.1158 53.8689 53.3316 51.2172 51.5032C49.4684 50.2977 48.0534 48.6751 46.9075 46.9106C45.5772 44.8625 44.5882 42.6052 43.9909 40.2521C43.741 39.269 43.5648 38.2054 43.9454 37.2629C44.4265 36.0733 45.6756 35.3621 46.8979 34.8981C49.7967 33.7973 52.968 33.6053 56.0354 33.9694C58.6679 34.282 62.067 34.7969 64.1888 36.4815C65.2838 37.351 66.0236 38.6301 66.3615 39.9574C66.868 41.947 66.5969 44.0419 66.2163 46.0583Z" stroke="black" stroke-width="0.475542"/>
</svg>
