<svg width="174" height="43" viewBox="0 0 174 43" fill="none" xmlns="http://www.w3.org/2000/svg">
<path d="M44.2916 9.55H52.4516C55.3516 9.55 57.5116 10.17 58.9316 11.41C60.3516 12.63 61.0616 14.4 61.0616 16.72V16.84C61.0616 19.1 60.3416 20.82 58.9016 22C57.4816 23.18 55.4216 23.77 52.7216 23.77H50.4116V31H44.2916V9.55ZM52.1816 19.57C54.2016 19.57 55.2116 18.67 55.2116 16.87V16.75C55.2116 15.03 54.2116 14.17 52.2116 14.17H50.4116V19.57H52.1816ZM64.0963 9.55H70.2763V17.74H77.3262V9.55H83.4763V31H77.3262V22.54H70.2763V31H64.0963V9.55ZM103.854 31.36C100.154 31.36 97.354 30.36 95.454 28.36C93.594 26.48 92.664 23.83 92.664 20.41V20.17C92.664 16.91 93.704 14.26 95.784 12.22C97.824 10.22 100.434 9.22 103.614 9.22C106.434 9.22 108.734 9.88 110.514 11.2C112.314 12.62 113.334 14.71 113.574 17.47H107.244C107.004 15.21 105.804 14.08 103.644 14.08C102.244 14.08 101.144 14.61 100.344 15.67C99.544 16.71 99.144 18.2 99.144 20.14V20.38C99.144 22.32 99.534 23.82 100.314 24.88C101.114 25.92 102.254 26.44 103.734 26.44C106.074 26.44 107.404 25.27 107.724 22.93H113.844C113.644 25.61 112.624 27.71 110.784 29.23C109.004 30.65 106.694 31.36 103.854 31.36ZM116.442 8.41H121.782V31H116.442V8.41ZM130.505 31.36C128.925 31.36 127.675 30.89 126.755 29.95C125.735 28.93 125.225 27.46 125.225 25.54V15.31H130.595V24.67C130.595 26.43 131.335 27.31 132.815 27.31C134.595 27.31 135.485 26.32 135.485 24.34V15.31H140.855V31H135.485V28.57C134.545 30.43 132.885 31.36 130.505 31.36ZM154.501 31.36C152.161 31.36 150.541 30.43 149.641 28.57V31H144.271V8.41H149.641V17.65C150.761 15.81 152.391 14.89 154.531 14.89C156.451 14.89 158.011 15.57 159.211 16.93C160.511 18.39 161.161 20.42 161.161 23.02V23.26C161.161 25.86 160.511 27.88 159.211 29.32C158.011 30.68 156.441 31.36 154.501 31.36ZM152.611 27.25C154.671 27.25 155.701 25.92 155.701 23.26V23.02C155.701 21.66 155.431 20.64 154.891 19.96C154.351 19.28 153.591 18.94 152.611 18.94C151.631 18.94 150.861 19.29 150.301 19.99C149.761 20.69 149.491 21.69 149.491 22.99V23.23C149.491 24.55 149.761 25.55 150.301 26.23C150.841 26.91 151.611 27.25 152.611 27.25Z" fill="white"/>
<path d="M30.4435 4.8893L32.1604 29.1239C32.1604 29.1239 32.9487 36.1943 16.5195 36.1943C0.735746 36.1943 1.54421 29.5634 1.54421 29.5634L3.21115 9.11348L3.46969 4.67857C3.60472 2.36221 3.6047 1.38462 6.09333 1.35821C7.08878 1.34769 7.20364 1.35814 7.93108 1.35812L26.5368 1.38462C28.8355 1.38462 30.2835 2.91099 30.4435 4.8893Z" fill="#FFCC5A" stroke="black" stroke-width="0.890375" stroke-miterlimit="10"/>
<path d="M1.1594 1.35547H6.03509C5.87475 7.85681 3.3157 7.46519 3.3157 7.46519C3.3157 6.73532 3.23302 6.62572 2.6487 6.16215L1.36162 5.36871C1.25772 5.30624 1.2633 5.1572 1.36944 5.10021L3.23302 4.10293L3.51792 3.95936C3.82293 3.77634 3.77377 3.56702 3.59501 3.41469C3.59278 3.4136 3.59166 3.4114 3.58943 3.41031C2.82522 2.77468 1.05214 1.62616 1.05214 1.62616C0.944885 1.52972 1.01415 1.35547 1.1594 1.35547Z" fill="#FFCC5A"/>
<path d="M7.31728 1.35547H1.1594C1.01415 1.35547 0.944885 1.52972 1.05214 1.62616C1.05214 1.62616 2.82522 2.77468 3.58943 3.41031C3.59166 3.41141 3.59278 3.4136 3.59501 3.41469C3.77377 3.56703 3.82293 3.77634 3.51792 3.95936L3.23302 4.10293L1.36944 5.10021C1.2633 5.1572 1.25772 5.30624 1.36162 5.36871L2.6487 6.16215C3.23302 6.62573 3.3157 6.73532 3.3157 7.46519" stroke="black" stroke-width="0.890545" stroke-miterlimit="10"/>
<path d="M20.758 27.6367C18.5425 27.6367 15.6888 29.3488 12.847 28.3421C9.83582 27.2755 12.847 31.9975 16.9945 31.9975C22.7549 31.9975 23.1389 27.6367 20.758 27.6367Z" fill="white" stroke="black" stroke-width="0.768579"/>
<path d="M5.31109 12.9688L3.11279 14.7911V16.006L3.51248 19.4481L4.64494 21.8778L6.97646 22.4853H10.9734L13.5047 21.1354L15.1035 17.7608L15.5032 14.3861L14.504 12.9688L11.3064 12.3613H7.84246L5.31109 12.9688Z" fill="black" stroke="black" stroke-width="0.127092"/>
<path d="M28.6925 13.0371L30.8907 14.8594V16.0743L30.4911 19.5165L29.3586 21.9462L27.0271 22.5536H23.0302L20.4988 21.2038L18.9001 17.8291L18.5004 14.4545L19.4996 13.0371L22.6971 12.4297H26.1611L28.6925 13.0371Z" fill="black" stroke="black" stroke-width="0.127092"/>
<path d="M31.3032 12.6018C30.2008 12.393 29.0923 12.1842 27.9774 12.045C25.3804 11.7159 22.7833 11.6527 20.1987 12.1968C18.131 12.6334 16.057 12.6461 13.9769 12.2411C12.5195 11.9501 11.0497 11.7539 9.56123 11.7539C8.45264 11.8362 7.33783 11.8678 6.23547 12.0133C4.94005 12.1842 3.65708 12.4436 2.36788 12.6651C2.11876 12.7094 1.97551 12.8359 1.96306 13.108C1.92569 14.0571 1.86964 15.0062 1.84473 15.9617C1.84473 16.1262 1.93815 16.3666 2.06893 16.4426C2.31806 16.6007 2.35542 16.8222 2.42393 17.0627C2.81007 18.3535 3.16506 19.6632 3.61971 20.9287C4.03076 22.0803 4.96496 22.7068 6.10468 22.8966C7.92326 23.194 9.74807 23.156 11.5417 22.6688C12.5943 22.3841 13.4475 21.8399 14.0267 20.8528C14.6246 19.8341 15.1228 18.7711 15.4654 17.6448C15.727 16.7969 15.9512 15.9364 16.1941 15.0822C16.2999 14.7025 16.5989 14.6519 16.9227 14.6456C17.2653 14.6456 17.6078 14.6519 17.7386 15.0695C17.8569 15.4491 17.9753 15.8351 18.0687 16.2211C18.461 17.784 18.9904 19.2836 19.8001 20.682C20.4291 21.7766 21.3384 22.403 22.5217 22.7068C24.0787 23.1054 25.6544 23.1244 27.2363 22.9915C28.7497 22.8649 29.9206 22.1816 30.4375 20.6693C30.861 19.4291 31.1911 18.151 31.5648 16.8981C31.6021 16.7653 31.7018 16.6514 31.7703 16.5248C31.8824 16.316 32.0817 16.1072 32.0879 15.8984C32.1004 15.0695 32.0755 14.2406 32.0256 13.418C31.982 12.7473 31.9571 12.722 31.3032 12.6018ZM15.0792 15.658C14.9609 16.7906 14.6371 17.8662 14.17 18.8976C13.952 19.3722 13.6904 19.8278 13.4288 20.2833C12.8994 21.2008 12.1023 21.726 11.0809 21.9664C9.3993 22.3524 7.72396 22.3081 6.04863 21.9538C5.4196 21.8209 4.9525 21.4539 4.64733 20.8781C3.63216 18.9609 3.43287 16.9298 3.88128 14.8227C3.98716 14.3355 4.35461 14.0761 4.75943 13.8673C5.66872 13.399 6.65897 13.2472 7.65546 13.1396C8.27203 13.0763 8.8886 13.0637 9.50517 13.0257C9.49895 13.051 9.5114 13.0004 9.50517 13.0257C10.3048 13.0257 11.8656 13.2535 13.0302 13.4433C13.3977 13.5066 13.7651 13.6711 14.1077 13.8356C14.9235 14.2343 15.1727 14.7405 15.0792 15.658ZM29.4971 20.4795C29.1047 21.359 28.4881 21.9158 27.5228 22.0297C26.8751 22.1056 26.2211 22.1816 25.5734 22.2575C24.4648 22.2512 23.3749 22.1499 22.3162 21.7956C21.7121 21.5931 21.2076 21.2514 20.8277 20.7326C19.6942 19.176 19.034 17.4233 18.8596 15.4998C18.7787 14.6076 19.1897 14.0508 20.018 13.7091C21.2512 13.2029 22.5466 13.0763 23.8545 13.0384C25.1873 13.0067 26.5263 13.0321 27.8155 13.3864C28.4134 13.5509 29.0051 13.7977 29.5469 14.1014C30.0763 14.3988 30.1074 15.0062 30.1822 15.5567C30.4126 17.2651 30.1946 18.9039 29.4971 20.4795Z" fill="black"/>
</svg>
