<svg width="117" height="102" viewBox="0 0 117 102" fill="none" xmlns="http://www.w3.org/2000/svg">
<path d="M0.48318 47.8288C0.48318 46.8302 0.660346 46.0088 1.01468 45.3646C1.40122 44.7203 1.91661 44.205 2.56085 43.8184C3.20509 43.3997 3.91376 43.0936 4.68684 42.9004C5.49214 42.7071 6.31355 42.5782 7.15106 42.5138C8.02078 42.4172 8.85829 42.385 9.66359 42.4172C10.4689 42.4172 11.2098 42.4172 11.8862 42.4172C13.2069 42.4172 14.5276 42.546 15.8483 42.8037C17.169 43.0614 18.3286 43.5124 19.3272 44.1566C20.358 44.8009 21.1955 45.6706 21.8397 46.7658C22.484 47.8288 22.8061 49.1656 22.8061 50.7762C22.8061 52.1935 22.5162 53.6109 21.9364 55.0282C21.3888 56.4133 20.664 57.7501 19.7621 59.0386C18.8923 60.2948 17.8938 61.4545 16.7663 62.5175C15.6389 63.5482 14.5115 64.4341 13.3841 65.175C12.2889 65.9158 11.2259 66.4956 10.1951 66.9144C9.19652 67.3332 8.35901 67.4942 7.68256 67.3976C7.29601 68.6538 7.05442 70.0068 6.95779 71.4563C6.89336 72.8736 6.87726 74.2748 6.90947 75.66C6.94168 77.0129 6.99 78.3174 7.05442 79.5737C7.11885 80.7978 7.05442 81.8608 6.86115 82.7627C6.70009 83.6324 6.37797 84.2928 5.89479 84.7437C5.41161 85.1625 4.67074 85.2913 3.67217 85.1303C3.38226 82.8432 3.15677 80.524 2.99571 78.1725C2.86687 75.821 2.75412 73.4856 2.65749 71.1664C2.56085 68.8471 2.46422 66.5923 2.36758 64.4019C2.30316 62.1792 2.19041 60.0694 2.02935 58.0722C1.90051 56.0751 1.70724 54.2068 1.44954 52.4673C1.19184 50.7279 0.869724 49.1817 0.48318 47.8288ZM12.4177 46.5725C11.9345 46.5725 11.3386 46.5886 10.63 46.6209C9.92129 46.6531 9.22873 46.7658 8.55228 46.9591C7.90804 47.1201 7.36044 47.4262 6.90947 47.8771C6.4585 48.2959 6.23302 48.9079 6.23302 49.7132V62.3725C7.55371 62.3725 8.95493 62.0182 10.4367 61.3095C11.9184 60.6009 13.2713 59.6989 14.4954 58.6037C15.7194 57.5085 16.7341 56.2683 17.5394 54.8832C18.3447 53.4981 18.7474 52.1291 18.7474 50.7762C18.7474 49.7776 18.5541 49.0045 18.1676 48.4569C17.8132 47.9093 17.33 47.4906 16.718 47.2007C16.1382 46.9108 15.4779 46.7336 14.737 46.6692C13.9961 46.6047 13.223 46.5725 12.4177 46.5725ZM27.6823 55.9945C27.6823 55.8335 27.6984 55.5597 27.7307 55.1731C27.7307 54.7544 27.7307 54.3356 27.7307 53.9169C27.7307 53.4659 27.7468 53.0471 27.779 52.6606C27.779 52.2741 27.779 52.0164 27.779 51.8875C28.5843 51.0178 29.2446 50.5024 29.76 50.3413C30.3076 50.1803 30.7425 50.2769 31.0646 50.6312C31.3867 50.9534 31.6122 51.4849 31.741 52.2257C31.9021 52.9666 32.0148 53.8041 32.0793 54.7383C32.1437 55.6724 32.1759 56.6549 32.1759 57.6857C32.1759 58.7165 32.192 59.6828 32.2242 60.5847C32.2564 61.4545 32.3209 62.2276 32.4175 62.904C32.5141 63.5805 32.6913 64.0314 32.949 64.2569H49.5221C50.1985 64.2569 50.6817 64.0475 50.9716 63.6288C51.2615 63.21 51.4226 62.6624 51.4548 61.986C51.5192 61.3095 51.5031 60.5364 51.4065 59.6667C51.3098 58.797 51.2132 57.9112 51.1165 57.0092C51.0521 56.0751 51.0199 55.1731 51.0199 54.3034C51.0521 53.4015 51.1971 52.6123 51.4548 51.9358C51.7447 51.2594 52.1795 50.7118 52.7594 50.293C53.3392 49.8743 54.1928 49.6649 55.3202 49.6649C55.739 50.2769 55.9967 50.9534 56.0933 51.6942C56.1899 52.4029 56.206 53.1438 56.1416 53.9169C56.1094 54.69 56.0289 55.463 55.9 56.2361C55.8034 56.977 55.7551 57.7018 55.7551 58.4104C55.7551 60.3109 55.8678 62.2115 56.0933 64.112C56.351 66.0125 56.6087 67.913 56.8664 69.8135C57.1563 71.714 57.414 73.6145 57.6395 75.515C57.8972 77.3833 58.026 79.2355 58.026 81.0716C58.0904 83.0687 57.9616 84.5021 57.6395 85.3719C57.3174 86.2094 56.9147 86.5798 56.4315 86.4832C55.9483 86.4188 55.4007 85.9356 54.7887 85.0336C54.2089 84.1317 53.6613 82.9238 53.1459 81.4098C52.6627 79.8958 52.2601 78.1242 51.938 76.0948C51.648 74.0332 51.5353 71.8106 51.5997 69.4269H34.1569C34.3824 71.6496 34.6723 73.7433 35.0267 75.7083C35.4132 77.6732 35.7031 79.4126 35.8964 80.9266C36.1219 82.4084 36.2024 83.6002 36.138 84.5021C36.1058 85.3719 35.7836 85.8228 35.1716 85.855C34.2375 85.855 33.4483 85.549 32.804 84.937C32.1598 84.2928 31.5961 83.423 31.1129 82.3278C30.6619 81.2326 30.2915 79.9603 30.0016 78.5107C29.7117 77.029 29.4701 75.4828 29.2768 73.8722C29.0836 72.2294 28.9225 70.5544 28.7936 68.8471C28.697 67.1399 28.6004 65.4971 28.5037 63.9187C28.4071 62.3403 28.2944 60.8747 28.1655 59.5218C28.0367 58.1366 27.8756 56.9609 27.6823 55.9945ZM65.4574 57.9233C65.4574 56.0679 65.703 54.0487 66.1941 51.8659C66.7399 49.6831 67.4766 47.5002 68.4043 45.3174C69.332 43.08 70.4507 40.9244 71.7604 38.8508C73.0701 36.7225 74.5435 34.8671 76.1806 33.2845C77.8177 31.6474 79.5913 30.365 81.5013 29.4373C83.4113 28.455 85.4304 27.9639 87.5586 27.9639C89.3049 27.9639 90.942 28.2094 92.47 28.7006C93.998 29.1371 95.3077 29.8193 96.3991 30.747C97.4906 31.6747 98.3364 32.848 98.9367 34.2668C99.5915 35.6311 99.919 37.2682 99.919 39.1782C98.7184 39.1782 97.7361 38.878 96.9721 38.2778C96.2627 37.6229 95.5806 36.9135 94.9257 36.1495C94.3254 35.3855 93.6433 34.7034 92.8793 34.1031C92.1699 33.5028 91.2422 33.2027 90.0962 33.2027C88.4045 33.2027 86.7674 33.6392 85.1848 34.5124C83.6568 35.3855 82.2107 36.5588 80.8464 38.0322C79.5367 39.5056 78.3635 41.17 77.3266 43.0254C76.3443 44.8808 75.4712 46.7635 74.7072 48.6735C73.9978 50.5289 73.4248 52.357 72.9882 54.1579C72.6062 55.9587 72.4152 57.514 72.4152 58.8237C72.4152 61.6614 72.8245 64.3354 73.6431 66.8456C74.5162 69.3013 75.7441 71.4569 77.3266 73.3123C78.9092 75.1131 80.8737 76.532 83.2203 77.5688C85.5668 78.6056 88.2408 79.1241 91.2422 79.1241C93.1522 79.1241 94.953 78.8512 96.6447 78.3055C98.391 77.7052 100.055 77.0777 101.638 76.4228C103.275 75.7134 104.885 75.0585 106.467 74.4583C108.05 73.858 109.633 73.5578 111.215 73.5578C111.433 73.5578 111.734 73.5851 112.116 73.6397C112.552 73.6397 112.934 73.6943 113.262 73.8034C113.644 73.9125 113.971 74.1035 114.244 74.3764C114.517 74.5947 114.653 74.9494 114.653 75.4405C114.653 77.4051 113.889 79.0695 112.361 80.4338C110.888 81.798 109.114 82.9167 107.04 83.7899C104.967 84.6084 102.811 85.2087 100.574 85.5907C98.3364 85.9727 96.5083 86.1637 95.0894 86.1637C90.942 86.1637 87.0675 85.5089 83.4658 84.1992C79.8642 82.8349 76.7263 80.9249 74.0524 78.4692C71.3784 76.0135 69.2774 73.0667 67.7494 69.6287C66.2214 66.1362 65.4574 62.2344 65.4574 57.9233Z" fill="white"/>
<path d="M107.395 55.3717L103.449 56.4131C102.922 54.6016 101.968 52.9704 100.7 51.6381L103.587 48.7515C105.358 50.5854 106.686 52.8491 107.395 55.3717ZM96.0498 44.4073L95.0111 48.3436C94.1298 48.1303 93.209 48.0172 92.2613 48.0172C91.3147 48.0172 90.3938 48.1304 89.5117 48.3442L88.4729 44.4077C89.686 44.1081 90.9549 43.9492 92.2613 43.9492C93.5672 43.9492 94.8363 44.108 96.0498 44.4073ZM77.1534 55.3148C77.8699 52.8174 79.1879 50.576 80.9411 48.757L83.8221 51.638C82.5692 52.9541 81.6205 54.5634 81.0904 56.3537L77.1534 55.3148ZM80.9411 70.5743C79.1877 68.755 77.8696 66.5133 77.1532 64.0156L81.0748 62.9263C81.601 64.7378 82.5543 66.3676 83.8171 67.6982L80.9411 70.5743ZM92.2613 75.382C90.9549 75.382 89.686 75.2231 88.4729 74.9236L89.5095 70.9956C90.3924 71.2078 91.3142 71.3183 92.262 71.314C93.2084 71.314 94.1291 71.2008 95.0109 70.9871L96.0497 74.9236C94.8366 75.2231 93.5678 75.382 92.2613 75.382ZM107.356 64.0606C106.637 66.5402 105.324 68.766 103.582 70.5743L100.701 67.6932C101.955 66.3755 102.904 64.764 103.434 62.971L107.356 64.0606Z" fill="white" stroke="black" stroke-width="0.582089"/>
<circle cx="92.261" cy="59.6653" r="10.7805" fill="white"/>
<path d="M85.7259 57.197L84.3975 58.2729L84.3892 59.0001L84.605 61.0634L85.2664 62.5256L86.6579 62.9051L89.0506 62.9324L90.5751 62.1416L91.5551 60.1323L91.8174 58.1149L91.2289 57.2596L89.319 56.8742L87.2453 56.8506L85.7259 57.197Z" fill="black" stroke="black" stroke-width="0.135852"/>
<path d="M99.7229 57.3975L101.026 58.5033L101.018 59.2306L100.755 61.2884L100.061 62.7352L98.6611 63.0829L96.2684 63.0557L94.7623 62.2303L93.8283 60.1993L93.612 58.1764L94.2198 57.3348L96.1381 56.993L98.2117 57.0166L99.7229 57.3975Z" fill="black" stroke="black" stroke-width="0.135852"/>
<path d="M101.289 57.1557C100.63 57.0232 99.9682 56.8906 99.3018 56.7997C97.7494 56.585 96.1951 56.5294 94.6442 56.8375C93.4035 57.0848 92.1619 57.0782 90.9194 56.8216C90.049 56.6375 89.1705 56.51 88.2794 56.4999C87.6152 56.5416 86.9477 56.5529 86.2868 56.6325C85.5101 56.7259 84.7404 56.8725 83.9671 56.9963C83.8177 57.0211 83.7311 57.0959 83.7218 57.2587C83.6929 57.8266 83.6529 58.3943 83.6315 58.9661C83.6303 59.0646 83.6846 59.2092 83.7624 59.2555C83.9105 59.3519 83.9313 59.4847 83.9707 59.6291C84.193 60.4045 84.3966 61.191 84.6601 61.9516C84.8984 62.6438 85.4533 63.0252 86.1343 63.1466C87.2209 63.337 88.3135 63.3267 89.3906 63.0473C90.0226 62.884 90.5371 62.5641 90.8905 61.9771C91.2554 61.3714 91.5609 60.7384 91.7736 60.0665C91.936 59.5608 92.0761 59.0472 92.2273 58.5375C92.2933 58.3109 92.4726 58.2827 92.6665 58.2811C92.8715 58.2834 93.0765 58.2895 93.152 58.5404C93.2202 58.7685 93.2884 59.0003 93.3417 59.232C93.5659 60.1703 93.8726 61.0716 94.3478 61.9142C94.7168 62.5738 95.2569 62.955 95.9632 63.1449C96.8925 63.3941 97.8356 63.4162 98.7835 63.3474C99.6903 63.282 100.396 62.8809 100.716 61.9792C100.978 61.2396 101.184 60.4768 101.416 59.7293C101.439 59.6501 101.5 59.5826 101.542 59.5073C101.61 59.383 101.731 59.2594 101.736 59.1344C101.749 58.6383 101.74 58.142 101.716 57.6492C101.694 57.2474 101.68 57.2321 101.289 57.1557ZM91.556 58.8745C91.4775 59.5517 91.2763 60.1935 90.9896 60.8077C90.8559 61.0903 90.6962 61.3612 90.5365 61.6321C90.2133 62.1778 89.7326 62.4867 89.1195 62.6237C88.1102 62.8433 87.1076 62.8053 86.1072 62.5818C85.7315 62.498 85.4544 62.2751 85.2756 61.9283C84.681 60.7737 84.5756 59.5565 84.8584 58.2982C84.9251 58.0073 85.1468 57.8545 85.3906 57.7323C85.9381 57.4582 86.5319 57.374 87.1291 57.3164C87.4987 57.2827 87.8678 57.2794 88.2372 57.2608C88.2333 57.2759 88.2411 57.2457 88.2372 57.2608C88.7159 57.2663 89.6486 57.4133 90.3445 57.5349C90.5641 57.5752 90.7829 57.6762 90.9868 57.777C91.4725 58.0212 91.6182 58.326 91.556 58.8745ZM100.154 61.8591C99.9131 62.3829 99.5402 62.7121 98.9616 62.7737C98.5733 62.8147 98.1813 62.8557 97.7931 62.8967C97.1295 62.8854 96.4777 62.8173 95.8464 62.598C95.4861 62.4727 95.1864 62.2647 94.9626 61.9515C94.2946 61.012 93.9114 59.9583 93.8201 58.8056C93.7777 58.271 94.0276 57.9405 94.5258 57.7416C95.2674 57.447 96.0438 57.38 96.8269 57.3662C97.625 57.3564 98.4264 57.3807 99.1957 57.6016C99.5525 57.7041 99.905 57.8559 100.227 58.0414C100.542 58.223 100.557 58.5869 100.598 58.9169C100.724 59.9412 100.582 60.9207 100.154 61.8591Z" fill="black"/>
</svg>
