<svg width="740" height="885" viewBox="0 0 740 885" fill="none" xmlns="http://www.w3.org/2000/svg">
<path d="M601.666 526.007L695.476 497.135C699.059 496.03 702.713 498.622 702.985 502.336L705.181 534.104C705.453 537.819 702.31 540.809 698.673 540.269L601.666 526.007Z" fill="#FC5160" stroke="black" stroke-width="4"/>
<path d="M567.629 559.768L610.726 607.806C612.958 610.266 616.854 610.215 619.129 607.76L630.188 594.43C632.5 591.568 631.453 587.372 628.112 585.835L567.629 559.768Z" fill="#FFE72F" stroke="black" stroke-width="4"/>
<path d="M561.004 493.775L600.717 440.654C602.586 438.162 606.095 437.87 608.567 439.942L621.074 450.933C623.711 453.43 623.318 457.698 620.287 459.469L561.004 493.775Z" fill="#ECEFFF" stroke="black" stroke-width="4"/>
<path d="M33.9136 520.955L73.9807 813.098C73.9807 813.098 243.355 885.01 245.176 882.013C246.998 879.017 261.567 619.834 261.567 619.834L33.9136 520.955Z" fill="#FF5252" stroke="black" stroke-width="5"/>
<path d="M511.088 547.921L263.4 619.833C263.4 619.833 241.525 877.518 245.177 882.012C249.699 887.578 410.92 838.566 410.92 838.566L511.088 547.921Z" fill="#FF5252" stroke="black" stroke-width="5"/>
<path d="M274.316 479C274.316 479 37.5562 513.465 32.0925 517.952C26.6287 522.44 265.21 619.828 265.21 619.828C265.21 619.828 512.897 549.408 512.897 544.919C512.897 540.431 274.316 479 274.316 479Z" fill="#983131" stroke="black" stroke-width="5"/>
<path d="M274.318 479.008L263.391 619.836" stroke="black" stroke-width="5"/>
<path d="M254.281 732.196L53.9454 654.291L59.4091 702.232L250.638 778.639L254.281 732.196Z" fill="#C7953A" stroke="black" stroke-width="5"/>
<path d="M430.942 571.893L352.629 594.365L316.204 864.035L363.556 852.05L430.942 571.893Z" fill="#FFBF4A" stroke="black" stroke-width="5"/>
<path d="M179.609 585.375L117.688 558.408L128.615 834.071L172.324 853.547L179.609 585.375Z" fill="#C7953A" stroke="black" stroke-width="5"/>
<path d="M467.367 673.766L254.283 732.195L250.64 778.638L450.976 721.708L467.367 673.766Z" fill="#FFBF4A" stroke="black" stroke-width="5"/>
<path d="M477.144 10.1816C465.969 17.6347 455.896 34.4676 455.289 39.3242C457.11 50.2508 461.117 73.561 462.574 79.3889C464.031 85.2168 491.107 101.244 504.462 108.529L546.351 168.629L588.239 190.484C594.917 185.627 624.85 177.597 639.233 146.774C651.982 119.456 648.34 84.8526 630.127 73.9252C615.557 65.1833 602.809 86.6699 588.239 93.9548C582.775 98.2043 562.742 104.158 555.457 108.529C546.351 113.992 544.529 90.3163 537.244 79.3889C531.417 70.647 528.745 62.3908 528.138 59.3554C525.103 52.6783 517.211 37.396 517.211 21.1065C517.211 -0.752086 493.535 -0.750046 477.144 10.1816Z" fill="#BF8F38" stroke="black" stroke-width="5"/>
<path d="M622.692 220.767C606.363 217.71 591.647 210.384 588.241 206.869L597.702 255.357C610.846 262.648 642.173 277.82 662.329 280.183C682.484 282.547 721.301 272.618 708.204 268.449C702.746 266.712 688.467 261.842 675.008 256.262C661.549 250.681 667.294 245.702 671.849 243.911C681.109 240.915 697.516 239.653 714.154 225.57C724.704 216.64 729.952 206.49 721.13 208.746L677.481 220.767L676.782 220.88C657.399 224.004 648.04 225.513 622.692 220.767Z" fill="#FFBF4A" stroke="black" stroke-width="5"/>
<path d="M291.378 164.983C299.24 152.208 306.553 152.841 305.946 148.592L335.087 183.195C335.087 183.195 318.696 203.229 309.59 215.977C300.484 228.726 279.329 237.057 267.699 237.832C256.069 238.607 248.881 237.832 247.666 237.832C238.56 237.832 258.794 225.691 265.878 219.62C278.629 208.692 276.808 201.407 276.808 199.586C276.808 197.605 260.415 203.229 247.666 203.229C229.454 203.229 223.992 201.407 223.992 195.944C223.992 192.301 276.808 188.659 291.378 164.983Z" fill="#FFBF4A" stroke="black" stroke-width="5"/>
<path d="M349.663 215.978C356.948 219.62 504.467 268.186 577.316 290.648L584.601 254.224L553.64 148.592L511.752 81.2068L457.115 66.6369L342.378 48.4246L231.283 42.9609L213.07 57.5308L322.344 188.659C325.987 191.088 339.889 211.091 349.663 215.978Z" fill="#983131" stroke="black" stroke-width="5"/>
<path d="M364.23 61.1709C317.606 55.343 242.815 55.1001 211.247 55.7072C207.605 55.7072 245.243 25.961 262.241 13.8197C282.275 15.0339 335.819 19.2834 389.727 26.5683C443.636 33.8532 557.282 70.2778 544.532 68.4566L506.286 88.4902C478.36 81.812 410.853 66.9988 364.23 61.1709Z" fill="#FF5252" stroke="black" stroke-width="5"/>
<path d="M593.704 181.354C586.419 158.042 548.678 73.9189 546.352 68.457C544.027 62.9952 506.285 88.4713 506.285 88.4713C535.425 135.819 546.352 166.78 555.458 186.813C564.818 207.404 579.134 266.947 577.313 285.16C575.492 303.372 613.738 276.058 613.738 276.058C619.201 276.058 600.989 204.666 593.704 181.354Z" fill="#FF5252" stroke="black" stroke-width="5"/>
<path d="M271.352 55.709L364.234 192.301L571.855 256.044" stroke="black" stroke-width="5"/>
<path d="M364.234 192.301L349.664 215.977" stroke="black" stroke-width="5"/>
<path d="M124.751 254.055L159.128 341.879C162.29 349.96 157.836 356.421 152.521 359.452L109.969 381.729L63.708 387.627C54.8949 387.968 49.3773 385.461 47.8022 378.315L26.248 285.564L17.9726 255.199C17.9726 255.199 17.9956 254.342 19.27 254.805C20.5445 255.268 29.953 268.515 30.7315 268.279C31.5099 268.042 33.7422 255.795 34.7571 256.337C35.772 256.879 41.6302 264.969 42.4087 264.732L47.5986 263.156L106.571 245.245C114.003 242.988 121.92 246.825 124.751 254.055Z" fill="#FFCC5A" stroke="black" stroke-width="4.33918" stroke-miterlimit="10"/>
<g clip-path="url(#clip0_44_13)">
<path d="M35.7052 335.007L35.6915 334.976L35.6765 334.946L28.7052 320.899C27.0707 317.255 27.0878 313.434 28.5758 310.244C30.0839 307.01 32.9746 304.489 36.5611 303.4L66.3393 294.356C70.0092 293.241 73.7252 293.792 76.5832 295.774C77.2809 296.298 77.9171 296.858 78.4831 297.513L79.3428 298.506L80.4951 297.875C82.2992 296.887 84.2637 296.292 86.2522 296.125L87.5678 296.014L87.7306 294.704C87.838 293.84 88.0555 293.031 88.3777 292.225L88.3832 292.211L88.3885 292.197C89.606 288.982 92.3817 286.447 96.1175 285.312L125.896 276.268C129.48 275.18 133.281 275.666 136.331 277.511C139.309 279.357 141.442 282.534 142.097 286.25L144.185 302.209L144.19 302.244L144.196 302.279C145.457 309.474 140.763 317.102 133.543 319.295L118.653 323.817C111.626 325.951 103.059 322.639 99.2819 316.36L99.2507 316.308L99.2159 316.259L90.6674 304.176L90.3688 303.754L89.8814 303.582C86.9019 302.529 83.5233 303.555 81.6328 306.087L81.323 306.502L81.3101 307.02L80.9312 322.193L80.9297 322.255L80.9329 322.317C81.2908 329.285 76.0688 336.75 69.0231 338.89L54.134 343.412C46.8802 345.615 38.7741 341.892 35.7052 335.007Z" fill="#0C6A54" stroke="black" stroke-width="3.25439"/>
<path d="M110.642 340.11C103.162 342.382 95.2601 351.013 84.6464 350.573C73.4004 350.106 88.346 362.754 102.349 358.501C121.798 352.594 118.681 337.669 110.642 340.11Z" fill="white" stroke="#263238" stroke-width="3.16296"/>
</g>
<g clip-path="url(#clip1_44_13)">
<path d="M328.227 163.067L337.61 259.752C337.61 259.752 341.498 287.93 275.7 289.632C212.487 291.268 215.039 264.681 215.039 264.681L219.6 182.773L220.177 165.02C220.478 155.748 220.377 151.841 230.341 151.477C234.327 151.332 234.788 151.362 237.701 151.287L312.219 149.464C321.425 149.226 327.382 155.177 328.227 163.067Z" fill="#FFCC5A" stroke="black" stroke-width="4.01229" stroke-miterlimit="10"/>
<path d="M210.584 151.972L230.111 151.466C230.134 177.186 219.845 175.903 219.845 175.903C219.77 173.017 219.428 172.592 217.04 170.82L211.804 167.817C211.382 167.581 211.389 166.991 211.808 166.754L219.17 162.619L220.296 162.022C221.499 161.266 221.28 160.444 220.549 159.86C220.54 159.856 220.535 159.848 220.526 159.843C217.401 157.41 210.182 153.053 210.182 153.053C209.743 152.683 210.002 151.987 210.584 151.972Z" fill="#FFCC5A"/>
<path d="M235.246 151.333L210.584 151.972C210.002 151.987 209.743 152.683 210.182 153.053C210.182 153.053 217.4 157.41 220.526 159.843C220.535 159.848 220.54 159.856 220.549 159.86C221.28 160.444 221.499 161.266 220.296 162.022L219.17 162.619L211.808 166.754C211.389 166.991 211.382 167.581 211.804 167.817L217.04 170.82C219.428 172.592 219.77 173.017 219.845 175.903" stroke="black" stroke-width="4.01306" stroke-miterlimit="10"/>
<path d="M291.734 252.372C282.861 252.602 271.608 259.666 260.123 255.981C247.955 252.076 260.497 270.432 277.108 270.002C300.178 269.405 301.27 252.125 291.734 252.372Z" fill="white" stroke="black" stroke-width="3.20964"/>
<path d="M228.39 197.446L219.772 204.879L219.896 209.681L221.849 223.248L226.633 232.737L236.033 234.897L252.04 234.483L262.04 228.884L268.098 215.376L269.353 201.994L265.206 196.494L252.338 194.424L238.465 194.783L228.39 197.446Z" fill="#263238" stroke="black" stroke-width="0.572714"/>
<path d="M322.039 195.293L331.03 202.27L331.154 207.073L329.906 220.723L325.619 230.446L316.343 233.089L300.336 233.503L290.06 228.429L283.312 215.253L281.366 201.953L285.223 196.246L297.966 193.513L311.839 193.154L322.039 195.293Z" fill="#263238" stroke="black" stroke-width="0.572714"/>
<path d="M332.457 193.303C328.02 192.592 323.559 191.881 319.08 191.446C308.645 190.415 298.238 190.434 287.942 192.853C279.706 194.793 271.401 195.058 263.029 193.673C257.163 192.673 251.256 192.05 245.295 192.204C240.863 192.644 236.402 192.885 232.002 193.575C226.831 194.384 221.72 195.543 216.579 196.552C215.586 196.753 215.025 197.268 215.003 198.345C214.951 202.101 214.823 205.859 214.821 209.639C214.838 210.289 215.237 211.23 215.768 211.517C216.782 212.117 216.954 212.988 217.253 213.932C218.932 218.995 220.488 224.136 222.438 229.092C224.202 233.602 228.007 235.982 232.591 236.614C239.905 237.602 247.209 237.262 254.343 235.15C258.529 233.916 261.891 231.676 264.109 227.713C266.4 223.624 268.286 219.37 269.543 214.882C270.504 211.502 271.314 208.077 272.199 204.675C272.584 203.163 273.777 202.932 275.073 202.873C276.445 202.838 277.817 202.827 278.384 204.465C278.897 205.953 279.41 207.467 279.824 208.983C281.555 215.121 283.828 220.995 287.214 226.44C289.845 230.702 293.551 233.084 298.321 234.163C304.598 235.577 310.91 235.489 317.232 234.8C323.28 234.143 327.899 231.32 329.815 225.287C331.384 220.34 332.575 215.253 333.944 210.261C334.08 209.732 334.467 209.272 334.729 208.764C335.156 207.927 335.933 207.081 335.937 206.255C335.902 202.977 335.717 199.702 335.433 196.455C335.19 193.808 335.088 193.711 332.457 193.303ZM267.793 207.067C267.435 211.557 266.248 215.843 264.483 219.969C263.659 221.868 262.658 223.696 261.657 225.524C259.63 229.206 256.492 231.365 252.425 232.421C245.73 234.122 239.016 234.12 232.27 232.893C229.738 232.433 227.829 231.03 226.548 228.785C222.287 221.311 221.281 213.302 222.861 204.925C223.235 202.988 224.68 201.924 226.28 201.057C229.874 199.112 233.824 198.409 237.804 197.88C240.267 197.566 242.735 197.452 245.2 197.238C245.178 197.339 245.223 197.137 245.2 197.238C248.403 197.155 254.677 197.894 259.361 198.524C260.839 198.736 262.327 199.348 263.716 199.963C267.024 201.455 268.074 203.43 267.793 207.067ZM326.029 224.634C324.548 228.152 322.135 230.417 318.281 230.968C315.695 231.335 313.083 231.703 310.497 232.07C306.057 232.16 301.681 231.873 297.405 230.582C294.965 229.844 292.909 228.545 291.335 226.533C286.636 220.497 283.813 213.636 282.917 206.05C282.502 202.531 284.091 200.287 287.374 198.85C292.261 196.721 297.436 196.087 302.67 195.801C308.004 195.538 313.37 195.499 318.569 196.766C320.98 197.355 323.375 198.269 325.576 199.414C327.727 200.535 327.914 202.933 328.269 205.101C329.367 211.832 328.662 218.333 326.029 224.634Z" fill="black"/>
</g>
<g clip-path="url(#clip2_44_13)">
<path d="M375.043 397.491L413.595 306.23C416.769 298.718 424.765 294.802 431.956 297.24L492.685 317.831L501.739 320.901L523.655 328.331C524.308 328.553 524.328 329.517 523.685 329.828C523.685 329.828 513.797 332.783 509.301 334.749C509.289 334.751 509.28 334.76 509.268 334.762C508.21 335.24 507.64 336.196 508.705 337.563L509.746 338.704L516.457 346.456C516.839 346.899 516.615 347.641 516.043 347.791L508.933 349.737C505.533 351.13 504.978 351.544 503.759 355.139L482.622 436.753C480.687 444.192 473.244 448.59 466.47 446.293L383.359 418.114C375.329 415.391 371.496 405.888 375.043 397.491Z" fill="#FFCC5A" stroke="black" stroke-width="3.07218" stroke-miterlimit="10"/>
<path d="M375.027 397.497L413.579 306.236C416.753 298.723 424.749 294.808 431.941 297.246L492.67 317.837L501.724 320.907L523.639 328.337C524.292 328.559 524.312 329.522 523.669 329.834C523.669 329.834 513.781 332.789 509.285 334.755C509.273 334.757 509.264 334.766 509.252 334.768C508.195 335.246 507.624 336.202 508.689 337.569L509.73 338.71L516.441 346.462C516.823 346.905 516.599 347.647 516.028 347.797L508.918 349.743C505.517 351.136 504.962 351.55 503.743 355.145L482.606 436.759C480.672 444.198 473.229 448.596 466.454 446.299L383.343 418.119C375.313 415.397 371.48 405.894 375.027 397.497Z" stroke="black" stroke-width="4.29146" stroke-miterlimit="10"/>
<path d="M449.042 401.431C441.831 398.986 430.677 401.337 422.524 394.966C413.885 388.217 418.542 406.71 432.042 411.287C450.792 417.644 456.792 404.059 449.042 401.431Z" fill="white" stroke="#263238" stroke-width="3.11846"/>
<path d="M398.407 338.582L398.695 337.189L397.348 336.733L393.772 335.52L397.414 324.779L509.622 362.824L505.981 373.565L502.405 372.353L501.058 371.896L500.439 373.177L489.889 395.014L451.234 381.908L454.677 358.03L454.725 357.886C455.192 356.511 455.016 355.024 454.305 353.761C453.598 352.505 452.418 351.561 451.045 351.095C449.672 350.63 448.161 350.661 446.836 351.228C445.504 351.799 444.46 352.872 443.994 354.247L443.945 354.391L432.155 375.439L393.5 362.333L398.407 338.582Z" fill="#6376A8" stroke="black" stroke-width="3.2186"/>
</g>
<path d="M217.561 444.415C223.128 421.497 246.232 407.416 269.151 412.983C292.069 418.551 306.15 441.655 300.583 464.573C295.015 487.492 271.911 501.573 248.993 496.005C226.051 490.438 211.97 467.334 217.561 444.415Z" fill="black"/>
<path d="M285.638 483.814C302.316 467.137 302.316 440.097 285.638 423.42C268.961 406.742 241.922 406.742 225.244 423.42C208.567 440.097 208.567 467.137 225.244 483.814C241.922 500.492 268.961 500.492 285.638 483.814Z" fill="#FFB93E" stroke="black" stroke-width="4"/>
<path d="M255.398 493.038C252.313 493.038 249.204 492.667 246.142 491.925C236.052 489.466 227.492 483.226 222.087 474.365C216.682 465.48 215.058 455.042 217.517 444.928C219.976 434.837 226.216 426.277 235.077 420.872C243.962 415.468 254.4 413.844 264.514 416.303C285.368 421.36 298.196 442.446 293.139 463.3C290.681 473.39 284.441 481.95 275.579 487.355C269.386 491.113 262.45 493.038 255.398 493.038ZM255.259 417.509C248.624 417.509 242.106 419.318 236.284 422.867C227.933 427.948 222.064 435.974 219.767 445.484C217.471 454.972 218.979 464.808 224.082 473.158C229.162 481.509 237.188 487.378 246.699 489.675C256.187 491.971 266.022 490.463 274.373 485.36C282.724 480.28 288.593 472.254 290.889 462.743C295.645 443.142 283.582 423.308 263.958 418.553C261.058 417.857 258.135 417.509 255.259 417.509Z" fill="#FFA412"/>
<path d="M257.854 466.36C258.155 465.571 258.294 464.829 258.294 464.133C258.294 463.437 258.132 462.765 257.807 462.092C257.483 461.419 256.995 460.723 256.346 460.004C255.696 459.285 254.861 458.52 253.864 457.685C252.124 456.246 250.593 454.831 249.271 453.486C247.925 452.117 246.858 450.725 246.093 449.287C245.304 447.849 244.84 446.364 244.701 444.787C244.562 443.21 244.84 441.493 245.513 439.66C246.116 438.06 246.928 436.691 247.995 435.601C249.062 434.488 250.292 433.652 251.707 433.049C253.122 432.469 254.699 432.145 256.392 432.075C258.086 432.005 259.895 432.237 261.774 432.748L264.024 426.693L268.895 428.503L266.622 434.65C268.292 435.531 269.684 436.575 270.867 437.805C272.027 439.034 272.909 440.38 273.488 441.864C274.068 443.349 274.347 444.949 274.324 446.666C274.3 448.383 273.929 450.192 273.233 452.071L264.442 448.8C265.277 446.527 265.416 444.648 264.836 443.163C264.256 441.679 263.119 440.612 261.426 439.985C260.521 439.637 259.686 439.475 258.921 439.498C258.155 439.498 257.483 439.66 256.903 439.939C256.3 440.217 255.812 440.635 255.372 441.168C254.954 441.702 254.606 442.305 254.351 443.001C254.096 443.697 253.957 444.369 253.957 445.019C253.957 445.668 254.096 446.318 254.421 446.991C254.745 447.663 255.232 448.359 255.905 449.078C256.578 449.821 257.436 450.633 258.48 451.537C260.173 452.999 261.681 454.437 263.003 455.806C264.326 457.174 265.393 458.589 266.158 460.027C266.947 461.466 267.411 462.973 267.55 464.551C267.689 466.128 267.411 467.822 266.738 469.654C266.112 471.324 265.277 472.693 264.21 473.806C263.143 474.92 261.89 475.755 260.475 476.312C259.06 476.892 257.506 477.17 255.789 477.216C254.073 477.24 252.286 477.008 250.384 476.497L248.297 482.134L243.448 480.325L245.536 474.734C243.912 473.946 242.428 472.971 241.059 471.811C239.69 470.652 238.6 469.329 237.788 467.798C236.976 466.291 236.489 464.574 236.373 462.672C236.257 460.77 236.605 458.705 237.44 456.432L246.232 459.703C245.722 461.048 245.513 462.231 245.536 463.275C245.583 464.319 245.814 465.224 246.232 465.989C246.65 466.755 247.23 467.404 247.949 467.914C248.668 468.425 249.456 468.842 250.268 469.144C251.219 469.492 252.101 469.677 252.913 469.701C253.725 469.724 254.444 469.608 255.093 469.353C255.743 469.097 256.3 468.726 256.763 468.216C257.227 467.659 257.599 467.056 257.854 466.36Z" fill="#FFA412"/>
<path d="M302.241 534.559C290.851 513.891 264.87 506.375 244.225 517.765C223.556 529.154 216.064 555.135 227.43 575.78C238.82 596.449 264.801 603.941 285.446 592.575C306.114 581.185 313.63 555.205 302.241 534.559Z" fill="black"/>
<path d="M298.967 536.344C287.577 515.676 261.597 508.16 240.951 519.55C220.283 530.939 212.79 556.92 224.157 577.565C235.547 598.234 261.527 605.75 282.172 594.36C302.841 582.993 310.357 557.013 298.967 536.344Z" fill="#FFB93E" stroke="black" stroke-width="4"/>
<path d="M261.849 596.331C258.207 596.331 254.565 595.821 250.97 594.777C240.995 591.878 232.714 585.29 227.703 576.173C222.716 567.103 221.533 556.572 224.432 546.597C227.332 536.622 233.92 528.341 243.036 523.331C252.129 518.32 262.661 517.137 272.636 520.037C282.61 522.936 290.892 529.524 295.902 538.641C306.271 557.43 299.405 581.137 280.615 591.507C274.747 594.708 268.344 596.331 261.849 596.331ZM261.756 520.802C255.655 520.802 249.624 522.333 244.15 525.372C226.474 535.115 220.025 557.407 229.768 575.083C234.477 583.643 242.248 589.86 251.642 592.574C261.037 595.288 270.919 594.197 279.479 589.465C297.155 579.722 303.604 557.43 293.861 539.754C289.152 531.194 281.381 524.978 271.986 522.264C268.599 521.289 265.166 520.802 261.756 520.802Z" fill="#FFA412"/>
<path d="M271.944 564.715C271.62 563.926 271.225 563.277 270.785 562.79C270.321 562.279 269.741 561.885 269.045 561.607C268.349 561.328 267.514 561.143 266.563 561.05C265.612 560.957 264.475 560.957 263.176 561.027C260.926 561.143 258.838 561.143 256.936 561.027C255.034 560.934 253.294 560.609 251.74 560.076C250.186 559.542 248.84 558.753 247.657 557.686C246.497 556.619 245.523 555.181 244.781 553.348C244.131 551.771 243.83 550.194 243.853 548.663C243.876 547.132 244.224 545.67 244.874 544.278C245.523 542.887 246.451 541.588 247.657 540.405C248.863 539.198 250.348 538.154 252.088 537.25L249.652 531.265L254.477 529.316L256.936 535.394C258.745 534.907 260.508 534.745 262.178 534.86C263.872 534.976 265.426 535.394 266.841 536.09C268.279 536.786 269.555 537.783 270.692 539.059C271.828 540.335 272.779 541.912 273.545 543.791L264.846 547.317C263.941 545.09 262.758 543.606 261.32 542.91C259.882 542.214 258.328 542.191 256.658 542.863C255.753 543.235 255.034 543.675 254.477 544.186C253.92 544.696 253.526 545.276 253.294 545.879C253.062 546.482 252.946 547.132 252.992 547.804C253.039 548.477 253.201 549.173 253.48 549.846C253.758 550.542 254.106 551.122 254.547 551.586C254.964 552.073 255.521 552.444 256.217 552.722C256.913 553.001 257.725 553.186 258.722 553.279C259.696 553.372 260.879 553.395 262.271 553.348C264.521 553.279 266.586 553.302 268.488 553.418C270.39 553.534 272.13 553.859 273.661 554.392C275.215 554.926 276.561 555.715 277.744 556.782C278.903 557.849 279.855 559.287 280.597 561.096C281.27 562.743 281.571 564.321 281.525 565.852C281.478 567.383 281.13 568.844 280.481 570.213C279.831 571.581 278.88 572.857 277.628 574.04C276.398 575.223 274.89 576.244 273.151 577.149L275.401 582.716L270.622 584.664L268.372 579.12C266.632 579.631 264.869 579.909 263.106 580.002C261.32 580.071 259.627 579.839 257.98 579.26C256.356 578.703 254.848 577.752 253.48 576.453C252.111 575.154 250.974 573.367 250.046 571.141L258.745 567.615C259.279 568.937 259.928 569.958 260.647 570.7C261.39 571.442 262.155 571.952 262.99 572.231C263.825 572.509 264.684 572.602 265.565 572.486C266.447 572.37 267.305 572.161 268.117 571.813C269.068 571.419 269.833 570.978 270.46 570.445C271.063 569.911 271.527 569.331 271.852 568.705C272.153 568.079 272.316 567.429 272.316 566.733C272.362 566.084 272.223 565.411 271.944 564.715Z" fill="#FFA412"/>
<path d="M220.857 495.31C219.326 477.658 203.784 464.574 186.108 466.105C168.455 467.636 155.372 483.178 156.903 500.854C158.434 518.507 173.976 531.59 191.652 530.059C209.328 528.528 222.388 512.963 220.857 495.31Z" fill="black"/>
<path d="M218.076 495.543C216.545 477.89 201.003 464.807 183.327 466.338C165.674 467.869 152.591 483.411 154.122 501.087C155.653 518.74 171.195 531.823 188.871 530.292C206.524 528.761 219.607 513.195 218.076 495.543Z" fill="#FFB93E" stroke="black" stroke-width="4"/>
<path d="M186.113 527.923C171.128 527.923 158.323 516.418 157.001 501.201C155.609 485.148 167.556 470.929 183.608 469.56C191.379 468.887 198.964 471.276 204.949 476.31C210.934 481.344 214.599 488.396 215.272 496.167C216.664 512.219 204.717 526.439 188.665 527.807C187.807 527.9 186.971 527.923 186.113 527.923ZM158.741 501.061C160.04 516.163 173.401 527.39 188.502 526.091C203.604 524.792 214.831 511.43 213.532 496.329C212.906 489.022 209.449 482.388 203.836 477.656C198.222 472.923 191.077 470.673 183.77 471.3C168.669 472.599 157.442 485.96 158.741 501.061Z" fill="#FFA412"/>
<path d="M190.889 506.795C190.913 506.168 190.843 505.588 190.681 505.101C190.518 504.614 190.24 504.173 189.846 503.756C189.451 503.361 188.941 502.967 188.315 502.619C187.688 502.271 186.9 501.923 185.995 501.575C184.417 500.972 182.979 500.323 181.703 499.673C180.428 499.024 179.337 498.281 178.433 497.446C177.528 496.611 176.832 495.66 176.368 494.57C175.881 493.48 175.672 492.204 175.719 490.719C175.765 489.443 176.02 488.26 176.507 487.216C176.994 486.172 177.667 485.268 178.549 484.502C179.43 483.737 180.451 483.134 181.657 482.693C182.863 482.229 184.185 481.974 185.647 481.881L185.809 477.033L189.706 477.149L189.544 482.067C190.936 482.299 192.188 482.693 193.325 483.296C194.439 483.899 195.39 484.641 196.155 485.569C196.921 486.497 197.501 487.564 197.895 488.794C198.289 490.023 198.452 491.392 198.405 492.9L191.353 492.668C191.4 490.858 191.052 489.49 190.286 488.562C189.521 487.634 188.454 487.147 187.085 487.1C186.343 487.077 185.716 487.17 185.183 487.355C184.649 487.541 184.209 487.819 183.861 488.144C183.513 488.492 183.234 488.91 183.072 489.374C182.886 489.861 182.794 490.371 182.77 490.928C182.747 491.485 182.817 491.995 182.956 492.459C183.095 492.923 183.374 493.34 183.768 493.735C184.162 494.129 184.673 494.5 185.322 494.871C185.972 495.242 186.784 495.614 187.735 496.008C189.289 496.657 190.704 497.307 191.98 497.957C193.255 498.606 194.346 499.372 195.25 500.207C196.155 501.042 196.851 502.016 197.315 503.106C197.802 504.197 198.011 505.472 197.964 506.934C197.918 508.256 197.663 509.439 197.153 510.483C196.665 511.527 195.97 512.408 195.111 513.174C194.23 513.916 193.209 514.496 191.98 514.937C190.773 515.377 189.428 515.633 187.967 515.725L187.827 520.226L183.953 520.11L184.093 515.633C182.747 515.447 181.448 515.122 180.196 514.635C178.943 514.148 177.853 513.452 176.902 512.571C175.951 511.689 175.208 510.576 174.651 509.277C174.118 507.954 173.863 506.4 173.932 504.591L180.984 504.823C180.961 505.89 181.077 506.795 181.355 507.514C181.634 508.233 182.028 508.836 182.515 509.277C183.002 509.717 183.559 510.042 184.209 510.228C184.835 510.413 185.508 510.529 186.157 510.552C186.923 510.576 187.595 510.506 188.175 510.32C188.755 510.135 189.242 509.88 189.66 509.555C190.054 509.23 190.356 508.813 190.588 508.349C190.75 507.885 190.866 507.351 190.889 506.795Z" fill="#FFA412"/>
<path d="M211.485 409.018C206.73 401.084 196.407 398.509 188.474 403.265C180.54 408.02 177.965 418.343 182.721 426.276C187.476 434.21 197.799 436.784 205.732 432.029C213.689 427.274 216.264 416.974 211.485 409.018Z" fill="black"/>
<path d="M210.235 409.783C205.48 401.85 195.157 399.275 187.224 404.031C179.29 408.786 176.715 419.109 181.471 427.042C186.226 434.975 196.549 437.55 204.482 432.795C212.439 428.016 215.014 417.717 210.235 409.783Z" fill="#FFB93E" stroke="black" stroke-width="3"/>
<path d="M195.989 433.862C190.793 433.862 185.712 431.218 182.859 426.439C178.521 419.225 180.887 409.807 188.102 405.469C195.339 401.131 204.734 403.474 209.072 410.711C211.183 414.214 211.786 418.32 210.788 422.287C209.791 426.253 207.332 429.594 203.829 431.682C201.37 433.143 198.656 433.862 195.989 433.862ZM183.625 425.975C187.707 432.772 196.545 434.975 203.342 430.916C206.636 428.944 208.956 425.813 209.884 422.078C210.812 418.343 210.232 414.493 208.26 411.199C204.177 404.402 195.339 402.198 188.542 406.258C181.769 410.317 179.565 419.178 183.625 425.975Z" fill="#FFA412"/>
<path d="M200.055 421.29C199.916 420.988 199.753 420.733 199.568 420.548C199.382 420.362 199.15 420.2 198.872 420.107C198.593 420.014 198.269 419.945 197.897 419.921C197.526 419.898 197.086 419.921 196.575 419.968C195.694 420.037 194.882 420.084 194.116 420.061C193.374 420.037 192.678 419.945 192.075 419.759C191.472 419.573 190.915 419.272 190.451 418.877C189.987 418.483 189.57 417.926 189.268 417.207C188.99 416.604 188.851 415.978 188.851 415.375C188.851 414.772 188.943 414.192 189.199 413.635C189.431 413.078 189.779 412.568 190.242 412.081C190.706 411.594 191.263 411.153 191.936 410.782L190.892 408.462L192.748 407.627L193.792 409.97C194.488 409.761 195.183 409.668 195.856 409.691C196.529 409.715 197.132 409.854 197.712 410.109C198.292 410.364 198.802 410.735 199.266 411.222C199.73 411.71 200.124 412.313 200.449 413.032L197.086 414.54C196.691 413.681 196.204 413.125 195.647 412.869C195.067 412.614 194.464 412.638 193.815 412.916C193.467 413.078 193.188 413.264 192.98 413.473C192.771 413.681 192.632 413.913 192.539 414.145C192.446 414.377 192.423 414.632 192.446 414.911C192.469 415.166 192.539 415.444 192.655 415.7C192.771 415.955 192.933 416.187 193.096 416.372C193.281 416.558 193.49 416.697 193.768 416.79C194.047 416.883 194.372 416.952 194.766 416.975C195.16 416.999 195.624 416.999 196.158 416.952C197.039 416.906 197.851 416.883 198.593 416.883C199.336 416.906 200.032 416.999 200.635 417.184C201.261 417.37 201.795 417.671 202.258 418.066C202.722 418.46 203.117 419.017 203.442 419.713C203.72 420.339 203.882 420.965 203.882 421.568C203.882 422.171 203.766 422.751 203.534 423.308C203.302 423.865 202.931 424.375 202.467 424.862C202.003 425.349 201.423 425.767 200.751 426.138L201.725 428.295L199.869 429.131L198.918 426.996C198.245 427.228 197.55 427.368 196.854 427.414C196.158 427.46 195.485 427.391 194.835 427.205C194.186 426.996 193.583 426.672 193.026 426.161C192.469 425.674 192.005 424.978 191.611 424.12L194.975 422.612C195.207 423.123 195.462 423.517 195.763 423.795C196.065 424.074 196.366 424.259 196.714 424.352C197.039 424.445 197.387 424.468 197.735 424.422C198.083 424.375 198.408 424.259 198.733 424.12C199.104 423.958 199.405 423.772 199.637 423.54C199.869 423.331 200.055 423.099 200.148 422.844C200.264 422.589 200.31 422.334 200.31 422.055C200.24 421.824 200.171 421.568 200.055 421.29Z" fill="#FFA412"/>
<path d="M271.937 349.887C262.959 347.567 253.82 352.949 251.5 361.926C249.18 370.903 254.562 380.043 263.539 382.362C272.516 384.682 281.656 379.3 283.976 370.323C286.295 361.369 280.914 352.23 271.937 349.887Z" fill="black"/>
<path d="M270.522 349.539C261.545 347.219 252.406 352.601 250.086 361.578C247.766 370.555 253.148 379.695 262.125 382.015C271.102 384.334 280.242 378.953 282.562 369.976C284.881 360.998 279.5 351.859 270.522 349.539Z" fill="#FFB93E" stroke="black" stroke-width="3"/>
<path d="M266.276 381.248C265 381.248 263.724 381.086 262.449 380.761C258.505 379.741 255.188 377.235 253.1 373.709C251.036 370.183 250.456 366.078 251.476 362.134C252.497 358.191 255.002 354.873 258.528 352.786C262.054 350.721 266.16 350.141 270.104 351.162C274.047 352.183 277.364 354.688 279.452 358.214C281.516 361.74 282.096 365.846 281.076 369.789C279.29 376.655 273.073 381.248 266.276 381.248ZM266.253 351.579C263.724 351.579 261.219 352.252 258.992 353.574C255.675 355.523 253.332 358.631 252.381 362.366C251.43 366.078 251.964 369.951 253.912 373.269C255.861 376.586 258.969 378.929 262.704 379.88C263.91 380.181 265.116 380.344 266.299 380.344C272.678 380.344 278.547 376.052 280.217 369.58C282.212 361.902 277.573 354.062 269.918 352.067C268.665 351.742 267.459 351.579 266.253 351.579Z" fill="#FFA412"/>
<path d="M267.202 370.786C267.318 370.485 267.387 370.183 267.387 369.928C267.387 369.649 267.341 369.394 267.202 369.116C267.086 368.838 266.9 368.559 266.645 368.281C266.39 368.002 266.065 367.701 265.671 367.353C264.998 366.773 264.395 366.216 263.884 365.683C263.374 365.126 262.956 364.593 262.655 364.013C262.353 363.456 262.191 362.853 262.145 362.226C262.098 361.6 262.214 360.927 262.493 360.208C262.748 359.582 263.072 359.048 263.49 358.631C263.908 358.213 264.395 357.865 264.975 357.657C265.531 357.425 266.158 357.309 266.807 357.309C267.48 357.285 268.176 357.401 268.918 357.61L269.846 355.244L271.748 355.986L270.82 358.376C271.47 358.724 272.026 359.141 272.467 359.628C272.908 360.116 273.256 360.649 273.465 361.229C273.673 361.809 273.789 362.435 273.766 363.108C273.743 363.781 273.581 364.477 273.302 365.219L269.869 363.873C270.217 362.992 270.264 362.25 270.055 361.67C269.823 361.09 269.382 360.649 268.733 360.394C268.385 360.255 268.06 360.185 267.758 360.185C267.457 360.185 267.202 360.231 266.97 360.347C266.738 360.463 266.529 360.603 266.366 360.811C266.204 361.02 266.065 361.252 265.949 361.531C265.833 361.809 265.786 362.064 265.786 362.319C265.786 362.574 265.833 362.83 265.949 363.085C266.065 363.34 266.25 363.618 266.506 363.92C266.761 364.221 267.086 364.546 267.503 364.894C268.153 365.474 268.756 366.054 269.266 366.587C269.776 367.144 270.194 367.701 270.472 368.258C270.774 368.838 270.936 369.417 270.983 370.044C271.029 370.67 270.913 371.32 270.635 372.039C270.38 372.688 270.032 373.222 269.614 373.663C269.196 374.08 268.686 374.405 268.129 374.637C267.573 374.846 266.946 374.962 266.274 374.962C265.601 374.962 264.905 374.869 264.163 374.637L263.304 376.841L261.425 376.098L262.284 373.918C261.657 373.593 261.078 373.199 260.544 372.735C260.01 372.271 259.593 371.737 259.291 371.134C258.967 370.531 258.804 369.858 258.758 369.116C258.711 368.374 258.874 367.562 259.222 366.68L262.655 368.026C262.446 368.559 262.353 369.023 262.353 369.417C262.353 369.835 262.446 370.183 262.609 370.485C262.771 370.786 263.003 371.041 263.281 371.25C263.56 371.459 263.861 371.621 264.186 371.76C264.557 371.9 264.905 371.992 265.23 371.992C265.555 372.016 265.833 371.969 266.088 371.876C266.343 371.784 266.575 371.644 266.761 371.436C266.946 371.273 267.086 371.041 267.202 370.786Z" fill="#FFA412"/>
<path d="M304.65 491.204C300.892 484.941 302.933 476.845 309.173 473.088C315.437 469.33 323.532 471.371 327.29 477.611C331.048 483.874 329.007 491.97 322.767 495.728C316.504 499.486 308.385 497.468 304.65 491.204Z" fill="black"/>
<path d="M303.65 491.807C299.892 485.544 301.933 477.448 308.173 473.691C314.437 469.933 322.532 471.974 326.29 478.214C330.048 484.477 328.007 492.573 321.767 496.331C315.504 500.089 307.408 498.047 303.65 491.807Z" fill="#FFB93E" stroke="black" stroke-width="3"/>
<path d="M315.085 497.168C311.003 497.168 306.99 495.08 304.739 491.322C301.329 485.639 303.185 478.216 308.868 474.806C314.552 471.396 321.975 473.252 325.385 478.935C328.795 484.618 326.939 492.041 321.256 495.451C319.307 496.611 317.173 497.168 315.085 497.168ZM305.343 490.951C308.544 496.309 315.526 498.049 320.861 494.825C326.22 491.624 327.96 484.641 324.735 479.306C321.534 473.948 314.552 472.208 309.216 475.432C303.881 478.657 302.141 485.616 305.343 490.951Z" fill="#FFA412"/>
<path d="M318.267 487.285C318.151 487.053 318.035 486.844 317.873 486.705C317.734 486.542 317.548 486.45 317.316 486.357C317.107 486.287 316.829 486.241 316.551 486.218C316.249 486.195 315.901 486.218 315.507 486.241C314.811 486.31 314.161 486.334 313.581 486.31C312.978 486.31 312.445 486.218 311.958 486.079C311.47 485.939 311.053 485.707 310.682 485.383C310.311 485.058 309.986 484.64 309.754 484.084C309.545 483.596 309.429 483.132 309.406 482.645C309.406 482.181 309.499 481.717 309.661 481.277C309.847 480.836 310.125 480.418 310.473 480.047C310.844 479.653 311.285 479.328 311.795 479.027L310.983 477.194L312.445 476.545L313.28 478.4C313.837 478.238 314.37 478.168 314.904 478.168C315.437 478.192 315.901 478.284 316.365 478.493C316.806 478.702 317.223 478.98 317.594 479.375C317.966 479.769 318.267 480.233 318.522 480.813L315.878 481.996C315.576 481.323 315.182 480.882 314.741 480.674C314.277 480.465 313.813 480.488 313.303 480.72C313.025 480.836 312.816 480.998 312.653 481.161C312.491 481.323 312.375 481.509 312.305 481.694C312.236 481.88 312.213 482.089 312.236 482.297C312.259 482.506 312.305 482.715 312.398 482.924C312.491 483.132 312.607 483.318 312.746 483.457C312.885 483.596 313.071 483.712 313.28 483.782C313.489 483.852 313.744 483.898 314.068 483.921C314.393 483.944 314.741 483.921 315.159 483.898C315.855 483.852 316.481 483.828 317.084 483.852C317.664 483.875 318.221 483.944 318.708 484.084C319.195 484.223 319.613 484.455 319.984 484.779C320.355 485.104 320.656 485.522 320.912 486.079C321.144 486.589 321.26 487.076 321.26 487.54C321.26 488.027 321.167 488.468 320.981 488.909C320.796 489.349 320.517 489.744 320.146 490.115C319.775 490.486 319.334 490.834 318.801 491.135L319.566 492.829L318.105 493.478L317.339 491.785C316.806 491.971 316.272 492.063 315.715 492.11C315.159 492.156 314.625 492.087 314.115 491.947C313.605 491.785 313.117 491.53 312.7 491.135C312.259 490.741 311.888 490.208 311.586 489.535L314.231 488.352C314.416 488.746 314.625 489.071 314.857 489.28C315.089 489.488 315.344 489.651 315.599 489.72C315.855 489.79 316.133 489.813 316.388 489.767C316.667 489.72 316.922 489.651 317.177 489.535C317.455 489.396 317.71 489.256 317.873 489.094C318.058 488.932 318.198 488.746 318.29 488.537C318.383 488.352 318.43 488.143 318.406 487.934C318.43 487.702 318.36 487.494 318.267 487.285Z" fill="#FFA412"/>
<mask id="mask0_44_13" style="mask-type:alpha" maskUnits="userSpaceOnUse" x="299" y="485" width="151" height="117">
<rect x="299.508" y="523.107" width="132" height="81.3146" transform="rotate(-16.4221 299.508 523.107)" fill="#C4C4C4"/>
</mask>
<g mask="url(#mask0_44_13)">
<path d="M343.757 592.411C332.765 571.544 340.769 545.698 361.636 534.706C382.503 523.714 408.349 531.719 419.341 552.585C430.333 573.452 422.328 599.298 401.462 610.29C380.577 621.298 354.732 613.293 343.757 592.411Z" fill="black"/>
<path d="M420.871 576.901C422.339 553.361 404.446 533.089 380.906 531.621C357.366 530.154 337.094 548.047 335.626 571.587C334.159 595.126 352.052 615.399 375.591 616.866C399.131 618.334 419.403 600.441 420.871 576.901Z" fill="#FFB93E" stroke="black" stroke-width="4"/>
<path d="M404.298 603.828C401.985 605.87 399.409 607.649 396.622 609.118C387.429 613.952 376.883 614.938 366.967 611.871C357.035 608.787 348.91 602.035 344.061 592.825C339.227 583.633 338.241 573.086 341.308 563.17C344.392 553.239 351.144 545.114 360.354 540.264C379.335 530.256 402.906 537.576 412.915 556.557C417.749 565.75 418.735 576.297 415.668 586.213C413.511 593.129 409.585 599.162 404.298 603.828ZM354.213 547.293C349.239 551.684 345.549 557.354 343.533 563.868C340.633 573.202 341.544 583.104 346.116 591.754C350.673 600.387 358.312 606.763 367.664 609.647C376.999 612.546 386.9 611.635 395.55 607.063C404.183 602.506 410.559 594.868 413.443 585.515C416.343 576.18 415.431 566.279 410.86 557.629C401.454 539.786 379.286 532.899 361.426 542.32C358.791 543.717 356.37 545.39 354.213 547.293Z" fill="#FFA412"/>
<path d="M388.487 582.2C388.191 581.409 387.804 580.761 387.344 580.239C386.883 579.717 386.317 579.32 385.628 579.031C384.939 578.742 384.114 578.542 383.151 578.433C382.188 578.323 381.055 578.302 379.755 578.336C377.499 578.409 375.414 578.361 373.533 578.228C371.618 578.092 369.897 577.754 368.372 577.183C366.829 576.626 365.499 575.82 364.35 574.73C363.202 573.639 362.275 572.168 361.567 570.349C360.96 568.75 360.663 567.186 360.741 565.663C360.804 564.122 361.174 562.682 361.835 561.294C362.512 559.923 363.48 558.635 364.704 557.463C365.927 556.29 367.437 555.266 369.184 554.406L366.864 548.378L371.714 546.511L374.077 552.624C375.913 552.179 377.647 552.041 379.348 552.18C381.031 552.334 382.582 552.759 383.999 553.489C385.416 554.218 386.684 555.234 387.803 556.536C388.921 557.838 389.84 559.441 390.562 561.31L381.806 564.675C380.928 562.418 379.789 560.918 378.372 560.188C376.955 559.459 375.396 559.411 373.712 560.062C372.804 560.4 372.07 560.831 371.512 561.355C370.938 561.861 370.541 562.428 370.29 563.021C370.022 563.628 369.933 564.264 369.956 564.956C369.996 565.632 370.134 566.314 370.403 567.005C370.672 567.695 371.013 568.292 371.443 568.779C371.873 569.266 372.407 569.661 373.096 569.95C373.784 570.24 374.61 570.439 375.59 570.533C376.586 570.644 377.767 570.685 379.148 570.673C381.385 570.648 383.467 570.728 385.364 570.879C387.261 571.031 388.997 571.385 390.523 571.957C392.066 572.513 393.411 573.337 394.56 574.427C395.708 575.518 396.62 576.972 397.328 578.791C397.964 580.457 398.243 582.036 398.18 583.577C398.117 585.118 397.73 586.573 397.038 587.927C396.361 589.298 395.38 590.535 394.123 591.706C392.852 592.859 391.359 593.867 389.595 594.743L391.76 600.351L386.928 602.203L384.794 596.63C383.054 597.113 381.297 597.365 379.503 597.401C377.709 597.437 376.017 597.167 374.395 596.557C372.789 595.963 371.288 594.999 369.942 593.649C368.596 592.3 367.491 590.522 366.613 588.265L375.368 584.899C375.876 586.246 376.502 587.271 377.211 588.038C377.936 588.79 378.709 589.315 379.528 589.613C380.348 589.91 381.213 590.013 382.089 589.92C382.966 589.827 383.834 589.618 384.642 589.307C385.585 588.938 386.369 588.494 386.993 587.974C387.617 587.454 388.08 586.892 388.398 586.271C388.716 585.649 388.888 585.003 388.898 584.313C388.877 583.589 388.756 582.891 388.487 582.2Z" fill="#FFA412"/>
</g>
<mask id="mask1_44_13" style="mask-type:alpha" maskUnits="userSpaceOnUse" x="101" y="509" width="75" height="65">
<rect x="119.086" y="509" width="61" height="44" transform="rotate(22.854 119.086 509)" fill="#C4C4C4"/>
</mask>
<g mask="url(#mask1_44_13)">
<path d="M154.962 540.037C149.098 530.253 136.367 527.078 126.584 532.942C116.8 538.807 113.625 551.537 119.489 561.321C125.354 571.104 138.084 574.28 147.867 568.415C157.68 562.551 160.855 549.849 154.962 540.037Z" fill="black"/>
<path d="M153.415 540.981C147.551 531.197 134.821 528.022 125.037 533.887C115.253 539.751 112.078 552.481 117.942 562.265C123.807 572.048 136.537 575.224 146.321 569.359C156.133 563.466 159.308 550.765 153.415 540.981Z" fill="#FFB93E" stroke="black" stroke-width="4"/>
<path d="M135.848 570.676C129.44 570.676 123.175 567.414 119.656 561.521C114.306 552.624 117.224 541.01 126.121 535.66C135.047 530.311 146.632 533.2 151.982 542.126C154.585 546.445 155.329 551.509 154.099 556.401C152.869 561.292 149.836 565.412 145.517 567.986C142.484 569.789 139.137 570.676 135.848 570.676ZM120.6 560.949C125.635 569.331 136.534 572.049 144.916 567.042C148.978 564.611 151.839 560.749 152.983 556.143C154.127 551.537 153.412 546.789 150.981 542.726C145.946 534.345 135.047 531.627 126.665 536.633C118.311 541.639 115.594 552.567 120.6 560.949Z" fill="#FFA412"/>
<path d="M140.856 555.171C140.685 554.8 140.484 554.485 140.256 554.256C140.027 554.027 139.741 553.827 139.397 553.712C139.054 553.598 138.654 553.512 138.196 553.484C137.738 553.455 137.195 553.484 136.565 553.541C135.478 553.627 134.477 553.684 133.533 553.655C132.617 553.627 131.759 553.512 131.015 553.283C130.272 553.054 129.585 552.683 129.013 552.196C128.441 551.71 127.926 551.023 127.554 550.137C127.211 549.393 127.039 548.62 127.039 547.877C127.039 547.133 127.153 546.418 127.468 545.731C127.754 545.044 128.183 544.415 128.755 543.814C129.328 543.214 130.014 542.67 130.844 542.212L129.556 539.352L131.845 538.322L133.132 541.211C133.991 540.954 134.849 540.839 135.678 540.868C136.508 540.896 137.252 541.068 137.967 541.383C138.682 541.697 139.311 542.155 139.884 542.756C140.456 543.357 140.942 544.1 141.343 544.987L137.195 546.847C136.708 545.788 136.107 545.102 135.421 544.787C134.706 544.472 133.962 544.501 133.161 544.844C132.732 545.045 132.389 545.273 132.131 545.531C131.874 545.788 131.702 546.074 131.588 546.36C131.473 546.646 131.445 546.961 131.473 547.304C131.502 547.619 131.588 547.962 131.731 548.277C131.874 548.592 132.074 548.878 132.274 549.107C132.503 549.336 132.76 549.507 133.104 549.622C133.447 549.736 133.848 549.822 134.334 549.85C134.82 549.879 135.392 549.879 136.05 549.822C137.137 549.765 138.139 549.736 139.054 549.736C139.969 549.765 140.828 549.879 141.571 550.108C142.344 550.337 143.002 550.709 143.574 551.195C144.146 551.681 144.632 552.368 145.033 553.226C145.376 553.999 145.576 554.771 145.576 555.515C145.576 556.258 145.433 556.974 145.147 557.66C144.861 558.347 144.404 558.976 143.831 559.577C143.259 560.178 142.544 560.693 141.714 561.15L142.916 563.811L140.627 564.841L139.455 562.209C138.625 562.495 137.767 562.666 136.908 562.724C136.05 562.781 135.221 562.695 134.42 562.466C133.619 562.209 132.875 561.808 132.188 561.179C131.502 560.578 130.93 559.72 130.443 558.661L134.591 556.802C134.877 557.431 135.192 557.918 135.564 558.261C135.936 558.604 136.308 558.833 136.737 558.948C137.137 559.062 137.566 559.091 137.996 559.033C138.425 558.976 138.825 558.833 139.226 558.661C139.683 558.461 140.055 558.232 140.341 557.946C140.627 557.689 140.856 557.403 140.971 557.088C141.114 556.773 141.171 556.459 141.171 556.115C141.085 555.829 140.999 555.515 140.856 555.171Z" fill="#FFA412"/>
</g>
<defs>
<clipPath id="clip0_44_13">
<rect width="134.769" height="80.8617" fill="white" transform="translate(14.8985 303.671) rotate(-16.8941)"/>
</clipPath>
<clipPath id="clip1_44_13">
<rect width="131.322" height="144.286" fill="white" transform="translate(207 150.396) rotate(-1.48223)"/>
</clipPath>
<clipPath id="clip2_44_13">
<rect width="138.034" height="138.034" fill="white" transform="translate(404.32 283) rotate(18.7295)"/>
</clipPath>
</defs>
</svg>
