<svg width="123" height="135" viewBox="0 0 123 135" fill="none" xmlns="http://www.w3.org/2000/svg">
<path d="M79.6245 64.4357L8.91195 65.2989C6.21009 65.3332 4.21247 62.7988 4.78015 60.176L9.72799 37.7726C10.2957 35.1498 13.0765 33.7227 15.4806 34.8361L79.6245 64.4357Z" fill="#FC5160" stroke="black" stroke-width="2.88198"/>
<path d="M110.023 48.0278L90.012 6.05528C88.9704 3.90078 86.2669 3.14314 84.1953 4.37719L73.8387 11.3393C71.6585 12.8467 71.5285 15.9599 73.5245 17.7023L110.023 48.0278Z" fill="#FFE72F" stroke="black" stroke-width="2.88198"/>
<path d="M101.166 94.9886L62.9073 123.621C61.1088 124.963 58.6241 124.451 57.3373 122.516L50.9298 112.374C49.6151 110.111 50.7554 107.241 53.2104 106.634L101.166 94.9886Z" fill="#ECEFFF" stroke="black" stroke-width="2.88198"/>
</svg>
