<svg width="38" height="38" viewBox="0 0 38 38" fill="none" xmlns="http://www.w3.org/2000/svg">
<path d="M5.69057 30.9395L7.34582 8.24378C7.48223 6.3755 8.93286 4.93402 10.677 4.93402H25.4062H27.6022H32.9175C33.0759 4.93402 33.1514 5.14219 33.0345 5.2574C33.0345 5.2574 31.1015 6.62949 30.2684 7.38885C30.266 7.39016 30.2648 7.39277 30.2623 7.39408C30.0674 7.57607 30.0138 7.82613 30.3464 8.04478L30.6569 8.21629L32.6886 9.4077C32.8043 9.47578 32.8104 9.65383 32.6971 9.72846L31.294 10.6763C30.6569 11.2302 30.5668 11.3611 30.5668 12.233L31.9882 31.5456C32.1161 33.3066 30.8214 34.8122 29.1783 34.8122H9.02055C7.07299 34.8122 5.53832 33.0277 5.69057 30.9395Z" fill="#FFCC5A" stroke="black" stroke-width="0.968117" stroke-miterlimit="10"/>
<path d="M8.75624 32.071H18.8375V5.48218H10.4428C9.12289 5.48218 8.02526 6.49815 7.92283 7.81472L6.23622 29.3435C6.12099 30.8139 7.28148 32.071 8.75624 32.071Z" fill="#FFCC5A"/>
</svg>
