<svg width="33" height="33" viewBox="0 0 33 33" fill="none" xmlns="http://www.w3.org/2000/svg">
<g clip-path="url(#clip0_0_21)">
<path d="M2.69063 27.9395L4.34588 5.24384C4.48229 3.37556 5.93292 1.93408 7.67708 1.93408H22.4062H24.6023H29.9176C30.0759 1.93408 30.1515 2.14225 30.0345 2.25746C30.0345 2.25746 28.1016 3.62955 27.2685 4.38891C27.266 4.39022 27.2648 4.39284 27.2624 4.39414C27.0675 4.57613 27.0139 4.82619 27.3464 5.04484L27.657 5.21635L29.6886 6.40776C29.8043 6.47584 29.8104 6.65389 29.6971 6.72852L28.294 7.67641C27.657 8.23022 27.5669 8.36115 27.5669 9.2331L28.9883 28.5457C29.1162 30.3066 27.8214 31.8123 26.1784 31.8123H6.02062C4.07305 31.8123 2.53838 30.0278 2.69063 27.9395Z" stroke="#F0B829" stroke-width="0.968117" stroke-miterlimit="10"/>
<path d="M19.0793 23.3378C17.3303 23.3378 15.0774 24.6718 12.8339 23.8874C10.4567 23.0563 12.8339 26.7356 16.1082 26.7356C20.6558 26.7356 20.9589 23.3378 19.0793 23.3378Z" fill="white" stroke="#263238" stroke-width="0.60676"/>
<path d="M3.42583 13.4016L3.38641 13.0831H3.06553H2.1916V10.4648H29.4199V13.0831H28.546H28.2251L28.1857 13.4016L27.5006 18.9358H18.1139L17.1006 13.4817V13.4462C17.1006 13.1146 16.9535 12.8058 16.7071 12.5847L16.4646 12.8549L16.7071 12.5847C16.462 12.3648 16.1372 12.247 15.8057 12.247C15.4743 12.247 15.1495 12.3648 14.9044 12.5847C14.658 12.8058 14.5109 13.1146 14.5109 13.4462V13.4817L13.4976 18.9358H4.11089L3.42583 13.4016Z" fill="#6376A8" stroke="black" stroke-width="0.726088"/>
</g>
<defs>
<clipPath id="clip0_0_21">
<rect width="31.7058" height="31.7058" fill="white" transform="translate(0.618469 0.872498)"/>
</clipPath>
</defs>
</svg>
