<svg width="875" height="128" viewBox="0 0 875 128" fill="none" xmlns="http://www.w3.org/2000/svg">
<path d="M93.0292 28.5857C78.4671 2.5818 47.436 11.2495 41.0217 11.9429L12.9374 86.8338L3.05628 98.7956C-4.74486 110.757 9.03807 114.502 19.1785 118.558C34.7808 124.799 77.4266 112.317 104.47 112.317C131.514 112.317 120.593 118.558 150.757 121.159C180.922 123.759 196.004 113.878 218.367 112.317C240.73 110.757 248.531 121.159 273.495 121.159C298.458 121.159 316.141 108.677 328.623 114.918C341.105 121.159 371.789 121.159 393.112 118.558C414.435 115.958 421.716 112.317 439.399 118.558C478.405 132.325 525.211 117.518 542.373 114.918C559.536 112.317 562.656 117.518 589.7 125.319C616.744 133.12 638.812 122.12 650.549 114.918C673.432 100.876 682.585 121.679 714.518 121.679C751.443 121.679 757.684 109.717 771.726 112.317C785.768 114.918 776.986 118.376 802.93 121.679C831.535 125.319 853.378 120.639 862.219 117.518C871.06 114.398 878.63 101.396 873.14 81.6331C870.54 72.2718 868.98 64.4707 867.94 57.1896C866.9 49.9086 872.62 23.9047 867.94 18.704C863.259 13.5032 813.729 48.7713 791.489 64.4707C782.648 70.7116 765.504 70.7114 764.445 60.83C762.885 46.2679 758.204 37.9467 751.443 30.6657C744.682 23.3846 702.036 18.7038 680.713 60.83C674.508 73.089 653.149 81.6331 647.428 64.4707C642.939 51.0038 665.111 40.027 658.87 33.266C652.629 26.5051 590.74 55.6292 576.178 68.111C561.616 80.5928 543.934 85.2735 534.052 70.7115C531.36 66.744 525.731 37.4266 520.53 30.6657C515.329 23.9047 479.444 37.9469 462.802 42.6276C446.159 47.3082 439.399 68.111 430.557 68.111C420.883 68.111 420.789 55.5438 419.635 49.3885C411.835 7.7824 368.148 29.1054 356.187 33.266C344.225 37.4266 345.786 66.0307 328.623 61.35C320.689 59.1865 319.782 42.6274 315.621 33.266C303.37 5.70211 268.814 22.8646 263.614 22.8646C258.413 22.8646 238.13 70.7115 225.128 61.35C216.265 54.9685 207.445 11.9429 180.922 15.0634C164.588 16.9851 161.911 37.1156 150.757 28.5856C133.075 15.0634 118.513 73.8318 98.75 64.4705C81.8296 56.4556 96.4854 34.7576 93.0292 28.5857Z" fill="#007EFF"/>
<path d="M753.288 37.4463L757.481 96.501C757.481 96.501 759.406 113.73 719.285 113.73C680.739 113.73 682.714 97.572 682.714 97.572L686.785 47.7398L687.416 36.9329C687.705 31.9899 687.839 28.9998 693.262 28.8333H698.405L743.748 28.9062C749.548 28.9062 752.897 32.6256 753.288 37.4463Z" fill="#7EA16B" stroke="black" stroke-width="2.17478" stroke-miterlimit="10"/>
<ellipse cx="691.702" cy="98.8983" rx="2.7947" ry="2.95174" fill="#8EB47A"/>
<ellipse cx="696.204" cy="91.9072" rx="1.70787" ry="1.86426" fill="#8EB47A"/>
<ellipse cx="688.752" cy="87.8674" rx="1.39696" ry="1.55312" fill="#8EB47A"/>
<ellipse cx="697.447" cy="44.9895" rx="1.39696" ry="1.55312" fill="#8EB47A"/>
<ellipse cx="750.856" cy="86.3141" rx="1.39696" ry="1.55312" fill="#8EB47A"/>
<path d="M730.827 37.2222C733.546 39.1268 739.402 43.5955 741.075 46.2328" stroke="black" stroke-width="1.24209" stroke-linecap="round"/>
<path d="M732.069 40.4842C732.69 39.6041 734.056 37.8439 734.553 37.8439" stroke="black" stroke-width="1.24209" stroke-linecap="round"/>
<path d="M734.709 42.5034C735.175 41.7269 736.23 40.1427 736.727 40.0184" stroke="black" stroke-width="1.24209" stroke-linecap="round"/>
<path d="M737.193 44.8337C737.452 44.0571 738.218 42.4419 739.211 42.1934" stroke="black" stroke-width="1.24209" stroke-linecap="round"/>
<path d="M681.777 28.8334H693.684C693.292 44.5036 687.043 43.5597 687.043 43.5597C687.043 41.8005 686.841 41.5363 685.414 40.4189L682.271 38.5065C682.017 38.3559 682.031 37.9967 682.29 37.8593L686.841 35.4556L687.537 35.1096C688.282 34.6684 688.161 34.1639 687.725 33.7967C687.719 33.7941 687.717 33.7888 687.711 33.7862C685.845 32.2541 681.515 29.4858 681.515 29.4858C681.253 29.2534 681.422 28.8334 681.777 28.8334Z" fill="#7EA16B"/>
<path d="M696.815 28.8334H689.296H681.777C681.422 28.8334 681.253 29.2534 681.515 29.4858C681.515 29.4858 685.845 32.2541 687.711 33.7862C687.717 33.7888 687.719 33.7941 687.725 33.7967C688.161 34.1639 688.282 34.6684 687.537 35.1096L686.841 35.4556L682.29 37.8593C682.031 37.9967 682.017 38.3559 682.271 38.5065L685.414 40.4189C686.841 41.5363 687.043 41.8005 687.043 43.5597" stroke="black" stroke-width="2.17478" stroke-miterlimit="10"/>
<rect x="682.51" y="56.7178" width="75.4288" height="20.9219" rx="9.74283" fill="black"/>
<rect x="684.436" y="58.9199" width="71.5748" height="16.5173" rx="8.25863" fill="#494949"/>
<rect x="687.464" y="61.3973" width="65.7937" height="11.5621" rx="5.78104" fill="url(#paint0_linear_344_293)"/>
<path d="M729.641 92.1772C724.231 92.1772 717.262 96.3039 710.322 93.8776C702.968 91.3067 710.322 102.688 720.45 102.688C734.518 102.688 735.456 92.1773 729.641 92.1772Z" fill="white" stroke="black" stroke-width="1.87693"/>
<path d="M634.092 40.7861L638.121 97.5279C638.121 97.5279 639.971 114.082 601.421 114.082C564.385 114.082 566.282 98.5569 566.282 98.5569L570.194 50.6764L570.8 40.2927C571.117 34.8693 571.117 32.5804 576.956 32.5186C579.292 32.4939 579.562 32.5184 581.269 32.5184L624.926 32.5804C630.32 32.5804 633.717 36.1542 634.092 40.7861Z" fill="#FFCC5A" stroke="black" stroke-width="2.08921" stroke-miterlimit="10"/>
<path d="M565.382 32.5106H576.823C576.446 47.5671 570.442 46.6602 570.442 46.6602C570.442 44.9698 570.248 44.716 568.877 43.6424L565.857 41.8049C565.613 41.6602 565.626 41.3151 565.875 41.1831L570.248 38.8735L570.916 38.541C571.632 38.1171 571.517 37.6324 571.097 37.2796C571.092 37.2771 571.089 37.272 571.084 37.2694C569.291 35.7974 565.13 33.1375 565.13 33.1375C564.879 32.9142 565.041 32.5106 565.382 32.5106Z" fill="#FFCC5A"/>
<path d="M579.831 32.5106H565.382C565.041 32.5106 564.879 32.9142 565.13 33.1375C565.13 33.1375 569.291 35.7974 571.084 37.2694C571.089 37.272 571.092 37.2771 571.097 37.2796C571.517 37.6324 571.632 38.1171 570.916 38.541L570.248 38.8735L565.875 41.1831C565.626 41.3151 565.613 41.6602 565.857 41.8049L568.877 43.6424C570.248 44.716 570.442 44.9698 570.442 46.6602" stroke="black" stroke-width="2.0896" stroke-miterlimit="10"/>
<path d="M612.762 99.299C612.078 100.689 611.064 101.818 609.884 102.709C605.544 105.945 598.822 105.923 594.764 103.013C594.647 102.926 594.529 102.839 594.411 102.731C593.326 101.862 592.429 100.819 591.816 99.6031C591.203 98.4086 590.637 96.4539 591.509 95.3463C592.406 94.2387 593.868 93.6523 595.26 94.1084C595.967 94.3256 596.722 94.6079 597.43 94.9119C600.19 96.063 603.067 96.1933 606.087 95.2594C607.077 94.9554 608.115 94.6296 609.177 94.521C612.102 94.2387 614.036 96.758 612.762 99.299Z" fill="black" stroke="black" stroke-width="1.55648"/>
<path d="M604.308 100.086C606.215 100.366 607.99 101.147 609.216 102.61C605.032 105.445 598.81 105.338 595.038 102.635C595.035 102.632 595.031 102.629 595.027 102.627C595.119 102.535 595.237 102.437 595.368 102.338C595.516 102.227 595.67 102.124 595.808 102.033C595.833 102.016 595.858 101.999 595.884 101.983C595.98 101.92 596.075 101.858 596.139 101.81C596.835 101.357 597.6 100.984 598.392 100.692C600.069 100.077 602.243 99.7834 604.308 100.086Z" fill="#E50E0E" stroke="black" stroke-width="0.933886"/>
<path d="M607.571 64.8796C607.972 66.6797 609.028 68.251 609.848 69.9029C610.44 71.0975 610.915 72.3495 611.562 73.5149C612.182 74.6333 612.956 75.6609 613.781 76.6389C616.705 80.1105 620.576 83.1248 625.089 83.6C626.245 83.7216 627.414 83.6737 628.571 83.5701C629.541 83.4836 630.519 83.356 631.429 83.0074C633.363 82.2659 634.815 80.5763 635.706 78.7052C636.596 76.8341 636.992 74.772 637.369 72.734C637.758 70.6282 638.133 68.4574 637.691 66.3628C637.523 65.5656 637.238 64.7957 636.893 64.0576C636.352 62.9006 635.653 61.808 634.746 60.9097C632.562 58.7474 629.401 57.9116 626.353 57.5134C623.029 57.0793 619.65 57.0647 616.322 57.4689C612.342 57.9527 606.41 59.6697 607.571 64.8796Z" fill="#263238"/>
<path d="M578.341 58.3686C575.322 58.3686 570.992 59.4243 570.42 60.9006C569.089 61.9816 567.345 60.9006 566.655 68.9836C567.344 72.3921 566.655 70.9313 567.628 73.6581C567.345 74.145 568.525 75.4099 567.628 75.5084C568.411 77.1894 568.91 78.5715 569.693 80.2525C569.897 80.6892 570.104 81.1328 570.42 81.4967C571.049 82.2237 572.016 82.5406 572.935 82.8266C574.296 83.2505 575.677 83.6778 577.101 83.7249C578.334 83.7651 579.557 83.5194 580.757 83.2299C582.008 82.9276 583.255 82.5757 584.421 82.0285C586.932 80.8519 588.947 78.8352 590.752 76.7303C592.524 74.664 594.165 72.4478 595.252 69.9524C596.34 67.4571 596.849 64.65 596.311 61.9816C596.195 61.4113 596.024 60.8316 595.653 60.3837C595.218 59.8562 594.561 59.5728 593.93 59.3082C592.274 58.6154 590.599 57.938 588.856 57.491C587.74 57.205 584.673 56.3606 583.739 57.2324C584.957 58.1341 578.093 56.8015 578.341 58.3686Z" fill="#263238"/>
<path d="M637.757 65.1434C637.296 63.2895 636.289 61.5023 634.797 60.2871C631.906 57.9322 627.275 57.2129 623.69 56.777C621.558 56.5176 619.39 56.461 617.253 56.6717C617.275 56.6409 617.293 56.6075 617.302 56.5681C616.861 56.2255 616.255 56.2118 615.698 56.2332C614.071 56.2958 612.457 56.5321 610.84 56.7248C604.806 57.4424 598.396 57.0433 592.34 56.5424C590.791 56.4139 589.669 56.2392 588.22 56.7993C585.739 56.4465 583.2 56.4739 580.711 56.777C577.125 57.2129 572.494 57.9331 569.603 60.2871C568.111 61.5023 567.104 63.2895 566.644 65.1434C565.954 67.924 566.323 70.8509 566.841 73.6683C567.177 75.4923 567.578 77.3171 568.298 79.0264C569.088 80.9026 570.342 82.6881 572.177 83.5684C572.959 83.9435 573.815 84.1396 574.673 84.2689C579.048 84.9274 583.663 83.8321 587.277 81.2768C589.659 79.5924 591.587 77.3248 593.148 74.8594C594.738 72.3478 595.97 70.1944 596.799 67.3394C597.041 67.0362 597.292 66.7408 597.558 66.4573C598.467 65.4914 599.555 65.0511 600.809 64.6204C602.162 64.1554 603.679 64.1828 605.015 64.6966C605.83 65.01 606.669 65.5188 607.282 66.1396C607.249 66.0061 607.313 66.2758 607.282 66.1396C608.096 69.4271 609.444 71.9984 611.255 74.8594C612.817 77.3248 614.745 79.5924 617.126 81.2768C620.74 83.8321 625.354 84.9274 629.73 84.2689C630.588 84.1396 631.443 83.9435 632.226 83.5684C634.061 82.6881 635.315 80.9026 636.106 79.0264C636.825 77.3171 637.226 75.4923 637.562 73.6683C638.078 70.8509 638.447 67.924 637.757 65.1434ZM591.99 74.1667C590.565 76.3615 588.805 78.3798 586.63 79.8793C583.33 82.1537 579.117 83.1291 575.122 82.5425C574.34 82.4277 573.558 82.2531 572.844 81.9191C571.169 81.1355 570.023 79.5462 569.302 77.8763C568.644 76.3546 568.279 74.7301 567.972 73.1065C567.499 70.5983 567.162 67.9925 567.793 65.5177C568.213 63.8666 569.132 62.2756 570.495 61.1932C573.134 59.0968 577.363 58.4563 580.637 58.0684C584.453 57.6162 588.396 57.8543 592.003 59.2236C593.524 59.8007 595.077 60.6853 595.675 62.1651C596.149 63.3374 595.929 64.6596 595.618 65.8833C594.875 68.8103 593.645 71.6191 591.99 74.1667ZM607.219 61.9633C607.028 62.4471 606.941 62.9532 606.923 63.4687C605.015 62.946 604.476 62.6106 602.646 62.7099C599.96 62.8557 598.791 63.4687 597.478 63.9132C597.502 63.2452 597.427 62.0015 597.182 61.379C596.527 59.7168 594.826 58.7226 593.161 58.0744C592.946 57.9905 592.73 57.9117 592.513 57.8355C592.811 57.856 593.11 57.8774 593.409 57.8954C595.323 58.011 597.241 58.0769 599.158 58.0949C602.952 58.13 606.748 57.975 610.527 57.6291C611.576 57.5332 612.623 57.4227 613.67 57.2968C612.849 57.5075 612.038 57.7652 611.243 58.0744C609.576 58.7235 607.874 60.3011 607.219 61.9633ZM636.427 73.1057C636.121 74.7293 635.755 76.3546 635.098 77.8755C634.376 79.5462 633.232 81.1347 631.555 81.9182C630.842 82.2522 630.06 82.4269 629.277 82.5416C625.282 83.1282 621.069 82.1529 617.77 79.8784C615.595 78.379 613.835 76.3606 612.409 74.1658C610.755 71.6182 609.524 68.8103 608.781 65.8833C608.471 64.6605 608.251 63.3374 608.725 62.1651C609.323 60.6853 610.877 59.8007 612.397 59.2236C616.003 57.8543 619.948 57.6154 623.764 58.0684C627.038 58.4572 631.266 59.0977 633.905 61.1932C635.267 62.2747 636.188 63.8658 636.608 65.5168C637.238 67.9916 636.901 70.5974 636.427 73.1057Z" fill="#101011"/>
<path d="M607.282 66.1396C606.669 65.5188 605.83 65.01 605.015 64.6966C603.679 64.1828 602.162 64.1554 600.809 64.6204C599.555 65.0511 598.467 65.4914 597.558 66.4573C597.292 66.7408 597.041 67.0362 596.799 67.3394C595.97 70.1944 594.738 72.3478 593.148 74.8594C591.587 77.3248 589.659 79.5924 587.277 81.2768C583.663 83.8321 579.048 84.9274 574.673 84.2689C573.815 84.1396 572.959 83.9435 572.177 83.5684C570.342 82.6881 569.088 80.9026 568.298 79.0264C567.578 77.3171 567.177 75.4923 566.841 73.6683C566.323 70.8509 565.954 67.924 566.644 65.1434C567.104 63.2895 568.111 61.5023 569.603 60.2871C572.494 57.9331 577.125 57.2129 580.711 56.777C583.2 56.4739 585.739 56.4465 588.22 56.7993C589.669 56.2392 590.791 56.4139 592.34 56.5424C598.396 57.0433 604.806 57.4424 610.84 56.7248C612.457 56.5321 614.071 56.2958 615.698 56.2332C616.255 56.2118 616.861 56.2255 617.302 56.5681C617.293 56.6075 617.275 56.6409 617.253 56.6717C619.39 56.461 621.558 56.5176 623.69 56.777C627.275 57.2129 631.906 57.9322 634.797 60.2871C636.289 61.5023 637.296 63.2895 637.757 65.1434C638.447 67.924 638.078 70.8509 637.562 73.6683C637.226 75.4923 636.825 77.3171 636.106 79.0264C635.315 80.9026 634.061 82.6881 632.226 83.5684C631.443 83.9435 630.588 84.1396 629.73 84.2689C625.354 84.9274 620.74 83.8321 617.126 81.2768C614.745 79.5924 612.817 77.3248 611.255 74.8594C609.444 71.9984 608.096 69.4271 607.282 66.1396ZM607.282 66.1396C607.313 66.2758 607.249 66.0061 607.282 66.1396ZM591.99 74.1667C590.565 76.3615 588.805 78.3798 586.63 79.8793C583.33 82.1537 579.117 83.1291 575.122 82.5425C574.34 82.4277 573.558 82.2531 572.844 81.9191C571.169 81.1355 570.023 79.5462 569.302 77.8763C568.644 76.3546 568.279 74.7301 567.972 73.1065C567.499 70.5983 567.162 67.9925 567.793 65.5177C568.213 63.8666 569.132 62.2756 570.495 61.1932C573.134 59.0968 577.363 58.4563 580.637 58.0684C584.453 57.6162 588.397 57.8543 592.003 59.2236C593.524 59.8007 595.077 60.6853 595.675 62.1651C596.149 63.3374 595.929 64.6596 595.618 65.8833C594.875 68.8103 593.645 71.6191 591.99 74.1667ZM607.219 61.9633C607.028 62.4471 606.941 62.9532 606.923 63.4687C605.015 62.946 604.476 62.6106 602.646 62.7099C599.96 62.8557 598.791 63.4687 597.478 63.9132C597.502 63.2452 597.427 62.0015 597.182 61.379C596.527 59.7168 594.826 58.7226 593.161 58.0744C592.946 57.9905 592.73 57.9117 592.513 57.8355C592.811 57.856 593.11 57.8774 593.409 57.8954C595.323 58.011 597.241 58.0769 599.158 58.0949C602.952 58.13 606.748 57.975 610.527 57.6291C611.576 57.5332 612.623 57.4227 613.67 57.2968C612.849 57.5075 612.038 57.7652 611.243 58.0744C609.576 58.7235 607.874 60.3011 607.219 61.9633ZM636.427 73.1057C636.121 74.7293 635.755 76.3546 635.098 77.8755C634.376 79.5462 633.232 81.1347 631.555 81.9182C630.842 82.2522 630.06 82.4269 629.277 82.5416C625.282 83.1282 621.069 82.1529 617.77 79.8784C615.595 78.379 613.835 76.3606 612.409 74.1658C610.755 71.6182 609.524 68.8103 608.781 65.8833C608.471 64.6605 608.251 63.3374 608.725 62.1651C609.323 60.6853 610.877 59.8007 612.397 59.2236C616.003 57.8543 619.948 57.6154 623.764 58.0684C627.038 58.4572 631.266 59.0977 633.905 61.1932C635.267 62.2747 636.188 63.8658 636.608 65.5168C637.238 67.9916 636.901 70.5974 636.427 73.1057Z" stroke="black" stroke-width="0.591523"/>
<path d="M553.509 33.3396L555.685 34.54V54.0705H553.775L553.509 33.3396Z" fill="black" stroke="black" stroke-width="0.896695"/>
<path d="M554.676 49.3481C550.353 49.3481 550.752 63.4437 550.752 63.4437C550.752 63.4437 550.452 64.8465 554.676 64.8465C558.899 64.8465 558.599 63.4437 558.599 63.4437C558.599 63.4437 558.999 49.3481 554.676 49.3481Z" fill="#F9C81E" stroke="black" stroke-width="2.09229"/>
<path d="M570.2 49.0834V44.9974C570.2 44.9974 552.79 33.1389 549.821 31.9832C546.852 30.8275 604.755 14.1833 604.755 14.1833C604.755 14.1833 657.085 33.1712 655.341 34.2095C653.597 35.2479 634.362 45.0872 634.362 45.0872L634.632 49.1299C634.103 49.1299 607.953 41.1887 570.2 49.0834Z" fill="#3C3C3B" stroke="black" stroke-width="2.09229"/>
<path d="M570.219 51.2079C570.219 51.2079 570.187 43.4247 571.119 40.4981C572.468 36.2574 590.562 31.0577 603.891 31.2581C616.127 31.442 632.321 36.4078 633.671 41.5579C634.571 44.9898 634.811 51.3759 634.811 51.3759C634.811 51.3759 609.37 43.2245 570.219 51.2079Z" fill="#323232" stroke="black" stroke-width="2.09229"/>
<path d="M857.877 41.0867L861.896 97.698C861.896 97.698 863.741 114.214 825.283 114.214C788.336 114.214 790.228 98.7246 790.228 98.7246L794.13 50.9543L794.735 40.5945C794.965 35.9419 796.41 33.5159 799.897 32.83L804.826 32.83L848.732 32.8999C854.661 32.8999 857.502 36.4655 857.877 41.0867Z" fill="#A6CBD9" stroke="black" stroke-width="2.083" stroke-miterlimit="10"/>
<path d="M852.127 82.7249C856.17 88.2875 856.173 97.3154 856.173 97.3154C856.173 97.3154 857.907 113.527 825.122 112.937C795.909 113.379 795.765 97.9049 795.765 97.9049C795.187 94.6626 796.499 88.9796 799.956 83.6093C807.231 72.3061 814.505 68.2905 827.125 67.9878C838.88 67.7059 845.031 72.9636 852.127 82.7249Z" fill="#F4F4F4"/>
<path d="M791.212 91.9542C791.212 91.9542 790.922 91.269 791.657 90.5111C797.296 94.01 801.588 90.1718 801.474 91.269C801.474 91.269 800.293 94.1751 795.558 93.8611C793.053 93.5874 791.94 93.8363 791.212 91.9542Z" fill="black"/>
<path d="M861.21 91.7766C861.21 91.7766 862.273 90.5131 860.475 90.511C854.836 94.0098 850.544 90.1716 850.658 91.2688C850.658 91.2688 851.839 94.1749 856.575 93.8609C859.079 93.5873 860.482 93.6587 861.21 91.7766Z" fill="black"/>
<path d="M790.475 96.8106C790.475 96.8106 790.476 96.2154 791.211 95.2826C795.991 98.5066 801.247 95.1177 801.134 96.2149C801.134 96.2149 799.323 98.9341 795.122 98.6555C792.514 98.4826 791.211 98.0595 790.475 96.8106Z" fill="black"/>
<path d="M861.657 96.7617C861.657 96.7617 861.657 95.6576 860.921 95.2336C856.14 98.4576 850.884 95.0688 850.998 96.166C850.998 96.166 852.808 98.8852 857.01 98.6065C859.617 98.4336 860.921 98.0106 861.657 96.7617Z" fill="black"/>
<path d="M789.335 32.83H800.749C800.374 47.8518 794.383 46.947 794.383 46.947C794.383 45.2605 794.189 45.0073 792.821 43.9362L789.808 42.1029C789.565 41.9585 789.578 41.6141 789.827 41.4825L794.189 39.1782L794.856 38.8465C795.57 38.4236 795.455 37.9399 795.037 37.588C795.031 37.5854 795.029 37.5804 795.024 37.5778C793.235 36.1092 789.084 33.4554 789.084 33.4554C788.833 33.2326 788.995 32.83 789.335 32.83Z" fill="#A6CBD9"/>
<path d="M803.751 32.83H796.543H789.335C788.995 32.83 788.833 33.2326 789.084 33.4554C789.084 33.4554 793.235 36.1092 795.024 37.5778C795.029 37.5804 795.031 37.5854 795.037 37.588C795.455 37.9399 795.57 38.4236 794.856 38.8465L794.189 39.1782L789.827 41.4825C789.578 41.6141 789.565 41.9585 789.808 42.1029L792.821 43.9362C794.189 45.0073 794.383 45.2605 794.383 46.947" stroke="black" stroke-width="2.0848" stroke-miterlimit="10"/>
<path d="M794.275 70.522C792.544 68.8521 791.202 66.7657 791.791 64.4449C791.831 64.2716 792.046 64.0304 792.148 63.9315C793.701 62.6665 796.181 62.3449 798.17 62.0291C801.022 61.5777 804.035 61.6126 806.904 61.9303C809.713 62.2364 812.526 62.8699 815.189 63.7397C816.393 64.133 818.782 64.9834 818.782 64.9834C819.51 65.2378 821.496 66.1468 821.612 67.4971C821.651 67.9465 821.69 68.1337 821.612 68.5773C821.511 69.1546 821.461 69.7926 820.704 71.9531C819.948 74.1135 818.29 75.5182 818.29 75.5182C816.309 77.5969 812.724 78.0367 809.844 77.8584C806.59 77.657 803.437 76.6128 800.667 75.0862C798.383 73.827 796.106 72.2888 794.275 70.522Z" fill="#333333" stroke="black" stroke-width="2.10046"/>
<path d="M858.041 70.522C859.772 68.8521 861.114 66.7657 860.525 64.4449C860.485 64.2716 860.27 64.0304 860.168 63.9315C858.615 62.6665 856.135 62.3449 854.146 62.0291C851.294 61.5777 848.281 61.6126 845.412 61.9303C842.603 62.2364 839.79 62.8699 837.128 63.7397C835.923 64.133 833.534 64.9834 833.534 64.9834C832.806 65.2378 830.82 66.1468 830.704 67.4971C830.665 67.9465 830.626 68.1337 830.704 68.5773C830.805 69.1546 830.855 69.7926 831.612 71.9531C832.368 74.1135 834.026 75.5182 834.026 75.5182C836.007 77.5969 839.592 78.0367 842.472 77.8584C845.726 77.657 848.879 76.6128 851.649 75.0862C853.933 73.827 856.211 72.2888 858.041 70.522Z" fill="#333333" stroke="black" stroke-width="2.10046"/>
<path d="M821.657 68.4424C823.308 69.5926 828.409 70.4828 830.809 68.4424" stroke="black" stroke-width="2.70059" stroke-linejoin="round"/>
<path d="M785.86 19.0145C783.689 21.2746 786.9 45.0672 792.636 49.1429C795.534 51.2017 797.094 45.1808 800.607 41.7425C804.122 38.3043 809.164 35.3871 809.785 33.3268C810.864 29.748 790.009 14.6941 785.86 19.0145Z" fill="black"/>
<path d="M788.794 22.1402C786.513 24.3751 792.092 41.7704 794.34 43.2979C796.589 44.8253 798.518 39.6998 800.879 38.162C804.442 35.8412 807.12 35.1426 806.962 32.4237C806.803 29.7048 791.108 19.8727 788.794 22.1402Z" fill="#FCC7C3"/>
<path d="M866.499 19.451C868.627 21.7511 864.072 45.0199 860.397 49.3222C857.461 51.3262 854.767 45.3997 851.32 41.8949C847.872 38.3916 842.885 35.3781 842.305 33.3075C841.295 29.708 862.431 15.0537 866.499 19.451Z" fill="black"/>
<path d="M863.505 22.5212C865.743 24.7991 859.833 42.0849 857.555 43.5694C855.279 45.0539 853.446 39.8929 851.117 38.3107C847.598 35.9233 844.934 35.1729 845.145 32.4584C845.355 29.7425 861.236 20.2108 863.505 22.5212Z" fill="#FCC7C3"/>
<path d="M857.528 39.1938C848.633 29.0898 826.247 29.0656 826.247 29.0656C826.247 29.0656 803.682 29.0898 794.785 39.1938C788.296 46.5641 794.785 52.943 794.785 52.943C794.785 52.943 794.586 49.3226 800.651 43.1361C811.773 33.961 840.543 34.1093 851.368 43.1361C857.526 49.288 858.72 52.943 858.72 52.943C858.72 52.943 864.018 46.5651 857.528 39.1938Z" fill="black"/>
<path d="M812.983 94.1368C814.18 95.5033 817.293 98.2361 820.167 98.2361C823.041 98.2361 825.299 96.5281 826.069 95.6741C826.838 96.5281 829.096 98.2361 831.97 98.2361C834.844 98.2361 837.957 95.5032 839.155 94.1368" stroke="black" stroke-width="2.20728" stroke-linecap="round" stroke-linejoin="round"/>
<path d="M518.882 37.1489L523.125 96.9507C523.125 96.9507 525.073 114.398 484.475 114.398C445.471 114.398 447.469 98.0352 447.469 98.0352L451.588 47.5726L452.227 36.6289C452.466 32.5407 454.922 29.543 457.764 28.5007C459.94 28.5005 461.867 28.4445 463.282 28.5008H509.228C514.283 28.5008 518.487 32.2672 518.882 37.1489Z" fill="#B1B1B1" stroke="black" stroke-width="2.19949" stroke-miterlimit="10"/>
<path d="M461.17 29.627C459.862 30.6876 459.392 43.8073 459.392 50.4487C458.01 52.1788 452.186 55.9944 451.993 56.9694C451.679 58.5612 450.573 71.3412 450.574 72.2962C450.574 72.8563 456.878 81.9035 456.878 83.1247C456.878 84.3459 456.74 102.113 456.878 103.181C457.016 104.25 463.132 111.819 465.833 112.414C469.604 113.244 491.756 115.279 505.581 111.777C507.056 111.403 513.059 104.25 513.75 103.181C514.441 102.113 513.594 82.9357 514.065 81.9806C514.704 80.6865 520.035 73.6809 520.035 72.4597C520.035 71.2384 519.564 59.5661 519.092 57.4968C518.701 55.7806 511.913 51.2888 511.913 50.4816C511.913 49.5351 511.991 29.9177 510.557 29.627C508.986 29.3086 499.304 29.3433 497.784 29.3433C496.264 29.3433 494.351 39.1302 493.013 39.6432C491.285 40.3054 481.161 39.6432 478.95 39.6432C476.739 39.6432 475.227 29.8917 473.659 29.627C471.774 29.3086 461.956 28.9903 461.17 29.627Z" fill="#E0E0E0"/>
<path d="M496.626 113.916C497.932 113.665 508.435 102.99 509.037 101.96C509.64 100.931 508.859 87.2678 509.823 86.3854L520.964 72.0125M472.746 113.444C470.39 112.871 461.397 102.99 461.277 101.96C461.156 100.931 461.12 86.3854 460.806 86.3854L449.808 72.3839" stroke="#B1B1B1" stroke-width="1.88528"/>
<path d="M518.882 37.149L523.125 96.9508C523.125 96.9508 525.073 114.398 484.474 114.398C445.471 114.398 447.469 98.0352 447.469 98.0352L451.588 47.5727L452.227 36.629C452.505 31.864 455.683 28.208 459.183 28.5007C460.792 28.5008 462.211 28.5005 463.282 28.5008H509.228C514.814 28.7755 518.487 32.2673 518.882 37.149Z" stroke="black" stroke-width="2.21009" stroke-miterlimit="10"/>
<path d="M446.521 28.3025H458.569C458.173 44.159 451.85 43.2038 451.85 43.2038C451.85 41.4237 451.645 41.1564 450.201 40.0258L447.021 38.0906C446.764 37.9382 446.778 37.5747 447.04 37.4357L451.645 35.0034L452.349 34.6533C453.103 34.2069 452.981 33.6964 452.54 33.3248C452.534 33.3222 452.531 33.3168 452.526 33.3142C450.638 31.7639 446.256 28.9627 446.256 28.9627C445.991 28.7275 446.162 28.3025 446.521 28.3025Z" fill="#B1B1B1"/>
<path d="M461.738 28.4917H454.129H446.521C446.162 28.4917 445.991 28.9167 446.256 29.1519C446.256 29.1519 450.638 31.9531 452.526 33.5034C452.531 33.506 452.534 33.5114 452.54 33.5141C452.981 33.8856 453.103 34.3961 452.349 34.8425L451.645 35.1926L447.04 37.625C446.778 37.7639 446.764 38.1275 447.021 38.2798L450.201 40.215C451.645 41.3456 451.85 41.6129 451.85 43.393" stroke="black" stroke-width="2.21009" stroke-miterlimit="10"/>
<path d="M450.78 64.2941H449.49C448.553 64.2941 447.791 63.5324 447.791 62.5964V60.0585C447.791 59.1225 448.553 58.3608 449.49 58.3608H450.78V64.2941Z" fill="#3A3A3A" stroke="black" stroke-width="1.43502"/>
<path d="M520.001 58.3653H521.291C522.229 58.3653 522.99 59.127 522.99 60.063V62.6009C522.99 63.5369 522.229 64.2986 521.291 64.2986H520.001V58.3653Z" fill="#3A3A3A" stroke="black" stroke-width="1.43502"/>
<path d="M486.17 63.7972L486.139 63.0804C485.646 63.102 485.159 63.0976 484.671 63.0634C484.212 63.0284 483.633 63.0856 483.029 63.3901C482.422 63.696 481.836 64.228 481.331 65.0696C480.583 66.3153 479.881 67.6154 479.189 68.8976C478.772 69.6709 478.358 70.4377 477.939 71.1822C477.773 71.4772 477.611 71.7748 477.448 72.0727C476.996 72.9019 476.542 73.7325 476.01 74.5101C475.295 75.5545 474.492 76.4129 473.489 76.92L473.489 76.9204C472.554 77.3941 471.447 77.566 470.242 77.5912C469.347 77.6099 468.451 77.5486 467.562 77.4877C467.243 77.4659 466.925 77.4442 466.608 77.4262L466.608 77.4261C464.37 77.3004 462.139 77.036 459.964 76.555C455.406 75.5415 452.033 71.6529 451.515 66.9927L451.515 66.9926L450.705 59.7155C450.705 59.7155 450.705 59.7154 450.705 59.7153C450.507 57.9299 451.919 56.3748 453.718 56.4004L453.719 56.4004L485.382 56.8325L485.391 56.8327L485.4 56.8326L517.059 56.4596L517.061 56.4596C518.861 56.4339 520.271 57.9897 520.07 59.7685L520.069 59.7701L519.264 67.0242C519.264 67.0243 519.264 67.0245 519.264 67.0246C518.741 71.7071 515.346 75.6093 510.765 76.6186C508.561 77.1038 506.302 77.3594 504.03 77.4852C503.744 77.5008 503.461 77.5183 503.181 77.5357C501.065 77.6669 499.112 77.7881 497.36 76.9416L497.359 76.9412C496.311 76.4366 495.507 75.6106 494.8 74.6009C494.264 73.8374 493.812 73.0139 493.349 72.1696C493.189 71.8783 493.028 71.5846 492.861 71.29L492.246 71.6375L492.861 71.29C492.422 70.5131 491.988 69.7086 491.549 68.8965C490.866 67.6319 490.173 66.3491 489.439 65.1246L489.438 65.1241C488.939 64.2933 488.361 63.7614 487.764 63.4476C487.169 63.1344 486.596 63.0597 486.138 63.0804L486.17 63.7972ZM486.17 63.7972C486.875 63.7653 487.94 64.0246 488.823 65.4937M486.17 63.7972C485.651 63.8199 485.137 63.8154 484.618 63.779C483.913 63.7244 482.838 63.9518 481.946 65.4391L488.823 65.4937M488.823 65.4937C489.553 66.7106 490.228 67.9608 490.903 69.2101C491.343 70.0246 491.782 70.8388 492.237 71.643C492.393 71.92 492.548 72.2026 492.705 72.4873C493.798 74.4796 494.949 76.5768 497.048 77.5876L488.823 65.4937Z" fill="url(#paint1_linear_344_293)" stroke="black" stroke-width="1.43502"/>
<mask id="path-57-inside-1_344_293" fill="white">
<path d="M485.819 56.257H484.958V63.432H485.819V56.257Z"/>
</mask>
<path d="M485.819 56.257H484.958V63.432H485.819V56.257Z" fill="#3A3A3A"/>
<path d="M484.958 56.257V53.4187H482.12V56.257H484.958ZM485.819 56.257H488.658V53.4187H485.819V56.257ZM485.819 63.432V66.2703H488.658V63.432H485.819ZM484.958 63.432H482.12V66.2703H484.958V63.432ZM484.958 59.0953H485.819V53.4187H484.958V59.0953ZM482.981 56.257V63.432H488.658V56.257H482.981ZM485.819 60.5937H484.958V66.2703H485.819V60.5937ZM487.797 63.432V56.257H482.12V63.432H487.797Z" fill="black" mask="url(#path-57-inside-1_344_293)"/>
<path d="M450.113 82.8033C450.774 82.7953 451.314 82.2593 451.318 81.6062C451.323 80.9531 450.79 80.4301 450.129 80.4382L450.113 82.8033ZM450.129 80.4382C449.951 80.4403 449.74 80.4844 449.683 80.4955C449.564 80.518 449.441 80.5424 449.291 80.5675C448.997 80.6166 448.624 80.6637 448.196 80.6659C447.347 80.6702 446.285 80.4981 445.218 79.7962L443.865 81.7732C445.411 82.7892 446.963 83.0373 448.163 83.0312C448.76 83.0282 449.27 82.9624 449.646 82.8995C449.831 82.8686 449.991 82.8371 450.093 82.8176C450.256 82.7865 450.204 82.8022 450.113 82.8033L450.129 80.4382ZM445.218 79.7962C444.38 79.2457 444.148 78.2841 444.497 77.4993C444.821 76.7725 445.84 75.8512 448.218 75.971L448.386 73.6087C445.327 73.4547 443.16 74.672 442.309 76.5815C441.485 78.4331 442.09 80.6058 443.865 81.7732L445.218 79.7962Z" fill="#F6A933"/>
<path d="M494.954 92.589C489.48 92.589 482.428 96.7647 475.405 94.3095C467.964 91.7081 475.405 103.225 485.654 103.225C499.889 103.225 500.838 92.589 494.954 92.589Z" fill="white" stroke="black" stroke-width="1.89924"/>
<path d="M191.876 38.822L195.666 92.213C195.666 92.213 197.407 107.79 161.136 107.79C126.29 107.79 128.075 93.1812 128.075 93.1812L131.755 48.1282L132.326 38.3578C132.542 33.9698 133.905 31.6818 137.194 31.035L141.843 31.0349L183.251 31.1009C188.842 31.1009 191.523 34.4636 191.876 38.822Z" fill="#A6CBD9" stroke="black" stroke-width="1.96451" stroke-miterlimit="10"/>
<path d="M186.453 78.0915C190.266 83.3376 190.269 91.8519 190.269 91.8519C190.269 91.8519 191.904 107.141 160.984 106.585C133.433 107.002 133.297 92.4079 133.297 92.4079C132.752 89.3501 133.99 83.9904 137.249 78.9256C144.111 68.2653 150.971 64.4781 162.873 64.1927C173.959 63.9268 179.761 68.8853 186.453 78.0915Z" fill="#F4F4F4"/>
<path d="M129.003 86.796C129.003 86.796 128.729 86.1498 129.423 85.435C134.741 88.7349 138.789 85.115 138.681 86.1498C138.681 86.1498 137.567 88.8906 133.101 88.5945C130.74 88.3364 129.689 88.5711 129.003 86.796Z" fill="black"/>
<path d="M195.019 86.6287C195.019 86.6287 196.021 85.4371 194.326 85.4351C189.008 88.7349 184.96 85.1151 185.067 86.1498C185.067 86.1498 186.181 88.8906 190.647 88.5945C193.009 88.3364 194.333 88.4037 195.019 86.6287Z" fill="black"/>
<path d="M128.308 91.3762C128.308 91.3762 128.309 90.8149 129.002 89.9351C133.511 92.9757 138.468 89.7796 138.36 90.8144C138.36 90.8144 136.653 93.3789 132.691 93.1162C130.232 92.9531 129.002 92.5541 128.308 91.3762Z" fill="black"/>
<path d="M195.44 91.3301C195.44 91.3301 195.441 90.2888 194.746 89.8889C190.238 92.9296 185.28 89.7335 185.388 90.7683C185.388 90.7683 187.095 93.3328 191.057 93.07C193.517 92.9069 194.746 92.5079 195.44 91.3301Z" fill="black"/>
<path d="M127.232 31.0349H137.997C137.643 45.2023 131.993 44.3489 131.993 44.3489C131.993 42.7584 131.811 42.5196 130.52 41.5094L127.679 39.7803C127.449 39.6442 127.462 39.3194 127.696 39.1952L131.811 37.022L132.44 36.7092C133.113 36.3103 133.004 35.8542 132.61 35.5223C132.605 35.5199 132.602 35.5151 132.597 35.5127C130.91 34.1276 126.995 31.6248 126.995 31.6248C126.759 31.4146 126.912 31.0349 127.232 31.0349Z" fill="#A6CBD9"/>
<path d="M140.828 31.0349H134.03H127.232C126.912 31.0349 126.759 31.4146 126.995 31.6248C126.995 31.6248 130.91 34.1276 132.597 35.5127C132.602 35.5151 132.605 35.5199 132.61 35.5223C133.004 35.8542 133.113 36.3103 132.44 36.7092L131.811 37.022L127.696 39.1952C127.462 39.3194 127.449 39.6442 127.679 39.7803L130.52 41.5094C131.811 42.5196 131.993 42.7584 131.993 44.3489" stroke="black" stroke-width="1.96621" stroke-miterlimit="10"/>
<path d="M190.619 42.3564L183.673 34.0123C207.57 44.3357 202.298 49.5104 202.298 85.8414L196.572 103.734L161.269 111.216V109.289L160.997 111.216L142.688 104.559L128.431 98.3667L120.659 85.8414C122.866 58.3179 116.77 32.937 151.921 32.4458C147.576 33.5933 139.462 36.9298 136.964 37.5903C134.466 38.2509 134.384 40.3427 133.635 44.7464L128.882 93.8758C128.976 92.9125 129.626 95.0914 130.06 95.752C130.604 96.5777 136.77 99.5037 142.688 102.495C148.777 105.573 158.87 109.335 161.269 109.289L176.069 103.234L195.371 94.9262L190.619 42.3564Z" fill="#D9D9D9"/>
<path d="M158.44 32.4458H151.921M151.921 32.4458C116.77 32.937 122.866 58.3179 120.659 85.8413L128.431 98.3667L142.688 104.559L160.997 111.216L161.269 109.289M151.921 32.4458C147.576 33.5933 139.462 36.9298 136.964 37.5903C134.466 38.2509 134.384 40.3427 133.635 44.7464L128.882 93.8758C128.976 92.9125 129.626 95.0914 130.06 95.752C130.604 96.5777 136.77 99.5037 142.688 102.495C148.777 105.573 158.87 109.335 161.269 109.289M161.269 109.289L176.069 103.234L195.371 94.9262L190.619 42.3564L183.673 34.0123C207.57 44.3357 202.297 49.5104 202.297 85.8413L196.572 103.734L161.269 111.216V109.289Z" stroke="black" stroke-width="1.66968"/>
<path d="M162.377 12.3561C173.351 12.1319 181.682 11.6015 192.52 21.714C203.358 31.8265 211.206 79.2112 210.714 86.1189C210.076 95.0641 206.097 102.896 199.037 105.385C194.04 107.147 163.662 114.47 162.104 111.991C160.202 108.963 189.189 98.6495 193.741 94.9265C201.48 88.5961 198.088 70.1536 197.002 61.6213C196.116 54.6619 191.163 38.9145 181.794 35.3364C176.112 33.1663 149.207 31.896 140.109 37.4007C130.968 42.932 125.676 56.4325 124.764 68.3663C123.135 89.697 129.651 94.7525 133.047 97.2659C138.75 101.486 160.746 109.239 160.746 111.303C160.746 114.887 143.187 111.255 136.307 110.613C117.624 108.191 112.976 93.6879 113.359 88.0456C113.359 61.6213 121.394 32.7898 132.232 22.6773C143.061 12.5648 150.353 12.6017 162.377 12.3561Z" fill="white" stroke="black" stroke-width="1.94796"/>
<path d="M136.389 56.3363L131.536 60.3073V62.9547L132.418 70.4557L134.918 75.7504L140.066 77.0741H148.891L154.48 74.1326L158.01 66.7787L158.892 59.4249L156.686 56.3363L149.626 55.0126H141.978L136.389 56.3363Z" fill="#E84D4D" stroke="black" stroke-width="0.280602"/>
<path d="M188.012 56.4838L192.865 60.4549V63.1023L191.983 70.6032L189.483 75.898L184.335 77.2217H175.51L169.921 74.2802L166.392 66.9263L165.509 59.5725L167.715 56.4838L174.775 55.1602H182.423L188.012 56.4838Z" fill="#E84D4D" stroke="black" stroke-width="0.280602"/>
<path d="M193.781 55.5369C191.347 55.0818 188.899 54.6268 186.438 54.3235C180.704 53.6065 174.97 53.4686 169.263 54.6544C164.698 55.6058 160.119 55.6334 155.526 54.7509C152.309 54.1167 149.064 53.6892 145.777 53.6892C143.33 53.8685 140.868 53.9374 138.434 54.2545C135.574 54.6268 132.742 55.1922 129.895 55.6747C129.345 55.7713 129.029 56.047 129.001 56.6399C128.919 58.7082 128.795 60.7765 128.74 62.8585C128.74 63.217 128.946 63.741 129.235 63.9065C129.785 64.2512 129.868 64.7338 130.019 65.2577C130.872 68.0706 131.655 70.9248 132.659 73.6825C133.567 76.192 135.629 77.5571 138.146 77.9707C142.161 78.6188 146.19 78.536 150.15 77.4743C152.474 76.8538 154.358 75.668 155.636 73.517C156.956 71.2971 158.057 68.9806 158.813 66.5263C159.39 64.6786 159.885 62.8034 160.422 60.9419C160.655 60.1146 161.315 60.0043 162.03 59.9905C162.787 59.9905 163.543 60.0043 163.832 60.9144C164.093 61.7417 164.354 62.5828 164.561 63.4239C165.427 66.8296 166.596 70.0975 168.383 73.1447C169.772 75.5301 171.78 76.8952 174.392 77.5571C177.83 78.4257 181.309 78.4671 184.801 78.1775C188.143 77.9018 190.728 76.4126 191.869 73.1172C192.804 70.4146 193.533 67.6294 194.358 64.8992C194.441 64.6097 194.661 64.3615 194.812 64.0857C195.059 63.6307 195.499 63.1757 195.513 62.7207C195.541 60.9144 195.486 59.1081 195.376 57.3156C195.279 55.854 195.224 55.7988 193.781 55.5369ZM157.96 62.1967C157.699 64.6648 156.984 67.0089 155.953 69.2564C155.471 70.2905 154.894 71.2833 154.316 72.2761C153.148 74.2754 151.387 75.4198 149.132 75.9438C145.42 76.7849 141.721 76.6884 138.022 75.9162C136.633 75.6267 135.602 74.8269 134.928 73.5722C132.687 69.3943 132.247 64.9682 133.237 60.3766C133.47 59.3149 134.282 58.7496 135.176 58.2946C137.183 57.2742 139.369 56.9433 141.57 56.7089C142.931 56.571 144.292 56.5434 145.653 56.4607C145.64 56.5158 145.667 56.4055 145.653 56.4607C147.419 56.4607 150.865 56.9571 153.436 57.3707C154.248 57.5086 155.059 57.8671 155.815 58.2256C157.617 59.0943 158.167 60.1974 157.96 62.1967ZM189.793 72.7035C188.927 74.6201 187.565 75.8335 185.434 76.0817C184.004 76.2471 182.56 76.4126 181.13 76.5781C178.682 76.5643 176.276 76.3437 173.938 75.5715C172.605 75.1303 171.491 74.3857 170.652 73.255C168.149 69.8631 166.692 66.0437 166.307 61.852C166.128 59.9078 167.036 58.6944 168.865 57.9498C171.587 56.8468 174.447 56.571 177.335 56.4883C180.278 56.4193 183.234 56.4745 186.08 57.2466C187.4 57.6051 188.707 58.1429 189.903 58.8047C191.072 59.4528 191.141 60.7765 191.306 61.9761C191.814 65.699 191.333 69.2702 189.793 72.7035Z" fill="black"/>
<mask id="path-75-outside-2_344_293" maskUnits="userSpaceOnUse" x="120.198" y="76.402" width="13.2212" height="17.4364" fill="black">
<rect fill="white" x="120.198" y="76.402" width="13.2212" height="17.4364"/>
<path fill-rule="evenodd" clip-rule="evenodd" d="M125.29 90.0193C125.218 90.4597 125.517 90.875 125.957 90.9469C126.398 91.0187 126.813 90.72 126.885 90.2796L127.371 87.2989L129.643 87.6707C130.083 87.7427 130.498 87.4442 130.571 87.0038C130.643 86.5634 130.344 86.148 129.904 86.0759L127.631 85.7041L128.539 80.14C128.611 79.6995 128.313 79.2843 127.872 79.2124C127.432 79.1405 127.016 79.4393 126.945 79.8797L126.037 85.4431L124.099 85.126C123.658 85.0539 123.243 85.3525 123.171 85.7929C123.099 86.2332 123.397 86.6486 123.838 86.7207L125.776 87.038L125.29 90.0193Z"/>
</mask>
<path fill-rule="evenodd" clip-rule="evenodd" d="M125.29 90.0193C125.218 90.4597 125.517 90.875 125.957 90.9469C126.398 91.0187 126.813 90.72 126.885 90.2796L127.371 87.2989L129.643 87.6707C130.083 87.7427 130.498 87.4442 130.571 87.0038C130.643 86.5634 130.344 86.148 129.904 86.0759L127.631 85.7041L128.539 80.14C128.611 79.6995 128.313 79.2843 127.872 79.2124C127.432 79.1405 127.016 79.4393 126.945 79.8797L126.037 85.4431L124.099 85.126C123.658 85.0539 123.243 85.3525 123.171 85.7929C123.099 86.2332 123.397 86.6486 123.838 86.7207L125.776 87.038L125.29 90.0193Z" fill="#D1D1D1"/>
<path d="M125.29 90.0193L126.459 90.2101L125.29 90.0193ZM126.885 90.2796L128.054 90.4704L128.054 90.4704L126.885 90.2796ZM127.371 87.2989L127.562 86.13L126.393 85.9386L126.202 87.1082L127.371 87.2989ZM129.643 87.6707L129.451 88.8396L129.451 88.8396L129.643 87.6707ZM130.571 87.0038L129.402 86.8125L130.571 87.0038ZM129.904 86.0759L130.095 84.907L130.095 84.907L129.904 86.0759ZM127.631 85.7041L126.462 85.5133L126.272 86.6818L127.44 86.873L127.631 85.7041ZM128.539 80.14L129.708 80.3307L129.708 80.3307L128.539 80.14ZM127.872 79.2124L128.063 78.0434L128.063 78.0434L127.872 79.2124ZM126.945 79.8797L128.114 80.0705L128.114 80.0705L126.945 79.8797ZM126.037 85.4431L125.845 86.6121L127.015 86.8034L127.206 85.6339L126.037 85.4431ZM124.099 85.126L124.29 83.957L124.29 83.957L124.099 85.126ZM123.171 85.7929L122.002 85.6016L123.171 85.7929ZM123.838 86.7207L124.029 85.5518L124.029 85.5518L123.838 86.7207ZM125.776 87.038L126.945 87.2287L127.136 86.0602L125.968 85.869L125.776 87.038ZM126.148 89.7779C126.353 89.8113 126.492 90.0049 126.459 90.2101L124.121 89.8285C123.944 90.9146 124.68 91.9387 125.766 92.1159L126.148 89.7779ZM125.716 90.0888C125.749 89.8836 125.943 89.7444 126.148 89.7779L125.766 92.1159C126.852 92.2931 127.877 91.5564 128.054 90.4704L125.716 90.0888ZM126.202 87.1082L125.716 90.0888L128.054 90.4704L128.54 87.4897L126.202 87.1082ZM129.834 86.5017L127.562 86.13L127.18 88.4679L129.451 88.8396L129.834 86.5017ZM129.402 86.8125C129.435 86.6073 129.629 86.4682 129.834 86.5017L129.451 88.8396C130.537 89.0173 131.562 88.281 131.739 87.1951L129.402 86.8125ZM129.712 87.2449C129.507 87.2113 129.368 87.0177 129.402 86.8125L131.739 87.1951C131.917 86.1091 131.181 85.0847 130.095 84.907L129.712 87.2449ZM127.44 86.873L129.712 87.2449L130.095 84.907L127.823 84.5352L127.44 86.873ZM127.37 79.9492L126.462 85.5133L128.8 85.8949L129.708 80.3307L127.37 79.9492ZM127.681 80.3814C127.476 80.3479 127.337 80.1544 127.37 79.9492L129.708 80.3307C129.886 79.2447 129.149 78.2206 128.063 78.0434L127.681 80.3814ZM128.114 80.0705C128.08 80.2757 127.887 80.4149 127.681 80.3814L128.063 78.0434C126.977 77.8661 125.953 78.6029 125.776 79.6889L128.114 80.0705ZM127.206 85.6339L128.114 80.0705L125.776 79.6889L124.868 85.2523L127.206 85.6339ZM123.907 86.2949L125.845 86.6121L126.228 84.2742L124.29 83.957L123.907 86.2949ZM124.34 85.9842C124.306 86.1894 124.113 86.3285 123.907 86.2949L124.29 83.957C123.204 83.7793 122.18 84.5156 122.002 85.6016L124.34 85.9842ZM124.029 85.5518C124.234 85.5854 124.373 85.7789 124.34 85.9842L122.002 85.6016C121.824 86.6875 122.561 87.7119 123.647 87.8896L124.029 85.5518ZM125.968 85.869L124.029 85.5518L123.647 87.8896L125.585 88.2069L125.968 85.869ZM126.459 90.2101L126.945 87.2287L124.607 86.8472L124.121 89.8285L126.459 90.2101Z" fill="black" mask="url(#path-75-outside-2_344_293)"/>
<path d="M129.985 74.6727C130.345 74.4556 130.46 73.988 130.243 73.6283C130.026 73.2685 129.559 73.1528 129.199 73.3699L129.985 74.6727ZM126.482 78.9068L125.888 79.3821L126.482 78.9068ZM132.484 77.0439C132.682 76.6732 132.542 76.2123 132.171 76.0145C131.801 75.8167 131.34 75.9569 131.142 76.3276L132.484 77.0439ZM129.592 74.0213C129.199 73.3699 129.199 73.37 129.198 73.3701C129.198 73.3701 129.198 73.3703 129.198 73.3704C129.198 73.3706 129.197 73.3708 129.197 73.3711C129.196 73.3717 129.195 73.3725 129.193 73.3734C129.19 73.3753 129.186 73.3779 129.18 73.3811C129.17 73.3876 129.155 73.3968 129.136 73.4086C129.098 73.4323 129.044 73.4664 128.977 73.5101C128.843 73.5973 128.655 73.7232 128.435 73.8806C127.998 74.1931 127.423 74.6395 126.894 75.1615C126.376 75.6729 125.847 76.3101 125.574 77.0111C125.285 77.7525 125.273 78.6134 125.888 79.3821L127.076 78.4316C126.879 78.1854 126.85 77.9283 126.992 77.5633C127.15 77.158 127.5 76.7007 127.963 76.2444C128.414 75.7987 128.92 75.4042 129.32 75.1179C129.519 74.9758 129.688 74.8627 129.806 74.7859C129.865 74.7475 129.911 74.7182 129.942 74.6991C129.958 74.6895 129.969 74.6824 129.976 74.678C129.98 74.6757 129.982 74.6742 129.984 74.6733C129.985 74.6729 129.985 74.6726 129.985 74.6725C129.985 74.6724 129.985 74.6724 129.985 74.6725C129.985 74.6725 129.985 74.6725 129.985 74.6725C129.985 74.6726 129.985 74.6727 129.592 74.0213ZM125.888 79.3821C126.633 80.3133 127.512 80.7225 128.441 80.6283C129.3 80.5412 130.04 80.0355 130.597 79.521C131.167 78.9938 131.638 78.3721 131.96 77.8966C132.123 77.656 132.252 77.4466 132.341 77.296C132.386 77.2206 132.42 77.1597 132.445 77.1165C132.457 77.095 132.466 77.0779 132.473 77.0656C132.476 77.0595 132.479 77.0546 132.481 77.0509C132.482 77.0491 132.482 77.0476 132.483 77.0464C132.483 77.0458 132.484 77.0453 132.484 77.0449C132.484 77.0447 132.484 77.0444 132.484 77.0443C132.484 77.0441 132.484 77.0439 131.813 76.6857C131.142 76.3276 131.142 76.3274 131.142 76.3273C131.142 76.3272 131.142 76.3271 131.142 76.327C131.142 76.3269 131.142 76.3269 131.142 76.327C131.142 76.3271 131.142 76.3275 131.142 76.3282C131.141 76.3297 131.139 76.3324 131.137 76.3362C131.133 76.3439 131.126 76.3564 131.117 76.3731C131.098 76.4066 131.069 76.4571 131.031 76.5213C130.955 76.6501 130.843 76.8328 130.7 77.0434C130.411 77.4701 130.015 77.9867 129.564 78.4033C129.099 78.8327 128.661 79.0766 128.288 79.1145C127.984 79.1453 127.575 79.0549 127.076 78.4316L125.888 79.3821Z" fill="black"/>
<path d="M170.506 88.3042C165.615 88.3042 159.314 92.0351 153.04 89.8414C146.391 87.5171 153.04 97.807 162.197 97.807C174.915 97.807 175.763 88.3042 170.506 88.3042Z" fill="white" stroke="black" stroke-width="1.69692"/>
<path d="M412.081 36.9603L416.324 96.766C416.324 96.766 418.272 114.214 377.672 114.214C338.666 114.214 340.664 97.8505 340.664 97.8505L344.783 47.3847L345.422 36.4403C345.653 32.489 347.66 29.392 350.392 28.3115C352.268 28.3113 354.681 28.3115 356.062 28.3116L356.478 28.3116H402.427C408.297 28.3116 411.686 32.0783 412.081 36.9603Z" fill="#D7AA7B" stroke="black" stroke-width="2.21063" stroke-miterlimit="10"/>
<path d="M408.879 60.6669C408.879 51.3084 400.939 43.7211 391.146 43.7211C386.572 43.7165 382.173 45.4133 378.869 48.4569C375.566 45.4133 371.167 43.7165 366.593 43.7211C356.8 43.7211 348.86 51.3084 348.86 60.6669C348.86 66.3435 351.791 71.3536 356.275 74.429C354.977 77.5102 354.312 80.8044 354.317 84.1292C354.317 97.8071 355.783 107.283 378.705 107.283C402.155 107.283 403.422 97.8071 403.422 84.1292C403.422 80.6856 402.722 77.4081 401.464 74.429C405.948 71.3536 408.879 66.3411 408.879 60.6669Z" fill="#F2D0A9"/>
<path d="M339.716 28.3025H351.765C351.369 44.16 345.044 43.2048 345.044 43.2048C345.044 41.4245 344.84 41.1572 343.396 40.0265L340.215 38.0912C339.959 37.9389 339.972 37.5753 340.235 37.4363L344.84 35.0038L345.544 34.6537C346.298 34.2073 346.176 33.6967 345.735 33.3252C345.729 33.3225 345.726 33.3171 345.721 33.3145C343.832 31.7641 339.451 28.9627 339.451 28.9627C339.186 28.7275 339.357 28.3025 339.716 28.3025Z" fill="#D7AA7A"/>
<path d="M354.933 28.3025H347.325H339.716C339.357 28.3025 339.186 28.7275 339.451 28.9627C339.451 28.9627 343.832 31.7641 345.721 33.3145C345.726 33.3171 345.729 33.3225 345.735 33.3252C346.176 33.6967 346.298 34.2073 345.544 34.6537L344.84 35.0038L340.235 37.4363C339.972 37.5753 339.959 37.9389 340.215 38.0912L343.396 40.0265C344.84 41.1572 345.044 41.4245 345.044 43.2048" stroke="black" stroke-width="2.21023" stroke-miterlimit="10"/>
<path d="M388.152 92.4037C382.677 92.4037 375.624 96.5796 368.602 94.1243C361.16 91.5227 368.602 103.04 378.851 103.04C393.087 103.04 394.036 92.4037 388.152 92.4037Z" fill="white" stroke="black" stroke-width="1.89936"/>
<path d="M384.149 62.3938C384.572 64.2896 385.683 65.9446 386.547 67.6843C387.171 68.9425 387.671 70.261 388.352 71.4885C389.006 72.6664 389.821 73.7487 390.689 74.7786C393.769 78.4349 397.846 81.6096 402.599 82.1101C403.817 82.2382 405.047 82.1877 406.266 82.0786C407.288 81.9875 408.318 81.8531 409.276 81.486C411.313 80.705 412.843 78.9255 413.78 76.9549C414.718 74.9843 415.135 72.8125 415.532 70.666C415.941 68.4482 416.336 66.1619 415.871 63.9559C415.694 63.1162 415.394 62.3054 415.031 61.528C414.461 60.3095 413.725 59.1587 412.77 58.2126C410.47 55.9354 407.14 55.0551 403.93 54.6357C400.429 54.1785 396.87 54.1631 393.365 54.5888C389.174 55.0984 382.926 56.9067 384.149 62.3938Z" fill="#263238"/>
<path d="M353.364 55.5368C350.184 55.5368 345.625 56.6487 345.021 58.2035C343.62 59.342 341.783 58.2035 341.056 66.7165C341.782 70.3063 341.057 68.7678 342.082 71.6396C341.783 72.1525 343.026 73.4847 342.082 73.5884C342.906 75.3588 343.432 76.8144 344.256 78.5848C344.47 79.0448 344.689 79.512 345.021 79.8953C345.684 80.661 346.703 80.9947 347.67 81.2959C349.104 81.7424 350.558 82.1924 352.058 82.242C353.357 82.2844 354.645 82.0256 355.908 81.7207C357.227 81.4023 358.539 81.0317 359.767 80.4554C362.412 79.2162 364.534 77.0922 366.436 74.8753C368.302 72.6991 370.03 70.365 371.175 67.7369C372.321 65.1087 372.857 62.1523 372.29 59.342C372.168 58.7414 371.988 58.1308 371.597 57.6591C371.139 57.1035 370.447 56.805 369.782 56.5263C368.038 55.7967 366.274 55.0833 364.439 54.6125C363.263 54.3113 360.033 53.422 359.05 54.3401C360.332 55.2898 353.103 53.8863 353.364 55.5368Z" fill="#263238"/>
<path d="M415.941 62.6719C415.456 60.7193 414.395 58.837 412.824 57.5572C409.779 55.077 404.902 54.3194 401.126 53.8604C398.881 53.5871 396.597 53.5276 394.346 53.7494C394.37 53.717 394.389 53.6818 394.398 53.6403C393.933 53.2795 393.295 53.2651 392.708 53.2877C390.995 53.3535 389.296 53.6024 387.592 53.8054C381.237 54.5611 374.486 54.1409 368.108 53.6132C366.477 53.478 365.295 53.294 363.769 53.8838C361.156 53.5122 358.482 53.5411 355.86 53.8604C352.084 54.3194 347.206 55.0779 344.162 57.5572C342.59 58.837 341.53 60.7193 341.045 62.6719C340.318 65.6003 340.707 68.683 341.253 71.6502C341.606 73.5713 342.028 75.4932 342.787 77.2934C343.619 79.2694 344.94 81.1499 346.873 82.077C347.696 82.4721 348.597 82.6786 349.501 82.8148C354.109 83.5083 358.97 82.3548 362.775 79.6636C365.285 77.8895 367.315 75.5013 368.959 72.9048C370.634 70.2595 371.931 67.9915 372.804 64.9846C373.059 64.6654 373.323 64.3542 373.604 64.0557C374.561 63.0383 375.706 62.5747 377.027 62.121C378.453 61.6313 380.05 61.6602 381.457 62.2013C382.315 62.5314 383.199 63.0672 383.845 63.7211C383.81 63.5804 383.878 63.8645 383.845 63.7211C384.703 67.1834 386.122 69.8915 388.03 72.9048C389.674 75.5013 391.705 77.8895 394.213 79.6636C398.019 82.3548 402.878 83.5083 407.487 82.8148C408.391 82.6786 409.292 82.4721 410.116 82.077C412.049 81.1499 413.369 79.2694 414.202 77.2934C414.96 75.4932 415.382 73.5713 415.735 71.6502C416.279 68.683 416.668 65.6003 415.941 62.6719ZM367.74 72.1751C366.239 74.4867 364.385 76.6124 362.094 78.1917C358.619 80.5871 354.181 81.6144 349.974 80.9966C349.15 80.8757 348.327 80.6917 347.575 80.34C345.811 79.5147 344.604 77.8408 343.844 76.0821C343.152 74.4795 342.767 72.7686 342.444 71.0586C341.945 68.4169 341.59 65.6725 342.255 63.066C342.697 61.3271 343.666 59.6514 345.101 58.5114C347.881 56.3036 352.334 55.629 355.782 55.2204C359.801 54.7442 363.955 54.995 367.753 56.4371C369.354 57.045 370.991 57.9766 371.62 59.5351C372.12 60.7698 371.888 62.1623 371.561 63.4511C370.778 66.5338 369.483 69.492 367.74 72.1751ZM383.779 59.3225C383.578 59.8321 383.486 60.3651 383.467 60.9081C381.457 60.3575 380.89 60.0043 378.962 60.1089C376.133 60.2624 374.903 60.9081 373.519 61.3762C373.544 60.6727 373.466 59.3628 373.208 58.7071C372.518 56.9566 370.726 55.9095 368.972 55.2267C368.746 55.1384 368.519 55.0554 368.29 54.9751C368.604 54.9968 368.919 55.0193 369.234 55.0382C371.25 55.16 373.269 55.2294 375.289 55.2484C379.285 55.2854 383.283 55.1221 387.262 54.7578C388.367 54.6567 389.47 54.5404 390.572 54.4078C389.708 54.6297 388.854 54.9012 388.016 55.2267C386.261 55.9104 384.468 57.572 383.779 59.3225ZM414.541 71.0577C414.218 72.7677 413.833 74.4795 413.141 76.0812C412.381 77.8408 411.175 79.5138 409.41 80.3391C408.658 80.6908 407.835 80.8748 407.011 80.9957C402.803 81.6134 398.365 80.5862 394.891 78.1908C392.6 76.6115 390.746 74.4858 389.245 72.1742C387.502 69.4911 386.207 66.5338 385.424 63.4511C385.097 62.1632 384.866 60.7698 385.365 59.5351C385.995 57.9766 387.631 57.045 389.232 56.4371C393.03 54.995 397.185 54.7433 401.203 55.2204C404.652 55.6299 409.105 56.3045 411.885 58.5114C413.319 59.6505 414.288 61.3262 414.731 63.0651C415.395 65.6716 415.039 68.416 414.541 71.0577Z" fill="#101011"/>
<path d="M383.845 63.7211C383.199 63.0672 382.315 62.5314 381.457 62.2013C380.05 61.6602 378.453 61.6313 377.027 62.121C375.706 62.5747 374.561 63.0383 373.604 64.0557C373.323 64.3542 373.059 64.6654 372.804 64.9846C371.931 67.9915 370.634 70.2595 368.959 72.9048C367.315 75.5013 365.285 77.8895 362.775 79.6636C358.97 82.3548 354.109 83.5083 349.501 82.8148C348.597 82.6786 347.696 82.4721 346.873 82.077C344.94 81.1499 343.619 79.2694 342.787 77.2934C342.028 75.4932 341.606 73.5713 341.253 71.6502C340.707 68.683 340.318 65.6003 341.045 62.6719C341.53 60.7193 342.59 58.837 344.162 57.5572C347.206 55.0779 352.084 54.3194 355.86 53.8604C358.482 53.5411 361.156 53.5122 363.769 53.8838C365.295 53.294 366.477 53.478 368.108 53.6132C374.486 54.1409 381.237 54.5611 387.592 53.8054C389.296 53.6024 390.995 53.3535 392.708 53.2877C393.295 53.2651 393.933 53.2795 394.398 53.6403C394.389 53.6818 394.37 53.717 394.346 53.7494C396.597 53.5276 398.881 53.5871 401.126 53.8604C404.902 54.3194 409.779 55.077 412.824 57.5572C414.395 58.837 415.456 60.7193 415.941 62.6719C416.668 65.6003 416.279 68.683 415.735 71.6502C415.382 73.5713 414.96 75.4932 414.202 77.2934C413.369 79.2694 412.049 81.1499 410.116 82.077C409.292 82.4721 408.391 82.6786 407.487 82.8148C402.878 83.5083 398.019 82.3548 394.213 79.6636C391.705 77.8895 389.674 75.5013 388.03 72.9048C386.122 69.8915 384.703 67.1834 383.845 63.7211ZM383.845 63.7211C383.878 63.8645 383.81 63.5804 383.845 63.7211ZM367.74 72.1751C366.239 74.4867 364.385 76.6124 362.094 78.1917C358.619 80.5871 354.181 81.6144 349.974 80.9966C349.15 80.8757 348.327 80.6917 347.575 80.34C345.811 79.5147 344.604 77.8408 343.844 76.0821C343.152 74.4795 342.767 72.7686 342.444 71.0586C341.945 68.4169 341.59 65.6725 342.255 63.066C342.697 61.3271 343.666 59.6514 345.101 58.5114C347.881 56.3036 352.334 55.629 355.782 55.2204C359.801 54.7442 363.955 54.995 367.753 56.4371C369.354 57.045 370.991 57.9766 371.62 59.5351C372.12 60.7698 371.888 62.1623 371.561 63.4511C370.778 66.5338 369.483 69.492 367.74 72.1751ZM383.779 59.3225C383.578 59.8321 383.486 60.3651 383.467 60.9081C381.457 60.3575 380.89 60.0043 378.962 60.1089C376.133 60.2624 374.903 60.9081 373.519 61.3762C373.544 60.6727 373.466 59.3628 373.208 58.7071C372.518 56.9566 370.726 55.9095 368.972 55.2267C368.746 55.1384 368.519 55.0554 368.29 54.9751C368.604 54.9968 368.919 55.0193 369.234 55.0382C371.25 55.16 373.269 55.2294 375.289 55.2484C379.285 55.2854 383.283 55.1221 387.262 54.7578C388.367 54.6567 389.47 54.5404 390.572 54.4078C389.708 54.6297 388.854 54.9012 388.016 55.2267C386.261 55.9104 384.468 57.572 383.779 59.3225ZM414.541 71.0577C414.218 72.7677 413.833 74.4795 413.141 76.0812C412.381 77.8408 411.175 79.5138 409.41 80.3391C408.658 80.6908 407.835 80.8748 407.011 80.9957C402.803 81.6134 398.365 80.5862 394.891 78.1908C392.6 76.6115 390.746 74.4858 389.245 72.1742C387.502 69.4911 386.207 66.5338 385.424 63.4511C385.097 62.1632 384.866 60.7698 385.365 59.5351C385.995 57.9766 387.631 57.045 389.232 56.4371C393.03 54.995 397.185 54.7433 401.203 55.2204C404.652 55.6299 409.105 56.3045 411.885 58.5114C413.319 59.6505 414.288 61.3262 414.731 63.0651C415.395 65.6716 415.039 68.416 414.541 71.0577Z" stroke="black" stroke-width="0.622991"/>
<path d="M78.0799 35.6303L82.2457 94.3042C82.2457 94.3042 84.1583 111.422 44.2957 111.422C5.99918 111.422 7.96079 95.3682 7.96079 95.3682L12.0053 45.8574L12.6326 35.1202C12.9603 29.5121 12.9602 27.1453 18.9984 27.0813C21.4137 27.0558 21.6924 27.0812 23.4574 27.0811L68.601 27.1453C74.1784 27.1453 77.6917 30.8407 78.0799 35.6303Z" fill="#FFCC5A" stroke="black" stroke-width="2.21061" stroke-miterlimit="10"/>
<path d="M7.03006 27.073H18.8601C18.471 42.6422 12.262 41.7043 12.262 41.7043C12.262 39.9564 12.0614 39.694 10.6436 38.5839L7.52072 36.6837C7.26861 36.5342 7.28217 36.1772 7.5397 36.0408L12.0614 33.6525L12.7526 33.3087C13.4927 32.8704 13.3734 32.3691 12.9397 32.0043C12.9342 32.0017 12.9315 31.9965 12.9261 31.9938C11.0719 30.4717 6.76982 27.7212 6.76982 27.7212C6.50958 27.4903 6.67765 27.073 7.03006 27.073Z" fill="#FFCC5A"/>
<path d="M21.9711 27.073H7.03006C6.67765 27.073 6.50958 27.4903 6.76982 27.7212C6.76982 27.7212 11.0719 30.4717 12.9261 31.9938C12.9315 31.9965 12.9342 32.0017 12.9397 32.0043C13.3734 32.3691 13.4927 32.8704 12.7526 33.3087L12.0614 33.6525L7.5397 36.0408C7.28217 36.1772 7.26861 36.5342 7.52072 36.6837L10.6436 38.5839C12.0614 39.694 12.262 39.9564 12.262 41.7043" stroke="black" stroke-width="2.52269" stroke-miterlimit="10"/>
<path d="M17.0918 54.8753L11.7581 59.2393V62.1487L12.7278 70.3918L15.4755 76.2104L21.1326 77.6651H30.8304L36.9723 74.4325L40.8514 66.351L41.8212 58.2695L39.3967 54.8753L31.6385 53.4207H23.2338L17.0918 54.8753Z" fill="#263238" stroke="black" stroke-width="0.360019"/>
<path d="M73.8222 55.0374L79.156 59.4014V62.3108L78.1862 70.5539L75.4385 76.3725L69.7815 77.8272H60.0837L53.9418 74.5946L50.0627 66.5131L49.0929 58.4317L51.5173 55.0374L59.2756 53.5828H67.6803L73.8222 55.0374Z" fill="#263238" stroke="black" stroke-width="0.360019"/>
<path d="M80.1619 53.997C77.4872 53.497 74.7974 52.9969 72.0925 52.6636C65.7912 51.8756 59.4898 51.7241 53.2187 53.0272C48.2018 54.0728 43.1697 54.1031 38.1226 53.1333C34.5866 52.4363 31.0204 51.9666 27.4088 51.9666C24.719 52.1635 22.0141 52.2393 19.3394 52.5878C16.1963 52.9969 13.0834 53.6182 9.95537 54.1486C9.35093 54.2546 9.00337 54.5577 8.97315 55.2092C8.88248 57.4822 8.74648 59.7551 8.68604 62.0432C8.68604 62.4371 8.9127 63.0129 9.23004 63.1948C9.83448 63.5736 9.92515 64.1039 10.0914 64.6797C11.0283 67.7709 11.8896 70.9075 12.9927 73.9381C13.9901 76.6959 16.2567 78.196 19.0221 78.6506C23.4345 79.3628 27.8621 79.2719 32.2141 78.1051C34.7679 77.4232 36.8382 76.1201 38.2435 73.7563C39.6942 71.3167 40.9031 68.771 41.7342 66.0738C42.3688 64.0433 42.9128 61.9825 43.5022 59.9369C43.7591 59.0277 44.4844 58.9065 45.2702 58.8914C46.1013 58.8914 46.9324 58.9065 47.2498 59.9066C47.5369 60.8158 47.824 61.7401 48.0506 62.6644C49.0027 66.4072 50.2871 69.9984 52.2516 73.3471C53.7778 75.9686 55.984 77.4687 58.8551 78.196C62.6329 79.1506 66.4561 79.1961 70.2943 78.8779C73.9663 78.5748 76.8072 76.9383 78.0614 73.3168C79.089 70.3469 79.8899 67.286 80.7966 64.2858C80.8872 63.9676 81.129 63.6948 81.2952 63.3917C81.5672 62.8917 82.0508 62.3917 82.0659 61.8916C82.0961 59.9066 82.0357 57.9216 81.9148 55.9517C81.809 54.3455 81.7486 54.2849 80.1619 53.997ZM40.7973 61.3158C40.5102 64.0282 39.7244 66.6041 38.5911 69.074C38.0622 70.2105 37.4275 71.3015 36.7928 72.3925C35.5084 74.5897 33.5741 75.8473 31.0959 76.4231C27.0159 77.3475 22.951 77.2414 18.8861 76.3928C17.3598 76.0746 16.2265 75.1958 15.4861 73.8169C13.0229 69.2256 12.5394 64.3615 13.6274 59.3157C13.8843 58.1489 14.7758 57.5276 15.7581 57.0276C17.9643 55.9063 20.367 55.5426 22.7848 55.285C24.2808 55.1335 25.7768 55.1032 27.2728 55.0123C27.2577 55.0729 27.2879 54.9517 27.2728 55.0123C29.213 55.0123 32.9999 55.5578 35.8257 56.0123C36.7173 56.1639 37.6088 56.5578 38.4399 56.9518C40.4195 57.9064 41.024 59.1187 40.7973 61.3158ZM75.7797 72.8622C74.8277 74.9685 73.3316 76.3019 70.9894 76.5747C69.4179 76.7565 67.8312 76.9383 66.2596 77.1202C63.5698 77.105 60.9254 76.8626 58.3565 76.014C56.8907 75.5291 55.6667 74.7109 54.7449 73.4683C51.9947 69.7408 50.3929 65.5434 49.9698 60.937C49.7733 58.8005 50.7707 57.467 52.7804 56.6488C55.7725 55.4365 58.9156 55.1335 62.0889 55.0426C65.3227 54.9668 68.5716 55.0274 71.6996 55.876C73.1503 56.2699 74.5859 56.8609 75.9005 57.5882C77.185 58.3004 77.2606 59.7551 77.4419 61.0734C78.001 65.1646 77.4721 69.0892 75.7797 72.8622Z" fill="black"/>
<path d="M40.4558 90.2246C42.4394 89.1138 50.4532 87.7015 50.4532 90.9387C50.4532 94.9853 44.9784 94.7472 44.9784 94.7472C44.9784 94.7472 51.1886 93.2424 49.9771 97.6036C48.787 101.888 45.4545 100.222 44.5024 99.7459" stroke="black" stroke-width="2.22323"/>
<path d="M76.2509 98.8461C75.17 96.3118 71.0993 96.3639 67.1574 98.9512C67.117 98.9779 67.0766 99.0118 67.0331 99.0373C67.0183 98.9889 67.0103 98.9368 66.9958 98.8902C65.7444 94.3452 62.7195 91.6182 60.2362 92.8089C57.7583 93.99 56.759 98.6375 58.0109 103.184C58.9873 106.74 60.6972 109.622 62.7348 110.441C64.6155 111.198 67.9936 110.136 71.0744 108.108C75.0142 105.519 77.334 101.37 76.2509 98.8461Z" fill="#D13852" stroke="black" stroke-width="2.16912"/>
<path d="M84.3955 27.0716C74.9176 14.288 56.1419 7.37769 44.9125 7.37769C33.485 7.37769 14.9096 13.7875 5.80586 27.7218C-1.78034 39.3338 12.4249 37.8154 12.4249 37.8154L44.9125 32.7917L77.4372 37.8154C79.8015 37.8154 93.1426 38.8693 84.3955 27.0716Z" fill="white" stroke="black" stroke-width="2.21061"/>
<path d="M14.4595 35.4524C14.4595 35.4524 24.1138 19.7903 45.5857 19.7903C67.0576 19.7903 75.3349 35.4524 75.3349 35.4524H14.4595Z" fill="white"/>
<path d="M11.4926 40.2129C11.6875 42.8535 26.6606 44.9074 46.4875 44.9074C66.3144 44.9074 78.6915 42.12 78.7279 40.2129C78.9602 28.0137 46.8236 34.0514 46.8236 34.0514C46.8236 34.0514 10.5011 26.7834 11.4926 40.2129Z" fill="#454C53" stroke="black" stroke-width="2.41508"/>
<path d="M45.0749 30.0444C23.5148 30.0444 10.1712 34.3318 10.1711 36.9353C10.1711 38.6676 11.4717 40.263 11.4717 40.263C11.4717 40.263 31.4058 36.017 45.0749 36.017C58.7441 36.017 78.8126 40.3001 78.8126 40.3001C78.8126 40.3001 80.9576 38.7724 80.9576 36.9353C80.9576 35.0982 68.4299 30.0445 45.0749 30.0444Z" fill="#FFBE0B" stroke="black" stroke-width="2.21061"/>
<path d="M44.9723 14.1743C43.8039 14.1743 40.244 17.3703 38.0051 17.3703C35.7663 17.3703 39.2484 25.0925 44.9723 26.2903C50.6963 25.0925 54.2555 17.3703 51.9395 17.3703C49.6235 17.3703 46.1408 14.1743 44.9723 14.1743Z" fill="#FFBE0B" stroke="black" stroke-width="2.21061"/>
<path d="M309.085 36.9682L313.303 96.388C313.303 96.388 315.24 113.723 274.871 113.723C236.087 113.723 238.074 97.4655 238.074 97.4655L242.17 47.3253L242.805 36.4515C243.137 30.7721 243.137 28.3752 249.252 28.3105C251.698 28.2847 251.98 28.3103 253.768 28.3102L299.485 28.3752C305.134 28.3752 308.692 32.1176 309.085 36.9682Z" fill="#FFCC5A" stroke="black" stroke-width="2.18781" stroke-miterlimit="10"/>
<path d="M237.131 28.3021H249.112C248.718 44.0692 242.43 43.1195 242.43 43.1195C242.43 41.3494 242.227 41.0836 240.791 39.9593L237.628 38.0351C237.373 37.8836 237.387 37.5221 237.648 37.3839L242.227 34.9653L242.927 34.6171C243.676 34.1733 243.555 33.6656 243.116 33.2962C243.111 33.2935 243.108 33.2882 243.102 33.2855C241.225 31.744 236.868 28.9586 236.868 28.9586C236.604 28.7247 236.775 28.3021 237.131 28.3021Z" fill="#FFCC5A"/>
<path d="M252.262 28.3021H237.131C236.775 28.3021 236.604 28.7247 236.868 28.9586C236.868 28.9586 241.225 31.744 243.102 33.2855C243.108 33.2882 243.111 33.2935 243.116 33.2962C243.555 33.6656 243.676 34.1733 242.927 34.6171L242.227 34.9653L237.648 37.3839C237.387 37.5221 237.373 37.8836 237.628 38.0351L240.791 39.9593C242.227 41.0836 242.43 41.3494 242.43 43.1195" stroke="black" stroke-width="2.18822" stroke-miterlimit="10"/>
<path d="M241.413 58.7392L243.201 66.8947V72.3317L247.373 77.1861L254.524 79.7104L263.663 78.7395L270.616 73.3025L272.602 68.0597L278.165 68.8365L283.33 74.856L287.502 78.7395L293.461 79.7104H299.62L304.189 77.1861L307.963 72.3317L308.957 65.1471L310.943 58.7392L305.778 55.8265H295.249L286.111 58.7392L281.144 63.0111L278.165 66.8947H273.198L270.616 61.8461L263.663 58.7392L254.524 55.8265H244.393L241.413 58.7392Z" fill="white" stroke="black" stroke-width="0.296416"/>
<path d="M313.092 55.5173C313.024 54.1774 305.765 54.1231 304.426 54.1231C294.287 54.1231 285.021 55.859 278.251 63.195C277.007 64.5426 274.548 64.5426 273.304 63.195C261.754 50.6783 238.547 54.1464 238.464 55.8202C238.106 62.9387 240.72 80.6206 255.572 80.9623C270.583 81.3079 270.972 69.0903 275.279 69.0903C275.47 69.0903 276.089 69.0903 276.28 69.0903C280.587 69.0903 280.98 81.3079 295.987 80.9623C309.285 80.6516 313.592 65.4825 313.092 55.5173ZM256.132 79.3972C246.315 79.3972 243.339 69.7466 243.339 60.228C243.339 57.0629 243.986 57.2027 251.69 57.2027C259.78 57.2027 270.726 59.3736 270.726 67.1369C270.73 74.8302 263.932 79.3972 256.132 79.3972ZM295.415 79.3972C287.616 79.3972 280.818 74.8302 280.818 67.1369C280.818 57.6959 296.881 56.4182 306.484 57.4202C306.989 57.4746 307.664 57.6882 307.867 58.2202C308.657 60.2552 309.051 79.3972 295.415 79.3972Z" fill="black" stroke="black" stroke-width="0.592833"/>
<path d="M285.291 92.0376C279.848 92.0376 272.836 96.1897 265.853 93.7484C258.454 91.1616 265.853 102.613 276.044 102.613C290.198 102.613 291.142 92.0376 285.291 92.0376Z" fill="white" stroke="black" stroke-width="1.88853"/>
<path d="M263.417 11.0419C260.565 9.65341 258.249 3.73088 256.621 3.7484C254.993 3.76593 253.979 10.1685 251.653 13.0831C255.892 13.4458 259.764 12.6945 263.417 11.0419Z" fill="#DAA640" stroke="black" stroke-width="2.15659"/>
<path d="M297.743 14.4495C294.939 12.2019 294.024 4.95317 292.458 4.97004C290.891 4.98692 288.445 10.4844 285.939 12.8873C289.992 14.2823 293.76 15.5278 297.743 14.4495Z" fill="#D9A640" stroke="black" stroke-width="2.15659"/>
<path d="M241.965 8.87134L241.966 8.87266C242.831 13.4919 244.123 17.9655 245.436 22.51C245.924 24.1991 246.415 25.898 246.888 27.6177L246.889 27.6208C246.965 27.9005 247.02 27.9656 247.025 27.9711C247.026 27.9721 247.026 27.9726 247.027 27.9732L247.027 27.9737C247.029 27.9746 247.033 27.9785 247.044 27.9847C247.067 27.9974 247.122 28.0245 247.233 28.0529C252.682 29.4364 258.081 30.7023 263.564 31.1857C271.24 31.8599 278.922 31.8457 286.588 30.9926L286.588 30.9926C291.716 30.424 296.821 29.7558 301.886 28.8723L301.889 28.8718C302.583 28.7524 302.925 28.5764 303.127 28.3946C303.318 28.2223 303.525 27.9163 303.677 27.2376C303.678 27.2371 303.678 27.2367 303.678 27.2362L304.991 27.53C305.476 25.3423 306.039 23.1741 306.603 21.0055C307.087 19.1423 307.571 17.2788 308.006 15.4025L241.965 8.87134ZM241.965 8.87134C241.895 8.49837 241.862 8.1621 241.832 7.77912M241.965 8.87134L241.832 7.77912M241.832 7.77912C242.857 8.27863 243.842 8.71675 244.812 9.14841C245.64 9.51663 246.457 9.88015 247.28 10.2731L247.28 10.2733C250.788 11.9471 254.416 12.566 258.384 11.8733L258.386 11.873C262.721 11.1091 266.946 9.86015 270.641 6.99086L241.832 7.77912ZM274.228 3.42664C273.169 4.67871 272.016 5.92469 270.641 6.99049L274.228 3.42664ZM274.228 3.42664C274.328 3.57662 274.452 3.75951 274.594 3.93963C278.692 9.21328 284.117 11.9418 290.583 12.9007L274.228 3.42664ZM307.327 8.80692C307.564 8.68761 307.803 8.56526 308.043 8.43997L290.583 12.9008C294.308 13.4559 297.946 13.3224 301.512 11.6932L301.515 11.6921C303.102 10.9632 304.662 10.1664 306.195 9.38351C306.574 9.19005 306.951 8.99744 307.327 8.80692Z" fill="#030101" stroke="black" stroke-width="2.69232"/>
<path d="M247.873 29.3462C253.235 30.7316 258.634 32.023 264.14 32.5176C271.765 33.2 279.406 33.1879 287.038 32.3256C292.103 31.7562 297.144 31.0857 302.159 30.197C303.775 29.9144 304.619 29.2266 304.984 27.5299C305.869 23.4639 307.022 19.4652 307.945 15.4066C308.641 12.349 310.787 6.11046 309.8 5.93976C309.466 5.72299 308.029 6.80965 306.68 7.61154C304.859 8.69406 302.927 9.57877 301.011 10.4731C297.805 11.9664 294.515 12.1032 291.011 11.5715C284.933 10.654 280.038 7.55888 276.249 2.59932C275.805 2.01902 275.576 1.26804 274.653 1.41925C273.746 1.56789 271.927 4.78824 270.227 5.87774C266.841 8.54309 263.105 9.79693 258.932 10.5439C255.326 11.1834 252.036 10.626 248.812 9.05373C246.237 7.80212 241.369 4.04605 240.985 5.12138C240.724 5.39198 241.445 7.79977 241.717 9.11453C242.935 15.0089 244.89 21.7022 246.592 27.9636C246.776 28.6793 247.057 29.1365 247.873 29.3462Z" fill="#EEDB49" stroke="black" stroke-width="2.15659"/>
<path d="M274.98 25.98C277.407 25.5853 279.179 23.3368 279.133 20.7043C279.092 19.4847 278.871 18.2934 278.197 17.2387C277.284 15.8091 275.863 15.289 274.226 15.763C272.019 16.3924 270.732 18.1617 270.828 20.4163C270.889 21.855 271.258 23.229 271.925 24.5121C272.62 25.8738 273.44 26.2248 274.98 25.98Z" fill="#F04F48" stroke="black" stroke-width="1.54042"/>
<path d="M293.106 25.4398C294.849 25.0263 295.551 24.0825 295.487 22.1006C295.463 21.8989 295.449 21.5962 295.392 21.3031C294.877 18.5917 292.506 17.8187 289.923 19.5262C289.72 19.6661 289.527 19.8242 289.346 19.9822C287.827 21.2652 287.593 22.5527 288.601 23.983C289.576 25.3585 291.2 25.8825 293.106 25.4398Z" fill="#EF4E47" stroke="black" stroke-width="1.54042"/>
<path d="M260.307 25.1974C261.459 24.7721 262.04 23.5876 262.001 21.9464C261.951 20.1442 260.952 18.5134 259.721 18.2144C258.623 17.9443 257.091 19.0887 256.381 20.6775C255.832 21.9323 256.136 23.5706 257.108 24.5169C258.018 25.3933 259.105 25.6334 260.307 25.1974Z" fill="#EE4E47" stroke="black" stroke-width="1.54042"/>
<defs>
<linearGradient id="paint0_linear_344_293" x1="689.804" y1="68.0042" x2="752.157" y2="68.2795" gradientUnits="userSpaceOnUse">
<stop stop-color="#FE3061"/>
<stop offset="1" stop-color="#FC7DFF"/>
</linearGradient>
<linearGradient id="paint1_linear_344_293" x1="448.222" y1="64.8671" x2="518.825" y2="65.5846" gradientUnits="userSpaceOnUse">
<stop stop-color="#2400FF"/>
<stop offset="0.135793" stop-color="#009688"/>
<stop offset="0.241535" stop-color="#EDDA48"/>
<stop offset="0.385726" stop-color="#E84D1F"/>
<stop offset="0.515625" stop-color="#E50E0E"/>
<stop offset="0.639765" stop-color="#E7491D"/>
<stop offset="0.816741" stop-color="#EDDA48"/>
<stop offset="0.906204" stop-color="#009688"/>
<stop offset="1" stop-color="#1932D8"/>
</linearGradient>
</defs>
</svg>
