<svg width="422" height="445" viewBox="0 0 422 445" fill="none" xmlns="http://www.w3.org/2000/svg">
<g clip-path="url(#clip0_344_1214)">
<path d="M412.971 185.576C399.55 167.508 376.369 167.02 357.823 175.81C340.742 152.858 309.507 157.741 288.766 174.101C268.512 189.971 262.656 219.515 277.297 241.246C291.206 262 320 267.616 339.766 252.478C342.45 258.826 357.823 261.023 361.971 261.756C375.149 263.465 389.058 260.779 400.038 253.21C422.244 238.072 429.321 207.307 412.971 185.576ZM356.359 181.426C357.091 182.646 357.823 183.867 358.555 185.332C359.287 186.797 360.019 188.506 360.751 189.971C357.823 187.774 354.651 186.065 351.479 184.6C353.187 183.379 354.651 182.402 356.359 181.426ZM332.201 222.201C337.814 226.84 344.158 231.479 350.259 235.63C349.282 236.607 348.306 237.583 347.33 238.56C342.694 235.874 338.546 233.189 334.397 229.77C333.909 229.282 333.421 229.526 333.177 229.77C331.713 223.666 331.469 217.318 332.689 211.214C340.01 216.585 347.33 222.445 354.651 227.817C355.627 228.549 357.091 226.84 356.115 226.108C349.038 220.004 341.23 214.632 333.177 209.749C333.665 207.795 334.397 205.598 335.129 203.645C342.694 209.749 350.747 215.12 358.555 220.98C359.775 221.957 361.483 220.004 360.507 219.027C360.019 218.294 359.531 217.562 358.799 216.829C358.311 216.341 357.823 216.341 357.335 216.585C350.259 211.702 343.182 206.575 335.861 201.935C337.082 199.494 338.302 197.296 340.01 195.099C340.01 195.099 340.01 195.343 340.254 195.343C346.354 201.935 353.919 208.528 361.727 212.923C363.192 213.899 364.412 211.702 363.192 210.481C359.775 207.795 356.115 205.598 352.455 203.156C348.55 200.226 345.134 197.052 341.474 194.122C341.23 194.122 341.23 193.878 340.986 193.878C342.206 192.413 343.426 190.948 344.646 189.727C346.354 188.262 348.062 186.553 350.015 185.332L350.259 185.576C354.651 187.774 358.799 190.704 362.46 193.878C367.828 209.749 362.216 222.201 351.967 233.677C346.11 229.038 339.522 224.643 333.177 220.736C332.445 220.492 331.469 221.713 332.201 222.201ZM339.522 249.059C318.78 262 291.938 258.093 279.005 235.874C266.56 214.632 275.345 187.774 295.354 174.833C304.871 168.729 317.804 163.846 329.517 164.334C340.01 164.822 347.818 170.438 353.919 178.007C350.991 179.716 348.062 181.67 345.622 183.623C326.589 199.005 319.024 231.235 339.522 249.059C339.522 248.815 339.522 249.059 339.522 249.059ZM340.254 245.153C337.082 241.002 334.885 236.363 333.421 231.479C337.082 234.654 341.23 237.828 345.622 240.269C343.914 241.978 341.962 243.688 340.254 245.153ZM405.407 242.955C397.11 251.501 386.373 256.628 374.66 257.605C371.488 257.849 341.962 255.652 343.914 250.036C344.158 249.303 343.914 248.571 343.67 248.083C353.919 239.537 364.9 229.526 368.56 216.341C372.22 203.889 367.34 189.971 360.263 179.228C375.637 172.147 394.182 171.659 406.383 184.111C422.244 200.47 420.78 227.084 405.407 242.955Z" fill="#98B0C8"/>
<path d="M362.948 199.982C357.823 196.32 352.211 192.413 346.598 189.483C345.866 188.995 344.89 190.215 345.622 190.704C350.503 194.855 356.115 198.761 361.484 202.18C362.948 203.156 364.168 200.959 362.948 199.982Z" fill="#98B0C8"/>
<path d="M325.125 127.465C324.392 126 322.684 125.512 321.708 126.977C318.78 131.372 316.096 135.767 314.144 140.65C313.9 140.65 313.9 140.65 313.656 140.65C312.924 141.138 312.924 142.115 313.412 142.603C312.924 144.068 312.191 145.533 311.947 146.998C311.459 148.707 313.9 149.196 314.388 147.731C315.12 146.022 315.852 144.068 316.584 142.359C319.512 142.115 322.684 141.871 325.613 141.627C326.589 144.557 327.565 147.242 328.785 149.928C329.517 151.637 332.445 150.905 332.201 148.952C331.469 141.871 328.053 134.057 325.125 127.465ZM317.804 139.917C319.268 137.232 320.732 134.546 322.684 131.86C323.416 134.302 324.148 136.499 324.88 138.941C322.44 139.185 320.244 139.429 317.804 139.917Z" fill="#98B0C8"/>
<path d="M398.086 141.871C399.55 139.673 400.282 137.476 399.794 134.79C399.062 131.616 396.378 129.418 393.206 129.907C391.254 130.151 389.546 131.127 388.57 132.348C388.57 132.104 388.57 131.86 388.326 131.86C387.837 130.395 385.641 130.883 385.885 132.592C386.129 133.813 386.373 135.034 386.617 136.499C385.397 141.382 386.617 147.731 388.081 151.393C389.058 153.591 391.986 152.858 391.742 150.416C391.254 146.998 390.766 143.824 390.278 140.406C390.278 138.941 390.522 136.743 391.254 136.011C395.402 135.767 396.622 136.499 395.158 138.697C394.67 139.917 393.938 141.138 392.962 142.115C391.742 143.58 392.474 145.533 394.426 145.533C397.598 145.777 404.919 147.975 400.77 152.126C398.33 154.323 394.426 154.079 391.254 154.567C389.058 155.056 389.546 158.718 391.742 158.474C397.11 158.23 406.139 157.986 406.139 150.661C406.627 145.533 402.479 142.847 398.086 141.871Z" fill="#98B0C8"/>
</g>
<g clip-path="url(#clip1_344_1214)">
<path d="M266.569 177.849C265.153 177.849 263.972 178.085 262.555 178.085C257.361 174.301 251.93 171.7 246.028 169.335C243.43 168.389 242.25 172.409 244.847 173.355C248.625 174.774 252.167 176.43 255.472 178.322C238.708 179.268 222.18 179.977 205.417 180.687C205.417 180.45 205.417 180.214 205.417 179.977C202.819 161.767 200.222 143.556 200.694 124.872C201.167 106.898 204.708 89.1608 203.292 71.1867C203.528 70.9502 203.764 70.4772 203.764 70.0042C213.444 54.8681 221 38.5496 225.722 21.285C226.194 19.1565 223.125 18.2105 222.417 20.339C216.278 38.0765 208.25 54.3951 198.333 69.2947C164.333 71.1867 130.333 70.2407 96.3333 68.3487C97.0416 47.3001 97.9861 26.488 98.4583 5.4394L98.6944 5.2029C100.111 11.8249 102.708 18.447 106.722 23.8865C108.139 25.7785 111.208 24.123 110.028 21.9945C106.25 15.6089 102.944 9.22342 101.528 1.41888C101.292 -0.000121847 99.1666 -0.473124 98.2222 0.47288C93.9722 5.6759 89.2499 10.4059 85.2361 15.8455C84.2916 17.028 86.1805 18.2105 87.1249 17.2645C90.1944 14.4264 92.7916 11.3519 95.861 8.27742C90.1944 55.1046 88.5416 102.878 87.8333 150.415C81.4583 152.307 75.0833 153.726 68.4722 154.908C67.2916 155.145 67.5277 157.037 68.7083 157.037C75.0833 156.091 81.4583 154.908 87.8333 153.489C87.8333 163.186 87.5972 173.119 87.5972 182.815C58.7916 182.815 29.9861 182.579 1.1805 181.869C-0.472276 181.869 -0.472276 184.471 1.1805 184.471C29.9861 186.126 58.7916 187.072 87.5972 187.309C87.5972 197.242 87.5972 207.175 87.5972 216.871C87.5972 219.473 91.8472 219.709 91.8472 216.871C91.8472 206.938 91.8472 197.242 92.0833 187.309C141.43 187.545 190.778 186.126 239.889 183.525C239.889 184.471 240.597 185.417 241.778 185.417C248.625 186.126 254.292 185.417 260.43 183.288C262.555 182.815 264.68 182.342 266.805 181.869C269.403 181.633 268.93 177.849 266.569 177.849ZM96.0972 70.9502C129.389 74.7342 163.153 74.7342 196.444 72.6057C171.417 108.554 135.764 135.515 93.0277 148.996C93.9722 122.98 94.9166 96.9653 96.0972 70.9502ZM92.3194 182.815C92.5555 172.646 92.7916 162.476 93.0277 152.07C136.472 139.772 176.139 110.919 201.639 73.3152C201.639 91.9988 197.861 110.446 197.625 129.366C197.389 146.631 199.042 164.132 202.583 180.923C165.75 182.342 128.917 182.815 92.3194 182.815Z" fill="#98B0C8"/>
<path d="M79.8056 201.735C79.8056 201.499 79.5694 201.499 79.8056 201.735C79.8056 201.499 79.8056 201.262 79.5694 201.026C75.7917 196.059 68.9444 199.37 67.2917 204.573C65.875 209.067 68.4722 215.925 73.9028 215.216C79.5694 214.27 82.6389 206.229 79.8056 201.735ZM77.6806 206.229C77.4444 208.594 75.0833 213.324 72.0139 211.668C69.1806 210.249 68.9444 207.175 70.125 204.573C70.8333 205.519 72.7222 205.283 72.9583 203.627C72.9583 202.208 74.6111 201.735 75.7917 201.972C77.4444 202.681 77.6806 204.81 77.6806 206.229Z" fill="#98B0C8"/>
<path d="M83.5833 47.5366C79.5694 41.8606 85 34.2925 82.4028 28.1435C81.9306 26.961 79.8055 26.488 79.3333 28.1435C79.0972 29.5625 78.8611 31.218 78.1528 32.4005C75.3194 37.367 72.0139 34.056 73.1944 29.5625C73.4306 28.6165 72.0139 27.907 71.5417 28.853C70.125 32.164 69.6528 36.894 74.375 37.6035C76.7361 37.8401 78.3889 36.894 79.5694 35.2385C78.8611 40.2051 76.9722 45.4081 80.75 49.6651C82.4028 50.8476 84.7639 48.9556 83.5833 47.5366Z" fill="#98B0C8"/>
<path d="M210.375 203.391C208.014 206.229 203.292 205.756 202.583 201.735C201.875 197.478 206.361 195.113 209.903 197.005C210.611 197.478 211.555 196.296 210.847 195.823C206.125 191.802 198.805 196.059 199.75 202.208C200.694 208.83 208.958 210.486 212.972 205.283C213.916 203.864 211.555 201.972 210.375 203.391Z" fill="#98B0C8"/>
<path d="M269.403 189.437C267.986 192.275 266.569 195.113 264.917 197.715C264.208 198.661 263.5 199.607 262.792 200.553C260.431 199.607 257.833 198.661 255.472 197.951C254.292 197.715 253.583 199.37 254.764 199.843C256.889 200.789 259.014 201.735 261.139 202.681C260.431 203.391 259.958 204.337 259.486 205.283C258.542 206.702 260.667 208.121 261.847 207.175C262.792 206.465 263.5 205.519 264.444 204.573C265.625 205.046 266.569 205.756 267.514 206.465C269.167 207.411 270.583 204.81 268.931 203.864C267.986 203.391 267.042 202.681 266.097 202.208C268.458 198.661 270.347 194.404 272 190.62C272.472 188.964 270.111 188.018 269.403 189.437Z" fill="#98B0C8"/>
</g>
<path fill-rule="evenodd" clip-rule="evenodd" d="M44.3899 260.252C49.3301 260.746 54.2703 261.238 59.2105 261.732C82.8704 263.57 106.521 267.41 130 269.714C130.584 268.747 131.729 268.906 132.423 269.579C134.766 269.37 137.392 267.549 139.514 269.443C139.583 269.433 139.652 269.422 139.721 269.415C143.5 262.038 146.112 254.171 148.647 246.292C150.265 241.449 152.442 236.76 156.465 233.508C163.33 228.661 179.061 218.832 187.122 219.245C187.256 217.777 187.929 216.264 189.033 215.286C186.598 211.064 196.334 208.309 197.021 208.798C196.581 194.692 203.105 182.442 217.49 179.633C230.377 176.901 248.708 176.442 255.639 190.141C256.401 190.054 264.189 190.012 264.942 190.098C266.114 188.589 278.98 202.89 273.707 207.869C320.852 229.081 347.66 226.55 360.709 286.183C362.473 291.785 362.601 297.915 364.464 303.392C371.092 319.132 376.467 335.893 377.805 353.02C381.036 353.862 381.408 359.656 377.665 360.494C376.235 360.815 375.04 361.253 373.998 362.083C374.812 376.118 371.475 408.179 369.372 408.08C365.084 421.96 345.959 425.877 332.419 420.999C334.753 425.466 332.419 428.274 332.419 430.661C283.697 432.535 230.426 431.456 181.718 434.027C175.487 433.937 168.934 435.583 162.789 434.636C159.041 433.722 159.034 427.728 162.836 426.987L146.225 423.318C146.596 423.175 139.378 418.292 133.923 409.166C128.845 398.958 132.301 386.636 130 375.532C112.029 374.037 93.7606 373.398 75.9863 370.303C73.5628 377.678 63.0719 368.858 59.7372 365.31C59.7414 365.304 59.7455 365.299 59.7497 365.293C58.1359 364.844 56.8417 363.306 56.7984 361.484C55.6666 359.84 55.429 357.521 56.5144 355.932C51.5399 326.737 43.9563 296.928 41.2152 267.459C40.2462 267.241 39.3337 266.809 38.56 266.143L38.6227 266.079C37.3119 264.593 37.057 262.027 39.2423 260.764C41.005 259.745 42.4769 260.061 44.3899 260.252Z" fill="#FFCC5A"/>
<path fill-rule="evenodd" clip-rule="evenodd" d="M232.278 369.521L228.472 371.985L197.335 382.189L178.307 384.652L162.738 382.189V409.284L159.625 434.62C161.009 437.2 174.155 437.2 199.065 434.62C214.944 432.975 272.978 432.177 286.191 431.825L286.94 431.805C302.467 431.349 317.805 431.349 332.954 431.805V422.304L289.708 400.487L250.96 378.319L232.278 369.521ZM254.34 187.925L251.481 190.097L257.724 200.53L227.309 225.553V245.54L217.68 254.803L212.176 245.54L204.421 235.05L198.909 218.045L200.786 206.842L197.012 206.481C196.994 207.246 196.997 208.019 197.021 208.797C196.334 208.308 186.598 211.063 189.033 215.285C187.929 216.262 187.256 217.776 187.122 219.244C179.06 218.83 163.33 228.66 156.465 233.507C152.442 236.759 150.265 241.448 148.647 246.291L148.266 247.473L147.873 248.686L147.476 249.898C145.287 256.561 142.923 263.164 139.721 269.414C139.652 269.421 139.583 269.432 139.514 269.442C137.392 267.548 134.766 269.369 132.423 269.578C131.745 268.921 130.637 268.753 130.041 269.648L130 269.713L159.189 275.562L178.446 344.265L195.216 330.42L204.217 331.781L227.988 340.501L255.635 347.805L318.75 365.503H326.787L373.557 354.016L377.771 352.601C376.38 335.619 371.038 319.003 364.464 303.391C362.601 297.914 362.473 291.784 360.709 286.182C347.66 226.549 320.852 229.08 273.707 207.868C278.98 202.889 266.114 188.588 264.942 190.097L264.868 190.091L264.709 190.082L264.503 190.075C262.664 190.02 256.322 190.061 255.639 190.14C255.242 189.356 254.808 188.619 254.34 187.925Z" fill="#0050A3"/>
<path fill-rule="evenodd" clip-rule="evenodd" d="M39.7244 262.338L40.5938 267.266C40.8005 267.335 41.0107 267.393 41.2237 267.441C41.4969 270.379 41.8183 273.32 42.1804 276.264L47.5709 306.821C48.5006 312.227 49.3832 317.645 50.2594 323.064L51.4204 328.885L52.1395 332.503C53.6917 340.339 55.1996 348.148 56.5228 355.914C56.3231 356.207 56.1682 356.524 56.0554 356.857L56.1572 357.295L56.228 357.587L56.3005 357.875C57.3445 361.957 59.1612 365.916 63.4424 367.117C66.6718 368.023 70.2151 368.105 73.5497 368.462L73.9193 368.503L132.27 375.177C139.32 375.983 146.367 376.814 153.414 377.653L159.522 378.382C168.037 379.385 176.6 380.174 184.989 381.989C185.297 382.056 185.552 382.181 185.761 382.346C184.071 375.842 182.454 369.347 180.989 362.777C179.339 355.383 177.774 347.975 176.009 340.607C172.455 325.765 168.47 311.02 164.108 296.402C163.193 293.334 162.257 290.271 161.299 287.217L160.628 285.081L160.111 283.38C159.311 280.785 158.322 278.118 155.976 276.687C153.231 275.012 149.489 274.734 146.376 274.155L144.267 273.752C141.114 273.154 137.956 272.578 134.794 272.025C119.656 269.377 104.432 267.252 89.1518 265.657C73.2519 263.996 57.2966 262.917 41.3219 262.389L39.7244 262.338ZM184.552 364.223L184.403 364.236L186.582 381.957C186.931 381.709 187.373 381.557 187.913 381.558C195.063 381.58 201.916 379.256 208.545 376.701L209.554 376.31L212.368 375.209C215.229 374.095 218.105 373.004 221.035 372.1L222.219 371.737L222.821 371.556C225.039 370.897 227.372 370.299 229.68 370.15L229.994 370.132L229.322 369.773C229.224 369.721 229.138 369.662 229.061 369.599C227.791 369.695 226.519 369.669 225.179 369.423C222.66 368.962 220.21 368.07 217.961 366.829L216.956 366.275L216.545 366.054L216.273 365.91L216.003 365.771C214.071 364.792 212.224 364.178 209.784 364.7C207.015 365.293 204.588 366.811 202.092 368.094L201.649 368.318L201.351 368.464L201.048 368.61L200.74 368.752C197.365 370.297 191.992 371.965 190.698 367.297C190.178 365.421 190.585 363.665 191.488 362.125C189.806 361.977 186.802 363.993 184.552 364.223Z" fill="white"/>
<path fill-rule="evenodd" clip-rule="evenodd" d="M254.741 186.961C253.273 183.209 248.31 184.668 248.864 188.609C249.195 190.97 250.466 193.464 251.608 195.534C252.538 197.218 253.599 198.862 255.037 200.125C252.477 202.554 249.82 204.895 247.095 207.117C244.121 209.542 240.995 211.777 237.763 213.831C234.93 215.633 231.968 217.229 229.297 219.285C226.813 221.196 224.55 223.495 223.399 226.495C222.172 229.69 222.705 232.99 223.609 236.183L223.712 236.544C224.635 239.707 226.232 243.521 224.017 246.501C222.89 248.019 221.251 249.093 219.835 250.306C218.577 251.384 217.397 252.557 216.314 253.816C213.953 256.562 212.032 259.651 210.82 263.093L210.712 263.406C209.673 266.453 208.914 270.185 210.318 273.177C210.72 274.035 212.019 273.756 212.245 272.921C212.755 271.029 212.728 269.048 213.155 267.13C213.6 265.134 214.341 263.241 215.308 261.449C217.179 257.983 219.712 255.022 222.706 252.518L223.602 251.777C225.938 249.828 228.083 247.76 228.557 244.534C229.064 241.082 227.705 237.794 226.83 234.527C226.221 232.251 226.022 230.068 226.681 228.011C227.485 229.346 228.582 230.614 229.45 231.744C231.179 233.997 232.924 236.235 234.665 238.478C236.449 240.778 238.19 243.114 239.847 245.511C240.589 246.583 241.322 247.662 242.053 248.741C242.603 249.553 243.37 250.364 243.969 251.191C243.823 251.634 243.834 252.144 244.098 252.507C247.276 256.873 251.797 247.762 252.976 245.46C255.377 240.772 257.164 235.791 259.573 231.104C262.069 226.245 264.911 221.516 268.079 217.08C269.996 214.397 272.143 211.877 273.896 209.109C278.026 212.917 283.461 215.471 288.452 217.786C293.937 220.33 299.634 222.407 305.257 224.614L306.918 225.27C316.607 229.116 326.532 233.341 334.586 240.172C344.049 248.2 349.647 259.388 353.815 270.974C358.613 284.312 362.582 298.01 366.282 311.7C368.176 318.704 369.972 325.74 371.661 332.798C373.15 339.017 374.383 345.297 376.106 351.452C372.612 351.326 368.627 352.702 365.644 353.099C352.048 354.909 338.634 357.795 325.798 362.79C324.213 363.407 323.754 365.018 324.099 366.323C323.185 366.061 322.271 365.795 321.357 365.534C322.358 363.973 321.88 361.181 321.801 359.451L321.797 359.332C321.716 357.026 321.47 354.718 321.31 352.416C321.007 348.028 320.611 343.673 320.085 339.31L319.951 338.22C319.356 333.474 318.915 328.7 318.265 323.961L318.188 323.419C318.5 322.207 318.863 321.009 319.244 319.817C320.259 316.642 321.692 313.652 322.947 310.577C323.095 310.214 322.588 310.006 322.351 310.224C320.225 312.169 318.536 314.637 317.179 317.219C317.155 317.097 317.134 316.975 317.11 316.853L316.955 316.078C316.573 314.188 316.109 312.199 314.969 310.666C314.847 310.503 314.607 310.469 314.492 310.666C313.401 312.544 313.279 314.922 313.111 317.059C312.921 319.476 312.897 321.924 312.931 324.348C312.996 329.086 313.325 333.837 313.586 338.566C313.843 343.214 314.347 347.803 314.996 352.405L315.12 353.268C315.437 355.458 315.697 357.676 316.116 359.852L316.234 360.444C316.458 361.523 316.595 363.044 317.041 364.308C305.576 361.055 294.094 357.877 282.59 354.755C274.276 352.498 265.952 350.274 257.632 348.037C257.193 347.232 256.647 346.481 255.965 345.809C253.717 343.595 250.738 342.607 248.006 344.311C247.784 344.45 247.765 344.804 248.006 344.939C248.529 345.23 249.054 345.528 249.569 345.839L244.573 344.463C240.839 343.434 237.061 342.147 233.239 341.43C226.199 337.897 218.628 335.339 211.213 332.812L210.339 332.511C206.542 331.194 202.615 329.72 198.692 328.991C195.82 328.456 192.449 329.101 191.294 332.093C189.832 333.073 188.457 334.225 187.129 335.358C186.169 336.176 185.25 337.047 184.314 337.894L184.142 338.048C183.377 338.723 182.771 339.175 182.583 340.249C182.486 340.804 182.833 341.554 183.506 341.481C185.565 341.256 187.239 338.829 188.635 337.38C189.714 336.259 190.801 335.101 191.786 333.87C192.36 334.187 193.147 334.13 193.512 333.427C195.406 329.778 200.596 332.306 203.468 333.172L207.581 334.41C209.638 335.03 211.694 335.653 213.746 336.287C219.387 338.029 225 339.979 230.691 341.579C230.182 342.148 230.252 343.161 231.22 343.546C235.675 345.325 240.563 346.244 245.192 347.464C248.114 348.235 251.035 349.011 253.954 349.791C254.455 350.615 254.815 351.549 254.966 352.635C255.524 356.629 254.449 361.237 253.402 365.1L253.245 365.677C252.384 368.782 251.118 372.59 248.484 374.551C247.841 375.029 247.022 375.362 246.196 375.437C241.039 372.737 235.882 370.038 230.722 367.343C229.766 366.844 228.883 367.52 228.668 368.323C226.849 368.02 225.034 367.541 223.38 366.97C220.602 366.011 218.433 364.18 215.828 362.915C210.789 360.466 205.643 363.474 201.131 365.76L200.091 366.28C198.068 367.279 193.858 369.197 192.887 366.466C191.948 363.824 194.917 361.001 196.835 359.812C199.12 358.394 201.781 357.635 204.364 357.003C205.839 356.642 207.332 356.348 208.834 356.133C210.537 355.889 212.297 355.925 213.937 355.363C214.752 355.085 214.877 353.768 213.937 353.55C211.412 352.966 208.399 353.604 205.764 354.255L204.387 354.6C201.732 355.263 199.052 356.094 196.634 357.416C194.876 358.377 193.02 359.838 191.808 361.625C190.755 360.63 189.445 360.664 188.08 361.033L187.339 361.242C186.116 361.587 185.124 361.825 183.934 361.586C183.775 360.705 183.613 359.824 183.441 358.943C181.745 350.282 179.884 341.653 177.832 333.071C174.291 318.268 170.194 303.628 165.576 289.138L165.112 287.689C164.047 284.375 163.189 280.764 161.472 277.719C159.848 274.84 157.245 273.181 154.153 272.303C150.645 271.307 146.958 270.785 143.378 270.112C142.58 269.962 141.779 269.819 140.98 269.672C141.655 268.432 142.16 267.024 142.614 265.943L142.693 265.756C143.669 263.494 144.545 261.191 145.391 258.876L146.024 257.136C147.552 252.944 149.13 248.822 151.278 244.902C153.539 240.777 156.539 237.404 160.278 234.612C167.903 228.92 177.093 226.017 184.488 219.934C184.791 219.685 184.402 219.259 184.095 219.416C179.101 221.968 173.711 223.703 168.517 225.781L167.493 226.192C163.388 227.847 159.219 229.649 155.666 232.329C151.704 235.317 148.584 239.028 146.239 243.441C143.928 247.791 142.45 252.66 140.82 257.306L140.383 258.544C139.726 260.4 139.047 262.251 138.268 264.058C137.65 265.492 136.497 267.129 135.973 268.768C134.539 268.515 133.105 268.261 131.67 268.017C100.579 262.737 69.1407 259.635 37.6325 258.728C36.3998 258.692 35.7622 259.889 35.9438 260.982C38.9676 279.168 41.6547 297.416 44.603 315.615C45.89 323.558 47.2026 331.495 48.546 339.428C49.2265 343.448 50.0133 347.451 50.6578 351.476C51.1781 354.727 51.5559 358.003 52.4492 361.179C53.2505 364.026 54.48 366.771 56.4994 368.943C58.6762 371.285 61.7145 372.418 64.7728 372.954C72.5367 374.313 80.5001 374.868 88.3269 375.773L129.997 380.595C129.388 386.224 129.343 391.766 129.622 397.462L129.782 400.571C129.912 403.071 130.067 405.576 130.421 408.051C130.863 411.155 132.26 413.784 134.316 416.103C136.205 418.233 138.5 420.05 140.731 421.791C143.048 423.599 145.442 425.344 148.165 426.462L148.519 426.605C150.909 427.553 155.391 429.023 158.657 428.486C158.23 430.662 157.404 433.001 158.137 435.154C158.476 436.153 159.762 436.652 160.549 435.801C162.109 434.116 162.231 431.889 162.6 429.69C162.985 427.401 163.316 425.104 163.61 422.802C164.18 418.35 164.623 413.858 164.758 409.368C164.897 404.758 164.844 400.141 164.6 395.536C164.474 393.171 164.318 390.807 164.023 388.458C163.897 387.455 163.769 386.453 163.621 385.453C163.568 385.088 163.508 384.725 163.444 384.363L167.185 384.793C172.919 385.444 178.657 386.032 184.433 386.123C185.117 386.134 185.643 385.817 185.987 385.356C186.353 385.963 186.991 386.397 187.905 386.393C195.97 386.363 203.481 383.68 210.817 380.519C214.515 378.925 218.155 377.199 221.858 375.619C225.315 374.144 229.01 373.092 232.383 371.43L241.247 376.159C241.312 376.391 241.395 376.611 241.484 376.795C242.061 377.993 243.199 378.643 244.361 379.133C245.476 379.603 246.631 379.75 247.757 379.631C254.479 383.214 261.203 386.793 267.931 390.364L274.661 393.932C288.069 401.033 301.424 408.25 314.917 415.184L315.91 415.693C320.571 418.069 325.575 420.479 330.747 422.277C330.839 423.608 330.781 424.903 330.671 426.312L330.645 426.619C330.491 428.285 330.16 430.371 331.474 431.557C332.157 432.174 333.378 432.176 333.842 431.246C334.685 429.561 333.928 426.903 333.661 425.071C333.566 424.42 333.451 423.75 333.28 423.101C339.209 424.896 345.318 425.767 351.351 424.758C357.226 423.778 361.776 420.014 365.444 415.41C369.315 410.551 372.065 404.889 373.541 398.819C375.221 391.913 375.331 384.78 375.291 377.705C375.249 370.172 374.975 362.601 374.075 355.118C375.062 354.882 376.156 354.678 377.154 354.749C377.648 355.553 378.606 355.891 379.472 355.787C381.355 357.899 376.579 360.058 375.052 360.598C374.522 360.786 374.579 361.662 375.19 361.635L375.575 361.617C377.934 361.489 380.371 361.08 381.757 358.85C382.869 357.063 382.535 354.946 381.21 353.489C380.335 345.075 378.243 336.881 376.297 328.673C374.386 320.617 372.262 312.613 370.01 304.648L369 301.084C365.455 288.596 361.749 276.007 356.858 264.016C354.416 258.028 351.602 252.151 347.789 246.93C344.234 242.063 340.037 237.898 335.213 234.342C326.219 227.71 315.667 223.703 305.298 219.886L304.834 219.715C299.461 217.738 294.101 215.738 288.789 213.596C284.091 211.702 279.59 209.3 274.915 207.377C275.066 207.097 275.213 206.813 275.354 206.526L275.441 206.6C275.455 206.612 275.471 206.624 275.486 206.635C275.957 206.966 276.649 206.803 277.036 206.431C278.13 205.381 277.76 204.216 277.03 203.127L276.935 202.988C276.041 201.715 275.245 200.37 274.42 199.051L273.904 198.226C272.52 196.023 271.066 193.805 269.221 191.984C268.366 191.14 267.431 190.509 266.439 190.038C266.524 189.856 265.781 189.483 265.57 189.671C262.43 188.502 258.817 188.747 255.393 189.069M132.014 380.826L136.38 381.331C141.183 381.887 145.989 382.424 150.794 382.957L161.233 384.11C161.26 384.716 161.332 385.308 161.345 385.765C161.413 388.121 161.464 390.479 161.512 392.836C161.609 397.561 161.503 402.291 161.197 407.007C160.901 411.576 160.51 416.147 159.904 420.685L159.779 421.593L159.707 422.07C159.212 422.118 158.726 422.358 158.321 422.849C157.439 423.921 154.241 422.879 152.993 422.427C150.94 421.684 149.006 420.429 147.222 419.169C145.479 417.94 143.911 416.507 142.403 414.997L141.169 413.756C139.942 412.515 138.714 411.194 137.962 409.634C136.942 407.519 136.811 404.922 136.512 402.618C136.144 399.784 135.705 396.95 135.242 394.13M258.76 351.077L259.213 351.198C275.664 355.644 292.09 360.222 308.592 364.471C316.758 366.575 324.963 368.525 333.139 370.588L334.463 370.925C340.913 372.583 347.44 374.579 352.38 379.337C352.562 379.512 352.827 379.243 352.655 379.057C347.332 373.293 339.761 370.853 332.491 368.738C331.148 368.347 329.802 367.965 328.458 367.577C338.344 363.992 348.387 360.873 358.661 358.649C361.306 358.076 363.983 357.656 366.626 357.081C368.47 356.679 370.27 356.099 372.095 355.618L373.529 355.251L373.548 359.864C373.572 366.396 373.561 372.924 373.233 379.455L373.171 380.665C372.789 387.934 372.192 395.354 369.656 402.208C367.595 407.778 364.31 413.025 360.014 417.081C357.841 419.134 355.504 420.732 352.615 421.521C349.932 422.253 347.122 422.339 344.365 422.144C331.139 421.205 319.366 413.898 307.877 407.847C289.085 397.951 270.291 388.06 251.48 378.202C251.989 377.849 252.468 377.441 252.903 376.983C255.426 374.334 256.756 370.707 257.63 367.194C258.56 363.455 259.117 359.447 259.182 355.587M234.825 382.022C234.659 381.932 234.467 382.045 234.459 382.236C234.401 383.697 235.195 385.139 235.788 386.455L235.851 386.596C236.572 388.226 237.361 389.835 238.177 391.418C239.808 394.582 241.503 397.712 243.273 400.798C246.831 407.005 250.784 412.952 255.458 418.356C256.513 419.577 258.249 418.012 257.572 416.697C254.306 410.36 250.499 404.376 246.579 398.444C244.617 395.475 242.657 392.502 240.676 389.545C239.849 388.312 239.012 387.082 238.152 385.872L237.633 385.148M39.7158 262.356C56.2242 262.863 72.7133 263.958 89.1432 265.674C104.423 267.27 119.647 269.394 134.785 272.042C137.947 272.595 141.105 273.171 144.259 273.77L146.151 274.131C149.305 274.739 153.159 274.99 155.968 276.704C158.929 278.511 159.729 282.288 160.714 285.402C161.873 289.064 163.001 292.737 164.1 296.419C168.462 311.037 172.446 325.782 176.001 340.624C177.765 347.992 179.331 355.4 180.98 362.794C182.446 369.364 184.063 375.859 185.752 382.363C185.544 382.199 185.289 382.073 184.98 382.007C176.591 380.191 168.028 379.402 159.514 378.399L158.69 378.302C149.882 377.248 141.074 376.202 132.261 375.194L73.9107 368.52C70.4694 368.127 66.7828 368.073 63.4338 367.134C57.74 365.537 56.4054 359.062 55.4501 353.906L55.4213 353.75C52.5411 338.171 50.2484 322.457 47.5623 306.839M184.394 364.254C186.66 364.102 189.76 361.991 191.479 362.143C190.577 363.682 190.17 365.439 190.689 367.314C192.137 372.533 198.681 369.833 201.834 368.239C204.418 366.931 206.914 365.33 209.776 364.718C213.017 364.024 215.214 365.336 217.952 366.847C220.202 368.088 222.652 368.979 225.171 369.441C226.51 369.686 227.783 369.712 229.053 369.617C229.129 369.68 229.215 369.739 229.314 369.791L229.986 370.15C226.948 370.291 223.853 371.245 221.026 372.118C218.097 373.022 215.22 374.112 212.36 375.227L209.545 376.327C202.603 379.031 195.418 381.598 187.905 381.576C187.365 381.575 186.922 381.727 186.574 381.975M197.069 347.9C194.831 347.622 192.765 347.92 190.977 349.402C188.82 351.189 187.371 354.152 184.271 354.347C183.367 354.404 183.157 355.696 184.055 355.967C186.363 356.662 188.232 355.392 189.804 353.743L190.861 352.619C192.415 350.983 193.848 349.718 196.485 349.815C199.309 349.92 202.137 350.584 204.943 350.921C208.121 351.303 211.298 351.629 214.486 351.91C214.634 351.923 214.66 351.686 214.521 351.651L210.95 350.748M199.23 338.594L198.86 338.557C195.611 338.236 192.638 338.223 189.736 340.001L189.179 340.344C186.562 341.961 183.714 343.867 182.078 346.487C181.81 346.915 182.252 347.42 182.7 347.311C185.846 346.543 188.145 344.196 190.79 342.439C193.758 340.468 196.824 340.793 200.209 341.099C203.486 341.396 206.761 341.803 210.006 342.359C213.055 342.88 216.114 343.704 219.193 343.966L219.193 343.96C219.545 343.959 219.745 343.422 219.387 343.24C216.261 341.652 212.641 340.901 209.241 340.176M310.513 248.712C310.517 248.45 310.156 248.352 310.03 248.579C307.915 252.363 306.81 257.001 305.683 261.169C304.504 265.536 303.551 269.947 302.696 274.391C300.963 283.389 300.039 292.335 299.977 301.506C299.968 302.815 302.065 303.164 302.27 301.822C303.632 292.901 304.937 283.972 306.31 275.054C307 270.568 307.804 266.1 308.573 261.628M289.58 255.302C289.736 254.78 288.989 254.606 288.798 255.083C284.554 265.678 283.117 277.685 285.842 288.862C286.259 290.572 288.721 289.831 288.406 288.143M234.842 245.888C234.863 245.498 234.365 245.436 234.177 245.705C232.166 248.587 231.332 252.446 227.804 253.935C226.043 254.678 224.061 254.549 222.505 255.805C221.465 256.645 220.667 257.971 221.448 259.243C221.699 259.654 222.405 259.859 222.746 259.413C223.245 258.762 223.509 257.983 224.187 257.495C225.143 256.808 226.432 256.765 227.528 256.442C228.946 256.024 230.195 255.292 231.219 254.205M201.25 197.827C201.042 197.719 200.843 197.788 200.711 197.97C200.522 198.23 200.545 198.483 200.777 198.661C200.467 199.304 200.101 200.917 200.049 201.151C199.837 202.103 199.612 203.049 199.377 203.994C198.901 205.9 198.485 207.821 198.009 209.728C197.504 211.749 196.904 213.749 196.235 215.72C196.192 215.847 196.144 215.978 196.094 216.11L196.018 216.309L196 216.279C195.864 216.061 195.581 216.213 195.614 216.444C195.645 216.655 195.687 216.864 195.722 217.074L195.652 217.263C195.215 218.46 194.915 219.722 195.718 220.778C196.018 221.173 196.349 221.407 196.76 221.477C197.42 223.69 198.249 225.863 199.135 227.949L199.395 228.558C200.7 231.602 202.091 234.605 204.167 237.197C206.435 240.026 209.554 241.958 211.529 245.058C212.448 246.5 213.087 248.016 213.606 249.645L213.801 250.263C214.17 251.415 214.595 252.531 215.657 253.207C215.996 253.422 216.504 253.353 216.777 253.06C218.956 250.716 216.675 246.339 215.362 244.07C213.536 240.914 210.893 238.895 208.246 236.514C205.394 233.948 203.574 230.515 201.815 227.133C200.737 225.061 199.696 222.945 198.6 220.864C199.745 219.835 200.111 217.791 200.499 216.37L200.534 216.243C201.176 213.967 201.685 211.633 202.007 209.288C202.316 207.034 202.445 204.812 202.363 202.545L202.34 201.968M196.993 208.556C197.246 208.204 196.827 207.804 196.48 207.878C194.37 208.322 192.308 209.62 190.414 210.671L190.212 210.782C188.7 211.611 187.18 212.627 186.386 214.237C185.523 215.988 185.594 218.004 185.712 219.906L185.723 220.084C185.867 222.366 185.89 224.736 186.365 226.976C186.608 228.122 187.629 228.445 188.502 228.174C189.54 231.51 192.458 233.967 194.589 236.6C197.306 239.955 196.795 244.486 196.511 248.527C196.396 250.163 198.397 250.628 199.428 249.755L201.803 247.749C202.198 247.414 202.593 247.078 202.987 246.741C203.325 246.453 203.659 246.162 203.991 245.867L204.486 245.422C204.706 245.222 205.675 244.121 205.958 244.076C206.644 243.965 208.275 245.804 208.833 246.381L208.904 246.453C209.954 247.501 210.903 248.628 211.787 249.823C211.949 250.043 212.267 249.861 212.151 249.607C211.359 247.881 210.438 246.231 209.345 244.687L209.124 244.38C208.396 243.382 207.419 241.622 206.135 241.327C204.567 240.968 203.001 242.567 201.86 243.455L201.788 243.511C201.245 243.925 200.709 244.346 200.173 244.771C200.229 241.762 199.855 238.721 198.328 236.128C197.251 234.3 195.637 232.945 194.257 231.374C192.72 229.624 191.917 227.473 190.525 225.651C190.346 225.416 190.099 225.29 189.832 225.25C189.778 223.785 189.566 222.305 189.402 220.856L189.355 220.422C189.189 218.847 188.797 216.924 189.555 215.449C190.271 214.056 191.914 213.073 193.131 212.128L194.124 211.344M265.465 191.906C266.1 192.28 266.694 192.744 267.232 193.325C268.928 195.155 270.14 197.431 271.32 199.622C271.955 200.801 272.568 201.994 273.208 203.17C273.487 203.682 273.773 204.189 274.063 204.694C274.196 204.927 274.594 205.39 274.792 205.676C274.572 205.988 274.346 206.295 274.115 206.6C274.027 206.716 267.944 213.455 265.824 216.092C262.578 220.132 259.676 224.399 257.195 228.967C254.765 233.44 252.916 238.175 250.665 242.735C249.539 245.017 248.281 247.284 246.677 249.259C246.615 249.336 246.55 249.409 246.487 249.485C245.875 247.803 244.306 246.003 243.536 244.969L243.464 244.872C241.717 242.477 239.873 240.154 237.988 237.87C236.266 235.785 234.501 233.745 232.693 231.739L232.013 230.988C230.753 229.604 229.153 227.534 227.309 226.545C227.507 226.187 227.736 225.832 227.999 225.482C229.726 223.186 232.169 221.52 234.579 220.016L236.141 219.049C242.032 215.398 247.832 211.577 252.946 206.833C255.652 204.322 258.32 201.693 260.595 198.765L261.399 197.729M255.635 190.098C258.394 190.334 261.373 190.278 263.922 191.192C261.656 193.371 259.502 195.724 257.288 197.94C257.092 196.441 256.689 194.961 256.348 193.499" fill="black"/>
<path d="M290.444 77.2802L290.444 172.082C290.444 172.082 292.668 200.804 226.229 200.804C176.777 200.804 170.036 171.342 170.036 163.977C170.036 139.674 179.423 86.884 179.423 86.884L181.665 69.1382C182.837 59.8695 183.101 55.9424 193.149 56.5093C197.169 56.7363 197.629 56.8094 200.565 57.006L275.629 62.1447C284.904 62.7664 290.333 69.2897 290.444 77.2802Z" fill="#FFCC5A" stroke="black" stroke-width="3.7242" stroke-miterlimit="10"/>
<path d="M204.424 168.801C217.186 172.199 231.852 173.514 249.152 172.072" stroke="#150C0C" stroke-width="4" stroke-linecap="round"/>
<path d="M173.249 55.1608L192.918 56.4767C190.528 82.2696 180.31 80.0226 180.31 80.0226C180.505 77.1221 180.201 76.6643 177.968 74.6643L172.989 71.1638C172.586 70.8875 172.649 70.2968 173.092 70.0989L180.878 66.6387L182.065 66.1451C183.345 65.5001 183.203 64.655 182.522 64.0014C182.514 63.9965 182.51 63.9875 182.501 63.9825C179.589 61.2503 172.743 56.2075 172.743 56.2075C172.337 55.7953 172.663 55.1216 173.249 55.1608Z" fill="#FFCC5A"/>
<path d="M198.092 56.8228L173.249 55.1608C172.663 55.1216 172.337 55.7953 172.743 56.2076C172.743 56.2076 179.589 61.2504 182.501 63.9827C182.51 63.9877 182.514 63.9967 182.523 64.0017C183.203 64.6553 183.345 65.5004 182.066 66.1454L180.878 66.6391L173.092 70.0994C172.649 70.2972 172.586 70.888 172.989 71.1643L177.968 74.6649C180.201 76.6649 180.506 77.1227 180.31 80.0233" stroke="black" stroke-width="3.72491" stroke-miterlimit="10"/>
<path d="M238.868 125.737C239.259 123.665 238.81 121.522 237.618 119.781C236.427 118.04 234.591 116.842 232.515 116.452C230.439 116.062 228.292 116.511 226.547 117.701C224.802 118.89 223.601 120.723 223.21 122.795" stroke="black" stroke-width="3.71552"/>
<path d="M290.2 128.306C287.537 142.397 273.932 151.675 259.804 149.021C245.677 146.367 236.39 132.787 239.052 118.696C241.714 104.605 255.32 95.3267 269.447 97.9809C283.574 100.635 292.862 114.215 290.2 128.306Z" fill="#007EFF" stroke="black" stroke-width="3.71552"/>
<path d="M222.971 124.764C220.309 138.856 206.703 148.134 192.576 145.48C178.449 142.826 169.162 129.246 171.824 115.155C174.486 101.064 188.092 91.7854 202.219 94.4396C216.346 97.0938 225.634 110.673 222.971 124.764Z" fill="#007EFF" stroke="black" stroke-width="3.71552"/>
<path d="M106.143 302.614C96.1646 300.15 92.8386 305.694 92.4228 308.775C86.1865 324.177 92.4228 329.105 106.143 331.57C119.863 334.034 114.874 325.409 118.615 318.632C122.357 311.855 118.616 305.694 106.143 302.614Z" fill="#2A93FF" stroke="black" stroke-dasharray="2 2"/>
<path d="M95.3019 321.567C95.9999 320.061 96.6726 318.587 97.32 317.144C97.5875 316.539 97.8685 315.901 98.1631 315.228C98.4577 314.555 98.7439 313.893 99.0216 313.242C99.2993 312.59 99.5661 311.96 99.8218 311.353C100.078 310.746 100.304 310.187 100.502 309.678C100.865 309.646 101.218 309.632 101.562 309.633C101.908 309.623 102.257 309.626 102.61 309.641C102.975 309.66 103.309 309.702 103.614 309.769C104.142 309.884 104.562 310.069 104.875 310.321C105.2 310.577 105.441 310.881 105.597 311.235C105.755 311.577 105.838 311.957 105.844 312.376C105.851 312.795 105.804 313.233 105.704 313.69C105.56 314.347 105.299 314.953 104.919 315.509C104.551 316.067 104.11 316.542 103.594 316.932C103.093 317.314 102.548 317.588 101.959 317.754C101.382 317.922 100.812 317.945 100.249 317.822L100.055 317.779C99.8744 318.157 99.6916 318.572 99.5069 319.023C99.3222 319.474 99.157 319.892 99.0112 320.278C98.8265 320.729 98.6477 321.181 98.4747 321.635L95.3019 321.567ZM102.586 311.774C102.288 312.519 101.998 313.223 101.718 313.887C101.438 314.55 101.135 315.258 100.811 316.01C101.009 316.004 101.225 315.941 101.461 315.821C101.71 315.691 101.952 315.51 102.187 315.279C102.425 315.036 102.636 314.745 102.821 314.405C103.006 314.064 103.142 313.695 103.229 313.296C103.324 312.863 103.296 312.512 103.146 312.246C103.007 311.982 102.82 311.825 102.586 311.774ZM102.172 323.089C102.83 321.538 103.477 320.015 104.111 318.52C104.36 317.886 104.626 317.232 104.909 316.557C105.195 315.87 105.472 315.194 105.74 314.528C106.009 313.862 106.266 313.218 106.513 312.596C106.762 311.963 106.987 311.385 107.187 310.864L110.078 311.294C109.699 312.071 109.312 312.883 108.918 313.73C108.536 314.58 108.17 315.409 107.821 316.217L109.604 316.405C109.951 315.609 110.273 314.838 110.571 314.092C110.872 313.335 111.219 312.563 111.612 311.777C111.892 311.789 112.198 311.82 112.532 311.868C112.868 311.905 113.179 311.942 113.465 311.98C113.752 312.018 113.99 312.052 114.18 312.081C114.385 312.101 114.487 312.111 114.487 312.111C114.207 312.603 113.922 313.149 113.631 313.748C113.355 314.339 113.072 314.959 112.782 315.608C112.495 316.245 112.212 316.896 111.931 317.559C111.651 318.223 111.39 318.853 111.149 319.452C110.565 320.884 109.991 322.355 109.427 323.866L106.615 323.582C106.921 322.912 107.206 322.256 107.47 321.613C107.71 321.076 107.955 320.516 108.206 319.932C108.468 319.35 108.682 318.85 108.847 318.432L107.107 318.217C106.928 318.645 106.715 319.139 106.47 319.699C106.236 320.262 106.014 320.797 105.805 321.304C105.538 321.909 105.27 322.514 105.003 323.118L102.172 323.089Z" fill="white"/>
<defs>
<clipPath id="clip0_344_1214">
<rect width="153" height="136" fill="white" transform="translate(269 126)"/>
</clipPath>
<clipPath id="clip1_344_1214">
<rect width="272" height="219" fill="white"/>
</clipPath>
</defs>
</svg>
