<svg width="254" height="117" viewBox="0 0 254 117" fill="none" xmlns="http://www.w3.org/2000/svg">
<path d="M39.7148 98.2783C39.7148 98.1982 39.7282 98.0514 39.7549 97.8379C39.8083 97.5977 39.835 97.4508 39.835 97.3975C40.5023 96.9437 41.2363 96.3564 42.0371 95.6357C42.8379 94.8883 43.5853 94.0876 44.2793 93.2334C44.9733 92.3525 45.5472 91.4316 46.001 90.4707C46.4814 89.5098 46.7217 88.5488 46.7217 87.5879C46.7217 87.5345 46.7083 87.4811 46.6816 87.4277C46.6816 87.3743 46.6816 87.321 46.6816 87.2676C46.6816 87.2409 46.6816 87.2008 46.6816 87.1475C46.5749 87.0407 46.4014 86.8672 46.1611 86.627C45.9209 86.36 45.6673 86.0931 45.4004 85.8262C45.1335 85.5592 44.8665 85.3057 44.5996 85.0654C44.3594 84.8252 44.1992 84.6517 44.1191 84.5449C44.0658 84.5449 43.999 84.5316 43.9189 84.5049C43.8656 84.5049 43.8122 84.5049 43.7588 84.5049C43.7321 84.4782 43.6921 84.4648 43.6387 84.4648C43.1315 84.4648 42.5443 84.6784 41.877 85.1055C41.2096 85.5059 40.5557 85.973 39.915 86.5068C39.2744 87.014 38.7005 87.5078 38.1934 87.9883C37.7129 88.4421 37.3926 88.7357 37.2324 88.8691C37.179 88.8958 37.1123 88.9092 37.0322 88.9092C36.9788 88.9359 36.8988 88.9492 36.792 88.9492C36.6852 88.9492 36.6185 88.9359 36.5918 88.9092C36.5117 88.9092 36.445 88.8958 36.3916 88.8691C36.2848 88.8158 36.1113 88.6823 35.8711 88.4688C35.6576 88.2285 35.5374 88.055 35.5107 87.9482V87.5879V87.1475C35.7243 86.4801 36.0179 85.6393 36.3916 84.625C36.7653 83.6107 37.139 82.5563 37.5127 81.4619C37.8864 80.3408 38.2067 79.2331 38.4736 78.1387C38.7673 77.0176 38.9141 76.0166 38.9141 75.1357C38.9141 74.4951 38.8874 73.8678 38.834 73.2539C38.7806 72.6133 38.6471 72.0394 38.4336 71.5322C38.2201 71.0251 37.9131 70.6247 37.5127 70.3311C37.1123 70.0374 36.5651 69.8906 35.8711 69.8906C34.9368 69.8906 34.1094 70.1576 33.3887 70.6914C32.6947 71.1986 32.0941 71.8525 31.5869 72.6533C31.1064 73.4274 30.7594 74.2682 30.5459 75.1758C30.3324 76.0566 30.279 76.8841 30.3857 77.6582H28.6641C28.6374 77.6582 28.584 77.5247 28.5039 77.2578C28.4238 76.9909 28.3304 76.6839 28.2236 76.3369C28.1436 75.9632 28.0635 75.5895 27.9834 75.2158C27.9033 74.8154 27.8366 74.4951 27.7832 74.2549V73.4141C27.7832 72.4798 28.0501 71.599 28.584 70.7715C29.1178 69.9173 29.7852 69.1699 30.5859 68.5293C31.3867 67.8887 32.2409 67.3815 33.1484 67.0078C34.0827 66.6341 34.9502 66.4473 35.751 66.4473C36.9788 66.4473 37.9932 66.6608 38.7939 67.0879C39.6214 67.515 40.2887 68.0889 40.7959 68.8096C41.3298 69.5303 41.7168 70.3577 41.957 71.292C42.224 72.2262 42.3975 73.2005 42.4775 74.2148C42.5576 75.2292 42.571 76.2702 42.5176 77.3379C42.4642 78.3789 42.4108 79.3532 42.3574 80.2607C43.4518 80.4476 44.4661 80.7145 45.4004 81.0615C46.3613 81.4085 47.1888 81.8757 47.8828 82.4629C48.6035 83.0234 49.1641 83.7308 49.5645 84.585C49.9915 85.4124 50.2051 86.4268 50.2051 87.6279C50.2051 88.2952 50.085 89.056 49.8447 89.9102C49.6045 90.7643 49.2575 91.6585 48.8037 92.5928C48.3766 93.5003 47.8695 94.3945 47.2822 95.2754C46.7217 96.1562 46.1077 96.957 45.4404 97.6777C44.7731 98.3717 44.0658 98.9323 43.3184 99.3594C42.571 99.7865 41.8236 100 41.0762 100C40.569 100 40.2087 99.8265 39.9951 99.4795C39.8083 99.1058 39.7148 98.7054 39.7148 98.2783ZM126.439 96.8369C126.493 96.6501 126.573 96.3164 126.68 95.8359C126.813 95.3555 126.933 94.8483 127.04 94.3145C127.174 93.7539 127.294 93.2467 127.4 92.793C127.507 92.3125 127.587 91.9788 127.641 91.792C127.827 91.0446 128.108 90.0169 128.481 88.709C128.855 87.3743 129.309 85.9596 129.843 84.4648C130.403 82.9434 131.031 81.4219 131.725 79.9004C132.445 78.3522 133.233 77.0042 134.087 75.8564C134.968 74.682 135.915 73.7878 136.93 73.1738C137.944 72.5599 139.038 72.4131 140.213 72.7334C139.839 74.2282 139.359 75.6429 138.771 76.9775C138.211 78.2855 137.597 79.5801 136.93 80.8613C136.289 82.1159 135.622 83.3704 134.928 84.625C134.26 85.8529 133.606 87.1074 132.966 88.3887C132.325 89.6699 131.738 91.0046 131.204 92.3926C130.697 93.7806 130.297 95.262 130.003 96.8369C129.869 97.611 129.616 98.0648 129.242 98.1982C128.868 98.305 128.441 98.2917 127.961 98.1582C127.614 98.0781 127.294 97.958 127 97.7979C126.706 97.6377 126.52 97.3174 126.439 96.8369ZM159.191 95.2754C159.191 93.7272 159.578 92.3525 160.353 91.1514C161.127 89.9502 162.088 88.9092 163.235 88.0283C164.383 87.1208 165.624 86.36 166.959 85.7461C168.294 85.1055 169.535 84.585 170.683 84.1846C171.83 83.7575 172.791 83.4238 173.565 83.1836C174.34 82.9167 174.727 82.7031 174.727 82.543C174.727 81.6087 174.673 80.7012 174.566 79.8203C174.486 78.9128 174.393 78.0052 174.286 77.0977C174.179 76.1901 174.073 75.2959 173.966 74.415C173.886 73.5075 173.846 72.6133 173.846 71.7324V69.1299C174.94 68.7295 175.714 68.7695 176.168 69.25C176.648 69.7305 176.729 70.5579 176.408 71.7324C176.515 72.3197 176.662 73.2406 176.849 74.4951C177.035 75.7497 177.236 77.1644 177.449 78.7393C177.689 80.3141 177.93 81.9691 178.17 83.7041C178.437 85.4391 178.677 87.1074 178.891 88.709C179.131 90.2839 179.331 91.6986 179.491 92.9531C179.651 94.181 179.771 95.1019 179.852 95.7158C179.878 95.8493 179.905 96.1162 179.932 96.5166C179.958 96.8903 179.972 97.304 179.972 97.7578C179.998 98.1849 180.012 98.5853 180.012 98.959C180.038 99.3327 180.052 99.5996 180.052 99.7598C179.037 99.7598 178.343 99.7197 177.97 99.6396C177.623 99.5596 177.396 99.3994 177.289 99.1592C177.209 98.9189 177.169 98.5719 177.169 98.1182C177.169 97.6644 177.035 97.0371 176.769 96.2363C175.781 97.0104 174.847 97.651 173.966 98.1582C173.085 98.6654 172.204 99.0791 171.323 99.3994C170.442 99.693 169.548 99.8932 168.641 100C167.76 100.133 166.812 100.2 165.798 100.2C164.944 100.2 164.116 100.133 163.315 100C162.541 99.8398 161.847 99.5729 161.233 99.1992C160.619 98.8255 160.126 98.3184 159.752 97.6777C159.378 97.0371 159.191 96.2363 159.191 95.2754ZM162.675 94.4346C162.675 94.8617 162.768 95.2087 162.955 95.4756C163.142 95.7425 163.382 95.9694 163.676 96.1562C163.969 96.3431 164.276 96.4766 164.597 96.5566C164.944 96.61 165.277 96.6367 165.598 96.6367C166.532 96.6367 167.533 96.4632 168.601 96.1162C169.695 95.7425 170.696 95.2354 171.604 94.5947C172.538 93.9274 173.299 93.14 173.886 92.2324C174.5 91.3249 174.807 90.3372 174.807 89.2695C174.807 88.4421 174.66 87.8682 174.366 87.5479C174.073 87.2275 173.512 87.0674 172.685 87.0674C171.83 87.0674 170.829 87.2676 169.682 87.668C168.561 88.0684 167.466 88.6022 166.398 89.2695C165.357 89.9368 164.477 90.7243 163.756 91.6318C163.035 92.5127 162.675 93.4469 162.675 94.4346ZM199.631 94.835C198.617 95.529 197.736 96.1562 196.988 96.7168C196.268 97.2507 195.56 97.7044 194.866 98.0781C194.172 98.4518 193.425 98.7321 192.624 98.9189C191.85 99.1058 190.889 99.1992 189.741 99.1992C187.259 99.1992 185.417 98.5452 184.216 97.2373C183.015 95.9027 182.414 93.9274 182.414 91.3115C182.414 90.2972 182.548 89.2428 182.814 88.1484C183.081 87.054 183.468 85.973 183.976 84.9053C184.509 83.8109 185.137 82.7832 185.857 81.8223C186.578 80.8346 187.392 79.9671 188.3 79.2197C189.207 78.4723 190.168 77.8851 191.183 77.458C192.224 77.0042 193.318 76.7773 194.466 76.7773C196.388 76.9642 197.896 77.4447 198.99 78.2188C200.085 78.9661 200.912 79.9404 201.473 81.1416C202.033 82.3161 202.42 83.6374 202.634 85.1055C202.847 86.5469 203.007 88.0417 203.114 89.5898C203.248 91.138 203.408 92.6862 203.595 94.2344C203.782 95.7826 204.169 97.2106 204.756 98.5186C204.409 99.3994 204.075 100.013 203.755 100.36C203.461 100.734 203.128 100.801 202.754 100.561C202.38 100.32 201.94 99.7331 201.433 98.7988C200.952 97.8646 200.352 96.5433 199.631 94.835ZM185.817 91.3916C185.817 92.9131 186.098 94.0342 186.658 94.7549C187.245 95.4489 188.273 95.7959 189.741 95.7959C190.836 95.7959 191.877 95.609 192.864 95.2354C193.879 94.835 194.759 94.3011 195.507 93.6338C196.254 92.9398 196.855 92.1123 197.309 91.1514C197.762 90.1904 197.989 89.1227 197.989 87.9482C197.989 87.4678 198.003 86.8005 198.029 85.9463C198.056 85.0654 198.003 84.1979 197.869 83.3438C197.736 82.4896 197.482 81.7555 197.108 81.1416C196.735 80.501 196.174 80.1807 195.427 80.1807C194.039 80.1807 192.757 80.541 191.583 81.2617C190.409 81.9557 189.394 82.8499 188.54 83.9443C187.686 85.0387 187.019 86.2533 186.538 87.5879C186.058 88.8958 185.817 90.1637 185.817 91.3916ZM206.598 79.2998C206.598 79.0596 206.598 78.8193 206.598 78.5791C206.624 78.3122 206.678 78.0719 206.758 77.8584C206.865 77.6182 206.998 77.4447 207.158 77.3379C207.345 77.2044 207.612 77.1377 207.959 77.1377C207.986 77.1377 208.012 77.1377 208.039 77.1377C208.092 77.1377 208.146 77.1377 208.199 77.1377C208.279 77.1644 208.346 77.1777 208.399 77.1777C208.907 77.8717 209.347 78.766 209.721 79.8604C210.094 80.9281 210.455 82.0758 210.802 83.3037C211.149 84.5049 211.522 85.7327 211.923 86.9873C212.323 88.2152 212.844 89.3229 213.484 90.3105C214.125 91.2982 214.912 92.0856 215.847 92.6729C216.781 93.2601 217.942 93.5137 219.33 93.4336C219.944 93.4336 220.344 93.0999 220.531 92.4326C220.718 91.7653 220.812 90.9111 220.812 89.8701C220.838 88.8291 220.812 87.6813 220.731 86.4268C220.678 85.1722 220.678 83.9844 220.731 82.8633C220.812 81.7155 221.012 80.7145 221.332 79.8604C221.679 79.0062 222.266 78.4323 223.094 78.1387C223.441 78.8327 223.721 79.9271 223.935 81.4219C224.175 82.89 224.348 84.5983 224.455 86.5469C224.562 88.4688 224.615 90.5641 224.615 92.833C224.615 95.0752 224.562 97.3174 224.455 99.5596C224.348 101.775 224.188 103.91 223.975 105.966C223.761 108.021 223.521 109.823 223.254 111.371C222.987 112.919 222.667 114.134 222.293 115.015C221.946 115.922 221.572 116.309 221.172 116.176C220.611 115.642 220.171 114.948 219.851 114.094C219.557 113.24 219.343 112.292 219.21 111.251C219.103 110.21 219.063 109.102 219.09 107.928C219.117 106.78 219.157 105.619 219.21 104.444C219.29 103.27 219.37 102.122 219.45 101.001C219.557 99.8799 219.61 98.8522 219.61 97.918C218.649 97.998 217.662 97.8512 216.647 97.4775C215.66 97.1038 214.686 96.5299 213.725 95.7559C212.764 94.9551 211.843 93.9941 210.962 92.873C210.108 91.752 209.347 90.484 208.68 89.0693C208.039 87.6546 207.532 86.1331 207.158 84.5049C206.785 82.8499 206.598 81.1149 206.598 79.2998Z" fill="white"/>
<path d="M61 86.4082C61 70.7127 67.9758 54 90.5016 54C105.18 54 117.736 67.3993 119.218 83.0075C121.021 101.987 110.237 113.497 89.0483 115.852C74.4574 117.45 61 106.027 61 86.4082Z" fill="#FFE376"/>
<path d="M86.8685 112.16C81.6657 112.16 76.7536 110.3 72.8297 106.754C67.4817 101.987 64.546 94.6626 64.546 86.1755C64.546 80.7693 65.5052 73.0378 70.0685 66.9049C74.5446 60.8593 81.4041 57.8074 90.4435 57.8074C103.029 57.8074 114.335 69.2011 115.672 83.2108C117.242 99.7491 107.854 109.98 89.2809 112.015C88.4961 112.131 87.6823 112.16 86.8685 112.16ZM90.4726 59.4641C83.1771 59.4641 66.2028 62.08 66.2028 86.2045C66.2028 94.2266 68.935 101.086 73.9342 105.562C78.1197 109.312 83.5259 111.027 89.1355 110.416C97.9134 109.457 104.54 106.609 108.784 102.016C113.027 97.4239 114.801 91.1457 114.074 83.3852C112.795 70.1894 102.215 59.4641 90.4726 59.4641Z" fill="#30262A"/>
<path d="M74.8633 78.0586C75.0664 77.026 75.4388 76.2135 75.9805 75.6211C76.5221 75.0117 77.14 74.597 77.834 74.377C78.5449 74.1569 79.2982 74.1061 80.0938 74.2246C80.9062 74.3262 81.668 74.5716 82.3789 74.9609C83.1068 75.3503 83.7415 75.8581 84.2832 76.4844C84.8249 77.0938 85.2057 77.7962 85.4258 78.5918C85.6458 79.3704 85.6458 80.2168 85.4258 81.1309C85.2057 82.0449 84.7064 82.9844 83.9277 83.9492C84.5371 84.1693 85.1042 84.3893 85.6289 84.6094C86.1536 84.8294 86.5938 85.1003 86.9492 85.4219C87.3216 85.7435 87.6094 86.1328 87.8125 86.5898C88.0156 87.0469 88.1172 87.6139 88.1172 88.291C88.1172 88.8496 88.0156 89.4421 87.8125 90.0684C87.6094 90.6947 87.3216 91.3125 86.9492 91.9219C86.5938 92.5312 86.1706 93.1152 85.6797 93.6738C85.2057 94.2155 84.6895 94.6979 84.1309 95.1211C83.5723 95.5443 82.9967 95.8828 82.4043 96.1367C81.8288 96.3737 81.2617 96.4922 80.7031 96.4922C80.3307 96.4922 79.9668 96.2552 79.6113 95.7812C79.2559 95.3073 78.9089 94.681 78.5703 93.9023C78.2318 93.1237 77.9017 92.2266 77.5801 91.2109C77.2585 90.1953 76.9622 89.1458 76.6914 88.0625C76.4206 86.9622 76.1751 85.8789 75.9551 84.8125C75.735 83.7292 75.5404 82.7305 75.3711 81.8164C75.2188 80.9023 75.0918 80.1152 74.9902 79.4551C74.9056 78.778 74.8633 78.3125 74.8633 78.0586ZM79.3828 89.0527C79.3828 89.3405 79.4505 89.7214 79.5859 90.1953C79.7214 90.6693 79.8906 91.1432 80.0938 91.6172C80.3138 92.0911 80.5508 92.5312 80.8047 92.9375C81.0586 93.3268 81.3294 93.5892 81.6172 93.7246C81.8542 93.86 82.1335 93.8516 82.4551 93.6992C82.7767 93.5299 83.0983 93.276 83.4199 92.9375C83.7585 92.582 84.0801 92.1842 84.3848 91.7441C84.6895 91.2871 84.9603 90.8385 85.1973 90.3984C85.4512 89.9583 85.6458 89.5521 85.7812 89.1797C85.9336 88.7904 86.0098 88.4941 86.0098 88.291C86.0098 87.8509 85.9505 87.4954 85.832 87.2246C85.7135 86.9368 85.5358 86.7083 85.2988 86.5391C85.0788 86.3698 84.8079 86.2513 84.4863 86.1836C84.1816 86.1159 83.8431 86.082 83.4707 86.082C83.0475 86.082 82.599 86.1497 82.125 86.2852C81.651 86.4206 81.2109 86.6152 80.8047 86.8691C80.4154 87.123 80.0768 87.4362 79.7891 87.8086C79.5182 88.181 79.3828 88.5957 79.3828 89.0527ZM77.7578 80.4199C77.7578 80.7246 77.7493 81.1055 77.7324 81.5625C77.7155 82.0026 77.7155 82.4596 77.7324 82.9336C77.7493 83.4076 77.8001 83.8815 77.8848 84.3555C77.9694 84.8294 78.1217 85.2357 78.3418 85.5742C79.1712 85.4219 79.8906 85.1341 80.5 84.7109C81.1263 84.2878 81.6257 83.7969 81.998 83.2383C82.3874 82.6628 82.6667 82.0534 82.8359 81.4102C83.0052 80.7669 83.0645 80.1406 83.0137 79.5312C82.9798 78.9219 82.8359 78.3633 82.582 77.8555C82.3451 77.3477 82.0065 76.9583 81.5664 76.6875C81.1263 76.3997 80.5931 76.2559 79.9668 76.2559C79.3405 76.2559 78.6211 76.459 77.8086 76.8652C77.8086 77.0007 77.8001 77.2376 77.7832 77.5762C77.7832 77.9147 77.7747 78.2702 77.7578 78.6426C77.7578 79.015 77.7578 79.3704 77.7578 79.709C77.7578 80.0475 77.7578 80.2845 77.7578 80.4199ZM91.2636 79.0742C91.2636 78.9388 91.2721 78.7188 91.289 78.4141C91.289 78.0924 91.289 77.7624 91.289 77.4238C91.289 77.0684 91.2974 76.7383 91.3144 76.4336C91.3144 76.112 91.3144 75.8919 91.3144 75.7734C91.5006 75.418 91.7883 75.1641 92.1777 75.0117C92.5839 74.8424 93.0155 74.7324 93.4726 74.6816C93.9465 74.6139 94.4036 74.5885 94.8437 74.6055C95.3007 74.6224 95.6731 74.6309 95.9609 74.6309C96.3333 74.6309 96.7649 74.6478 97.2558 74.6816C97.7636 74.7155 98.2629 74.7832 98.7538 74.8848C99.2616 74.9694 99.761 75.1048 100.252 75.291C100.743 75.4603 101.174 75.6888 101.547 75.9766C101.936 76.2474 102.241 76.5859 102.461 76.9922C102.698 77.3815 102.816 77.847 102.816 78.3887C102.816 79.0319 102.664 79.6159 102.359 80.1406C102.055 80.6484 101.674 81.1309 101.217 81.5879C100.777 82.028 100.286 82.4427 99.7441 82.832C99.2193 83.2214 98.7284 83.6022 98.2714 83.9746C97.8313 84.347 97.4589 84.7279 97.1542 85.1172C96.8495 85.5065 96.6972 85.9297 96.6972 86.3867C96.6972 86.4206 96.7057 86.4714 96.7226 86.5391C96.7564 86.5898 96.7734 86.6237 96.7734 86.6406C98.7708 87.2331 100.709 87.9525 102.588 88.7988C104.484 89.6452 106.346 90.5592 108.174 91.541C108.225 91.5749 108.275 91.6426 108.326 91.7441C108.394 91.8288 108.453 91.9388 108.504 92.0742C108.555 92.1927 108.605 92.3027 108.656 92.4043C108.707 92.5059 108.732 92.5905 108.732 92.6582C108.732 92.8105 108.69 92.929 108.605 93.0137C108.521 93.0814 108.419 93.1406 108.301 93.1914C108.182 93.2253 108.064 93.2422 107.945 93.2422C107.827 93.2422 107.725 93.2422 107.641 93.2422C106.726 93.2422 105.812 93.0475 104.898 92.6582C104.001 92.252 103.096 91.8034 102.182 91.3125C101.267 90.8216 100.337 90.373 99.3886 89.9668C98.4576 89.5605 97.4843 89.3574 96.4687 89.3574H95.6562C95.927 89.9837 96.164 90.5423 96.3671 91.0332C96.5872 91.5241 96.7649 91.998 96.9003 92.4551C97.0527 92.9121 97.1627 93.3776 97.2304 93.8516C97.315 94.3086 97.3573 94.8079 97.3573 95.3496C97.3573 95.4681 97.3573 95.612 97.3573 95.7812C97.3573 95.9336 97.3489 96.0944 97.332 96.2637C97.315 96.4329 97.2642 96.5853 97.1796 96.7207C97.095 96.8561 96.9596 96.9492 96.7734 97C96.0793 96.5938 95.453 95.9674 94.8945 95.1211C94.3528 94.2578 93.8788 93.276 93.4726 92.1758C93.0663 91.0755 92.7193 89.9076 92.4316 88.6719C92.1607 87.4362 91.9322 86.2259 91.746 85.041C91.5767 83.8392 91.4498 82.722 91.3652 81.6895C91.2974 80.64 91.2636 79.7682 91.2636 79.0742ZM93.4472 80.6738C93.4472 80.8939 93.4303 81.1816 93.3964 81.5371C93.3795 81.8757 93.3795 82.2311 93.3964 82.6035C93.4133 82.959 93.4641 83.306 93.5487 83.6445C93.6503 83.9661 93.8111 84.2454 94.0312 84.4824C94.065 84.4993 94.0989 84.5078 94.1327 84.5078C94.1497 84.5247 94.192 84.5332 94.2597 84.5332C94.5644 84.5332 94.9283 84.4401 95.3515 84.2539C95.7916 84.0677 96.2486 83.8223 96.7226 83.5176C97.1965 83.2129 97.662 82.8659 98.1191 82.4766C98.593 82.0703 99.0162 81.6556 99.3886 81.2324C99.761 80.8092 100.057 80.3861 100.277 79.9629C100.514 79.5228 100.633 79.125 100.633 78.7695C100.633 78.431 100.506 78.1432 100.252 77.9062C99.998 77.6523 99.6933 77.4492 99.3378 77.2969C98.9823 77.1445 98.6099 77.0345 98.2206 76.9668C97.8482 76.8991 97.5435 76.8652 97.3066 76.8652C97.0188 76.8652 96.6803 76.8652 96.2909 76.8652C95.9016 76.8483 95.5123 76.8737 95.123 76.9414C94.7506 76.9922 94.412 77.0938 94.1073 77.2461C93.8027 77.3984 93.5911 77.627 93.4726 77.9316C93.4726 78.0332 93.4726 78.2109 93.4726 78.4648C93.4726 78.7188 93.4726 78.998 93.4726 79.3027C93.4726 79.5905 93.4641 79.8613 93.4472 80.1152C93.4472 80.3691 93.4472 80.5553 93.4472 80.6738Z" fill="#525F46"/>
</svg>
