<svg width="186" height="506" viewBox="0 0 186 506" fill="none" xmlns="http://www.w3.org/2000/svg">
<rect width="185" height="505" transform="translate(0.4021 0.00195312)" fill="white"/>
<g clip-path="url(#clip0_137_7135)">
<rect width="177.052" height="496.175" transform="translate(4.68311 4.99707)" fill="#E9C8A5"/>
<path d="M10.9589 79.5524C11.3206 79.4089 16.6713 76.9863 40.6638 77.2195C55.8341 77.3188 92.5261 79.3363 92.5261 79.3363C92.5261 79.3363 141.628 75.4117 143.211 75.6766C161.323 74.7751 171.481 78.5697 171.481 78.5697C171.481 78.5697 172.072 77.322 173.139 78.5072C174.206 79.6924 171.481 98.5192 171.481 98.5192C171.481 98.5192 177.48 108.871 176.13 113.994C174.781 119.117 170.837 123.773 170.837 123.773C170.837 123.773 180.78 121.355 176.13 136.275C171.481 151.195 181.56 154.098 178.56 164.914C176.309 173.032 167.569 176.337 167.569 183.476C167.569 190.616 173.361 189.204 178.56 193.46C183.76 197.717 155.731 202.865 143.211 203.466C130.691 204.067 107.957 197.755 92.5628 202.343C77.1686 206.932 56.6219 203.307 53.554 203.466C50.486 203.625 36.1701 202.195 32.7204 202.109C29.3092 202.173 15.1856 201.493 13.5262 200.928C11.9238 200.275 11.234 200.524 10.226 199.56C7.62978 197.078 15.9911 186.332 15.9911 186.332L11.2734 158.242C11.2734 158.242 9.44031 157.597 8.58273 156.764C5.61233 153.879 16.8786 151.195 16.8786 151.195C16.8786 151.195 17.1462 149.961 11.7435 147.646C6.34084 145.331 11.1905 123.773 11.1905 123.773C11.1905 123.773 14.5727 119.557 14.8175 118.337C15.0623 117.116 15.7813 114.947 14.1019 113.994C12.4225 113.041 10.7755 112.157 10.226 111.003C9.67644 109.849 14.8165 104.231 14.8165 104.231L14.8165 98.5192C14.8165 98.5192 10.5971 79.6958 10.9589 79.5524Z" fill="white" stroke="black" stroke-width="2.14176"/>
<path d="M198.059 303.718L208.419 449.745C208.419 449.745 213.175 492.347 114.04 492.347C18.8003 492.347 23.6786 452.393 23.6786 452.393L33.737 329.171L35.297 302.448C35.8603 292.8 40.7612 285.238 47.4319 282.6C52.0118 282.599 57.9049 282.6 61.2776 282.6L62.2918 282.6H174.486C188.818 282.6 197.093 291.797 198.059 303.718Z" fill="#D7AA7B" stroke="black" stroke-width="5.39769" stroke-miterlimit="10"/>
<path d="M190.232 361.602C190.232 338.752 170.845 320.226 146.933 320.226C135.765 320.214 125.025 324.357 116.958 331.789C108.891 324.357 98.1511 320.214 86.9833 320.226C63.0718 320.226 43.6848 338.752 43.6848 361.602C43.6848 375.463 50.8412 387.696 61.7895 395.205C58.6201 402.728 56.9965 410.772 57.0084 418.89C57.0084 452.287 60.5883 475.423 116.558 475.423C173.815 475.423 176.908 452.287 176.908 418.89C176.908 410.482 175.198 402.479 172.127 395.205C183.075 387.696 190.232 375.457 190.232 361.602Z" fill="#F2D0A9"/>
<path d="M21.3617 282.578H50.782C49.8145 321.297 34.373 318.965 34.373 318.965C34.373 314.618 33.8741 313.965 30.3483 311.205L22.5819 306.479C21.955 306.107 21.9887 305.22 22.6291 304.88L33.8741 298.941L35.5932 298.086C37.4337 296.996 37.137 295.749 36.0584 294.842C36.0449 294.835 36.0381 294.822 36.0247 294.816C31.4134 291.03 20.7145 284.19 20.7145 284.19C20.0673 283.616 20.4853 282.578 21.3617 282.578Z" fill="#D7AA7A"/>
<path d="M58.5188 282.578H39.9403H21.3617C20.4853 282.578 20.0673 283.616 20.7145 284.19C20.7145 284.19 31.4134 291.03 36.0247 294.816C36.0381 294.822 36.0449 294.835 36.0584 294.842C37.137 295.749 37.4337 296.996 35.5932 298.086L33.8741 298.941L22.6291 304.88C21.9887 305.22 21.955 306.107 22.5819 306.479L30.3483 311.205C33.8741 313.965 34.373 314.618 34.373 318.965" stroke="black" stroke-width="5.39671" stroke-miterlimit="10"/>
<path d="M174.711 335.09L154.868 356.992L125.588 353.071L140.284 378.705L127.501 405.343L156.421 399.286L177.808 419.679L180.982 390.296L206.985 376.26L180.022 364.155L174.711 335.09Z" fill="#FF5A20"/>
<path d="M57.4155 335.09L77.2587 356.992L106.539 353.071L91.843 378.705L104.626 405.343L75.7059 399.286L54.3185 419.679L51.1443 390.296L25.1414 376.26L52.0965 364.155L57.4155 335.09Z" fill="#FF5A20"/>
<path d="M54.3202 422.579C53.9856 422.579 53.6511 422.519 53.3251 422.399C52.287 422.021 51.5578 421.086 51.4377 419.988L48.4265 392.123L23.7619 378.809C22.7924 378.285 22.2005 377.256 22.2434 376.149C22.2863 375.043 22.9469 374.065 23.9506 373.61L49.516 362.131L54.5604 334.567C54.7577 333.477 55.5556 332.602 56.6194 332.302C57.6832 331.993 58.8242 332.328 59.562 333.143L78.3757 353.912L106.154 350.189C107.253 350.043 108.334 350.532 108.951 351.45C109.569 352.368 109.612 353.552 109.063 354.513L95.1219 378.826L107.244 404.091C107.724 405.086 107.596 406.27 106.909 407.137C106.232 408.003 105.108 408.415 104.035 408.183L76.6084 402.435L56.3277 421.772C55.7701 422.296 55.0494 422.579 54.3202 422.579ZM31.6889 376.501L52.5186 387.748C53.3594 388.203 53.9256 389.043 54.02 389.987L56.5679 413.519L73.7001 397.185C74.395 396.524 75.3645 396.25 76.2996 396.447L99.4714 401.303L89.2281 379.958C88.8163 379.1 88.8506 378.088 89.3311 377.264L101.11 356.726L77.6465 359.866C76.7028 359.995 75.7505 359.643 75.1157 358.94L59.2188 341.396L54.9551 364.679C54.7835 365.614 54.1572 366.412 53.2907 366.798L31.6889 376.501Z" fill="black"/>
<path d="M179.901 422.004C179.206 422.004 178.519 421.755 177.979 421.274L156.969 402.727L129.782 409.521C128.71 409.787 127.577 409.427 126.865 408.586C126.153 407.745 125.973 406.57 126.419 405.558L137.563 379.847L122.705 356.091C122.121 355.156 122.113 353.964 122.696 353.029C123.279 352.085 124.343 351.562 125.441 351.665L153.34 354.324L171.347 332.851C172.059 332.01 173.183 331.633 174.256 331.899C175.328 332.156 176.16 333.005 176.4 334.086L182.491 361.436L208.477 371.92C209.498 372.331 210.202 373.292 210.287 374.39C210.373 375.488 209.824 376.544 208.872 377.11L184.739 391.359L182.8 419.318C182.723 420.425 182.028 421.386 181.007 421.798C180.647 421.926 180.278 422.004 179.901 422.004ZM157.75 396.644C158.453 396.644 159.131 396.893 159.671 397.373L177.421 413.039L179.06 389.421C179.129 388.468 179.66 387.61 180.475 387.121L200.859 375.085L178.905 366.232C178.022 365.871 177.37 365.108 177.155 364.173L172.008 341.069L156.797 359.205C156.188 359.935 155.253 360.321 154.301 360.235L130.734 357.987L143.286 378.053C143.792 378.86 143.869 379.872 143.491 380.747L134.072 402.469L157.038 396.73C157.278 396.67 157.518 396.644 157.75 396.644Z" fill="black"/>
<path d="M96.3615 373.72C95.2806 373.72 94.2425 373.111 93.7449 372.064C93.0586 370.623 93.6677 368.89 95.1176 368.195C119.19 356.716 136.254 367.929 136.974 368.41C138.304 369.302 138.647 371.112 137.755 372.433C136.863 373.754 135.061 374.106 133.74 373.222C133.105 372.802 118.564 363.442 97.6227 373.428C97.2109 373.626 96.7819 373.72 96.3615 373.72Z" fill="black"/>
<path d="M113.278 463.494C116.371 461.115 123.269 447.791 113.276 438.868" stroke="black" stroke-width="4.99654" stroke-linecap="round" stroke-linejoin="round"/>
<path d="M143.251 468.487C131.472 464.207 123.265 455.996 118.625 450.643C140.753 431.728 152.647 429.617 162.166 434.583C178.582 443.149 172.624 459.531 167.163 464.208C162.166 468.487 153.453 472.194 143.251 468.487Z" fill="#FFACB8" stroke="black" stroke-width="4.99654" stroke-linecap="round" stroke-linejoin="round"/>
<path d="M67.8089 290.98C63.9889 286.91 67.2488 281.78 68.2088 279.43L77.2088 257.87L78.5888 258.45C75.3888 266.27 72.7688 272.65 71.2088 276.46C73.3151 277.497 75.4748 278.422 77.6789 279.23C77.8889 279.32 78.0989 279.39 78.2889 279.47C107.049 290.46 139.249 288.77 159.479 266L160.109 265.71L166.699 280.16C167.669 283.02 167.789 287.18 165.029 289.62C160.849 293.29 143.189 303.94 116.659 303.2C98.1388 302.68 75.2589 298.91 67.8089 290.98Z" fill="#FF7777"/>
<path d="M142.828 227.841L160.109 265.711L159.479 266.001C158.149 263.221 156.958 260.801 155.708 258.231C155.588 257.991 155.479 257.761 155.359 257.521C154.129 255.011 152.819 252.331 151.239 249.031C137.769 263.671 116.319 264.521 98.0885 263.371C91.3334 262.995 84.7134 261.325 78.5885 258.451L77.2085 257.871L91.9485 222.571L93.3285 223.151C90.9585 228.891 88.5585 234.711 86.2185 240.341C95.9843 242.685 106.104 243.166 116.049 241.761C126.339 240.221 135.679 236.411 142.169 229.951C142.019 229.541 141.838 229.031 141.628 228.391L142.828 227.841Z" fill="#FF7777"/>
<path d="M155.708 258.23C156.958 260.8 158.149 263.22 159.479 266C139.249 288.77 107.049 290.46 78.2885 279.47C78.0985 279.39 77.8885 279.32 77.6785 279.23C75.4745 278.422 73.3147 277.497 71.2085 276.46C72.7685 272.65 75.3885 266.27 78.5885 258.45C84.7134 261.324 91.3334 262.994 98.0885 263.37C116.319 264.52 137.769 263.67 151.239 249.03C152.819 252.33 154.129 255.01 155.359 257.52C155.479 257.76 155.588 257.99 155.708 258.23Z" fill="#95ECFF"/>
<path d="M118.767 175.091L142.827 227.841L141.627 228.391C139.767 224.671 138.327 221.501 136.947 218.491L136.937 218.461C135.967 216.351 135.037 214.311 134.017 212.201C126.715 219.19 117.175 223.366 107.087 223.991C103.417 224.259 99.7298 224.135 96.0868 223.621C94.9968 223.461 94.0568 223.301 93.3268 223.151L91.9468 222.571L110.607 177.881C113.957 170.651 116.697 170.541 118.767 175.091ZM127.067 194.001C126.997 193.881 126.937 193.761 126.867 193.621C126.307 192.551 125.557 191.081 124.757 189.541C123.177 186.471 121.427 183.051 120.807 181.781C120.277 180.661 119.937 179.861 119.617 179.101C118.682 176.843 117.568 174.662 116.287 172.581L115.277 172.581C113.277 176.911 110.227 183.411 107.417 189.411C105.667 193.161 104.007 196.701 102.747 199.391C105.034 200.975 107.745 201.832 110.527 201.851C113.511 201.79 116.44 201.03 119.077 199.631C121.423 198.439 123.622 196.976 125.627 195.271C126.197 194.801 126.677 194.361 127.067 194.001Z" fill="#FF7777"/>
<path d="M141.626 228.39C141.836 229.03 142.016 229.54 142.166 229.95C135.676 236.41 126.336 240.22 116.046 241.76C106.102 243.165 95.9821 242.684 86.2163 240.34C88.5563 234.71 90.9563 228.89 93.3263 223.15C94.0563 223.3 94.9963 223.46 96.0863 223.62C99.7294 224.135 103.417 224.259 107.086 223.99C117.174 223.366 126.715 219.189 134.016 212.2C135.036 214.31 135.966 216.35 136.936 218.46L136.946 218.49C138.326 221.5 139.766 224.67 141.626 228.39Z" fill="#FDFF97"/>
<path d="M126.868 193.621C126.938 193.761 126.998 193.881 127.068 194.001C126.678 194.361 126.198 194.801 125.628 195.271C123.622 196.976 121.424 198.439 119.078 199.631C116.44 201.03 113.512 201.79 110.528 201.851C107.746 201.832 105.034 200.975 102.748 199.391C104.008 196.701 105.668 193.161 107.418 189.411C110.228 183.411 111.998 178.329 113.998 173.999L116.288 172.581C117.569 174.663 118.682 176.843 119.618 179.101C119.938 179.861 120.278 180.661 120.808 181.781C121.428 183.051 123.178 186.471 124.758 189.541C125.558 191.081 126.308 192.551 126.868 193.621Z" fill="#CEFFAE"/>
<path d="M160.109 265.711L166.699 280.161C167.669 283.021 167.789 287.181 165.029 289.621C160.849 293.291 142.829 305.841 116.966 305.841C98.4463 305.321 75.2589 298.911 67.8089 290.981C63.9889 286.911 67.2488 281.781 68.2088 279.431L77.2088 257.871L91.9488 222.571L110.609 177.881C113.959 170.651 116.699 170.541 118.769 175.091L142.829 227.841L160.109 265.711Z" stroke="black" stroke-width="4.52"/>
<path d="M93.3263 223.15C94.0563 223.3 94.9963 223.46 96.0863 223.62C99.7294 224.135 103.417 224.259 107.086 223.99C117.174 223.366 126.715 219.189 134.016 212.2C135.036 214.31 135.966 216.35 136.936 218.46L136.946 218.49C138.326 221.5 139.766 224.67 141.626 228.39C141.836 229.03 142.016 229.54 142.166 229.95C135.676 236.41 126.336 240.22 116.046 241.76C106.102 243.165 95.9821 242.684 86.2163 240.34C88.5563 234.71 90.9563 228.89 93.3263 223.15Z" stroke="black" stroke-width="4.52"/>
<path d="M127.068 194.001C126.678 194.361 126.198 194.801 125.628 195.271C123.622 196.976 121.424 198.439 119.078 199.631C116.44 201.03 113.512 201.79 110.528 201.851C107.746 201.832 105.034 200.975 102.748 199.391C104.008 196.701 105.668 193.161 107.418 189.411C110.228 183.411 113.278 176.911 115.278 172.581L116.288 172.581C117.569 174.663 118.682 176.843 119.618 179.101C119.938 179.861 120.278 180.661 120.808 181.781C121.428 183.051 123.178 186.471 124.758 189.541C125.558 191.081 126.308 192.551 126.868 193.621C126.938 193.761 126.998 193.881 127.068 194.001Z" stroke="black" stroke-width="4.52"/>
<path d="M77.4386 258.415C83.6141 261.288 90.2889 262.957 97.0999 263.333C115.481 264.482 138.108 263.633 151.689 248.999C153.282 252.298 154.603 254.976 155.843 257.485C155.964 257.725 156.075 257.955 156.196 258.195C157.457 260.764 158.657 263.183 159.998 265.962C139.6 288.722 106.134 290.412 77.1361 279.426C76.9446 279.346 76.7328 279.276 76.5211 279.186C74.2988 278.378 72.1212 277.454 69.9976 276.417C71.5705 272.609 74.2121 266.232 77.4386 258.415Z" stroke="black" stroke-width="4.52"/>
<path d="M24.1272 104.64C24.1272 104.065 24.2502 103.464 24.4963 102.835C24.7561 102.206 25.0979 101.639 25.5217 101.133C25.9455 100.613 26.4309 100.183 26.9778 99.8408C27.5383 99.499 28.1262 99.3281 28.7414 99.3281C29.0559 99.3281 29.3704 99.3828 29.6848 99.4922C29.9993 99.6016 30.2795 99.7588 30.5256 99.9639C30.7854 100.169 30.9905 100.415 31.1409 100.702C31.3049 100.989 31.387 101.311 31.387 101.666C31.1409 101.666 30.9153 101.639 30.7102 101.584C30.5188 101.529 30.3274 101.468 30.136 101.399C29.9446 101.317 29.7532 101.249 29.5618 101.194C29.384 101.14 29.1858 101.112 28.967 101.112C28.4065 101.112 27.9485 101.256 27.593 101.543C27.2512 101.816 26.9778 102.165 26.7727 102.589C26.5676 103.013 26.4241 103.471 26.342 103.963C26.2737 104.441 26.2395 104.893 26.2395 105.316C26.2395 105.385 26.2395 105.515 26.2395 105.706C26.2532 105.897 26.26 106.103 26.26 106.321C26.2737 106.526 26.2805 106.725 26.2805 106.916C26.2942 107.107 26.3079 107.237 26.3215 107.306C26.4719 107.634 26.6155 107.887 26.7522 108.064C26.9026 108.242 27.0598 108.379 27.2239 108.475C27.3879 108.557 27.5657 108.611 27.7571 108.639C27.9485 108.652 28.1741 108.659 28.4338 108.659C28.7893 108.659 29.0969 108.604 29.3567 108.495C29.6301 108.386 29.883 108.256 30.1155 108.105C30.3479 107.955 30.5666 107.791 30.7717 107.613C30.9768 107.422 31.1887 107.251 31.4075 107.101C31.6399 106.937 31.886 106.807 32.1457 106.711C32.4192 106.602 32.7268 106.547 33.0686 106.547C33.0686 107.217 32.9455 107.812 32.6995 108.331C32.467 108.851 32.1321 109.295 31.6946 109.664C31.2707 110.033 30.7649 110.32 30.177 110.525C29.6028 110.717 28.9739 110.812 28.2903 110.812C27.6477 110.812 27.0666 110.594 26.5471 110.156C26.0413 109.719 25.6038 109.186 25.2346 108.557C24.8791 107.914 24.6057 107.237 24.4143 106.526C24.2229 105.815 24.1272 105.187 24.1272 104.64ZM34.217 102.199C34.217 102.076 34.2239 101.953 34.2375 101.83C34.2512 101.693 34.2786 101.577 34.3196 101.481C34.3606 101.372 34.4221 101.283 34.5041 101.215C34.5998 101.146 34.7297 101.112 34.8938 101.112C35.0305 101.112 35.1809 101.222 35.345 101.44C35.5227 101.646 35.7004 101.912 35.8782 102.24C36.0559 102.555 36.2268 102.903 36.3909 103.286C36.5686 103.669 36.719 104.024 36.842 104.353C36.9788 104.667 37.0881 104.94 37.1702 105.173C37.2522 105.405 37.3 105.528 37.3137 105.542C37.4914 105.063 37.6897 104.544 37.9084 103.983C38.1272 103.423 38.3938 102.903 38.7082 102.425C39.0364 101.933 39.4192 101.522 39.8567 101.194C40.3079 100.866 40.8547 100.702 41.4973 100.702C41.8254 100.702 42.133 100.757 42.4202 100.866C42.7209 100.962 42.9807 101.112 43.1995 101.317C43.4319 101.509 43.6164 101.741 43.7532 102.015C43.8899 102.288 43.9582 102.603 43.9582 102.958C43.9582 103.259 43.8352 103.471 43.5891 103.594C43.3567 103.717 43.0901 103.778 42.7893 103.778H42.5842L41.7024 102.896C41.675 102.896 41.6545 102.89 41.6409 102.876C41.6135 102.876 41.5862 102.876 41.5588 102.876C41.5452 102.862 41.5247 102.855 41.4973 102.855C41.0188 102.855 40.6428 102.992 40.3694 103.266C40.1096 103.525 39.9114 103.854 39.7747 104.25C39.6379 104.633 39.5491 105.043 39.508 105.48C39.4807 105.904 39.467 106.294 39.467 106.649C39.467 106.923 39.4944 107.203 39.5491 107.49C39.6038 107.764 39.6653 108.037 39.7336 108.311C39.802 108.57 39.8635 108.844 39.9182 109.131C39.9729 109.404 40.0002 109.691 40.0002 109.992C40.0002 110.566 39.6926 110.854 39.0774 110.854C38.7356 110.854 38.3801 110.676 38.011 110.32C37.6418 109.951 37.2727 109.486 36.9036 108.926C36.5481 108.365 36.2063 107.75 35.8782 107.08C35.55 106.396 35.2629 105.733 35.0168 105.091C34.7707 104.448 34.5725 103.867 34.4221 103.348C34.2854 102.828 34.217 102.445 34.217 102.199ZM53.5149 108.167C52.9954 108.522 52.5442 108.844 52.1614 109.131C51.7922 109.404 51.4299 109.637 51.0745 109.828C50.719 110.02 50.3362 110.163 49.926 110.259C49.5295 110.354 49.0373 110.402 48.4495 110.402C47.178 110.402 46.2346 110.067 45.6194 109.397C45.0041 108.714 44.6965 107.702 44.6965 106.362C44.6965 105.843 44.7649 105.303 44.9016 104.742C45.0383 104.182 45.2366 103.628 45.4963 103.081C45.7698 102.521 46.0911 101.994 46.4602 101.502C46.8293 100.996 47.2463 100.552 47.7112 100.169C48.176 99.7861 48.6682 99.4854 49.1877 99.2666C49.7209 99.0342 50.2815 98.918 50.8694 98.918C51.8538 99.0137 52.6262 99.2598 53.1868 99.6562C53.7473 100.039 54.1711 100.538 54.4582 101.153C54.7454 101.755 54.9436 102.432 55.053 103.184C55.1623 103.922 55.2444 104.688 55.2991 105.48C55.3674 106.273 55.4495 107.066 55.5452 107.859C55.6409 108.652 55.8391 109.384 56.1399 110.054C55.9622 110.505 55.7913 110.819 55.6272 110.997C55.4768 111.188 55.3059 111.223 55.1145 111.1C54.9231 110.977 54.6975 110.676 54.4377 110.197C54.1916 109.719 53.884 109.042 53.5149 108.167ZM46.4397 106.403C46.4397 107.183 46.5832 107.757 46.8704 108.126C47.1711 108.481 47.6975 108.659 48.4495 108.659C49.01 108.659 49.5432 108.563 50.0491 108.372C50.5686 108.167 51.0198 107.894 51.4026 107.552C51.7854 107.196 52.093 106.772 52.3254 106.28C52.5579 105.788 52.6741 105.241 52.6741 104.64C52.6741 104.394 52.6809 104.052 52.6946 103.614C52.7082 103.163 52.6809 102.719 52.6125 102.281C52.5442 101.844 52.4143 101.468 52.2229 101.153C52.0315 100.825 51.7444 100.661 51.3616 100.661C50.6506 100.661 49.9944 100.846 49.3928 101.215C48.7913 101.57 48.2717 102.028 47.8342 102.589C47.3967 103.149 47.0549 103.771 46.8088 104.455C46.5627 105.125 46.4397 105.774 46.4397 106.403ZM64.4866 100.702C64.5139 100.675 64.5344 100.641 64.5481 100.6C64.5754 100.545 64.5891 100.504 64.5891 100.477C64.5891 100.162 64.3977 99.957 64.0149 99.8613C63.6457 99.752 63.1809 99.7041 62.6204 99.7178C62.0598 99.7178 61.4514 99.7451 60.7952 99.7998C60.1526 99.8545 59.551 99.8818 58.9905 99.8818C58.4299 99.8682 57.9582 99.7998 57.5754 99.6768C57.2063 99.54 57.0217 99.2939 57.0217 98.9385C57.0217 98.7061 57.0354 98.5352 57.0627 98.4258C57.1038 98.3027 57.1584 98.2207 57.2268 98.1797C57.2952 98.125 57.3772 98.0977 57.4729 98.0977C57.5823 98.084 57.6985 98.0771 57.8215 98.0771H58.3547C58.5188 98.0908 58.7854 98.1113 59.1545 98.1387C59.5237 98.1523 59.9407 98.1729 60.4055 98.2002C60.8704 98.2139 61.3557 98.2412 61.8616 98.2822C62.3811 98.3096 62.8664 98.3369 63.3176 98.3643C63.7825 98.3916 64.1926 98.4189 64.5481 98.4463C64.9172 98.4736 65.1975 98.4941 65.3889 98.5078C65.635 98.6582 65.8401 98.7949 66.0041 98.918C66.1819 99.041 66.3186 99.1641 66.4143 99.2871C66.5237 99.4102 66.5989 99.5469 66.6399 99.6973C66.6946 99.834 66.7219 100.012 66.7219 100.23C66.7219 100.695 66.6262 101.153 66.4348 101.604C66.2434 102.042 65.9973 102.486 65.6965 102.938C65.4094 103.375 65.0745 103.819 64.6916 104.271C64.3225 104.708 63.9602 105.146 63.6047 105.583C63.2493 106.021 62.9143 106.458 62.5998 106.896C62.2854 107.333 62.0393 107.757 61.8616 108.167H67.1321C67.5286 108.167 67.7815 108.242 67.8909 108.393C68.0002 108.543 68.0549 108.755 68.0549 109.028C68.0549 109.22 68.0344 109.397 67.9934 109.562C67.9524 109.726 67.8088 109.849 67.5627 109.931C66.9065 109.985 66.2434 110.067 65.5735 110.177C64.9036 110.286 64.2336 110.396 63.5637 110.505C62.8938 110.614 62.217 110.71 61.5334 110.792C60.8635 110.874 60.1936 110.915 59.5237 110.915C59.5237 109.931 59.6741 108.987 59.9748 108.085C60.2893 107.169 60.6858 106.287 61.1643 105.439C61.6565 104.592 62.1897 103.771 62.7639 102.979C63.3518 102.186 63.926 101.427 64.4866 100.702ZM68.9573 100.21C68.9573 100.087 68.9573 99.9639 68.9573 99.8408C68.9709 99.7041 68.9983 99.5811 69.0393 99.4717C69.094 99.3486 69.1623 99.2598 69.2444 99.2051C69.3401 99.1367 69.4768 99.1025 69.6545 99.1025C69.6682 99.1025 69.6819 99.1025 69.6955 99.1025C69.7229 99.1025 69.7502 99.1025 69.7776 99.1025C69.8186 99.1162 69.8528 99.123 69.8801 99.123C70.1399 99.4785 70.3655 99.9365 70.5569 100.497C70.7483 101.044 70.9329 101.632 71.1106 102.261C71.2883 102.876 71.4797 103.505 71.6848 104.147C71.8899 104.776 72.1565 105.344 72.4846 105.85C72.8127 106.355 73.2161 106.759 73.6946 107.06C74.1731 107.36 74.7678 107.49 75.4788 107.449C75.7932 107.449 75.9983 107.278 76.094 106.937C76.1897 106.595 76.2375 106.157 76.2375 105.624C76.2512 105.091 76.2375 104.503 76.1965 103.86C76.1692 103.218 76.1692 102.609 76.1965 102.035C76.2375 101.447 76.3401 100.935 76.5041 100.497C76.6819 100.06 76.9827 99.7656 77.4065 99.6152C77.5842 99.9707 77.7278 100.531 77.8372 101.297C77.9602 102.049 78.0491 102.924 78.1038 103.922C78.1584 104.906 78.1858 105.979 78.1858 107.142C78.1858 108.29 78.1584 109.438 78.1038 110.587C78.0491 111.722 77.967 112.815 77.8577 113.868C77.7483 114.921 77.6252 115.844 77.4885 116.637C77.3518 117.43 77.1877 118.052 76.9963 118.503C76.8186 118.968 76.6272 119.166 76.4221 119.098C76.135 118.824 75.9094 118.469 75.7454 118.031C75.595 117.594 75.4856 117.108 75.4172 116.575C75.3625 116.042 75.342 115.475 75.3557 114.873C75.3694 114.285 75.3899 113.69 75.4172 113.089C75.4582 112.487 75.4993 111.899 75.5403 111.325C75.595 110.751 75.6223 110.225 75.6223 109.746C75.1301 109.787 74.6243 109.712 74.1047 109.521C73.5989 109.329 73.0998 109.035 72.6077 108.639C72.1155 108.229 71.6438 107.736 71.1926 107.162C70.7551 106.588 70.3655 105.938 70.0237 105.214C69.6955 104.489 69.4358 103.71 69.2444 102.876C69.053 102.028 68.9573 101.14 68.9573 100.21ZM88.4192 102.199C88.4192 101.857 88.4739 101.591 88.5832 101.399C88.7063 101.208 88.9592 101.112 89.342 101.112C89.383 101.112 89.4582 101.119 89.5676 101.133C89.6907 101.133 89.7659 101.133 89.7932 101.133C89.8889 101.557 89.9846 102.021 90.0803 102.527C90.1897 103.02 90.3127 103.519 90.4495 104.024C90.5862 104.53 90.7366 105.029 90.9006 105.521C91.0784 106.014 91.2903 106.458 91.5364 106.854C91.7825 106.595 91.9602 106.287 92.0696 105.932C92.1789 105.576 92.261 105.221 92.3157 104.865C92.3704 104.496 92.4182 104.147 92.4592 103.819C92.5139 103.478 92.6164 103.19 92.7668 102.958C92.9172 102.712 93.136 102.534 93.4231 102.425C93.7239 102.315 94.134 102.315 94.6536 102.425C95.2278 102.425 95.6858 102.534 96.0276 102.753C96.3694 102.958 96.6633 103.225 96.9094 103.553C97.1692 103.867 97.4153 104.209 97.6477 104.578C97.8938 104.934 98.2014 105.255 98.5705 105.542C98.6526 105.364 98.7551 105.146 98.8782 104.886C99.0012 104.612 99.1516 104.332 99.3293 104.045C99.5207 103.744 99.719 103.45 99.9241 103.163C100.143 102.862 100.368 102.596 100.601 102.363C100.833 102.117 101.073 101.919 101.319 101.769C101.565 101.604 101.804 101.522 102.036 101.522C102.597 101.522 103.082 101.7 103.492 102.056C103.903 102.397 104.251 102.835 104.538 103.368C104.839 103.888 105.085 104.476 105.277 105.132C105.468 105.774 105.618 106.396 105.728 106.998C105.837 107.6 105.912 108.153 105.953 108.659C106.008 109.151 106.035 109.507 106.035 109.726C106.035 109.903 105.994 110.04 105.912 110.136C105.83 110.231 105.728 110.307 105.605 110.361C105.482 110.402 105.345 110.43 105.195 110.443C105.058 110.457 104.928 110.464 104.805 110.464C104.778 110.464 104.737 110.464 104.682 110.464C104.627 110.45 104.566 110.437 104.497 110.423C104.443 110.409 104.367 110.389 104.272 110.361L102.939 104.229C102.939 104.188 102.884 104.113 102.775 104.004C102.665 103.881 102.583 103.806 102.529 103.778C102.488 103.778 102.453 103.771 102.426 103.758C102.399 103.758 102.378 103.758 102.364 103.758C102.351 103.744 102.337 103.737 102.323 103.737C102.036 103.737 101.763 103.854 101.503 104.086C101.257 104.318 101.025 104.612 100.806 104.968C100.587 105.323 100.382 105.72 100.191 106.157C99.9993 106.595 99.8284 107.032 99.678 107.47C99.5276 107.894 99.3909 108.29 99.2678 108.659C99.1584 109.015 99.0696 109.288 99.0012 109.479C98.9465 109.507 98.8372 109.534 98.6731 109.562C98.509 109.575 98.3997 109.582 98.345 109.582C97.9622 109.582 97.6682 109.452 97.4631 109.192C97.258 108.919 97.0872 108.584 96.9504 108.188C96.8274 107.791 96.718 107.36 96.6223 106.896C96.5403 106.417 96.4309 105.979 96.2942 105.583C96.1711 105.187 95.9934 104.858 95.761 104.599C95.5422 104.325 95.2278 104.188 94.8176 104.188C94.6672 104.188 94.5237 104.339 94.387 104.64C94.2502 104.94 94.1272 105.323 94.0178 105.788C93.9084 106.239 93.8059 106.731 93.7102 107.265C93.6145 107.784 93.5325 108.276 93.4641 108.741C93.4094 109.192 93.3684 109.575 93.3411 109.89C93.3137 110.204 93.3 110.361 93.3 110.361C93.2727 110.402 93.218 110.45 93.136 110.505C93.0539 110.546 92.9651 110.594 92.8694 110.648C92.7873 110.703 92.6985 110.744 92.6028 110.771C92.5207 110.799 92.4592 110.812 92.4182 110.812C92.0354 110.812 91.6663 110.642 91.3108 110.3C90.9553 109.944 90.6272 109.493 90.3264 108.946C90.0393 108.386 89.7727 107.771 89.5266 107.101C89.2942 106.431 89.0959 105.774 88.9319 105.132C88.7678 104.489 88.6379 103.908 88.5422 103.389C88.4602 102.869 88.4192 102.473 88.4192 102.199ZM106.876 106.649C106.876 105.802 107.074 105.016 107.471 104.291C107.867 103.553 108.387 102.924 109.03 102.404C109.686 101.871 110.417 101.454 111.224 101.153C112.044 100.853 112.871 100.702 113.705 100.702C114.17 100.702 114.58 100.853 114.936 101.153C115.305 101.454 115.613 101.823 115.859 102.261C116.105 102.685 116.289 103.136 116.412 103.614C116.549 104.093 116.617 104.51 116.617 104.865C116.617 105.631 116.433 106.376 116.064 107.101C115.695 107.812 115.216 108.447 114.628 109.008C114.04 109.555 113.377 109.999 112.639 110.341C111.901 110.683 111.162 110.854 110.424 110.854C109.768 110.854 109.214 110.744 108.763 110.525C108.312 110.293 107.949 109.992 107.676 109.623C107.403 109.24 107.198 108.796 107.061 108.29C106.938 107.771 106.876 107.224 106.876 106.649ZM108.619 106.854C108.619 107.21 108.647 107.524 108.701 107.798C108.77 108.058 108.879 108.283 109.03 108.475C109.194 108.666 109.406 108.816 109.665 108.926C109.925 109.021 110.246 109.069 110.629 109.069C111.135 109.069 111.641 108.933 112.147 108.659C112.653 108.372 113.104 108.017 113.5 107.593C113.91 107.155 114.239 106.677 114.485 106.157C114.731 105.638 114.854 105.132 114.854 104.64C114.854 104.421 114.833 104.182 114.792 103.922C114.751 103.662 114.683 103.423 114.587 103.204C114.491 102.985 114.355 102.801 114.177 102.65C113.999 102.5 113.774 102.425 113.5 102.425C113.254 102.425 112.96 102.507 112.618 102.671C112.29 102.835 111.942 103.047 111.573 103.307C111.217 103.566 110.862 103.86 110.506 104.188C110.164 104.517 109.85 104.845 109.563 105.173C109.276 105.501 109.043 105.815 108.865 106.116C108.701 106.417 108.619 106.663 108.619 106.854ZM117.417 103.901C117.417 103.546 117.506 103.293 117.684 103.143C117.862 102.979 118.149 102.896 118.545 102.896H118.75C118.791 103.115 118.839 103.368 118.894 103.655C118.948 103.942 119.031 104.236 119.14 104.537C119.249 104.838 119.379 105.118 119.53 105.378C119.68 105.624 119.864 105.822 120.083 105.973C120.097 105.494 120.213 105.036 120.432 104.599C120.664 104.147 120.945 103.751 121.273 103.409C121.614 103.054 121.984 102.76 122.38 102.527C122.79 102.281 123.194 102.117 123.59 102.035H124.041C124.698 102.035 125.258 102.186 125.723 102.486C126.188 102.773 126.571 103.156 126.871 103.635C127.186 104.1 127.425 104.633 127.589 105.234C127.753 105.836 127.876 106.451 127.958 107.08C128.054 107.695 128.109 108.297 128.122 108.885C128.15 109.459 128.163 109.951 128.163 110.361H126.666C126.584 109.541 126.482 108.755 126.359 108.003C126.318 107.702 126.263 107.388 126.195 107.06C126.126 106.718 126.051 106.403 125.969 106.116C125.887 105.815 125.798 105.542 125.702 105.296C125.607 105.036 125.497 104.817 125.374 104.64C125.32 104.585 125.244 104.51 125.149 104.414C125.067 104.318 124.978 104.223 124.882 104.127C124.786 104.031 124.698 103.949 124.615 103.881C124.533 103.812 124.486 103.778 124.472 103.778C124.062 103.669 123.706 103.751 123.406 104.024C123.105 104.284 122.838 104.64 122.606 105.091C122.373 105.542 122.182 106.055 122.031 106.629C121.895 107.203 121.779 107.757 121.683 108.29C121.587 108.81 121.519 109.268 121.478 109.664C121.437 110.047 121.409 110.279 121.396 110.361C121.054 110.607 120.733 110.683 120.432 110.587C120.131 110.478 119.844 110.259 119.571 109.931C119.311 109.603 119.072 109.192 118.853 108.7C118.648 108.208 118.456 107.688 118.279 107.142C118.101 106.581 117.937 106.021 117.786 105.46C117.65 104.899 117.527 104.38 117.417 103.901ZM133.27 110.402C133.051 110.594 132.819 110.505 132.573 110.136C132.34 109.767 132.101 109.213 131.855 108.475C131.609 107.723 131.363 106.827 131.116 105.788C130.884 104.749 130.658 103.648 130.44 102.486C130.221 101.324 130.009 100.148 129.804 98.959C129.613 97.7559 129.442 96.6279 129.291 95.5752C129.291 95.3838 129.284 95.1924 129.271 95.001C129.271 94.7959 129.291 94.6113 129.332 94.4473C129.387 94.2695 129.476 94.1123 129.599 93.9756C129.736 93.8389 129.941 93.7363 130.214 93.668C130.241 93.6543 130.296 93.668 130.378 93.709C130.474 93.7363 130.57 93.7773 130.665 93.832C130.761 93.873 130.843 93.9209 130.911 93.9756C130.993 94.0303 131.048 94.0781 131.075 94.1191C130.898 96.6758 131.192 99.1641 131.957 101.584C131.998 101.543 132.108 101.406 132.285 101.174C132.463 100.928 132.689 100.647 132.962 100.333C133.236 100.005 133.543 99.6562 133.885 99.2871C134.24 98.918 134.61 98.5762 134.992 98.2617C135.375 97.9473 135.758 97.6875 136.141 97.4824C136.524 97.2637 136.893 97.1543 137.248 97.1543C137.453 97.1543 137.652 97.2021 137.843 97.2979C138.048 97.3936 138.151 97.5781 138.151 97.8516C138.151 97.8789 138.144 97.9199 138.13 97.9746C138.116 98.0156 138.11 98.0498 138.11 98.0771C137.891 98.2686 137.556 98.5625 137.105 98.959C136.667 99.3555 136.202 99.7998 135.71 100.292C135.218 100.784 134.746 101.297 134.295 101.83C133.844 102.363 133.502 102.869 133.27 103.348C133.229 103.43 133.215 103.505 133.229 103.573C133.242 103.628 133.256 103.696 133.27 103.778C133.42 103.833 133.659 103.915 133.988 104.024C134.316 104.134 134.678 104.264 135.074 104.414C135.471 104.551 135.895 104.701 136.346 104.865C136.797 105.016 137.221 105.166 137.617 105.316C138.014 105.467 138.369 105.604 138.684 105.727C139.012 105.836 139.258 105.918 139.422 105.973C139.614 106.055 139.771 106.109 139.894 106.137C140.017 106.164 140.113 106.205 140.181 106.26C140.249 106.301 140.297 106.362 140.324 106.444C140.352 106.526 140.365 106.649 140.365 106.813C140.365 107.21 140.27 107.47 140.078 107.593C139.887 107.716 139.614 107.777 139.258 107.777C138.205 107.709 137.173 107.49 136.161 107.121C135.15 106.738 134.124 106.28 133.085 105.747C133.044 106.007 133.058 106.308 133.126 106.649C133.208 106.991 133.304 107.333 133.413 107.675C133.523 108.017 133.625 108.352 133.721 108.68C133.83 109.008 133.892 109.302 133.906 109.562C133.933 109.821 133.906 110.026 133.823 110.177C133.741 110.327 133.557 110.402 133.27 110.402ZM141.165 105.111C141.165 104.373 141.254 103.635 141.432 102.896C141.61 102.158 141.89 101.495 142.273 100.907C142.669 100.319 143.175 99.8408 143.79 99.4717C144.419 99.1025 145.178 98.918 146.067 98.918C146.573 98.918 147.017 99.0137 147.4 99.2051C147.782 99.3828 148.104 99.6221 148.364 99.9229C148.623 100.224 148.815 100.579 148.938 100.989C149.074 101.386 149.143 101.803 149.143 102.24C149.143 102.938 148.979 103.614 148.651 104.271C148.336 104.927 147.906 105.508 147.359 106.014C146.825 106.506 146.21 106.882 145.513 107.142C144.816 107.388 144.105 107.442 143.38 107.306C143.394 107.702 143.524 108.023 143.77 108.27C144.03 108.502 144.337 108.68 144.693 108.803C145.048 108.926 145.417 109.008 145.8 109.049C146.183 109.076 146.525 109.09 146.825 109.09C147.14 109.09 147.434 109.062 147.707 109.008C147.981 108.953 148.254 108.892 148.528 108.823C148.801 108.755 149.074 108.693 149.348 108.639C149.635 108.584 149.936 108.557 150.25 108.557C150.373 108.557 150.496 108.563 150.619 108.577C150.742 108.591 150.859 108.625 150.968 108.68C151.077 108.721 151.166 108.796 151.235 108.905C151.303 109.001 151.337 109.124 151.337 109.274C151.337 109.534 151.241 109.753 151.05 109.931C150.859 110.095 150.613 110.238 150.312 110.361C150.025 110.484 149.703 110.58 149.348 110.648C148.992 110.703 148.644 110.751 148.302 110.792C147.974 110.819 147.666 110.833 147.379 110.833C147.106 110.847 146.901 110.854 146.764 110.854C145.889 110.854 145.103 110.717 144.406 110.443C143.708 110.156 143.12 109.767 142.642 109.274C142.163 108.769 141.794 108.167 141.534 107.47C141.288 106.759 141.165 105.973 141.165 105.111ZM143.339 103.778C143.339 104.257 143.401 104.605 143.524 104.824C143.66 105.043 143.982 105.152 144.488 105.152C144.843 105.152 145.192 105.091 145.533 104.968C145.875 104.831 146.183 104.646 146.456 104.414C146.743 104.182 146.969 103.908 147.133 103.594C147.297 103.279 147.379 102.938 147.379 102.568C147.379 102.363 147.359 102.151 147.318 101.933C147.29 101.714 147.222 101.516 147.113 101.338C147.003 101.146 146.86 100.996 146.682 100.887C146.518 100.764 146.299 100.702 146.026 100.702C145.615 100.702 145.24 100.798 144.898 100.989C144.57 101.167 144.289 101.406 144.057 101.707C143.824 101.994 143.647 102.322 143.524 102.691C143.401 103.047 143.339 103.409 143.339 103.778ZM152.26 100.21C152.26 100.087 152.26 99.9639 152.26 99.8408C152.274 99.7041 152.301 99.5811 152.342 99.4717C152.397 99.3486 152.465 99.2598 152.547 99.2051C152.643 99.1367 152.78 99.1025 152.957 99.1025C152.971 99.1025 152.985 99.1025 152.998 99.1025C153.026 99.1025 153.053 99.1025 153.08 99.1025C153.121 99.1162 153.156 99.123 153.183 99.123C153.443 99.4785 153.668 99.9365 153.86 100.497C154.051 101.044 154.236 101.632 154.413 102.261C154.591 102.876 154.782 103.505 154.988 104.147C155.193 104.776 155.459 105.344 155.787 105.85C156.115 106.355 156.519 106.759 156.997 107.06C157.476 107.36 158.071 107.49 158.781 107.449C159.096 107.449 159.301 107.278 159.397 106.937C159.492 106.595 159.54 106.157 159.54 105.624C159.554 105.091 159.54 104.503 159.499 103.86C159.472 103.218 159.472 102.609 159.499 102.035C159.54 101.447 159.643 100.935 159.807 100.497C159.985 100.06 160.285 99.7656 160.709 99.6152C160.887 99.9707 161.031 100.531 161.14 101.297C161.263 102.049 161.352 102.924 161.406 103.922C161.461 104.906 161.489 105.979 161.489 107.142C161.489 108.29 161.461 109.438 161.406 110.587C161.352 111.722 161.27 112.815 161.16 113.868C161.051 114.921 160.928 115.844 160.791 116.637C160.655 117.43 160.49 118.052 160.299 118.503C160.121 118.968 159.93 119.166 159.725 119.098C159.438 118.824 159.212 118.469 159.048 118.031C158.898 117.594 158.788 117.108 158.72 116.575C158.665 116.042 158.645 115.475 158.658 114.873C158.672 114.285 158.693 113.69 158.72 113.089C158.761 112.487 158.802 111.899 158.843 111.325C158.898 110.751 158.925 110.225 158.925 109.746C158.433 109.787 157.927 109.712 157.407 109.521C156.902 109.329 156.403 109.035 155.91 108.639C155.418 108.229 154.947 107.736 154.495 107.162C154.058 106.588 153.668 105.938 153.326 105.214C152.998 104.489 152.739 103.71 152.547 102.876C152.356 102.028 152.26 101.14 152.26 100.21ZM36.2576 138.89C36.4763 138.739 36.7361 138.548 37.0369 138.315C37.3513 138.069 37.6658 137.81 37.9802 137.536C38.2947 137.263 38.5886 136.976 38.8621 136.675C39.1355 136.374 39.3474 136.087 39.4978 135.813C39.6619 135.526 39.7439 135.26 39.7439 135.014C39.7439 134.768 39.6208 134.562 39.3747 134.398C38.9372 134.398 38.4587 134.419 37.9392 134.46C37.4197 134.487 36.9001 134.501 36.3806 134.501C35.8611 134.487 35.3552 134.439 34.863 134.357C34.3845 134.275 33.9538 134.125 33.571 133.906C33.1882 133.688 32.8806 133.38 32.6482 132.983C32.4294 132.573 32.3201 132.054 32.3201 131.425C32.3201 130.687 32.4568 130.023 32.7302 129.436C33.0173 128.834 33.3933 128.308 33.8581 127.856C34.323 127.392 34.8425 126.988 35.4167 126.646C36.0046 126.291 36.5925 125.99 37.1804 125.744C37.5359 125.84 37.864 126.011 38.1648 126.257C38.4656 126.503 38.7253 126.776 38.9441 127.077C38.8484 127.378 38.657 127.61 38.3699 127.774C38.0964 127.938 37.7751 128.082 37.406 128.205C37.0505 128.328 36.6746 128.458 36.2781 128.595C35.8816 128.731 35.5193 128.916 35.1912 129.148C34.8767 129.367 34.6101 129.661 34.3913 130.03C34.1726 130.386 34.0632 130.857 34.0632 131.445C34.0632 131.883 34.1726 132.204 34.3913 132.409C34.6101 132.614 34.8972 132.758 35.2527 132.84C35.6081 132.908 36.0115 132.936 36.4626 132.922C36.9138 132.895 37.3718 132.86 37.8367 132.819C38.3152 132.778 38.78 132.758 39.2312 132.758C39.6824 132.744 40.0857 132.799 40.4412 132.922C40.7966 133.031 41.0769 133.216 41.282 133.476C41.5007 133.735 41.6101 134.118 41.6101 134.624C41.6101 134.843 41.5349 135.123 41.3845 135.465C41.2478 135.807 41.0564 136.176 40.8103 136.572C40.5779 136.955 40.2976 137.338 39.9695 137.721C39.655 138.104 39.3201 138.452 38.9646 138.767C38.6228 139.067 38.2742 139.32 37.9187 139.525C37.5769 139.717 37.2556 139.812 36.9548 139.812C36.6677 139.812 36.4763 139.71 36.3806 139.505C36.2986 139.3 36.2576 139.095 36.2576 138.89ZM41.9792 129.477C41.9792 129.436 41.9861 129.401 41.9997 129.374C41.9997 129.347 42.0066 129.312 42.0203 129.271C42.0749 129.203 42.157 129.114 42.2663 129.005C42.3757 128.896 42.4441 128.841 42.4714 128.841H46.5935C46.5935 128.69 46.573 128.451 46.532 128.123C46.491 127.795 46.4499 127.433 46.4089 127.036C46.3816 126.64 46.3747 126.229 46.3884 125.806C46.4021 125.368 46.4568 124.979 46.5525 124.637C46.6619 124.281 46.8259 123.994 47.0447 123.775C47.2771 123.543 47.5984 123.427 48.0085 123.427C48.0085 124.808 48.1042 125.915 48.2956 126.749C48.4871 127.583 48.74 128.226 49.0544 128.677C49.3826 129.128 49.7517 129.422 50.1619 129.559C50.572 129.695 50.989 129.757 51.4128 129.743C51.8503 129.716 52.2742 129.647 52.6843 129.538C53.0945 129.429 53.4568 129.354 53.7712 129.312C54.0994 129.271 54.3591 129.306 54.5505 129.415C54.7419 129.511 54.8376 129.75 54.8376 130.133C54.8376 130.42 54.7693 130.625 54.6326 130.748C54.5095 130.871 54.2634 130.967 53.8943 131.035C53.7849 131.049 53.6003 131.076 53.3406 131.117C53.0945 131.145 52.8142 131.172 52.4997 131.199C52.1853 131.227 51.8503 131.261 51.4949 131.302C51.1394 131.329 50.8044 131.356 50.49 131.384C50.1755 131.411 49.8884 131.432 49.6287 131.445C49.3689 131.445 49.1775 131.445 49.0544 131.445C49.0544 131.514 49.0476 131.63 49.0339 131.794C49.0203 131.958 49.0134 132.067 49.0134 132.122C49.0134 132.724 49.1091 133.312 49.3005 133.886C49.4919 134.446 49.697 135.007 49.9158 135.567C50.1482 136.128 50.3601 136.688 50.5515 137.249C50.7429 137.81 50.8386 138.391 50.8386 138.992C50.8386 139.102 50.8249 139.218 50.7976 139.341C50.7839 139.45 50.7429 139.553 50.6746 139.648C50.6199 139.73 50.531 139.792 50.408 139.833C50.2986 139.888 50.1413 139.881 49.9363 139.812C49.4167 139.676 49.0271 139.382 48.7673 138.931C48.5212 138.479 48.3367 137.946 48.2136 137.331C48.0906 136.702 48.0085 136.039 47.9675 135.342C47.9265 134.645 47.8581 133.995 47.7624 133.394C47.6804 132.778 47.5437 132.259 47.3523 131.835C47.1609 131.397 46.8533 131.131 46.4294 131.035L42.4714 130.133C42.4167 130.133 42.3347 130.078 42.2253 129.969C42.116 129.846 42.0476 129.757 42.0203 129.702C42.0066 129.675 41.9997 129.641 41.9997 129.6C41.9861 129.572 41.9792 129.531 41.9792 129.477ZM55.2683 129.21C55.2683 129.087 55.2683 128.964 55.2683 128.841C55.282 128.704 55.3093 128.581 55.3503 128.472C55.405 128.349 55.4734 128.26 55.5554 128.205C55.6511 128.137 55.7878 128.103 55.9656 128.103C55.9792 128.103 55.9929 128.103 56.0066 128.103C56.0339 128.103 56.0613 128.103 56.0886 128.103C56.1296 128.116 56.1638 128.123 56.1912 128.123C56.4509 128.479 56.6765 128.937 56.8679 129.497C57.0593 130.044 57.2439 130.632 57.4216 131.261C57.5994 131.876 57.7908 132.505 57.9958 133.147C58.2009 133.776 58.4675 134.344 58.7956 134.85C59.1238 135.355 59.5271 135.759 60.0056 136.06C60.4841 136.36 61.0788 136.49 61.7898 136.449C62.1042 136.449 62.3093 136.278 62.405 135.937C62.5007 135.595 62.5486 135.157 62.5486 134.624C62.5622 134.091 62.5486 133.503 62.5076 132.86C62.4802 132.218 62.4802 131.609 62.5076 131.035C62.5486 130.447 62.6511 129.935 62.8152 129.497C62.9929 129.06 63.2937 128.766 63.7175 128.615C63.8953 128.971 64.0388 129.531 64.1482 130.297C64.2712 131.049 64.3601 131.924 64.4148 132.922C64.4695 133.906 64.4968 134.979 64.4968 136.142C64.4968 137.29 64.4695 138.438 64.4148 139.587C64.3601 140.722 64.2781 141.815 64.1687 142.868C64.0593 143.921 63.9363 144.844 63.7996 145.637C63.6628 146.43 63.4988 147.052 63.3074 147.503C63.1296 147.968 62.9382 148.166 62.7331 148.098C62.446 147.824 62.2205 147.469 62.0564 147.031C61.906 146.594 61.7966 146.108 61.7283 145.575C61.6736 145.042 61.6531 144.475 61.6667 143.873C61.6804 143.285 61.7009 142.69 61.7283 142.089C61.7693 141.487 61.8103 140.899 61.8513 140.325C61.906 139.751 61.9333 139.225 61.9333 138.746C61.4412 138.787 60.9353 138.712 60.4158 138.521C59.9099 138.329 59.4109 138.035 58.9187 137.639C58.4265 137.229 57.9548 136.736 57.5037 136.162C57.0662 135.588 56.6765 134.938 56.3347 134.214C56.0066 133.489 55.7468 132.71 55.5554 131.876C55.364 131.028 55.2683 130.14 55.2683 129.21ZM66.2195 128.205C66.2195 127.809 66.1921 127.426 66.1374 127.057C66.0828 126.674 66.0691 126.339 66.0964 126.052C66.1238 125.751 66.2263 125.512 66.404 125.334C66.5955 125.156 66.9372 125.067 67.4294 125.067C67.5798 125.382 67.7234 125.86 67.8601 126.503C68.0105 127.146 68.154 127.884 68.2908 128.718C68.4275 129.552 68.5574 130.461 68.6804 131.445C68.8035 132.416 68.9128 133.394 69.0085 134.378C69.1179 135.362 69.2068 136.333 69.2751 137.29C69.3572 138.233 69.4187 139.095 69.4597 139.874C69.0085 140.175 68.6462 140.195 68.3728 139.936C68.0994 139.676 67.8738 139.238 67.696 138.623C67.5183 137.994 67.3816 137.235 67.2859 136.347C67.1902 135.444 67.0945 134.515 66.9988 133.558C66.9167 132.587 66.8142 131.637 66.6912 130.707C66.5681 129.764 66.4109 128.93 66.2195 128.205ZM70.5261 134.111C70.5261 133.373 70.615 132.635 70.7927 131.896C70.9705 131.158 71.2507 130.495 71.6335 129.907C72.03 129.319 72.5359 128.841 73.1511 128.472C73.78 128.103 74.5388 127.918 75.4275 127.918C75.9333 127.918 76.3777 128.014 76.7605 128.205C77.1433 128.383 77.4646 128.622 77.7244 128.923C77.9841 129.224 78.1755 129.579 78.2986 129.989C78.4353 130.386 78.5037 130.803 78.5037 131.24C78.5037 131.938 78.3396 132.614 78.0115 133.271C77.697 133.927 77.2663 134.508 76.7195 135.014C76.1863 135.506 75.571 135.882 74.8738 136.142C74.1765 136.388 73.4656 136.442 72.741 136.306C72.7546 136.702 72.8845 137.023 73.1306 137.27C73.3904 137.502 73.698 137.68 74.0535 137.803C74.4089 137.926 74.7781 138.008 75.1609 138.049C75.5437 138.076 75.8855 138.09 76.1863 138.09C76.5007 138.09 76.7947 138.062 77.0681 138.008C77.3415 137.953 77.615 137.892 77.8884 137.823C78.1619 137.755 78.4353 137.693 78.7087 137.639C78.9958 137.584 79.2966 137.557 79.6111 137.557C79.7341 137.557 79.8572 137.563 79.9802 137.577C80.1033 137.591 80.2195 137.625 80.3288 137.68C80.4382 137.721 80.5271 137.796 80.5955 137.905C80.6638 138.001 80.698 138.124 80.698 138.274C80.698 138.534 80.6023 138.753 80.4109 138.931C80.2195 139.095 79.9734 139.238 79.6726 139.361C79.3855 139.484 79.0642 139.58 78.7087 139.648C78.3533 139.703 78.0046 139.751 77.6628 139.792C77.3347 139.819 77.0271 139.833 76.74 139.833C76.4665 139.847 76.2615 139.854 76.1247 139.854C75.2497 139.854 74.4636 139.717 73.7663 139.443C73.0691 139.156 72.4812 138.767 72.0027 138.274C71.5242 137.769 71.155 137.167 70.8953 136.47C70.6492 135.759 70.5261 134.973 70.5261 134.111ZM72.6999 132.778C72.6999 133.257 72.7615 133.605 72.8845 133.824C73.0212 134.043 73.3425 134.152 73.8484 134.152C74.2038 134.152 74.5525 134.091 74.8943 133.968C75.2361 133.831 75.5437 133.646 75.8171 133.414C76.1042 133.182 76.3298 132.908 76.4939 132.594C76.658 132.279 76.74 131.938 76.74 131.568C76.74 131.363 76.7195 131.151 76.6785 130.933C76.6511 130.714 76.5828 130.516 76.4734 130.338C76.364 130.146 76.2205 129.996 76.0427 129.887C75.8787 129.764 75.6599 129.702 75.3865 129.702C74.9763 129.702 74.6003 129.798 74.2585 129.989C73.9304 130.167 73.6501 130.406 73.4177 130.707C73.1853 130.994 73.0076 131.322 72.8845 131.691C72.7615 132.047 72.6999 132.409 72.6999 132.778ZM100.242 137.167C99.7224 137.522 99.2712 137.844 98.8884 138.131C98.5193 138.404 98.157 138.637 97.8015 138.828C97.446 139.02 97.0632 139.163 96.6531 139.259C96.2566 139.354 95.7644 139.402 95.1765 139.402C93.905 139.402 92.9617 139.067 92.3464 138.397C91.7312 137.714 91.4236 136.702 91.4236 135.362C91.4236 134.843 91.4919 134.303 91.6287 133.742C91.7654 133.182 91.9636 132.628 92.2234 132.081C92.4968 131.521 92.8181 130.994 93.1872 130.502C93.5564 129.996 93.9734 129.552 94.4382 129.169C94.9031 128.786 95.3953 128.485 95.9148 128.267C96.448 128.034 97.0085 127.918 97.5964 127.918C98.5808 128.014 99.3533 128.26 99.9138 128.656C100.474 129.039 100.898 129.538 101.185 130.153C101.472 130.755 101.671 131.432 101.78 132.184C101.889 132.922 101.971 133.688 102.026 134.48C102.094 135.273 102.177 136.066 102.272 136.859C102.368 137.652 102.566 138.384 102.867 139.054C102.689 139.505 102.518 139.819 102.354 139.997C102.204 140.188 102.033 140.223 101.842 140.1C101.65 139.977 101.425 139.676 101.165 139.197C100.919 138.719 100.611 138.042 100.242 137.167ZM93.1667 135.403C93.1667 136.183 93.3103 136.757 93.5974 137.126C93.8982 137.481 94.4246 137.659 95.1765 137.659C95.7371 137.659 96.2703 137.563 96.7761 137.372C97.2956 137.167 97.7468 136.894 98.1296 136.552C98.5124 136.196 98.8201 135.772 99.0525 135.28C99.2849 134.788 99.4011 134.241 99.4011 133.64C99.4011 133.394 99.408 133.052 99.4216 132.614C99.4353 132.163 99.408 131.719 99.3396 131.281C99.2712 130.844 99.1413 130.468 98.9499 130.153C98.7585 129.825 98.4714 129.661 98.0886 129.661C97.3777 129.661 96.7214 129.846 96.1199 130.215C95.5183 130.57 94.9988 131.028 94.5613 131.589C94.1238 132.149 93.782 132.771 93.5359 133.455C93.2898 134.125 93.1667 134.774 93.1667 135.403ZM103.708 129.477C103.708 129.436 103.715 129.401 103.728 129.374C103.728 129.347 103.735 129.312 103.749 129.271C103.803 129.203 103.885 129.114 103.995 129.005C104.104 128.896 104.173 128.841 104.2 128.841H108.322C108.322 128.69 108.302 128.451 108.26 128.123C108.219 127.795 108.178 127.433 108.137 127.036C108.11 126.64 108.103 126.229 108.117 125.806C108.131 125.368 108.185 124.979 108.281 124.637C108.39 124.281 108.554 123.994 108.773 123.775C109.006 123.543 109.327 123.427 109.737 123.427C109.737 124.808 109.833 125.915 110.024 126.749C110.216 127.583 110.468 128.226 110.783 128.677C111.111 129.128 111.48 129.422 111.89 129.559C112.301 129.695 112.718 129.757 113.141 129.743C113.579 129.716 114.003 129.647 114.413 129.538C114.823 129.429 115.185 129.354 115.5 129.312C115.828 129.271 116.088 129.306 116.279 129.415C116.47 129.511 116.566 129.75 116.566 130.133C116.566 130.42 116.498 130.625 116.361 130.748C116.238 130.871 115.992 130.967 115.623 131.035C115.513 131.049 115.329 131.076 115.069 131.117C114.823 131.145 114.543 131.172 114.228 131.199C113.914 131.227 113.579 131.261 113.223 131.302C112.868 131.329 112.533 131.356 112.218 131.384C111.904 131.411 111.617 131.432 111.357 131.445C111.097 131.445 110.906 131.445 110.783 131.445C110.783 131.514 110.776 131.63 110.762 131.794C110.749 131.958 110.742 132.067 110.742 132.122C110.742 132.724 110.838 133.312 111.029 133.886C111.22 134.446 111.426 135.007 111.644 135.567C111.877 136.128 112.089 136.688 112.28 137.249C112.471 137.81 112.567 138.391 112.567 138.992C112.567 139.102 112.553 139.218 112.526 139.341C112.512 139.45 112.471 139.553 112.403 139.648C112.348 139.73 112.26 139.792 112.136 139.833C112.027 139.888 111.87 139.881 111.665 139.812C111.145 139.676 110.756 139.382 110.496 138.931C110.25 138.479 110.065 137.946 109.942 137.331C109.819 136.702 109.737 136.039 109.696 135.342C109.655 134.645 109.587 133.995 109.491 133.394C109.409 132.778 109.272 132.259 109.081 131.835C108.889 131.397 108.582 131.131 108.158 131.035L104.2 130.133C104.145 130.133 104.063 130.078 103.954 129.969C103.844 129.846 103.776 129.757 103.749 129.702C103.735 129.675 103.728 129.641 103.728 129.6C103.715 129.572 103.708 129.531 103.708 129.477ZM127.661 132.122C127.661 132.04 127.661 131.91 127.661 131.732C127.675 131.541 127.681 131.343 127.681 131.138C127.695 130.933 127.702 130.734 127.702 130.543C127.716 130.352 127.722 130.215 127.722 130.133C127.873 129.914 128.064 129.736 128.297 129.6C128.543 129.463 128.789 129.354 129.035 129.271C129.076 130.01 129.192 130.796 129.384 131.63C129.575 132.464 129.78 133.305 129.999 134.152C130.218 134.986 130.409 135.813 130.573 136.634C130.751 137.454 130.84 138.22 130.84 138.931C130.84 139.546 130.525 139.854 129.896 139.854C129.513 139.854 129.192 139.696 128.932 139.382C128.673 139.067 128.461 138.671 128.297 138.192C128.146 137.7 128.023 137.16 127.927 136.572C127.832 135.971 127.763 135.383 127.722 134.809C127.695 134.234 127.675 133.708 127.661 133.229C127.661 132.751 127.661 132.382 127.661 132.122ZM127.948 124.432C128.208 124.541 128.427 124.719 128.604 124.965C128.782 125.211 128.857 125.437 128.83 125.642C128.816 125.833 128.666 125.97 128.379 126.052C128.092 126.12 127.613 126.038 126.943 125.806C126.943 125.437 127.011 125.115 127.148 124.842C127.299 124.568 127.565 124.432 127.948 124.432ZM131.188 129.477C131.188 129.436 131.195 129.401 131.209 129.374C131.209 129.347 131.216 129.312 131.229 129.271C131.284 129.203 131.366 129.114 131.475 129.005C131.585 128.896 131.653 128.841 131.68 128.841H135.802C135.802 128.69 135.782 128.451 135.741 128.123C135.7 127.795 135.659 127.433 135.618 127.036C135.591 126.64 135.584 126.229 135.597 125.806C135.611 125.368 135.666 124.979 135.761 124.637C135.871 124.281 136.035 123.994 136.254 123.775C136.486 123.543 136.807 123.427 137.218 123.427C137.218 124.808 137.313 125.915 137.505 126.749C137.696 127.583 137.949 128.226 138.263 128.677C138.592 129.128 138.961 129.422 139.371 129.559C139.781 129.695 140.198 129.757 140.622 129.743C141.059 129.716 141.483 129.647 141.893 129.538C142.303 129.429 142.666 129.354 142.98 129.312C143.308 129.271 143.568 129.306 143.76 129.415C143.951 129.511 144.047 129.75 144.047 130.133C144.047 130.42 143.978 130.625 143.842 130.748C143.718 130.871 143.472 130.967 143.103 131.035C142.994 131.049 142.809 131.076 142.55 131.117C142.303 131.145 142.023 131.172 141.709 131.199C141.394 131.227 141.059 131.261 140.704 131.302C140.348 131.329 140.013 131.356 139.699 131.384C139.385 131.411 139.097 131.432 138.838 131.445C138.578 131.445 138.386 131.445 138.263 131.445C138.263 131.514 138.257 131.63 138.243 131.794C138.229 131.958 138.222 132.067 138.222 132.122C138.222 132.724 138.318 133.312 138.51 133.886C138.701 134.446 138.906 135.007 139.125 135.567C139.357 136.128 139.569 136.688 139.76 137.249C139.952 137.81 140.048 138.391 140.048 138.992C140.048 139.102 140.034 139.218 140.007 139.341C139.993 139.45 139.952 139.553 139.884 139.648C139.829 139.73 139.74 139.792 139.617 139.833C139.508 139.888 139.35 139.881 139.145 139.812C138.626 139.676 138.236 139.382 137.976 138.931C137.73 138.479 137.546 137.946 137.423 137.331C137.3 136.702 137.218 136.039 137.177 135.342C137.135 134.645 137.067 133.995 136.971 133.394C136.889 132.778 136.753 132.259 136.561 131.835C136.37 131.397 136.062 131.131 135.638 131.035L131.68 130.133C131.626 130.133 131.544 130.078 131.434 129.969C131.325 129.846 131.257 129.757 131.229 129.702C131.216 129.675 131.209 129.641 131.209 129.6C131.195 129.572 131.188 129.531 131.188 129.477ZM148.763 138.89C148.982 138.739 149.242 138.548 149.543 138.315C149.857 138.069 150.172 137.81 150.486 137.536C150.801 137.263 151.094 136.976 151.368 136.675C151.641 136.374 151.853 136.087 152.004 135.813C152.168 135.526 152.25 135.26 152.25 135.014C152.25 134.768 152.127 134.562 151.881 134.398C151.443 134.398 150.965 134.419 150.445 134.46C149.926 134.487 149.406 134.501 148.886 134.501C148.367 134.487 147.861 134.439 147.369 134.357C146.89 134.275 146.46 134.125 146.077 133.906C145.694 133.688 145.386 133.38 145.154 132.983C144.935 132.573 144.826 132.054 144.826 131.425C144.826 130.687 144.963 130.023 145.236 129.436C145.523 128.834 145.899 128.308 146.364 127.856C146.829 127.392 147.348 126.988 147.923 126.646C148.51 126.291 149.098 125.99 149.686 125.744C150.042 125.84 150.37 126.011 150.671 126.257C150.971 126.503 151.231 126.776 151.45 127.077C151.354 127.378 151.163 127.61 150.876 127.774C150.602 127.938 150.281 128.082 149.912 128.205C149.556 128.328 149.18 128.458 148.784 128.595C148.387 128.731 148.025 128.916 147.697 129.148C147.383 129.367 147.116 129.661 146.897 130.03C146.678 130.386 146.569 130.857 146.569 131.445C146.569 131.883 146.678 132.204 146.897 132.409C147.116 132.614 147.403 132.758 147.759 132.84C148.114 132.908 148.517 132.936 148.969 132.922C149.42 132.895 149.878 132.86 150.343 132.819C150.821 132.778 151.286 132.758 151.737 132.758C152.188 132.744 152.592 132.799 152.947 132.922C153.302 133.031 153.583 133.216 153.788 133.476C154.007 133.735 154.116 134.118 154.116 134.624C154.116 134.843 154.041 135.123 153.89 135.465C153.754 135.807 153.562 136.176 153.316 136.572C153.084 136.955 152.803 137.338 152.475 137.721C152.161 138.104 151.826 138.452 151.47 138.767C151.129 139.067 150.78 139.32 150.425 139.525C150.083 139.717 149.761 139.812 149.461 139.812C149.174 139.812 148.982 139.71 148.886 139.505C148.804 139.3 148.763 139.095 148.763 138.89ZM69.0085 169.72C68.7214 169.187 68.4001 168.523 68.0447 167.73C67.7029 166.924 67.3474 166.09 66.9783 165.229C66.6091 164.354 66.2195 163.499 65.8093 162.665C65.4128 161.831 65.0095 161.106 64.5994 160.491C64.4353 160.368 64.2097 160.293 63.9226 160.266C63.6355 160.238 63.3347 160.231 63.0203 160.245C62.7058 160.245 62.3913 160.238 62.0769 160.225C61.7761 160.197 61.5095 160.122 61.2771 159.999C61.0583 159.876 60.8943 159.685 60.7849 159.425C60.6755 159.165 60.655 158.789 60.7234 158.297H64.1687C64.2371 157.531 64.3533 156.772 64.5173 156.021C64.6814 155.269 64.9001 154.551 65.1736 153.867C65.4607 153.184 65.8025 152.548 66.199 151.96C66.5955 151.372 67.074 150.866 67.6345 150.442C68.1951 150.019 68.8376 149.684 69.5622 149.438C70.3005 149.191 71.1345 149.068 72.0642 149.068C72.3923 149.068 72.7205 149.15 73.0486 149.314C73.3767 149.465 73.6706 149.67 73.9304 149.93C74.1902 150.189 74.3953 150.483 74.5456 150.812C74.7097 151.14 74.7917 151.468 74.7917 151.796C74.532 151.796 74.2996 151.748 74.0945 151.652C73.8894 151.543 73.6912 151.427 73.4997 151.304C73.3083 151.167 73.1033 151.044 72.8845 150.935C72.6658 150.812 72.4197 150.75 72.1462 150.75C71.3259 150.75 70.5603 150.914 69.8494 151.242C69.1521 151.57 68.5369 152.008 68.0037 152.555C67.4841 153.102 67.074 153.737 66.7732 154.462C66.4724 155.187 66.322 155.952 66.322 156.759C66.322 156.813 66.322 156.916 66.322 157.066C66.3357 157.203 66.3425 157.354 66.3425 157.518C66.3425 157.682 66.3425 157.839 66.3425 157.989C66.3562 158.14 66.363 158.242 66.363 158.297C66.8689 158.461 67.4363 158.584 68.0652 158.666C68.6941 158.748 69.323 158.803 69.9519 158.83C70.5945 158.844 71.2097 158.837 71.7976 158.81C72.3992 158.782 72.9324 158.748 73.3972 158.707C73.4382 158.748 73.5134 158.823 73.6228 158.933C73.7322 159.042 73.7937 159.124 73.8074 159.179C73.8074 159.22 73.8142 159.247 73.8279 159.261C73.8552 159.343 73.8689 159.384 73.8689 159.384C73.8689 159.671 73.7185 159.896 73.4177 160.061C73.1169 160.225 72.7341 160.348 72.2693 160.43C71.8044 160.498 71.2849 160.546 70.7107 160.573C70.1501 160.601 69.6033 160.628 69.0701 160.655C68.5505 160.669 68.0788 160.696 67.655 160.737C67.2449 160.765 66.9578 160.826 66.7937 160.922C66.9714 161.742 67.2859 162.535 67.7371 163.301C68.2019 164.066 68.6736 164.832 69.1521 165.598C69.6306 166.363 70.0544 167.136 70.4236 167.915C70.7927 168.694 70.9773 169.494 70.9773 170.314C70.9226 170.314 70.7927 170.314 70.5876 170.314C70.3962 170.328 70.1912 170.321 69.9724 170.294C69.7537 170.267 69.5417 170.205 69.3367 170.109C69.1453 170.027 69.0359 169.897 69.0085 169.72ZM76.0017 160.122C76.0017 160.04 76.0017 159.91 76.0017 159.732C76.0154 159.541 76.0222 159.343 76.0222 159.138C76.0359 158.933 76.0427 158.734 76.0427 158.543C76.0564 158.352 76.0632 158.215 76.0632 158.133C76.2136 157.914 76.405 157.736 76.6374 157.6C76.8835 157.463 77.1296 157.354 77.3757 157.271C77.4167 158.01 77.533 158.796 77.7244 159.63C77.9158 160.464 78.1208 161.305 78.3396 162.152C78.5583 162.986 78.7497 163.813 78.9138 164.634C79.0915 165.454 79.1804 166.22 79.1804 166.931C79.1804 167.546 78.866 167.854 78.2371 167.854C77.8542 167.854 77.533 167.696 77.2732 167.382C77.0134 167.067 76.8015 166.671 76.6374 166.192C76.4871 165.7 76.364 165.16 76.2683 164.572C76.1726 163.971 76.1042 163.383 76.0632 162.809C76.0359 162.234 76.0154 161.708 76.0017 161.229C76.0017 160.751 76.0017 160.382 76.0017 160.122ZM76.2888 152.432C76.5486 152.541 76.7673 152.719 76.9451 152.965C77.1228 153.211 77.198 153.437 77.1706 153.642C77.157 153.833 77.0066 153.97 76.7195 154.052C76.4324 154.12 75.9538 154.038 75.2839 153.806C75.2839 153.437 75.3523 153.115 75.489 152.842C75.6394 152.568 75.906 152.432 76.2888 152.432ZM79.9802 160.901C79.9802 160.546 80.0691 160.293 80.2468 160.143C80.4246 159.979 80.7117 159.896 81.1081 159.896H81.3132C81.3542 160.115 81.4021 160.368 81.4568 160.655C81.5115 160.942 81.5935 161.236 81.7029 161.537C81.8122 161.838 81.9421 162.118 82.0925 162.378C82.2429 162.624 82.4275 162.822 82.6462 162.973C82.6599 162.494 82.7761 162.036 82.9949 161.599C83.2273 161.147 83.5076 160.751 83.8357 160.409C84.1775 160.054 84.5466 159.76 84.9431 159.527C85.3533 159.281 85.7566 159.117 86.1531 159.035H86.6042C87.2605 159.035 87.821 159.186 88.2859 159.486C88.7507 159.773 89.1335 160.156 89.4343 160.635C89.7488 161.1 89.988 161.633 90.1521 162.234C90.3162 162.836 90.4392 163.451 90.5212 164.08C90.6169 164.695 90.6716 165.297 90.6853 165.885C90.7126 166.459 90.7263 166.951 90.7263 167.361H89.2292C89.1472 166.541 89.0447 165.755 88.9216 165.003C88.8806 164.702 88.8259 164.388 88.7576 164.06C88.6892 163.718 88.614 163.403 88.532 163.116C88.4499 162.815 88.3611 162.542 88.2654 162.296C88.1697 162.036 88.0603 161.817 87.9372 161.64C87.8826 161.585 87.8074 161.51 87.7117 161.414C87.6296 161.318 87.5408 161.223 87.4451 161.127C87.3494 161.031 87.2605 160.949 87.1785 160.881C87.0964 160.812 87.0486 160.778 87.0349 160.778C86.6247 160.669 86.2693 160.751 85.9685 161.024C85.6677 161.284 85.4011 161.64 85.1687 162.091C84.9363 162.542 84.7449 163.055 84.5945 163.629C84.4578 164.203 84.3415 164.757 84.2458 165.29C84.1501 165.81 84.0818 166.268 84.0408 166.664C83.9997 167.047 83.9724 167.279 83.9587 167.361C83.6169 167.607 83.2956 167.683 82.9949 167.587C82.6941 167.478 82.407 167.259 82.1335 166.931C81.8738 166.603 81.6345 166.192 81.4158 165.7C81.2107 165.208 81.0193 164.688 80.8415 164.142C80.6638 163.581 80.4997 163.021 80.3494 162.46C80.2126 161.899 80.0896 161.38 79.9802 160.901ZM91.8542 162.111C91.8542 161.373 91.9431 160.635 92.1208 159.896C92.2986 159.158 92.5788 158.495 92.9617 157.907C93.3581 157.319 93.864 156.841 94.4792 156.472C95.1081 156.103 95.8669 155.918 96.7556 155.918C97.2615 155.918 97.7058 156.014 98.0886 156.205C98.4714 156.383 98.7927 156.622 99.0525 156.923C99.3122 157.224 99.5037 157.579 99.6267 157.989C99.7634 158.386 99.8318 158.803 99.8318 159.24C99.8318 159.938 99.6677 160.614 99.3396 161.271C99.0251 161.927 98.5945 162.508 98.0476 163.014C97.5144 163.506 96.8992 163.882 96.2019 164.142C95.5046 164.388 94.7937 164.442 94.0691 164.306C94.0828 164.702 94.2126 165.023 94.4587 165.27C94.7185 165.502 95.0261 165.68 95.3816 165.803C95.7371 165.926 96.1062 166.008 96.489 166.049C96.8718 166.076 97.2136 166.09 97.5144 166.09C97.8288 166.09 98.1228 166.062 98.3962 166.008C98.6697 165.953 98.9431 165.892 99.2165 165.823C99.49 165.755 99.7634 165.693 100.037 165.639C100.324 165.584 100.625 165.557 100.939 165.557C101.062 165.557 101.185 165.563 101.308 165.577C101.431 165.591 101.548 165.625 101.657 165.68C101.766 165.721 101.855 165.796 101.924 165.905C101.992 166.001 102.026 166.124 102.026 166.274C102.026 166.534 101.93 166.753 101.739 166.931C101.548 167.095 101.302 167.238 101.001 167.361C100.714 167.484 100.392 167.58 100.037 167.648C99.6814 167.703 99.3328 167.751 98.991 167.792C98.6628 167.819 98.3552 167.833 98.0681 167.833C97.7947 167.847 97.5896 167.854 97.4529 167.854C96.5779 167.854 95.7917 167.717 95.0945 167.443C94.3972 167.156 93.8093 166.767 93.3308 166.274C92.8523 165.769 92.4831 165.167 92.2234 164.47C91.9773 163.759 91.8542 162.973 91.8542 162.111ZM94.0281 160.778C94.0281 161.257 94.0896 161.605 94.2126 161.824C94.3494 162.043 94.6706 162.152 95.1765 162.152C95.532 162.152 95.8806 162.091 96.2224 161.968C96.5642 161.831 96.8718 161.646 97.1453 161.414C97.4324 161.182 97.658 160.908 97.822 160.594C97.9861 160.279 98.0681 159.938 98.0681 159.568C98.0681 159.363 98.0476 159.151 98.0066 158.933C97.9792 158.714 97.9109 158.516 97.8015 158.338C97.6921 158.146 97.5486 157.996 97.3708 157.887C97.2068 157.764 96.988 157.702 96.7146 157.702C96.3044 157.702 95.9285 157.798 95.5867 157.989C95.2585 158.167 94.9783 158.406 94.7458 158.707C94.5134 158.994 94.3357 159.322 94.2126 159.691C94.0896 160.047 94.0281 160.409 94.0281 160.778ZM107.235 166.89C107.454 166.739 107.714 166.548 108.014 166.315C108.329 166.069 108.643 165.81 108.958 165.536C109.272 165.263 109.566 164.976 109.84 164.675C110.113 164.374 110.325 164.087 110.475 163.813C110.639 163.526 110.721 163.26 110.721 163.014C110.721 162.768 110.598 162.562 110.352 162.398C109.915 162.398 109.436 162.419 108.917 162.46C108.397 162.487 107.878 162.501 107.358 162.501C106.839 162.487 106.333 162.439 105.841 162.357C105.362 162.275 104.931 162.125 104.549 161.906C104.166 161.688 103.858 161.38 103.626 160.983C103.407 160.573 103.298 160.054 103.298 159.425C103.298 158.687 103.434 158.023 103.708 157.436C103.995 156.834 104.371 156.308 104.836 155.856C105.301 155.392 105.82 154.988 106.394 154.646C106.982 154.291 107.57 153.99 108.158 153.744C108.513 153.84 108.842 154.011 109.142 154.257C109.443 154.503 109.703 154.776 109.922 155.077C109.826 155.378 109.635 155.61 109.347 155.774C109.074 155.938 108.753 156.082 108.384 156.205C108.028 156.328 107.652 156.458 107.256 156.595C106.859 156.731 106.497 156.916 106.169 157.148C105.854 157.367 105.588 157.661 105.369 158.03C105.15 158.386 105.041 158.857 105.041 159.445C105.041 159.883 105.15 160.204 105.369 160.409C105.588 160.614 105.875 160.758 106.23 160.84C106.586 160.908 106.989 160.936 107.44 160.922C107.891 160.895 108.349 160.86 108.814 160.819C109.293 160.778 109.758 160.758 110.209 160.758C110.66 160.744 111.063 160.799 111.419 160.922C111.774 161.031 112.054 161.216 112.26 161.476C112.478 161.735 112.588 162.118 112.588 162.624C112.588 162.843 112.512 163.123 112.362 163.465C112.225 163.807 112.034 164.176 111.788 164.572C111.555 164.955 111.275 165.338 110.947 165.721C110.633 166.104 110.298 166.452 109.942 166.767C109.6 167.067 109.252 167.32 108.896 167.525C108.554 167.717 108.233 167.812 107.932 167.812C107.645 167.812 107.454 167.71 107.358 167.505C107.276 167.3 107.235 167.095 107.235 166.89ZM112.957 157.477C112.957 157.436 112.964 157.401 112.977 157.374C112.977 157.347 112.984 157.312 112.998 157.271C113.052 157.203 113.135 157.114 113.244 157.005C113.353 156.896 113.422 156.841 113.449 156.841H117.571C117.571 156.69 117.551 156.451 117.51 156.123C117.468 155.795 117.427 155.433 117.386 155.036C117.359 154.64 117.352 154.229 117.366 153.806C117.38 153.368 117.434 152.979 117.53 152.637C117.639 152.281 117.803 151.994 118.022 151.775C118.255 151.543 118.576 151.427 118.986 151.427C118.986 152.808 119.082 153.915 119.273 154.749C119.465 155.583 119.718 156.226 120.032 156.677C120.36 157.128 120.729 157.422 121.139 157.559C121.55 157.695 121.967 157.757 122.39 157.743C122.828 157.716 123.252 157.647 123.662 157.538C124.072 157.429 124.434 157.354 124.749 157.312C125.077 157.271 125.337 157.306 125.528 157.415C125.719 157.511 125.815 157.75 125.815 158.133C125.815 158.42 125.747 158.625 125.61 158.748C125.487 158.871 125.241 158.967 124.872 159.035C124.762 159.049 124.578 159.076 124.318 159.117C124.072 159.145 123.792 159.172 123.477 159.199C123.163 159.227 122.828 159.261 122.472 159.302C122.117 159.329 121.782 159.356 121.468 159.384C121.153 159.411 120.866 159.432 120.606 159.445C120.346 159.445 120.155 159.445 120.032 159.445C120.032 159.514 120.025 159.63 120.011 159.794C119.998 159.958 119.991 160.067 119.991 160.122C119.991 160.724 120.087 161.312 120.278 161.886C120.469 162.446 120.675 163.007 120.893 163.567C121.126 164.128 121.338 164.688 121.529 165.249C121.72 165.81 121.816 166.391 121.816 166.992C121.816 167.102 121.802 167.218 121.775 167.341C121.761 167.45 121.72 167.553 121.652 167.648C121.597 167.73 121.509 167.792 121.385 167.833C121.276 167.888 121.119 167.881 120.914 167.812C120.394 167.676 120.005 167.382 119.745 166.931C119.499 166.479 119.314 165.946 119.191 165.331C119.068 164.702 118.986 164.039 118.945 163.342C118.904 162.645 118.836 161.995 118.74 161.394C118.658 160.778 118.521 160.259 118.33 159.835C118.138 159.397 117.831 159.131 117.407 159.035L113.449 158.133C113.394 158.133 113.312 158.078 113.203 157.969C113.093 157.846 113.025 157.757 112.998 157.702C112.984 157.675 112.977 157.641 112.977 157.6C112.964 157.572 112.957 157.531 112.957 157.477Z" fill="black"/>
<path d="M75.7141 49.7256L73.7121 56.9033C72.9634 57.001 72.0845 57.1149 71.0754 57.2451C70.0988 57.3753 69.1223 57.5055 68.1457 57.6357C67.1692 57.7334 66.16 57.8473 65.1184 57.9775C66.453 53.5505 67.5761 49.807 68.4875 46.7471C69.4315 43.6872 70.1965 41.1807 70.7824 39.2275C71.3684 37.2419 71.938 35.2887 72.4914 33.3682C73.0774 31.415 73.6307 29.5433 74.1516 27.7529C74.705 25.93 75.1932 24.2699 75.6164 22.7725C81.6386 22.3493 86.2284 21.8285 89.3859 21.21C89.093 24.4326 88.8488 28.2412 88.6535 32.6357C88.2303 41.3923 87.8723 49.4652 87.5793 56.8545C86.6027 57.0173 85.6425 57.1637 84.6984 57.2939C83.787 57.4242 82.8267 57.5706 81.8176 57.7334C80.841 57.8962 79.9458 58.0426 79.132 58.1729C79.4901 55.0479 79.7994 52.2321 80.0598 49.7256H75.7141ZM76.8859 44.7451L80.4992 44.501C80.4992 44.3057 80.5155 43.9801 80.5481 43.5244C80.6132 43.0361 80.6783 42.4827 80.7434 41.8643C81.0038 38.3812 81.2805 35.1423 81.5734 32.1475L81.9152 27.8018L81.134 27.8506L76.8859 44.7451ZM87.677 58.3193C91.0949 43.1175 93.4387 31.3337 94.7082 22.9678C98.2889 21.8936 100.974 21.3564 102.765 21.3564C104.555 21.3564 105.955 21.6169 106.964 22.1377C108.006 22.626 108.852 23.2933 109.503 24.1396C110.642 25.6696 111.212 27.8831 111.212 30.7803C111.212 32.6357 110.87 34.4424 110.187 36.2002C109.503 37.9255 108.592 39.4717 107.452 40.8389C106.313 42.1735 104.995 43.2477 103.497 44.0615C102 44.8428 100.454 45.2334 98.8586 45.2334H98.3215C97.703 47.9678 97.0357 51.7601 96.3195 56.6104L87.677 58.3193ZM101.642 27.4111C100.795 32.1312 100.03 36.3141 99.3469 39.96C100.519 39.667 101.609 38.723 102.618 37.1279C103.725 35.3701 104.279 33.3844 104.279 31.1709C104.279 29.9339 104.002 29.0062 103.448 28.3877C102.895 27.7367 102.293 27.4111 101.642 27.4111ZM107.159 58.3193L113.702 22.7725L129.523 21.4053C129.295 22.154 129.099 22.8864 128.937 23.6025C128.774 24.2861 128.611 24.9697 128.448 25.6533C128.286 26.3369 128.155 26.9391 128.058 27.46C127.081 27.5576 125.747 27.6064 124.054 27.6064H120.685L118.927 36.5908C120.717 36.4932 122.215 36.4281 123.419 36.3955C124.624 36.363 125.405 36.3304 125.763 36.2979C125.633 37.2419 125.502 38.1696 125.372 39.0811C125.275 39.96 125.144 40.8714 124.982 41.8154C124.624 41.848 124.07 41.8805 123.321 41.9131C122.573 41.9131 121.792 41.9294 120.978 41.9619C120.164 41.9945 119.252 42.027 118.243 42.0596L116.534 51.2881L123.81 50.1162L123.321 55.8291L107.159 58.3193Z" fill="white"/>
<path d="M75.7141 49.7256V48.7256H74.9548L74.7508 49.4569L75.7141 49.7256ZM73.7121 56.9033L73.8415 57.8949L74.4976 57.8093L74.6754 57.172L73.7121 56.9033ZM71.0754 57.2451L70.9474 56.2533L70.9432 56.2539L71.0754 57.2451ZM68.1457 57.6357L68.2452 58.6308L68.2616 58.6291L68.2779 58.627L68.1457 57.6357ZM65.1184 57.9775L64.1609 57.6889L63.7173 59.1605L65.2424 58.9698L65.1184 57.9775ZM68.4875 46.7471L67.5319 46.4523L67.5291 46.4616L68.4875 46.7471ZM70.7824 39.2275L71.7403 39.5149L71.7415 39.5106L70.7824 39.2275ZM72.4914 33.3682L71.5335 33.0808L71.5305 33.0913L72.4914 33.3682ZM74.1516 27.7529L73.1946 27.4624L73.1914 27.4736L74.1516 27.7529ZM75.6164 22.7725L75.5463 21.7749L74.8452 21.8242L74.6541 22.5005L75.6164 22.7725ZM89.3859 21.21L90.3818 21.3005L90.5026 19.9722L89.1937 20.2286L89.3859 21.21ZM88.6535 32.6357L89.6524 32.684L89.6525 32.6801L88.6535 32.6357ZM87.5793 56.8545L87.7437 57.8409L88.5463 57.7071L88.5785 56.8941L87.5793 56.8545ZM84.6984 57.2939L84.5618 56.3033L84.557 56.304L84.6984 57.2939ZM81.8176 57.7334L81.6584 56.7461L81.6532 56.747L81.8176 57.7334ZM79.132 58.1729L78.1385 58.059L77.9885 59.3685L79.29 59.1603L79.132 58.1729ZM80.0598 49.7256L81.0544 49.8289L81.1691 48.7256H80.0598V49.7256ZM76.8859 44.7451L75.9161 44.5013L75.5806 45.8356L76.9534 45.7428L76.8859 44.7451ZM80.4992 44.501L80.5666 45.4987L81.4992 45.4357V44.501H80.4992ZM80.5481 43.5244L79.5568 43.3923L79.5528 43.4226L79.5506 43.4532L80.5481 43.5244ZM80.7434 41.8643L81.7379 41.9689L81.7395 41.9539L81.7406 41.9388L80.7434 41.8643ZM81.5734 32.1475L82.5687 32.2448L82.5696 32.2354L82.5704 32.2259L81.5734 32.1475ZM81.9152 27.8018L82.9122 27.8802L83.0025 26.7319L81.8529 26.8037L81.9152 27.8018ZM81.134 27.8506L81.0716 26.8525L80.3424 26.8981L80.1642 27.6067L81.134 27.8506ZM74.7508 49.4569L72.7489 56.6347L74.6754 57.172L76.6773 49.9942L74.7508 49.4569ZM73.5828 55.9117C72.8347 56.0093 71.9562 56.1232 70.9474 56.2533L71.2034 58.2369C72.2128 58.1066 73.0922 57.9927 73.8415 57.8949L73.5828 55.9117ZM70.9432 56.2539C70.8675 56.264 70.9274 56.256 70.8517 56.2661C70.7759 56.2762 70.8359 56.2682 70.7601 56.2783C70.725 56.283 70.7495 56.2797 70.7144 56.2844C70.6792 56.2891 70.7038 56.2858 70.6686 56.2905C70.6334 56.2952 70.658 56.2919 70.6228 56.2966C70.5876 56.3013 70.6122 56.298 70.577 56.3027C70.5419 56.3074 70.5664 56.3041 70.5312 56.3088C70.4961 56.3135 70.5206 56.3102 70.4855 56.3149C70.4503 56.3196 70.4749 56.3163 70.4397 56.321C70.4045 56.3257 70.4291 56.3224 70.3939 56.3271C70.3587 56.3318 70.3833 56.3285 70.3481 56.3332C70.313 56.3379 70.3375 56.3346 70.3024 56.3393C70.2672 56.344 70.2918 56.3408 70.2566 56.3454C70.2214 56.3501 70.246 56.3469 70.2108 56.3515C70.1236 56.3632 69.9318 56.3887 69.8446 56.4004C69.6702 56.4236 69.6528 56.426 69.4784 56.4492C69.304 56.4725 69.2866 56.4748 69.1122 56.498C68.9378 56.5213 68.9204 56.5236 68.746 56.5469C68.5716 56.5701 68.5541 56.5724 68.3798 56.5957C68.2054 56.6189 68.1879 56.6213 68.0135 56.6445L68.2779 58.627C68.4474 58.6044 68.8408 58.5519 69.0103 58.5293C69.1798 58.5067 69.5732 58.4543 69.7427 58.4317C69.7482 58.4309 69.9204 58.408 69.9258 58.4072C69.9313 58.4065 70.1035 58.3836 70.1089 58.3828C70.2724 58.361 70.3117 58.3558 70.4751 58.334C70.5678 58.3216 70.5656 58.3219 70.6582 58.3096C70.7509 58.2972 70.7487 58.2975 70.8414 58.2852C70.934 58.2728 70.9318 58.2731 71.0245 58.2608C71.0299 58.26 71.0419 58.2584 71.0473 58.2577C71.0528 58.257 71.0648 58.2554 71.0702 58.2547C71.0757 58.2539 71.0877 58.2523 71.0931 58.2516C71.0985 58.2509 71.1106 58.2493 71.116 58.2486C71.1214 58.2478 71.1335 58.2462 71.1389 58.2455C71.1443 58.2448 71.1564 58.2432 71.1618 58.2424C71.1672 58.2417 71.1793 58.2401 71.1847 58.2394C71.1901 58.2387 71.2021 58.2371 71.2076 58.2363L70.9432 56.2539ZM68.0462 56.6407C67.0609 56.7392 66.0436 56.8541 64.9943 56.9853L65.2424 58.9698C66.2765 58.8406 67.2774 58.7276 68.2452 58.6308L68.0462 56.6407ZM66.0758 58.2662C67.4106 53.8385 68.534 50.0938 69.4459 47.0325L67.5291 46.4616C66.6181 49.5201 65.4954 53.2624 64.1609 57.6889L66.0758 58.2662ZM69.4431 47.0419C70.3875 43.9807 71.1533 41.4715 71.7403 39.5149L69.8246 38.9402C69.2397 40.8898 68.4756 43.3936 67.532 46.4523L69.4431 47.0419ZM71.7415 39.5106C72.3281 37.5229 72.8983 35.5677 73.4523 33.645L71.5305 33.0913C70.9777 35.0097 70.4087 36.9608 69.8233 38.9445L71.7415 39.5106ZM73.4492 33.6555C74.0359 31.7 74.5901 29.8255 75.1118 28.0323L73.1914 27.4736C72.6714 29.2611 72.1188 31.1301 71.5336 33.0808L73.4492 33.6555ZM75.1085 28.0434C75.6633 26.2156 76.1535 24.5492 76.5787 23.0444L74.6541 22.5005C74.233 23.9905 73.7466 25.6444 73.1947 27.4624L75.1085 28.0434ZM75.6865 23.77C81.7208 23.346 86.3594 22.8218 89.5782 22.1913L89.1937 20.2286C86.0974 20.8351 81.5563 21.3526 75.5463 21.7749L75.6865 23.77ZM88.3901 21.1194C88.0953 24.3618 87.8503 28.1865 87.6545 32.5913L89.6525 32.6801C89.8474 28.296 90.0907 24.5035 90.3818 21.3005L88.3901 21.1194ZM87.6547 32.5875C87.2314 41.3464 86.8732 49.4222 86.5801 56.8149L88.5785 56.8941C88.8714 49.5081 89.2293 41.4381 89.6524 32.684L87.6547 32.5875ZM87.4149 55.8681C86.4472 56.0294 85.4962 56.1744 84.5618 56.3033L84.8351 58.2846C85.7887 58.153 86.7583 58.0051 87.7437 57.8409L87.4149 55.8681ZM84.557 56.304C83.639 56.4351 82.6728 56.5825 81.6584 56.7462L81.9768 58.7206C82.9806 58.5587 83.935 58.4132 84.8399 58.2839L84.557 56.304ZM81.6532 56.747C80.6784 56.9095 79.7853 57.0556 78.9741 57.1854L79.29 59.1603C80.1063 59.0297 81.0037 58.8828 81.982 58.7198L81.6532 56.747ZM80.1255 58.2867C80.4839 55.159 80.7936 52.3397 81.0544 49.8289L79.0651 49.6222C78.8052 52.1245 78.4963 54.9367 78.1385 58.059L80.1255 58.2867ZM80.0598 48.7256H75.7141V50.7256H80.0598V48.7256ZM76.9534 45.7428L80.5666 45.4987L80.4318 43.5033L76.8185 43.7474L76.9534 45.7428ZM81.4992 44.501C81.4992 44.3447 81.513 44.0505 81.5455 43.5957L79.5506 43.4532C79.518 43.9098 79.4992 44.2666 79.4992 44.501H81.4992ZM81.5393 43.6566C81.6059 43.1572 81.672 42.5944 81.7379 41.9689L79.7489 41.7596C79.6845 42.3711 79.6204 42.9151 79.5568 43.3923L81.5393 43.6566ZM81.7406 41.9388C82.0005 38.4622 82.2766 35.2309 82.5687 32.2448L80.5782 32.0501C80.2844 35.0536 80.007 38.3002 79.7462 41.7897L81.7406 41.9388ZM82.5704 32.2259L82.9122 27.8802L80.9183 27.7233L80.5765 32.0691L82.5704 32.2259ZM81.8529 26.8037L81.0716 26.8525L81.1964 28.8486L81.9776 28.7998L81.8529 26.8037ZM80.1642 27.6067L75.9161 44.5013L77.8558 44.989L82.1038 28.0944L80.1642 27.6067ZM87.677 58.3193L86.7013 58.1L86.3644 59.5982L87.8709 59.3003L87.677 58.3193ZM94.7082 22.9678L94.4209 22.0099L93.8145 22.1919L93.7195 22.8177L94.7082 22.9678ZM106.964 22.1377L106.505 23.0263L106.522 23.0351L106.54 23.0432L106.964 22.1377ZM109.503 24.1396L110.305 23.5424L110.301 23.5361L110.296 23.5299L109.503 24.1396ZM110.187 36.2002L111.116 36.5686L111.119 36.5626L110.187 36.2002ZM107.452 40.8389L108.213 41.4882L108.221 41.4791L107.452 40.8389ZM103.497 44.0615L103.96 44.9481L103.967 44.9442L103.975 44.9401L103.497 44.0615ZM98.3215 45.2334V44.2334H97.5224L97.3461 45.0128L98.3215 45.2334ZM96.3195 56.6104L96.5135 57.5914L97.2057 57.4545L97.3088 56.7564L96.3195 56.6104ZM101.642 27.4111V26.4111H100.805L100.658 27.2346L101.642 27.4111ZM99.3469 39.96L98.364 39.7757L98.0766 41.3083L99.5894 40.9301L99.3469 39.96ZM102.618 37.1279L103.463 37.6626L103.465 37.6607L102.618 37.1279ZM103.448 28.3877L102.687 29.0353L102.695 29.045L102.703 29.0545L103.448 28.3877ZM88.6526 58.5387C92.0722 43.3295 94.4221 31.5187 95.6969 23.1178L93.7195 22.8177C92.4553 31.1486 90.1176 42.9055 86.7013 58.1L88.6526 58.5387ZM94.9956 23.9256C98.5615 22.8558 101.129 22.3564 102.765 22.3564V20.3564C100.82 20.3564 98.0164 20.9313 94.4209 22.0099L94.9956 23.9256ZM102.765 22.3564C104.478 22.3564 105.697 22.609 106.505 23.0263L107.423 21.2491C106.213 20.6247 104.632 20.3564 102.765 20.3564V22.3564ZM106.54 23.0432C107.448 23.469 108.164 24.0392 108.711 24.7494L110.296 23.5299C109.54 22.5474 108.563 21.7829 107.389 21.2322L106.54 23.0432ZM108.701 24.7369C109.661 26.0254 110.212 27.9928 110.212 30.7803H112.212C112.212 27.7734 111.624 25.3138 110.305 23.5424L108.701 24.7369ZM110.212 30.7803C110.212 32.5097 109.894 34.1935 109.255 35.8377L111.119 36.5626C111.847 34.6912 112.212 32.7618 112.212 30.7803H110.212ZM109.257 35.8318C108.611 37.4627 107.753 38.9164 106.684 40.1987L108.221 41.4791C109.431 40.027 110.395 38.3882 111.116 36.5686L109.257 35.8318ZM106.692 40.1896C105.63 41.4339 104.406 42.4293 103.02 43.1829L103.975 44.9401C105.583 44.0661 106.996 42.9131 108.213 41.4881L106.692 40.1896ZM103.035 43.1749C101.671 43.8862 100.283 44.2334 98.8586 44.2334V46.2334C100.624 46.2334 102.328 45.7993 103.96 44.9481L103.035 43.1749ZM98.8586 44.2334H98.3215V46.2334H98.8586V44.2334ZM97.3461 45.0128C96.7194 47.7834 96.0478 51.6045 95.3303 56.4643L97.3088 56.7564C98.0236 51.9157 98.6866 48.1521 99.2969 45.454L97.3461 45.0128ZM96.1256 55.6293L87.483 57.3383L87.8709 59.3003L96.5135 57.5914L96.1256 55.6293ZM100.658 27.2346C99.8115 31.9528 99.047 36.1331 98.364 39.7757L100.33 40.1442C101.014 36.4952 101.779 32.3096 102.626 27.5876L100.658 27.2346ZM99.5894 40.9301C101.119 40.5476 102.392 39.3569 103.463 37.6626L101.773 36.5933C100.827 38.0891 99.9182 38.7863 99.1043 38.9898L99.5894 40.9301ZM103.465 37.6607C104.679 35.7328 105.279 33.5601 105.279 31.1709H103.279C103.279 33.2088 102.772 35.0075 101.772 36.5951L103.465 37.6607ZM105.279 31.1709C105.279 29.8055 104.976 28.5947 104.194 27.7209L102.703 29.0545C103.028 29.4177 103.279 30.0623 103.279 31.1709H105.279ZM104.21 27.74C103.53 26.94 102.672 26.4111 101.642 26.4111V28.4111C101.914 28.4111 102.26 28.5333 102.687 29.0353L104.21 27.74ZM107.159 58.3193L106.176 58.1383L105.921 59.5219L107.312 59.3077L107.159 58.3193ZM113.702 22.7725L113.616 21.7762L112.857 21.8418L112.719 22.5914L113.702 22.7725ZM129.523 21.4053L130.479 21.6964L130.91 20.2817L129.437 20.409L129.523 21.4053ZM128.937 23.6025L129.91 23.8342L129.912 23.8242L128.937 23.6025ZM128.058 27.46L128.157 28.455L128.903 28.3805L129.041 27.6442L128.058 27.46ZM120.685 27.6064V26.6064H119.861L119.703 27.4144L120.685 27.6064ZM118.927 36.5908L117.946 36.3988L117.699 37.6593L118.981 37.5893L118.927 36.5908ZM125.763 36.2979L126.754 36.4345L126.925 35.188L125.672 35.302L125.763 36.2979ZM125.372 39.0811L124.382 38.9396L124.38 38.9551L124.378 38.9706L125.372 39.0811ZM124.982 41.8154L125.072 42.8113L125.837 42.7418L125.967 41.9853L124.982 41.8154ZM123.321 41.9131V42.9131H123.343L123.365 42.9121L123.321 41.9131ZM118.243 42.0596L118.211 41.0601L117.407 41.086L117.26 41.8775L118.243 42.0596ZM116.534 51.2881L115.551 51.106L115.293 52.501L116.693 52.2754L116.534 51.2881ZM123.81 50.1162L124.806 50.2014L124.915 48.9253L123.651 49.1289L123.81 50.1162ZM123.321 55.8291L123.474 56.8174L124.251 56.6977L124.318 55.9143L123.321 55.8291ZM108.143 58.5004L114.686 22.9535L112.719 22.5914L106.176 58.1383L108.143 58.5004ZM113.788 23.7687L129.609 22.4016L129.437 20.409L113.616 21.7762L113.788 23.7687ZM128.566 21.1141C128.332 21.8843 128.13 22.6399 127.962 23.3809L129.912 23.8242C130.069 23.1329 130.258 22.4237 130.479 21.6964L128.566 21.1141ZM127.964 23.3709C127.935 23.4905 127.87 23.764 127.842 23.8836C127.813 24.0032 127.748 24.2767 127.72 24.3963C127.695 24.5021 127.714 24.4187 127.689 24.5245C127.664 24.6303 127.684 24.5469 127.659 24.6527C127.634 24.7585 127.653 24.675 127.628 24.7808C127.603 24.8866 127.623 24.8032 127.598 24.909C127.573 25.0148 127.592 24.9314 127.567 25.0372C127.542 25.143 127.562 25.0596 127.537 25.1654C127.511 25.2711 127.531 25.1877 127.506 25.2935C127.481 25.3993 127.501 25.3159 127.476 25.4217L129.421 25.8849C129.45 25.7654 129.515 25.4918 129.543 25.3722C129.572 25.2527 129.637 24.9791 129.665 24.8595C129.691 24.7538 129.671 24.8372 129.696 24.7314C129.721 24.6256 129.701 24.709 129.726 24.6032C129.752 24.4974 129.732 24.5808 129.757 24.475C129.782 24.3692 129.762 24.4526 129.787 24.3469C129.813 24.2411 129.793 24.3245 129.818 24.2187C129.843 24.1129 129.823 24.1963 129.849 24.0905C129.874 23.9847 129.854 24.0681 129.879 23.9623C129.904 23.8565 129.884 23.94 129.91 23.8342L127.964 23.3709ZM127.476 25.4217C127.31 26.1163 127.176 26.7348 127.075 27.2757L129.041 27.6442C129.135 27.1434 129.261 26.5576 129.421 25.8849L127.476 25.4217ZM127.958 26.4649C127.03 26.5577 125.733 26.6064 124.054 26.6064V28.6064C125.76 28.6064 127.132 28.5575 128.157 28.455L127.958 26.4649ZM124.054 26.6064H120.685V28.6064H124.054V26.6064ZM119.703 27.4144L117.946 36.3988L119.908 36.7828L121.666 27.7985L119.703 27.4144ZM118.981 37.5893C120.767 37.492 122.254 37.4274 123.446 37.3951L123.392 35.3959C122.175 35.4288 120.668 35.4944 118.872 35.5923L118.981 37.5893ZM123.446 37.3951C124.643 37.3628 125.458 37.3297 125.853 37.2937L125.672 35.302C125.352 35.3311 124.604 35.3631 123.392 35.3959L123.446 37.3951ZM124.772 36.1612C124.642 37.1037 124.512 38.0298 124.382 38.9396L126.362 39.2225C126.493 38.3094 126.623 37.38 126.754 36.4345L124.772 36.1612ZM124.378 38.9706C124.283 39.8281 124.156 40.7196 123.996 41.6455L125.967 41.9853C126.133 41.0232 126.266 40.0919 126.366 39.1915L124.378 38.9706ZM124.891 40.8195C124.558 40.8498 124.024 40.8816 123.278 40.914L123.365 42.9121C124.116 42.8795 124.689 42.8461 125.072 42.8113L124.891 40.8195ZM123.321 40.9131C122.558 40.9131 121.764 40.9297 120.938 40.9627L121.018 42.9611C121.819 42.929 122.587 42.9131 123.321 42.9131V40.9131ZM120.938 40.9627C120.127 40.9951 119.218 41.0276 118.211 41.0601L118.276 43.0591C119.287 43.0264 120.201 42.9938 121.018 42.9611L120.938 40.9627ZM117.26 41.8775L115.551 51.106L117.518 51.4702L119.227 42.2417L117.26 41.8775ZM116.693 52.2754L123.969 51.1035L123.651 49.1289L116.375 50.3008L116.693 52.2754ZM122.813 50.0311L122.325 55.7439L124.318 55.9143L124.806 50.2014L122.813 50.0311ZM123.169 54.8408L107.007 57.331L107.312 59.3077L123.474 56.8174L123.169 54.8408Z" fill="black"/>
</g>
<defs>
<clipPath id="clip0_137_7135">
<rect width="177.052" height="496.175" fill="white" transform="translate(4.68311 4.99707)"/>
</clipPath>
</defs>
</svg>
