<svg width="186" height="506" viewBox="0 0 186 506" fill="none" xmlns="http://www.w3.org/2000/svg">
<rect width="185" height="505" transform="translate(0.4021 0.00195312)" fill="white"/>
<g clip-path="url(#clip0_113_15934)">
<rect width="177.052" height="496.175" transform="translate(4.68311 4.99731)" fill="#E9C8A5"/>
<path d="M10.9589 79.5528C11.3206 79.4094 16.6713 76.9868 40.6638 77.22C55.8341 77.3193 92.5261 79.3368 92.5261 79.3368C92.5261 79.3368 141.628 75.4122 143.211 75.6771C161.323 74.7756 171.481 78.5701 171.481 78.5701C171.481 78.5701 172.072 77.3225 173.139 78.5077C174.206 79.6929 171.481 98.5197 171.481 98.5197C171.481 98.5197 177.48 108.872 176.13 113.994C174.781 119.117 170.837 123.774 170.837 123.774C170.837 123.774 180.78 121.355 176.13 136.275C171.481 151.196 181.56 154.099 178.56 164.915C176.309 173.033 167.569 176.338 167.569 183.477C167.569 190.616 173.361 189.205 178.56 193.461C183.76 197.717 155.731 202.865 143.211 203.467C130.691 204.068 107.957 197.755 92.5628 202.344C77.1686 206.932 56.6219 203.308 53.554 203.467C50.486 203.625 36.1701 202.196 32.7204 202.11C29.3092 202.173 15.1856 201.494 13.5262 200.929C11.9238 200.275 11.234 200.524 10.226 199.56C7.62978 197.078 15.9911 186.333 15.9911 186.333L11.2734 158.243C11.2734 158.243 9.44031 157.598 8.58273 156.765C5.61233 153.879 16.8786 151.196 16.8786 151.196C16.8786 151.196 17.1462 149.962 11.7435 147.647C6.34084 145.331 11.1905 123.774 11.1905 123.774C11.1905 123.774 14.5727 119.558 14.8175 118.337C15.0623 117.117 15.7813 114.948 14.1019 113.994C12.4225 113.041 10.7755 112.158 10.226 111.004C9.67644 109.85 14.8165 104.231 14.8165 104.231L14.8165 98.5197C14.8165 98.5197 10.5971 79.6963 10.9589 79.5528Z" fill="white" stroke="black" stroke-width="2.14176"/>
<path d="M198.059 303.717L208.419 449.744C208.419 449.744 213.175 492.347 114.04 492.347C18.8003 492.347 23.6786 452.392 23.6786 452.392L33.737 329.17L35.297 302.447C35.8603 292.799 40.7612 285.237 47.4319 282.599C52.0118 282.599 57.9049 282.599 61.2776 282.599L62.2918 282.599H174.486C188.818 282.599 197.093 291.797 198.059 303.717Z" fill="#D7AA7B" stroke="black" stroke-width="5.39769" stroke-miterlimit="10"/>
<path d="M190.232 361.601C190.232 338.75 170.845 320.225 146.933 320.225C135.765 320.213 125.025 324.356 116.958 331.788C108.891 324.356 98.1511 320.213 86.9833 320.225C63.0718 320.225 43.6848 338.75 43.6848 361.601C43.6848 375.462 50.8412 387.695 61.7895 395.204C58.6201 402.727 56.9965 410.771 57.0084 418.889C57.0084 452.286 60.5883 475.422 116.558 475.422C173.815 475.422 176.908 452.286 176.908 418.889C176.908 410.481 175.198 402.478 172.127 395.204C183.075 387.695 190.232 375.456 190.232 361.601Z" fill="#F2D0A9"/>
<path d="M21.3617 282.577H50.782C49.8145 321.297 34.373 318.964 34.373 318.964C34.373 314.617 33.8741 313.965 30.3483 311.204L22.5819 306.478C21.955 306.106 21.9887 305.219 22.6291 304.879L33.8741 298.94L35.5932 298.085C37.4337 296.995 37.137 295.748 36.0584 294.841C36.0449 294.835 36.0381 294.822 36.0247 294.815C31.4134 291.03 20.7145 284.19 20.7145 284.19C20.0673 283.615 20.4853 282.577 21.3617 282.577Z" fill="#D7AA7A"/>
<path d="M58.5188 282.577H39.9403H21.3617C20.4853 282.577 20.0673 283.615 20.7145 284.19C20.7145 284.19 31.4134 291.03 36.0247 294.815C36.0381 294.822 36.0449 294.835 36.0584 294.841C37.137 295.748 37.4337 296.995 35.5932 298.085L33.8741 298.94L22.6291 304.879C21.9887 305.219 21.955 306.106 22.5819 306.478L30.3483 311.204C33.8741 313.965 34.373 314.617 34.373 318.964" stroke="black" stroke-width="5.39671" stroke-miterlimit="10"/>
<path d="M174.711 335.09L154.868 356.992L125.588 353.071L140.284 378.705L127.501 405.343L156.421 399.286L177.808 419.679L180.982 390.295L206.985 376.26L180.022 364.155L174.711 335.09Z" fill="#FF5A20"/>
<path d="M57.4155 335.09L77.2587 356.992L106.539 353.071L91.843 378.705L104.626 405.343L75.7059 399.286L54.3185 419.679L51.1443 390.295L25.1414 376.26L52.0965 364.155L57.4155 335.09Z" fill="#FF5A20"/>
<path d="M54.3202 422.578C53.9856 422.578 53.6511 422.518 53.3251 422.398C52.287 422.02 51.5578 421.085 51.4377 419.987L48.4265 392.123L23.7619 378.808C22.7924 378.285 22.2005 377.255 22.2434 376.148C22.2863 375.042 22.9469 374.064 23.9506 373.609L49.516 362.13L54.5604 334.566C54.7577 333.477 55.5556 332.602 56.6194 332.301C57.6832 331.992 58.8242 332.327 59.562 333.142L78.3757 353.912L106.154 350.188C107.253 350.043 108.334 350.532 108.951 351.45C109.569 352.368 109.612 353.551 109.063 354.512L95.1219 378.825L107.244 404.09C107.724 405.085 107.596 406.269 106.909 407.136C106.232 408.002 105.108 408.414 104.035 408.182L76.6084 402.434L56.3277 421.772C55.7701 422.295 55.0494 422.578 54.3202 422.578ZM31.6889 376.5L52.5186 387.747C53.3594 388.202 53.9256 389.043 54.02 389.986L56.5679 413.519L73.7001 397.184C74.395 396.524 75.3645 396.249 76.2996 396.446L99.4714 401.302L89.2281 379.958C88.8163 379.1 88.8506 378.087 89.3311 377.264L101.11 356.726L77.6465 359.866C76.7028 359.994 75.7505 359.643 75.1157 358.939L59.2188 341.395L54.9551 364.678C54.7835 365.613 54.1572 366.411 53.2907 366.797L31.6889 376.5Z" fill="black"/>
<path d="M179.901 422.003C179.206 422.003 178.519 421.754 177.979 421.274L156.969 402.726L129.782 409.521C128.71 409.787 127.577 409.426 126.865 408.586C126.153 407.745 125.973 406.57 126.419 405.557L137.563 379.846L122.705 356.091C122.121 355.156 122.113 353.963 122.696 353.028C123.279 352.084 124.343 351.561 125.441 351.664L153.34 354.324L171.347 332.85C172.059 332.01 173.183 331.632 174.256 331.898C175.328 332.155 176.16 333.005 176.4 334.086L182.491 361.436L208.477 371.919C209.498 372.331 210.202 373.292 210.287 374.39C210.373 375.488 209.824 376.543 208.872 377.109L184.739 391.359L182.8 419.318C182.723 420.425 182.028 421.385 181.007 421.797C180.647 421.926 180.278 422.003 179.901 422.003ZM157.75 396.644C158.453 396.644 159.131 396.892 159.671 397.373L177.421 413.038L179.06 389.42C179.129 388.468 179.66 387.61 180.475 387.121L200.859 375.085L178.905 366.231C178.022 365.871 177.37 365.107 177.155 364.172L172.008 341.069L156.797 359.205C156.188 359.934 155.253 360.32 154.301 360.234L130.734 357.987L143.286 378.053C143.792 378.859 143.869 379.872 143.491 380.747L134.072 402.469L157.038 396.729C157.278 396.669 157.518 396.644 157.75 396.644Z" fill="black"/>
<path d="M96.3615 373.719C95.2806 373.719 94.2425 373.11 93.7449 372.064C93.0586 370.622 93.6677 368.889 95.1176 368.194C119.19 356.716 136.254 367.928 136.974 368.409C138.304 369.301 138.647 371.111 137.755 372.432C136.863 373.754 135.061 374.105 133.74 373.222C133.105 372.801 118.564 363.442 97.6227 373.428C97.2109 373.625 96.7819 373.719 96.3615 373.719Z" fill="black"/>
<path d="M113.278 463.493C116.371 461.114 123.269 447.79 113.276 438.867" stroke="black" stroke-width="4.99654" stroke-linecap="round" stroke-linejoin="round"/>
<path d="M143.251 468.486C131.472 464.206 123.265 455.995 118.625 450.641C140.753 431.727 152.647 429.615 162.166 434.582C178.582 443.148 172.624 459.53 167.163 464.207C162.166 468.486 153.453 472.193 143.251 468.486Z" fill="#FFACB8" stroke="black" stroke-width="4.99654" stroke-linecap="round" stroke-linejoin="round"/>
<path d="M154.61 292.837L154.614 292.834C158.881 290.141 162.744 286.962 166.046 283.399C166.431 282.981 166.649 282.722 166.784 282.53C166.81 282.492 166.83 282.461 166.845 282.437C166.816 282.323 166.728 282.045 166.461 281.501C166.46 281.5 166.46 281.5 166.46 281.499L168.487 280.506C167.802 279.118 164.781 272.802 160.548 263.867L154.61 292.837ZM154.61 292.837C129.188 308.976 90.4087 308.649 69.7384 285.177L69.7357 285.174M154.61 292.837L69.7357 285.174M69.7357 285.174C68.9611 284.297 68.7086 283.673 68.6434 283.192C68.5776 282.707 68.6601 282.058 69.1357 281.052L69.2232 280.866M69.7357 285.174L69.2232 280.866M69.2232 280.866L69.2414 280.798M69.2232 280.866L69.2414 280.798M69.2414 280.798C69.2677 280.735 69.3023 280.653 69.3471 280.547L69.394 280.436C69.531 280.111 69.7288 279.64 69.9764 279.038C71.3933 275.588 74.5805 267.805 78.6387 257.895L79.0391 256.917L79.0401 256.914C79.6432 255.437 80.2616 253.92 80.894 252.369C82.418 248.63 84.0233 244.693 85.6913 240.627C88.541 233.683 91.5097 226.399 94.4084 219.27C96.5285 214.081 98.6059 208.984 100.572 204.162C102.42 199.629 104.169 195.337 105.763 191.438L69.2414 280.798Z" fill="#FF7777" stroke="black" stroke-width="4.51997"/>
<path d="M155.232 258.886C156.491 261.456 157.68 263.881 159.008 266.657C138.779 289.433 106.578 291.118 77.8186 280.128C77.6226 280.052 77.4167 279.974 77.2012 279.892C75.5619 279.268 73.3675 278.432 70.7383 277.121C72.301 273.311 74.9164 266.925 78.1178 259.107C82.079 260.925 88.4473 263.47 97.6189 264.032C115.846 265.176 137.294 264.327 150.763 249.691C152.343 252.984 153.655 255.668 154.886 258.18C155.002 258.417 155.117 258.652 155.232 258.886Z" fill="#95ECFF" stroke="black" stroke-width="4.51997"/>
<path d="M136.477 219.146C137.854 222.158 139.302 225.324 141.155 229.053C141.366 229.691 141.545 230.2 141.692 230.604C135.211 237.07 125.869 240.877 115.577 242.417C105.679 243.899 95.0883 243.251 85.7452 240.995C88.0849 235.363 90.4879 229.548 92.8549 223.807C93.5913 223.954 94.5221 224.121 95.6161 224.276C98.3895 224.667 102.224 224.977 106.621 224.65C114.719 224.047 124.774 221.273 133.552 212.858C134.568 214.972 135.498 217.005 136.464 219.118L136.477 219.146ZM91.1372 223.436C91.1118 223.432 91.0968 223.429 91.0955 223.429C91.0943 223.428 91.107 223.43 91.1372 223.436Z" fill="#FDFF97" stroke="black" stroke-width="4.51997"/>
<path d="M124.7 194.662C124.345 195.022 123.901 195.455 123.379 195.931C121.88 197.296 119.782 198.971 117.334 200.292C114.88 201.618 112.185 202.526 109.454 202.512C107.17 202.499 104.745 201.842 102.281 200.05C103.436 197.361 104.967 193.815 106.585 190.069C109.174 184.072 111.985 177.564 113.828 173.239C114.079 173.238 114.385 173.236 114.762 173.236C116.705 176.838 117.238 178.216 117.836 179.763C118.129 180.52 118.438 181.317 118.935 182.436C119.501 183.71 121.118 187.132 122.574 190.199C123.306 191.74 124.004 193.204 124.518 194.282C124.582 194.414 124.642 194.541 124.7 194.662Z" fill="#BAFFAE" stroke="black" stroke-width="4.51997"/>
<path d="M24.1272 104.64C24.1272 104.066 24.2502 103.464 24.4963 102.835C24.7561 102.206 25.0979 101.639 25.5217 101.133C25.9455 100.614 26.4309 100.183 26.9778 99.8411C27.5383 99.4993 28.1262 99.3284 28.7414 99.3284C29.0559 99.3284 29.3704 99.3831 29.6848 99.4924C29.9993 99.6018 30.2795 99.759 30.5256 99.9641C30.7854 100.169 30.9905 100.415 31.1409 100.702C31.3049 100.99 31.387 101.311 31.387 101.666C31.1409 101.666 30.9153 101.639 30.7102 101.584C30.5188 101.53 30.3274 101.468 30.136 101.4C29.9446 101.318 29.7532 101.249 29.5618 101.195C29.384 101.14 29.1858 101.113 28.967 101.113C28.4065 101.113 27.9485 101.256 27.593 101.543C27.2512 101.817 26.9778 102.165 26.7727 102.589C26.5676 103.013 26.4241 103.471 26.342 103.963C26.2737 104.442 26.2395 104.893 26.2395 105.317C26.2395 105.385 26.2395 105.515 26.2395 105.706C26.2532 105.898 26.26 106.103 26.26 106.322C26.2737 106.527 26.2805 106.725 26.2805 106.916C26.2942 107.108 26.3079 107.238 26.3215 107.306C26.4719 107.634 26.6155 107.887 26.7522 108.065C26.9026 108.242 27.0598 108.379 27.2239 108.475C27.3879 108.557 27.5657 108.612 27.7571 108.639C27.9485 108.653 28.1741 108.659 28.4338 108.659C28.7893 108.659 29.0969 108.605 29.3567 108.495C29.6301 108.386 29.883 108.256 30.1155 108.106C30.3479 107.955 30.5666 107.791 30.7717 107.614C30.9768 107.422 31.1887 107.251 31.4075 107.101C31.6399 106.937 31.886 106.807 32.1457 106.711C32.4192 106.602 32.7268 106.547 33.0686 106.547C33.0686 107.217 32.9455 107.812 32.6995 108.331C32.467 108.851 32.1321 109.295 31.6946 109.664C31.2707 110.033 30.7649 110.321 30.177 110.526C29.6028 110.717 28.9739 110.813 28.2903 110.813C27.6477 110.813 27.0666 110.594 26.5471 110.156C26.0413 109.719 25.6038 109.186 25.2346 108.557C24.8791 107.914 24.6057 107.238 24.4143 106.527C24.2229 105.816 24.1272 105.187 24.1272 104.64ZM34.217 102.199C34.217 102.076 34.2239 101.953 34.2375 101.83C34.2512 101.694 34.2786 101.577 34.3196 101.482C34.3606 101.372 34.4221 101.283 34.5041 101.215C34.5998 101.147 34.7297 101.113 34.8938 101.113C35.0305 101.113 35.1809 101.222 35.345 101.441C35.5227 101.646 35.7004 101.912 35.8782 102.24C36.0559 102.555 36.2268 102.904 36.3909 103.286C36.5686 103.669 36.719 104.025 36.842 104.353C36.9788 104.667 37.0881 104.941 37.1702 105.173C37.2522 105.406 37.3 105.529 37.3137 105.542C37.4914 105.064 37.6897 104.544 37.9084 103.984C38.1272 103.423 38.3938 102.904 38.7082 102.425C39.0364 101.933 39.4192 101.523 39.8567 101.195C40.3079 100.866 40.8547 100.702 41.4973 100.702C41.8254 100.702 42.133 100.757 42.4202 100.866C42.7209 100.962 42.9807 101.113 43.1995 101.318C43.4319 101.509 43.6164 101.741 43.7532 102.015C43.8899 102.288 43.9582 102.603 43.9582 102.958C43.9582 103.259 43.8352 103.471 43.5891 103.594C43.3567 103.717 43.0901 103.779 42.7893 103.779H42.5842L41.7024 102.897C41.675 102.897 41.6545 102.89 41.6409 102.876C41.6135 102.876 41.5862 102.876 41.5588 102.876C41.5452 102.863 41.5247 102.856 41.4973 102.856C41.0188 102.856 40.6428 102.992 40.3694 103.266C40.1096 103.526 39.9114 103.854 39.7747 104.25C39.6379 104.633 39.5491 105.043 39.508 105.481C39.4807 105.905 39.467 106.294 39.467 106.65C39.467 106.923 39.4944 107.203 39.5491 107.49C39.6038 107.764 39.6653 108.037 39.7336 108.311C39.802 108.571 39.8635 108.844 39.9182 109.131C39.9729 109.405 40.0002 109.692 40.0002 109.992C40.0002 110.567 39.6926 110.854 39.0774 110.854C38.7356 110.854 38.3801 110.676 38.011 110.321C37.6418 109.951 37.2727 109.487 36.9036 108.926C36.5481 108.365 36.2063 107.75 35.8782 107.08C35.55 106.397 35.2629 105.734 35.0168 105.091C34.7707 104.448 34.5725 103.867 34.4221 103.348C34.2854 102.828 34.217 102.446 34.217 102.199ZM53.5149 108.167C52.9954 108.523 52.5442 108.844 52.1614 109.131C51.7922 109.405 51.4299 109.637 51.0745 109.828C50.719 110.02 50.3362 110.163 49.926 110.259C49.5295 110.355 49.0373 110.403 48.4495 110.403C47.178 110.403 46.2346 110.068 45.6194 109.398C45.0041 108.714 44.6965 107.702 44.6965 106.363C44.6965 105.843 44.7649 105.303 44.9016 104.742C45.0383 104.182 45.2366 103.628 45.4963 103.081C45.7698 102.521 46.0911 101.994 46.4602 101.502C46.8293 100.996 47.2463 100.552 47.7112 100.169C48.176 99.7864 48.6682 99.4856 49.1877 99.2668C49.7209 99.0344 50.2815 98.9182 50.8694 98.9182C51.8538 99.0139 52.6262 99.26 53.1868 99.6565C53.7473 100.039 54.1711 100.538 54.4582 101.154C54.7454 101.755 54.9436 102.432 55.053 103.184C55.1623 103.922 55.2444 104.688 55.2991 105.481C55.3674 106.274 55.4495 107.067 55.5452 107.86C55.6409 108.653 55.8391 109.384 56.1399 110.054C55.9622 110.505 55.7913 110.82 55.6272 110.997C55.4768 111.189 55.3059 111.223 55.1145 111.1C54.9231 110.977 54.6975 110.676 54.4377 110.198C54.1916 109.719 53.884 109.042 53.5149 108.167ZM46.4397 106.404C46.4397 107.183 46.5832 107.757 46.8704 108.126C47.1711 108.482 47.6975 108.659 48.4495 108.659C49.01 108.659 49.5432 108.564 50.0491 108.372C50.5686 108.167 51.0198 107.894 51.4026 107.552C51.7854 107.197 52.093 106.773 52.3254 106.281C52.5579 105.788 52.6741 105.241 52.6741 104.64C52.6741 104.394 52.6809 104.052 52.6946 103.615C52.7082 103.163 52.6809 102.719 52.6125 102.281C52.5442 101.844 52.4143 101.468 52.2229 101.154C52.0315 100.825 51.7444 100.661 51.3616 100.661C50.6506 100.661 49.9944 100.846 49.3928 101.215C48.7913 101.571 48.2717 102.029 47.8342 102.589C47.3967 103.15 47.0549 103.772 46.8088 104.455C46.5627 105.125 46.4397 105.775 46.4397 106.404ZM64.4866 100.702C64.5139 100.675 64.5344 100.641 64.5481 100.6C64.5754 100.545 64.5891 100.504 64.5891 100.477C64.5891 100.162 64.3977 99.9573 64.0149 99.8616C63.6457 99.7522 63.1809 99.7043 62.6204 99.718C62.0598 99.718 61.4514 99.7454 60.7952 99.8C60.1526 99.8547 59.551 99.8821 58.9905 99.8821C58.4299 99.8684 57.9582 99.8 57.5754 99.677C57.2063 99.5403 57.0217 99.2942 57.0217 98.9387C57.0217 98.7063 57.0354 98.5354 57.0627 98.426C57.1038 98.303 57.1584 98.2209 57.2268 98.1799C57.2952 98.1252 57.3772 98.0979 57.4729 98.0979C57.5823 98.0842 57.6985 98.0774 57.8215 98.0774H58.3547C58.5188 98.0911 58.7854 98.1116 59.1545 98.1389C59.5237 98.1526 59.9407 98.1731 60.4055 98.2004C60.8704 98.2141 61.3557 98.2415 61.8616 98.2825C62.3811 98.3098 62.8664 98.3372 63.3176 98.3645C63.7825 98.3918 64.1926 98.4192 64.5481 98.4465C64.9172 98.4739 65.1975 98.4944 65.3889 98.5081C65.635 98.6584 65.8401 98.7952 66.0041 98.9182C66.1819 99.0413 66.3186 99.1643 66.4143 99.2874C66.5237 99.4104 66.5989 99.5471 66.6399 99.6975C66.6946 99.8342 66.7219 100.012 66.7219 100.231C66.7219 100.696 66.6262 101.154 66.4348 101.605C66.2434 102.042 65.9973 102.487 65.6965 102.938C65.4094 103.375 65.0745 103.82 64.6916 104.271C64.3225 104.708 63.9602 105.146 63.6047 105.583C63.2493 106.021 62.9143 106.458 62.5998 106.896C62.2854 107.333 62.0393 107.757 61.8616 108.167H67.1321C67.5286 108.167 67.7815 108.242 67.8909 108.393C68.0002 108.543 68.0549 108.755 68.0549 109.029C68.0549 109.22 68.0344 109.398 67.9934 109.562C67.9524 109.726 67.8088 109.849 67.5627 109.931C66.9065 109.986 66.2434 110.068 65.5735 110.177C64.9036 110.286 64.2336 110.396 63.5637 110.505C62.8938 110.615 62.217 110.71 61.5334 110.792C60.8635 110.874 60.1936 110.915 59.5237 110.915C59.5237 109.931 59.6741 108.988 59.9748 108.085C60.2893 107.169 60.6858 106.287 61.1643 105.44C61.6565 104.592 62.1897 103.772 62.7639 102.979C63.3518 102.186 63.926 101.427 64.4866 100.702ZM68.9573 100.21C68.9573 100.087 68.9573 99.9641 68.9573 99.8411C68.9709 99.7043 68.9983 99.5813 69.0393 99.4719C69.094 99.3489 69.1623 99.26 69.2444 99.2053C69.3401 99.137 69.4768 99.1028 69.6545 99.1028C69.6682 99.1028 69.6819 99.1028 69.6955 99.1028C69.7229 99.1028 69.7502 99.1028 69.7776 99.1028C69.8186 99.1165 69.8528 99.1233 69.8801 99.1233C70.1399 99.4788 70.3655 99.9368 70.5569 100.497C70.7483 101.044 70.9329 101.632 71.1106 102.261C71.2883 102.876 71.4797 103.505 71.6848 104.148C71.8899 104.777 72.1565 105.344 72.4846 105.85C72.8127 106.356 73.2161 106.759 73.6946 107.06C74.1731 107.361 74.7678 107.49 75.4788 107.449C75.7932 107.449 75.9983 107.279 76.094 106.937C76.1897 106.595 76.2375 106.157 76.2375 105.624C76.2512 105.091 76.2375 104.503 76.1965 103.861C76.1692 103.218 76.1692 102.61 76.1965 102.035C76.2375 101.448 76.3401 100.935 76.5041 100.497C76.6819 100.06 76.9827 99.7659 77.4065 99.6155C77.5842 99.9709 77.7278 100.531 77.8372 101.297C77.9602 102.049 78.0491 102.924 78.1038 103.922C78.1584 104.906 78.1858 105.98 78.1858 107.142C78.1858 108.29 78.1584 109.439 78.1038 110.587C78.0491 111.722 77.967 112.816 77.8577 113.868C77.7483 114.921 77.6252 115.844 77.4885 116.637C77.3518 117.43 77.1877 118.052 76.9963 118.503C76.8186 118.968 76.6272 119.166 76.4221 119.098C76.135 118.824 75.9094 118.469 75.7454 118.031C75.595 117.594 75.4856 117.109 75.4172 116.575C75.3625 116.042 75.342 115.475 75.3557 114.873C75.3694 114.285 75.3899 113.691 75.4172 113.089C75.4582 112.488 75.4993 111.9 75.5403 111.325C75.595 110.751 75.6223 110.225 75.6223 109.746C75.1301 109.787 74.6243 109.712 74.1047 109.521C73.5989 109.329 73.0998 109.035 72.6077 108.639C72.1155 108.229 71.6438 107.737 71.1926 107.162C70.7551 106.588 70.3655 105.939 70.0237 105.214C69.6955 104.49 69.4358 103.71 69.2444 102.876C69.053 102.029 68.9573 101.14 68.9573 100.21ZM88.4192 102.199C88.4192 101.858 88.4739 101.591 88.5832 101.4C88.7063 101.208 88.9592 101.113 89.342 101.113C89.383 101.113 89.4582 101.119 89.5676 101.133C89.6907 101.133 89.7659 101.133 89.7932 101.133C89.8889 101.557 89.9846 102.022 90.0803 102.528C90.1897 103.02 90.3127 103.519 90.4495 104.025C90.5862 104.531 90.7366 105.03 90.9006 105.522C91.0784 106.014 91.2903 106.458 91.5364 106.855C91.7825 106.595 91.9602 106.287 92.0696 105.932C92.1789 105.576 92.261 105.221 92.3157 104.865C92.3704 104.496 92.4182 104.148 92.4592 103.82C92.5139 103.478 92.6164 103.191 92.7668 102.958C92.9172 102.712 93.136 102.534 93.4231 102.425C93.7239 102.316 94.134 102.316 94.6536 102.425C95.2278 102.425 95.6858 102.534 96.0276 102.753C96.3694 102.958 96.6633 103.225 96.9094 103.553C97.1692 103.867 97.4153 104.209 97.6477 104.578C97.8938 104.934 98.2014 105.255 98.5705 105.542C98.6526 105.365 98.7551 105.146 98.8782 104.886C99.0012 104.613 99.1516 104.332 99.3293 104.045C99.5207 103.744 99.719 103.45 99.9241 103.163C100.143 102.863 100.368 102.596 100.601 102.364C100.833 102.117 101.073 101.919 101.319 101.769C101.565 101.605 101.804 101.523 102.036 101.523C102.597 101.523 103.082 101.7 103.492 102.056C103.903 102.398 104.251 102.835 104.538 103.368C104.839 103.888 105.085 104.476 105.277 105.132C105.468 105.775 105.618 106.397 105.728 106.998C105.837 107.6 105.912 108.154 105.953 108.659C106.008 109.152 106.035 109.507 106.035 109.726C106.035 109.904 105.994 110.04 105.912 110.136C105.83 110.232 105.728 110.307 105.605 110.362C105.482 110.403 105.345 110.43 105.195 110.444C105.058 110.457 104.928 110.464 104.805 110.464C104.778 110.464 104.737 110.464 104.682 110.464C104.627 110.45 104.566 110.437 104.497 110.423C104.443 110.409 104.367 110.389 104.272 110.362L102.939 104.23C102.939 104.189 102.884 104.114 102.775 104.004C102.665 103.881 102.583 103.806 102.529 103.779C102.488 103.779 102.453 103.772 102.426 103.758C102.399 103.758 102.378 103.758 102.364 103.758C102.351 103.744 102.337 103.738 102.323 103.738C102.036 103.738 101.763 103.854 101.503 104.086C101.257 104.319 101.025 104.613 100.806 104.968C100.587 105.323 100.382 105.72 100.191 106.157C99.9993 106.595 99.8284 107.032 99.678 107.47C99.5276 107.894 99.3909 108.29 99.2678 108.659C99.1584 109.015 99.0696 109.288 99.0012 109.48C98.9465 109.507 98.8372 109.534 98.6731 109.562C98.509 109.575 98.3997 109.582 98.345 109.582C97.9622 109.582 97.6682 109.452 97.4631 109.193C97.258 108.919 97.0872 108.584 96.9504 108.188C96.8274 107.791 96.718 107.361 96.6223 106.896C96.5403 106.417 96.4309 105.98 96.2942 105.583C96.1711 105.187 95.9934 104.859 95.761 104.599C95.5422 104.325 95.2278 104.189 94.8176 104.189C94.6672 104.189 94.5237 104.339 94.387 104.64C94.2502 104.941 94.1272 105.323 94.0178 105.788C93.9084 106.24 93.8059 106.732 93.7102 107.265C93.6145 107.784 93.5325 108.277 93.4641 108.741C93.4094 109.193 93.3684 109.575 93.3411 109.89C93.3137 110.204 93.3 110.362 93.3 110.362C93.2727 110.403 93.218 110.45 93.136 110.505C93.0539 110.546 92.9651 110.594 92.8694 110.649C92.7873 110.703 92.6985 110.744 92.6028 110.772C92.5207 110.799 92.4592 110.813 92.4182 110.813C92.0354 110.813 91.6663 110.642 91.3108 110.3C90.9553 109.945 90.6272 109.493 90.3264 108.947C90.0393 108.386 89.7727 107.771 89.5266 107.101C89.2942 106.431 89.0959 105.775 88.9319 105.132C88.7678 104.49 88.6379 103.908 88.5422 103.389C88.4602 102.869 88.4192 102.473 88.4192 102.199ZM106.876 106.65C106.876 105.802 107.074 105.016 107.471 104.291C107.867 103.553 108.387 102.924 109.03 102.405C109.686 101.871 110.417 101.454 111.224 101.154C112.044 100.853 112.871 100.702 113.705 100.702C114.17 100.702 114.58 100.853 114.936 101.154C115.305 101.454 115.613 101.823 115.859 102.261C116.105 102.685 116.289 103.136 116.412 103.615C116.549 104.093 116.617 104.51 116.617 104.865C116.617 105.631 116.433 106.376 116.064 107.101C115.695 107.812 115.216 108.448 114.628 109.008C114.04 109.555 113.377 109.999 112.639 110.341C111.901 110.683 111.162 110.854 110.424 110.854C109.768 110.854 109.214 110.744 108.763 110.526C108.312 110.293 107.949 109.992 107.676 109.623C107.403 109.24 107.198 108.796 107.061 108.29C106.938 107.771 106.876 107.224 106.876 106.65ZM108.619 106.855C108.619 107.21 108.647 107.525 108.701 107.798C108.77 108.058 108.879 108.283 109.03 108.475C109.194 108.666 109.406 108.817 109.665 108.926C109.925 109.022 110.246 109.07 110.629 109.07C111.135 109.07 111.641 108.933 112.147 108.659C112.653 108.372 113.104 108.017 113.5 107.593C113.91 107.156 114.239 106.677 114.485 106.157C114.731 105.638 114.854 105.132 114.854 104.64C114.854 104.421 114.833 104.182 114.792 103.922C114.751 103.662 114.683 103.423 114.587 103.204C114.491 102.986 114.355 102.801 114.177 102.651C113.999 102.5 113.774 102.425 113.5 102.425C113.254 102.425 112.96 102.507 112.618 102.671C112.29 102.835 111.942 103.047 111.573 103.307C111.217 103.567 110.862 103.861 110.506 104.189C110.164 104.517 109.85 104.845 109.563 105.173C109.276 105.501 109.043 105.816 108.865 106.116C108.701 106.417 108.619 106.663 108.619 106.855ZM117.417 103.902C117.417 103.546 117.506 103.293 117.684 103.143C117.862 102.979 118.149 102.897 118.545 102.897H118.75C118.791 103.115 118.839 103.368 118.894 103.656C118.948 103.943 119.031 104.237 119.14 104.537C119.249 104.838 119.379 105.118 119.53 105.378C119.68 105.624 119.864 105.823 120.083 105.973C120.097 105.494 120.213 105.036 120.432 104.599C120.664 104.148 120.945 103.751 121.273 103.409C121.614 103.054 121.984 102.76 122.38 102.528C122.79 102.281 123.194 102.117 123.59 102.035H124.041C124.698 102.035 125.258 102.186 125.723 102.487C126.188 102.774 126.571 103.156 126.871 103.635C127.186 104.1 127.425 104.633 127.589 105.235C127.753 105.836 127.876 106.451 127.958 107.08C128.054 107.696 128.109 108.297 128.122 108.885C128.15 109.459 128.163 109.951 128.163 110.362H126.666C126.584 109.541 126.482 108.755 126.359 108.003C126.318 107.702 126.263 107.388 126.195 107.06C126.126 106.718 126.051 106.404 125.969 106.116C125.887 105.816 125.798 105.542 125.702 105.296C125.607 105.036 125.497 104.818 125.374 104.64C125.32 104.585 125.244 104.51 125.149 104.414C125.067 104.319 124.978 104.223 124.882 104.127C124.786 104.031 124.698 103.949 124.615 103.881C124.533 103.813 124.486 103.779 124.472 103.779C124.062 103.669 123.706 103.751 123.406 104.025C123.105 104.284 122.838 104.64 122.606 105.091C122.373 105.542 122.182 106.055 122.031 106.629C121.895 107.203 121.779 107.757 121.683 108.29C121.587 108.81 121.519 109.268 121.478 109.664C121.437 110.047 121.409 110.28 121.396 110.362C121.054 110.608 120.733 110.683 120.432 110.587C120.131 110.478 119.844 110.259 119.571 109.931C119.311 109.603 119.072 109.193 118.853 108.7C118.648 108.208 118.456 107.689 118.279 107.142C118.101 106.581 117.937 106.021 117.786 105.46C117.65 104.9 117.527 104.38 117.417 103.902ZM133.27 110.403C133.051 110.594 132.819 110.505 132.573 110.136C132.34 109.767 132.101 109.213 131.855 108.475C131.609 107.723 131.363 106.827 131.116 105.788C130.884 104.749 130.658 103.649 130.44 102.487C130.221 101.324 130.009 100.149 129.804 98.9592C129.613 97.7561 129.442 96.6282 129.291 95.5754C129.291 95.384 129.284 95.1926 129.271 95.0012C129.271 94.7961 129.291 94.6116 129.332 94.4475C129.387 94.2698 129.476 94.1125 129.599 93.9758C129.736 93.8391 129.941 93.7366 130.214 93.6682C130.241 93.6545 130.296 93.6682 130.378 93.7092C130.474 93.7366 130.57 93.7776 130.665 93.8323C130.761 93.8733 130.843 93.9211 130.911 93.9758C130.993 94.0305 131.048 94.0784 131.075 94.1194C130.898 96.676 131.192 99.1643 131.957 101.584C131.998 101.543 132.108 101.406 132.285 101.174C132.463 100.928 132.689 100.648 132.962 100.333C133.236 100.005 133.543 99.6565 133.885 99.2874C134.24 98.9182 134.61 98.5764 134.992 98.262C135.375 97.9475 135.758 97.6877 136.141 97.4827C136.524 97.2639 136.893 97.1545 137.248 97.1545C137.453 97.1545 137.652 97.2024 137.843 97.2981C138.048 97.3938 138.151 97.5784 138.151 97.8518C138.151 97.8792 138.144 97.9202 138.13 97.9749C138.116 98.0159 138.11 98.05 138.11 98.0774C137.891 98.2688 137.556 98.5627 137.105 98.9592C136.667 99.3557 136.202 99.8 135.71 100.292C135.218 100.784 134.746 101.297 134.295 101.83C133.844 102.364 133.502 102.869 133.27 103.348C133.229 103.43 133.215 103.505 133.229 103.573C133.242 103.628 133.256 103.697 133.27 103.779C133.42 103.833 133.659 103.915 133.988 104.025C134.316 104.134 134.678 104.264 135.074 104.414C135.471 104.551 135.895 104.701 136.346 104.865C136.797 105.016 137.221 105.166 137.617 105.317C138.014 105.467 138.369 105.604 138.684 105.727C139.012 105.836 139.258 105.918 139.422 105.973C139.614 106.055 139.771 106.11 139.894 106.137C140.017 106.164 140.113 106.205 140.181 106.26C140.249 106.301 140.297 106.363 140.324 106.445C140.352 106.527 140.365 106.65 140.365 106.814C140.365 107.21 140.27 107.47 140.078 107.593C139.887 107.716 139.614 107.778 139.258 107.778C138.205 107.709 137.173 107.49 136.161 107.121C135.15 106.739 134.124 106.281 133.085 105.747C133.044 106.007 133.058 106.308 133.126 106.65C133.208 106.991 133.304 107.333 133.413 107.675C133.523 108.017 133.625 108.352 133.721 108.68C133.83 109.008 133.892 109.302 133.906 109.562C133.933 109.822 133.906 110.027 133.823 110.177C133.741 110.327 133.557 110.403 133.27 110.403ZM141.165 105.112C141.165 104.373 141.254 103.635 141.432 102.897C141.61 102.158 141.89 101.495 142.273 100.907C142.669 100.32 143.175 99.8411 143.79 99.4719C144.419 99.1028 145.178 98.9182 146.067 98.9182C146.573 98.9182 147.017 99.0139 147.4 99.2053C147.782 99.3831 148.104 99.6223 148.364 99.9231C148.623 100.224 148.815 100.579 148.938 100.99C149.074 101.386 149.143 101.803 149.143 102.24C149.143 102.938 148.979 103.615 148.651 104.271C148.336 104.927 147.906 105.508 147.359 106.014C146.825 106.506 146.21 106.882 145.513 107.142C144.816 107.388 144.105 107.443 143.38 107.306C143.394 107.702 143.524 108.024 143.77 108.27C144.03 108.502 144.337 108.68 144.693 108.803C145.048 108.926 145.417 109.008 145.8 109.049C146.183 109.076 146.525 109.09 146.825 109.09C147.14 109.09 147.434 109.063 147.707 109.008C147.981 108.953 148.254 108.892 148.528 108.823C148.801 108.755 149.074 108.694 149.348 108.639C149.635 108.584 149.936 108.557 150.25 108.557C150.373 108.557 150.496 108.564 150.619 108.577C150.742 108.591 150.859 108.625 150.968 108.68C151.077 108.721 151.166 108.796 151.235 108.906C151.303 109.001 151.337 109.124 151.337 109.275C151.337 109.534 151.241 109.753 151.05 109.931C150.859 110.095 150.613 110.239 150.312 110.362C150.025 110.485 149.703 110.58 149.348 110.649C148.992 110.703 148.644 110.751 148.302 110.792C147.974 110.82 147.666 110.833 147.379 110.833C147.106 110.847 146.901 110.854 146.764 110.854C145.889 110.854 145.103 110.717 144.406 110.444C143.708 110.156 143.12 109.767 142.642 109.275C142.163 108.769 141.794 108.167 141.534 107.47C141.288 106.759 141.165 105.973 141.165 105.112ZM143.339 103.779C143.339 104.257 143.401 104.606 143.524 104.824C143.66 105.043 143.982 105.153 144.488 105.153C144.843 105.153 145.192 105.091 145.533 104.968C145.875 104.831 146.183 104.647 146.456 104.414C146.743 104.182 146.969 103.908 147.133 103.594C147.297 103.28 147.379 102.938 147.379 102.569C147.379 102.364 147.359 102.152 147.318 101.933C147.29 101.714 147.222 101.516 147.113 101.338C147.003 101.147 146.86 100.996 146.682 100.887C146.518 100.764 146.299 100.702 146.026 100.702C145.615 100.702 145.24 100.798 144.898 100.99C144.57 101.167 144.289 101.406 144.057 101.707C143.824 101.994 143.647 102.323 143.524 102.692C143.401 103.047 143.339 103.409 143.339 103.779ZM152.26 100.21C152.26 100.087 152.26 99.9641 152.26 99.8411C152.274 99.7043 152.301 99.5813 152.342 99.4719C152.397 99.3489 152.465 99.26 152.547 99.2053C152.643 99.137 152.78 99.1028 152.957 99.1028C152.971 99.1028 152.985 99.1028 152.998 99.1028C153.026 99.1028 153.053 99.1028 153.08 99.1028C153.121 99.1165 153.156 99.1233 153.183 99.1233C153.443 99.4788 153.668 99.9368 153.86 100.497C154.051 101.044 154.236 101.632 154.413 102.261C154.591 102.876 154.782 103.505 154.988 104.148C155.193 104.777 155.459 105.344 155.787 105.85C156.115 106.356 156.519 106.759 156.997 107.06C157.476 107.361 158.071 107.49 158.781 107.449C159.096 107.449 159.301 107.279 159.397 106.937C159.492 106.595 159.54 106.157 159.54 105.624C159.554 105.091 159.54 104.503 159.499 103.861C159.472 103.218 159.472 102.61 159.499 102.035C159.54 101.448 159.643 100.935 159.807 100.497C159.985 100.06 160.285 99.7659 160.709 99.6155C160.887 99.9709 161.031 100.531 161.14 101.297C161.263 102.049 161.352 102.924 161.406 103.922C161.461 104.906 161.489 105.98 161.489 107.142C161.489 108.29 161.461 109.439 161.406 110.587C161.352 111.722 161.27 112.816 161.16 113.868C161.051 114.921 160.928 115.844 160.791 116.637C160.655 117.43 160.49 118.052 160.299 118.503C160.121 118.968 159.93 119.166 159.725 119.098C159.438 118.824 159.212 118.469 159.048 118.031C158.898 117.594 158.788 117.109 158.72 116.575C158.665 116.042 158.645 115.475 158.658 114.873C158.672 114.285 158.693 113.691 158.72 113.089C158.761 112.488 158.802 111.9 158.843 111.325C158.898 110.751 158.925 110.225 158.925 109.746C158.433 109.787 157.927 109.712 157.407 109.521C156.902 109.329 156.403 109.035 155.91 108.639C155.418 108.229 154.947 107.737 154.495 107.162C154.058 106.588 153.668 105.939 153.326 105.214C152.998 104.49 152.739 103.71 152.547 102.876C152.356 102.029 152.26 101.14 152.26 100.21ZM36.2576 138.89C36.4763 138.74 36.7361 138.548 37.0369 138.316C37.3513 138.07 37.6658 137.81 37.9802 137.536C38.2947 137.263 38.5886 136.976 38.8621 136.675C39.1355 136.374 39.3474 136.087 39.4978 135.814C39.6619 135.527 39.7439 135.26 39.7439 135.014C39.7439 134.768 39.6208 134.563 39.3747 134.399C38.9372 134.399 38.4587 134.419 37.9392 134.46C37.4197 134.488 36.9001 134.501 36.3806 134.501C35.8611 134.488 35.3552 134.44 34.863 134.358C34.3845 134.276 33.9538 134.125 33.571 133.906C33.1882 133.688 32.8806 133.38 32.6482 132.984C32.4294 132.573 32.3201 132.054 32.3201 131.425C32.3201 130.687 32.4568 130.024 32.7302 129.436C33.0173 128.834 33.3933 128.308 33.8581 127.857C34.323 127.392 34.8425 126.989 35.4167 126.647C36.0046 126.291 36.5925 125.99 37.1804 125.744C37.5359 125.84 37.864 126.011 38.1648 126.257C38.4656 126.503 38.7253 126.777 38.9441 127.077C38.8484 127.378 38.657 127.611 38.3699 127.775C38.0964 127.939 37.7751 128.082 37.406 128.205C37.0505 128.328 36.6746 128.458 36.2781 128.595C35.8816 128.732 35.5193 128.916 35.1912 129.149C34.8767 129.367 34.6101 129.661 34.3913 130.031C34.1726 130.386 34.0632 130.858 34.0632 131.446C34.0632 131.883 34.1726 132.204 34.3913 132.409C34.6101 132.615 34.8972 132.758 35.2527 132.84C35.6081 132.908 36.0115 132.936 36.4626 132.922C36.9138 132.895 37.3718 132.861 37.8367 132.82C38.3152 132.779 38.78 132.758 39.2312 132.758C39.6824 132.744 40.0857 132.799 40.4412 132.922C40.7966 133.031 41.0769 133.216 41.282 133.476C41.5007 133.736 41.6101 134.118 41.6101 134.624C41.6101 134.843 41.5349 135.123 41.3845 135.465C41.2478 135.807 41.0564 136.176 40.8103 136.573C40.5779 136.955 40.2976 137.338 39.9695 137.721C39.655 138.104 39.3201 138.452 38.9646 138.767C38.6228 139.068 38.2742 139.321 37.9187 139.526C37.5769 139.717 37.2556 139.813 36.9548 139.813C36.6677 139.813 36.4763 139.71 36.3806 139.505C36.2986 139.3 36.2576 139.095 36.2576 138.89ZM41.9792 129.477C41.9792 129.436 41.9861 129.402 41.9997 129.374C41.9997 129.347 42.0066 129.313 42.0203 129.272C42.0749 129.203 42.157 129.115 42.2663 129.005C42.3757 128.896 42.4441 128.841 42.4714 128.841H46.5935C46.5935 128.691 46.573 128.451 46.532 128.123C46.491 127.795 46.4499 127.433 46.4089 127.036C46.3816 126.64 46.3747 126.23 46.3884 125.806C46.4021 125.368 46.4568 124.979 46.5525 124.637C46.6619 124.281 46.8259 123.994 47.0447 123.776C47.2771 123.543 47.5984 123.427 48.0085 123.427C48.0085 124.808 48.1042 125.915 48.2956 126.749C48.4871 127.583 48.74 128.226 49.0544 128.677C49.3826 129.128 49.7517 129.422 50.1619 129.559C50.572 129.696 50.989 129.757 51.4128 129.743C51.8503 129.716 52.2742 129.648 52.6843 129.538C53.0945 129.429 53.4568 129.354 53.7712 129.313C54.0994 129.272 54.3591 129.306 54.5505 129.415C54.7419 129.511 54.8376 129.75 54.8376 130.133C54.8376 130.42 54.7693 130.625 54.6326 130.748C54.5095 130.871 54.2634 130.967 53.8943 131.035C53.7849 131.049 53.6003 131.076 53.3406 131.117C53.0945 131.145 52.8142 131.172 52.4997 131.199C52.1853 131.227 51.8503 131.261 51.4949 131.302C51.1394 131.329 50.8044 131.357 50.49 131.384C50.1755 131.411 49.8884 131.432 49.6287 131.446C49.3689 131.446 49.1775 131.446 49.0544 131.446C49.0544 131.514 49.0476 131.63 49.0339 131.794C49.0203 131.958 49.0134 132.068 49.0134 132.122C49.0134 132.724 49.1091 133.312 49.3005 133.886C49.4919 134.447 49.697 135.007 49.9158 135.568C50.1482 136.128 50.3601 136.689 50.5515 137.249C50.7429 137.81 50.8386 138.391 50.8386 138.992C50.8386 139.102 50.8249 139.218 50.7976 139.341C50.7839 139.45 50.7429 139.553 50.6746 139.649C50.6199 139.731 50.531 139.792 50.408 139.833C50.2986 139.888 50.1413 139.881 49.9363 139.813C49.4167 139.676 49.0271 139.382 48.7673 138.931C48.5212 138.48 48.3367 137.947 48.2136 137.331C48.0906 136.702 48.0085 136.039 47.9675 135.342C47.9265 134.645 47.8581 133.995 47.7624 133.394C47.6804 132.779 47.5437 132.259 47.3523 131.835C47.1609 131.398 46.8533 131.131 46.4294 131.035L42.4714 130.133C42.4167 130.133 42.3347 130.078 42.2253 129.969C42.116 129.846 42.0476 129.757 42.0203 129.702C42.0066 129.675 41.9997 129.641 41.9997 129.6C41.9861 129.573 41.9792 129.531 41.9792 129.477ZM55.2683 129.21C55.2683 129.087 55.2683 128.964 55.2683 128.841C55.282 128.704 55.3093 128.581 55.3503 128.472C55.405 128.349 55.4734 128.26 55.5554 128.205C55.6511 128.137 55.7878 128.103 55.9656 128.103C55.9792 128.103 55.9929 128.103 56.0066 128.103C56.0339 128.103 56.0613 128.103 56.0886 128.103C56.1296 128.116 56.1638 128.123 56.1912 128.123C56.4509 128.479 56.6765 128.937 56.8679 129.497C57.0593 130.044 57.2439 130.632 57.4216 131.261C57.5994 131.876 57.7908 132.505 57.9958 133.148C58.2009 133.777 58.4675 134.344 58.7956 134.85C59.1238 135.356 59.5271 135.759 60.0056 136.06C60.4841 136.361 61.0788 136.49 61.7898 136.449C62.1042 136.449 62.3093 136.279 62.405 135.937C62.5007 135.595 62.5486 135.157 62.5486 134.624C62.5622 134.091 62.5486 133.503 62.5076 132.861C62.4802 132.218 62.4802 131.61 62.5076 131.035C62.5486 130.448 62.6511 129.935 62.8152 129.497C62.9929 129.06 63.2937 128.766 63.7175 128.615C63.8953 128.971 64.0388 129.531 64.1482 130.297C64.2712 131.049 64.3601 131.924 64.4148 132.922C64.4695 133.906 64.4968 134.98 64.4968 136.142C64.4968 137.29 64.4695 138.439 64.4148 139.587C64.3601 140.722 64.2781 141.816 64.1687 142.868C64.0593 143.921 63.9363 144.844 63.7996 145.637C63.6628 146.43 63.4988 147.052 63.3074 147.503C63.1296 147.968 62.9382 148.166 62.7331 148.098C62.446 147.824 62.2205 147.469 62.0564 147.031C61.906 146.594 61.7966 146.109 61.7283 145.575C61.6736 145.042 61.6531 144.475 61.6667 143.873C61.6804 143.285 61.7009 142.691 61.7283 142.089C61.7693 141.488 61.8103 140.9 61.8513 140.325C61.906 139.751 61.9333 139.225 61.9333 138.746C61.4412 138.787 60.9353 138.712 60.4158 138.521C59.9099 138.329 59.4109 138.035 58.9187 137.639C58.4265 137.229 57.9548 136.737 57.5037 136.162C57.0662 135.588 56.6765 134.939 56.3347 134.214C56.0066 133.49 55.7468 132.71 55.5554 131.876C55.364 131.029 55.2683 130.14 55.2683 129.21ZM66.2195 128.205C66.2195 127.809 66.1921 127.426 66.1374 127.057C66.0828 126.674 66.0691 126.339 66.0964 126.052C66.1238 125.751 66.2263 125.512 66.404 125.334C66.5955 125.156 66.9372 125.068 67.4294 125.068C67.5798 125.382 67.7234 125.861 67.8601 126.503C68.0105 127.146 68.154 127.884 68.2908 128.718C68.4275 129.552 68.5574 130.461 68.6804 131.446C68.8035 132.416 68.9128 133.394 69.0085 134.378C69.1179 135.363 69.2068 136.333 69.2751 137.29C69.3572 138.234 69.4187 139.095 69.4597 139.874C69.0085 140.175 68.6462 140.196 68.3728 139.936C68.0994 139.676 67.8738 139.239 67.696 138.623C67.5183 137.994 67.3816 137.236 67.2859 136.347C67.1902 135.445 67.0945 134.515 66.9988 133.558C66.9167 132.587 66.8142 131.637 66.6912 130.707C66.5681 129.764 66.4109 128.93 66.2195 128.205ZM70.5261 134.112C70.5261 133.373 70.615 132.635 70.7927 131.897C70.9705 131.158 71.2507 130.495 71.6335 129.907C72.03 129.32 72.5359 128.841 73.1511 128.472C73.78 128.103 74.5388 127.918 75.4275 127.918C75.9333 127.918 76.3777 128.014 76.7605 128.205C77.1433 128.383 77.4646 128.622 77.7244 128.923C77.9841 129.224 78.1755 129.579 78.2986 129.99C78.4353 130.386 78.5037 130.803 78.5037 131.24C78.5037 131.938 78.3396 132.615 78.0115 133.271C77.697 133.927 77.2663 134.508 76.7195 135.014C76.1863 135.506 75.571 135.882 74.8738 136.142C74.1765 136.388 73.4656 136.443 72.741 136.306C72.7546 136.702 72.8845 137.024 73.1306 137.27C73.3904 137.502 73.698 137.68 74.0535 137.803C74.4089 137.926 74.7781 138.008 75.1609 138.049C75.5437 138.076 75.8855 138.09 76.1863 138.09C76.5007 138.09 76.7947 138.063 77.0681 138.008C77.3415 137.953 77.615 137.892 77.8884 137.823C78.1619 137.755 78.4353 137.694 78.7087 137.639C78.9958 137.584 79.2966 137.557 79.6111 137.557C79.7341 137.557 79.8572 137.564 79.9802 137.577C80.1033 137.591 80.2195 137.625 80.3288 137.68C80.4382 137.721 80.5271 137.796 80.5955 137.906C80.6638 138.001 80.698 138.124 80.698 138.275C80.698 138.534 80.6023 138.753 80.4109 138.931C80.2195 139.095 79.9734 139.239 79.6726 139.362C79.3855 139.485 79.0642 139.58 78.7087 139.649C78.3533 139.703 78.0046 139.751 77.6628 139.792C77.3347 139.82 77.0271 139.833 76.74 139.833C76.4665 139.847 76.2615 139.854 76.1247 139.854C75.2497 139.854 74.4636 139.717 73.7663 139.444C73.0691 139.156 72.4812 138.767 72.0027 138.275C71.5242 137.769 71.155 137.167 70.8953 136.47C70.6492 135.759 70.5261 134.973 70.5261 134.112ZM72.6999 132.779C72.6999 133.257 72.7615 133.606 72.8845 133.824C73.0212 134.043 73.3425 134.153 73.8484 134.153C74.2038 134.153 74.5525 134.091 74.8943 133.968C75.2361 133.831 75.5437 133.647 75.8171 133.414C76.1042 133.182 76.3298 132.908 76.4939 132.594C76.658 132.28 76.74 131.938 76.74 131.569C76.74 131.364 76.7195 131.152 76.6785 130.933C76.6511 130.714 76.5828 130.516 76.4734 130.338C76.364 130.147 76.2205 129.996 76.0427 129.887C75.8787 129.764 75.6599 129.702 75.3865 129.702C74.9763 129.702 74.6003 129.798 74.2585 129.99C73.9304 130.167 73.6501 130.406 73.4177 130.707C73.1853 130.994 73.0076 131.323 72.8845 131.692C72.7615 132.047 72.6999 132.409 72.6999 132.779ZM100.242 137.167C99.7224 137.523 99.2712 137.844 98.8884 138.131C98.5193 138.405 98.157 138.637 97.8015 138.828C97.446 139.02 97.0632 139.163 96.6531 139.259C96.2566 139.355 95.7644 139.403 95.1765 139.403C93.905 139.403 92.9617 139.068 92.3464 138.398C91.7312 137.714 91.4236 136.702 91.4236 135.363C91.4236 134.843 91.4919 134.303 91.6287 133.742C91.7654 133.182 91.9636 132.628 92.2234 132.081C92.4968 131.521 92.8181 130.994 93.1872 130.502C93.5564 129.996 93.9734 129.552 94.4382 129.169C94.9031 128.786 95.3953 128.486 95.9148 128.267C96.448 128.034 97.0085 127.918 97.5964 127.918C98.5808 128.014 99.3533 128.26 99.9138 128.656C100.474 129.039 100.898 129.538 101.185 130.154C101.472 130.755 101.671 131.432 101.78 132.184C101.889 132.922 101.971 133.688 102.026 134.481C102.094 135.274 102.177 136.067 102.272 136.86C102.368 137.653 102.566 138.384 102.867 139.054C102.689 139.505 102.518 139.82 102.354 139.997C102.204 140.189 102.033 140.223 101.842 140.1C101.65 139.977 101.425 139.676 101.165 139.198C100.919 138.719 100.611 138.042 100.242 137.167ZM93.1667 135.404C93.1667 136.183 93.3103 136.757 93.5974 137.126C93.8982 137.482 94.4246 137.659 95.1765 137.659C95.7371 137.659 96.2703 137.564 96.7761 137.372C97.2956 137.167 97.7468 136.894 98.1296 136.552C98.5124 136.197 98.8201 135.773 99.0525 135.281C99.2849 134.788 99.4011 134.241 99.4011 133.64C99.4011 133.394 99.408 133.052 99.4216 132.615C99.4353 132.163 99.408 131.719 99.3396 131.281C99.2712 130.844 99.1413 130.468 98.9499 130.154C98.7585 129.825 98.4714 129.661 98.0886 129.661C97.3777 129.661 96.7214 129.846 96.1199 130.215C95.5183 130.571 94.9988 131.029 94.5613 131.589C94.1238 132.15 93.782 132.772 93.5359 133.455C93.2898 134.125 93.1667 134.775 93.1667 135.404ZM103.708 129.477C103.708 129.436 103.715 129.402 103.728 129.374C103.728 129.347 103.735 129.313 103.749 129.272C103.803 129.203 103.885 129.115 103.995 129.005C104.104 128.896 104.173 128.841 104.2 128.841H108.322C108.322 128.691 108.302 128.451 108.26 128.123C108.219 127.795 108.178 127.433 108.137 127.036C108.11 126.64 108.103 126.23 108.117 125.806C108.131 125.368 108.185 124.979 108.281 124.637C108.39 124.281 108.554 123.994 108.773 123.776C109.006 123.543 109.327 123.427 109.737 123.427C109.737 124.808 109.833 125.915 110.024 126.749C110.216 127.583 110.468 128.226 110.783 128.677C111.111 129.128 111.48 129.422 111.89 129.559C112.301 129.696 112.718 129.757 113.141 129.743C113.579 129.716 114.003 129.648 114.413 129.538C114.823 129.429 115.185 129.354 115.5 129.313C115.828 129.272 116.088 129.306 116.279 129.415C116.47 129.511 116.566 129.75 116.566 130.133C116.566 130.42 116.498 130.625 116.361 130.748C116.238 130.871 115.992 130.967 115.623 131.035C115.513 131.049 115.329 131.076 115.069 131.117C114.823 131.145 114.543 131.172 114.228 131.199C113.914 131.227 113.579 131.261 113.223 131.302C112.868 131.329 112.533 131.357 112.218 131.384C111.904 131.411 111.617 131.432 111.357 131.446C111.097 131.446 110.906 131.446 110.783 131.446C110.783 131.514 110.776 131.63 110.762 131.794C110.749 131.958 110.742 132.068 110.742 132.122C110.742 132.724 110.838 133.312 111.029 133.886C111.22 134.447 111.426 135.007 111.644 135.568C111.877 136.128 112.089 136.689 112.28 137.249C112.471 137.81 112.567 138.391 112.567 138.992C112.567 139.102 112.553 139.218 112.526 139.341C112.512 139.45 112.471 139.553 112.403 139.649C112.348 139.731 112.26 139.792 112.136 139.833C112.027 139.888 111.87 139.881 111.665 139.813C111.145 139.676 110.756 139.382 110.496 138.931C110.25 138.48 110.065 137.947 109.942 137.331C109.819 136.702 109.737 136.039 109.696 135.342C109.655 134.645 109.587 133.995 109.491 133.394C109.409 132.779 109.272 132.259 109.081 131.835C108.889 131.398 108.582 131.131 108.158 131.035L104.2 130.133C104.145 130.133 104.063 130.078 103.954 129.969C103.844 129.846 103.776 129.757 103.749 129.702C103.735 129.675 103.728 129.641 103.728 129.6C103.715 129.573 103.708 129.531 103.708 129.477ZM127.661 132.122C127.661 132.04 127.661 131.91 127.661 131.733C127.675 131.541 127.681 131.343 127.681 131.138C127.695 130.933 127.702 130.735 127.702 130.543C127.716 130.352 127.722 130.215 127.722 130.133C127.873 129.914 128.064 129.737 128.297 129.6C128.543 129.463 128.789 129.354 129.035 129.272C129.076 130.01 129.192 130.796 129.384 131.63C129.575 132.464 129.78 133.305 129.999 134.153C130.218 134.987 130.409 135.814 130.573 136.634C130.751 137.454 130.84 138.22 130.84 138.931C130.84 139.546 130.525 139.854 129.896 139.854C129.513 139.854 129.192 139.697 128.932 139.382C128.673 139.068 128.461 138.671 128.297 138.193C128.146 137.7 128.023 137.16 127.927 136.573C127.832 135.971 127.763 135.383 127.722 134.809C127.695 134.235 127.675 133.708 127.661 133.23C127.661 132.751 127.661 132.382 127.661 132.122ZM127.948 124.432C128.208 124.541 128.427 124.719 128.604 124.965C128.782 125.211 128.857 125.437 128.83 125.642C128.816 125.833 128.666 125.97 128.379 126.052C128.092 126.12 127.613 126.038 126.943 125.806C126.943 125.437 127.011 125.115 127.148 124.842C127.299 124.569 127.565 124.432 127.948 124.432ZM131.188 129.477C131.188 129.436 131.195 129.402 131.209 129.374C131.209 129.347 131.216 129.313 131.229 129.272C131.284 129.203 131.366 129.115 131.475 129.005C131.585 128.896 131.653 128.841 131.68 128.841H135.802C135.802 128.691 135.782 128.451 135.741 128.123C135.7 127.795 135.659 127.433 135.618 127.036C135.591 126.64 135.584 126.23 135.597 125.806C135.611 125.368 135.666 124.979 135.761 124.637C135.871 124.281 136.035 123.994 136.254 123.776C136.486 123.543 136.807 123.427 137.218 123.427C137.218 124.808 137.313 125.915 137.505 126.749C137.696 127.583 137.949 128.226 138.263 128.677C138.592 129.128 138.961 129.422 139.371 129.559C139.781 129.696 140.198 129.757 140.622 129.743C141.059 129.716 141.483 129.648 141.893 129.538C142.303 129.429 142.666 129.354 142.98 129.313C143.308 129.272 143.568 129.306 143.76 129.415C143.951 129.511 144.047 129.75 144.047 130.133C144.047 130.42 143.978 130.625 143.842 130.748C143.718 130.871 143.472 130.967 143.103 131.035C142.994 131.049 142.809 131.076 142.55 131.117C142.303 131.145 142.023 131.172 141.709 131.199C141.394 131.227 141.059 131.261 140.704 131.302C140.348 131.329 140.013 131.357 139.699 131.384C139.385 131.411 139.097 131.432 138.838 131.446C138.578 131.446 138.386 131.446 138.263 131.446C138.263 131.514 138.257 131.63 138.243 131.794C138.229 131.958 138.222 132.068 138.222 132.122C138.222 132.724 138.318 133.312 138.51 133.886C138.701 134.447 138.906 135.007 139.125 135.568C139.357 136.128 139.569 136.689 139.76 137.249C139.952 137.81 140.048 138.391 140.048 138.992C140.048 139.102 140.034 139.218 140.007 139.341C139.993 139.45 139.952 139.553 139.884 139.649C139.829 139.731 139.74 139.792 139.617 139.833C139.508 139.888 139.35 139.881 139.145 139.813C138.626 139.676 138.236 139.382 137.976 138.931C137.73 138.48 137.546 137.947 137.423 137.331C137.3 136.702 137.218 136.039 137.177 135.342C137.135 134.645 137.067 133.995 136.971 133.394C136.889 132.779 136.753 132.259 136.561 131.835C136.37 131.398 136.062 131.131 135.638 131.035L131.68 130.133C131.626 130.133 131.544 130.078 131.434 129.969C131.325 129.846 131.257 129.757 131.229 129.702C131.216 129.675 131.209 129.641 131.209 129.6C131.195 129.573 131.188 129.531 131.188 129.477ZM148.763 138.89C148.982 138.74 149.242 138.548 149.543 138.316C149.857 138.07 150.172 137.81 150.486 137.536C150.801 137.263 151.094 136.976 151.368 136.675C151.641 136.374 151.853 136.087 152.004 135.814C152.168 135.527 152.25 135.26 152.25 135.014C152.25 134.768 152.127 134.563 151.881 134.399C151.443 134.399 150.965 134.419 150.445 134.46C149.926 134.488 149.406 134.501 148.886 134.501C148.367 134.488 147.861 134.44 147.369 134.358C146.89 134.276 146.46 134.125 146.077 133.906C145.694 133.688 145.386 133.38 145.154 132.984C144.935 132.573 144.826 132.054 144.826 131.425C144.826 130.687 144.963 130.024 145.236 129.436C145.523 128.834 145.899 128.308 146.364 127.857C146.829 127.392 147.348 126.989 147.923 126.647C148.51 126.291 149.098 125.99 149.686 125.744C150.042 125.84 150.37 126.011 150.671 126.257C150.971 126.503 151.231 126.777 151.45 127.077C151.354 127.378 151.163 127.611 150.876 127.775C150.602 127.939 150.281 128.082 149.912 128.205C149.556 128.328 149.18 128.458 148.784 128.595C148.387 128.732 148.025 128.916 147.697 129.149C147.383 129.367 147.116 129.661 146.897 130.031C146.678 130.386 146.569 130.858 146.569 131.446C146.569 131.883 146.678 132.204 146.897 132.409C147.116 132.615 147.403 132.758 147.759 132.84C148.114 132.908 148.517 132.936 148.969 132.922C149.42 132.895 149.878 132.861 150.343 132.82C150.821 132.779 151.286 132.758 151.737 132.758C152.188 132.744 152.592 132.799 152.947 132.922C153.302 133.031 153.583 133.216 153.788 133.476C154.007 133.736 154.116 134.118 154.116 134.624C154.116 134.843 154.041 135.123 153.89 135.465C153.754 135.807 153.562 136.176 153.316 136.573C153.084 136.955 152.803 137.338 152.475 137.721C152.161 138.104 151.826 138.452 151.47 138.767C151.129 139.068 150.78 139.321 150.425 139.526C150.083 139.717 149.761 139.813 149.461 139.813C149.174 139.813 148.982 139.71 148.886 139.505C148.804 139.3 148.763 139.095 148.763 138.89ZM69.0085 169.72C68.7214 169.187 68.4001 168.524 68.0447 167.731C67.7029 166.924 67.3474 166.09 66.9783 165.229C66.6091 164.354 66.2195 163.499 65.8093 162.665C65.4128 161.831 65.0095 161.107 64.5994 160.491C64.4353 160.368 64.2097 160.293 63.9226 160.266C63.6355 160.239 63.3347 160.232 63.0203 160.245C62.7058 160.245 62.3913 160.239 62.0769 160.225C61.7761 160.198 61.5095 160.122 61.2771 159.999C61.0583 159.876 60.8943 159.685 60.7849 159.425C60.6755 159.165 60.655 158.789 60.7234 158.297H64.1687C64.2371 157.531 64.3533 156.773 64.5173 156.021C64.6814 155.269 64.9001 154.551 65.1736 153.867C65.4607 153.184 65.8025 152.548 66.199 151.96C66.5955 151.372 67.074 150.866 67.6345 150.443C68.1951 150.019 68.8376 149.684 69.5622 149.438C70.3005 149.192 71.1345 149.069 72.0642 149.069C72.3923 149.069 72.7205 149.151 73.0486 149.315C73.3767 149.465 73.6706 149.67 73.9304 149.93C74.1902 150.19 74.3953 150.484 74.5456 150.812C74.7097 151.14 74.7917 151.468 74.7917 151.796C74.532 151.796 74.2996 151.748 74.0945 151.653C73.8894 151.543 73.6912 151.427 73.4997 151.304C73.3083 151.167 73.1033 151.044 72.8845 150.935C72.6658 150.812 72.4197 150.75 72.1462 150.75C71.3259 150.75 70.5603 150.914 69.8494 151.242C69.1521 151.571 68.5369 152.008 68.0037 152.555C67.4841 153.102 67.074 153.738 66.7732 154.462C66.4724 155.187 66.322 155.952 66.322 156.759C66.322 156.814 66.322 156.916 66.322 157.067C66.3357 157.203 66.3425 157.354 66.3425 157.518C66.3425 157.682 66.3425 157.839 66.3425 157.99C66.3562 158.14 66.363 158.242 66.363 158.297C66.8689 158.461 67.4363 158.584 68.0652 158.666C68.6941 158.748 69.323 158.803 69.9519 158.83C70.5945 158.844 71.2097 158.837 71.7976 158.81C72.3992 158.782 72.9324 158.748 73.3972 158.707C73.4382 158.748 73.5134 158.823 73.6228 158.933C73.7322 159.042 73.7937 159.124 73.8074 159.179C73.8074 159.22 73.8142 159.247 73.8279 159.261C73.8552 159.343 73.8689 159.384 73.8689 159.384C73.8689 159.671 73.7185 159.897 73.4177 160.061C73.1169 160.225 72.7341 160.348 72.2693 160.43C71.8044 160.498 71.2849 160.546 70.7107 160.573C70.1501 160.601 69.6033 160.628 69.0701 160.656C68.5505 160.669 68.0788 160.697 67.655 160.738C67.2449 160.765 66.9578 160.826 66.7937 160.922C66.9714 161.742 67.2859 162.535 67.7371 163.301C68.2019 164.067 68.6736 164.832 69.1521 165.598C69.6306 166.364 70.0544 167.136 70.4236 167.915C70.7927 168.695 70.9773 169.494 70.9773 170.315C70.9226 170.315 70.7927 170.315 70.5876 170.315C70.3962 170.328 70.1912 170.322 69.9724 170.294C69.7537 170.267 69.5417 170.205 69.3367 170.11C69.1453 170.028 69.0359 169.898 69.0085 169.72ZM76.0017 160.122C76.0017 160.04 76.0017 159.91 76.0017 159.733C76.0154 159.541 76.0222 159.343 76.0222 159.138C76.0359 158.933 76.0427 158.735 76.0427 158.543C76.0564 158.352 76.0632 158.215 76.0632 158.133C76.2136 157.914 76.405 157.737 76.6374 157.6C76.8835 157.463 77.1296 157.354 77.3757 157.272C77.4167 158.01 77.533 158.796 77.7244 159.63C77.9158 160.464 78.1208 161.305 78.3396 162.153C78.5583 162.987 78.7497 163.814 78.9138 164.634C79.0915 165.454 79.1804 166.22 79.1804 166.931C79.1804 167.546 78.866 167.854 78.2371 167.854C77.8542 167.854 77.533 167.697 77.2732 167.382C77.0134 167.068 76.8015 166.671 76.6374 166.193C76.4871 165.7 76.364 165.16 76.2683 164.573C76.1726 163.971 76.1042 163.383 76.0632 162.809C76.0359 162.235 76.0154 161.708 76.0017 161.23C76.0017 160.751 76.0017 160.382 76.0017 160.122ZM76.2888 152.432C76.5486 152.541 76.7673 152.719 76.9451 152.965C77.1228 153.211 77.198 153.437 77.1706 153.642C77.157 153.833 77.0066 153.97 76.7195 154.052C76.4324 154.12 75.9538 154.038 75.2839 153.806C75.2839 153.437 75.3523 153.115 75.489 152.842C75.6394 152.569 75.906 152.432 76.2888 152.432ZM79.9802 160.902C79.9802 160.546 80.0691 160.293 80.2468 160.143C80.4246 159.979 80.7117 159.897 81.1081 159.897H81.3132C81.3542 160.115 81.4021 160.368 81.4568 160.656C81.5115 160.943 81.5935 161.237 81.7029 161.537C81.8122 161.838 81.9421 162.118 82.0925 162.378C82.2429 162.624 82.4275 162.823 82.6462 162.973C82.6599 162.494 82.7761 162.036 82.9949 161.599C83.2273 161.148 83.5076 160.751 83.8357 160.409C84.1775 160.054 84.5466 159.76 84.9431 159.528C85.3533 159.281 85.7566 159.117 86.1531 159.035H86.6042C87.2605 159.035 87.821 159.186 88.2859 159.487C88.7507 159.774 89.1335 160.156 89.4343 160.635C89.7488 161.1 89.988 161.633 90.1521 162.235C90.3162 162.836 90.4392 163.451 90.5212 164.08C90.6169 164.696 90.6716 165.297 90.6853 165.885C90.7126 166.459 90.7263 166.951 90.7263 167.362H89.2292C89.1472 166.541 89.0447 165.755 88.9216 165.003C88.8806 164.702 88.8259 164.388 88.7576 164.06C88.6892 163.718 88.614 163.404 88.532 163.116C88.4499 162.816 88.3611 162.542 88.2654 162.296C88.1697 162.036 88.0603 161.818 87.9372 161.64C87.8826 161.585 87.8074 161.51 87.7117 161.414C87.6296 161.319 87.5408 161.223 87.4451 161.127C87.3494 161.031 87.2605 160.949 87.1785 160.881C87.0964 160.813 87.0486 160.779 87.0349 160.779C86.6247 160.669 86.2693 160.751 85.9685 161.025C85.6677 161.284 85.4011 161.64 85.1687 162.091C84.9363 162.542 84.7449 163.055 84.5945 163.629C84.4578 164.203 84.3415 164.757 84.2458 165.29C84.1501 165.81 84.0818 166.268 84.0408 166.664C83.9997 167.047 83.9724 167.28 83.9587 167.362C83.6169 167.608 83.2956 167.683 82.9949 167.587C82.6941 167.478 82.407 167.259 82.1335 166.931C81.8738 166.603 81.6345 166.193 81.4158 165.7C81.2107 165.208 81.0193 164.689 80.8415 164.142C80.6638 163.581 80.4997 163.021 80.3494 162.46C80.2126 161.9 80.0896 161.38 79.9802 160.902ZM91.8542 162.112C91.8542 161.373 91.9431 160.635 92.1208 159.897C92.2986 159.158 92.5788 158.495 92.9617 157.907C93.3581 157.32 93.864 156.841 94.4792 156.472C95.1081 156.103 95.8669 155.918 96.7556 155.918C97.2615 155.918 97.7058 156.014 98.0886 156.205C98.4714 156.383 98.7927 156.622 99.0525 156.923C99.3122 157.224 99.5037 157.579 99.6267 157.99C99.7634 158.386 99.8318 158.803 99.8318 159.24C99.8318 159.938 99.6677 160.615 99.3396 161.271C99.0251 161.927 98.5945 162.508 98.0476 163.014C97.5144 163.506 96.8992 163.882 96.2019 164.142C95.5046 164.388 94.7937 164.443 94.0691 164.306C94.0828 164.702 94.2126 165.024 94.4587 165.27C94.7185 165.502 95.0261 165.68 95.3816 165.803C95.7371 165.926 96.1062 166.008 96.489 166.049C96.8718 166.076 97.2136 166.09 97.5144 166.09C97.8288 166.09 98.1228 166.063 98.3962 166.008C98.6697 165.953 98.9431 165.892 99.2165 165.823C99.49 165.755 99.7634 165.694 100.037 165.639C100.324 165.584 100.625 165.557 100.939 165.557C101.062 165.557 101.185 165.564 101.308 165.577C101.431 165.591 101.548 165.625 101.657 165.68C101.766 165.721 101.855 165.796 101.924 165.906C101.992 166.001 102.026 166.124 102.026 166.275C102.026 166.534 101.93 166.753 101.739 166.931C101.548 167.095 101.302 167.239 101.001 167.362C100.714 167.485 100.392 167.58 100.037 167.649C99.6814 167.703 99.3328 167.751 98.991 167.792C98.6628 167.82 98.3552 167.833 98.0681 167.833C97.7947 167.847 97.5896 167.854 97.4529 167.854C96.5779 167.854 95.7917 167.717 95.0945 167.444C94.3972 167.156 93.8093 166.767 93.3308 166.275C92.8523 165.769 92.4831 165.167 92.2234 164.47C91.9773 163.759 91.8542 162.973 91.8542 162.112ZM94.0281 160.779C94.0281 161.257 94.0896 161.606 94.2126 161.824C94.3494 162.043 94.6706 162.153 95.1765 162.153C95.532 162.153 95.8806 162.091 96.2224 161.968C96.5642 161.831 96.8718 161.647 97.1453 161.414C97.4324 161.182 97.658 160.908 97.822 160.594C97.9861 160.28 98.0681 159.938 98.0681 159.569C98.0681 159.364 98.0476 159.152 98.0066 158.933C97.9792 158.714 97.9109 158.516 97.8015 158.338C97.6921 158.147 97.5486 157.996 97.3708 157.887C97.2068 157.764 96.988 157.702 96.7146 157.702C96.3044 157.702 95.9285 157.798 95.5867 157.99C95.2585 158.167 94.9783 158.406 94.7458 158.707C94.5134 158.994 94.3357 159.323 94.2126 159.692C94.0896 160.047 94.0281 160.409 94.0281 160.779ZM107.235 166.89C107.454 166.74 107.714 166.548 108.014 166.316C108.329 166.07 108.643 165.81 108.958 165.536C109.272 165.263 109.566 164.976 109.84 164.675C110.113 164.374 110.325 164.087 110.475 163.814C110.639 163.527 110.721 163.26 110.721 163.014C110.721 162.768 110.598 162.563 110.352 162.399C109.915 162.399 109.436 162.419 108.917 162.46C108.397 162.488 107.878 162.501 107.358 162.501C106.839 162.488 106.333 162.44 105.841 162.358C105.362 162.276 104.931 162.125 104.549 161.906C104.166 161.688 103.858 161.38 103.626 160.984C103.407 160.573 103.298 160.054 103.298 159.425C103.298 158.687 103.434 158.024 103.708 157.436C103.995 156.834 104.371 156.308 104.836 155.857C105.301 155.392 105.82 154.989 106.394 154.647C106.982 154.291 107.57 153.99 108.158 153.744C108.513 153.84 108.842 154.011 109.142 154.257C109.443 154.503 109.703 154.777 109.922 155.077C109.826 155.378 109.635 155.611 109.347 155.775C109.074 155.939 108.753 156.082 108.384 156.205C108.028 156.328 107.652 156.458 107.256 156.595C106.859 156.732 106.497 156.916 106.169 157.149C105.854 157.367 105.588 157.661 105.369 158.031C105.15 158.386 105.041 158.858 105.041 159.446C105.041 159.883 105.15 160.204 105.369 160.409C105.588 160.615 105.875 160.758 106.23 160.84C106.586 160.908 106.989 160.936 107.44 160.922C107.891 160.895 108.349 160.861 108.814 160.82C109.293 160.779 109.758 160.758 110.209 160.758C110.66 160.744 111.063 160.799 111.419 160.922C111.774 161.031 112.054 161.216 112.26 161.476C112.478 161.736 112.588 162.118 112.588 162.624C112.588 162.843 112.512 163.123 112.362 163.465C112.225 163.807 112.034 164.176 111.788 164.573C111.555 164.955 111.275 165.338 110.947 165.721C110.633 166.104 110.298 166.452 109.942 166.767C109.6 167.068 109.252 167.321 108.896 167.526C108.554 167.717 108.233 167.813 107.932 167.813C107.645 167.813 107.454 167.71 107.358 167.505C107.276 167.3 107.235 167.095 107.235 166.89ZM112.957 157.477C112.957 157.436 112.964 157.402 112.977 157.374C112.977 157.347 112.984 157.313 112.998 157.272C113.052 157.203 113.135 157.115 113.244 157.005C113.353 156.896 113.422 156.841 113.449 156.841H117.571C117.571 156.691 117.551 156.451 117.51 156.123C117.468 155.795 117.427 155.433 117.386 155.036C117.359 154.64 117.352 154.23 117.366 153.806C117.38 153.368 117.434 152.979 117.53 152.637C117.639 152.281 117.803 151.994 118.022 151.776C118.255 151.543 118.576 151.427 118.986 151.427C118.986 152.808 119.082 153.915 119.273 154.749C119.465 155.583 119.718 156.226 120.032 156.677C120.36 157.128 120.729 157.422 121.139 157.559C121.55 157.696 121.967 157.757 122.39 157.743C122.828 157.716 123.252 157.648 123.662 157.538C124.072 157.429 124.434 157.354 124.749 157.313C125.077 157.272 125.337 157.306 125.528 157.415C125.719 157.511 125.815 157.75 125.815 158.133C125.815 158.42 125.747 158.625 125.61 158.748C125.487 158.871 125.241 158.967 124.872 159.035C124.762 159.049 124.578 159.076 124.318 159.117C124.072 159.145 123.792 159.172 123.477 159.199C123.163 159.227 122.828 159.261 122.472 159.302C122.117 159.329 121.782 159.357 121.468 159.384C121.153 159.411 120.866 159.432 120.606 159.446C120.346 159.446 120.155 159.446 120.032 159.446C120.032 159.514 120.025 159.63 120.011 159.794C119.998 159.958 119.991 160.068 119.991 160.122C119.991 160.724 120.087 161.312 120.278 161.886C120.469 162.447 120.675 163.007 120.893 163.568C121.126 164.128 121.338 164.689 121.529 165.249C121.72 165.81 121.816 166.391 121.816 166.992C121.816 167.102 121.802 167.218 121.775 167.341C121.761 167.45 121.72 167.553 121.652 167.649C121.597 167.731 121.509 167.792 121.385 167.833C121.276 167.888 121.119 167.881 120.914 167.813C120.394 167.676 120.005 167.382 119.745 166.931C119.499 166.48 119.314 165.947 119.191 165.331C119.068 164.702 118.986 164.039 118.945 163.342C118.904 162.645 118.836 161.995 118.74 161.394C118.658 160.779 118.521 160.259 118.33 159.835C118.138 159.398 117.831 159.131 117.407 159.035L113.449 158.133C113.394 158.133 113.312 158.078 113.203 157.969C113.093 157.846 113.025 157.757 112.998 157.702C112.984 157.675 112.977 157.641 112.977 157.6C112.964 157.573 112.957 157.531 112.957 157.477Z" fill="black"/>
<path d="M75.7141 49.7261L73.7121 56.9038C72.9634 57.0015 72.0845 57.1154 71.0754 57.2456C70.0988 57.3758 69.1223 57.506 68.1457 57.6362C67.1692 57.7339 66.16 57.8478 65.1184 57.978C66.453 53.5509 67.5761 49.8075 68.4875 46.7476C69.4315 43.6877 70.1965 41.1812 70.7824 39.228C71.3684 37.2424 71.938 35.2892 72.4914 33.3687C73.0774 31.4155 73.6307 29.5438 74.1516 27.7534C74.705 25.9305 75.1932 24.2703 75.6164 22.7729C81.6386 22.3498 86.2284 21.8289 89.3859 21.2104C89.093 24.4331 88.8488 28.2417 88.6535 32.6362C88.2303 41.3927 87.8723 49.4657 87.5793 56.855C86.6027 57.0177 85.6425 57.1642 84.6984 57.2944C83.787 57.4246 82.8267 57.5711 81.8176 57.7339C80.841 57.8966 79.9458 58.0431 79.132 58.1733C79.4901 55.0483 79.7994 52.2326 80.0598 49.7261H75.7141ZM76.8859 44.7456L80.4992 44.5015C80.4992 44.3062 80.5155 43.9806 80.5481 43.5249C80.6132 43.0366 80.6783 42.4832 80.7434 41.8647C81.0038 38.3817 81.2805 35.1427 81.5734 32.1479L81.9152 27.8022L81.134 27.8511L76.8859 44.7456ZM87.677 58.3198C91.0949 43.118 93.4387 31.3341 94.7082 22.9683C98.2889 21.894 100.974 21.3569 102.765 21.3569C104.555 21.3569 105.955 21.6174 106.964 22.1382C108.006 22.6265 108.852 23.2938 109.503 24.1401C110.642 25.6701 111.212 27.8836 111.212 30.7808C111.212 32.6362 110.87 34.4429 110.187 36.2007C109.503 37.9259 108.592 39.4722 107.452 40.8394C106.313 42.174 104.995 43.2482 103.497 44.062C102 44.8433 100.454 45.2339 98.8586 45.2339H98.3215C97.703 47.9683 97.0357 51.7606 96.3195 56.6108L87.677 58.3198ZM101.642 27.4116C100.795 32.1317 100.03 36.3146 99.3469 39.9604C100.519 39.6675 101.609 38.7235 102.618 37.1284C103.725 35.3706 104.279 33.3849 104.279 31.1714C104.279 29.9344 104.002 29.0067 103.448 28.3882C102.895 27.7371 102.293 27.4116 101.642 27.4116ZM107.159 58.3198L113.702 22.7729L129.523 21.4058C129.295 22.1545 129.099 22.8869 128.937 23.603C128.774 24.2866 128.611 24.9702 128.448 25.6538C128.286 26.3374 128.155 26.9396 128.058 27.4604C127.081 27.5581 125.747 27.6069 124.054 27.6069H120.685L118.927 36.5913C120.717 36.4937 122.215 36.4285 123.419 36.396C124.624 36.3634 125.405 36.3309 125.763 36.2983C125.633 37.2424 125.502 38.1701 125.372 39.0815C125.275 39.9604 125.144 40.8719 124.982 41.8159C124.624 41.8485 124.07 41.881 123.321 41.9136C122.573 41.9136 121.792 41.9299 120.978 41.9624C120.164 41.995 119.252 42.0275 118.243 42.0601L116.534 51.2886L123.81 50.1167L123.321 55.8296L107.159 58.3198Z" fill="white"/>
<path d="M75.7141 49.7261V47.5843H74.0879L73.651 49.1507L75.7141 49.7261ZM73.7121 56.9038L73.9891 59.0276L75.3944 58.8443L75.7751 57.4792L73.7121 56.9038ZM71.0754 57.2456L70.8013 55.1214L70.7923 55.1226L71.0754 57.2456ZM68.1457 57.6362L68.3588 59.7674L68.3939 59.7639L68.4288 59.7592L68.1457 57.6362ZM65.1184 57.978L63.0678 57.3598L62.1176 60.5116L65.384 60.1033L65.1184 57.978ZM68.4875 46.7476L66.4409 46.1162L66.4379 46.1261L66.4349 46.1361L68.4875 46.7476ZM70.7824 39.228L72.8339 39.8435L72.8366 39.8342L70.7824 39.228ZM72.4914 33.3687L70.44 32.7532L70.4366 32.7644L70.4334 32.7757L72.4914 33.3687ZM74.1516 27.7534L72.1022 27.1313L72.0985 27.1432L72.0951 27.1552L74.1516 27.7534ZM75.6164 22.7729L75.4663 20.6365L73.9647 20.742L73.5554 22.1905L75.6164 22.7729ZM89.3859 21.2104L91.5189 21.4044L91.7775 18.5595L88.9743 19.1086L89.3859 21.2104ZM88.6535 32.6362L90.7928 32.7396L90.7932 32.7313L88.6535 32.6362ZM87.5793 56.855L87.9314 58.9676L89.6504 58.6811L89.7194 56.9398L87.5793 56.855ZM84.6984 57.2944L84.4058 55.1727L84.3956 55.1742L84.6984 57.2944ZM81.8176 57.7339L81.4765 55.6194L81.4655 55.6213L81.8176 57.7339ZM79.132 58.1733L77.0042 57.9295L76.6828 60.7342L79.4704 60.2882L79.132 58.1733ZM80.0598 49.7261L82.1901 49.9474L82.4356 47.5843H80.0598V49.7261ZM76.8859 44.7456L74.8088 44.2233L74.0903 47.0812L77.0303 46.8825L76.8859 44.7456ZM80.4992 44.5015L80.6436 46.6384L82.641 46.5034V44.5015H80.4992ZM80.5481 43.5249L78.4251 43.2418L78.4164 43.3069L78.4117 43.3723L80.5481 43.5249ZM80.7434 41.8647L82.8734 42.089L82.8768 42.0567L82.8792 42.0244L80.7434 41.8647ZM81.5734 32.1479L83.705 32.3565L83.707 32.3362L83.7086 32.3159L81.5734 32.1479ZM81.9152 27.8022L84.0504 27.9702L84.2439 25.5108L81.7816 25.6647L81.9152 27.8022ZM81.134 27.8511L81.0004 25.7135L79.4385 25.8111L79.0569 27.3288L81.134 27.8511ZM73.651 49.1507L71.6491 56.3284L75.7751 57.4792L77.7771 50.3015L73.651 49.1507ZM73.4351 54.78C72.6877 54.8775 71.8098 54.9913 70.8013 55.1215L71.3495 59.3698C72.3593 59.2395 73.2392 59.1254 73.9891 59.0276L73.4351 54.78ZM70.7923 55.1226C70.4533 55.1678 69.6666 55.2727 69.3275 55.3179C68.9884 55.3632 68.2017 55.468 67.8627 55.5133L68.4288 59.7592C68.6032 59.736 68.4375 59.758 68.6119 59.7348C68.7863 59.7115 68.6206 59.7336 68.795 59.7104C68.9694 59.6871 68.8037 59.7092 68.9781 59.686C69.1525 59.6627 68.9868 59.6848 69.1612 59.6616C69.3356 59.6383 69.1699 59.6604 69.3443 59.6371C69.5187 59.6139 69.353 59.636 69.5274 59.6127C69.7018 59.5895 69.5361 59.6116 69.7105 59.5883C69.8849 59.5651 69.7192 59.5871 69.8936 59.5639C70.2327 59.5187 70.287 59.5114 70.626 59.4662C70.9651 59.421 71.0194 59.4138 71.3585 59.3686L70.7923 55.1226ZM67.9326 55.5051C66.9373 55.6046 65.9107 55.7206 64.8527 55.8528L65.384 60.1033C66.4094 59.9751 67.401 59.8632 68.3588 59.7674L67.9326 55.5051ZM67.169 58.5962C68.504 54.1678 69.6278 50.4219 70.5401 47.359L66.4349 46.1361C65.5243 49.193 64.402 52.9341 63.0678 57.3598L67.169 58.5962ZM70.5341 47.379C71.4789 44.3164 72.2457 41.804 72.8339 39.8435L68.731 38.6126C68.1473 40.5583 67.3841 43.059 66.4409 46.1162L70.5341 47.379ZM72.8366 39.8342C73.4238 37.8443 73.9948 35.8868 74.5495 33.9616L70.4334 32.7757C69.8813 34.6917 69.3129 36.6404 68.7282 38.6219L72.8366 39.8342ZM74.5429 33.9841C75.1303 32.0258 75.6854 30.1483 76.2081 28.3517L72.0951 27.1552C71.576 28.9393 71.0244 30.8053 70.44 32.7532L74.5429 33.9841ZM76.201 28.3756C76.7575 26.5423 77.2498 24.8686 77.6775 23.3554L73.5554 22.1905C73.1367 23.6721 72.6524 25.3188 72.1022 27.1313L76.201 28.3756ZM75.7665 24.9094C81.8147 24.4844 86.509 23.9564 89.7976 23.3123L88.9743 19.1086C85.9478 19.7014 81.4624 20.2151 75.4663 20.6365L75.7665 24.9094ZM87.253 21.0165C86.9562 24.2813 86.7102 28.1244 86.5139 32.5411L90.7932 32.7313C90.9875 28.359 91.2298 24.5849 91.5189 21.4044L87.253 21.0165ZM86.5143 32.5328C86.0908 41.2944 85.7325 49.3736 85.4392 56.7701L89.7194 56.9398C90.0121 49.5577 90.3699 41.491 90.7928 32.7396L86.5143 32.5328ZM87.2272 54.7424C86.2697 54.9019 85.3292 55.0454 84.4058 55.1728L84.9911 59.4161C85.9557 59.2831 86.9358 59.1335 87.9314 58.9676L87.2272 54.7424ZM84.3956 55.1742C83.4701 55.3064 82.497 55.4549 81.4765 55.6194L82.1586 59.8483C83.1564 59.6874 84.1039 59.5429 85.0013 59.4147L84.3956 55.1742ZM81.4655 55.6213C80.4926 55.7834 79.6021 55.9291 78.7937 56.0585L79.4704 60.2882C80.2896 60.1571 81.1894 60.0099 82.1697 59.8465L81.4655 55.6213ZM81.2599 58.4172C81.6186 55.2864 81.9287 52.463 82.1901 49.9474L77.9295 49.5047C77.67 52.0022 77.3616 54.8103 77.0042 57.9295L81.2599 58.4172ZM80.0598 47.5843H75.7141V51.8678H80.0598V47.5843ZM77.0303 46.8825L80.6436 46.6384L80.3548 42.3646L76.7416 42.6087L77.0303 46.8825ZM82.641 44.5015C82.641 44.3897 82.652 44.1314 82.6844 43.6775L78.4117 43.3723C78.3791 43.8299 78.3575 44.2226 78.3575 44.5015H82.641ZM82.671 43.808C82.7393 43.2958 82.8067 42.7223 82.8734 42.089L78.6134 41.6405C78.5498 42.2442 78.487 42.7774 78.4251 43.2418L82.671 43.808ZM82.8792 42.0244C83.1386 38.5551 83.4139 35.3327 83.705 32.3565L79.4419 31.9394C79.1471 34.9528 78.869 38.2082 78.6076 41.7051L82.8792 42.0244ZM83.7086 32.3159L84.0504 27.9702L79.7801 27.6343L79.4383 31.98L83.7086 32.3159ZM81.7816 25.6647L81.0004 25.7135L81.2676 29.9887L82.0488 29.9398L81.7816 25.6647ZM79.0569 27.3288L74.8088 44.2233L78.9631 45.2679L83.2111 28.3734L79.0569 27.3288ZM87.677 58.3198L85.5874 57.85L84.8659 61.0589L88.0924 60.4209L87.677 58.3198ZM94.7082 22.9683L94.0928 20.9168L92.7941 21.3064L92.5907 22.6469L94.7082 22.9683ZM106.964 22.1382L105.982 24.0414L106.018 24.0601L106.055 24.0775L106.964 22.1382ZM109.503 24.1401L111.221 22.8609L111.211 22.8475L111.201 22.8343L109.503 24.1401ZM110.187 36.2007L112.178 36.9896L112.183 36.977L110.187 36.2007ZM107.452 40.8394L109.081 42.2299L109.09 42.2202L109.098 42.2105L107.452 40.8394ZM103.497 44.062L104.488 45.9609L104.504 45.9525L104.52 45.9438L103.497 44.062ZM98.3215 45.2339V43.0921H96.6101L96.2325 44.7614L98.3215 45.2339ZM96.3195 56.6108L96.735 58.7119L98.2176 58.4188L98.4383 56.9237L96.3195 56.6108ZM101.642 27.4116V25.2699H99.8499L99.5337 27.0336L101.642 27.4116ZM99.3469 39.9604L97.2418 39.5657L96.6263 42.8483L99.8663 42.0383L99.3469 39.9604ZM102.618 37.1284L104.428 38.2735L104.431 38.2696L102.618 37.1284ZM103.448 28.3882L101.817 29.7753L101.834 29.796L101.852 29.8163L103.448 28.3882ZM89.7666 58.7896C93.1881 43.5721 95.5448 31.7304 96.8257 23.2896L92.5907 22.6469C91.3325 30.9378 89.0018 42.6639 85.5874 57.85L89.7666 58.7896ZM95.3236 25.0197C98.8726 23.955 101.306 23.4987 102.765 23.4987V19.2152C100.643 19.2152 97.7053 19.8331 94.0928 20.9168L95.3236 25.0197ZM102.765 23.4987C104.391 23.4987 105.402 23.7423 105.982 24.0414L107.946 20.235C106.508 19.4924 104.72 19.2152 102.765 19.2152V23.4987ZM106.055 24.0775C106.812 24.4321 107.379 24.8914 107.806 25.446L111.201 22.8343C110.325 21.6962 109.2 20.8208 107.873 20.1989L106.055 24.0775ZM107.785 25.4193C108.54 26.4322 109.07 28.1186 109.07 30.7808H113.354C113.354 27.6487 112.745 24.908 111.221 22.8609L107.785 25.4193ZM109.07 30.7808C109.07 32.3662 108.78 33.9099 108.191 35.4244L112.183 36.977C112.961 34.9758 113.354 32.9062 113.354 30.7808H109.07ZM108.196 35.4117C107.592 36.9349 106.795 38.2829 105.807 39.4682L109.098 42.2105C110.389 40.6614 111.414 38.917 112.178 36.9896L108.196 35.4117ZM105.823 39.4488C104.849 40.59 103.735 41.4954 102.475 42.1802L104.52 45.9438C106.255 45.001 107.777 43.758 109.081 42.2299L105.823 39.4488ZM102.507 42.1632C101.296 42.7945 100.088 43.0921 98.8586 43.0921V47.3757C100.819 47.3757 102.703 46.892 104.488 45.9609L102.507 42.1632ZM98.8586 43.0921H98.3215V47.3757H98.8586V43.0921ZM96.2325 44.7614C95.5964 47.5735 94.9199 51.4274 94.2008 56.298L98.4383 56.9237C99.1515 52.0938 99.8096 48.3631 100.41 45.7064L96.2325 44.7614ZM95.9041 54.5098L87.2615 56.2187L88.0924 60.4209L96.735 58.7119L95.9041 54.5098ZM99.5337 27.0336C98.688 31.7496 97.9241 35.9268 97.2418 39.5657L101.452 40.3552C102.137 36.7024 102.903 32.5137 103.75 27.7896L99.5337 27.0336ZM99.8663 42.0383C101.805 41.5536 103.285 40.0812 104.428 38.2735L100.808 35.9833C99.9338 37.3658 99.2326 37.7813 98.8274 37.8826L99.8663 42.0383ZM104.431 38.2696C105.767 36.1473 106.42 33.7611 106.42 31.1714H102.137C102.137 33.0088 101.683 34.5939 100.806 35.9873L104.431 38.2696ZM106.42 31.1714C106.42 29.6594 106.087 28.1254 105.045 26.9601L101.852 29.8163C101.916 29.888 102.137 30.2094 102.137 31.1714H106.42ZM105.08 27.0011C104.256 26.0309 103.104 25.2699 101.642 25.2699V29.5534C101.624 29.5534 101.603 29.5509 101.582 29.5456C101.563 29.5405 101.556 29.5359 101.563 29.5399C101.581 29.5494 101.671 29.6037 101.817 29.7753L105.08 27.0011ZM107.159 58.3198L105.053 57.9321L104.508 60.8955L107.486 60.4366L107.159 58.3198ZM113.702 22.7729L113.518 20.6391L111.892 20.7797L111.596 22.3852L113.702 22.7729ZM129.523 21.4058L131.572 22.0294L132.494 18.9992L129.338 19.272L129.523 21.4058ZM128.937 23.603L131.02 24.0991L131.023 24.0884L131.025 24.0777L128.937 23.603ZM128.058 27.4604L128.271 29.5916L129.867 29.432L130.163 27.8552L128.058 27.4604ZM120.685 27.6069V25.4652H118.921L118.583 27.1957L120.685 27.6069ZM118.927 36.5913L116.825 36.1801L116.297 38.8797L119.044 38.7299L118.927 36.5913ZM125.763 36.2983L127.885 36.591L128.253 33.9214L125.569 34.1654L125.763 36.2983ZM125.372 39.0815L123.252 38.7787L123.247 38.8118L123.244 38.845L125.372 39.0815ZM124.982 41.8159L125.176 43.9489L126.813 43.8L127.092 42.1798L124.982 41.8159ZM123.321 41.9136V44.0553H123.368L123.415 44.0533L123.321 41.9136ZM118.243 42.0601L118.174 39.9194L116.451 39.975L116.137 41.6701L118.243 42.0601ZM116.534 51.2886L114.428 50.8986L113.875 53.8863L116.875 53.4031L116.534 51.2886ZM123.81 50.1167L125.944 50.2991L126.177 47.566L123.469 48.0022L123.81 50.1167ZM123.321 55.8296L123.648 57.9464L125.312 57.6899L125.455 56.012L123.321 55.8296ZM109.266 58.7075L115.809 23.1607L111.596 22.3852L105.053 57.9321L109.266 58.7075ZM113.887 24.9068L129.707 23.5396L129.338 19.272L113.518 20.6391L113.887 24.9068ZM127.474 20.7822C127.232 21.5768 127.023 22.359 126.848 23.1284L131.025 24.0777C131.176 23.4148 131.358 22.7321 131.572 22.0294L127.474 20.7822ZM126.853 23.107C126.817 23.259 126.828 23.2113 126.792 23.3633C126.756 23.5153 126.767 23.4676 126.731 23.6196C126.695 23.7717 126.706 23.724 126.67 23.876C126.634 24.028 126.645 23.9803 126.609 24.1323C126.552 24.3709 126.422 24.9192 126.365 25.1577L130.532 26.1499C130.568 25.9979 130.557 26.0455 130.593 25.8935C130.629 25.7415 130.618 25.7892 130.654 25.6372C130.69 25.4852 130.679 25.5328 130.715 25.3808C130.751 25.2288 130.74 25.2765 130.776 25.1245C130.833 24.8859 130.963 24.3377 131.02 24.0991L126.853 23.107ZM126.365 25.1577C126.197 25.8648 126.058 26.5021 125.953 27.0657L130.163 27.8552C130.253 27.3771 130.375 26.81 130.532 26.1499L126.365 25.1577ZM127.845 25.3293C126.972 25.4166 125.718 25.4652 124.054 25.4652V29.7487C125.775 29.7487 127.191 29.6996 128.271 29.5916L127.845 25.3293ZM124.054 25.4652H120.685V29.7487H124.054V25.4652ZM118.583 27.1957L116.825 36.1801L121.029 37.0026L122.787 28.0182L118.583 27.1957ZM119.044 38.7299C120.823 38.6328 122.299 38.5688 123.477 38.537L123.361 34.255C122.13 34.2883 120.612 34.3545 118.81 34.4527L119.044 38.7299ZM123.477 38.537C124.664 38.5049 125.518 38.4712 125.957 38.4313L125.569 34.1654C125.292 34.1906 124.583 34.222 123.361 34.255L123.477 38.537ZM123.641 36.0057C123.511 36.9464 123.382 37.8707 123.252 38.7787L127.493 39.3844C127.623 38.4694 127.754 37.5383 127.885 36.591L123.641 36.0057ZM123.244 38.845C123.151 39.678 123.027 40.5468 122.871 41.452L127.092 42.1798C127.262 41.197 127.398 40.2429 127.501 39.3181L123.244 38.845ZM124.788 39.683C124.483 39.7107 123.971 39.7415 123.228 39.7738L123.415 44.0533C124.169 44.0205 124.764 43.9863 125.176 43.9489L124.788 39.683ZM123.321 39.7718C122.542 39.7718 121.732 39.7888 120.892 39.8223L121.063 44.1025C121.851 44.0709 122.604 44.0553 123.321 44.0553V39.7718ZM120.892 39.8223C120.085 39.8546 119.179 39.887 118.174 39.9194L118.312 44.2007C119.326 44.168 120.243 44.1353 121.063 44.1025L120.892 39.8223ZM116.137 41.6701L114.428 50.8986L118.64 51.6786L120.349 42.4501L116.137 41.6701ZM116.875 53.4031L124.15 52.2312L123.469 48.0022L116.194 49.1741L116.875 53.4031ZM121.676 49.9343L121.188 55.6472L125.455 56.012L125.944 50.2991L121.676 49.9343ZM122.995 53.7128L106.833 56.203L107.486 60.4366L123.648 57.9464L122.995 53.7128Z" fill="black"/>
</g>
<defs>
<clipPath id="clip0_113_15934">
<rect width="177.052" height="496.175" fill="white" transform="translate(4.68311 4.99731)"/>
</clipPath>
</defs>
</svg>
