<svg width="185" height="506" viewBox="0 0 185 506" fill="none" xmlns="http://www.w3.org/2000/svg">
<rect width="185" height="505" transform="translate(0 0.00292969)" fill="white"/>
<g clip-path="url(#clip0_137_6971)">
<rect width="177.052" height="496.889" transform="translate(4.28516 4.28613)" fill="#FFDB89"/>
<path d="M191.306 305.574L201.296 446.584C201.296 446.584 205.883 487.724 110.289 487.724C18.4498 487.724 23.1539 449.142 23.1539 449.142L32.8531 330.152L34.3574 304.348C35.1431 290.87 35.143 285.181 49.6232 285.028C55.4153 284.967 56.0837 285.027 60.3163 285.027L168.575 285.181C181.95 285.181 190.375 294.063 191.306 305.574Z" fill="#FFCC5A" stroke="black" stroke-width="5.1807" stroke-miterlimit="10"/>
<path d="M20.9233 285.007H49.2934C48.3605 322.836 33.4703 320.557 33.4703 320.557C33.4703 316.31 32.9893 315.673 29.5894 312.975L22.1005 308.359C21.9637 308.277 21.8513 308.16 21.7748 308.021C21.6982 307.881 21.6603 307.723 21.665 307.564C21.6696 307.405 21.7166 307.25 21.8012 307.115C21.8857 306.98 22.0047 306.87 22.146 306.796L32.9893 300.994L34.647 300.158C36.4217 299.093 36.1357 297.875 35.0956 296.989C35.0826 296.983 35.0755 296.97 35.063 296.963C30.6165 293.265 20.2997 286.582 20.2997 286.582C20.1625 286.459 20.0663 286.296 20.024 286.117C19.9818 285.937 19.9955 285.749 20.0634 285.578C20.1313 285.406 20.2502 285.259 20.4039 285.157C20.5576 285.055 20.7389 285.003 20.9233 285.007Z" fill="#FFCC5A"/>
<path d="M56.7539 285.007H20.9239C20.7394 285.003 20.558 285.055 20.4042 285.157C20.2504 285.259 20.1315 285.406 20.0635 285.577C19.9955 285.749 19.9817 285.937 20.024 286.117C20.0662 286.296 20.1625 286.459 20.2998 286.582C20.2998 286.582 30.6166 293.265 35.0631 296.963C35.0761 296.97 35.0831 296.983 35.0956 296.989C36.1356 297.875 36.4218 299.093 34.6471 300.158L32.9894 300.994L22.1464 306.796C22.0051 306.87 21.8861 306.98 21.8016 307.115C21.717 307.25 21.67 307.405 21.6654 307.564C21.6607 307.723 21.6986 307.881 21.7752 308.021C21.8517 308.16 21.9642 308.277 22.1009 308.359L29.5899 312.975C32.9899 315.673 33.4708 316.31 33.4708 320.557" stroke="black" stroke-width="5.1817" stroke-miterlimit="10"/>
<path d="M134.963 437.923C122.072 437.923 105.467 447.885 88.9322 442.028C71.4116 435.822 88.9322 463.297 113.065 463.297C146.582 463.297 148.817 437.923 134.963 437.923Z" fill="white" stroke="black" stroke-width="4.472"/>
<path d="M45.0526 352.562L32.2617 363.165V370.234L34.5873 390.263L41.1766 404.4L54.7427 407.935H77.9989L92.7279 400.08L102.03 380.445L104.356 360.809L98.5419 352.562L79.9369 349.028H59.7816L45.0526 352.562Z" fill="#263238" stroke="black" stroke-width="0.7395"/>
<path d="M181.093 352.962L193.884 363.565V370.634L191.558 390.662L184.969 404.8L171.403 408.334H148.147L133.418 400.48L124.115 380.844L121.789 361.209L127.604 352.962L146.208 349.427H166.364L181.093 352.962Z" fill="#263238" stroke="black" stroke-width="0.7395"/>
<path d="M196.296 350.43C189.882 349.215 183.432 348 176.945 347.19C161.834 345.276 146.723 344.907 131.684 348.074C119.758 350.607 107.443 350.695 95.4823 348.331C87.0323 346.543 78.4263 345.593 69.7896 345.497C63.3396 345.975 56.8526 346.159 50.4385 347.006C42.9009 348 35.4359 349.51 27.9346 350.798C27.282 350.832 26.6689 351.121 26.2281 351.603C25.7872 352.086 25.5541 352.722 25.5792 353.375C25.3617 358.898 25.0356 364.42 24.8906 369.98C24.8916 370.513 25.0089 371.04 25.2342 371.523C25.4595 372.006 25.7875 372.435 26.1952 372.778C27.6447 373.698 27.8622 374.987 28.2608 376.386C30.5075 383.896 32.5731 391.518 35.2185 398.881C37.6102 405.582 43.0459 409.226 49.6775 410.331C60.195 412.176 70.9869 411.724 81.3133 409.006C87.4375 407.349 92.4021 404.183 95.7723 398.439C99.2882 392.569 102.098 386.303 104.143 379.773C105.665 374.84 106.97 369.832 108.383 364.862C108.999 362.653 110.738 362.359 112.623 362.322C114.616 362.322 116.609 362.359 117.37 364.789C118.059 366.998 118.747 369.243 119.291 371.489C121.416 380.571 124.807 389.308 129.365 397.445C133.025 403.814 138.316 407.459 145.201 409.226C154.26 411.546 163.429 411.656 172.633 410.883C181.439 410.147 188.252 406.171 191.259 397.371C193.724 390.155 195.644 382.718 197.819 375.429C198.139 374.664 198.54 373.936 199.014 373.256C199.667 372.041 200.826 370.827 200.863 369.612C200.935 364.789 200.79 359.966 200.5 355.179C200.246 351.277 200.101 351.13 196.296 350.43ZM101.896 368.213C101.162 374.741 99.3754 381.106 96.6061 387.063C95.3378 389.824 93.8161 392.475 92.2938 395.126C89.2138 400.464 84.5751 403.52 78.6321 404.919C68.9855 407.049 58.9878 407.023 49.3521 404.845C47.6043 404.496 45.9601 403.75 44.5464 402.665C43.1326 401.58 41.9872 400.184 41.1986 398.586C35.2918 387.431 34.1321 375.613 36.7413 363.353C37.3573 360.518 39.4954 359.008 41.8513 357.793C47.1421 355.069 52.9039 354.185 58.702 353.559C62.2896 353.191 65.8772 353.118 69.4647 352.897C69.4285 353.044 69.501 352.749 69.4647 352.897C74.1176 352.897 83.1989 354.222 89.9755 355.327C92.1588 355.801 94.2677 356.569 96.2447 357.609C100.99 359.929 102.44 362.874 101.896 368.213ZM185.787 396.267C183.504 401.384 179.917 404.624 174.3 405.287C170.531 405.729 166.726 406.171 162.957 406.612C156.537 406.735 150.138 405.828 144.005 403.925C140.536 402.833 137.503 400.668 135.344 397.74C128.804 388.835 124.842 378.3 123.893 367.292C123.422 362.101 125.814 358.861 130.633 356.873C137.808 353.928 145.346 353.191 152.956 352.97C160.711 352.786 168.502 352.934 176.003 354.995C179.516 355.973 182.898 357.37 186.077 359.156C189.158 360.886 189.339 364.42 189.774 367.623C191.173 377.356 189.791 387.286 185.787 396.267Z" fill="black"/>
<path d="M52.6317 59.7969C55.5288 44.6602 57.6447 32.6159 58.9793 23.6641L67.0848 23.0781C65.7827 28.5469 64.7248 33.4622 63.911 37.8242L68.8426 37.2383C69.2983 34.8945 69.7052 32.6159 70.0633 30.4023C70.4539 28.1562 70.9422 25.8613 71.5282 23.5176C72.8302 23.2897 74.2137 23.127 75.6786 23.0293C77.1434 22.8991 78.1525 22.8177 78.7059 22.7852L79.536 22.6875C77.9409 27.8958 76.3784 35.2038 74.8485 44.6113C74.0998 48.8431 73.4162 53.1725 72.7977 57.5996L64.9852 58.4785C65.4084 56.4928 65.7827 54.6211 66.1082 52.8633C66.4663 51.1055 66.8081 49.3639 67.1336 47.6387C67.4917 45.9134 67.7847 44.4323 68.0125 43.1953L63.1297 43.6348C62.381 47.7689 61.4533 52.6191 60.3465 58.1855L52.6317 59.7969ZM74.702 59.748L81.245 24.2012L97.0653 22.834C96.8374 23.5827 96.6421 24.3151 96.4793 25.0312C96.3166 25.7148 96.1538 26.3984 95.9911 27.082C95.8283 27.7656 95.6981 28.3678 95.6004 28.8887C94.6239 28.9863 93.2892 29.0352 91.5965 29.0352H88.2274L86.4696 38.0195C88.2599 37.9219 89.7573 37.8568 90.9618 37.8242C92.1662 37.7917 92.9474 37.7591 93.3055 37.7266C93.1753 38.6706 93.0451 39.5983 92.9149 40.5098C92.8172 41.3887 92.687 42.3001 92.5243 43.2441C92.1662 43.2767 91.6128 43.3092 90.8641 43.3418C90.1154 43.3418 89.3341 43.3581 88.5203 43.3906C87.7065 43.4232 86.7951 43.4557 85.786 43.4883L84.077 52.7168L91.3524 51.5449L90.8641 57.2578L74.702 59.748ZM106.587 58.918C104.08 50.0638 102.778 45.0345 102.681 43.8301L102.046 44.0254C100.972 50.015 100.174 54.556 99.6532 57.6484L91.5477 59.748C94.9331 43.3743 97.0002 31.7533 97.7489 24.8848C101.525 23.7129 105.757 23.127 110.444 23.127C113.96 23.127 116.043 24.3477 116.694 26.7891C116.889 27.5378 116.987 28.4655 116.987 29.5723C116.987 30.679 116.759 31.8835 116.304 33.1855C115.848 34.4551 115.229 35.6758 114.448 36.8477C112.82 39.224 110.819 41.0469 108.442 42.3164C109.712 45.0508 110.835 47.6387 111.811 50.0801C112.82 52.4889 113.667 54.5234 114.35 56.1836L106.587 58.918ZM107.075 30.0605L104.927 30.1094L103.315 38.0684C104.617 37.9382 106.261 37.1081 108.247 35.5781C110.298 34.0156 111.323 32.7298 111.323 31.7207C111.323 30.7767 110.428 30.2396 108.638 30.1094C108.117 30.0768 107.596 30.0605 107.075 30.0605ZM133.393 36.8477C133.393 34.1458 132.612 32.7949 131.05 32.7949C129.064 32.7949 127.274 33.7715 125.679 35.7246C124.409 37.2871 123.319 39.4193 122.407 42.1211C121.691 44.3346 121.333 46.418 121.333 48.3711C121.333 49.6732 121.886 50.6497 122.993 51.3008C123.319 51.5286 123.693 51.6426 124.116 51.6426C125.613 51.6426 126.932 51.138 128.071 50.1289C129.243 49.0872 130.22 47.8177 131.001 46.3203C131.782 44.8229 132.368 43.2279 132.759 41.5352C133.182 39.8099 133.393 38.2474 133.393 36.8477ZM140.327 33.7715C140.327 35.7572 140.034 37.9544 139.448 40.3633C138.895 42.7721 138.13 44.9857 137.153 47.0039C136.177 49.0221 135.037 50.8288 133.735 52.4238C132.466 54.0189 131.131 55.3698 129.731 56.4766C126.834 58.7552 124.051 59.8945 121.382 59.8945C119.136 59.8945 117.361 59.0807 116.059 57.4531C114.627 55.6628 113.911 53.0586 113.911 49.6406C113.911 45.9297 114.774 41.9258 116.499 37.6289C118.224 33.332 120.486 29.7513 123.286 26.8867C126.313 23.8268 129.487 22.2969 132.807 22.2969C135.542 22.2969 137.544 23.4036 138.813 25.6172C139.822 27.4076 140.327 30.1257 140.327 33.7715Z" fill="white"/>
<path d="M52.6317 59.7969L51.6495 59.6089L51.3675 61.0825L52.8361 60.7758L52.6317 59.7969ZM58.9793 23.6641L58.9072 22.6667L58.1084 22.7244L57.9903 23.5166L58.9793 23.6641ZM67.0848 23.0781L68.0576 23.3097L68.3737 21.9823L67.0127 22.0807L67.0848 23.0781ZM63.911 37.8242L62.9279 37.6408L62.6785 38.9777L64.029 38.8172L63.911 37.8242ZM68.8426 37.2383L68.9606 38.2313L69.685 38.1452L69.8242 37.4292L68.8426 37.2383ZM70.0633 30.4023L69.078 30.231L69.0761 30.2427L70.0633 30.4023ZM71.5282 23.5176L71.3558 22.5325L70.7156 22.6446L70.558 23.275L71.5282 23.5176ZM75.6786 23.0293L75.7451 24.0271L75.7561 24.0263L75.7671 24.0254L75.6786 23.0293ZM78.7059 22.7852L78.7646 23.7834L78.7938 23.7817L78.8227 23.7783L78.7059 22.7852ZM79.536 22.6875L80.4921 22.9803L80.9408 21.5153L79.4191 21.6943L79.536 22.6875ZM74.8485 44.6113L75.8333 44.7856L75.8355 44.7718L74.8485 44.6113ZM72.7977 57.5996L72.9095 58.5933L73.6807 58.5066L73.7881 57.738L72.7977 57.5996ZM64.9852 58.4785L64.0072 58.2701L63.7179 59.6274L65.097 59.4722L64.9852 58.4785ZM66.1082 52.8633L65.1284 52.6637L65.1266 52.6724L65.125 52.6812L66.1082 52.8633ZM67.1336 47.6387L66.1545 47.4355L66.1526 47.4443L66.151 47.4533L67.1336 47.6387ZM68.0125 43.1953L68.996 43.3765L69.2346 42.0813L67.9229 42.1993L68.0125 43.1953ZM63.1297 43.6348L63.0401 42.6388L62.2815 42.7071L62.1457 43.4566L63.1297 43.6348ZM60.3465 58.1855L60.551 59.1644L61.1983 59.0292L61.3273 58.3806L60.3465 58.1855ZM53.6138 59.9849C56.512 44.8426 58.6308 32.783 59.9684 23.8115L57.9903 23.5166C56.6586 32.4487 54.5456 44.4777 51.6495 59.6089L53.6138 59.9849ZM59.0514 24.6615L67.1569 24.0755L67.0127 22.0807L58.9072 22.6667L59.0514 24.6615ZM66.112 22.8465C64.8071 28.3273 63.7454 33.2591 62.9279 37.6408L64.894 38.0076C65.7041 33.6654 66.7584 28.7665 68.0576 23.3097L66.112 22.8465ZM64.029 38.8172L68.9606 38.2313L68.7246 36.2453L63.793 36.8312L64.029 38.8172ZM69.8242 37.4292C70.2818 35.0757 70.6906 32.7866 71.0505 30.562L69.0761 30.2427C68.7199 32.4451 68.3148 34.7134 67.861 37.0474L69.8242 37.4292ZM71.0485 30.5737C71.4348 28.3529 71.9179 26.0817 72.4983 23.7601L70.558 23.275C69.9665 25.6409 69.4731 27.9596 69.0781 30.231L71.0485 30.5737ZM71.7005 24.5026C72.964 24.2815 74.3119 24.1226 75.7451 24.0271L75.612 22.0315C74.1155 22.1313 72.6965 22.2979 71.3558 22.5325L71.7005 24.5026ZM75.7671 24.0254C77.233 23.8951 78.2281 23.815 78.7646 23.7834L78.6472 21.7869C78.0769 21.8204 77.0538 21.9031 75.59 22.0332L75.7671 24.0254ZM78.8227 23.7783L79.6528 23.6807L79.4191 21.6943L78.5891 21.792L78.8227 23.7783ZM78.5798 22.3947C76.9652 27.6668 75.3941 35.0263 73.8614 44.4508L75.8355 44.7718C77.3627 35.3812 78.9166 28.1248 80.4921 22.9803L78.5798 22.3947ZM73.8638 44.4371C73.1129 48.6813 72.4274 53.0227 71.8073 57.4612L73.7881 57.738C74.405 53.3224 75.0867 49.0049 75.8332 44.7855L73.8638 44.4371ZM72.6859 56.6059L64.8734 57.4848L65.097 59.4722L72.9095 58.5933L72.6859 56.6059ZM65.9632 58.6869C66.388 56.6937 66.7642 54.8131 67.0915 53.0454L65.125 52.6812C64.8013 54.4291 64.4287 56.292 64.0072 58.2701L65.9632 58.6869ZM67.0881 53.0629C67.4471 51.3004 67.7899 49.5542 68.1163 47.8241L66.151 47.4533C65.8264 49.1737 65.4855 50.9105 65.1284 52.6637L67.0881 53.0629ZM68.1128 47.8419C68.4718 46.1119 68.7663 44.6231 68.996 43.3765L67.0291 43.0141C66.803 44.2415 66.5116 45.7149 66.1545 47.4355L68.1128 47.8419ZM67.9229 42.1993L63.0401 42.6388L63.2194 44.6307L68.1022 44.1913L67.9229 42.1993ZM62.1457 43.4566C61.3983 47.5835 60.4717 52.4279 59.3657 57.9905L61.3273 58.3806C62.4348 52.8104 63.3637 47.9542 64.1137 43.813L62.1457 43.4566ZM60.1421 57.2067L52.4272 58.818L52.8361 60.7758L60.551 59.1644L60.1421 57.2067ZM74.702 59.748L73.7185 59.567L73.4638 60.9506L74.8543 60.7364L74.702 59.748ZM81.245 24.2012L81.1589 23.2049L80.3995 23.2705L80.2615 24.0201L81.245 24.2012ZM97.0653 22.834L98.0219 23.1251L98.4525 21.7104L96.9792 21.8377L97.0653 22.834ZM96.4793 25.0312L97.4522 25.2629L97.4545 25.2529L96.4793 25.0312ZM95.6004 28.8887L95.6999 29.8837L96.4453 29.8092L96.5833 29.073L95.6004 28.8887ZM88.2274 29.0352V28.0352H87.4041L87.246 28.8431L88.2274 29.0352ZM86.4696 38.0195L85.4882 37.8275L85.2416 39.088L86.524 39.018L86.4696 38.0195ZM93.3055 37.7266L94.2961 37.8632L94.468 36.6168L93.215 36.7307L93.3055 37.7266ZM92.9149 40.5098L91.9249 40.3683L91.9227 40.3838L91.921 40.3993L92.9149 40.5098ZM92.5243 43.2441L92.6148 44.24L93.3793 44.1705L93.5097 43.414L92.5243 43.2441ZM90.8641 43.3418V44.3418H90.8858L90.9075 44.3409L90.8641 43.3418ZM85.786 43.4883L85.7537 42.4888L84.9493 42.5148L84.8027 43.3062L85.786 43.4883ZM84.077 52.7168L83.0937 52.5347L82.8354 53.9297L84.236 53.7041L84.077 52.7168ZM91.3524 51.5449L92.3487 51.6301L92.4578 50.354L91.1934 50.5576L91.3524 51.5449ZM90.8641 57.2578L91.0164 58.2461L91.7935 58.1264L91.8605 57.343L90.8641 57.2578ZM75.6855 59.9291L82.2284 24.3822L80.2615 24.0201L73.7185 59.567L75.6855 59.9291ZM81.3311 25.1975L97.1514 23.8303L96.9792 21.8377L81.1589 23.2049L81.3311 25.1975ZM96.1086 22.5428C95.8742 23.313 95.6726 24.0686 95.5042 24.8096L97.4545 25.2529C97.6116 24.5616 97.8006 23.8524 98.0219 23.1251L96.1086 22.5428ZM95.5065 24.7996C95.4781 24.9192 95.4129 25.1927 95.3845 25.3123C95.356 25.4319 95.2909 25.7054 95.2624 25.825C95.2372 25.9308 95.2571 25.8474 95.2319 25.9532C95.2067 26.059 95.2265 25.9756 95.2013 26.0814C95.1762 26.1872 95.196 26.1037 95.1708 26.2095C95.1456 26.3153 95.1655 26.2319 95.1403 26.3377C95.1151 26.4435 95.135 26.3601 95.1098 26.4659C95.0846 26.5717 95.1045 26.4883 95.0793 26.5941C95.0541 26.6999 95.074 26.6164 95.0488 26.7222C95.0236 26.828 95.0434 26.7446 95.0182 26.8504L96.9639 27.3137C96.9923 27.1941 97.0575 26.9205 97.0859 26.801C97.1144 26.6814 97.1795 26.4078 97.208 26.2883C97.2332 26.1825 97.2133 26.2659 97.2385 26.1601C97.2637 26.0543 97.2438 26.1377 97.269 26.0319C97.2942 25.9261 97.2744 26.0095 97.2996 25.9037C97.3247 25.7979 97.3049 25.8814 97.3301 25.7756C97.3553 25.6698 97.3354 25.7532 97.3606 25.6474C97.3858 25.5416 97.3659 25.625 97.3911 25.5192C97.4163 25.4134 97.3964 25.4968 97.4216 25.391C97.4468 25.2853 97.4269 25.3687 97.4521 25.2629L95.5065 24.7996ZM95.0182 26.8504C94.8529 27.545 94.719 28.1636 94.6176 28.7044L96.5833 29.073C96.6772 28.5721 96.8037 27.9863 96.9639 27.3137L95.0182 26.8504ZM95.5009 27.8936C94.5727 27.9865 93.2761 28.0352 91.5965 28.0352V30.0352C93.3024 30.0352 94.675 29.9862 95.6999 29.8837L95.5009 27.8936ZM91.5965 28.0352H88.2274V30.0352H91.5965V28.0352ZM87.246 28.8431L85.4882 37.8275L87.451 38.2115L89.2088 29.2272L87.246 28.8431ZM86.524 39.018C88.3092 38.9207 89.7967 38.8561 90.9888 38.8239L90.9347 36.8246C89.7179 36.8575 88.2107 36.9231 86.4151 37.021L86.524 39.018ZM90.9888 38.8239C92.1853 38.7915 93.0002 38.7584 93.396 38.7225L93.215 36.7307C92.8947 36.7598 92.1471 36.7918 90.9347 36.8246L90.9888 38.8239ZM92.3149 37.5899C92.1849 38.5324 92.0549 39.4585 91.9249 40.3683L93.9048 40.6512C94.0353 39.7381 94.1657 38.8088 94.2961 37.8632L92.3149 37.5899ZM91.921 40.3993C91.8257 41.2568 91.6984 42.1483 91.5388 43.0742L93.5097 43.414C93.6756 42.4519 93.8087 41.5206 93.9088 40.6202L91.921 40.3993ZM92.4337 42.2482C92.1004 42.2785 91.5666 42.3103 90.8207 42.3427L90.9075 44.3409C91.659 44.3082 92.232 44.2748 92.6148 44.24L92.4337 42.2482ZM90.8641 42.3418C90.101 42.3418 89.3064 42.3584 88.4804 42.3914L88.5603 44.3898C89.3619 44.3578 90.1298 44.3418 90.8641 44.3418V42.3418ZM88.4804 42.3914C87.6697 42.4239 86.7608 42.4563 85.7537 42.4888L85.8182 44.4878C86.8293 44.4551 87.7434 44.4225 88.5603 44.3898L88.4804 42.3914ZM84.8027 43.3062L83.0937 52.5347L85.0603 52.8989L86.7693 43.6704L84.8027 43.3062ZM84.236 53.7041L91.5114 52.5322L91.1934 50.5576L83.918 51.7295L84.236 53.7041ZM90.356 51.4598L89.8677 57.1727L91.8605 57.343L92.3487 51.6301L90.356 51.4598ZM90.7118 56.2695L74.5497 58.7597L74.8543 60.7364L91.0164 58.2461L90.7118 56.2695ZM106.587 58.918L105.625 59.1904L105.915 60.2149L106.919 59.8612L106.587 58.918ZM102.681 43.8301L103.677 43.7493L103.577 42.5081L102.386 42.8743L102.681 43.8301ZM102.046 44.0254L101.752 43.0696L101.169 43.2489L101.061 43.8489L102.046 44.0254ZM99.6532 57.6484L99.9039 58.6165L100.532 58.4539L100.639 57.8145L99.6532 57.6484ZM91.5477 59.748L90.5684 59.5456L90.2431 61.119L91.7985 60.7161L91.5477 59.748ZM97.7489 24.8848L97.4525 23.9297L96.8259 24.1242L96.7548 24.7764L97.7489 24.8848ZM116.694 26.7891L117.662 26.5366L117.66 26.5314L116.694 26.7891ZM116.304 33.1855L117.245 33.5234L117.247 33.5159L116.304 33.1855ZM114.448 36.8477L115.273 37.4128L115.28 37.4024L114.448 36.8477ZM108.442 42.3164L107.971 41.4344L107.137 41.8799L107.535 42.7375L108.442 42.3164ZM111.811 50.0801L110.883 50.4515L110.886 50.459L110.889 50.4665L111.811 50.0801ZM114.35 56.1836L114.683 57.1268L115.676 56.7769L115.275 55.8028L114.35 56.1836ZM107.075 30.0605V29.0605H107.064L107.052 29.0608L107.075 30.0605ZM104.927 30.1094L104.904 29.1096L104.105 29.1278L103.946 29.9109L104.927 30.1094ZM103.315 38.0684L102.335 37.8699L102.066 39.1983L103.415 39.0634L103.315 38.0684ZM108.247 35.5781L107.641 34.7827L107.637 34.786L108.247 35.5781ZM108.638 30.1094L108.71 29.112L108.7 29.1113L108.638 30.1094ZM107.549 58.6456C106.296 54.2211 105.347 50.7586 104.698 48.2547C104.038 45.7045 103.717 44.2448 103.677 43.7493L101.684 43.9109C101.741 44.6198 102.12 46.277 102.762 48.756C103.416 51.2814 104.371 54.7606 105.625 59.1904L107.549 58.6456ZM102.386 42.8743L101.752 43.0696L102.34 44.9812L102.975 44.7859L102.386 42.8743ZM101.061 43.8489C99.9871 49.8393 99.1888 54.3845 98.667 57.4824L100.639 57.8145C101.159 54.7274 101.956 50.1906 103.03 44.2019L101.061 43.8489ZM99.4024 56.6804L91.2969 58.78L91.7985 60.7161L99.9039 58.6165L99.4024 56.6804ZM92.527 59.9505C95.9124 43.577 97.9886 31.914 98.743 24.9931L96.7548 24.7764C96.0118 31.5925 93.9538 43.1717 90.5684 59.5456L92.527 59.9505ZM98.0453 25.8398C101.709 24.7027 105.839 24.127 110.444 24.127V22.127C105.674 22.127 101.34 22.7231 97.4525 23.9297L98.0453 25.8398ZM110.444 24.127C112.1 24.127 113.304 24.4167 114.138 24.9053C114.941 25.3757 115.467 26.0674 115.728 27.0467L117.66 26.5314C117.271 25.0693 116.429 23.9299 115.149 23.1797C113.9 22.4476 112.304 22.127 110.444 22.127V24.127ZM115.727 27.0415C115.893 27.6808 115.987 28.5174 115.987 29.5723H117.987C117.987 28.4136 117.886 27.3947 117.662 26.5366L115.727 27.0415ZM115.987 29.5723C115.987 30.5427 115.787 31.6342 115.36 32.8552L117.247 33.5159C117.732 32.1327 117.987 30.8154 117.987 29.5723H115.987ZM115.362 32.8477C114.935 34.0375 114.354 35.1857 113.616 36.293L115.28 37.4024C116.104 36.1659 116.76 34.8727 117.245 33.5234L115.362 32.8477ZM113.623 36.2826C112.08 38.5357 110.196 40.2457 107.971 41.4344L108.913 43.1984C111.441 41.848 113.561 39.9122 115.273 37.4127L113.623 36.2826ZM107.535 42.7375C108.798 45.4578 109.914 48.029 110.883 50.4515L112.74 49.7087C111.756 47.2483 110.625 44.6437 109.349 41.8953L107.535 42.7375ZM110.889 50.4665C111.898 52.8742 112.743 54.9067 113.426 56.5643L115.275 55.8028C114.59 54.1402 113.743 52.1037 112.734 49.6937L110.889 50.4665ZM114.018 55.2404L106.255 57.9748L106.919 59.8612L114.683 57.1268L114.018 55.2404ZM107.052 29.0608L104.904 29.1096L104.949 31.1091L107.098 31.0603L107.052 29.0608ZM103.946 29.9109L102.335 37.8699L104.295 38.2668L105.907 30.3078L103.946 29.9109ZM103.415 39.0634C105.007 38.9042 106.837 37.9267 108.857 36.3703L107.637 34.786C105.685 36.2894 104.228 36.9721 103.216 37.0733L103.415 39.0634ZM108.853 36.3736C109.911 35.5672 110.751 34.7982 111.336 34.0654C111.907 33.3486 112.323 32.5557 112.323 31.7207H110.323C110.323 31.8949 110.226 32.2494 109.772 32.8184C109.331 33.3714 108.633 34.0266 107.641 34.7827L108.853 36.3736ZM112.323 31.7207C112.323 30.8549 111.877 30.1787 111.166 29.7524C110.52 29.3647 109.664 29.1814 108.71 29.112L108.565 31.1067C109.401 31.1676 109.888 31.3179 110.137 31.4674C110.322 31.5782 110.323 31.6425 110.323 31.7207H112.323ZM108.7 29.1113C108.158 29.0775 107.617 29.0605 107.075 29.0605V31.0605C107.575 31.0605 108.075 31.0762 108.575 31.1074L108.7 29.1113ZM125.679 35.7246L124.904 35.0921L124.902 35.094L125.679 35.7246ZM122.407 42.1211L121.459 41.8014L121.456 41.8133L122.407 42.1211ZM122.993 51.3008L123.566 50.4816L123.534 50.4589L123.5 50.4388L122.993 51.3008ZM128.071 50.1289L128.734 50.8775L128.735 50.8763L128.071 50.1289ZM132.759 41.5352L131.787 41.2969L131.784 41.3103L132.759 41.5352ZM139.448 40.3633L138.476 40.1269L138.473 40.1394L139.448 40.3633ZM137.153 47.0039L136.253 46.5683L137.153 47.0039ZM133.735 52.4238L132.96 51.7914L132.953 51.8011L133.735 52.4238ZM129.731 56.4766L130.349 57.2626L130.352 57.261L129.731 56.4766ZM116.059 57.4531L115.279 58.0778L116.059 57.4531ZM123.286 26.8867L122.575 26.1834L122.571 26.1878L123.286 26.8867ZM138.813 25.6172L139.684 25.1262L139.681 25.1197L138.813 25.6172ZM134.393 36.8477C134.393 35.4331 134.195 34.2093 133.673 33.3075C133.103 32.3225 132.187 31.7949 131.05 31.7949V33.7949C131.474 33.7949 131.73 33.9428 131.942 34.3087C132.202 34.7578 132.393 35.5604 132.393 36.8477H134.393ZM131.05 31.7949C128.686 31.7949 126.633 32.9746 124.904 35.0921L126.453 36.3571C127.914 34.5684 129.442 33.7949 131.05 33.7949V31.7949ZM124.902 35.094C123.533 36.779 122.395 39.0299 121.46 41.8014L123.355 42.4407C124.243 39.8086 125.285 37.7953 126.455 36.3552L124.902 35.094ZM121.456 41.8133C120.713 44.1078 120.333 46.2957 120.333 48.3711H122.333C122.333 46.5402 122.669 44.5615 123.359 42.4289L121.456 41.8133ZM120.333 48.3711C120.333 50.0214 121.069 51.3289 122.486 52.1627L123.5 50.4388C122.704 49.9706 122.333 49.325 122.333 48.3711H120.333ZM122.42 52.12C122.924 52.4734 123.502 52.6426 124.116 52.6426V50.6426C123.884 50.6426 123.713 50.5839 123.566 50.4816L122.42 52.12ZM124.116 52.6426C125.862 52.6426 127.415 52.0457 128.734 50.8775L127.408 49.3803C126.448 50.2304 125.365 50.6426 124.116 50.6426V52.6426ZM128.735 50.8763C130.005 49.7479 131.054 48.3796 131.887 46.7829L130.114 45.8577C129.385 47.2558 128.481 48.4265 127.407 49.3815L128.735 50.8763ZM131.887 46.7829C132.709 45.2082 133.324 43.533 133.733 41.76L131.784 41.3103C131.412 42.9227 130.855 44.4377 130.114 45.8577L131.887 46.7829ZM133.73 41.7734C134.167 39.99 134.393 38.3458 134.393 36.8477H132.393C132.393 38.149 132.196 39.6298 131.787 41.2969L133.73 41.7734ZM139.327 33.7715C139.327 35.6607 139.048 37.7772 138.476 40.1269L140.42 40.5996C141.02 38.1316 141.327 35.8536 141.327 33.7715H139.327ZM138.473 40.1394C137.935 42.4825 137.194 44.6241 136.253 46.5683L138.053 47.4395C139.066 45.3472 139.854 43.0618 140.423 40.5872L138.473 40.1394ZM136.253 46.5683C135.307 48.5225 134.209 50.262 132.961 51.7915L134.51 53.0562C135.865 51.3956 137.046 49.5218 138.053 47.4395L136.253 46.5683ZM132.953 51.8011C131.724 53.3445 130.443 54.639 129.111 55.6921L130.352 57.261C131.819 56.1005 133.207 54.6932 134.518 53.0466L132.953 51.8011ZM129.113 55.6905C126.326 57.8827 123.755 58.8945 121.382 58.8945V60.8945C124.347 60.8945 127.342 59.6278 130.349 57.2626L129.113 55.6905ZM121.382 58.8945C119.412 58.8945 117.936 58.1985 116.84 56.8284L115.279 58.0778C116.787 59.963 118.859 60.8945 121.382 60.8945V58.8945ZM116.84 56.8284C115.605 55.284 114.911 52.9385 114.911 49.6406H112.911C112.911 53.1787 113.65 56.0416 115.279 58.0778L116.84 56.8284ZM114.911 49.6406C114.911 46.0847 115.738 42.2082 117.427 38.0015L115.571 37.2563C113.809 41.6433 112.911 45.7747 112.911 49.6406H114.911ZM117.427 38.0015C119.111 33.8075 121.306 30.343 124.001 27.5857L122.571 26.1878C119.667 29.1596 117.337 32.8565 115.571 37.2563L117.427 38.0015ZM123.997 27.59C126.895 24.6612 129.827 23.2969 132.807 23.2969V21.2969C129.147 21.2969 125.732 22.9925 122.575 26.1834L123.997 27.59ZM132.807 23.2969C135.215 23.2969 136.87 24.2382 137.946 26.1147L139.681 25.1197C138.218 22.5691 135.869 21.2969 132.807 21.2969V23.2969ZM137.942 26.1082C138.824 27.6732 139.327 30.183 139.327 33.7715H141.327C141.327 30.0683 140.821 27.1419 139.684 25.1262L137.942 26.1082Z" fill="black"/>
<path d="M10.559 83.1256C10.9207 82.9822 16.2714 80.5595 40.2639 80.7927C55.4342 80.8921 92.1262 82.9095 92.1262 82.9095C92.1262 82.9095 141.229 78.9849 142.811 79.2498C160.923 78.3483 171.081 82.1429 171.081 82.1429C171.081 82.1429 171.672 80.8953 172.739 82.0805C173.806 83.2656 171.081 102.092 171.081 102.092C171.081 102.092 177.08 112.444 175.73 117.567C174.381 122.69 170.437 127.347 170.437 127.347C170.437 127.347 180.38 124.928 175.73 139.848C171.081 154.768 181.16 157.671 178.161 168.488C175.909 176.606 167.169 179.91 167.169 187.05C167.169 194.189 172.961 192.778 178.161 197.034C183.36 201.29 155.331 206.438 142.811 207.039C130.291 207.641 107.557 201.328 92.1629 205.917C76.7687 210.505 56.222 206.881 53.1541 207.039C50.0861 207.198 35.7702 205.769 32.3205 205.682C28.9093 205.746 14.7857 205.066 13.1263 204.501C11.5239 203.848 10.8341 204.097 9.82607 203.133C7.22988 200.651 15.5912 189.905 15.5912 189.905L10.8735 161.815C10.8735 161.815 9.04041 161.171 8.18283 160.338C5.21243 157.452 16.4787 154.768 16.4787 154.768C16.4787 154.768 16.7463 153.535 11.3436 151.219C5.94093 148.904 10.7906 127.347 10.7906 127.347C10.7906 127.347 14.1728 123.131 14.4176 121.91C14.6624 120.689 15.3814 118.521 13.702 117.567C12.0226 116.614 10.3756 115.731 9.82607 114.576C9.27654 113.422 14.4166 107.804 14.4166 107.804L14.4166 102.092C14.4166 102.092 10.1972 83.269 10.559 83.1256Z" fill="white" stroke="black" stroke-width="2.14176"/>
<path d="M65.199 111.816C65.199 110.49 65.5066 109.506 66.1218 108.863C66.737 108.221 67.6804 107.899 68.9519 107.899C69.4714 107.899 70.0046 107.947 70.5515 108.043C71.112 108.139 71.6247 108.31 72.0896 108.556C72.5544 108.788 72.9304 109.116 73.2175 109.54C73.5183 109.964 73.6687 110.511 73.6687 111.181C73.6687 111.919 73.5046 112.616 73.1765 113.272C72.862 113.915 72.4587 114.523 71.9665 115.098C71.488 115.658 70.9548 116.185 70.3669 116.677C69.7927 117.155 69.2527 117.613 68.7468 118.051C68.7195 118.105 68.6921 118.222 68.6648 118.399C68.6511 118.563 68.6443 118.673 68.6443 118.728C68.6443 119.179 68.7741 119.63 69.0339 120.081C69.3074 120.546 69.6013 121.011 69.9157 121.476C70.2302 121.954 70.5173 122.446 70.7771 122.952C71.0368 123.458 71.1667 123.984 71.1667 124.531C71.1667 124.859 71.0984 125.051 70.9616 125.105C70.8249 125.174 70.5378 125.208 70.1003 125.208C69.8269 125.099 69.5534 124.839 69.28 124.429C69.0202 124.032 68.7536 123.54 68.4802 122.952C68.2204 122.364 67.9607 121.701 67.7009 120.963C67.4548 120.238 67.2156 119.5 66.9831 118.748C66.7644 117.982 66.5525 117.23 66.3474 116.492C66.156 115.74 65.9851 115.05 65.8347 114.421C65.6843 113.792 65.5476 113.252 65.4245 112.801C65.3152 112.336 65.24 112.008 65.199 111.816ZM66.9421 112.001C66.9421 112.206 66.9558 112.507 66.9831 112.903C67.0105 113.286 67.0652 113.669 67.1472 114.052C67.2429 114.435 67.3796 114.77 67.5574 115.057C67.7351 115.33 67.9812 115.467 68.2956 115.467C68.7195 115.467 69.1433 115.323 69.5671 115.036C70.0046 114.749 70.3874 114.387 70.7156 113.949C71.0574 113.512 71.3308 113.047 71.5359 112.555C71.7546 112.049 71.864 111.591 71.864 111.181C71.864 110.839 71.782 110.572 71.6179 110.381C71.4538 110.176 71.2419 110.019 70.9822 109.909C70.7361 109.786 70.4695 109.711 70.1824 109.684C69.8952 109.643 69.6218 109.622 69.362 109.622C68.5827 109.622 67.9812 109.834 67.5574 110.258C67.1472 110.668 66.9421 111.249 66.9421 112.001ZM74.8786 115.221C74.8786 114.373 75.0769 113.587 75.4734 112.862C75.8699 112.124 76.3894 111.495 77.032 110.976C77.6882 110.442 78.4197 110.025 79.2263 109.725C80.0466 109.424 80.8738 109.273 81.7077 109.273C82.1726 109.273 82.5827 109.424 82.9382 109.725C83.3074 110.025 83.615 110.395 83.8611 110.832C84.1072 111.256 84.2917 111.707 84.4148 112.186C84.5515 112.664 84.6199 113.081 84.6199 113.437C84.6199 114.202 84.4353 114.947 84.0661 115.672C83.697 116.383 83.2185 117.019 82.6306 117.579C82.0427 118.126 81.3796 118.57 80.6413 118.912C79.9031 119.254 79.1648 119.425 78.4265 119.425C77.7702 119.425 77.2165 119.315 76.7654 119.097C76.3142 118.864 75.9519 118.563 75.6784 118.194C75.405 117.812 75.1999 117.367 75.0632 116.861C74.9402 116.342 74.8786 115.795 74.8786 115.221ZM76.6218 115.426C76.6218 115.781 76.6491 116.096 76.7038 116.369C76.7722 116.629 76.8816 116.854 77.032 117.046C77.196 117.237 77.4079 117.388 77.6677 117.497C77.9275 117.593 78.2488 117.641 78.6316 117.641C79.1374 117.641 79.6433 117.504 80.1491 117.23C80.655 116.943 81.1062 116.588 81.5027 116.164C81.9128 115.727 82.2409 115.248 82.487 114.729C82.7331 114.209 82.8562 113.703 82.8562 113.211C82.8562 112.992 82.8357 112.753 82.7947 112.493C82.7536 112.233 82.6853 111.994 82.5896 111.775C82.4939 111.557 82.3572 111.372 82.1794 111.222C82.0017 111.071 81.7761 110.996 81.5027 110.996C81.2566 110.996 80.9626 111.078 80.6208 111.242C80.2927 111.406 79.9441 111.618 79.5749 111.878C79.2195 112.138 78.864 112.432 78.5085 112.76C78.1667 113.088 77.8523 113.416 77.5652 113.744C77.2781 114.072 77.0456 114.387 76.8679 114.688C76.7038 114.988 76.6218 115.234 76.6218 115.426ZM89.3982 118.974C89.1794 119.165 88.947 119.076 88.7009 118.707C88.4685 118.338 88.2292 117.784 87.9831 117.046C87.737 116.294 87.4909 115.398 87.2449 114.359C87.0124 113.32 86.7868 112.22 86.5681 111.058C86.3493 109.896 86.1374 108.72 85.9324 107.53C85.7409 106.327 85.57 105.199 85.4197 104.146C85.4197 103.955 85.4128 103.764 85.3991 103.572C85.3991 103.367 85.4197 103.183 85.4607 103.019C85.5154 102.841 85.6042 102.684 85.7273 102.547C85.864 102.41 86.0691 102.308 86.3425 102.239C86.3699 102.226 86.4245 102.239 86.5066 102.28C86.6023 102.308 86.698 102.349 86.7937 102.403C86.8894 102.444 86.9714 102.492 87.0398 102.547C87.1218 102.602 87.1765 102.649 87.2038 102.69C87.0261 105.247 87.32 107.735 88.0857 110.155C88.1267 110.114 88.2361 109.978 88.4138 109.745C88.5915 109.499 88.8171 109.219 89.0906 108.904C89.364 108.576 89.6716 108.228 90.0134 107.858C90.3689 107.489 90.738 107.147 91.1208 106.833C91.5036 106.519 91.8865 106.259 92.2693 106.054C92.6521 105.835 93.0212 105.726 93.3767 105.726C93.5818 105.726 93.78 105.773 93.9714 105.869C94.1765 105.965 94.279 106.149 94.279 106.423C94.279 106.45 94.2722 106.491 94.2585 106.546C94.2449 106.587 94.238 106.621 94.238 106.648C94.0193 106.84 93.6843 107.134 93.2331 107.53C92.7956 107.927 92.3308 108.371 91.8386 108.863C91.3464 109.355 90.8747 109.868 90.4236 110.401C89.9724 110.935 89.6306 111.44 89.3982 111.919C89.3572 112.001 89.3435 112.076 89.3572 112.145C89.3708 112.199 89.3845 112.268 89.3982 112.35C89.5486 112.404 89.7878 112.486 90.1159 112.596C90.4441 112.705 90.8064 112.835 91.2029 112.985C91.5993 113.122 92.0232 113.272 92.4743 113.437C92.9255 113.587 93.3493 113.737 93.7458 113.888C94.1423 114.038 94.4978 114.175 94.8122 114.298C95.1404 114.407 95.3865 114.489 95.5505 114.544C95.7419 114.626 95.8991 114.681 96.0222 114.708C96.1452 114.735 96.2409 114.776 96.3093 114.831C96.3777 114.872 96.4255 114.934 96.4529 115.016C96.4802 115.098 96.4939 115.221 96.4939 115.385C96.4939 115.781 96.3982 116.041 96.2068 116.164C96.0154 116.287 95.7419 116.349 95.3865 116.349C94.3337 116.28 93.3015 116.062 92.2898 115.692C91.2781 115.31 90.2527 114.852 89.2136 114.318C89.1726 114.578 89.1863 114.879 89.2546 115.221C89.3366 115.562 89.4324 115.904 89.5417 116.246C89.6511 116.588 89.7536 116.923 89.8493 117.251C89.9587 117.579 90.0202 117.873 90.0339 118.133C90.0613 118.393 90.0339 118.598 89.9519 118.748C89.8699 118.898 89.6853 118.974 89.3982 118.974ZM97.2937 113.683C97.2937 112.944 97.3825 112.206 97.5603 111.468C97.738 110.729 98.0183 110.066 98.4011 109.479C98.7976 108.891 99.3034 108.412 99.9187 108.043C100.548 107.674 101.306 107.489 102.195 107.489C102.701 107.489 103.145 107.585 103.528 107.776C103.911 107.954 104.232 108.193 104.492 108.494C104.752 108.795 104.943 109.15 105.066 109.561C105.203 109.957 105.271 110.374 105.271 110.812C105.271 111.509 105.107 112.186 104.779 112.842C104.465 113.498 104.034 114.079 103.487 114.585C102.954 115.077 102.339 115.453 101.641 115.713C100.944 115.959 100.233 116.014 99.5085 115.877C99.5222 116.273 99.6521 116.595 99.8982 116.841C100.158 117.073 100.466 117.251 100.821 117.374C101.176 117.497 101.546 117.579 101.928 117.62C102.311 117.647 102.653 117.661 102.954 117.661C103.268 117.661 103.562 117.634 103.836 117.579C104.109 117.524 104.383 117.463 104.656 117.395C104.929 117.326 105.203 117.265 105.476 117.21C105.763 117.155 106.064 117.128 106.379 117.128C106.502 117.128 106.625 117.135 106.748 117.148C106.871 117.162 106.987 117.196 107.096 117.251C107.206 117.292 107.295 117.367 107.363 117.477C107.431 117.572 107.466 117.695 107.466 117.846C107.466 118.105 107.37 118.324 107.178 118.502C106.987 118.666 106.741 118.81 106.44 118.933C106.153 119.056 105.832 119.151 105.476 119.22C105.121 119.274 104.772 119.322 104.43 119.363C104.102 119.391 103.795 119.404 103.508 119.404C103.234 119.418 103.029 119.425 102.892 119.425C102.017 119.425 101.231 119.288 100.534 119.015C99.8366 118.728 99.2488 118.338 98.7702 117.846C98.2917 117.34 97.9226 116.738 97.6628 116.041C97.4167 115.33 97.2937 114.544 97.2937 113.683ZM99.4675 112.35C99.4675 112.828 99.529 113.177 99.6521 113.396C99.7888 113.614 100.11 113.724 100.616 113.724C100.971 113.724 101.32 113.662 101.662 113.539C102.004 113.402 102.311 113.218 102.585 112.985C102.872 112.753 103.097 112.479 103.261 112.165C103.426 111.851 103.508 111.509 103.508 111.14C103.508 110.935 103.487 110.723 103.446 110.504C103.419 110.285 103.35 110.087 103.241 109.909C103.132 109.718 102.988 109.567 102.81 109.458C102.646 109.335 102.427 109.273 102.154 109.273C101.744 109.273 101.368 109.369 101.026 109.561C100.698 109.738 100.418 109.978 100.185 110.278C99.9529 110.565 99.7751 110.894 99.6521 111.263C99.529 111.618 99.4675 111.98 99.4675 112.35ZM108.737 110.771C108.737 110.647 108.744 110.524 108.758 110.401C108.771 110.265 108.799 110.148 108.84 110.053C108.881 109.943 108.942 109.854 109.024 109.786C109.12 109.718 109.25 109.684 109.414 109.684C109.551 109.684 109.701 109.793 109.865 110.012C110.043 110.217 110.22 110.483 110.398 110.812C110.576 111.126 110.747 111.475 110.911 111.857C111.089 112.24 111.239 112.596 111.362 112.924C111.499 113.238 111.608 113.512 111.69 113.744C111.772 113.977 111.82 114.1 111.834 114.113C112.011 113.635 112.21 113.115 112.428 112.555C112.647 111.994 112.914 111.475 113.228 110.996C113.556 110.504 113.939 110.094 114.377 109.766C114.828 109.438 115.375 109.273 116.017 109.273C116.345 109.273 116.653 109.328 116.94 109.438C117.241 109.533 117.501 109.684 117.719 109.889C117.952 110.08 118.136 110.312 118.273 110.586C118.41 110.859 118.478 111.174 118.478 111.529C118.478 111.83 118.355 112.042 118.109 112.165C117.877 112.288 117.61 112.35 117.309 112.35H117.104L116.222 111.468C116.195 111.468 116.175 111.461 116.161 111.447C116.134 111.447 116.106 111.447 116.079 111.447C116.065 111.434 116.045 111.427 116.017 111.427C115.539 111.427 115.163 111.563 114.889 111.837C114.63 112.097 114.431 112.425 114.295 112.821C114.158 113.204 114.069 113.614 114.028 114.052C114.001 114.476 113.987 114.865 113.987 115.221C113.987 115.494 114.014 115.774 114.069 116.062C114.124 116.335 114.185 116.608 114.254 116.882C114.322 117.142 114.384 117.415 114.438 117.702C114.493 117.976 114.52 118.263 114.52 118.563C114.52 119.138 114.213 119.425 113.597 119.425C113.256 119.425 112.9 119.247 112.531 118.892C112.162 118.522 111.793 118.058 111.424 117.497C111.068 116.937 110.726 116.321 110.398 115.651C110.07 114.968 109.783 114.305 109.537 113.662C109.291 113.02 109.093 112.438 108.942 111.919C108.805 111.399 108.737 111.017 108.737 110.771ZM54.6682 141.473C54.6682 141.117 54.7571 140.864 54.9348 140.714C55.1125 140.55 55.3996 140.468 55.7961 140.468H56.0012C56.0422 140.687 56.0901 140.939 56.1448 141.227C56.1994 141.514 56.2815 141.808 56.3908 142.108C56.5002 142.409 56.6301 142.689 56.7805 142.949C56.9309 143.195 57.1155 143.394 57.3342 143.544C57.3479 143.065 57.4641 142.607 57.6828 142.17C57.9153 141.719 58.1955 141.322 58.5237 140.98C58.8655 140.625 59.2346 140.331 59.6311 140.099C60.0412 139.853 60.4446 139.688 60.841 139.606H61.2922C61.9485 139.606 62.509 139.757 62.9739 140.058C63.4387 140.345 63.8215 140.728 64.1223 141.206C64.4367 141.671 64.676 142.204 64.8401 142.806C65.0041 143.407 65.1272 144.022 65.2092 144.651C65.3049 145.267 65.3596 145.868 65.3733 146.456C65.4006 147.03 65.4143 147.522 65.4143 147.933H63.9172C63.8352 147.112 63.7326 146.326 63.6096 145.574C63.5686 145.273 63.5139 144.959 63.4455 144.631C63.3772 144.289 63.302 143.975 63.2199 143.688C63.1379 143.387 63.049 143.113 62.9533 142.867C62.8576 142.607 62.7483 142.389 62.6252 142.211C62.5705 142.156 62.4953 142.081 62.3996 141.985C62.3176 141.89 62.2287 141.794 62.133 141.698C62.0373 141.603 61.9485 141.521 61.8664 141.452C61.7844 141.384 61.7365 141.35 61.7229 141.35C61.3127 141.24 60.9573 141.322 60.6565 141.596C60.3557 141.855 60.0891 142.211 59.8567 142.662C59.6242 143.113 59.4328 143.626 59.2824 144.2C59.1457 144.774 59.0295 145.328 58.9338 145.861C58.8381 146.381 58.7698 146.839 58.7287 147.235C58.6877 147.618 58.6604 147.851 58.6467 147.933C58.3049 148.179 57.9836 148.254 57.6828 148.158C57.3821 148.049 57.0949 147.83 56.8215 147.502C56.5617 147.174 56.3225 146.764 56.1037 146.271C55.8987 145.779 55.7073 145.26 55.5295 144.713C55.3518 144.152 55.1877 143.592 55.0373 143.031C54.9006 142.471 54.7776 141.951 54.6682 141.473ZM66.5422 140.017C66.5422 139.935 66.5422 139.791 66.5422 139.586C66.5559 139.367 66.5627 139.142 66.5627 138.909C66.5627 138.677 66.5627 138.465 66.5627 138.273C66.5764 138.068 66.5832 137.925 66.5832 137.843C66.6789 137.679 66.7883 137.521 66.9114 137.371C67.0481 137.207 67.1848 137.098 67.3215 137.043C67.4719 136.975 67.6291 136.961 67.7932 137.002C67.9709 137.043 68.1487 137.18 68.3264 137.412V137.576V137.843C68.3127 137.911 68.2854 138.075 68.2444 138.335C68.2033 138.581 68.1555 138.854 68.1008 139.155C68.0461 139.456 67.9914 139.736 67.9367 139.996C67.8957 140.242 67.8752 140.399 67.8752 140.468C67.8752 140.728 67.9026 141.056 67.9573 141.452C68.0119 141.835 68.0871 142.238 68.1828 142.662C68.2922 143.086 68.4221 143.51 68.5725 143.934C68.7365 144.357 68.928 144.74 69.1467 145.082C69.3655 145.41 69.6047 145.684 69.8645 145.902C70.1379 146.121 70.4524 146.23 70.8078 146.23C71.2453 146.23 71.6282 146.114 71.9563 145.882C72.2981 145.649 72.592 145.349 72.8381 144.979C73.0842 144.61 73.2824 144.193 73.4328 143.729C73.5969 143.264 73.7268 142.799 73.8225 142.334C73.9182 141.855 73.9865 141.397 74.0276 140.96C74.0686 140.522 74.0891 140.14 74.0891 139.812C74.0891 139.483 74.0617 139.176 74.0071 138.889C73.966 138.588 73.9114 138.294 73.843 138.007C73.7746 137.72 73.7131 137.439 73.6584 137.166C73.6174 136.879 73.5969 136.592 73.5969 136.305C73.5969 136.045 73.6858 135.86 73.8635 135.751C74.0549 135.642 74.2668 135.587 74.4992 135.587C74.7864 135.587 75.0188 135.676 75.1965 135.854C75.3742 136.018 75.511 136.229 75.6067 136.489C75.716 136.749 75.7844 137.05 75.8117 137.392C75.8528 137.72 75.8733 138.048 75.8733 138.376C75.8733 138.704 75.8664 139.019 75.8528 139.319C75.8391 139.606 75.8323 139.839 75.8323 140.017C75.8323 140.481 75.7981 141.008 75.7297 141.596C75.6614 142.184 75.5383 142.792 75.3606 143.421C75.1965 144.036 74.9846 144.645 74.7248 145.246C74.4787 145.848 74.1711 146.388 73.802 146.866C73.4465 147.331 73.0295 147.707 72.551 147.994C72.0862 148.281 71.5598 148.425 70.9719 148.425C70.3567 148.425 69.8166 148.281 69.3518 147.994C68.8869 147.693 68.4905 147.304 68.1623 146.825C67.8479 146.333 67.5813 145.779 67.3625 145.164C67.1438 144.549 66.9729 143.934 66.8498 143.318C66.7405 142.703 66.6584 142.108 66.6037 141.534C66.5627 140.946 66.5422 140.44 66.5422 140.017ZM76.6321 139.771C76.6321 139.429 76.6867 139.162 76.7961 138.971C76.9192 138.779 77.1721 138.684 77.5549 138.684C77.5959 138.684 77.6711 138.69 77.7805 138.704C77.9035 138.704 77.9787 138.704 78.0061 138.704C78.1018 139.128 78.1975 139.593 78.2932 140.099C78.4026 140.591 78.5256 141.09 78.6623 141.596C78.799 142.102 78.9494 142.601 79.1135 143.093C79.2912 143.585 79.5032 144.029 79.7492 144.426C79.9953 144.166 80.1731 143.858 80.2824 143.503C80.3918 143.147 80.4739 142.792 80.5285 142.437C80.5832 142.067 80.6311 141.719 80.6721 141.391C80.7268 141.049 80.8293 140.762 80.9797 140.529C81.1301 140.283 81.3489 140.105 81.636 139.996C81.9367 139.887 82.3469 139.887 82.8664 139.996C83.4407 139.996 83.8987 140.105 84.2405 140.324C84.5823 140.529 84.8762 140.796 85.1223 141.124C85.3821 141.438 85.6282 141.78 85.8606 142.149C86.1067 142.505 86.4143 142.826 86.7834 143.113C86.8655 142.936 86.968 142.717 87.091 142.457C87.2141 142.184 87.3645 141.903 87.5422 141.616C87.7336 141.315 87.9319 141.021 88.1369 140.734C88.3557 140.434 88.5813 140.167 88.8137 139.935C89.0461 139.688 89.2854 139.49 89.5315 139.34C89.7776 139.176 90.0168 139.094 90.2492 139.094C90.8098 139.094 91.2951 139.271 91.7053 139.627C92.1155 139.969 92.4641 140.406 92.7512 140.939C93.052 141.459 93.2981 142.047 93.4895 142.703C93.6809 143.346 93.8313 143.968 93.9407 144.569C94.05 145.171 94.1252 145.725 94.1662 146.23C94.2209 146.723 94.2483 147.078 94.2483 147.297C94.2483 147.475 94.2073 147.611 94.1252 147.707C94.0432 147.803 93.9407 147.878 93.8176 147.933C93.6946 147.974 93.5578 148.001 93.4074 148.015C93.2707 148.028 93.1408 148.035 93.0178 148.035C92.9905 148.035 92.9494 148.035 92.8948 148.035C92.8401 148.021 92.7785 148.008 92.7102 147.994C92.6555 147.98 92.5803 147.96 92.4846 147.933L91.1516 141.801C91.1516 141.76 91.0969 141.685 90.9875 141.575C90.8782 141.452 90.7961 141.377 90.7414 141.35C90.7004 141.35 90.6662 141.343 90.6389 141.329C90.6115 141.329 90.591 141.329 90.5774 141.329C90.5637 141.315 90.55 141.309 90.5364 141.309C90.2492 141.309 89.9758 141.425 89.716 141.657C89.4699 141.89 89.2375 142.184 89.0188 142.539C88.8 142.895 88.5949 143.291 88.4035 143.729C88.2121 144.166 88.0412 144.604 87.8908 145.041C87.7405 145.465 87.6037 145.861 87.4807 146.23C87.3713 146.586 87.2824 146.859 87.2141 147.051C87.1594 147.078 87.05 147.105 86.886 147.133C86.7219 147.146 86.6125 147.153 86.5578 147.153C86.175 147.153 85.8811 147.023 85.676 146.764C85.4709 146.49 85.3 146.155 85.1633 145.759C85.0403 145.362 84.9309 144.932 84.8352 144.467C84.7532 143.988 84.6438 143.551 84.5071 143.154C84.384 142.758 84.2063 142.43 83.9739 142.17C83.7551 141.896 83.4407 141.76 83.0305 141.76C82.8801 141.76 82.7365 141.91 82.5998 142.211C82.4631 142.512 82.3401 142.895 82.2307 143.359C82.1213 143.811 82.0188 144.303 81.9231 144.836C81.8274 145.355 81.7453 145.848 81.677 146.312C81.6223 146.764 81.5813 147.146 81.5539 147.461C81.5266 147.775 81.5129 147.933 81.5129 147.933C81.4856 147.974 81.4309 148.021 81.3489 148.076C81.2668 148.117 81.178 148.165 81.0823 148.22C81.0002 148.274 80.9114 148.315 80.8157 148.343C80.7336 148.37 80.6721 148.384 80.6311 148.384C80.2483 148.384 79.8791 148.213 79.5237 147.871C79.1682 147.516 78.8401 147.064 78.5393 146.518C78.2522 145.957 77.9856 145.342 77.7395 144.672C77.5071 144.002 77.3088 143.346 77.1448 142.703C76.9807 142.061 76.8508 141.479 76.7551 140.96C76.6731 140.44 76.6321 140.044 76.6321 139.771ZM98.1858 147.502C97.7619 146.271 97.3586 145.123 96.9758 144.057C96.6067 142.977 96.2785 141.924 95.9914 140.898C95.718 139.859 95.4992 138.807 95.3352 137.74C95.1711 136.674 95.0891 135.532 95.0891 134.315C95.0891 134.22 95.0891 134.049 95.0891 133.803C95.1028 133.543 95.1096 133.276 95.1096 133.003C95.1096 132.729 95.1096 132.47 95.1096 132.224C95.1233 131.964 95.1301 131.786 95.1301 131.69C95.2532 131.417 95.4651 131.164 95.7658 130.932C96.0803 130.699 96.3948 130.583 96.7092 130.583C96.7092 131.595 96.7229 132.675 96.7502 133.823C96.7776 134.958 96.8596 136.093 96.9963 137.228C97.1467 138.362 97.3791 139.477 97.6936 140.57C98.0217 141.65 98.4797 142.642 99.0676 143.544C99.0813 143.216 99.0949 142.854 99.1086 142.457C99.1223 142.061 99.1565 141.664 99.2112 141.268C99.2795 140.871 99.3821 140.488 99.5188 140.119C99.6555 139.75 99.8537 139.422 100.114 139.135C100.387 138.848 100.736 138.622 101.159 138.458C101.597 138.294 102.144 138.219 102.8 138.232C103.388 138.232 103.914 138.342 104.379 138.561C104.858 138.779 105.254 139.08 105.569 139.463C105.897 139.832 106.143 140.27 106.307 140.775C106.485 141.268 106.573 141.794 106.573 142.354C106.573 143.106 106.389 143.845 106.02 144.569C105.651 145.294 105.158 145.943 104.543 146.518C103.942 147.092 103.265 147.557 102.513 147.912C101.761 148.254 100.995 148.425 100.216 148.425C99.8196 148.425 99.4367 148.356 99.0676 148.22C98.6985 148.069 98.4045 147.83 98.1858 147.502ZM103.046 140.017C102.773 140.167 102.486 140.345 102.185 140.55C101.884 140.755 101.604 141.076 101.344 141.514C101.098 141.938 100.886 142.519 100.708 143.257C100.53 143.995 100.421 144.973 100.38 146.189C100.407 146.189 100.476 146.196 100.585 146.21C100.708 146.224 100.79 146.23 100.831 146.23C101.2 146.23 101.617 146.114 102.082 145.882C102.561 145.649 103.019 145.362 103.456 145.021C103.907 144.679 104.297 144.303 104.625 143.893C104.953 143.469 105.152 143.065 105.22 142.683C105.261 142.45 105.213 142.184 105.076 141.883C104.94 141.582 104.755 141.295 104.523 141.021C104.304 140.734 104.058 140.495 103.784 140.304C103.525 140.112 103.279 140.017 103.046 140.017ZM107.824 142.683C107.824 141.944 107.913 141.206 108.091 140.468C108.269 139.729 108.549 139.066 108.932 138.479C109.328 137.891 109.834 137.412 110.449 137.043C111.078 136.674 111.837 136.489 112.726 136.489C113.232 136.489 113.676 136.585 114.059 136.776C114.442 136.954 114.763 137.193 115.023 137.494C115.282 137.795 115.474 138.15 115.597 138.561C115.734 138.957 115.802 139.374 115.802 139.812C115.802 140.509 115.638 141.186 115.31 141.842C114.995 142.498 114.565 143.079 114.018 143.585C113.485 144.077 112.869 144.453 112.172 144.713C111.475 144.959 110.764 145.014 110.039 144.877C110.053 145.273 110.183 145.595 110.429 145.841C110.689 146.073 110.996 146.251 111.352 146.374C111.707 146.497 112.076 146.579 112.459 146.62C112.842 146.647 113.184 146.661 113.485 146.661C113.799 146.661 114.093 146.634 114.366 146.579C114.64 146.524 114.913 146.463 115.187 146.395C115.46 146.326 115.734 146.265 116.007 146.21C116.294 146.155 116.595 146.128 116.909 146.128C117.032 146.128 117.155 146.135 117.279 146.148C117.402 146.162 117.518 146.196 117.627 146.251C117.737 146.292 117.825 146.367 117.894 146.477C117.962 146.572 117.996 146.695 117.996 146.846C117.996 147.105 117.901 147.324 117.709 147.502C117.518 147.666 117.272 147.81 116.971 147.933C116.684 148.056 116.363 148.151 116.007 148.22C115.652 148.274 115.303 148.322 114.961 148.363C114.633 148.391 114.325 148.404 114.038 148.404C113.765 148.418 113.56 148.425 113.423 148.425C112.548 148.425 111.762 148.288 111.065 148.015C110.367 147.728 109.78 147.338 109.301 146.846C108.822 146.34 108.453 145.738 108.194 145.041C107.947 144.33 107.824 143.544 107.824 142.683ZM109.998 141.35C109.998 141.828 110.06 142.177 110.183 142.396C110.32 142.614 110.641 142.724 111.147 142.724C111.502 142.724 111.851 142.662 112.193 142.539C112.534 142.402 112.842 142.218 113.115 141.985C113.403 141.753 113.628 141.479 113.792 141.165C113.956 140.851 114.038 140.509 114.038 140.14C114.038 139.935 114.018 139.723 113.977 139.504C113.949 139.285 113.881 139.087 113.772 138.909C113.662 138.718 113.519 138.567 113.341 138.458C113.177 138.335 112.958 138.273 112.685 138.273C112.275 138.273 111.899 138.369 111.557 138.561C111.229 138.738 110.948 138.978 110.716 139.278C110.484 139.565 110.306 139.894 110.183 140.263C110.06 140.618 109.998 140.98 109.998 141.35ZM119.268 139.771C119.268 139.647 119.275 139.524 119.288 139.401C119.302 139.265 119.329 139.148 119.37 139.053C119.411 138.943 119.473 138.854 119.555 138.786C119.651 138.718 119.78 138.684 119.945 138.684C120.081 138.684 120.232 138.793 120.396 139.012C120.573 139.217 120.751 139.483 120.929 139.812C121.107 140.126 121.278 140.475 121.442 140.857C121.619 141.24 121.77 141.596 121.893 141.924C122.03 142.238 122.139 142.512 122.221 142.744C122.303 142.977 122.351 143.1 122.364 143.113C122.542 142.635 122.74 142.115 122.959 141.555C123.178 140.994 123.445 140.475 123.759 139.996C124.087 139.504 124.47 139.094 124.907 138.766C125.359 138.438 125.905 138.273 126.548 138.273C126.876 138.273 127.184 138.328 127.471 138.438C127.772 138.533 128.031 138.684 128.25 138.889C128.483 139.08 128.667 139.312 128.804 139.586C128.941 139.859 129.009 140.174 129.009 140.529C129.009 140.83 128.886 141.042 128.64 141.165C128.407 141.288 128.141 141.35 127.84 141.35H127.635L126.753 140.468C126.726 140.468 126.705 140.461 126.692 140.447C126.664 140.447 126.637 140.447 126.61 140.447C126.596 140.434 126.575 140.427 126.548 140.427C126.07 140.427 125.694 140.563 125.42 140.837C125.16 141.097 124.962 141.425 124.825 141.821C124.689 142.204 124.6 142.614 124.559 143.052C124.531 143.476 124.518 143.865 124.518 144.221C124.518 144.494 124.545 144.774 124.6 145.062C124.655 145.335 124.716 145.608 124.784 145.882C124.853 146.142 124.914 146.415 124.969 146.702C125.024 146.976 125.051 147.263 125.051 147.563C125.051 148.138 124.743 148.425 124.128 148.425C123.786 148.425 123.431 148.247 123.062 147.892C122.693 147.522 122.323 147.058 121.954 146.497C121.599 145.937 121.257 145.321 120.929 144.651C120.601 143.968 120.314 143.305 120.068 142.662C119.822 142.02 119.623 141.438 119.473 140.919C119.336 140.399 119.268 140.017 119.268 139.771ZM51.0075 172.221C51.0075 171.373 51.2058 170.587 51.6023 169.862C51.9988 169.124 52.5183 168.495 53.1609 167.976C53.8171 167.442 54.5486 167.025 55.3552 166.725C56.1755 166.424 57.0027 166.273 57.8366 166.273C58.3015 166.273 58.7116 166.424 59.0671 166.725C59.4363 167.025 59.7439 167.395 59.99 167.832C60.2361 168.256 60.4206 168.707 60.5437 169.186C60.6804 169.664 60.7488 170.081 60.7488 170.437C60.7488 171.202 60.5642 171.947 60.195 172.672C59.8259 173.383 59.3474 174.019 58.7595 174.579C58.1716 175.126 57.5085 175.57 56.7702 175.912C56.032 176.254 55.2937 176.425 54.5554 176.425C53.8991 176.425 53.3454 176.315 52.8943 176.097C52.4431 175.864 52.0808 175.563 51.8074 175.194C51.5339 174.812 51.3288 174.367 51.1921 173.861C51.0691 173.342 51.0075 172.795 51.0075 172.221ZM52.7507 172.426C52.7507 172.781 52.7781 173.096 52.8327 173.369C52.9011 173.629 53.0105 173.854 53.1609 174.046C53.3249 174.237 53.5368 174.388 53.7966 174.497C54.0564 174.593 54.3777 174.641 54.7605 174.641C55.2663 174.641 55.7722 174.504 56.2781 174.23C56.7839 173.943 57.2351 173.588 57.6316 173.164C58.0417 172.727 58.3699 172.248 58.6159 171.729C58.862 171.209 58.9851 170.703 58.9851 170.211C58.9851 169.992 58.9646 169.753 58.9236 169.493C58.8825 169.233 58.8142 168.994 58.7185 168.775C58.6228 168.557 58.4861 168.372 58.3083 168.222C58.1306 168.071 57.905 167.996 57.6316 167.996C57.3855 167.996 57.0915 168.078 56.7497 168.242C56.4216 168.406 56.073 168.618 55.7038 168.878C55.3484 169.138 54.9929 169.432 54.6374 169.76C54.2956 170.088 53.9812 170.416 53.6941 170.744C53.407 171.072 53.1745 171.387 52.9968 171.688C52.8327 171.988 52.7507 172.234 52.7507 172.426ZM61.5486 169.473C61.5486 169.117 61.6374 168.864 61.8152 168.714C61.9929 168.55 62.28 168.468 62.6765 168.468H62.8816C62.9226 168.687 62.9704 168.939 63.0251 169.227C63.0798 169.514 63.1618 169.808 63.2712 170.108C63.3806 170.409 63.5105 170.689 63.6609 170.949C63.8113 171.195 63.9958 171.394 64.2146 171.544C64.2282 171.065 64.3445 170.607 64.5632 170.17C64.7956 169.719 65.0759 169.322 65.404 168.98C65.7458 168.625 66.115 168.331 66.5115 168.099C66.9216 167.853 67.3249 167.688 67.7214 167.606H68.1726C68.8288 167.606 69.3894 167.757 69.8542 168.058C70.3191 168.345 70.7019 168.728 71.0027 169.206C71.3171 169.671 71.5564 170.204 71.7204 170.806C71.8845 171.407 72.0075 172.022 72.0896 172.651C72.1853 173.267 72.24 173.868 72.2536 174.456C72.281 175.03 72.2947 175.522 72.2947 175.933H70.7976C70.7156 175.112 70.613 174.326 70.49 173.574C70.449 173.273 70.3943 172.959 70.3259 172.631C70.2575 172.289 70.1824 171.975 70.1003 171.688C70.0183 171.387 69.9294 171.113 69.8337 170.867C69.738 170.607 69.6286 170.389 69.5056 170.211C69.4509 170.156 69.3757 170.081 69.28 169.985C69.198 169.89 69.1091 169.794 69.0134 169.698C68.9177 169.603 68.8288 169.521 68.7468 169.452C68.6648 169.384 68.6169 169.35 68.6032 169.35C68.1931 169.24 67.8376 169.322 67.5368 169.596C67.2361 169.855 66.9695 170.211 66.737 170.662C66.5046 171.113 66.3132 171.626 66.1628 172.2C66.0261 172.774 65.9099 173.328 65.8142 173.861C65.7185 174.381 65.6501 174.839 65.6091 175.235C65.5681 175.618 65.5407 175.851 65.5271 175.933C65.1853 176.179 64.864 176.254 64.5632 176.158C64.2624 176.049 63.9753 175.83 63.7019 175.502C63.4421 175.174 63.2029 174.764 62.9841 174.271C62.779 173.779 62.5876 173.26 62.4099 172.713C62.2322 172.152 62.0681 171.592 61.9177 171.031C61.781 170.471 61.6579 169.951 61.5486 169.473ZM73.4226 170.683C73.4226 169.944 73.5115 169.206 73.6892 168.468C73.8669 167.729 74.1472 167.066 74.53 166.479C74.9265 165.891 75.4324 165.412 76.0476 165.043C76.6765 164.674 77.4353 164.489 78.324 164.489C78.8298 164.489 79.2741 164.585 79.657 164.776C80.0398 164.954 80.3611 165.193 80.6208 165.494C80.8806 165.795 81.072 166.15 81.195 166.561C81.3318 166.957 81.4001 167.374 81.4001 167.812C81.4001 168.509 81.2361 169.186 80.9079 169.842C80.5935 170.498 80.1628 171.079 79.6159 171.585C79.0827 172.077 78.4675 172.453 77.7702 172.713C77.073 172.959 76.362 173.014 75.6374 172.877C75.6511 173.273 75.781 173.595 76.0271 173.841C76.2868 174.073 76.5945 174.251 76.9499 174.374C77.3054 174.497 77.6745 174.579 78.0574 174.62C78.4402 174.647 78.782 174.661 79.0827 174.661C79.3972 174.661 79.6911 174.634 79.9646 174.579C80.238 174.524 80.5115 174.463 80.7849 174.395C81.0583 174.326 81.3318 174.265 81.6052 174.21C81.8923 174.155 82.1931 174.128 82.5075 174.128C82.6306 174.128 82.7536 174.135 82.8767 174.148C82.9997 174.162 83.1159 174.196 83.2253 174.251C83.3347 174.292 83.4236 174.367 83.4919 174.477C83.5603 174.572 83.5945 174.695 83.5945 174.846C83.5945 175.105 83.4988 175.324 83.3074 175.502C83.1159 175.666 82.8699 175.81 82.5691 175.933C82.282 176.056 81.9607 176.151 81.6052 176.22C81.2497 176.274 80.9011 176.322 80.5593 176.363C80.2312 176.391 79.9236 176.404 79.6365 176.404C79.363 176.418 79.1579 176.425 79.0212 176.425C78.1462 176.425 77.3601 176.288 76.6628 176.015C75.9656 175.728 75.3777 175.338 74.8991 174.846C74.4206 174.34 74.0515 173.738 73.7917 173.041C73.5456 172.33 73.4226 171.544 73.4226 170.683ZM75.5964 169.35C75.5964 169.828 75.6579 170.177 75.781 170.396C75.9177 170.614 76.239 170.724 76.7449 170.724C77.1003 170.724 77.449 170.662 77.7907 170.539C78.1325 170.402 78.4402 170.218 78.7136 169.985C79.0007 169.753 79.2263 169.479 79.3904 169.165C79.5544 168.851 79.6365 168.509 79.6365 168.14C79.6365 167.935 79.6159 167.723 79.5749 167.504C79.5476 167.285 79.4792 167.087 79.3699 166.909C79.2605 166.718 79.1169 166.567 78.9392 166.458C78.7751 166.335 78.5564 166.273 78.2829 166.273C77.8728 166.273 77.4968 166.369 77.155 166.561C76.8269 166.738 76.5466 166.978 76.3142 167.278C76.0818 167.565 75.904 167.894 75.781 168.263C75.6579 168.618 75.5964 168.98 75.5964 169.35ZM102.667 178.291C102.38 177.758 102.058 177.095 101.703 176.302C101.361 175.495 101.006 174.661 100.636 173.8C100.267 172.925 99.8777 172.07 99.4675 171.236C99.071 170.402 98.6677 169.678 98.2575 169.062C98.0935 168.939 97.8679 168.864 97.5808 168.837C97.2937 168.81 96.9929 168.803 96.6784 168.816C96.364 168.816 96.0495 168.81 95.7351 168.796C95.4343 168.769 95.1677 168.693 94.9353 168.57C94.7165 168.447 94.5525 168.256 94.4431 167.996C94.3337 167.736 94.3132 167.36 94.3816 166.868H97.8269C97.8952 166.103 98.0115 165.344 98.1755 164.592C98.3396 163.84 98.5583 163.122 98.8318 162.438C99.1189 161.755 99.4607 161.119 99.8572 160.531C100.254 159.943 100.732 159.438 101.293 159.014C101.853 158.59 102.496 158.255 103.22 158.009C103.959 157.763 104.793 157.64 105.722 157.64C106.051 157.64 106.379 157.722 106.707 157.886C107.035 158.036 107.329 158.241 107.589 158.501C107.848 158.761 108.053 159.055 108.204 159.383C108.368 159.711 108.45 160.039 108.45 160.367C108.19 160.367 107.958 160.319 107.753 160.224C107.548 160.114 107.349 159.998 107.158 159.875C106.967 159.738 106.761 159.615 106.543 159.506C106.324 159.383 106.078 159.321 105.804 159.321C104.984 159.321 104.218 159.485 103.508 159.813C102.81 160.142 102.195 160.579 101.662 161.126C101.142 161.673 100.732 162.309 100.431 163.033C100.131 163.758 99.9802 164.523 99.9802 165.33C99.9802 165.385 99.9802 165.487 99.9802 165.638C99.9939 165.774 100.001 165.925 100.001 166.089C100.001 166.253 100.001 166.41 100.001 166.561C100.014 166.711 100.021 166.813 100.021 166.868C100.527 167.032 101.094 167.155 101.723 167.237C102.352 167.319 102.981 167.374 103.61 167.401C104.253 167.415 104.868 167.408 105.456 167.381C106.057 167.354 106.591 167.319 107.055 167.278C107.096 167.319 107.172 167.395 107.281 167.504C107.39 167.613 107.452 167.695 107.466 167.75C107.466 167.791 107.472 167.818 107.486 167.832C107.513 167.914 107.527 167.955 107.527 167.955C107.527 168.242 107.377 168.468 107.076 168.632C106.775 168.796 106.392 168.919 105.927 169.001C105.463 169.069 104.943 169.117 104.369 169.145C103.808 169.172 103.261 169.199 102.728 169.227C102.209 169.24 101.737 169.268 101.313 169.309C100.903 169.336 100.616 169.397 100.452 169.493C100.63 170.313 100.944 171.106 101.395 171.872C101.86 172.638 102.332 173.403 102.81 174.169C103.289 174.935 103.713 175.707 104.082 176.486C104.451 177.266 104.635 178.065 104.635 178.886C104.581 178.886 104.451 178.886 104.246 178.886C104.054 178.899 103.849 178.893 103.631 178.865C103.412 178.838 103.2 178.776 102.995 178.681C102.803 178.599 102.694 178.469 102.667 178.291ZM117.617 173.738C117.097 174.094 116.646 174.415 116.263 174.702C115.894 174.976 115.532 175.208 115.176 175.399C114.821 175.591 114.438 175.734 114.028 175.83C113.632 175.926 113.139 175.974 112.551 175.974C111.28 175.974 110.337 175.639 109.721 174.969C109.106 174.285 108.799 173.273 108.799 171.934C108.799 171.414 108.867 170.874 109.004 170.313C109.14 169.753 109.339 169.199 109.598 168.652C109.872 168.092 110.193 167.565 110.562 167.073C110.931 166.567 111.348 166.123 111.813 165.74C112.278 165.357 112.77 165.057 113.29 164.838C113.823 164.605 114.384 164.489 114.971 164.489C115.956 164.585 116.728 164.831 117.289 165.228C117.849 165.61 118.273 166.109 118.56 166.725C118.847 167.326 119.046 168.003 119.155 168.755C119.264 169.493 119.346 170.259 119.401 171.052C119.469 171.845 119.551 172.638 119.647 173.431C119.743 174.224 119.941 174.955 120.242 175.625C120.064 176.076 119.893 176.391 119.729 176.568C119.579 176.76 119.408 176.794 119.217 176.671C119.025 176.548 118.8 176.247 118.54 175.769C118.294 175.29 117.986 174.613 117.617 173.738ZM110.542 171.975C110.542 172.754 110.685 173.328 110.972 173.697C111.273 174.053 111.8 174.23 112.551 174.23C113.112 174.23 113.645 174.135 114.151 173.943C114.671 173.738 115.122 173.465 115.505 173.123C115.887 172.768 116.195 172.344 116.427 171.852C116.66 171.359 116.776 170.812 116.776 170.211C116.776 169.965 116.783 169.623 116.797 169.186C116.81 168.734 116.783 168.29 116.715 167.853C116.646 167.415 116.516 167.039 116.325 166.725C116.134 166.396 115.846 166.232 115.464 166.232C114.753 166.232 114.096 166.417 113.495 166.786C112.893 167.142 112.374 167.6 111.936 168.16C111.499 168.721 111.157 169.343 110.911 170.026C110.665 170.696 110.542 171.346 110.542 171.975ZM121.534 169.473C121.534 169.117 121.623 168.864 121.801 168.714C121.978 168.55 122.265 168.468 122.662 168.468H122.867C122.908 168.687 122.956 168.939 123.01 169.227C123.065 169.514 123.147 169.808 123.257 170.108C123.366 170.409 123.496 170.689 123.646 170.949C123.797 171.195 123.981 171.394 124.2 171.544C124.214 171.065 124.33 170.607 124.549 170.17C124.781 169.719 125.061 169.322 125.389 168.98C125.731 168.625 126.1 168.331 126.497 168.099C126.907 167.853 127.31 167.688 127.707 167.606H128.158C128.814 167.606 129.375 167.757 129.84 168.058C130.304 168.345 130.687 168.728 130.988 169.206C131.302 169.671 131.542 170.204 131.706 170.806C131.87 171.407 131.993 172.022 132.075 172.651C132.171 173.267 132.225 173.868 132.239 174.456C132.266 175.03 132.28 175.522 132.28 175.933H130.783C130.701 175.112 130.598 174.326 130.475 173.574C130.434 173.273 130.38 172.959 130.311 172.631C130.243 172.289 130.168 171.975 130.086 171.688C130.004 171.387 129.915 171.113 129.819 170.867C129.723 170.607 129.614 170.389 129.491 170.211C129.436 170.156 129.361 170.081 129.265 169.985C129.183 169.89 129.094 169.794 128.999 169.698C128.903 169.603 128.814 169.521 128.732 169.452C128.65 169.384 128.602 169.35 128.589 169.35C128.178 169.24 127.823 169.322 127.522 169.596C127.221 169.855 126.955 170.211 126.722 170.662C126.49 171.113 126.299 171.626 126.148 172.2C126.011 172.774 125.895 173.328 125.8 173.861C125.704 174.381 125.635 174.839 125.594 175.235C125.553 175.618 125.526 175.851 125.512 175.933C125.171 176.179 124.849 176.254 124.549 176.158C124.248 176.049 123.961 175.83 123.687 175.502C123.427 175.174 123.188 174.764 122.969 174.271C122.764 173.779 122.573 173.26 122.395 172.713C122.218 172.152 122.053 171.592 121.903 171.031C121.766 170.471 121.643 169.951 121.534 169.473Z" fill="black"/>
</g>
<defs>
<clipPath id="clip0_137_6971">
<rect width="177.052" height="496.889" fill="white" transform="translate(4.28516 4.28613)"/>
</clipPath>
</defs>
</svg>
