<svg width="185" height="506" viewBox="0 0 185 506" fill="none" xmlns="http://www.w3.org/2000/svg">
<rect width="185" height="505" transform="translate(0 0.00244141)" fill="white"/>
<g clip-path="url(#clip0_113_15767)">
<rect width="177.052" height="496.889" transform="translate(4.28516 4.28564)" fill="#FFDB89"/>
<path d="M191.31 305.555L201.3 446.566C201.3 446.566 205.887 487.705 110.293 487.705C18.4537 487.705 23.1578 449.123 23.1578 449.123L32.857 330.134L34.3613 304.329C35.147 290.851 35.1469 285.163 49.6271 285.009C55.4192 284.948 56.0876 285.009 60.3202 285.009L168.579 285.163C181.954 285.163 190.379 294.044 191.31 305.555Z" fill="#FFCC5A" stroke="black" stroke-width="5.1807" stroke-miterlimit="10"/>
<path d="M20.9293 284.99H49.2989C48.3659 322.818 33.4759 320.539 33.4759 320.539C33.4759 316.293 32.9948 315.655 29.5949 312.958L22.1059 308.341C21.5014 307.977 21.5339 307.11 22.1514 306.779L32.9948 300.976L34.6525 300.141C36.4272 299.076 36.1412 297.858 35.1011 296.971C35.0881 296.965 35.0816 296.952 35.0686 296.946C30.622 293.247 20.3052 286.565 20.3052 286.565C19.6811 286.004 20.0842 284.99 20.9293 284.99Z" fill="#FFCC5A"/>
<path d="M56.7593 284.99H20.9293C20.0842 284.99 19.6811 286.004 20.3052 286.565C20.3052 286.565 30.622 293.247 35.0686 296.946C35.0816 296.952 35.0881 296.965 35.1011 296.971C36.1412 297.858 36.4272 299.076 34.6525 300.141L32.9948 300.976L22.1515 306.779C21.5339 307.11 21.5014 307.977 22.1059 308.341L29.5949 312.958C32.9948 315.655 33.4759 316.293 33.4759 320.539" stroke="black" stroke-width="5.18169" stroke-miterlimit="10"/>
<path d="M134.967 437.905C122.077 437.905 105.472 447.867 88.9368 442.009C71.4163 435.803 88.937 463.278 113.069 463.278C146.587 463.278 148.821 437.905 134.967 437.905Z" fill="white" stroke="black" stroke-width="4.47203"/>
<path d="M45.0562 352.545L32.2653 363.148V370.217L34.5909 390.245L41.1801 404.383L54.7463 407.917H78.0025L92.7314 400.063L102.034 380.427L104.359 360.792L98.5454 352.545L79.9405 349.01H59.7851L45.0562 352.545Z" fill="#263238" stroke="black" stroke-width="0.739493"/>
<path d="M181.097 352.942L193.888 363.545V370.614L191.562 390.643L184.973 404.78L171.407 408.315H148.151L133.422 400.46L124.119 380.825L121.794 361.189L127.608 352.942L146.213 349.408H166.368L181.097 352.942Z" fill="#263238" stroke="black" stroke-width="0.739493"/>
<path d="M196.301 350.412C189.887 349.197 183.437 347.982 176.95 347.172C161.839 345.258 146.727 344.89 131.689 348.056C119.658 350.596 107.59 350.67 95.4869 348.314C87.0072 346.62 78.455 345.479 69.7941 345.479C63.3437 345.957 56.8571 346.141 50.443 346.988C42.9055 347.982 35.4404 349.492 27.9391 350.78C26.4896 351.038 25.6561 351.774 25.5837 353.358C25.3662 358.88 25.0401 364.403 24.8951 369.962C24.8951 370.919 25.4387 372.318 26.1997 372.76C27.6492 373.68 27.8667 374.969 28.2653 376.368C30.512 383.879 32.5776 391.5 35.223 398.863C37.6147 405.564 43.0504 409.209 49.682 410.313C60.2635 412.044 70.8812 411.823 81.3178 408.988C87.442 407.331 92.4066 404.165 95.7768 398.421C99.2556 392.494 102.155 386.309 104.148 379.755C105.67 374.822 106.974 369.815 108.388 364.844C109.004 362.635 110.743 362.341 112.627 362.304C114.621 362.304 116.614 362.341 117.375 364.771C118.063 366.98 118.752 369.226 119.295 371.471C121.578 380.565 124.658 389.291 129.369 397.427C133.029 403.797 138.32 407.441 145.205 409.209C154.265 411.528 163.433 411.639 172.638 410.865C181.444 410.129 188.256 406.153 191.264 397.354C193.728 390.138 195.649 382.701 197.823 375.411C198.041 374.638 198.62 373.975 199.019 373.239C199.671 372.024 200.831 370.809 200.867 369.594C200.94 364.771 200.795 359.948 200.505 355.162C200.251 351.259 200.106 351.112 196.301 350.412ZM101.901 368.195C101.212 374.785 99.3281 381.044 96.6102 387.045C95.3419 389.806 93.8199 392.457 92.2979 395.108C89.2177 400.446 84.5792 403.502 78.6362 404.901C68.8519 407.147 59.1039 406.889 49.3558 404.827C45.6958 404.054 42.9779 401.919 41.2023 398.569C35.2955 387.413 34.1358 375.595 36.745 363.335C37.361 360.5 39.4991 358.991 41.8545 357.776C47.1453 355.051 52.9072 354.168 58.7052 353.542C62.2928 353.173 65.8804 353.1 69.4679 352.879C69.4317 353.026 69.5042 352.732 69.4679 352.879C74.1208 352.879 83.2022 354.204 89.9787 355.309C92.1167 355.677 94.2548 356.634 96.2479 357.591C100.995 359.911 102.445 362.856 101.901 368.195ZM185.792 396.249C183.509 401.367 179.922 404.607 174.305 405.269C170.536 405.711 166.731 406.153 162.962 406.595C156.512 406.558 150.17 405.969 144.01 403.907C140.495 402.729 137.559 400.741 135.349 397.722C128.753 388.665 124.912 378.467 123.897 367.274C123.426 362.083 125.818 358.843 130.638 356.855C137.813 353.91 145.35 353.173 152.96 352.953C160.715 352.768 168.507 352.916 176.008 354.977C179.487 355.935 182.929 357.371 186.082 359.138C189.162 360.868 189.343 364.403 189.778 367.606C191.119 377.546 189.851 387.082 185.792 396.249Z" fill="black"/>
<path d="M52.6317 59.7964C55.5288 44.6597 57.6447 32.6154 58.9793 23.6636L67.0848 23.0776C65.7827 28.5464 64.7248 33.4618 63.911 37.8237L68.8426 37.2378C69.2983 34.894 69.7052 32.6154 70.0633 30.4019C70.4539 28.1558 70.9422 25.8608 71.5282 23.5171C72.8302 23.2892 74.2137 23.1265 75.6786 23.0288C77.1434 22.8986 78.1525 22.8172 78.7059 22.7847L79.536 22.687C77.9409 27.8953 76.3784 35.2033 74.8485 44.6108C74.0998 48.8426 73.4162 53.172 72.7977 57.5991L64.9852 58.478C65.4084 56.4924 65.7827 54.6206 66.1082 52.8628C66.4663 51.105 66.8081 49.3634 67.1336 47.6382C67.4917 45.9129 67.7847 44.4318 68.0125 43.1948L63.1297 43.6343C62.381 47.7684 61.4533 52.6187 60.3465 58.1851L52.6317 59.7964ZM74.702 59.7476L81.245 24.2007L97.0653 22.8335C96.8374 23.5822 96.6421 24.3146 96.4793 25.0308C96.3166 25.7144 96.1538 26.3979 95.9911 27.0815C95.8283 27.7651 95.6981 28.3674 95.6004 28.8882C94.6239 28.9858 93.2892 29.0347 91.5965 29.0347H88.2274L86.4696 38.019C88.2599 37.9214 89.7573 37.8563 90.9618 37.8237C92.1662 37.7912 92.9474 37.7586 93.3055 37.7261C93.1753 38.6701 93.0451 39.5978 92.9149 40.5093C92.8172 41.3882 92.687 42.2996 92.5243 43.2437C92.1662 43.2762 91.6128 43.3088 90.8641 43.3413C90.1154 43.3413 89.3341 43.3576 88.5203 43.3901C87.7065 43.4227 86.7951 43.4552 85.786 43.4878L84.077 52.7163L91.3524 51.5444L90.8641 57.2573L74.702 59.7476ZM106.587 58.9175C104.08 50.0633 102.778 45.034 102.681 43.8296L102.046 44.0249C100.972 50.0145 100.174 54.5555 99.6532 57.6479L91.5477 59.7476C94.9331 43.3739 97.0002 31.7528 97.7489 24.8843C101.525 23.7124 105.757 23.1265 110.444 23.1265C113.96 23.1265 116.043 24.3472 116.694 26.7886C116.889 27.5373 116.987 28.465 116.987 29.5718C116.987 30.6785 116.759 31.883 116.304 33.1851C115.848 34.4546 115.229 35.6753 114.448 36.8472C112.82 39.2235 110.819 41.0464 108.442 42.3159C109.712 45.0503 110.835 47.6382 111.811 50.0796C112.82 52.4884 113.667 54.5229 114.35 56.1831L106.587 58.9175ZM107.075 30.0601L104.927 30.1089L103.315 38.0679C104.617 37.9377 106.261 37.1076 108.247 35.5776C110.298 34.0151 111.323 32.7293 111.323 31.7202C111.323 30.7762 110.428 30.2391 108.638 30.1089C108.117 30.0763 107.596 30.0601 107.075 30.0601ZM133.393 36.8472C133.393 34.1453 132.612 32.7944 131.05 32.7944C129.064 32.7944 127.274 33.771 125.679 35.7241C124.409 37.2866 123.319 39.4188 122.407 42.1206C121.691 44.3341 121.333 46.4175 121.333 48.3706C121.333 49.6727 121.886 50.6493 122.993 51.3003C123.319 51.5282 123.693 51.6421 124.116 51.6421C125.613 51.6421 126.932 51.1375 128.071 50.1284C129.243 49.0868 130.22 47.8172 131.001 46.3198C131.782 44.8224 132.368 43.2274 132.759 41.5347C133.182 39.8094 133.393 38.2469 133.393 36.8472ZM140.327 33.771C140.327 35.7567 140.034 37.9539 139.448 40.3628C138.895 42.7716 138.13 44.9852 137.153 47.0034C136.177 49.0216 135.037 50.8283 133.735 52.4233C132.466 54.0184 131.131 55.3693 129.731 56.4761C126.834 58.7547 124.051 59.894 121.382 59.894C119.136 59.894 117.361 59.0802 116.059 57.4526C114.627 55.6623 113.911 53.0581 113.911 49.6401C113.911 45.9292 114.774 41.9253 116.499 37.6284C118.224 33.3315 120.486 29.7508 123.286 26.8862C126.313 23.8263 129.487 22.2964 132.807 22.2964C135.542 22.2964 137.544 23.4032 138.813 25.6167C139.822 27.4071 140.327 30.1252 140.327 33.771Z" fill="white"/>
<path d="M52.6317 59.7964L50.5281 59.3938L49.924 62.5499L53.0696 61.8929L52.6317 59.7964ZM58.9793 23.6636L58.8249 21.5274L57.1139 21.6511L56.861 23.3477L58.9793 23.6636ZM67.0848 23.0776L69.1683 23.5737L69.8452 20.7307L66.9304 20.9414L67.0848 23.0776ZM63.911 37.8237L61.8055 37.4309L61.2714 40.2942L64.1637 39.9505L63.911 37.8237ZM68.8426 37.2378L69.0953 39.3646L70.6468 39.1803L70.945 37.6466L68.8426 37.2378ZM70.0633 30.4019L67.9532 30.0349L67.9511 30.0473L67.949 30.0598L70.0633 30.4019ZM71.5282 23.5171L71.159 21.4074L69.7879 21.6473L69.4503 22.9976L71.5282 23.5171ZM75.6786 23.0288L75.821 25.1658L75.8446 25.1643L75.8682 25.1622L75.6786 23.0288ZM78.7059 22.7847L78.8317 24.9227L78.8941 24.9191L78.9561 24.9118L78.7059 22.7847ZM79.536 22.687L81.5839 23.3142L82.5448 20.1765L79.2857 20.5599L79.536 22.687ZM74.8485 44.6108L76.9575 44.984L76.9601 44.9693L76.9625 44.9546L74.8485 44.6108ZM72.7977 57.5991L73.0371 59.7275L74.6889 59.5416L74.9189 57.8955L72.7977 57.5991ZM64.9852 58.478L62.8905 58.0316L62.2709 60.9387L65.2246 60.6064L64.9852 58.478ZM66.1082 52.8628L64.0096 52.4353L64.0058 52.454L64.0023 52.4728L66.1082 52.8628ZM67.1336 47.6382L65.0366 47.2029L65.0326 47.222L65.029 47.2411L67.1336 47.6382ZM68.0125 43.1948L70.1189 43.5828L70.6299 40.8088L67.8206 41.0617L68.0125 43.1948ZM63.1297 43.6343L62.9377 41.5011L61.313 41.6474L61.0222 43.2526L63.1297 43.6343ZM60.3465 58.1851L60.7844 60.2816L62.1709 59.992L62.4472 58.6027L60.3465 58.1851ZM54.7353 60.199C57.6347 45.0504 59.7568 32.9734 61.0977 23.9794L56.861 23.3477C55.5326 32.2574 53.423 44.2689 50.5281 59.3938L54.7353 60.199ZM59.1338 25.7998L67.2392 25.2138L66.9304 20.9414L58.8249 21.5274L59.1338 25.7998ZM65.0013 22.5816C63.6931 28.076 62.6272 33.0267 61.8055 37.4309L66.0164 38.2165C66.8223 33.8968 67.8724 29.0168 69.1683 23.5737L65.0013 22.5816ZM64.1637 39.9505L69.0953 39.3646L68.5899 35.111L63.6583 35.6969L64.1637 39.9505ZM70.945 37.6466C71.4048 35.2821 71.8157 32.9811 72.1776 30.7439L67.949 30.0598C67.5948 32.2497 67.1919 34.506 66.7402 36.829L70.945 37.6466ZM72.1734 30.7688C72.5546 28.5769 73.0319 26.3328 73.606 24.0365L69.4503 22.9976C68.8525 25.3888 68.3533 27.7347 67.9532 30.0349L72.1734 30.7688ZM71.8974 25.6268C73.1167 25.4134 74.424 25.259 75.821 25.1658L75.5361 20.8918C74.0034 20.994 72.5438 21.165 71.159 21.4074L71.8974 25.6268ZM75.8682 25.1622C77.3354 25.0317 78.3145 24.9532 78.8317 24.9227L78.5801 20.6466C77.9905 20.6813 76.9514 20.7655 75.4889 20.8955L75.8682 25.1622ZM78.9561 24.9118L79.7862 24.8141L79.2857 20.5599L78.4557 20.6576L78.9561 24.9118ZM77.4881 22.0598C75.8512 27.4049 74.2703 34.8232 72.7345 44.267L76.9625 44.9546C78.4865 35.5833 80.0307 28.3858 81.5839 23.3142L77.4881 22.0598ZM72.7395 44.2377C71.9861 48.496 71.2985 52.851 70.6765 57.3028L74.9189 57.8955C75.5339 53.493 76.2135 49.1892 76.9575 44.984L72.7395 44.2377ZM72.5583 55.4708L64.7458 56.3497L65.2246 60.6064L73.0371 59.7275L72.5583 55.4708ZM67.0799 58.9244C67.5066 56.9225 67.8848 55.0318 68.2142 53.2528L64.0023 52.4728C63.6807 54.2094 63.3102 56.0622 62.8905 58.0316L67.0799 58.9244ZM68.2069 53.2903C68.567 51.5226 68.9108 49.7709 69.2383 48.0353L65.029 47.2411C64.7054 48.956 64.3656 50.6874 64.0096 52.4353L68.2069 53.2903ZM69.2307 48.0734C69.5909 46.3381 69.8872 44.8404 70.1189 43.5828L65.9062 42.8068C65.6821 44.0232 65.3925 45.4877 65.0366 47.2029L69.2307 48.0734ZM67.8206 41.0617L62.9377 41.5011L63.3217 45.7674L68.2045 45.328L67.8206 41.0617ZM61.0222 43.2526C60.2763 47.3714 59.351 52.2091 58.2459 57.7674L62.4472 58.6027C63.5556 53.0282 64.4857 48.1654 65.2372 44.0159L61.0222 43.2526ZM59.9086 56.0885L52.1938 57.6999L53.0696 61.8929L60.7844 60.2816L59.9086 56.0885ZM74.702 59.7476L72.5956 59.3598L72.0502 62.3232L75.0281 61.8643L74.702 59.7476ZM81.245 24.2007L81.0606 22.0669L79.4341 22.2074L79.1386 23.813L81.245 24.2007ZM97.0653 22.8335L99.1142 23.4571L100.036 20.427L96.8809 20.6997L97.0653 22.8335ZM96.4793 25.0308L98.5629 25.5268L98.5654 25.5161L98.5678 25.5054L96.4793 25.0308ZM95.6004 28.8882L95.8135 31.0193L97.4099 30.8597L97.7055 29.2829L95.6004 28.8882ZM88.2274 29.0347V26.8929H86.4641L86.1255 28.6234L88.2274 29.0347ZM86.4696 38.019L84.3677 37.6078L83.8395 40.3075L86.5862 40.1576L86.4696 38.019ZM93.3055 37.7261L95.4272 38.0187L95.7954 35.3491L93.1116 35.5931L93.3055 37.7261ZM92.9149 40.5093L90.7946 40.2064L90.7899 40.2395L90.7862 40.2728L92.9149 40.5093ZM92.5243 43.2437L92.7182 45.3766L94.3555 45.2278L94.6349 43.6076L92.5243 43.2437ZM90.8641 43.3413V45.4831H90.9106L90.9571 45.4811L90.8641 43.3413ZM85.786 43.4878L85.7169 41.3471L83.9939 41.4027L83.68 43.0978L85.786 43.4878ZM84.077 52.7163L81.971 52.3263L81.4178 55.314L84.4176 54.8308L84.077 52.7163ZM91.3524 51.5444L93.4864 51.7268L93.72 48.9937L91.0118 49.4299L91.3524 51.5444ZM90.8641 57.2573L91.1902 59.3741L92.8547 59.1177L92.9981 57.4397L90.8641 57.2573ZM76.8084 60.1353L83.3513 24.5884L79.1386 23.813L72.5956 59.3598L76.8084 60.1353ZM81.4294 26.3345L97.2497 24.9673L96.8809 20.6997L81.0606 22.0669L81.4294 26.3345ZM95.0163 22.2099C94.7744 23.0046 94.5657 23.7867 94.3908 24.5561L98.5678 25.5054C98.7185 24.8425 98.9004 24.1598 99.1142 23.4571L95.0163 22.2099ZM94.3958 24.5347C94.3596 24.6867 94.371 24.639 94.3348 24.791C94.2986 24.943 94.3099 24.8954 94.2737 25.0474C94.2375 25.1994 94.2489 25.1517 94.2127 25.3037C94.1765 25.4557 94.1879 25.4081 94.1517 25.5601C94.0949 25.7986 93.9643 26.3469 93.9075 26.5855L98.0746 27.5776C98.1108 27.4256 98.0994 27.4733 98.1356 27.3213C98.1718 27.1693 98.1605 27.2169 98.1966 27.0649C98.2328 26.9129 98.2215 26.9606 98.2577 26.8086C98.2939 26.6566 98.2825 26.7042 98.3187 26.5522C98.3755 26.3137 98.5061 25.7654 98.5629 25.5268L94.3958 24.5347ZM93.9075 26.5855C93.7392 27.2926 93.601 27.9298 93.4953 28.4935L97.7055 29.2829C97.7951 28.8049 97.9174 28.2377 98.0746 27.5776L93.9075 26.5855ZM95.3873 26.757C94.5143 26.8444 93.261 26.8929 91.5965 26.8929V31.1764C93.3174 31.1764 94.7334 31.1273 95.8135 31.0193L95.3873 26.757ZM91.5965 26.8929H88.2274V31.1764H91.5965V26.8929ZM86.1255 28.6234L84.3677 37.6078L88.5715 38.4303L90.3293 29.4459L86.1255 28.6234ZM86.5862 40.1576C88.3654 40.0606 89.8417 39.9965 91.0196 39.9647L90.9039 35.6827C89.6729 35.716 88.1544 35.7822 86.3529 35.8805L86.5862 40.1576ZM91.0196 39.9647C92.2071 39.9326 93.0604 39.899 93.4994 39.859L93.1116 35.5931C92.8345 35.6183 92.1253 35.6497 90.9039 35.6827L91.0196 39.9647ZM91.1838 37.4334C91.0541 38.3741 90.9243 39.2985 90.7946 40.2064L95.0351 40.8122C95.1658 39.8972 95.2965 38.966 95.4272 38.0187L91.1838 37.4334ZM90.7862 40.2728C90.6937 41.1057 90.5697 41.9746 90.4136 42.8798L94.6349 43.6076C94.8043 42.6247 94.9408 41.6707 95.0435 40.7458L90.7862 40.2728ZM92.3303 41.1107C92.0253 41.1384 91.5139 41.1693 90.7711 41.2016L90.9571 45.4811C91.7117 45.4482 92.3071 45.414 92.7182 45.3766L92.3303 41.1107ZM90.8641 41.1995C90.0845 41.1995 89.2746 41.2165 88.4347 41.2501L88.6059 45.5302C89.3937 45.4987 90.1463 45.4831 90.8641 45.4831V41.1995ZM88.4347 41.2501C87.6276 41.2824 86.7218 41.3147 85.7169 41.3471L85.855 45.6284C86.8684 45.5958 87.7855 45.563 88.6059 45.5302L88.4347 41.2501ZM83.68 43.0978L81.971 52.3263L86.1829 53.1063L87.8919 43.8778L83.68 43.0978ZM84.4176 54.8308L91.693 53.6589L91.0118 49.4299L83.7364 50.6018L84.4176 54.8308ZM89.2184 51.362L88.7301 57.0749L92.9981 57.4397L93.4864 51.7268L89.2184 51.362ZM90.5379 55.1405L74.3758 57.6308L75.0281 61.8643L91.1902 59.3741L90.5379 55.1405ZM106.587 58.9175L104.526 59.5009L105.147 61.6952L107.298 60.9376L106.587 58.9175ZM102.681 43.8296L104.815 43.6565L104.6 40.9982L102.051 41.7825L102.681 43.8296ZM102.046 44.0249L101.416 41.9778L100.168 42.3618L99.9376 43.6468L102.046 44.0249ZM99.6532 57.6479L100.19 59.7213L101.535 59.3731L101.765 58.0037L99.6532 57.6479ZM91.5477 59.7476L89.4503 59.3139L88.7535 62.6838L92.0848 61.8209L91.5477 59.7476ZM97.7489 24.8843L97.114 22.8388L95.772 23.2553L95.6197 24.6522L97.7489 24.8843ZM116.694 26.7886L118.767 26.2479L118.764 26.2367L116.694 26.7886ZM116.304 33.1851L118.319 33.9087L118.322 33.9006L118.325 33.8926L116.304 33.1851ZM114.448 36.8472L116.215 38.0575L116.223 38.0464L116.23 38.0352L114.448 36.8472ZM108.442 42.3159L107.433 40.4268L105.647 41.3811L106.5 43.2178L108.442 42.3159ZM111.811 50.0796L109.823 50.875L109.829 50.8911L109.836 50.9071L111.811 50.0796ZM114.35 56.1831L115.062 58.2032L117.19 57.4538L116.331 55.3676L114.35 56.1831ZM107.075 30.0601V27.9183H107.051L107.026 27.9188L107.075 30.0601ZM104.927 30.1089L104.878 27.9677L103.167 28.0066L102.827 29.6839L104.927 30.1089ZM103.315 38.0679L101.216 37.6429L100.64 40.4878L103.528 40.199L103.315 38.0679ZM108.247 35.5776L106.949 33.874L106.94 33.8811L108.247 35.5776ZM108.638 30.1089L108.793 27.9728L108.782 27.972L108.771 27.9713L108.638 30.1089ZM108.648 58.3341C107.396 53.9127 106.449 50.4597 105.804 47.9681C105.133 45.3772 104.846 44.0302 104.815 43.6565L100.546 44.0027C100.613 44.8334 101.026 46.6033 101.657 49.0417C102.314 51.5794 103.271 55.0681 104.526 59.5009L108.648 58.3341ZM102.051 41.7825L101.416 41.9778L102.676 46.072L103.31 45.8766L102.051 41.7825ZM99.9376 43.6468C98.863 49.6383 98.0639 54.1883 97.5411 57.2922L101.765 58.0037C102.284 54.9227 103.08 50.3906 104.154 44.403L99.9376 43.6468ZM99.1161 55.5746L91.0106 57.6742L92.0848 61.8209L100.19 59.7213L99.1161 55.5746ZM93.6451 60.1812C97.0304 43.8078 99.1171 32.0971 99.878 25.1164L95.6197 24.6522C94.8832 31.4084 92.8358 42.9399 89.4503 59.3139L93.6451 60.1812ZM98.3837 26.9298C101.92 25.8323 105.933 25.2682 110.444 25.2682V20.9847C105.58 20.9847 101.13 21.5925 97.114 22.8388L98.3837 26.9298ZM110.444 25.2682C111.984 25.2682 112.964 25.5403 113.561 25.8899C114.091 26.2007 114.437 26.6367 114.625 27.3404L118.764 26.2367C118.3 24.4991 117.279 23.104 115.726 22.1941C114.24 21.323 112.42 20.9847 110.444 20.9847V25.2682ZM114.622 27.3292C114.756 27.8437 114.845 28.5763 114.845 29.5718H119.129C119.129 28.3538 119.023 27.2308 118.767 26.2479L114.622 27.3292ZM114.845 29.5718C114.845 30.3866 114.677 31.3491 114.282 32.4775L118.325 33.8926C118.842 32.4169 119.129 30.9705 119.129 29.5718H114.845ZM114.288 32.4614C113.893 33.5602 113.355 34.6256 112.666 35.6591L116.23 38.0352C117.104 36.725 117.802 35.349 118.319 33.9087L114.288 32.4614ZM112.681 35.6369C111.234 37.7495 109.485 39.3305 107.433 40.4268L109.451 44.205C112.152 42.7622 114.407 40.6975 116.215 38.0575L112.681 35.6369ZM106.5 43.2178C107.755 45.9221 108.862 48.4743 109.823 50.875L113.8 49.2842C112.807 46.8021 111.668 44.1785 110.385 41.414L106.5 43.2178ZM109.836 50.9071C110.844 53.3136 111.689 55.3438 112.37 56.9986L116.331 55.3676C115.645 53.7021 114.797 51.6633 113.787 49.252L109.836 50.9071ZM113.639 54.163L105.875 56.8973L107.298 60.9376L115.062 58.2032L113.639 54.163ZM107.026 27.9188L104.878 27.9677L104.975 32.2501L107.124 32.2013L107.026 27.9188ZM102.827 29.6839L101.216 37.6429L105.414 38.4929L107.026 30.5339L102.827 29.6839ZM103.528 40.199C105.451 40.0067 107.495 38.8609 109.554 37.2742L106.94 33.8811C105.028 35.3543 103.783 35.8686 103.102 35.9367L103.528 40.199ZM109.545 37.2813C110.641 36.4462 111.562 35.6122 112.229 34.7768C112.867 33.9756 113.465 32.9324 113.465 31.7202H109.181C109.181 31.5171 109.266 31.6214 108.88 32.106C108.52 32.5564 107.904 33.1465 106.949 33.874L109.545 37.2813ZM113.465 31.7202C113.465 30.4049 112.764 29.3792 111.754 28.7728C110.881 28.2492 109.814 28.047 108.793 27.9728L108.482 32.245C108.842 32.2712 109.108 32.3146 109.296 32.3614C109.488 32.4092 109.556 32.4498 109.55 32.4459C109.535 32.4373 109.425 32.3658 109.322 32.1963C109.214 32.0172 109.181 31.838 109.181 31.7202H113.465ZM108.771 27.9713C108.206 27.936 107.641 27.9183 107.075 27.9183V32.2018C107.551 32.2018 108.027 32.2167 108.504 32.2465L108.771 27.9713ZM125.679 35.7241L124.02 34.3694L124.016 34.3735L125.679 35.7241ZM122.407 42.1206L120.378 41.436L120.373 41.4486L120.369 41.4613L122.407 42.1206ZM122.993 51.3003L124.221 49.5457L124.152 49.4972L124.079 49.4542L122.993 51.3003ZM128.071 50.1284L129.491 51.7317L129.494 51.7292L128.071 50.1284ZM132.759 41.5347L130.679 41.0245L130.675 41.0387L130.672 41.0531L132.759 41.5347ZM139.448 40.3628L137.367 39.8566L137.364 39.8699L137.361 39.8833L139.448 40.3628ZM137.153 47.0034L135.225 46.0705L137.153 47.0034ZM133.735 52.4233L132.076 51.0689L132.068 51.0792L132.059 51.0896L133.735 52.4233ZM129.731 56.4761L131.055 58.1595L131.06 58.1561L129.731 56.4761ZM116.059 57.4526L114.387 58.7906L116.059 57.4526ZM123.286 26.8862L121.763 25.3799L121.754 25.3893L123.286 26.8862ZM138.813 25.6167L140.679 24.5651L140.675 24.5581L140.671 24.5511L138.813 25.6167ZM135.535 36.8472C135.535 35.36 135.333 33.8957 134.662 32.7354C133.887 31.397 132.594 30.6527 131.05 30.6527V34.9362C131.124 34.9362 131.085 34.9494 131.005 34.9033C130.925 34.8572 130.917 34.8169 130.953 34.8798C131.064 35.0705 131.252 35.6325 131.252 36.8472H135.535ZM131.05 30.6527C128.253 30.6527 125.902 32.0643 124.02 34.3694L127.337 37.0789C128.645 35.4777 129.875 34.9362 131.05 34.9362V30.6527ZM124.016 34.3735C122.534 36.1983 121.34 38.5848 120.378 41.436L124.436 42.8052C125.298 40.2527 126.284 38.3749 127.341 37.0747L124.016 34.3735ZM120.369 41.4613C119.597 43.8483 119.191 46.1556 119.191 48.3706H123.475C123.475 46.6794 123.785 44.82 124.445 42.7799L120.369 41.4613ZM119.191 48.3706C119.191 50.4185 120.135 52.1039 121.907 53.1464L124.079 49.4542C123.638 49.1946 123.475 48.9269 123.475 48.3706H119.191ZM121.765 53.0549C122.474 53.5515 123.284 53.7839 124.116 53.7839V49.5003C124.099 49.5003 124.111 49.4983 124.142 49.5077C124.173 49.5174 124.202 49.5323 124.221 49.5457L121.765 53.0549ZM124.116 53.7839C126.146 53.7839 127.967 53.0815 129.491 51.7317L126.651 48.5251C125.896 49.1936 125.081 49.5003 124.116 49.5003V53.7839ZM129.494 51.7292C130.875 50.5018 132.007 49.0206 132.9 47.3105L129.102 45.3291C128.432 46.6138 127.611 47.6717 126.648 48.5276L129.494 51.7292ZM132.9 47.3105C133.767 45.6475 134.415 43.8809 134.846 42.0163L130.672 41.0531C130.321 42.5739 129.797 43.9973 129.102 45.3291L132.9 47.3105ZM134.839 42.0449C135.292 40.195 135.535 38.4576 135.535 36.8472H131.252C131.252 38.0362 131.071 39.4238 130.679 41.0245L134.839 42.0449ZM138.185 33.771C138.185 35.5501 137.922 37.5744 137.367 39.8566L141.529 40.869C142.146 38.3335 142.469 35.9632 142.469 33.771H138.185ZM137.361 39.8833C136.84 42.1513 136.125 44.2108 135.225 46.0705L139.081 47.9363C140.134 45.7595 140.95 43.392 141.535 40.8423L137.361 39.8833ZM135.225 46.0705C134.315 47.9515 133.263 49.6143 132.076 51.0689L135.394 53.7777C136.811 52.0422 138.038 50.0918 139.081 47.9363L135.225 46.0705ZM132.059 51.0896C130.878 52.5741 129.657 53.8042 128.403 54.796L131.06 58.1561C132.605 56.9344 134.053 55.4627 135.411 53.7571L132.059 51.0896ZM128.407 54.7926C125.746 56.8859 123.417 57.7523 121.382 57.7523V62.0358C124.685 62.0358 127.923 60.6235 131.055 58.1595L128.407 54.7926ZM121.382 57.7523C119.728 57.7523 118.593 57.1907 117.732 56.1147L114.387 58.7906C116.13 60.9698 118.543 62.0358 121.382 62.0358V57.7523ZM117.732 56.1147C116.721 54.851 116.053 52.801 116.053 49.6401H111.769C111.769 53.3152 112.533 56.4736 114.387 58.7906L117.732 56.1147ZM116.053 49.6401C116.053 46.2611 116.839 42.5302 118.486 38.4264L114.511 36.8304C112.709 41.3203 111.769 45.5973 111.769 49.6401H116.053ZM118.486 38.4264C120.123 34.3499 122.243 31.0181 124.818 28.3832L121.754 25.3893C118.73 28.4835 116.325 32.3131 114.511 36.8304L118.486 38.4264ZM124.809 28.3926C127.558 25.6133 130.215 24.4382 132.807 24.4382V20.1546C128.759 20.1546 125.068 22.0393 121.763 25.3799L124.809 28.3926ZM132.807 24.4382C134.842 24.4382 136.1 25.1907 136.955 26.6823L140.671 24.5511C138.988 21.6157 136.242 20.1546 132.807 20.1546V24.4382ZM136.948 26.6683C137.685 27.9761 138.185 30.248 138.185 33.771H142.469C142.469 30.0023 141.96 26.838 140.679 24.5651L136.948 26.6683Z" fill="black"/>
<path d="M10.559 83.1249C10.9207 82.9815 16.2714 80.5588 40.2639 80.792C55.4342 80.8913 92.1262 82.9088 92.1262 82.9088C92.1262 82.9088 141.229 78.9842 142.811 79.2491C160.923 78.3476 171.081 82.1422 171.081 82.1422C171.081 82.1422 171.672 80.8946 172.739 82.0797C173.806 83.2649 171.081 102.092 171.081 102.092C171.081 102.092 177.08 112.444 175.73 117.567C174.381 122.689 170.437 127.346 170.437 127.346C170.437 127.346 180.38 124.927 175.73 139.847C171.081 154.768 181.16 157.671 178.161 168.487C175.909 176.605 167.169 179.91 167.169 187.049C167.169 194.188 172.961 192.777 178.161 197.033C183.36 201.289 155.331 206.437 142.811 207.039C130.291 207.64 107.557 201.327 92.1629 205.916C76.7687 210.504 56.222 206.88 53.1541 207.039C50.0861 207.197 35.7702 205.768 32.3205 205.682C28.9093 205.745 14.7857 205.066 13.1263 204.501C11.5239 203.847 10.8341 204.096 9.82607 203.132C7.22988 200.65 15.5912 189.905 15.5912 189.905L10.8735 161.815C10.8735 161.815 9.04041 161.17 8.18283 160.337C5.21243 157.451 16.4787 154.768 16.4787 154.768C16.4787 154.768 16.7463 153.534 11.3436 151.219C5.94093 148.904 10.7906 127.346 10.7906 127.346C10.7906 127.346 14.1728 123.13 14.4176 121.909C14.6624 120.689 15.3814 118.52 13.702 117.567C12.0226 116.613 10.3756 115.73 9.82607 114.576C9.27654 113.422 14.4166 107.803 14.4166 107.803L14.4166 102.092C14.4166 102.092 10.1972 83.2683 10.559 83.1249Z" fill="white" stroke="black" stroke-width="2.14176"/>
<path d="M50.3813 112.471C50.3813 112.115 50.4702 111.863 50.6479 111.712C50.8257 111.548 51.1128 111.466 51.5093 111.466H51.7144C51.7554 111.685 51.8032 111.938 51.8579 112.225C51.9126 112.512 51.9946 112.806 52.104 113.107C52.2134 113.407 52.3433 113.688 52.4937 113.948C52.644 114.194 52.8286 114.392 53.0474 114.542C53.061 114.064 53.1772 113.606 53.396 113.168C53.6284 112.717 53.9087 112.321 54.2368 111.979C54.5786 111.623 54.9478 111.329 55.3442 111.097C55.7544 110.851 56.1577 110.687 56.5542 110.605H57.0054C57.6616 110.605 58.2222 110.755 58.687 111.056C59.1519 111.343 59.5347 111.726 59.8354 112.204C60.1499 112.669 60.3892 113.202 60.5532 113.804C60.7173 114.406 60.8403 115.021 60.9224 115.65C61.0181 116.265 61.0728 116.866 61.0864 117.454C61.1138 118.029 61.1274 118.521 61.1274 118.931H59.6304C59.5483 118.111 59.4458 117.324 59.3228 116.573C59.2817 116.272 59.2271 115.957 59.1587 115.629C59.0903 115.287 59.0151 114.973 58.9331 114.686C58.8511 114.385 58.7622 114.112 58.6665 113.865C58.5708 113.606 58.4614 113.387 58.3384 113.209C58.2837 113.155 58.2085 113.079 58.1128 112.984C58.0308 112.888 57.9419 112.792 57.8462 112.697C57.7505 112.601 57.6616 112.519 57.5796 112.45C57.4976 112.382 57.4497 112.348 57.436 112.348C57.0259 112.239 56.6704 112.321 56.3696 112.594C56.0688 112.854 55.8022 113.209 55.5698 113.66C55.3374 114.112 55.146 114.624 54.9956 115.198C54.8589 115.773 54.7427 116.326 54.647 116.86C54.5513 117.379 54.4829 117.837 54.4419 118.234C54.4009 118.616 54.3735 118.849 54.3599 118.931C54.0181 119.177 53.6968 119.252 53.396 119.156C53.0952 119.047 52.8081 118.828 52.5347 118.5C52.2749 118.172 52.0356 117.762 51.8169 117.27C51.6118 116.778 51.4204 116.258 51.2427 115.711C51.0649 115.151 50.9009 114.59 50.7505 114.03C50.6138 113.469 50.4907 112.949 50.3813 112.471ZM62.2554 111.015C62.2554 110.933 62.2554 110.789 62.2554 110.584C62.269 110.365 62.2759 110.14 62.2759 109.907C62.2759 109.675 62.2759 109.463 62.2759 109.272C62.2896 109.067 62.2964 108.923 62.2964 108.841C62.3921 108.677 62.5015 108.52 62.6245 108.369C62.7612 108.205 62.8979 108.096 63.0347 108.041C63.1851 107.973 63.3423 107.959 63.5063 108C63.6841 108.041 63.8618 108.178 64.0396 108.41V108.574V108.841C64.0259 108.909 63.9985 109.073 63.9575 109.333C63.9165 109.579 63.8687 109.853 63.814 110.154C63.7593 110.454 63.7046 110.735 63.6499 110.994C63.6089 111.24 63.5884 111.398 63.5884 111.466C63.5884 111.726 63.6157 112.054 63.6704 112.45C63.7251 112.833 63.8003 113.237 63.896 113.66C64.0054 114.084 64.1353 114.508 64.2856 114.932C64.4497 115.356 64.6411 115.739 64.8599 116.08C65.0786 116.408 65.3179 116.682 65.5776 116.901C65.8511 117.119 66.1655 117.229 66.521 117.229C66.9585 117.229 67.3413 117.113 67.6694 116.88C68.0112 116.648 68.3052 116.347 68.5513 115.978C68.7974 115.609 68.9956 115.192 69.146 114.727C69.3101 114.262 69.4399 113.797 69.5356 113.332C69.6313 112.854 69.6997 112.396 69.7407 111.958C69.7817 111.521 69.8022 111.138 69.8022 110.81C69.8022 110.482 69.7749 110.174 69.7202 109.887C69.6792 109.586 69.6245 109.292 69.5562 109.005C69.4878 108.718 69.4263 108.438 69.3716 108.164C69.3306 107.877 69.3101 107.59 69.3101 107.303C69.3101 107.043 69.3989 106.859 69.5767 106.749C69.7681 106.64 69.98 106.585 70.2124 106.585C70.4995 106.585 70.7319 106.674 70.9097 106.852C71.0874 107.016 71.2241 107.228 71.3198 107.488C71.4292 107.747 71.4976 108.048 71.5249 108.39C71.5659 108.718 71.5864 109.046 71.5864 109.374C71.5864 109.702 71.5796 110.017 71.5659 110.318C71.5522 110.605 71.5454 110.837 71.5454 111.015C71.5454 111.48 71.5112 112.006 71.4429 112.594C71.3745 113.182 71.2515 113.79 71.0737 114.419C70.9097 115.034 70.6978 115.643 70.438 116.244C70.1919 116.846 69.8843 117.386 69.5151 117.865C69.1597 118.329 68.7427 118.705 68.2642 118.992C67.7993 119.28 67.2729 119.423 66.6851 119.423C66.0698 119.423 65.5298 119.28 65.0649 118.992C64.6001 118.692 64.2036 118.302 63.8755 117.823C63.561 117.331 63.2944 116.778 63.0757 116.162C62.8569 115.547 62.686 114.932 62.563 114.317C62.4536 113.701 62.3716 113.107 62.3169 112.532C62.2759 111.945 62.2554 111.439 62.2554 111.015ZM72.3452 110.769C72.3452 110.427 72.3999 110.16 72.5093 109.969C72.6323 109.778 72.8853 109.682 73.2681 109.682C73.3091 109.682 73.3843 109.689 73.4937 109.702C73.6167 109.702 73.6919 109.702 73.7192 109.702C73.8149 110.126 73.9106 110.591 74.0063 111.097C74.1157 111.589 74.2388 112.088 74.3755 112.594C74.5122 113.1 74.6626 113.599 74.8267 114.091C75.0044 114.583 75.2163 115.028 75.4624 115.424C75.7085 115.164 75.8862 114.857 75.9956 114.501C76.105 114.146 76.187 113.79 76.2417 113.435C76.2964 113.066 76.3442 112.717 76.3853 112.389C76.4399 112.047 76.5425 111.76 76.6929 111.528C76.8433 111.281 77.062 111.104 77.3491 110.994C77.6499 110.885 78.0601 110.885 78.5796 110.994C79.1538 110.994 79.6118 111.104 79.9536 111.323C80.2954 111.528 80.5894 111.794 80.8354 112.122C81.0952 112.437 81.3413 112.779 81.5737 113.148C81.8198 113.503 82.1274 113.824 82.4966 114.112C82.5786 113.934 82.6812 113.715 82.8042 113.455C82.9272 113.182 83.0776 112.902 83.2554 112.615C83.4468 112.314 83.645 112.02 83.8501 111.733C84.0688 111.432 84.2944 111.165 84.5269 110.933C84.7593 110.687 84.9985 110.489 85.2446 110.338C85.4907 110.174 85.73 110.092 85.9624 110.092C86.5229 110.092 87.0083 110.27 87.4185 110.625C87.8286 110.967 88.1772 111.405 88.4644 111.938C88.7651 112.457 89.0112 113.045 89.2026 113.701C89.394 114.344 89.5444 114.966 89.6538 115.568C89.7632 116.169 89.8384 116.723 89.8794 117.229C89.9341 117.721 89.9614 118.076 89.9614 118.295C89.9614 118.473 89.9204 118.61 89.8384 118.705C89.7563 118.801 89.6538 118.876 89.5308 118.931C89.4077 118.972 89.271 118.999 89.1206 119.013C88.9839 119.027 88.854 119.033 88.731 119.033C88.7036 119.033 88.6626 119.033 88.6079 119.033C88.5532 119.02 88.4917 119.006 88.4233 118.992C88.3687 118.979 88.2935 118.958 88.1978 118.931L86.8647 112.799C86.8647 112.758 86.8101 112.683 86.7007 112.573C86.5913 112.45 86.5093 112.375 86.4546 112.348C86.4136 112.348 86.3794 112.341 86.3521 112.327C86.3247 112.327 86.3042 112.327 86.2905 112.327C86.2769 112.314 86.2632 112.307 86.2495 112.307C85.9624 112.307 85.689 112.423 85.4292 112.656C85.1831 112.888 84.9507 113.182 84.7319 113.537C84.5132 113.893 84.3081 114.289 84.1167 114.727C83.9253 115.164 83.7544 115.602 83.604 116.039C83.4536 116.463 83.3169 116.86 83.1938 117.229C83.0845 117.584 82.9956 117.858 82.9272 118.049C82.8726 118.076 82.7632 118.104 82.5991 118.131C82.4351 118.145 82.3257 118.152 82.271 118.152C81.8882 118.152 81.5942 118.022 81.3892 117.762C81.1841 117.489 81.0132 117.154 80.8765 116.757C80.7534 116.361 80.644 115.93 80.5483 115.465C80.4663 114.987 80.3569 114.549 80.2202 114.153C80.0972 113.756 79.9194 113.428 79.687 113.168C79.4683 112.895 79.1538 112.758 78.7437 112.758C78.5933 112.758 78.4497 112.908 78.313 113.209C78.1763 113.51 78.0532 113.893 77.9438 114.358C77.8345 114.809 77.7319 115.301 77.6362 115.834C77.5405 116.354 77.4585 116.846 77.3901 117.311C77.3354 117.762 77.2944 118.145 77.2671 118.459C77.2397 118.774 77.2261 118.931 77.2261 118.931C77.1987 118.972 77.144 119.02 77.062 119.074C76.98 119.115 76.8911 119.163 76.7954 119.218C76.7134 119.273 76.6245 119.314 76.5288 119.341C76.4468 119.368 76.3853 119.382 76.3442 119.382C75.9614 119.382 75.5923 119.211 75.2368 118.869C74.8813 118.514 74.5532 118.063 74.2524 117.516C73.9653 116.955 73.6987 116.34 73.4526 115.67C73.2202 115 73.022 114.344 72.8579 113.701C72.6938 113.059 72.564 112.478 72.4683 111.958C72.3862 111.439 72.3452 111.042 72.3452 110.769ZM93.8989 118.5C93.4751 117.27 93.0718 116.121 92.689 115.055C92.3198 113.975 91.9917 112.922 91.7046 111.897C91.4312 110.858 91.2124 109.805 91.0483 108.739C90.8843 107.672 90.8022 106.531 90.8022 105.314C90.8022 105.218 90.8022 105.047 90.8022 104.801C90.8159 104.541 90.8228 104.275 90.8228 104.001C90.8228 103.728 90.8228 103.468 90.8228 103.222C90.8364 102.962 90.8433 102.784 90.8433 102.689C90.9663 102.415 91.1782 102.162 91.479 101.93C91.7935 101.698 92.1079 101.581 92.4224 101.581C92.4224 102.593 92.436 103.673 92.4634 104.822C92.4907 105.956 92.5728 107.091 92.7095 108.226C92.8599 109.361 93.0923 110.475 93.4067 111.569C93.7349 112.649 94.1929 113.64 94.7808 114.542C94.7944 114.214 94.8081 113.852 94.8218 113.455C94.8354 113.059 94.8696 112.662 94.9243 112.266C94.9927 111.869 95.0952 111.487 95.2319 111.117C95.3687 110.748 95.5669 110.42 95.8267 110.133C96.1001 109.846 96.4487 109.62 96.8726 109.456C97.3101 109.292 97.8569 109.217 98.5132 109.231C99.1011 109.231 99.6274 109.34 100.092 109.559C100.571 109.778 100.967 110.078 101.282 110.461C101.61 110.83 101.856 111.268 102.02 111.774C102.198 112.266 102.287 112.792 102.287 113.353C102.287 114.105 102.102 114.843 101.733 115.568C101.364 116.292 100.872 116.942 100.256 117.516C99.6548 118.09 98.978 118.555 98.2261 118.91C97.4741 119.252 96.7085 119.423 95.9292 119.423C95.5327 119.423 95.1499 119.355 94.7808 119.218C94.4116 119.068 94.1177 118.828 93.8989 118.5ZM98.7593 111.015C98.4858 111.165 98.1987 111.343 97.8979 111.548C97.5972 111.753 97.3169 112.074 97.0571 112.512C96.811 112.936 96.5991 113.517 96.4214 114.255C96.2437 114.993 96.1343 115.971 96.0933 117.188C96.1206 117.188 96.189 117.195 96.2983 117.208C96.4214 117.222 96.5034 117.229 96.5444 117.229C96.9136 117.229 97.3306 117.113 97.7954 116.88C98.2739 116.648 98.7319 116.361 99.1694 116.019C99.6206 115.677 100.01 115.301 100.338 114.891C100.667 114.467 100.865 114.064 100.933 113.681C100.974 113.448 100.926 113.182 100.79 112.881C100.653 112.58 100.468 112.293 100.236 112.02C100.017 111.733 99.771 111.493 99.4976 111.302C99.2378 111.111 98.9917 111.015 98.7593 111.015ZM103.538 113.681C103.538 112.943 103.626 112.204 103.804 111.466C103.982 110.728 104.262 110.065 104.645 109.477C105.042 108.889 105.547 108.41 106.163 108.041C106.792 107.672 107.55 107.488 108.439 107.488C108.945 107.488 109.389 107.583 109.772 107.775C110.155 107.952 110.476 108.192 110.736 108.492C110.996 108.793 111.187 109.149 111.31 109.559C111.447 109.955 111.515 110.372 111.515 110.81C111.515 111.507 111.351 112.184 111.023 112.84C110.708 113.496 110.278 114.077 109.731 114.583C109.198 115.075 108.583 115.451 107.885 115.711C107.188 115.957 106.477 116.012 105.752 115.875C105.766 116.272 105.896 116.593 106.142 116.839C106.402 117.072 106.709 117.249 107.065 117.372C107.42 117.495 107.79 117.577 108.172 117.618C108.555 117.646 108.897 117.659 109.198 117.659C109.512 117.659 109.806 117.632 110.08 117.577C110.353 117.523 110.626 117.461 110.9 117.393C111.173 117.324 111.447 117.263 111.72 117.208C112.007 117.154 112.308 117.126 112.623 117.126C112.746 117.126 112.869 117.133 112.992 117.147C113.115 117.16 113.231 117.195 113.34 117.249C113.45 117.29 113.539 117.365 113.607 117.475C113.675 117.571 113.709 117.694 113.709 117.844C113.709 118.104 113.614 118.323 113.422 118.5C113.231 118.664 112.985 118.808 112.684 118.931C112.397 119.054 112.076 119.15 111.72 119.218C111.365 119.273 111.016 119.321 110.674 119.362C110.346 119.389 110.039 119.403 109.751 119.403C109.478 119.416 109.273 119.423 109.136 119.423C108.261 119.423 107.475 119.286 106.778 119.013C106.081 118.726 105.493 118.336 105.014 117.844C104.536 117.338 104.167 116.737 103.907 116.039C103.661 115.328 103.538 114.542 103.538 113.681ZM105.711 112.348C105.711 112.826 105.773 113.175 105.896 113.394C106.033 113.613 106.354 113.722 106.86 113.722C107.215 113.722 107.564 113.66 107.906 113.537C108.248 113.401 108.555 113.216 108.829 112.984C109.116 112.751 109.341 112.478 109.505 112.163C109.669 111.849 109.751 111.507 109.751 111.138C109.751 110.933 109.731 110.721 109.69 110.502C109.663 110.283 109.594 110.085 109.485 109.907C109.375 109.716 109.232 109.566 109.054 109.456C108.89 109.333 108.671 109.272 108.398 109.272C107.988 109.272 107.612 109.367 107.27 109.559C106.942 109.737 106.662 109.976 106.429 110.277C106.197 110.564 106.019 110.892 105.896 111.261C105.773 111.616 105.711 111.979 105.711 112.348ZM114.981 110.769C114.981 110.646 114.988 110.523 115.001 110.4C115.015 110.263 115.042 110.147 115.083 110.051C115.125 109.942 115.186 109.853 115.268 109.784C115.364 109.716 115.494 109.682 115.658 109.682C115.794 109.682 115.945 109.791 116.109 110.01C116.287 110.215 116.464 110.482 116.642 110.81C116.82 111.124 116.991 111.473 117.155 111.856C117.333 112.239 117.483 112.594 117.606 112.922C117.743 113.237 117.852 113.51 117.934 113.742C118.016 113.975 118.064 114.098 118.078 114.112C118.255 113.633 118.454 113.114 118.672 112.553C118.891 111.992 119.158 111.473 119.472 110.994C119.8 110.502 120.183 110.092 120.621 109.764C121.072 109.436 121.619 109.272 122.261 109.272C122.589 109.272 122.897 109.326 123.184 109.436C123.485 109.531 123.745 109.682 123.963 109.887C124.196 110.078 124.38 110.311 124.517 110.584C124.654 110.858 124.722 111.172 124.722 111.528C124.722 111.828 124.599 112.04 124.353 112.163C124.121 112.286 123.854 112.348 123.553 112.348H123.348L122.466 111.466C122.439 111.466 122.418 111.459 122.405 111.446C122.377 111.446 122.35 111.446 122.323 111.446C122.309 111.432 122.289 111.425 122.261 111.425C121.783 111.425 121.407 111.562 121.133 111.835C120.874 112.095 120.675 112.423 120.539 112.82C120.402 113.202 120.313 113.613 120.272 114.05C120.245 114.474 120.231 114.864 120.231 115.219C120.231 115.492 120.258 115.773 120.313 116.06C120.368 116.333 120.429 116.607 120.498 116.88C120.566 117.14 120.627 117.413 120.682 117.7C120.737 117.974 120.764 118.261 120.764 118.562C120.764 119.136 120.457 119.423 119.841 119.423C119.5 119.423 119.144 119.245 118.775 118.89C118.406 118.521 118.037 118.056 117.667 117.495C117.312 116.935 116.97 116.32 116.642 115.65C116.314 114.966 116.027 114.303 115.781 113.66C115.535 113.018 115.336 112.437 115.186 111.917C115.049 111.398 114.981 111.015 114.981 110.769ZM50.3813 144.219C50.3813 143.371 50.5796 142.585 50.9761 141.861C51.3726 141.122 51.8921 140.493 52.5347 139.974C53.1909 139.441 53.9224 139.024 54.729 138.723C55.5493 138.422 56.3765 138.272 57.2104 138.272C57.6753 138.272 58.0854 138.422 58.4409 138.723C58.8101 139.024 59.1177 139.393 59.3638 139.83C59.6099 140.254 59.7944 140.705 59.9175 141.184C60.0542 141.662 60.1226 142.079 60.1226 142.435C60.1226 143.2 59.938 143.946 59.5688 144.67C59.1997 145.381 58.7212 146.017 58.1333 146.577C57.5454 147.124 56.8823 147.569 56.144 147.91C55.4058 148.252 54.6675 148.423 53.9292 148.423C53.2729 148.423 52.7192 148.314 52.2681 148.095C51.8169 147.863 51.4546 147.562 51.1812 147.193C50.9077 146.81 50.7026 146.365 50.5659 145.86C50.4429 145.34 50.3813 144.793 50.3813 144.219ZM52.1245 144.424C52.1245 144.78 52.1519 145.094 52.2065 145.367C52.2749 145.627 52.3843 145.853 52.5347 146.044C52.6987 146.236 52.9106 146.386 53.1704 146.495C53.4302 146.591 53.7515 146.639 54.1343 146.639C54.6401 146.639 55.146 146.502 55.6519 146.229C56.1577 145.942 56.6089 145.586 57.0054 145.162C57.4155 144.725 57.7437 144.246 57.9897 143.727C58.2358 143.207 58.3589 142.701 58.3589 142.209C58.3589 141.99 58.3384 141.751 58.2974 141.491C58.2563 141.232 58.188 140.992 58.0923 140.774C57.9966 140.555 57.8599 140.37 57.6821 140.22C57.5044 140.07 57.2788 139.994 57.0054 139.994C56.7593 139.994 56.4653 140.076 56.1235 140.24C55.7954 140.405 55.4468 140.616 55.0776 140.876C54.7222 141.136 54.3667 141.43 54.0112 141.758C53.6694 142.086 53.355 142.414 53.0679 142.742C52.7808 143.071 52.5483 143.385 52.3706 143.686C52.2065 143.987 52.1245 144.233 52.1245 144.424ZM60.9224 141.471C60.9224 141.115 61.0112 140.863 61.189 140.712C61.3667 140.548 61.6538 140.466 62.0503 140.466H62.2554C62.2964 140.685 62.3442 140.938 62.3989 141.225C62.4536 141.512 62.5356 141.806 62.645 142.107C62.7544 142.407 62.8843 142.688 63.0347 142.948C63.1851 143.194 63.3696 143.392 63.5884 143.542C63.6021 143.064 63.7183 142.606 63.937 142.168C64.1694 141.717 64.4497 141.321 64.7778 140.979C65.1196 140.623 65.4888 140.329 65.8853 140.097C66.2954 139.851 66.6987 139.687 67.0952 139.605H67.5464C68.2026 139.605 68.7632 139.755 69.228 140.056C69.6929 140.343 70.0757 140.726 70.3765 141.204C70.6909 141.669 70.9302 142.202 71.0942 142.804C71.2583 143.406 71.3813 144.021 71.4634 144.65C71.5591 145.265 71.6138 145.866 71.6274 146.454C71.6548 147.029 71.6685 147.521 71.6685 147.931H70.1714C70.0894 147.111 69.9868 146.324 69.8638 145.573C69.8228 145.272 69.7681 144.957 69.6997 144.629C69.6313 144.287 69.5562 143.973 69.4741 143.686C69.3921 143.385 69.3032 143.112 69.2075 142.865C69.1118 142.606 69.0024 142.387 68.8794 142.209C68.8247 142.155 68.7495 142.079 68.6538 141.984C68.5718 141.888 68.4829 141.792 68.3872 141.697C68.2915 141.601 68.2026 141.519 68.1206 141.45C68.0386 141.382 67.9907 141.348 67.9771 141.348C67.5669 141.239 67.2114 141.321 66.9106 141.594C66.6099 141.854 66.3433 142.209 66.1108 142.66C65.8784 143.112 65.687 143.624 65.5366 144.198C65.3999 144.773 65.2837 145.326 65.188 145.86C65.0923 146.379 65.0239 146.837 64.9829 147.234C64.9419 147.616 64.9146 147.849 64.9009 147.931C64.5591 148.177 64.2378 148.252 63.937 148.156C63.6362 148.047 63.3491 147.828 63.0757 147.5C62.8159 147.172 62.5767 146.762 62.3579 146.27C62.1528 145.778 61.9614 145.258 61.7837 144.711C61.606 144.151 61.4419 143.59 61.2915 143.03C61.1548 142.469 61.0317 141.949 60.9224 141.471ZM72.7964 142.681C72.7964 141.943 72.8853 141.204 73.063 140.466C73.2407 139.728 73.521 139.065 73.9038 138.477C74.3003 137.889 74.8062 137.41 75.4214 137.041C76.0503 136.672 76.8091 136.488 77.6978 136.488C78.2036 136.488 78.6479 136.583 79.0308 136.775C79.4136 136.952 79.7349 137.192 79.9946 137.492C80.2544 137.793 80.4458 138.149 80.5688 138.559C80.7056 138.955 80.7739 139.372 80.7739 139.81C80.7739 140.507 80.6099 141.184 80.2817 141.84C79.9673 142.496 79.5366 143.077 78.9897 143.583C78.4565 144.075 77.8413 144.451 77.144 144.711C76.4468 144.957 75.7358 145.012 75.0112 144.875C75.0249 145.272 75.1548 145.593 75.4009 145.839C75.6606 146.072 75.9683 146.249 76.3237 146.372C76.6792 146.495 77.0483 146.577 77.4312 146.618C77.814 146.646 78.1558 146.659 78.4565 146.659C78.771 146.659 79.0649 146.632 79.3384 146.577C79.6118 146.523 79.8853 146.461 80.1587 146.393C80.4321 146.324 80.7056 146.263 80.979 146.208C81.2661 146.154 81.5669 146.126 81.8813 146.126C82.0044 146.126 82.1274 146.133 82.2505 146.147C82.3735 146.16 82.4897 146.195 82.5991 146.249C82.7085 146.29 82.7974 146.365 82.8657 146.475C82.9341 146.571 82.9683 146.694 82.9683 146.844C82.9683 147.104 82.8726 147.323 82.6812 147.5C82.4897 147.664 82.2437 147.808 81.9429 147.931C81.6558 148.054 81.3345 148.15 80.979 148.218C80.6235 148.273 80.2749 148.321 79.9331 148.362C79.605 148.389 79.2974 148.403 79.0103 148.403C78.7368 148.416 78.5317 148.423 78.395 148.423C77.52 148.423 76.7339 148.286 76.0366 148.013C75.3394 147.726 74.7515 147.336 74.2729 146.844C73.7944 146.338 73.4253 145.737 73.1655 145.039C72.9194 144.328 72.7964 143.542 72.7964 142.681ZM74.9702 141.348C74.9702 141.826 75.0317 142.175 75.1548 142.394C75.2915 142.613 75.6128 142.722 76.1187 142.722C76.4741 142.722 76.8228 142.66 77.1646 142.537C77.5063 142.401 77.814 142.216 78.0874 141.984C78.3745 141.751 78.6001 141.478 78.7642 141.163C78.9282 140.849 79.0103 140.507 79.0103 140.138C79.0103 139.933 78.9897 139.721 78.9487 139.502C78.9214 139.283 78.853 139.085 78.7437 138.907C78.6343 138.716 78.4907 138.566 78.313 138.456C78.1489 138.333 77.9302 138.272 77.6567 138.272C77.2466 138.272 76.8706 138.367 76.5288 138.559C76.2007 138.737 75.9204 138.976 75.688 139.277C75.4556 139.564 75.2778 139.892 75.1548 140.261C75.0317 140.616 74.9702 140.979 74.9702 141.348ZM102.041 150.289C101.753 149.756 101.432 149.093 101.077 148.3C100.735 147.493 100.379 146.659 100.01 145.798C99.6411 144.923 99.2515 144.069 98.8413 143.235C98.4448 142.401 98.0415 141.676 97.6313 141.061C97.4673 140.938 97.2417 140.863 96.9546 140.835C96.6675 140.808 96.3667 140.801 96.0522 140.815C95.7378 140.815 95.4233 140.808 95.1089 140.794C94.8081 140.767 94.5415 140.692 94.3091 140.569C94.0903 140.446 93.9263 140.254 93.8169 139.994C93.7075 139.735 93.687 139.359 93.7554 138.866H97.2007C97.269 138.101 97.3853 137.342 97.5493 136.59C97.7134 135.838 97.9321 135.12 98.2056 134.437C98.4927 133.753 98.8345 133.117 99.231 132.53C99.6274 131.942 100.106 131.436 100.667 131.012C101.227 130.588 101.87 130.253 102.594 130.007C103.333 129.761 104.167 129.638 105.096 129.638C105.424 129.638 105.752 129.72 106.081 129.884C106.409 130.034 106.703 130.24 106.962 130.499C107.222 130.759 107.427 131.053 107.578 131.381C107.742 131.709 107.824 132.037 107.824 132.365C107.564 132.365 107.332 132.318 107.126 132.222C106.921 132.113 106.723 131.996 106.532 131.873C106.34 131.737 106.135 131.614 105.917 131.504C105.698 131.381 105.452 131.32 105.178 131.32C104.358 131.32 103.592 131.484 102.881 131.812C102.184 132.14 101.569 132.577 101.036 133.124C100.516 133.671 100.106 134.307 99.8052 135.031C99.5044 135.756 99.354 136.522 99.354 137.328C99.354 137.383 99.354 137.486 99.354 137.636C99.3677 137.773 99.3745 137.923 99.3745 138.087C99.3745 138.251 99.3745 138.408 99.3745 138.559C99.3882 138.709 99.395 138.812 99.395 138.866C99.9009 139.031 100.468 139.154 101.097 139.236C101.726 139.318 102.355 139.372 102.984 139.4C103.626 139.413 104.242 139.406 104.83 139.379C105.431 139.352 105.964 139.318 106.429 139.277C106.47 139.318 106.545 139.393 106.655 139.502C106.764 139.612 106.826 139.694 106.839 139.748C106.839 139.789 106.846 139.817 106.86 139.83C106.887 139.912 106.901 139.953 106.901 139.953C106.901 140.24 106.75 140.466 106.45 140.63C106.149 140.794 105.766 140.917 105.301 140.999C104.836 141.068 104.317 141.115 103.743 141.143C103.182 141.17 102.635 141.198 102.102 141.225C101.583 141.239 101.111 141.266 100.687 141.307C100.277 141.334 99.9897 141.396 99.8257 141.491C100.003 142.312 100.318 143.105 100.769 143.87C101.234 144.636 101.706 145.402 102.184 146.167C102.663 146.933 103.086 147.705 103.456 148.485C103.825 149.264 104.009 150.064 104.009 150.884C103.955 150.884 103.825 150.884 103.62 150.884C103.428 150.898 103.223 150.891 103.004 150.864C102.786 150.836 102.574 150.775 102.369 150.679C102.177 150.597 102.068 150.467 102.041 150.289ZM116.991 145.737C116.471 146.092 116.02 146.413 115.637 146.7C115.268 146.974 114.906 147.206 114.55 147.398C114.195 147.589 113.812 147.733 113.402 147.828C113.005 147.924 112.513 147.972 111.925 147.972C110.654 147.972 109.71 147.637 109.095 146.967C108.48 146.283 108.172 145.272 108.172 143.932C108.172 143.412 108.241 142.872 108.377 142.312C108.514 141.751 108.712 141.198 108.972 140.651C109.246 140.09 109.567 139.564 109.936 139.072C110.305 138.566 110.722 138.121 111.187 137.739C111.652 137.356 112.144 137.055 112.664 136.836C113.197 136.604 113.757 136.488 114.345 136.488C115.33 136.583 116.102 136.829 116.663 137.226C117.223 137.609 117.647 138.108 117.934 138.723C118.221 139.324 118.419 140.001 118.529 140.753C118.638 141.491 118.72 142.257 118.775 143.05C118.843 143.843 118.925 144.636 119.021 145.429C119.117 146.222 119.315 146.953 119.616 147.623C119.438 148.074 119.267 148.389 119.103 148.567C118.953 148.758 118.782 148.792 118.59 148.669C118.399 148.546 118.173 148.245 117.914 147.767C117.667 147.288 117.36 146.612 116.991 145.737ZM109.916 143.973C109.916 144.752 110.059 145.326 110.346 145.696C110.647 146.051 111.173 146.229 111.925 146.229C112.486 146.229 113.019 146.133 113.525 145.942C114.044 145.737 114.496 145.463 114.878 145.121C115.261 144.766 115.569 144.342 115.801 143.85C116.034 143.358 116.15 142.811 116.15 142.209C116.15 141.963 116.157 141.621 116.17 141.184C116.184 140.733 116.157 140.288 116.088 139.851C116.02 139.413 115.89 139.037 115.699 138.723C115.507 138.395 115.22 138.231 114.837 138.231C114.126 138.231 113.47 138.415 112.869 138.784C112.267 139.14 111.748 139.598 111.31 140.158C110.873 140.719 110.531 141.341 110.285 142.025C110.039 142.695 109.916 143.344 109.916 143.973ZM120.908 141.471C120.908 141.115 120.997 140.863 121.174 140.712C121.352 140.548 121.639 140.466 122.036 140.466H122.241C122.282 140.685 122.33 140.938 122.384 141.225C122.439 141.512 122.521 141.806 122.63 142.107C122.74 142.407 122.87 142.688 123.02 142.948C123.17 143.194 123.355 143.392 123.574 143.542C123.587 143.064 123.704 142.606 123.922 142.168C124.155 141.717 124.435 141.321 124.763 140.979C125.105 140.623 125.474 140.329 125.871 140.097C126.281 139.851 126.684 139.687 127.081 139.605H127.532C128.188 139.605 128.749 139.755 129.213 140.056C129.678 140.343 130.061 140.726 130.362 141.204C130.676 141.669 130.916 142.202 131.08 142.804C131.244 143.406 131.367 144.021 131.449 144.65C131.544 145.265 131.599 145.866 131.613 146.454C131.64 147.029 131.654 147.521 131.654 147.931H130.157C130.075 147.111 129.972 146.324 129.849 145.573C129.808 145.272 129.753 144.957 129.685 144.629C129.617 144.287 129.542 143.973 129.459 143.686C129.377 143.385 129.289 143.112 129.193 142.865C129.097 142.606 128.988 142.387 128.865 142.209C128.81 142.155 128.735 142.079 128.639 141.984C128.557 141.888 128.468 141.792 128.373 141.697C128.277 141.601 128.188 141.519 128.106 141.45C128.024 141.382 127.976 141.348 127.962 141.348C127.552 141.239 127.197 141.321 126.896 141.594C126.595 141.854 126.329 142.209 126.096 142.66C125.864 143.112 125.672 143.624 125.522 144.198C125.385 144.773 125.269 145.326 125.173 145.86C125.078 146.379 125.009 146.837 124.968 147.234C124.927 147.616 124.9 147.849 124.886 147.931C124.544 148.177 124.223 148.252 123.922 148.156C123.622 148.047 123.334 147.828 123.061 147.5C122.801 147.172 122.562 146.762 122.343 146.27C122.138 145.778 121.947 145.258 121.769 144.711C121.591 144.151 121.427 143.59 121.277 143.03C121.14 142.469 121.017 141.949 120.908 141.471ZM50.3813 172.219C50.3813 171.371 50.5796 170.585 50.9761 169.861C51.3726 169.122 51.8921 168.493 52.5347 167.974C53.1909 167.441 53.9224 167.024 54.729 166.723C55.5493 166.422 56.3765 166.272 57.2104 166.272C57.6753 166.272 58.0854 166.422 58.4409 166.723C58.8101 167.024 59.1177 167.393 59.3638 167.83C59.6099 168.254 59.7944 168.705 59.9175 169.184C60.0542 169.662 60.1226 170.079 60.1226 170.435C60.1226 171.2 59.938 171.946 59.5688 172.67C59.1997 173.381 58.7212 174.017 58.1333 174.577C57.5454 175.124 56.8823 175.569 56.144 175.91C55.4058 176.252 54.6675 176.423 53.9292 176.423C53.2729 176.423 52.7192 176.314 52.2681 176.095C51.8169 175.863 51.4546 175.562 51.1812 175.193C50.9077 174.81 50.7026 174.365 50.5659 173.86C50.4429 173.34 50.3813 172.793 50.3813 172.219ZM52.1245 172.424C52.1245 172.78 52.1519 173.094 52.2065 173.367C52.2749 173.627 52.3843 173.853 52.5347 174.044C52.6987 174.236 52.9106 174.386 53.1704 174.495C53.4302 174.591 53.7515 174.639 54.1343 174.639C54.6401 174.639 55.146 174.502 55.6519 174.229C56.1577 173.942 56.6089 173.586 57.0054 173.162C57.4155 172.725 57.7437 172.246 57.9897 171.727C58.2358 171.207 58.3589 170.701 58.3589 170.209C58.3589 169.99 58.3384 169.751 58.2974 169.491C58.2563 169.232 58.188 168.992 58.0923 168.774C57.9966 168.555 57.8599 168.37 57.6821 168.22C57.5044 168.07 57.2788 167.994 57.0054 167.994C56.7593 167.994 56.4653 168.076 56.1235 168.24C55.7954 168.405 55.4468 168.616 55.0776 168.876C54.7222 169.136 54.3667 169.43 54.0112 169.758C53.6694 170.086 53.355 170.414 53.0679 170.742C52.7808 171.071 52.5483 171.385 52.3706 171.686C52.2065 171.987 52.1245 172.233 52.1245 172.424ZM69.269 178.289C68.9819 177.756 68.6606 177.093 68.3052 176.3C67.9634 175.493 67.6079 174.659 67.2388 173.798C66.8696 172.923 66.48 172.069 66.0698 171.235C65.6733 170.401 65.27 169.676 64.8599 169.061C64.6958 168.938 64.4702 168.863 64.1831 168.835C63.896 168.808 63.5952 168.801 63.2808 168.815C62.9663 168.815 62.6519 168.808 62.3374 168.794C62.0366 168.767 61.77 168.692 61.5376 168.569C61.3188 168.446 61.1548 168.254 61.0454 167.994C60.936 167.735 60.9155 167.359 60.9839 166.866H64.4292C64.4976 166.101 64.6138 165.342 64.7778 164.59C64.9419 163.838 65.1606 163.12 65.4341 162.437C65.7212 161.753 66.063 161.117 66.4595 160.53C66.856 159.942 67.3345 159.436 67.895 159.012C68.4556 158.588 69.0981 158.253 69.8228 158.007C70.561 157.761 71.395 157.638 72.3247 157.638C72.6528 157.638 72.981 157.72 73.3091 157.884C73.6372 158.034 73.9312 158.24 74.1909 158.499C74.4507 158.759 74.6558 159.053 74.8062 159.381C74.9702 159.709 75.0522 160.037 75.0522 160.365C74.7925 160.365 74.5601 160.318 74.355 160.222C74.1499 160.113 73.9517 159.996 73.7603 159.873C73.5688 159.737 73.3638 159.614 73.145 159.504C72.9263 159.381 72.6802 159.32 72.4067 159.32C71.5864 159.32 70.8208 159.484 70.1099 159.812C69.4126 160.14 68.7974 160.577 68.2642 161.124C67.7446 161.671 67.3345 162.307 67.0337 163.031C66.7329 163.756 66.5825 164.522 66.5825 165.328C66.5825 165.383 66.5825 165.486 66.5825 165.636C66.5962 165.773 66.603 165.923 66.603 166.087C66.603 166.251 66.603 166.408 66.603 166.559C66.6167 166.709 66.6235 166.812 66.6235 166.866C67.1294 167.031 67.6968 167.154 68.3257 167.236C68.9546 167.318 69.5835 167.372 70.2124 167.4C70.855 167.413 71.4702 167.406 72.0581 167.379C72.6597 167.352 73.1929 167.318 73.6577 167.277C73.6987 167.318 73.7739 167.393 73.8833 167.502C73.9927 167.612 74.0542 167.694 74.0679 167.748C74.0679 167.789 74.0747 167.817 74.0884 167.83C74.1157 167.912 74.1294 167.953 74.1294 167.953C74.1294 168.24 73.979 168.466 73.6782 168.63C73.3774 168.794 72.9946 168.917 72.5298 168.999C72.0649 169.068 71.5454 169.115 70.9712 169.143C70.4106 169.17 69.8638 169.198 69.3306 169.225C68.811 169.239 68.3394 169.266 67.9155 169.307C67.5054 169.334 67.2183 169.396 67.0542 169.491C67.2319 170.312 67.5464 171.105 67.9976 171.87C68.4624 172.636 68.9341 173.402 69.4126 174.167C69.8911 174.933 70.3149 175.705 70.6841 176.485C71.0532 177.264 71.2378 178.064 71.2378 178.884C71.1831 178.884 71.0532 178.884 70.8481 178.884C70.6567 178.898 70.4517 178.891 70.2329 178.864C70.0142 178.836 69.8022 178.775 69.5972 178.679C69.4058 178.597 69.2964 178.467 69.269 178.289ZM84.855 168.815C84.855 167.489 85.1626 166.504 85.7778 165.862C86.3931 165.219 87.3364 164.898 88.6079 164.898C89.1274 164.898 89.6606 164.946 90.2075 165.041C90.7681 165.137 91.2808 165.308 91.7456 165.554C92.2104 165.786 92.5864 166.115 92.8735 166.538C93.1743 166.962 93.3247 167.509 93.3247 168.179C93.3247 168.917 93.1606 169.615 92.8325 170.271C92.5181 170.913 92.1147 171.522 91.6226 172.096C91.144 172.656 90.6108 173.183 90.0229 173.675C89.4487 174.154 88.9087 174.612 88.4028 175.049C88.3755 175.104 88.3481 175.22 88.3208 175.398C88.3071 175.562 88.3003 175.671 88.3003 175.726C88.3003 176.177 88.4302 176.628 88.6899 177.079C88.9634 177.544 89.2573 178.009 89.5718 178.474C89.8862 178.952 90.1733 179.445 90.4331 179.95C90.6929 180.456 90.8228 180.983 90.8228 181.53C90.8228 181.858 90.7544 182.049 90.6177 182.104C90.481 182.172 90.1938 182.206 89.7563 182.206C89.4829 182.097 89.2095 181.837 88.936 181.427C88.6763 181.031 88.4097 180.538 88.1362 179.95C87.8765 179.363 87.6167 178.699 87.3569 177.961C87.1108 177.237 86.8716 176.498 86.6392 175.746C86.4204 174.981 86.2085 174.229 86.0034 173.49C85.812 172.739 85.6411 172.048 85.4907 171.419C85.3403 170.79 85.2036 170.25 85.0806 169.799C84.9712 169.334 84.896 169.006 84.855 168.815ZM86.5981 168.999C86.5981 169.204 86.6118 169.505 86.6392 169.902C86.6665 170.284 86.7212 170.667 86.8032 171.05C86.8989 171.433 87.0356 171.768 87.2134 172.055C87.3911 172.328 87.6372 172.465 87.9517 172.465C88.3755 172.465 88.7993 172.322 89.2231 172.034C89.6606 171.747 90.0435 171.385 90.3716 170.948C90.7134 170.51 90.9868 170.045 91.1919 169.553C91.4106 169.047 91.52 168.589 91.52 168.179C91.52 167.837 91.438 167.571 91.2739 167.379C91.1099 167.174 90.8979 167.017 90.6382 166.907C90.3921 166.784 90.1255 166.709 89.8384 166.682C89.5513 166.641 89.2778 166.62 89.0181 166.62C88.2388 166.62 87.6372 166.832 87.2134 167.256C86.8032 167.666 86.5981 168.247 86.5981 168.999ZM94.5347 172.219C94.5347 171.371 94.7329 170.585 95.1294 169.861C95.5259 169.122 96.0454 168.493 96.688 167.974C97.3442 167.441 98.0757 167.024 98.8823 166.723C99.7026 166.422 100.53 166.272 101.364 166.272C101.829 166.272 102.239 166.422 102.594 166.723C102.963 167.024 103.271 167.393 103.517 167.83C103.763 168.254 103.948 168.705 104.071 169.184C104.208 169.662 104.276 170.079 104.276 170.435C104.276 171.2 104.091 171.946 103.722 172.67C103.353 173.381 102.875 174.017 102.287 174.577C101.699 175.124 101.036 175.569 100.297 175.91C99.5591 176.252 98.8208 176.423 98.0825 176.423C97.4263 176.423 96.8726 176.314 96.4214 176.095C95.9702 175.863 95.6079 175.562 95.3345 175.193C95.061 174.81 94.856 174.365 94.7192 173.86C94.5962 173.34 94.5347 172.793 94.5347 172.219ZM96.2778 172.424C96.2778 172.78 96.3052 173.094 96.3599 173.367C96.4282 173.627 96.5376 173.853 96.688 174.044C96.8521 174.236 97.064 174.386 97.3237 174.495C97.5835 174.591 97.9048 174.639 98.2876 174.639C98.7935 174.639 99.2993 174.502 99.8052 174.229C100.311 173.942 100.762 173.586 101.159 173.162C101.569 172.725 101.897 172.246 102.143 171.727C102.389 171.207 102.512 170.701 102.512 170.209C102.512 169.99 102.492 169.751 102.451 169.491C102.41 169.232 102.341 168.992 102.246 168.774C102.15 168.555 102.013 168.37 101.835 168.22C101.658 168.07 101.432 167.994 101.159 167.994C100.913 167.994 100.619 168.076 100.277 168.24C99.9487 168.405 99.6001 168.616 99.231 168.876C98.8755 169.136 98.52 169.43 98.1646 169.758C97.8228 170.086 97.5083 170.414 97.2212 170.742C96.9341 171.071 96.7017 171.385 96.5239 171.686C96.3599 171.987 96.2778 172.233 96.2778 172.424ZM109.054 175.972C108.835 176.163 108.603 176.074 108.357 175.705C108.125 175.336 107.885 174.782 107.639 174.044C107.393 173.292 107.147 172.397 106.901 171.358C106.668 170.319 106.443 169.218 106.224 168.056C106.005 166.894 105.793 165.718 105.588 164.529C105.397 163.325 105.226 162.198 105.076 161.145C105.076 160.953 105.069 160.762 105.055 160.571C105.055 160.365 105.076 160.181 105.117 160.017C105.171 159.839 105.26 159.682 105.383 159.545C105.52 159.408 105.725 159.306 105.999 159.238C106.026 159.224 106.081 159.238 106.163 159.279C106.258 159.306 106.354 159.347 106.45 159.402C106.545 159.443 106.627 159.49 106.696 159.545C106.778 159.6 106.833 159.648 106.86 159.689C106.682 162.245 106.976 164.734 107.742 167.154C107.783 167.113 107.892 166.976 108.07 166.743C108.248 166.497 108.473 166.217 108.747 165.903C109.02 165.574 109.328 165.226 109.669 164.857C110.025 164.488 110.394 164.146 110.777 163.831C111.16 163.517 111.542 163.257 111.925 163.052C112.308 162.833 112.677 162.724 113.033 162.724C113.238 162.724 113.436 162.772 113.627 162.867C113.833 162.963 113.935 163.148 113.935 163.421C113.935 163.448 113.928 163.49 113.915 163.544C113.901 163.585 113.894 163.619 113.894 163.647C113.675 163.838 113.34 164.132 112.889 164.529C112.452 164.925 111.987 165.369 111.495 165.862C111.002 166.354 110.531 166.866 110.08 167.4C109.628 167.933 109.287 168.439 109.054 168.917C109.013 168.999 109 169.074 109.013 169.143C109.027 169.198 109.041 169.266 109.054 169.348C109.205 169.403 109.444 169.485 109.772 169.594C110.1 169.703 110.462 169.833 110.859 169.984C111.255 170.12 111.679 170.271 112.13 170.435C112.582 170.585 113.005 170.736 113.402 170.886C113.798 171.036 114.154 171.173 114.468 171.296C114.796 171.406 115.042 171.488 115.207 171.542C115.398 171.624 115.555 171.679 115.678 171.706C115.801 171.734 115.897 171.775 115.965 171.829C116.034 171.87 116.082 171.932 116.109 172.014C116.136 172.096 116.15 172.219 116.15 172.383C116.15 172.78 116.054 173.039 115.863 173.162C115.671 173.285 115.398 173.347 115.042 173.347C113.99 173.279 112.958 173.06 111.946 172.691C110.934 172.308 109.909 171.85 108.87 171.317C108.829 171.576 108.842 171.877 108.911 172.219C108.993 172.561 109.088 172.903 109.198 173.244C109.307 173.586 109.41 173.921 109.505 174.249C109.615 174.577 109.676 174.871 109.69 175.131C109.717 175.391 109.69 175.596 109.608 175.746C109.526 175.897 109.341 175.972 109.054 175.972ZM116.95 170.681C116.95 169.943 117.039 169.204 117.216 168.466C117.394 167.728 117.674 167.065 118.057 166.477C118.454 165.889 118.959 165.41 119.575 165.041C120.204 164.672 120.962 164.488 121.851 164.488C122.357 164.488 122.801 164.583 123.184 164.775C123.567 164.952 123.888 165.192 124.148 165.492C124.408 165.793 124.599 166.149 124.722 166.559C124.859 166.955 124.927 167.372 124.927 167.81C124.927 168.507 124.763 169.184 124.435 169.84C124.121 170.496 123.69 171.077 123.143 171.583C122.61 172.075 121.995 172.451 121.297 172.711C120.6 172.957 119.889 173.012 119.165 172.875C119.178 173.272 119.308 173.593 119.554 173.839C119.814 174.072 120.122 174.249 120.477 174.372C120.833 174.495 121.202 174.577 121.584 174.618C121.967 174.646 122.309 174.659 122.61 174.659C122.924 174.659 123.218 174.632 123.492 174.577C123.765 174.523 124.039 174.461 124.312 174.393C124.585 174.324 124.859 174.263 125.132 174.208C125.419 174.154 125.72 174.126 126.035 174.126C126.158 174.126 126.281 174.133 126.404 174.147C126.527 174.16 126.643 174.195 126.752 174.249C126.862 174.29 126.951 174.365 127.019 174.475C127.087 174.571 127.122 174.694 127.122 174.844C127.122 175.104 127.026 175.323 126.834 175.5C126.643 175.664 126.397 175.808 126.096 175.931C125.809 176.054 125.488 176.15 125.132 176.218C124.777 176.273 124.428 176.321 124.086 176.362C123.758 176.389 123.451 176.403 123.164 176.403C122.89 176.416 122.685 176.423 122.548 176.423C121.673 176.423 120.887 176.286 120.19 176.013C119.493 175.726 118.905 175.336 118.426 174.844C117.948 174.338 117.579 173.737 117.319 173.039C117.073 172.328 116.95 171.542 116.95 170.681ZM119.124 169.348C119.124 169.826 119.185 170.175 119.308 170.394C119.445 170.613 119.766 170.722 120.272 170.722C120.627 170.722 120.976 170.66 121.318 170.537C121.66 170.401 121.967 170.216 122.241 169.984C122.528 169.751 122.753 169.478 122.917 169.163C123.082 168.849 123.164 168.507 123.164 168.138C123.164 167.933 123.143 167.721 123.102 167.502C123.075 167.283 123.006 167.085 122.897 166.907C122.788 166.716 122.644 166.566 122.466 166.456C122.302 166.333 122.083 166.272 121.81 166.272C121.4 166.272 121.024 166.367 120.682 166.559C120.354 166.737 120.074 166.976 119.841 167.277C119.609 167.564 119.431 167.892 119.308 168.261C119.185 168.616 119.124 168.979 119.124 169.348ZM128.393 167.769C128.393 167.646 128.4 167.523 128.414 167.4C128.427 167.263 128.455 167.147 128.496 167.051C128.537 166.942 128.598 166.853 128.68 166.784C128.776 166.716 128.906 166.682 129.07 166.682C129.207 166.682 129.357 166.791 129.521 167.01C129.699 167.215 129.876 167.482 130.054 167.81C130.232 168.124 130.403 168.473 130.567 168.856C130.745 169.239 130.895 169.594 131.018 169.922C131.155 170.237 131.264 170.51 131.346 170.742C131.428 170.975 131.476 171.098 131.49 171.112C131.667 170.633 131.866 170.114 132.084 169.553C132.303 168.992 132.57 168.473 132.884 167.994C133.212 167.502 133.595 167.092 134.033 166.764C134.484 166.436 135.031 166.272 135.673 166.272C136.001 166.272 136.309 166.326 136.596 166.436C136.897 166.531 137.157 166.682 137.375 166.887C137.608 167.078 137.792 167.311 137.929 167.584C138.066 167.858 138.134 168.172 138.134 168.528C138.134 168.828 138.011 169.04 137.765 169.163C137.533 169.286 137.266 169.348 136.965 169.348H136.76L135.878 168.466C135.851 168.466 135.831 168.459 135.817 168.446C135.79 168.446 135.762 168.446 135.735 168.446C135.721 168.432 135.701 168.425 135.673 168.425C135.195 168.425 134.819 168.562 134.545 168.835C134.286 169.095 134.087 169.423 133.951 169.82C133.814 170.202 133.725 170.613 133.684 171.05C133.657 171.474 133.643 171.864 133.643 172.219C133.643 172.492 133.67 172.773 133.725 173.06C133.78 173.333 133.841 173.607 133.91 173.88C133.978 174.14 134.04 174.413 134.094 174.7C134.149 174.974 134.176 175.261 134.176 175.562C134.176 176.136 133.869 176.423 133.253 176.423C132.912 176.423 132.556 176.245 132.187 175.89C131.818 175.521 131.449 175.056 131.08 174.495C130.724 173.935 130.382 173.32 130.054 172.65C129.726 171.966 129.439 171.303 129.193 170.66C128.947 170.018 128.749 169.437 128.598 168.917C128.461 168.398 128.393 168.015 128.393 167.769Z" fill="black"/>
</g>
<defs>
<clipPath id="clip0_113_15767">
<rect width="177.052" height="496.889" fill="white" transform="translate(4.28516 4.28564)"/>
</clipPath>
</defs>
</svg>
