<svg width="254" height="148" viewBox="0 0 254 148" fill="none" xmlns="http://www.w3.org/2000/svg">
<path d="M26.2217 74.2549C26.2217 73.9079 26.2217 73.4007 26.2217 72.7334C26.2217 72.0394 26.2884 71.3587 26.4219 70.6914C26.5553 69.9974 26.7689 69.3968 27.0625 68.8896C27.3561 68.3825 27.8099 68.1289 28.4238 68.1289C28.7708 68.1289 29.0511 68.4359 29.2646 69.0498C29.5049 69.637 29.6917 70.3844 29.8252 71.292C29.9854 72.1729 30.0921 73.1605 30.1455 74.2549C30.2256 75.3226 30.279 76.3369 30.3057 77.2979C30.359 78.2588 30.3991 79.0996 30.4258 79.8203C30.4525 80.5143 30.4925 80.9414 30.5459 81.1016C30.626 81.5286 30.7728 82.1693 30.9863 83.0234C31.2266 83.8776 31.4801 84.8519 31.7471 85.9463C32.014 87.014 32.3076 88.1351 32.6279 89.3096C32.9482 90.484 33.2419 91.6051 33.5088 92.6729C33.8024 93.7406 34.0693 94.7015 34.3096 95.5557C34.5498 96.4098 34.7367 97.0238 34.8701 97.3975C34.8701 97.4508 34.8835 97.5309 34.9102 97.6377C34.9368 97.7445 34.9502 97.8245 34.9502 97.8779C34.9502 98.1715 34.8434 98.4118 34.6299 98.5986C34.443 98.7588 34.2028 98.8923 33.9092 98.999C33.6423 99.0791 33.362 99.1325 33.0684 99.1592C32.7747 99.1859 32.5078 99.1992 32.2676 99.1992C32.1608 99.1992 32.0007 99.1859 31.7871 99.1592C31.6003 99.1325 31.4801 99.1191 31.4268 99.1191C30.8662 97.2507 30.2656 95.2887 29.625 93.2334C29.0111 91.1514 28.4505 89.0426 27.9434 86.9072C27.4362 84.7718 27.0225 82.6364 26.7021 80.501C26.3818 78.3389 26.2217 76.2568 26.2217 74.2549ZM128.802 96.8369C128.855 96.6501 128.935 96.3164 129.042 95.8359C129.175 95.3555 129.296 94.8483 129.402 94.3145C129.536 93.7539 129.656 93.2467 129.763 92.793C129.869 92.3125 129.95 91.9788 130.003 91.792C130.19 91.0446 130.47 90.0169 130.844 88.709C131.217 87.3743 131.671 85.9596 132.205 84.4648C132.766 82.9434 133.393 81.4219 134.087 79.9004C134.808 78.3522 135.595 77.0042 136.449 75.8564C137.33 74.682 138.278 73.7878 139.292 73.1738C140.306 72.5599 141.401 72.4131 142.575 72.7334C142.201 74.2282 141.721 75.6429 141.134 76.9775C140.573 78.2855 139.959 79.5801 139.292 80.8613C138.651 82.1159 137.984 83.3704 137.29 84.625C136.623 85.8529 135.969 87.1074 135.328 88.3887C134.688 89.6699 134.1 91.0046 133.566 92.3926C133.059 93.7806 132.659 95.262 132.365 96.8369C132.232 97.611 131.978 98.0648 131.604 98.1982C131.231 98.305 130.804 98.2917 130.323 98.1582C129.976 98.0781 129.656 97.958 129.362 97.7979C129.069 97.6377 128.882 97.3174 128.802 96.8369ZM161.554 95.2754C161.554 93.7272 161.941 92.3525 162.715 91.1514C163.489 89.9502 164.45 88.9092 165.598 88.0283C166.745 87.1208 167.987 86.36 169.321 85.7461C170.656 85.1055 171.897 84.585 173.045 84.1846C174.193 83.7575 175.154 83.4238 175.928 83.1836C176.702 82.9167 177.089 82.7031 177.089 82.543C177.089 81.6087 177.035 80.7012 176.929 79.8203C176.849 78.9128 176.755 78.0052 176.648 77.0977C176.542 76.1901 176.435 75.2959 176.328 74.415C176.248 73.5075 176.208 72.6133 176.208 71.7324V69.1299C177.302 68.7295 178.076 68.7695 178.53 69.25C179.011 69.7305 179.091 70.5579 178.771 71.7324C178.877 72.3197 179.024 73.2406 179.211 74.4951C179.398 75.7497 179.598 77.1644 179.812 78.7393C180.052 80.3141 180.292 81.9691 180.532 83.7041C180.799 85.4391 181.039 87.1074 181.253 88.709C181.493 90.2839 181.693 91.6986 181.854 92.9531C182.014 94.181 182.134 95.1019 182.214 95.7158C182.241 95.8493 182.267 96.1162 182.294 96.5166C182.321 96.8903 182.334 97.304 182.334 97.7578C182.361 98.1849 182.374 98.5853 182.374 98.959C182.401 99.3327 182.414 99.5996 182.414 99.7598C181.4 99.7598 180.706 99.7197 180.332 99.6396C179.985 99.5596 179.758 99.3994 179.651 99.1592C179.571 98.9189 179.531 98.5719 179.531 98.1182C179.531 97.6644 179.398 97.0371 179.131 96.2363C178.143 97.0104 177.209 97.651 176.328 98.1582C175.447 98.6654 174.566 99.0791 173.686 99.3994C172.805 99.693 171.91 99.8932 171.003 100C170.122 100.133 169.174 100.2 168.16 100.2C167.306 100.2 166.479 100.133 165.678 100C164.904 99.8398 164.21 99.5729 163.596 99.1992C162.982 98.8255 162.488 98.3184 162.114 97.6777C161.741 97.0371 161.554 96.2363 161.554 95.2754ZM165.037 94.4346C165.037 94.8617 165.131 95.2087 165.317 95.4756C165.504 95.7425 165.744 95.9694 166.038 96.1562C166.332 96.3431 166.639 96.4766 166.959 96.5566C167.306 96.61 167.64 96.6367 167.96 96.6367C168.894 96.6367 169.895 96.4632 170.963 96.1162C172.057 95.7425 173.058 95.2354 173.966 94.5947C174.9 93.9274 175.661 93.14 176.248 92.2324C176.862 91.3249 177.169 90.3372 177.169 89.2695C177.169 88.4421 177.022 87.8682 176.729 87.5479C176.435 87.2275 175.874 87.0674 175.047 87.0674C174.193 87.0674 173.192 87.2676 172.044 87.668C170.923 88.0684 169.828 88.6022 168.761 89.2695C167.72 89.9368 166.839 90.7243 166.118 91.6318C165.397 92.5127 165.037 93.4469 165.037 94.4346ZM201.993 94.835C200.979 95.529 200.098 96.1562 199.351 96.7168C198.63 97.2507 197.923 97.7044 197.229 98.0781C196.535 98.4518 195.787 98.7321 194.986 98.9189C194.212 99.1058 193.251 99.1992 192.104 99.1992C189.621 99.1992 187.779 98.5452 186.578 97.2373C185.377 95.9027 184.776 93.9274 184.776 91.3115C184.776 90.2972 184.91 89.2428 185.177 88.1484C185.444 87.054 185.831 85.973 186.338 84.9053C186.872 83.8109 187.499 82.7832 188.22 81.8223C188.94 80.8346 189.755 79.9671 190.662 79.2197C191.57 78.4723 192.531 77.8851 193.545 77.458C194.586 77.0042 195.68 76.7773 196.828 76.7773C198.75 76.9642 200.258 77.4447 201.353 78.2188C202.447 78.9661 203.274 79.9404 203.835 81.1416C204.396 82.3161 204.783 83.6374 204.996 85.1055C205.21 86.5469 205.37 88.0417 205.477 89.5898C205.61 91.138 205.77 92.6862 205.957 94.2344C206.144 95.7826 206.531 97.2106 207.118 98.5186C206.771 99.3994 206.438 100.013 206.117 100.36C205.824 100.734 205.49 100.801 205.116 100.561C204.743 100.32 204.302 99.7331 203.795 98.7988C203.314 97.8646 202.714 96.5433 201.993 94.835ZM188.18 91.3916C188.18 92.9131 188.46 94.0342 189.021 94.7549C189.608 95.4489 190.635 95.7959 192.104 95.7959C193.198 95.7959 194.239 95.609 195.227 95.2354C196.241 94.835 197.122 94.3011 197.869 93.6338C198.617 92.9398 199.217 92.1123 199.671 91.1514C200.125 90.1904 200.352 89.1227 200.352 87.9482C200.352 87.4678 200.365 86.8005 200.392 85.9463C200.418 85.0654 200.365 84.1979 200.231 83.3438C200.098 82.4896 199.844 81.7555 199.471 81.1416C199.097 80.501 198.536 80.1807 197.789 80.1807C196.401 80.1807 195.12 80.541 193.945 81.2617C192.771 81.9557 191.757 82.8499 190.902 83.9443C190.048 85.0387 189.381 86.2533 188.9 87.5879C188.42 88.8958 188.18 90.1637 188.18 91.3916ZM208.96 79.2998C208.96 79.0596 208.96 78.8193 208.96 78.5791C208.987 78.3122 209.04 78.0719 209.12 77.8584C209.227 77.6182 209.36 77.4447 209.521 77.3379C209.707 77.2044 209.974 77.1377 210.321 77.1377C210.348 77.1377 210.375 77.1377 210.401 77.1377C210.455 77.1377 210.508 77.1377 210.562 77.1377C210.642 77.1644 210.708 77.1777 210.762 77.1777C211.269 77.8717 211.709 78.766 212.083 79.8604C212.457 80.9281 212.817 82.0758 213.164 83.3037C213.511 84.5049 213.885 85.7327 214.285 86.9873C214.686 88.2152 215.206 89.3229 215.847 90.3105C216.487 91.2982 217.275 92.0856 218.209 92.6729C219.143 93.2601 220.304 93.5137 221.692 93.4336C222.306 93.4336 222.707 93.0999 222.894 92.4326C223.08 91.7653 223.174 90.9111 223.174 89.8701C223.201 88.8291 223.174 87.6813 223.094 86.4268C223.04 85.1722 223.04 83.9844 223.094 82.8633C223.174 81.7155 223.374 80.7145 223.694 79.8604C224.041 79.0062 224.629 78.4323 225.456 78.1387C225.803 78.8327 226.083 79.9271 226.297 81.4219C226.537 82.89 226.711 84.5983 226.817 86.5469C226.924 88.4688 226.978 90.5641 226.978 92.833C226.978 95.0752 226.924 97.3174 226.817 99.5596C226.711 101.775 226.55 103.91 226.337 105.966C226.123 108.021 225.883 109.823 225.616 111.371C225.349 112.919 225.029 114.134 224.655 115.015C224.308 115.922 223.935 116.309 223.534 116.176C222.974 115.642 222.533 114.948 222.213 114.094C221.919 113.24 221.706 112.292 221.572 111.251C221.465 110.21 221.425 109.102 221.452 107.928C221.479 106.78 221.519 105.619 221.572 104.444C221.652 103.27 221.732 102.122 221.812 101.001C221.919 99.8799 221.973 98.8522 221.973 97.918C221.012 97.998 220.024 97.8512 219.01 97.4775C218.022 97.1038 217.048 96.5299 216.087 95.7559C215.126 94.9551 214.205 93.9941 213.324 92.873C212.47 91.752 211.709 90.484 211.042 89.0693C210.401 87.6546 209.894 86.1331 209.521 84.5049C209.147 82.8499 208.96 81.1149 208.96 79.2998Z" fill="white"/>
<path d="M52 84.4082C52 68.7127 58.9758 52 81.5016 52C96.1798 52 108.736 65.3993 110.218 81.0075C112.021 99.9874 101.237 111.497 80.0483 113.852C65.4574 115.45 52 104.027 52 84.4082Z" fill="#FFE376"/>
<path d="M77.8684 110.16C72.6657 110.16 67.7536 108.3 63.8297 104.754C58.4816 99.9872 55.546 92.6626 55.546 84.1755C55.546 78.7693 56.5052 71.0378 61.0685 64.9049C65.5446 58.8593 72.4041 55.8074 81.4435 55.8074C94.0289 55.8074 105.335 67.2011 106.672 81.2108C108.242 97.7491 98.8538 107.98 80.2809 110.015C79.4961 110.131 78.6823 110.16 77.8684 110.16ZM81.4726 57.4641C74.1771 57.4641 57.2027 60.08 57.2027 84.2045C57.2027 92.2266 59.9349 99.0861 64.9342 103.562C69.1197 107.312 74.5259 109.027 80.1355 108.416C88.9134 107.457 95.5403 104.609 99.7839 100.016C104.027 95.4239 105.801 89.1457 105.074 81.3852C103.795 68.1894 93.2151 57.4641 81.4726 57.4641Z" fill="#30262A"/>
<path d="M65.8633 76.0586C66.0664 75.026 66.4388 74.2135 66.9805 73.6211C67.5221 73.0117 68.14 72.597 68.834 72.377C69.5449 72.1569 70.2982 72.1061 71.0938 72.2246C71.9062 72.3262 72.668 72.5716 73.3789 72.9609C74.1068 73.3503 74.7415 73.8581 75.2832 74.4844C75.8249 75.0938 76.2057 75.7962 76.4258 76.5918C76.6458 77.3704 76.6458 78.2168 76.4258 79.1309C76.2057 80.0449 75.7064 80.9844 74.9277 81.9492C75.5371 82.1693 76.1042 82.3893 76.6289 82.6094C77.1536 82.8294 77.5938 83.1003 77.9492 83.4219C78.3216 83.7435 78.6094 84.1328 78.8125 84.5898C79.0156 85.0469 79.1172 85.6139 79.1172 86.291C79.1172 86.8496 79.0156 87.4421 78.8125 88.0684C78.6094 88.6947 78.3216 89.3125 77.9492 89.9219C77.5938 90.5312 77.1706 91.1152 76.6797 91.6738C76.2057 92.2155 75.6895 92.6979 75.1309 93.1211C74.5723 93.5443 73.9967 93.8828 73.4043 94.1367C72.8288 94.3737 72.2617 94.4922 71.7031 94.4922C71.3307 94.4922 70.9668 94.2552 70.6113 93.7812C70.2559 93.3073 69.9089 92.681 69.5703 91.9023C69.2318 91.1237 68.9017 90.2266 68.5801 89.2109C68.2585 88.1953 67.9622 87.1458 67.6914 86.0625C67.4206 84.9622 67.1751 83.8789 66.9551 82.8125C66.735 81.7292 66.5404 80.7305 66.3711 79.8164C66.2188 78.9023 66.0918 78.1152 65.9902 77.4551C65.9056 76.778 65.8633 76.3125 65.8633 76.0586ZM70.3828 87.0527C70.3828 87.3405 70.4505 87.7214 70.5859 88.1953C70.7214 88.6693 70.8906 89.1432 71.0938 89.6172C71.3138 90.0911 71.5508 90.5312 71.8047 90.9375C72.0586 91.3268 72.3294 91.5892 72.6172 91.7246C72.8542 91.86 73.1335 91.8516 73.4551 91.6992C73.7767 91.5299 74.0983 91.276 74.4199 90.9375C74.7585 90.582 75.0801 90.1842 75.3848 89.7441C75.6895 89.2871 75.9603 88.8385 76.1973 88.3984C76.4512 87.9583 76.6458 87.5521 76.7812 87.1797C76.9336 86.7904 77.0098 86.4941 77.0098 86.291C77.0098 85.8509 76.9505 85.4954 76.832 85.2246C76.7135 84.9368 76.5358 84.7083 76.2988 84.5391C76.0788 84.3698 75.8079 84.2513 75.4863 84.1836C75.1816 84.1159 74.8431 84.082 74.4707 84.082C74.0475 84.082 73.599 84.1497 73.125 84.2852C72.651 84.4206 72.2109 84.6152 71.8047 84.8691C71.4154 85.123 71.0768 85.4362 70.7891 85.8086C70.5182 86.181 70.3828 86.5957 70.3828 87.0527ZM68.7578 78.4199C68.7578 78.7246 68.7493 79.1055 68.7324 79.5625C68.7155 80.0026 68.7155 80.4596 68.7324 80.9336C68.7493 81.4076 68.8001 81.8815 68.8848 82.3555C68.9694 82.8294 69.1217 83.2357 69.3418 83.5742C70.1712 83.4219 70.8906 83.1341 71.5 82.7109C72.1263 82.2878 72.6257 81.7969 72.998 81.2383C73.3874 80.6628 73.6667 80.0534 73.8359 79.4102C74.0052 78.7669 74.0645 78.1406 74.0137 77.5312C73.9798 76.9219 73.8359 76.3633 73.582 75.8555C73.3451 75.3477 73.0065 74.9583 72.5664 74.6875C72.1263 74.3997 71.5931 74.2559 70.9668 74.2559C70.3405 74.2559 69.6211 74.459 68.8086 74.8652C68.8086 75.0007 68.8001 75.2376 68.7832 75.5762C68.7832 75.9147 68.7747 76.2702 68.7578 76.6426C68.7578 77.015 68.7578 77.3704 68.7578 77.709C68.7578 78.0475 68.7578 78.2845 68.7578 78.4199ZM82.2636 77.0742C82.2636 76.9388 82.2721 76.7188 82.289 76.4141C82.289 76.0924 82.289 75.7624 82.289 75.4238C82.289 75.0684 82.2974 74.7383 82.3144 74.4336C82.3144 74.112 82.3144 73.8919 82.3144 73.7734C82.5006 73.418 82.7883 73.1641 83.1777 73.0117C83.5839 72.8424 84.0155 72.7324 84.4726 72.6816C84.9465 72.6139 85.4036 72.5885 85.8437 72.6055C86.3007 72.6224 86.6731 72.6309 86.9609 72.6309C87.3333 72.6309 87.7649 72.6478 88.2558 72.6816C88.7636 72.7155 89.2629 72.7832 89.7538 72.8848C90.2616 72.9694 90.761 73.1048 91.2519 73.291C91.7428 73.4603 92.1744 73.6888 92.5468 73.9766C92.9361 74.2474 93.2408 74.5859 93.4609 74.9922C93.6978 75.3815 93.8163 75.847 93.8163 76.3887C93.8163 77.0319 93.664 77.6159 93.3593 78.1406C93.0546 78.6484 92.6737 79.1309 92.2167 79.5879C91.7766 80.028 91.2857 80.4427 90.7441 80.832C90.2193 81.2214 89.7284 81.6022 89.2714 81.9746C88.8313 82.347 88.4589 82.7279 88.1542 83.1172C87.8495 83.5065 87.6972 83.9297 87.6972 84.3867C87.6972 84.4206 87.7057 84.4714 87.7226 84.5391C87.7564 84.5898 87.7734 84.6237 87.7734 84.6406C89.7708 85.2331 91.7089 85.9525 93.5878 86.7988C95.4836 87.6452 97.3456 88.5592 99.1737 89.541C99.2245 89.5749 99.2753 89.6426 99.3261 89.7441C99.3938 89.8288 99.453 89.9388 99.5038 90.0742C99.5546 90.1927 99.6054 90.3027 99.6562 90.4043C99.707 90.5059 99.7323 90.5905 99.7323 90.6582C99.7323 90.8105 99.69 90.929 99.6054 91.0137C99.5208 91.0814 99.4192 91.1406 99.3007 91.1914C99.1822 91.2253 99.0637 91.2422 98.9452 91.2422C98.8267 91.2422 98.7252 91.2422 98.6405 91.2422C97.7265 91.2422 96.8124 91.0475 95.8984 90.6582C95.0012 90.252 94.0956 89.8034 93.1816 89.3125C92.2675 88.8216 91.3365 88.373 90.3886 87.9668C89.4576 87.5605 88.4843 87.3574 87.4687 87.3574H86.6562C86.927 87.9837 87.164 88.5423 87.3671 89.0332C87.5872 89.5241 87.7649 89.998 87.9003 90.4551C88.0527 90.9121 88.1627 91.3776 88.2304 91.8516C88.315 92.3086 88.3573 92.8079 88.3573 93.3496C88.3573 93.4681 88.3573 93.612 88.3573 93.7812C88.3573 93.9336 88.3489 94.0944 88.332 94.2637C88.315 94.4329 88.2642 94.5853 88.1796 94.7207C88.095 94.8561 87.9596 94.9492 87.7734 95C87.0793 94.5938 86.453 93.9674 85.8945 93.1211C85.3528 92.2578 84.8788 91.276 84.4726 90.1758C84.0663 89.0755 83.7193 87.9076 83.4316 86.6719C83.1607 85.4362 82.9322 84.2259 82.746 83.041C82.5767 81.8392 82.4498 80.722 82.3652 79.6895C82.2974 78.64 82.2636 77.7682 82.2636 77.0742ZM84.4472 78.6738C84.4472 78.8939 84.4303 79.1816 84.3964 79.5371C84.3795 79.8757 84.3795 80.2311 84.3964 80.6035C84.4133 80.959 84.4641 81.306 84.5487 81.6445C84.6503 81.9661 84.8111 82.2454 85.0312 82.4824C85.065 82.4993 85.0989 82.5078 85.1327 82.5078C85.1497 82.5247 85.192 82.5332 85.2597 82.5332C85.5644 82.5332 85.9283 82.4401 86.3515 82.2539C86.7916 82.0677 87.2486 81.8223 87.7226 81.5176C88.1965 81.2129 88.662 80.8659 89.1191 80.4766C89.593 80.0703 90.0162 79.6556 90.3886 79.2324C90.761 78.8092 91.0572 78.3861 91.2773 77.9629C91.5142 77.5228 91.6327 77.125 91.6327 76.7695C91.6327 76.431 91.5058 76.1432 91.2519 75.9062C90.998 75.6523 90.6933 75.4492 90.3378 75.2969C89.9823 75.1445 89.6099 75.0345 89.2206 74.9668C88.8482 74.8991 88.5435 74.8652 88.3066 74.8652C88.0188 74.8652 87.6803 74.8652 87.2909 74.8652C86.9016 74.8483 86.5123 74.8737 86.123 74.9414C85.7506 74.9922 85.412 75.0938 85.1073 75.2461C84.8027 75.3984 84.5911 75.627 84.4726 75.9316C84.4726 76.0332 84.4726 76.2109 84.4726 76.4648C84.4726 76.7188 84.4726 76.998 84.4726 77.3027C84.4726 77.5905 84.4641 77.8613 84.4472 78.1152C84.4472 78.3691 84.4472 78.5553 84.4472 78.6738Z" fill="#525F46"/>
</svg>
