<svg width="186" height="506" viewBox="0 0 186 506" fill="none" xmlns="http://www.w3.org/2000/svg">
<rect width="185" height="505" transform="translate(0.156494 0.00195312)" fill="white"/>
<g clip-path="url(#clip0_137_7171)">
<rect width="177.052" height="496.889" transform="translate(4.43799 4.28516)" fill="#D0CECE"/>
<path d="M197.292 309.423L207.235 449.576C207.235 449.576 211.8 490.465 116.654 490.465C25.2451 490.465 29.9271 452.117 29.9271 452.117L39.5809 333.852L41.0782 308.205C41.6375 298.623 47.394 291.598 54.0552 289.155C59.155 289.155 63.6707 289.024 66.9869 289.155H174.667C186.513 289.155 196.365 297.983 197.292 309.423Z" fill="#B1B1B1" stroke="black" stroke-width="5.15476" stroke-miterlimit="10"/>
<path d="M62.0493 291.795C58.9827 294.281 57.8809 325.028 57.8809 340.593C54.6419 344.648 40.9926 353.59 40.5415 355.875C39.8051 359.606 37.214 389.557 37.2156 391.795C37.2165 393.108 51.99 414.311 51.99 417.173C51.99 420.035 51.6661 461.674 51.99 464.178C52.3139 466.683 66.6477 484.421 72.9771 485.815C81.8138 487.762 133.729 492.53 166.131 484.323C169.587 483.448 183.657 466.683 185.277 464.178C186.896 461.674 184.909 416.73 186.014 414.492C187.511 411.459 200.005 395.04 200.005 392.178C200.005 389.316 198.901 361.961 197.796 357.111C196.88 353.089 180.972 342.562 180.972 340.67C180.972 338.452 181.155 292.476 177.792 291.795C174.11 291.049 151.421 291.13 147.859 291.13C144.296 291.13 139.813 314.067 136.676 315.269C132.626 316.821 108.901 315.269 103.719 315.269C98.537 315.269 94.9918 292.416 91.3176 291.795C86.8992 291.049 63.8903 290.303 62.0493 291.795Z" fill="#E0E0E0"/>
<path d="M145.14 489.338C148.202 488.749 172.815 463.729 174.228 461.317C175.64 458.904 173.809 426.884 176.069 424.815L202.179 391.131M89.1741 488.232C83.6539 486.888 62.5781 463.729 62.2956 461.317C62.0132 458.904 61.9275 424.815 61.1911 424.815L35.4172 392.001" stroke="#B1B1B1" stroke-width="4.41837"/>
<path d="M197.302 309.425L207.245 449.577C207.245 449.577 211.81 490.466 116.664 490.466C25.2548 490.466 29.9369 452.119 29.9369 452.119L39.5907 333.854L41.0879 308.206C41.7399 297.039 49.1869 288.471 57.3909 289.157C61.1603 289.157 64.4863 289.156 66.9967 289.157H174.677C187.768 289.801 196.375 297.984 197.302 309.425Z" stroke="black" stroke-width="5.1796" stroke-miterlimit="10"/>
<path d="M27.71 288.694H55.9467C55.0181 325.856 40.1978 323.617 40.1978 323.617C40.1978 319.445 39.719 318.819 36.335 316.169L28.8811 311.634C28.2794 311.277 28.3117 310.425 28.9264 310.099L39.719 304.399L41.3689 303.578C43.1354 302.532 42.8507 301.336 41.8154 300.465C41.8025 300.459 41.796 300.446 41.7831 300.44C37.3573 296.807 27.0888 290.242 27.0888 290.242C26.4677 289.69 26.8688 288.694 27.71 288.694Z" fill="#B1B1B1"/>
<path d="M63.3722 289.137H45.5411H27.71C26.8688 289.137 26.4677 290.133 27.0888 290.684C27.0888 290.684 37.3573 297.249 41.783 300.882C41.796 300.888 41.8025 300.901 41.8154 300.907C42.8507 301.778 43.1354 302.974 41.3689 304.021L39.719 304.841L28.9264 310.542C28.3117 310.867 28.2794 311.719 28.8811 312.076L36.335 316.612C39.719 319.261 40.1978 319.888 40.1978 324.06" stroke="black" stroke-width="5.1796" stroke-miterlimit="10"/>
<path d="M89.7593 449.221C106.056 450.906 128.95 450.518 148.739 449.221" stroke="#150C0C" stroke-width="5.43237" stroke-linecap="round"/>
<path d="M118.573 274.946C25.6269 274.946 17.4753 344.126 17.4753 344.126H18.796C31.4104 313.738 56.9579 292.774 118.573 292.774C180.187 292.774 204.382 313.366 216.996 343.754L219.693 344.126C219.693 344.126 211.541 274.946 118.573 274.946Z" fill="black"/>
<path d="M118.13 251C2.1729 251 11.9121 341.909 11.9121 341.909H16.5214C29.781 306.611 53.399 274.947 118.13 274.947C182.862 274.947 209.292 308.231 218.863 341.909H224.371C224.371 341.909 234.088 251 118.13 251Z" fill="white" stroke="black" stroke-width="4.28803"/>
<path d="M11.6242 341.545C11.7717 339.779 17.9935 339.005 18.2198 341.836C18.3122 342.993 17.3933 358.491 17.3933 358.491L10.7978 358.2C10.7978 358.2 11.404 344.181 11.6242 341.545Z" fill="white" stroke="black" stroke-width="4.28803"/>
<path d="M17.8322 404.743C17.7199 405.968 18.5285 407.16 19.9637 407.915C24.0034 410.023 25.525 410.114 29.9049 408.512C31.4622 407.937 32.4795 406.855 32.5918 405.63C34.1552 388.588 35.7203 371.529 37.2837 354.487C37.396 353.262 36.5874 352.07 35.1521 351.316C31.1125 349.208 29.5909 349.117 25.211 350.718C23.6537 351.293 22.6364 352.376 22.5241 353.6C20.9606 370.642 19.3972 387.684 17.8322 404.743Z" fill="#020202" stroke="black" stroke-width="4.28803"/>
<path d="M3.5937 393.729C3.18277 398.208 7.35226 402.109 12.9078 402.443L18.3363 402.769L22.7598 354.551L17.3313 354.225C11.7758 353.891 6.9402 357.25 6.52927 361.73L3.5937 393.729Z" fill="white" stroke="black" stroke-width="4.28803"/>
<rect x="29.4478" y="355.261" width="178.877" height="49.6156" rx="23.7514" fill="black"/>
<rect x="34.02" y="360.484" width="169.738" height="39.1702" rx="19.5851" fill="#494949"/>
<rect x="41.1934" y="366.359" width="156.028" height="27.4192" rx="13.7096" fill="url(#paint0_linear_137_7171)"/>
<path d="M10.7143 78.8414C11.076 78.698 16.4267 76.2753 40.4192 76.5085C55.5895 76.6079 92.2815 78.6254 92.2815 78.6254C92.2815 78.6254 141.384 74.7007 142.966 74.9656C161.078 74.0641 171.236 77.8587 171.236 77.8587C171.236 77.8587 171.828 76.6111 172.894 77.7963C173.961 78.9815 171.236 97.8082 171.236 97.8082C171.236 97.8082 177.235 108.16 175.886 113.283C174.536 118.406 170.592 123.062 170.592 123.062C170.592 123.062 180.535 120.644 175.886 135.564C171.236 150.484 181.316 153.387 178.316 164.203C176.064 172.321 167.325 175.626 167.325 182.765C167.325 189.905 173.116 188.493 178.316 192.75C183.515 197.006 155.486 202.154 142.966 202.755C130.447 203.356 107.712 197.044 92.3182 201.632C76.924 206.221 56.3773 202.596 53.3094 202.755C50.2414 202.914 35.9254 201.485 32.4758 201.398C29.0646 201.462 14.941 200.782 13.2816 200.217C11.6792 199.564 10.9894 199.813 9.98134 198.849C7.38515 196.367 15.7464 185.621 15.7464 185.621L11.0288 157.531C11.0288 157.531 9.19568 156.886 8.3381 156.053C5.3677 153.168 16.634 150.484 16.634 150.484C16.634 150.484 16.9015 149.25 11.4989 146.935C6.09621 144.62 10.9459 123.062 10.9459 123.062C10.9459 123.062 14.328 118.847 14.5729 117.626C14.8177 116.405 15.5367 114.237 13.8573 113.283C12.1779 112.33 10.5309 111.446 9.98135 110.292C9.43181 109.138 14.5719 103.52 14.5719 103.52L14.5719 97.8082C14.5719 97.8082 10.3525 78.9848 10.7143 78.8414Z" fill="white" stroke="black" stroke-width="2.14176"/>
<path d="M70.367 111.739C69.8475 112.095 69.3963 112.416 69.0135 112.703C68.6444 112.977 68.2821 113.209 67.9266 113.4C67.5711 113.592 67.1883 113.735 66.7782 113.831C66.3817 113.927 65.8895 113.975 65.3016 113.975C64.0301 113.975 63.0868 113.64 62.4715 112.97C61.8563 112.286 61.5487 111.274 61.5487 109.935C61.5487 109.415 61.617 108.875 61.7538 108.314C61.8905 107.754 62.0887 107.2 62.3485 106.653C62.6219 106.093 62.9432 105.566 63.3124 105.074C63.6815 104.568 64.0985 104.124 64.5633 103.741C65.0282 103.358 65.5204 103.058 66.0399 102.839C66.5731 102.606 67.1336 102.49 67.7215 102.49C68.7059 102.586 69.4784 102.832 70.0389 103.229C70.5995 103.611 71.0233 104.11 71.3104 104.726C71.5975 105.327 71.7958 106.004 71.9051 106.756C72.0145 107.494 72.0965 108.26 72.1512 109.053C72.2196 109.846 72.3016 110.639 72.3973 111.432C72.493 112.225 72.6913 112.956 72.992 113.626C72.8143 114.077 72.6434 114.392 72.4793 114.569C72.329 114.761 72.1581 114.795 71.9667 114.672C71.7752 114.549 71.5497 114.248 71.2899 113.77C71.0438 113.291 70.7362 112.614 70.367 111.739ZM63.2918 109.976C63.2918 110.755 63.4354 111.329 63.7225 111.698C64.0233 112.054 64.5497 112.231 65.3016 112.231C65.8622 112.231 66.3954 112.136 66.9012 111.944C67.4208 111.739 67.8719 111.466 68.2547 111.124C68.6376 110.769 68.9452 110.345 69.1776 109.853C69.41 109.36 69.5262 108.813 69.5262 108.212C69.5262 107.966 69.5331 107.624 69.5467 107.187C69.5604 106.735 69.5331 106.291 69.4647 105.854C69.3963 105.416 69.2665 105.04 69.0751 104.726C68.8836 104.397 68.5965 104.233 68.2137 104.233C67.5028 104.233 66.8465 104.418 66.245 104.787C65.6434 105.143 65.1239 105.601 64.6864 106.161C64.2489 106.722 63.9071 107.344 63.661 108.027C63.4149 108.697 63.2918 109.347 63.2918 109.976ZM73.8329 111.965C73.8329 111.172 74.0311 110.468 74.4276 109.853C74.8241 109.237 75.3163 108.704 75.9042 108.253C76.492 107.788 77.1278 107.398 77.8114 107.084C78.495 106.756 79.1307 106.489 79.7186 106.284C80.3065 106.065 80.7987 105.895 81.1952 105.771C81.5917 105.635 81.7899 105.525 81.7899 105.443C81.7899 104.965 81.7626 104.5 81.7079 104.049C81.6668 103.584 81.619 103.119 81.5643 102.654C81.5096 102.189 81.4549 101.731 81.4002 101.28C81.3592 100.815 81.3387 100.357 81.3387 99.9062V98.5732C81.8993 98.3682 82.2958 98.3887 82.5282 98.6348C82.7743 98.8809 82.8153 99.3047 82.6512 99.9062C82.7059 100.207 82.7811 100.679 82.8768 101.321C82.9725 101.964 83.0751 102.688 83.1844 103.495C83.3075 104.302 83.4305 105.149 83.5536 106.038C83.6903 106.927 83.8133 107.781 83.9227 108.602C84.0458 109.408 84.1483 110.133 84.2303 110.775C84.3124 111.404 84.3739 111.876 84.4149 112.19C84.4286 112.259 84.4422 112.396 84.4559 112.601C84.4696 112.792 84.4764 113.004 84.4764 113.236C84.4901 113.455 84.4969 113.66 84.4969 113.852C84.5106 114.043 84.5174 114.18 84.5174 114.262C83.9979 114.262 83.6424 114.241 83.451 114.2C83.2733 114.159 83.1571 114.077 83.1024 113.954C83.0614 113.831 83.0409 113.653 83.0409 113.421C83.0409 113.188 82.9725 112.867 82.8358 112.457C82.3299 112.854 81.8514 113.182 81.4002 113.441C80.9491 113.701 80.4979 113.913 80.0467 114.077C79.5956 114.228 79.1376 114.33 78.6727 114.385C78.2215 114.453 77.7362 114.487 77.2167 114.487C76.7792 114.487 76.3553 114.453 75.9452 114.385C75.5487 114.303 75.1932 114.166 74.8788 113.975C74.5643 113.783 74.3114 113.523 74.12 113.195C73.9286 112.867 73.8329 112.457 73.8329 111.965ZM75.617 111.534C75.617 111.753 75.6649 111.931 75.7606 112.067C75.8563 112.204 75.9793 112.32 76.1297 112.416C76.2801 112.512 76.4374 112.58 76.6014 112.621C76.7792 112.648 76.9501 112.662 77.1141 112.662C77.5926 112.662 78.1053 112.573 78.6522 112.396C79.2127 112.204 79.7254 111.944 80.1903 111.616C80.6688 111.274 81.0584 110.871 81.3592 110.406C81.6737 109.941 81.8309 109.436 81.8309 108.889C81.8309 108.465 81.7557 108.171 81.6053 108.007C81.4549 107.843 81.1678 107.761 80.744 107.761C80.3065 107.761 79.7938 107.863 79.2059 108.068C78.6317 108.273 78.0711 108.547 77.5243 108.889C76.9911 109.23 76.5399 109.634 76.1708 110.099C75.8016 110.55 75.617 111.028 75.617 111.534ZM85.7274 108.684C85.7274 107.945 85.8163 107.207 85.994 106.469C86.1717 105.73 86.452 105.067 86.8348 104.479C87.2313 103.892 87.7372 103.413 88.3524 103.044C88.9813 102.675 89.7401 102.49 90.6288 102.49C91.1346 102.49 91.579 102.586 91.9618 102.777C92.3446 102.955 92.6659 103.194 92.9256 103.495C93.1854 103.796 93.3768 104.151 93.4999 104.562C93.6366 104.958 93.7049 105.375 93.7049 105.812C93.7049 106.51 93.5409 107.187 93.2127 107.843C92.8983 108.499 92.4676 109.08 91.9208 109.586C91.3876 110.078 90.7723 110.454 90.0751 110.714C89.3778 110.96 88.6668 111.015 87.9422 110.878C87.9559 111.274 88.0858 111.596 88.3319 111.842C88.5917 112.074 88.8993 112.252 89.2547 112.375C89.6102 112.498 89.9793 112.58 90.3622 112.621C90.745 112.648 91.0868 112.662 91.3876 112.662C91.702 112.662 91.9959 112.635 92.2694 112.58C92.5428 112.525 92.8163 112.464 93.0897 112.396C93.3631 112.327 93.6366 112.266 93.91 112.211C94.1971 112.156 94.4979 112.129 94.8124 112.129C94.9354 112.129 95.0584 112.136 95.1815 112.149C95.3045 112.163 95.4208 112.197 95.5301 112.252C95.6395 112.293 95.7284 112.368 95.7967 112.478C95.8651 112.573 95.8993 112.696 95.8993 112.847C95.8993 113.106 95.8036 113.325 95.6122 113.503C95.4208 113.667 95.1747 113.811 94.8739 113.934C94.5868 114.057 94.2655 114.152 93.91 114.221C93.5545 114.275 93.2059 114.323 92.8641 114.364C92.536 114.392 92.2284 114.405 91.9413 114.405C91.6678 114.419 91.4627 114.426 91.326 114.426C90.451 114.426 89.6649 114.289 88.9676 114.016C88.2704 113.729 87.6825 113.339 87.204 112.847C86.7254 112.341 86.3563 111.739 86.0965 111.042C85.8504 110.331 85.7274 109.545 85.7274 108.684ZM87.9012 107.351C87.9012 107.829 87.9627 108.178 88.0858 108.396C88.2225 108.615 88.5438 108.725 89.0497 108.725C89.4051 108.725 89.7538 108.663 90.0956 108.54C90.4374 108.403 90.745 108.219 91.0184 107.986C91.3055 107.754 91.5311 107.48 91.6952 107.166C91.8592 106.852 91.9413 106.51 91.9413 106.141C91.9413 105.936 91.9208 105.724 91.8797 105.505C91.8524 105.286 91.784 105.088 91.6747 104.91C91.5653 104.719 91.4217 104.568 91.244 104.459C91.0799 104.336 90.8612 104.274 90.5877 104.274C90.1776 104.274 89.8016 104.37 89.4598 104.562C89.1317 104.739 88.8514 104.979 88.619 105.279C88.3866 105.566 88.2088 105.895 88.0858 106.264C87.9627 106.619 87.9012 106.981 87.9012 107.351ZM97.1708 106.817C97.1708 105.491 97.4784 104.507 98.0936 103.864C98.7088 103.222 99.6522 102.9 100.924 102.9C101.443 102.9 101.976 102.948 102.523 103.044C103.084 103.14 103.597 103.311 104.061 103.557C104.526 103.789 104.902 104.117 105.189 104.541C105.49 104.965 105.64 105.512 105.64 106.182C105.64 106.92 105.476 107.617 105.148 108.273C104.834 108.916 104.431 109.524 103.938 110.099C103.46 110.659 102.927 111.186 102.339 111.678C101.765 112.156 101.224 112.614 100.719 113.052C100.691 113.106 100.664 113.223 100.637 113.4C100.623 113.564 100.616 113.674 100.616 113.729C100.616 114.18 100.746 114.631 101.006 115.082C101.279 115.547 101.573 116.012 101.888 116.477C102.202 116.955 102.489 117.447 102.749 117.953C103.009 118.459 103.139 118.985 103.139 119.532C103.139 119.86 103.07 120.052 102.933 120.106C102.797 120.175 102.51 120.209 102.072 120.209C101.799 120.1 101.525 119.84 101.252 119.43C100.992 119.033 100.725 118.541 100.452 117.953C100.192 117.365 99.9325 116.702 99.6727 115.964C99.4266 115.239 99.1874 114.501 98.9549 113.749C98.7362 112.983 98.5243 112.231 98.3192 111.493C98.1278 110.741 97.9569 110.051 97.8065 109.422C97.6561 108.793 97.5194 108.253 97.3963 107.802C97.287 107.337 97.2118 107.009 97.1708 106.817ZM98.9139 107.002C98.9139 107.207 98.9276 107.508 98.9549 107.904C98.9823 108.287 99.037 108.67 99.119 109.053C99.2147 109.436 99.3514 109.771 99.5292 110.058C99.7069 110.331 99.953 110.468 100.267 110.468C100.691 110.468 101.115 110.324 101.539 110.037C101.976 109.75 102.359 109.388 102.687 108.95C103.029 108.513 103.303 108.048 103.508 107.556C103.726 107.05 103.836 106.592 103.836 106.182C103.836 105.84 103.754 105.573 103.59 105.382C103.426 105.177 103.214 105.02 102.954 104.91C102.708 104.787 102.441 104.712 102.154 104.685C101.867 104.644 101.594 104.623 101.334 104.623C100.555 104.623 99.953 104.835 99.5292 105.259C99.119 105.669 98.9139 106.25 98.9139 107.002ZM106.399 104.049C106.399 104.008 106.406 103.974 106.42 103.946C106.42 103.919 106.427 103.885 106.44 103.844C106.495 103.775 106.577 103.687 106.686 103.577C106.796 103.468 106.864 103.413 106.891 103.413H111.014C111.014 103.263 110.993 103.023 110.952 102.695C110.911 102.367 110.87 102.005 110.829 101.608C110.802 101.212 110.795 100.802 110.808 100.378C110.822 99.9404 110.877 99.5508 110.973 99.209C111.082 98.8535 111.246 98.5664 111.465 98.3477C111.697 98.1152 112.018 97.999 112.429 97.999C112.429 99.3799 112.524 100.487 112.716 101.321C112.907 102.155 113.16 102.798 113.474 103.249C113.803 103.7 114.172 103.994 114.582 104.131C114.992 104.268 115.409 104.329 115.833 104.315C116.27 104.288 116.694 104.22 117.104 104.11C117.515 104.001 117.877 103.926 118.191 103.885C118.519 103.844 118.779 103.878 118.971 103.987C119.162 104.083 119.258 104.322 119.258 104.705C119.258 104.992 119.189 105.197 119.053 105.32C118.93 105.443 118.683 105.539 118.314 105.607C118.205 105.621 118.02 105.648 117.761 105.689C117.515 105.717 117.234 105.744 116.92 105.771C116.605 105.799 116.27 105.833 115.915 105.874C115.559 105.901 115.224 105.929 114.91 105.956C114.596 105.983 114.308 106.004 114.049 106.018C113.789 106.018 113.598 106.018 113.474 106.018C113.474 106.086 113.468 106.202 113.454 106.366C113.44 106.53 113.433 106.64 113.433 106.694C113.433 107.296 113.529 107.884 113.721 108.458C113.912 109.019 114.117 109.579 114.336 110.14C114.568 110.7 114.78 111.261 114.972 111.821C115.163 112.382 115.259 112.963 115.259 113.564C115.259 113.674 115.245 113.79 115.218 113.913C115.204 114.022 115.163 114.125 115.095 114.221C115.04 114.303 114.951 114.364 114.828 114.405C114.719 114.46 114.561 114.453 114.356 114.385C113.837 114.248 113.447 113.954 113.187 113.503C112.941 113.052 112.757 112.519 112.634 111.903C112.511 111.274 112.429 110.611 112.388 109.914C112.347 109.217 112.278 108.567 112.182 107.966C112.1 107.351 111.964 106.831 111.772 106.407C111.581 105.97 111.273 105.703 110.849 105.607L106.891 104.705C106.837 104.705 106.755 104.65 106.645 104.541C106.536 104.418 106.468 104.329 106.44 104.274C106.427 104.247 106.42 104.213 106.42 104.172C106.406 104.145 106.399 104.104 106.399 104.049ZM41.3895 139.222C41.3895 138.374 41.5877 137.588 41.9842 136.863C42.3807 136.125 42.9002 135.496 43.5428 134.977C44.1991 134.443 44.9305 134.026 45.7372 133.726C46.5575 133.425 47.3846 133.274 48.2186 133.274C48.6834 133.274 49.0936 133.425 49.4491 133.726C49.8182 134.026 50.1258 134.396 50.3719 134.833C50.618 135.257 50.8026 135.708 50.9256 136.187C51.0624 136.665 51.1307 137.082 51.1307 137.438C51.1307 138.203 50.9461 138.948 50.577 139.673C50.2079 140.384 49.7293 141.02 49.1415 141.58C48.5536 142.127 47.8905 142.571 47.1522 142.913C46.4139 143.255 45.6756 143.426 44.9374 143.426C44.2811 143.426 43.7274 143.316 43.2762 143.098C42.8251 142.865 42.4627 142.564 42.1893 142.195C41.9159 141.812 41.7108 141.368 41.5741 140.862C41.451 140.343 41.3895 139.796 41.3895 139.222ZM43.1327 139.427C43.1327 139.782 43.16 140.097 43.2147 140.37C43.2831 140.63 43.3924 140.855 43.5428 141.047C43.7069 141.238 43.9188 141.389 44.1786 141.498C44.4383 141.594 44.7596 141.642 45.1424 141.642C45.6483 141.642 46.1542 141.505 46.66 141.231C47.1659 140.944 47.617 140.589 48.0135 140.165C48.4237 139.728 48.7518 139.249 48.9979 138.729C49.244 138.21 49.367 137.704 49.367 137.212C49.367 136.993 49.3465 136.754 49.3055 136.494C49.2645 136.234 49.1961 135.995 49.1004 135.776C49.0047 135.558 48.868 135.373 48.6903 135.223C48.5126 135.072 48.287 134.997 48.0135 134.997C47.7674 134.997 47.4735 135.079 47.1317 135.243C46.8036 135.407 46.4549 135.619 46.0858 135.879C45.7303 136.139 45.3749 136.433 45.0194 136.761C44.6776 137.089 44.3631 137.417 44.076 137.745C43.7889 138.073 43.5565 138.388 43.3788 138.688C43.2147 138.989 43.1327 139.235 43.1327 139.427ZM60.2772 145.292C59.9901 144.759 59.6688 144.096 59.3133 143.303C58.9715 142.496 58.6161 141.662 58.2469 140.801C57.8778 139.926 57.4881 139.071 57.078 138.237C56.6815 137.403 56.2782 136.679 55.868 136.063C55.704 135.94 55.4784 135.865 55.1913 135.838C54.9042 135.811 54.6034 135.804 54.2889 135.817C53.9745 135.817 53.66 135.811 53.3456 135.797C53.0448 135.77 52.7782 135.694 52.5458 135.571C52.327 135.448 52.1629 135.257 52.0536 134.997C51.9442 134.737 51.9237 134.361 51.992 133.869H55.4374C55.5057 133.104 55.6219 132.345 55.786 131.593C55.9501 130.841 56.1688 130.123 56.4422 129.439C56.7293 128.756 57.0711 128.12 57.4676 127.532C57.8641 126.944 58.3426 126.438 58.9032 126.015C59.4637 125.591 60.1063 125.256 60.8309 125.01C61.5692 124.764 62.4032 124.641 63.3329 124.641C63.661 124.641 63.9891 124.723 64.3172 124.887C64.6454 125.037 64.9393 125.242 65.1991 125.502C65.4588 125.762 65.6639 126.056 65.8143 126.384C65.9784 126.712 66.0604 127.04 66.0604 127.368C65.8006 127.368 65.5682 127.32 65.3631 127.225C65.1581 127.115 64.9598 126.999 64.7684 126.876C64.577 126.739 64.3719 126.616 64.1532 126.507C63.9344 126.384 63.6883 126.322 63.4149 126.322C62.5946 126.322 61.829 126.486 61.118 126.814C60.4208 127.143 59.8055 127.58 59.2723 128.127C58.7528 128.674 58.3426 129.31 58.0418 130.034C57.7411 130.759 57.5907 131.524 57.5907 132.331C57.5907 132.386 57.5907 132.488 57.5907 132.639C57.6043 132.775 57.6112 132.926 57.6112 133.09C57.6112 133.254 57.6112 133.411 57.6112 133.562C57.6249 133.712 57.6317 133.814 57.6317 133.869C58.1376 134.033 58.7049 134.156 59.3338 134.238C59.9627 134.32 60.5917 134.375 61.2206 134.402C61.8631 134.416 62.4784 134.409 63.0663 134.382C63.6678 134.354 64.201 134.32 64.6659 134.279C64.7069 134.32 64.7821 134.396 64.8915 134.505C65.0008 134.614 65.0624 134.696 65.076 134.751C65.076 134.792 65.0829 134.819 65.0965 134.833C65.1239 134.915 65.1376 134.956 65.1376 134.956C65.1376 135.243 64.9872 135.469 64.6864 135.633C64.3856 135.797 64.0028 135.92 63.5379 136.002C63.0731 136.07 62.5536 136.118 61.9793 136.146C61.4188 136.173 60.8719 136.2 60.3387 136.228C59.8192 136.241 59.3475 136.269 58.9237 136.31C58.5135 136.337 58.2264 136.398 58.0624 136.494C58.2401 137.314 58.5545 138.107 59.0057 138.873C59.4706 139.639 59.9422 140.404 60.4208 141.17C60.8993 141.936 61.3231 142.708 61.6922 143.487C62.0614 144.267 62.2459 145.066 62.2459 145.887C62.1913 145.887 62.0614 145.887 61.8563 145.887C61.6649 145.9 61.4598 145.894 61.2411 145.866C61.0223 145.839 60.8104 145.777 60.6053 145.682C60.4139 145.6 60.3045 145.47 60.2772 145.292ZM75.8631 139.222C75.8631 138.374 76.0614 137.588 76.4579 136.863C76.8543 136.125 77.3739 135.496 78.0165 134.977C78.6727 134.443 79.4042 134.026 80.2108 133.726C81.0311 133.425 81.8583 133.274 82.6922 133.274C83.1571 133.274 83.5672 133.425 83.9227 133.726C84.2918 134.026 84.5995 134.396 84.8456 134.833C85.0917 135.257 85.2762 135.708 85.3993 136.187C85.536 136.665 85.6043 137.082 85.6043 137.438C85.6043 138.203 85.4198 138.948 85.0506 139.673C84.6815 140.384 84.203 141.02 83.6151 141.58C83.0272 142.127 82.3641 142.571 81.6258 142.913C80.8876 143.255 80.1493 143.426 79.411 143.426C78.7547 143.426 78.201 143.316 77.7499 143.098C77.2987 142.865 76.9364 142.564 76.6629 142.195C76.3895 141.812 76.1844 141.368 76.0477 140.862C75.9247 140.343 75.8631 139.796 75.8631 139.222ZM77.6063 139.427C77.6063 139.782 77.6336 140.097 77.6883 140.37C77.7567 140.63 77.8661 140.855 78.0165 141.047C78.1805 141.238 78.3924 141.389 78.6522 141.498C78.912 141.594 79.2333 141.642 79.6161 141.642C80.1219 141.642 80.6278 141.505 81.1336 141.231C81.6395 140.944 82.0907 140.589 82.4872 140.165C82.8973 139.728 83.2254 139.249 83.4715 138.729C83.7176 138.21 83.8407 137.704 83.8407 137.212C83.8407 136.993 83.8202 136.754 83.7792 136.494C83.7381 136.234 83.6698 135.995 83.5741 135.776C83.4784 135.558 83.3417 135.373 83.1639 135.223C82.9862 135.072 82.7606 134.997 82.4872 134.997C82.2411 134.997 81.9471 135.079 81.6053 135.243C81.2772 135.407 80.9286 135.619 80.5594 135.879C80.204 136.139 79.8485 136.433 79.493 136.761C79.1512 137.089 78.8368 137.417 78.5497 137.745C78.2626 138.073 78.0301 138.388 77.8524 138.688C77.6883 138.989 77.6063 139.235 77.6063 139.427ZM86.4042 135.817C86.4042 134.491 86.7118 133.507 87.327 132.864C87.9422 132.222 88.8856 131.9 90.1571 131.9C90.6766 131.9 91.2098 131.948 91.7567 132.044C92.3172 132.14 92.8299 132.311 93.2948 132.557C93.7596 132.789 94.1356 133.117 94.4227 133.541C94.7235 133.965 94.8739 134.512 94.8739 135.182C94.8739 135.92 94.7098 136.617 94.3817 137.273C94.0672 137.916 93.6639 138.524 93.1717 139.099C92.6932 139.659 92.16 140.186 91.5721 140.678C90.9979 141.156 90.4579 141.614 89.952 142.052C89.9247 142.106 89.8973 142.223 89.87 142.4C89.8563 142.564 89.8495 142.674 89.8495 142.729C89.8495 143.18 89.9793 143.631 90.2391 144.082C90.5126 144.547 90.8065 145.012 91.1209 145.477C91.4354 145.955 91.7225 146.447 91.9823 146.953C92.242 147.459 92.3719 147.985 92.3719 148.532C92.3719 148.86 92.3036 149.052 92.1668 149.106C92.0301 149.175 91.743 149.209 91.3055 149.209C91.0321 149.1 90.7586 148.84 90.4852 148.43C90.2254 148.033 89.9588 147.541 89.6854 146.953C89.4256 146.365 89.1659 145.702 88.9061 144.964C88.66 144.239 88.4208 143.501 88.1883 142.749C87.9696 141.983 87.7577 141.231 87.5526 140.493C87.3612 139.741 87.1903 139.051 87.0399 138.422C86.8895 137.793 86.7528 137.253 86.6297 136.802C86.5204 136.337 86.4452 136.009 86.4042 135.817ZM88.1473 136.002C88.1473 136.207 88.161 136.508 88.1883 136.904C88.2157 137.287 88.2704 137.67 88.3524 138.053C88.4481 138.436 88.5848 138.771 88.7626 139.058C88.9403 139.331 89.1864 139.468 89.5008 139.468C89.9247 139.468 90.3485 139.324 90.7723 139.037C91.2098 138.75 91.5926 138.388 91.9208 137.95C92.2626 137.513 92.536 137.048 92.7411 136.556C92.9598 136.05 93.0692 135.592 93.0692 135.182C93.0692 134.84 92.9872 134.573 92.8231 134.382C92.659 134.177 92.4471 134.02 92.1874 133.91C91.9413 133.787 91.6747 133.712 91.3876 133.685C91.1004 133.644 90.827 133.623 90.5672 133.623C89.7879 133.623 89.1864 133.835 88.7626 134.259C88.3524 134.669 88.1473 135.25 88.1473 136.002ZM95.6327 133.049C95.6327 133.008 95.6395 132.974 95.6532 132.946C95.6532 132.919 95.66 132.885 95.6737 132.844C95.7284 132.775 95.8104 132.687 95.9198 132.577C96.0292 132.468 96.0975 132.413 96.1249 132.413H100.247C100.247 132.263 100.226 132.023 100.185 131.695C100.144 131.367 100.103 131.005 100.062 130.608C100.035 130.212 100.028 129.802 100.042 129.378C100.056 128.94 100.11 128.551 100.206 128.209C100.315 127.854 100.479 127.566 100.698 127.348C100.931 127.115 101.252 126.999 101.662 126.999C101.662 128.38 101.758 129.487 101.949 130.321C102.14 131.155 102.393 131.798 102.708 132.249C103.036 132.7 103.405 132.994 103.815 133.131C104.225 133.268 104.642 133.329 105.066 133.315C105.504 133.288 105.928 133.22 106.338 133.11C106.748 133.001 107.11 132.926 107.425 132.885C107.753 132.844 108.013 132.878 108.204 132.987C108.395 133.083 108.491 133.322 108.491 133.705C108.491 133.992 108.423 134.197 108.286 134.32C108.163 134.443 107.917 134.539 107.548 134.607C107.438 134.621 107.254 134.648 106.994 134.689C106.748 134.717 106.468 134.744 106.153 134.771C105.839 134.799 105.504 134.833 105.148 134.874C104.793 134.901 104.458 134.929 104.143 134.956C103.829 134.983 103.542 135.004 103.282 135.018C103.022 135.018 102.831 135.018 102.708 135.018C102.708 135.086 102.701 135.202 102.687 135.366C102.674 135.53 102.667 135.64 102.667 135.694C102.667 136.296 102.763 136.884 102.954 137.458C103.145 138.019 103.35 138.579 103.569 139.14C103.802 139.7 104.014 140.261 104.205 140.821C104.396 141.382 104.492 141.963 104.492 142.564C104.492 142.674 104.478 142.79 104.451 142.913C104.437 143.022 104.396 143.125 104.328 143.221C104.273 143.303 104.184 143.364 104.061 143.405C103.952 143.46 103.795 143.453 103.59 143.385C103.07 143.248 102.681 142.954 102.421 142.503C102.175 142.052 101.99 141.519 101.867 140.903C101.744 140.274 101.662 139.611 101.621 138.914C101.58 138.217 101.512 137.567 101.416 136.966C101.334 136.351 101.197 135.831 101.006 135.407C100.814 134.97 100.507 134.703 100.083 134.607L96.1249 133.705C96.0702 133.705 95.9881 133.65 95.8788 133.541C95.7694 133.418 95.701 133.329 95.6737 133.274C95.66 133.247 95.6532 133.213 95.6532 133.172C95.6395 133.145 95.6327 133.104 95.6327 133.049ZM110.132 135.694C110.132 135.612 110.132 135.482 110.132 135.305C110.145 135.113 110.152 134.915 110.152 134.71C110.166 134.505 110.173 134.307 110.173 134.115C110.186 133.924 110.193 133.787 110.193 133.705C110.344 133.486 110.535 133.309 110.767 133.172C111.014 133.035 111.26 132.926 111.506 132.844C111.547 133.582 111.663 134.368 111.854 135.202C112.046 136.036 112.251 136.877 112.47 137.725C112.688 138.559 112.88 139.386 113.044 140.206C113.222 141.026 113.31 141.792 113.31 142.503C113.31 143.118 112.996 143.426 112.367 143.426C111.984 143.426 111.663 143.269 111.403 142.954C111.143 142.64 110.931 142.243 110.767 141.765C110.617 141.272 110.494 140.732 110.398 140.145C110.303 139.543 110.234 138.955 110.193 138.381C110.166 137.807 110.145 137.28 110.132 136.802C110.132 136.323 110.132 135.954 110.132 135.694ZM110.419 128.004C110.679 128.113 110.897 128.291 111.075 128.537C111.253 128.783 111.328 129.009 111.301 129.214C111.287 129.405 111.137 129.542 110.849 129.624C110.562 129.692 110.084 129.61 109.414 129.378C109.414 129.009 109.482 128.688 109.619 128.414C109.769 128.141 110.036 128.004 110.419 128.004ZM113.659 134.771C113.659 134.43 113.714 134.163 113.823 133.972C113.946 133.78 114.199 133.685 114.582 133.685C114.623 133.685 114.698 133.691 114.807 133.705C114.931 133.705 115.006 133.705 115.033 133.705C115.129 134.129 115.224 134.594 115.32 135.1C115.43 135.592 115.553 136.091 115.689 136.597C115.826 137.103 115.976 137.602 116.14 138.094C116.318 138.586 116.53 139.03 116.776 139.427C117.022 139.167 117.2 138.859 117.309 138.504C117.419 138.148 117.501 137.793 117.556 137.438C117.61 137.068 117.658 136.72 117.699 136.392C117.754 136.05 117.856 135.763 118.007 135.53C118.157 135.284 118.376 135.106 118.663 134.997C118.964 134.888 119.374 134.888 119.893 134.997C120.468 134.997 120.926 135.106 121.267 135.325C121.609 135.53 121.903 135.797 122.149 136.125C122.409 136.439 122.655 136.781 122.888 137.15C123.134 137.506 123.441 137.827 123.81 138.114C123.892 137.937 123.995 137.718 124.118 137.458C124.241 137.185 124.391 136.904 124.569 136.617C124.761 136.316 124.959 136.022 125.164 135.735C125.383 135.435 125.608 135.168 125.841 134.936C126.073 134.689 126.312 134.491 126.558 134.341C126.805 134.177 127.044 134.095 127.276 134.095C127.837 134.095 128.322 134.272 128.732 134.628C129.142 134.97 129.491 135.407 129.778 135.94C130.079 136.46 130.325 137.048 130.516 137.704C130.708 138.347 130.858 138.969 130.968 139.57C131.077 140.172 131.152 140.726 131.193 141.231C131.248 141.724 131.275 142.079 131.275 142.298C131.275 142.476 131.234 142.612 131.152 142.708C131.07 142.804 130.968 142.879 130.845 142.934C130.722 142.975 130.585 143.002 130.434 143.016C130.298 143.029 130.168 143.036 130.045 143.036C130.017 143.036 129.976 143.036 129.922 143.036C129.867 143.022 129.806 143.009 129.737 142.995C129.682 142.981 129.607 142.961 129.512 142.934L128.179 136.802C128.179 136.761 128.124 136.686 128.015 136.576C127.905 136.453 127.823 136.378 127.768 136.351C127.727 136.351 127.693 136.344 127.666 136.33C127.639 136.33 127.618 136.33 127.604 136.33C127.591 136.316 127.577 136.31 127.563 136.31C127.276 136.31 127.003 136.426 126.743 136.658C126.497 136.891 126.265 137.185 126.046 137.54C125.827 137.896 125.622 138.292 125.431 138.729C125.239 139.167 125.068 139.604 124.918 140.042C124.767 140.466 124.631 140.862 124.508 141.231C124.398 141.587 124.309 141.86 124.241 142.052C124.186 142.079 124.077 142.106 123.913 142.134C123.749 142.147 123.64 142.154 123.585 142.154C123.202 142.154 122.908 142.024 122.703 141.765C122.498 141.491 122.327 141.156 122.19 140.76C122.067 140.363 121.958 139.933 121.862 139.468C121.78 138.989 121.671 138.552 121.534 138.155C121.411 137.759 121.233 137.431 121.001 137.171C120.782 136.897 120.468 136.761 120.057 136.761C119.907 136.761 119.764 136.911 119.627 137.212C119.49 137.513 119.367 137.896 119.258 138.36C119.148 138.812 119.046 139.304 118.95 139.837C118.854 140.356 118.772 140.849 118.704 141.313C118.649 141.765 118.608 142.147 118.581 142.462C118.554 142.776 118.54 142.934 118.54 142.934C118.513 142.975 118.458 143.022 118.376 143.077C118.294 143.118 118.205 143.166 118.109 143.221C118.027 143.275 117.938 143.316 117.843 143.344C117.761 143.371 117.699 143.385 117.658 143.385C117.275 143.385 116.906 143.214 116.551 142.872C116.195 142.517 115.867 142.065 115.566 141.519C115.279 140.958 115.013 140.343 114.766 139.673C114.534 139.003 114.336 138.347 114.172 137.704C114.008 137.062 113.878 136.48 113.782 135.961C113.7 135.441 113.659 135.045 113.659 134.771ZM140.934 140.739C140.415 141.095 139.964 141.416 139.581 141.703C139.212 141.977 138.849 142.209 138.494 142.4C138.139 142.592 137.756 142.735 137.346 142.831C136.949 142.927 136.457 142.975 135.869 142.975C134.598 142.975 133.654 142.64 133.039 141.97C132.424 141.286 132.116 140.274 132.116 138.935C132.116 138.415 132.184 137.875 132.321 137.314C132.458 136.754 132.656 136.2 132.916 135.653C133.189 135.093 133.511 134.566 133.88 134.074C134.249 133.568 134.666 133.124 135.131 132.741C135.596 132.358 136.088 132.058 136.607 131.839C137.14 131.606 137.701 131.49 138.289 131.49C139.273 131.586 140.046 131.832 140.606 132.229C141.167 132.611 141.591 133.11 141.878 133.726C142.165 134.327 142.363 135.004 142.473 135.756C142.582 136.494 142.664 137.26 142.719 138.053C142.787 138.846 142.869 139.639 142.965 140.432C143.06 141.225 143.259 141.956 143.559 142.626C143.382 143.077 143.211 143.392 143.047 143.569C142.896 143.761 142.725 143.795 142.534 143.672C142.343 143.549 142.117 143.248 141.857 142.77C141.611 142.291 141.304 141.614 140.934 140.739ZM133.859 138.976C133.859 139.755 134.003 140.329 134.29 140.698C134.591 141.054 135.117 141.231 135.869 141.231C136.43 141.231 136.963 141.136 137.469 140.944C137.988 140.739 138.439 140.466 138.822 140.124C139.205 139.769 139.513 139.345 139.745 138.853C139.977 138.36 140.094 137.813 140.094 137.212C140.094 136.966 140.1 136.624 140.114 136.187C140.128 135.735 140.1 135.291 140.032 134.854C139.964 134.416 139.834 134.04 139.642 133.726C139.451 133.397 139.164 133.233 138.781 133.233C138.07 133.233 137.414 133.418 136.812 133.787C136.211 134.143 135.691 134.601 135.254 135.161C134.816 135.722 134.474 136.344 134.228 137.027C133.982 137.697 133.859 138.347 133.859 138.976ZM145.344 131.777C145.344 131.381 145.316 130.998 145.262 130.629C145.207 130.246 145.193 129.911 145.221 129.624C145.248 129.323 145.35 129.084 145.528 128.906C145.72 128.729 146.061 128.64 146.554 128.64C146.704 128.954 146.848 129.433 146.984 130.075C147.135 130.718 147.278 131.456 147.415 132.29C147.552 133.124 147.681 134.033 147.805 135.018C147.928 135.988 148.037 136.966 148.133 137.95C148.242 138.935 148.331 139.905 148.399 140.862C148.481 141.806 148.543 142.667 148.584 143.446C148.133 143.747 147.77 143.768 147.497 143.508C147.223 143.248 146.998 142.811 146.82 142.195C146.642 141.566 146.506 140.808 146.41 139.919C146.314 139.017 146.219 138.087 146.123 137.13C146.041 136.159 145.938 135.209 145.815 134.279C145.692 133.336 145.535 132.502 145.344 131.777ZM44.7528 170.462C44.9715 170.312 45.2313 170.12 45.5321 169.888C45.8465 169.642 46.161 169.382 46.4754 169.108C46.7899 168.835 47.0838 168.548 47.3573 168.247C47.6307 167.946 47.8426 167.659 47.993 167.386C48.1571 167.099 48.2391 166.832 48.2391 166.586C48.2391 166.34 48.1161 166.135 47.87 165.971C47.4325 165.971 46.954 165.991 46.4344 166.032C45.9149 166.06 45.3954 166.073 44.8758 166.073C44.3563 166.06 43.8504 166.012 43.3583 165.93C42.8797 165.848 42.4491 165.697 42.0663 165.479C41.6834 165.26 41.3758 164.952 41.1434 164.556C40.9247 164.146 40.8153 163.626 40.8153 162.997C40.8153 162.259 40.952 161.596 41.2254 161.008C41.5126 160.406 41.8885 159.88 42.3534 159.429C42.8182 158.964 43.3377 158.561 43.912 158.219C44.4999 157.863 45.0877 157.562 45.6756 157.316C46.0311 157.412 46.3592 157.583 46.66 157.829C46.9608 158.075 47.2206 158.349 47.4393 158.649C47.3436 158.95 47.1522 159.183 46.8651 159.347C46.5917 159.511 46.2704 159.654 45.9012 159.777C45.5458 159.9 45.1698 160.03 44.7733 160.167C44.3768 160.304 44.0145 160.488 43.6864 160.721C43.3719 160.939 43.1053 161.233 42.8866 161.603C42.6678 161.958 42.5584 162.43 42.5584 163.018C42.5584 163.455 42.6678 163.776 42.8866 163.981C43.1053 164.187 43.3924 164.33 43.7479 164.412C44.1034 164.48 44.5067 164.508 44.9579 164.494C45.409 164.467 45.867 164.433 46.3319 164.392C46.8104 164.351 47.2752 164.33 47.7264 164.33C48.1776 164.316 48.5809 164.371 48.9364 164.494C49.2918 164.604 49.5721 164.788 49.7772 165.048C49.9959 165.308 50.1053 165.69 50.1053 166.196C50.1053 166.415 50.0301 166.695 49.8797 167.037C49.743 167.379 49.5516 167.748 49.3055 168.145C49.0731 168.527 48.7928 168.91 48.4647 169.293C48.1502 169.676 47.8153 170.024 47.4598 170.339C47.118 170.64 46.7694 170.893 46.4139 171.098C46.0721 171.289 45.7508 171.385 45.4501 171.385C45.1629 171.385 44.9715 171.282 44.8758 171.077C44.7938 170.872 44.7528 170.667 44.7528 170.462ZM50.4745 161.049C50.4745 161.008 50.4813 160.974 50.495 160.946C50.495 160.919 50.5018 160.885 50.5155 160.844C50.5702 160.775 50.6522 160.687 50.7616 160.577C50.8709 160.468 50.9393 160.413 50.9667 160.413H55.0887C55.0887 160.263 55.0682 160.023 55.0272 159.695C54.9862 159.367 54.9452 159.005 54.9042 158.608C54.8768 158.212 54.87 157.802 54.8836 157.378C54.8973 156.94 54.952 156.551 55.0477 156.209C55.1571 155.854 55.3211 155.566 55.5399 155.348C55.7723 155.115 56.0936 154.999 56.5038 154.999C56.5038 156.38 56.5995 157.487 56.7909 158.321C56.9823 159.155 57.2352 159.798 57.5497 160.249C57.8778 160.7 58.2469 160.994 58.6571 161.131C59.0672 161.268 59.4842 161.329 59.9081 161.315C60.3456 161.288 60.7694 161.22 61.1795 161.11C61.5897 161.001 61.952 160.926 62.2665 160.885C62.5946 160.844 62.8543 160.878 63.0458 160.987C63.2372 161.083 63.3329 161.322 63.3329 161.705C63.3329 161.992 63.2645 162.197 63.1278 162.32C63.0047 162.443 62.7586 162.539 62.3895 162.607C62.2801 162.621 62.0956 162.648 61.8358 162.689C61.5897 162.717 61.3094 162.744 60.995 162.771C60.6805 162.799 60.3456 162.833 59.9901 162.874C59.6346 162.901 59.2997 162.929 58.9852 162.956C58.6708 162.983 58.3836 163.004 58.1239 163.018C57.8641 163.018 57.6727 163.018 57.5497 163.018C57.5497 163.086 57.5428 163.202 57.5292 163.366C57.5155 163.53 57.5086 163.64 57.5086 163.694C57.5086 164.296 57.6043 164.884 57.7958 165.458C57.9872 166.019 58.1922 166.579 58.411 167.14C58.6434 167.7 58.8553 168.261 59.0467 168.821C59.2381 169.382 59.3338 169.963 59.3338 170.564C59.3338 170.674 59.3202 170.79 59.2928 170.913C59.2792 171.022 59.2381 171.125 59.1698 171.221C59.1151 171.303 59.0262 171.364 58.9032 171.405C58.7938 171.46 58.6366 171.453 58.4315 171.385C57.912 171.248 57.5223 170.954 57.2626 170.503C57.0165 170.052 56.8319 169.519 56.7088 168.903C56.5858 168.274 56.5038 167.611 56.4627 166.914C56.4217 166.217 56.3534 165.567 56.2577 164.966C56.1756 164.351 56.0389 163.831 55.8475 163.407C55.6561 162.97 55.3485 162.703 54.9247 162.607L50.9667 161.705C50.912 161.705 50.8299 161.65 50.7206 161.541C50.6112 161.418 50.5428 161.329 50.5155 161.274C50.5018 161.247 50.495 161.213 50.495 161.172C50.4813 161.145 50.4745 161.104 50.4745 161.049ZM64.1122 162.771C64.1122 162.648 64.119 162.525 64.1327 162.402C64.1463 162.266 64.1737 162.149 64.2147 162.054C64.2557 161.944 64.3172 161.855 64.3993 161.787C64.495 161.719 64.6249 161.685 64.7889 161.685C64.9256 161.685 65.076 161.794 65.2401 162.013C65.4178 162.218 65.5956 162.484 65.7733 162.812C65.951 163.127 66.1219 163.476 66.286 163.858C66.4637 164.241 66.6141 164.597 66.7372 164.925C66.8739 165.239 66.9833 165.513 67.0653 165.745C67.1473 165.978 67.1952 166.101 67.2088 166.114C67.3866 165.636 67.5848 165.116 67.8036 164.556C68.0223 163.995 68.2889 163.476 68.6034 162.997C68.9315 162.505 69.3143 162.095 69.7518 161.767C70.203 161.438 70.7499 161.274 71.3924 161.274C71.7206 161.274 72.0282 161.329 72.3153 161.438C72.6161 161.534 72.8758 161.685 73.0946 161.89C73.327 162.081 73.5116 162.313 73.6483 162.587C73.785 162.86 73.8534 163.175 73.8534 163.53C73.8534 163.831 73.7303 164.043 73.4842 164.166C73.2518 164.289 72.9852 164.351 72.6844 164.351H72.4793L71.5975 163.469C71.5702 163.469 71.5497 163.462 71.536 163.448C71.5086 163.448 71.4813 163.448 71.454 163.448C71.4403 163.435 71.4198 163.428 71.3924 163.428C70.9139 163.428 70.5379 163.564 70.2645 163.838C70.0047 164.098 69.8065 164.426 69.6698 164.822C69.5331 165.205 69.4442 165.615 69.4032 166.053C69.3758 166.477 69.3622 166.866 69.3622 167.222C69.3622 167.495 69.3895 167.775 69.4442 168.062C69.4989 168.336 69.5604 168.609 69.6288 168.883C69.6971 169.143 69.7586 169.416 69.8133 169.703C69.868 169.977 69.8954 170.264 69.8954 170.564C69.8954 171.139 69.5877 171.426 68.9725 171.426C68.6307 171.426 68.2752 171.248 67.9061 170.893C67.537 170.523 67.1678 170.059 66.7987 169.498C66.4432 168.938 66.1014 168.322 65.7733 167.652C65.4452 166.969 65.1581 166.306 64.912 165.663C64.6659 165.021 64.4676 164.439 64.3172 163.92C64.1805 163.4 64.1122 163.018 64.1122 162.771ZM83.41 168.739C82.8905 169.095 82.4393 169.416 82.0565 169.703C81.6874 169.977 81.3251 170.209 80.9696 170.4C80.6141 170.592 80.2313 170.735 79.8211 170.831C79.4247 170.927 78.9325 170.975 78.3446 170.975C77.0731 170.975 76.1297 170.64 75.5145 169.97C74.8993 169.286 74.5917 168.274 74.5917 166.935C74.5917 166.415 74.66 165.875 74.7967 165.314C74.9334 164.754 75.1317 164.2 75.3915 163.653C75.6649 163.093 75.9862 162.566 76.3553 162.074C76.7245 161.568 77.1415 161.124 77.6063 160.741C78.0711 160.358 78.5633 160.058 79.0829 159.839C79.6161 159.606 80.1766 159.49 80.7645 159.49C81.7489 159.586 82.5213 159.832 83.0819 160.229C83.6424 160.611 84.0663 161.11 84.3534 161.726C84.6405 162.327 84.8387 163.004 84.9481 163.756C85.0575 164.494 85.1395 165.26 85.1942 166.053C85.2626 166.846 85.3446 167.639 85.4403 168.432C85.536 169.225 85.7342 169.956 86.035 170.626C85.8573 171.077 85.6864 171.392 85.5223 171.569C85.3719 171.761 85.201 171.795 85.0096 171.672C84.8182 171.549 84.5926 171.248 84.3329 170.77C84.0868 170.291 83.7792 169.614 83.41 168.739ZM76.3348 166.976C76.3348 167.755 76.4784 168.329 76.7655 168.698C77.0663 169.054 77.5926 169.231 78.3446 169.231C78.9051 169.231 79.4383 169.136 79.9442 168.944C80.4637 168.739 80.9149 168.466 81.2977 168.124C81.6805 167.769 81.9881 167.345 82.2206 166.853C82.453 166.36 82.5692 165.813 82.5692 165.212C82.5692 164.966 82.576 164.624 82.5897 164.187C82.6034 163.735 82.576 163.291 82.5077 162.854C82.4393 162.416 82.3094 162.04 82.118 161.726C81.9266 161.397 81.6395 161.233 81.2567 161.233C80.5458 161.233 79.8895 161.418 79.2879 161.787C78.6864 162.143 78.1668 162.601 77.7293 163.161C77.2918 163.722 76.9501 164.344 76.704 165.027C76.4579 165.697 76.3348 166.347 76.3348 166.976ZM86.8758 161.049C86.8758 161.008 86.8827 160.974 86.8963 160.946C86.8963 160.919 86.9032 160.885 86.9168 160.844C86.9715 160.775 87.0536 160.687 87.1629 160.577C87.2723 160.468 87.3407 160.413 87.368 160.413H91.4901C91.4901 160.263 91.4696 160.023 91.4286 159.695C91.3876 159.367 91.3465 159.005 91.3055 158.608C91.2782 158.212 91.2713 157.802 91.285 157.378C91.2987 156.94 91.3534 156.551 91.4491 156.209C91.5584 155.854 91.7225 155.566 91.9413 155.348C92.1737 155.115 92.495 154.999 92.9051 154.999C92.9051 156.38 93.0008 157.487 93.1922 158.321C93.3836 159.155 93.6366 159.798 93.951 160.249C94.2792 160.7 94.6483 160.994 95.0584 161.131C95.4686 161.268 95.8856 161.329 96.3094 161.315C96.7469 161.288 97.1708 161.22 97.5809 161.11C97.9911 161.001 98.3534 160.926 98.6678 160.885C98.9959 160.844 99.2557 160.878 99.4471 160.987C99.6385 161.083 99.7342 161.322 99.7342 161.705C99.7342 161.992 99.6659 162.197 99.5292 162.32C99.4061 162.443 99.16 162.539 98.7909 162.607C98.6815 162.621 98.4969 162.648 98.2372 162.689C97.9911 162.717 97.7108 162.744 97.3963 162.771C97.0819 162.799 96.7469 162.833 96.3915 162.874C96.036 162.901 95.701 162.929 95.3866 162.956C95.0721 162.983 94.785 163.004 94.5252 163.018C94.2655 163.018 94.0741 163.018 93.951 163.018C93.951 163.086 93.9442 163.202 93.9305 163.366C93.9168 163.53 93.91 163.64 93.91 163.694C93.91 164.296 94.0057 164.884 94.1971 165.458C94.3885 166.019 94.5936 166.579 94.8124 167.14C95.0448 167.7 95.2567 168.261 95.4481 168.821C95.6395 169.382 95.7352 169.963 95.7352 170.564C95.7352 170.674 95.7215 170.79 95.6942 170.913C95.6805 171.022 95.6395 171.125 95.5711 171.221C95.5165 171.303 95.4276 171.364 95.3045 171.405C95.1952 171.46 95.0379 171.453 94.8329 171.385C94.3133 171.248 93.9237 170.954 93.6639 170.503C93.4178 170.052 93.2333 169.519 93.1102 168.903C92.9872 168.274 92.9051 167.611 92.8641 166.914C92.8231 166.217 92.7547 165.567 92.659 164.966C92.577 164.351 92.4403 163.831 92.2489 163.407C92.0575 162.97 91.7499 162.703 91.326 162.607L87.368 161.705C87.3133 161.705 87.2313 161.65 87.1219 161.541C87.0126 161.418 86.9442 161.329 86.9168 161.274C86.9032 161.247 86.8963 161.213 86.8963 161.172C86.8827 161.145 86.8758 161.104 86.8758 161.049ZM100.514 165.684C100.514 164.945 100.602 164.207 100.78 163.469C100.958 162.73 101.238 162.067 101.621 161.479C102.017 160.892 102.523 160.413 103.139 160.044C103.767 159.675 104.526 159.49 105.415 159.49C105.921 159.49 106.365 159.586 106.748 159.777C107.131 159.955 107.452 160.194 107.712 160.495C107.972 160.796 108.163 161.151 108.286 161.562C108.423 161.958 108.491 162.375 108.491 162.812C108.491 163.51 108.327 164.187 107.999 164.843C107.684 165.499 107.254 166.08 106.707 166.586C106.174 167.078 105.558 167.454 104.861 167.714C104.164 167.96 103.453 168.015 102.728 167.878C102.742 168.274 102.872 168.596 103.118 168.842C103.378 169.074 103.685 169.252 104.041 169.375C104.396 169.498 104.765 169.58 105.148 169.621C105.531 169.648 105.873 169.662 106.174 169.662C106.488 169.662 106.782 169.635 107.056 169.58C107.329 169.525 107.602 169.464 107.876 169.396C108.149 169.327 108.423 169.266 108.696 169.211C108.983 169.156 109.284 169.129 109.598 169.129C109.722 169.129 109.845 169.136 109.968 169.149C110.091 169.163 110.207 169.197 110.316 169.252C110.426 169.293 110.515 169.368 110.583 169.478C110.651 169.573 110.685 169.696 110.685 169.847C110.685 170.106 110.59 170.325 110.398 170.503C110.207 170.667 109.961 170.811 109.66 170.934C109.373 171.057 109.052 171.152 108.696 171.221C108.341 171.275 107.992 171.323 107.65 171.364C107.322 171.392 107.015 171.405 106.727 171.405C106.454 171.419 106.249 171.426 106.112 171.426C105.237 171.426 104.451 171.289 103.754 171.016C103.056 170.729 102.469 170.339 101.99 169.847C101.512 169.341 101.142 168.739 100.883 168.042C100.637 167.331 100.514 166.545 100.514 165.684ZM102.687 164.351C102.687 164.829 102.749 165.178 102.872 165.396C103.009 165.615 103.33 165.725 103.836 165.725C104.191 165.725 104.54 165.663 104.882 165.54C105.223 165.403 105.531 165.219 105.805 164.986C106.092 164.754 106.317 164.48 106.481 164.166C106.645 163.852 106.727 163.51 106.727 163.141C106.727 162.936 106.707 162.724 106.666 162.505C106.639 162.286 106.57 162.088 106.461 161.91C106.351 161.719 106.208 161.568 106.03 161.459C105.866 161.336 105.647 161.274 105.374 161.274C104.964 161.274 104.588 161.37 104.246 161.562C103.918 161.739 103.638 161.979 103.405 162.279C103.173 162.566 102.995 162.895 102.872 163.264C102.749 163.619 102.687 163.981 102.687 164.351ZM117.248 182.295C118.014 182.295 118.697 182.151 119.299 181.864C119.9 181.591 120.406 181.208 120.816 180.716C121.24 180.237 121.561 179.684 121.78 179.055C122.013 178.439 122.129 177.797 122.129 177.127C122.129 176.785 122.108 176.334 122.067 175.773C122.04 175.213 121.992 174.604 121.924 173.948C121.855 173.292 121.753 172.622 121.616 171.938C121.493 171.255 121.336 170.612 121.144 170.011C120.953 169.396 120.714 168.862 120.427 168.411C120.153 167.946 119.832 167.618 119.463 167.427C119.107 167.7 118.759 167.953 118.417 168.186C118.075 168.404 117.72 168.589 117.35 168.739C116.981 168.89 116.598 169.013 116.202 169.108C115.806 169.19 115.382 169.231 114.931 169.231C114.343 169.231 113.837 169.177 113.413 169.067C113.003 168.958 112.654 168.773 112.367 168.514C112.094 168.254 111.889 167.912 111.752 167.488C111.615 167.064 111.547 166.531 111.547 165.889C111.547 165.438 111.656 165 111.875 164.576C112.094 164.139 112.381 163.735 112.736 163.366C113.105 162.983 113.515 162.635 113.967 162.32C114.431 162.006 114.903 161.732 115.382 161.5C115.874 161.268 116.352 161.09 116.817 160.967C117.296 160.844 117.72 160.782 118.089 160.782C118.444 160.782 118.738 160.796 118.971 160.823C119.203 160.837 119.401 160.892 119.565 160.987C119.729 161.069 119.866 161.206 119.975 161.397C120.098 161.575 120.215 161.821 120.324 162.136C120.639 163.202 121.001 164.351 121.411 165.581C121.821 166.812 122.211 168.076 122.58 169.375C122.949 170.674 123.257 171.979 123.503 173.292C123.763 174.618 123.892 175.896 123.892 177.127C123.892 178.221 123.735 179.144 123.421 179.896C123.12 180.661 122.717 181.283 122.211 181.762C121.719 182.254 121.151 182.63 120.509 182.89C119.88 183.149 119.244 183.313 118.601 183.382C117.959 183.464 117.337 183.484 116.735 183.443C116.134 183.402 115.614 183.32 115.177 183.197C114.739 183.088 114.404 182.958 114.172 182.808C113.953 182.657 113.898 182.527 114.008 182.418C114.131 182.322 114.445 182.254 114.951 182.213C115.457 182.172 116.223 182.199 117.248 182.295ZM117.535 162.505C116.523 162.724 115.703 163.031 115.074 163.428C114.459 163.811 113.994 164.228 113.68 164.679C113.379 165.116 113.215 165.561 113.187 166.012C113.16 166.449 113.242 166.825 113.433 167.14C113.625 167.454 113.898 167.693 114.254 167.857C114.623 168.008 115.04 168.015 115.505 167.878C115.97 167.728 116.462 167.413 116.981 166.935C117.515 166.456 118.048 165.745 118.581 164.802C118.581 164.569 118.581 164.316 118.581 164.043C118.595 163.77 118.574 163.523 118.519 163.305C118.465 163.072 118.362 162.881 118.212 162.73C118.061 162.58 117.836 162.505 117.535 162.505ZM124.692 163.694C124.692 163.612 124.692 163.482 124.692 163.305C124.706 163.113 124.713 162.915 124.713 162.71C124.726 162.505 124.733 162.307 124.733 162.115C124.747 161.924 124.754 161.787 124.754 161.705C124.904 161.486 125.096 161.309 125.328 161.172C125.574 161.035 125.82 160.926 126.066 160.844C126.107 161.582 126.223 162.368 126.415 163.202C126.606 164.036 126.811 164.877 127.03 165.725C127.249 166.559 127.44 167.386 127.604 168.206C127.782 169.026 127.871 169.792 127.871 170.503C127.871 171.118 127.556 171.426 126.928 171.426C126.545 171.426 126.223 171.269 125.964 170.954C125.704 170.64 125.492 170.243 125.328 169.765C125.178 169.272 125.055 168.732 124.959 168.145C124.863 167.543 124.795 166.955 124.754 166.381C124.726 165.807 124.706 165.28 124.692 164.802C124.692 164.323 124.692 163.954 124.692 163.694ZM124.979 156.004C125.239 156.113 125.458 156.291 125.636 156.537C125.813 156.783 125.889 157.009 125.861 157.214C125.848 157.405 125.697 157.542 125.41 157.624C125.123 157.692 124.644 157.61 123.974 157.378C123.974 157.009 124.043 156.688 124.18 156.414C124.33 156.141 124.597 156.004 124.979 156.004ZM128.671 165.684C128.671 164.945 128.76 164.207 128.937 163.469C129.115 162.73 129.395 162.067 129.778 161.479C130.175 160.892 130.681 160.413 131.296 160.044C131.925 159.675 132.683 159.49 133.572 159.49C134.078 159.49 134.522 159.586 134.905 159.777C135.288 159.955 135.609 160.194 135.869 160.495C136.129 160.796 136.32 161.151 136.443 161.562C136.58 161.958 136.648 162.375 136.648 162.812C136.648 163.51 136.484 164.187 136.156 164.843C135.842 165.499 135.411 166.08 134.864 166.586C134.331 167.078 133.716 167.454 133.018 167.714C132.321 167.96 131.61 168.015 130.886 167.878C130.899 168.274 131.029 168.596 131.275 168.842C131.535 169.074 131.843 169.252 132.198 169.375C132.554 169.498 132.923 169.58 133.306 169.621C133.688 169.648 134.03 169.662 134.331 169.662C134.645 169.662 134.939 169.635 135.213 169.58C135.486 169.525 135.76 169.464 136.033 169.396C136.306 169.327 136.58 169.266 136.853 169.211C137.14 169.156 137.441 169.129 137.756 169.129C137.879 169.129 138.002 169.136 138.125 169.149C138.248 169.163 138.364 169.197 138.473 169.252C138.583 169.293 138.672 169.368 138.74 169.478C138.808 169.573 138.843 169.696 138.843 169.847C138.843 170.106 138.747 170.325 138.556 170.503C138.364 170.667 138.118 170.811 137.817 170.934C137.53 171.057 137.209 171.152 136.853 171.221C136.498 171.275 136.149 171.323 135.807 171.364C135.479 171.392 135.172 171.405 134.885 171.405C134.611 171.419 134.406 171.426 134.269 171.426C133.394 171.426 132.608 171.289 131.911 171.016C131.214 170.729 130.626 170.339 130.147 169.847C129.669 169.341 129.3 168.739 129.04 168.042C128.794 167.331 128.671 166.545 128.671 165.684ZM130.845 164.351C130.845 164.829 130.906 165.178 131.029 165.396C131.166 165.615 131.487 165.725 131.993 165.725C132.348 165.725 132.697 165.663 133.039 165.54C133.381 165.403 133.688 165.219 133.962 164.986C134.249 164.754 134.474 164.48 134.639 164.166C134.803 163.852 134.885 163.51 134.885 163.141C134.885 162.936 134.864 162.724 134.823 162.505C134.796 162.286 134.727 162.088 134.618 161.91C134.509 161.719 134.365 161.568 134.187 161.459C134.023 161.336 133.805 161.274 133.531 161.274C133.121 161.274 132.745 161.37 132.403 161.562C132.075 161.739 131.795 161.979 131.562 162.279C131.33 162.566 131.152 162.895 131.029 163.264C130.906 163.619 130.845 163.981 130.845 164.351ZM144.052 170.462C144.27 170.312 144.53 170.12 144.831 169.888C145.145 169.642 145.46 169.382 145.774 169.108C146.089 168.835 146.383 168.548 146.656 168.247C146.93 167.946 147.141 167.659 147.292 167.386C147.456 167.099 147.538 166.832 147.538 166.586C147.538 166.34 147.415 166.135 147.169 165.971C146.731 165.971 146.253 165.991 145.733 166.032C145.214 166.06 144.694 166.073 144.175 166.073C143.655 166.06 143.149 166.012 142.657 165.93C142.179 165.848 141.748 165.697 141.365 165.479C140.982 165.26 140.675 164.952 140.442 164.556C140.223 164.146 140.114 163.626 140.114 162.997C140.114 162.259 140.251 161.596 140.524 161.008C140.811 160.406 141.187 159.88 141.652 159.429C142.117 158.964 142.637 158.561 143.211 158.219C143.799 157.863 144.387 157.562 144.974 157.316C145.33 157.412 145.658 157.583 145.959 157.829C146.26 158.075 146.519 158.349 146.738 158.649C146.642 158.95 146.451 159.183 146.164 159.347C145.89 159.511 145.569 159.654 145.2 159.777C144.845 159.9 144.469 160.03 144.072 160.167C143.676 160.304 143.313 160.488 142.985 160.721C142.671 160.939 142.404 161.233 142.185 161.603C141.967 161.958 141.857 162.43 141.857 163.018C141.857 163.455 141.967 163.776 142.185 163.981C142.404 164.187 142.691 164.33 143.047 164.412C143.402 164.48 143.806 164.508 144.257 164.494C144.708 164.467 145.166 164.433 145.631 164.392C146.109 164.351 146.574 164.33 147.025 164.33C147.476 164.316 147.88 164.371 148.235 164.494C148.591 164.604 148.871 164.788 149.076 165.048C149.295 165.308 149.404 165.69 149.404 166.196C149.404 166.415 149.329 166.695 149.179 167.037C149.042 167.379 148.85 167.748 148.604 168.145C148.372 168.527 148.092 168.91 147.764 169.293C147.449 169.676 147.114 170.024 146.759 170.339C146.417 170.64 146.068 170.893 145.713 171.098C145.371 171.289 145.05 171.385 144.749 171.385C144.462 171.385 144.27 171.282 144.175 171.077C144.093 170.872 144.052 170.667 144.052 170.462Z" fill="black"/>
<path d="M55.5473 57.4902C53.0408 48.6361 51.7387 43.6068 51.6411 42.4023L51.0063 42.5977C49.9321 48.5872 49.1346 53.1283 48.6137 56.2207L40.5083 58.3203C43.8937 41.9466 45.9607 30.3255 46.7094 23.457C50.4855 22.2852 54.7172 21.6992 59.4047 21.6992C62.9204 21.6992 65.0037 22.9199 65.6547 25.3613C65.8501 26.11 65.9477 27.0378 65.9477 28.1445C65.9477 29.2513 65.7199 30.4557 65.2641 31.7578C64.8084 33.0273 64.1899 34.248 63.4087 35.4199C61.781 37.7962 59.7791 39.6191 57.4028 40.8887C58.6723 43.623 59.7954 46.2109 60.7719 48.6523C61.781 51.0612 62.6274 53.0957 63.311 54.7559L55.5473 57.4902ZM56.0356 28.6328L53.8872 28.6816L52.2758 36.6406C53.5779 36.5104 55.2218 35.6803 57.2075 34.1504C59.2583 32.5879 60.2837 31.3021 60.2837 30.293C60.2837 29.349 59.3885 28.8118 57.5981 28.6816C57.0773 28.6491 56.5564 28.6328 56.0356 28.6328ZM82.354 35.4199C82.354 32.7181 81.5727 31.3672 80.0102 31.3672C78.0245 31.3672 76.2342 32.3438 74.6391 34.2969C73.3696 35.8594 72.2791 37.9915 71.3676 40.6934C70.6515 42.9069 70.2934 44.9902 70.2934 46.9434C70.2934 48.2454 70.8468 49.222 71.9536 49.873C72.2791 50.1009 72.6534 50.2148 73.0766 50.2148C74.574 50.2148 75.8924 49.7103 77.0317 48.7012C78.2036 47.6595 79.1801 46.39 79.9614 44.8926C80.7426 43.3952 81.3286 41.8001 81.7192 40.1074C82.1424 38.3822 82.354 36.8197 82.354 35.4199ZM89.2876 32.3438C89.2876 34.3294 88.9946 36.5267 88.4087 38.9355C87.8553 41.3444 87.0903 43.5579 86.1137 45.5762C85.1372 47.5944 83.9978 49.401 82.6958 50.9961C81.4262 52.5911 80.0916 53.9421 78.6919 55.0488C75.7947 57.3275 73.0115 58.4668 70.3422 58.4668C68.0962 58.4668 66.3221 57.653 65.02 56.0254C63.5877 54.235 62.8715 51.6309 62.8715 48.2129C62.8715 44.502 63.7342 40.498 65.4594 36.2012C67.1847 31.9043 69.4471 28.3236 72.2465 25.459C75.2739 22.3991 78.4477 20.8691 81.768 20.8691C84.5024 20.8691 86.5044 21.9759 87.7739 24.1895C88.783 25.9798 89.2876 28.6979 89.2876 32.3438ZM108.575 45.9668C108.575 47.1712 108.282 48.3594 107.696 49.5312C107.142 50.7031 106.377 51.7611 105.401 52.7051C104.457 53.6491 103.334 54.4792 102.032 55.1953C100.762 55.9115 99.4113 56.5137 97.979 57.002C95.1795 57.9785 92.3149 58.4668 89.3852 58.4668C88.1482 58.4668 86.9926 58.3691 85.9184 58.1738C87.5135 52.347 88.783 46.4714 89.727 40.5469C90.671 34.6224 91.5825 28.6654 92.4614 22.6758C97.0187 21.7318 100.746 21.2598 103.643 21.2598C107.061 21.2598 109.437 22.4316 110.772 24.7754C111.293 25.6543 111.553 26.7448 111.553 28.0469C111.553 29.3164 111.342 30.5046 110.918 31.6113C110.528 32.7181 110.007 33.7272 109.356 34.6387C108.021 36.4616 106.426 37.7148 104.571 38.3984C107.24 40.026 108.575 42.5488 108.575 45.9668ZM95.7329 48.3594C98.6951 48.0339 100.778 47.2038 101.983 45.8691C102.504 45.2832 102.764 44.6322 102.764 43.916C102.764 43.1999 102.601 42.6465 102.276 42.2559C101.983 41.8327 101.592 41.4909 101.104 41.2305C100.127 40.7096 99.0695 40.4492 97.9301 40.4492H97.4907C97.3605 40.4492 97.2303 40.4655 97.1001 40.498C96.9699 41.3118 96.8396 42.028 96.7094 42.6465C96.6118 43.265 96.5141 43.8672 96.4165 44.4531C96.3188 45.0065 96.2049 45.5924 96.0747 46.2109C95.977 46.8294 95.8631 47.5456 95.7329 48.3594ZM98.2719 34.3457C102.341 33.4342 104.375 32.3112 104.375 30.9766C104.375 29.707 103.334 28.9095 101.25 28.584C100.73 28.4863 100.274 28.4375 99.8833 28.4375H99.3462C99.281 28.7956 99.1997 29.235 99.102 29.7559C99.0369 30.2441 98.9555 30.765 98.8579 31.3184C98.7602 31.8392 98.6463 32.3763 98.5161 32.9297C98.4184 33.4505 98.337 33.9225 98.2719 34.3457ZM128.399 35.4199C128.399 32.7181 127.618 31.3672 126.055 31.3672C124.069 31.3672 122.279 32.3438 120.684 34.2969C119.415 35.8594 118.324 37.9915 117.413 40.6934C116.696 42.9069 116.338 44.9902 116.338 46.9434C116.338 48.2454 116.892 49.222 117.998 49.873C118.324 50.1009 118.698 50.2148 119.122 50.2148C120.619 50.2148 121.937 49.7103 123.077 48.7012C124.248 47.6595 125.225 46.39 126.006 44.8926C126.788 43.3952 127.373 41.8001 127.764 40.1074C128.187 38.3822 128.399 36.8197 128.399 35.4199ZM135.332 32.3438C135.332 34.3294 135.04 36.5267 134.454 38.9355C133.9 41.3444 133.135 43.5579 132.159 45.5762C131.182 47.5944 130.043 49.401 128.741 50.9961C127.471 52.5911 126.137 53.9421 124.737 55.0488C121.84 57.3275 119.056 58.4668 116.387 58.4668C114.141 58.4668 112.367 57.653 111.065 56.0254C109.633 54.235 108.916 51.6309 108.916 48.2129C108.916 44.502 109.779 40.498 111.504 36.2012C113.23 31.9043 115.492 28.3236 118.291 25.459C121.319 22.3991 124.493 20.8691 127.813 20.8691C130.547 20.8691 132.549 21.9759 133.819 24.1895C134.828 25.9798 135.332 28.6979 135.332 32.3438ZM136.211 28.877L136.456 22.4805C138.148 22.6107 139.857 22.6758 141.582 22.6758C146.14 22.6758 150.583 22.3991 154.913 21.8457L154.375 24.5312C154.213 25.2799 154.05 26.0612 153.887 26.875C153.757 27.6562 153.627 28.3398 153.497 28.9258C152.748 29.1211 151.999 29.2676 151.25 29.3652C150.502 29.4303 149.769 29.528 149.053 29.6582C148.467 32.1647 147.881 35.2734 147.295 38.9844C145.993 47.1875 145.082 53.1608 144.561 56.9043L135.577 58.3203C138.213 45.9505 139.987 36.2663 140.899 29.2676C140.118 29.1699 139.336 29.1374 138.555 29.1699C137.774 29.2025 136.993 29.1048 136.211 28.877Z" fill="white"/>
<path d="M55.5473 57.4902L54.5851 57.7626L54.8752 58.7872L55.8795 58.4334L55.5473 57.4902ZM51.6411 42.4023L52.6378 42.3215L52.5372 41.0804L51.347 41.4466L51.6411 42.4023ZM51.0063 42.5977L50.7122 41.6419L50.1296 41.8211L50.022 42.4211L51.0063 42.5977ZM48.6137 56.2207L48.8645 57.1888L49.4922 57.0262L49.5998 56.3868L48.6137 56.2207ZM40.5083 58.3203L39.529 58.1178L39.2037 59.6913L40.759 59.2884L40.5083 58.3203ZM46.7094 23.457L46.413 22.502L45.7864 22.6964L45.7153 23.3487L46.7094 23.457ZM65.6547 25.3613L66.6224 25.1089L66.621 25.1037L65.6547 25.3613ZM65.2641 31.7578L66.2053 32.0957L66.208 32.0882L65.2641 31.7578ZM63.4087 35.4199L64.2337 35.9851L64.2407 35.9746L63.4087 35.4199ZM57.4028 40.8887L56.9316 40.0067L56.0976 40.4522L56.4958 41.3098L57.4028 40.8887ZM60.7719 48.6523L59.8435 49.0237L59.8465 49.0313L59.8496 49.0387L60.7719 48.6523ZM63.311 54.7559L63.6432 55.6991L64.6367 55.3491L64.2357 54.3751L63.311 54.7559ZM56.0356 28.6328V27.6328H56.0242L56.0129 27.6331L56.0356 28.6328ZM53.8872 28.6816L53.8644 27.6819L53.0656 27.7001L52.9071 28.4832L53.8872 28.6816ZM52.2758 36.6406L51.2957 36.4422L51.0268 37.7705L52.3753 37.6357L52.2758 36.6406ZM57.2075 34.1504L56.6014 33.3549L56.5971 33.3582L57.2075 34.1504ZM57.5981 28.6816L57.6706 27.6842L57.6605 27.6836L57.5981 28.6816ZM56.5095 57.2178C55.257 52.7934 54.3072 49.3309 53.659 46.827C52.9987 44.2768 52.678 42.817 52.6378 42.3215L50.6443 42.4832C50.7018 43.1921 51.081 44.8492 51.7228 47.3283C52.3766 49.8537 53.3311 53.3329 54.5851 57.7626L56.5095 57.2178ZM51.347 41.4466L50.7122 41.6419L51.3004 43.5534L51.9352 43.3581L51.347 41.4466ZM50.022 42.4211C48.9476 48.4116 48.1494 52.9568 47.6276 56.0546L49.5998 56.3868C50.1198 53.2997 50.9165 48.7629 51.9906 42.7742L50.022 42.4211ZM48.363 55.2527L40.2575 57.3523L40.759 59.2884L48.8645 57.1888L48.363 55.2527ZM41.4875 58.5228C44.8729 42.1492 46.9491 30.4863 47.7035 23.5654L45.7153 23.3487C44.9723 30.1648 42.9144 41.744 39.529 58.1178L41.4875 58.5228ZM47.0058 24.4121C50.67 23.2749 54.7996 22.6992 59.4047 22.6992V20.6992C54.6348 20.6992 50.3009 21.2954 46.413 22.502L47.0058 24.4121ZM59.4047 22.6992C61.0608 22.6992 62.2645 22.9889 63.0984 23.4775C63.9013 23.948 64.4274 24.6397 64.6885 25.619L66.621 25.1037C66.2311 23.6416 65.3899 22.5022 64.1095 21.7519C62.8601 21.0199 61.2643 20.6992 59.4047 20.6992V22.6992ZM64.6871 25.6137C64.8539 26.2531 64.9477 27.0897 64.9477 28.1445H66.9477C66.9477 26.9858 66.8462 25.9669 66.6224 25.1089L64.6871 25.6137ZM64.9477 28.1445C64.9477 29.115 64.7476 30.2065 64.3203 31.4275L66.208 32.0882C66.6921 30.705 66.9477 29.3876 66.9477 28.1445H64.9477ZM64.3229 31.4199C63.8958 32.6097 63.3148 33.7579 62.5766 34.8652L64.2407 35.9746C65.065 34.7382 65.721 33.445 66.2053 32.0957L64.3229 31.4199ZM62.5836 34.8548C61.0404 37.108 59.1565 38.818 56.9316 40.0067L57.874 41.7707C60.4017 40.4203 62.5217 38.4844 64.2337 35.985L62.5836 34.8548ZM56.4958 41.3098C57.7588 44.0301 58.8745 46.6013 59.8435 49.0237L61.7004 48.281C60.7163 45.8206 59.5859 43.216 58.3098 40.4676L56.4958 41.3098ZM59.8496 49.0387C60.8582 51.4465 61.7038 53.479 62.3863 55.1366L64.2357 54.3751C63.551 52.7124 62.7039 50.6759 61.6943 48.266L59.8496 49.0387ZM62.9788 53.8127L55.2151 56.547L55.8795 58.4334L63.6432 55.6991L62.9788 53.8127ZM56.0129 27.6331L53.8644 27.6819L53.9099 29.6814L56.0583 29.6326L56.0129 27.6331ZM52.9071 28.4832L51.2957 36.4422L53.256 36.8391L54.8673 28.8801L52.9071 28.4832ZM52.3753 37.6357C53.9673 37.4765 55.7978 36.499 57.8178 34.9425L56.5971 33.3582C54.6459 34.8617 53.1885 35.5444 52.1763 35.6456L52.3753 37.6357ZM57.8135 34.9458C58.8719 34.1395 59.712 33.3705 60.2964 32.6376C60.868 31.9209 61.2837 31.1279 61.2837 30.293H59.2837C59.2837 30.4671 59.1866 30.8216 58.7328 31.3907C58.2918 31.9437 57.5939 32.5988 56.6014 33.355L57.8135 34.9458ZM61.2837 30.293C61.2837 29.4272 60.8372 28.7509 60.1268 28.3246C59.4807 27.937 58.6247 27.7537 57.6706 27.6843L57.5256 29.679C58.3619 29.7398 58.8487 29.8902 59.0978 30.0396C59.2825 30.1504 59.2837 30.2147 59.2837 30.293H61.2837ZM57.6605 27.6836C57.1189 27.6497 56.5773 27.6328 56.0356 27.6328V29.6328C56.5356 29.6328 57.0356 29.6484 57.5357 29.6797L57.6605 27.6836ZM74.6391 34.2969L73.8646 33.6643L73.863 33.6663L74.6391 34.2969ZM71.3676 40.6934L70.42 40.3737L70.4162 40.3855L71.3676 40.6934ZM71.9536 49.873L72.527 49.0538L72.4947 49.0312L72.4606 49.0111L71.9536 49.873ZM77.0317 48.7012L77.6947 49.4498L77.6961 49.4486L77.0317 48.7012ZM81.7192 40.1074L80.7479 39.8692L80.7448 39.8826L81.7192 40.1074ZM88.4087 38.9355L87.4369 38.6992L87.434 38.7116L88.4087 38.9355ZM86.1137 45.5762L85.2136 45.1406L86.1137 45.5762ZM82.6958 50.9961L81.921 50.3637L81.9133 50.3733L82.6958 50.9961ZM78.6919 55.0488L79.3101 55.8348L79.3121 55.8332L78.6919 55.0488ZM65.02 56.0254L64.2391 56.6501L65.02 56.0254ZM72.2465 25.459L71.5357 24.7557L71.5314 24.7601L72.2465 25.459ZM87.7739 24.1895L88.6451 23.6984L88.6413 23.6919L87.7739 24.1895ZM83.354 35.4199C83.354 34.0054 83.1552 32.7816 82.6337 31.8797C82.0641 30.8948 81.1479 30.3672 80.0102 30.3672V32.3672C80.435 32.3672 80.6907 32.5151 80.9024 32.881C81.1621 33.3301 81.354 34.1326 81.354 35.4199H83.354ZM80.0102 30.3672C77.6461 30.3672 75.5939 31.5469 73.8646 33.6643L75.4137 34.9294C76.8745 33.1406 78.403 32.3672 80.0102 32.3672V30.3672ZM73.863 33.6663C72.494 35.3512 71.3551 37.6022 70.4201 40.3737L72.3152 41.013C73.2031 38.3809 74.2452 36.3675 75.4152 34.9275L73.863 33.6663ZM70.4162 40.3855C69.6738 42.6801 69.2934 44.868 69.2934 46.9434H71.2934C71.2934 45.1125 71.6291 43.1337 72.3191 41.0012L70.4162 40.3855ZM69.2934 46.9434C69.2934 48.5937 70.0291 49.9012 71.4466 50.735L72.4606 49.0111C71.6645 48.5428 71.2934 47.8972 71.2934 46.9434H69.2934ZM71.3801 50.6923C71.8849 51.0456 72.4624 51.2148 73.0766 51.2148V49.2148C72.8445 49.2148 72.6733 49.1562 72.527 49.0538L71.3801 50.6923ZM73.0766 51.2148C74.8227 51.2148 76.3758 50.6179 77.6947 49.4498L76.3687 47.9526C75.4089 48.8026 74.3253 49.2148 73.0766 49.2148V51.2148ZM77.6961 49.4486C78.9655 48.3202 80.0149 46.9518 80.848 45.3551L79.0748 44.43C78.3454 45.8281 77.4417 46.9988 76.3673 47.9538L77.6961 49.4486ZM80.848 45.3551C81.6696 43.7804 82.2844 42.1053 82.6936 40.3323L80.7448 39.8826C80.3727 41.495 79.8157 43.0099 79.0748 44.43L80.848 45.3551ZM82.6904 40.3456C83.1279 38.5622 83.354 36.918 83.354 35.4199H81.354C81.354 36.7213 81.1569 38.2021 80.748 39.8692L82.6904 40.3456ZM88.2876 32.3438C88.2876 34.233 88.0085 36.3495 87.437 38.6992L89.3803 39.1719C89.9806 36.7039 90.2876 34.4259 90.2876 32.3438H88.2876ZM87.434 38.7116C86.8958 41.0547 86.1543 43.1964 85.2136 45.1406L87.0139 46.0117C88.0263 43.9195 88.8148 41.6341 89.3833 39.1594L87.434 38.7116ZM85.2136 45.1406C84.268 47.0947 83.1697 48.8342 81.9211 50.3637L83.4704 51.6285C84.826 49.9678 86.0063 48.0941 87.0139 46.0117L85.2136 45.1406ZM81.9133 50.3733C80.6849 51.9168 79.4035 53.2113 78.0716 54.2644L79.3121 55.8332C80.7797 54.6728 82.1676 53.2655 83.4782 51.6188L81.9133 50.3733ZM78.0736 54.2628C75.2865 56.4549 72.7155 57.4668 70.3422 57.4668V59.4668C73.3075 59.4668 76.3029 58.2 79.3101 55.8348L78.0736 54.2628ZM70.3422 57.4668C68.3729 57.4668 66.8969 56.7707 65.8008 55.4007L64.2391 56.6501C65.7472 58.5353 67.8194 59.4668 70.3422 59.4668V57.4668ZM65.8008 55.4007C64.5653 53.8562 63.8715 51.5108 63.8715 48.2129H61.8715C61.8715 51.7509 62.6101 54.6138 64.2391 56.6501L65.8008 55.4007ZM63.8715 48.2129C63.8715 44.6569 64.6984 40.7805 66.3874 36.5738L64.5314 35.8286C62.77 40.2156 61.8715 44.347 61.8715 48.2129H63.8715ZM66.3874 36.5738C68.0714 32.3798 70.2671 28.9153 72.9617 26.1579L71.5314 24.7601C68.6271 27.7319 66.298 31.4288 64.5314 35.8286L66.3874 36.5738ZM72.9574 26.1623C75.8551 23.2335 78.7875 21.8691 81.768 21.8691V19.8691C78.1079 19.8691 74.6927 21.5647 71.5357 24.7557L72.9574 26.1623ZM81.768 21.8691C84.1755 21.8691 85.8302 22.8105 86.9064 24.687L88.6413 23.6919C87.1785 21.1413 84.8293 19.8691 81.768 19.8691V21.8691ZM86.9027 24.6805C87.7848 26.2455 88.2876 28.7553 88.2876 32.3438H90.2876C90.2876 28.6406 89.7812 25.7141 88.645 23.6984L86.9027 24.6805ZM107.696 49.5312L106.801 49.084L106.796 49.0941L106.792 49.1042L107.696 49.5312ZM105.401 52.7051L104.706 51.9861L104.7 51.992L104.694 51.998L105.401 52.7051ZM102.032 55.1953L101.55 54.319L101.54 54.3243L102.032 55.1953ZM97.979 57.002L97.6563 56.0554L97.6496 56.0578L97.979 57.002ZM85.9184 58.1738L84.9539 57.9098L84.6657 58.9625L85.7395 59.1577L85.9184 58.1738ZM92.4614 22.6758L92.2586 21.6966L91.5735 21.8385L91.472 22.5306L92.4614 22.6758ZM110.772 24.7754L109.903 25.2702L109.907 25.2777L109.912 25.2852L110.772 24.7754ZM110.918 31.6113L109.984 31.2542L109.98 31.2663L109.975 31.2785L110.918 31.6113ZM109.356 34.6387L110.163 35.2295L110.17 35.2199L109.356 34.6387ZM104.571 38.3984L104.225 37.4601L102.284 38.1753L104.05 39.2522L104.571 38.3984ZM95.7329 48.3594L94.7454 48.2014L94.5382 49.4967L95.8421 49.3534L95.7329 48.3594ZM101.983 45.8691L102.725 46.5391L102.73 46.5335L101.983 45.8691ZM102.276 42.2559L101.454 42.8251L101.479 42.8618L101.508 42.896L102.276 42.2559ZM101.104 41.2305L100.633 42.1128L101.104 41.2305ZM97.1001 40.498L96.8575 39.5279L96.2169 39.6881L96.1126 40.3401L97.1001 40.498ZM96.7094 42.6465L95.7309 42.4405L95.7256 42.4654L95.7217 42.4905L96.7094 42.6465ZM96.4165 44.4531L97.4013 44.6269L97.4029 44.6175L96.4165 44.4531ZM96.0747 46.2109L95.0961 46.0049L95.0909 46.0298L95.0869 46.055L96.0747 46.2109ZM98.2719 34.3457L97.2836 34.1936L97.0608 35.6418L98.4905 35.3215L98.2719 34.3457ZM101.25 28.584L101.066 29.5669L101.081 29.5697L101.096 29.572L101.25 28.584ZM99.3462 28.4375V27.4375H98.5116L98.3623 28.2586L99.3462 28.4375ZM99.102 29.7559L98.1191 29.5716L98.1143 29.5975L98.1108 29.6237L99.102 29.7559ZM98.8579 31.3184L99.8408 31.5027L99.8427 31.4921L98.8579 31.3184ZM98.5161 32.9297L97.5427 32.7006L97.5374 32.7229L97.5332 32.7454L98.5161 32.9297ZM107.575 45.9668C107.575 47.0027 107.324 48.0386 106.801 49.084L108.59 49.9785C109.239 48.6802 109.575 47.3398 109.575 45.9668H107.575ZM106.792 49.1042C106.292 50.1618 105.6 51.1219 104.706 51.9861L106.096 53.4241C107.155 52.4002 107.993 51.2445 108.6 49.9583L106.792 49.1042ZM104.694 51.998C103.823 52.8682 102.778 53.6433 101.55 54.3191L102.514 56.0715C103.889 55.315 105.09 54.43 106.108 53.4122L104.694 51.998ZM101.54 54.3243C100.327 55.009 99.0324 55.5863 97.6563 56.0554L98.3016 57.9485C99.7901 57.441 101.198 56.8139 102.523 56.0663L101.54 54.3243ZM97.6496 56.0578C94.9547 56.9978 92.2014 57.4668 89.3852 57.4668V59.4668C92.4284 59.4668 95.4043 58.9592 98.3083 57.9462L97.6496 56.0578ZM89.3852 57.4668C88.2005 57.4668 87.1053 57.3732 86.0973 57.19L85.7395 59.1577C86.88 59.365 88.096 59.4668 89.3852 59.4668V57.4668ZM86.8829 58.4379C88.4875 52.5762 89.7648 46.6649 90.7146 40.7042L88.7395 40.3895C87.8012 46.2778 86.5394 52.1178 84.9539 57.9098L86.8829 58.4379ZM90.7146 40.7042C91.6592 34.7757 92.5713 28.8146 93.4508 22.821L91.472 22.5306C90.5937 28.5162 89.6828 34.4691 88.7395 40.3895L90.7146 40.7042ZM92.6642 23.655C97.1897 22.7176 100.842 22.2598 103.643 22.2598V20.2598C100.65 20.2598 96.8476 20.746 92.2586 21.6966L92.6642 23.655ZM103.643 22.2598C106.813 22.2598 108.795 23.325 109.903 25.2702L111.641 24.2806C110.079 21.5383 107.309 20.2598 103.643 20.2598V22.2598ZM109.912 25.2852C110.319 25.9728 110.553 26.8757 110.553 28.0469H112.553C112.553 26.6139 112.266 25.3358 111.632 24.2656L109.912 25.2852ZM110.553 28.0469C110.553 29.2031 110.361 30.2694 109.984 31.2542L111.852 31.9685C112.322 30.7397 112.553 29.4297 112.553 28.0469H110.553ZM109.975 31.2785C109.615 32.3011 109.136 33.2259 108.542 34.0574L110.17 35.2199C110.878 34.2285 111.441 33.1351 111.861 31.9441L109.975 31.2785ZM108.549 34.0479C107.314 35.7354 105.871 36.8538 104.225 37.4601L104.916 39.3368C106.982 38.5759 108.729 37.1877 110.163 35.2294L108.549 34.0479ZM104.05 39.2522C106.39 40.6788 107.575 42.8584 107.575 45.9668H109.575C109.575 42.2392 108.09 39.3733 105.091 37.5446L104.05 39.2522ZM95.8421 49.3534C98.8986 49.0175 101.278 48.1427 102.725 46.5391L101.24 45.1992C100.279 46.2648 98.4916 47.0502 95.6236 47.3654L95.8421 49.3534ZM102.73 46.5335C103.397 45.7833 103.764 44.901 103.764 43.916H101.764C101.764 44.3633 101.61 44.7832 101.235 45.2048L102.73 46.5335ZM103.764 43.916C103.764 43.0602 103.57 42.2471 103.044 41.6157L101.508 42.896C101.632 43.0459 101.764 43.3396 101.764 43.916H103.764ZM103.098 41.6866C102.708 41.1229 102.192 40.6777 101.575 40.3481L100.633 42.1128C100.992 42.3041 101.258 42.5425 101.454 42.8251L103.098 41.6866ZM101.575 40.3481C100.449 39.7477 99.2286 39.4492 97.9301 39.4492V41.4492C98.9103 41.4492 99.806 41.6716 100.633 42.1128L101.575 40.3481ZM97.9301 39.4492H97.4907V41.4492H97.9301V39.4492ZM97.4907 39.4492C97.2762 39.4492 97.0646 39.4761 96.8575 39.5279L97.3426 41.4682C97.3959 41.4549 97.4447 41.4492 97.4907 41.4492V39.4492ZM96.1126 40.3401C95.9843 41.1423 95.8569 41.8418 95.7309 42.4405L97.688 42.8525C97.8224 42.2141 97.9554 41.4814 98.0875 40.656L96.1126 40.3401ZM95.7217 42.4905C95.6244 43.1063 95.5272 43.7057 95.4301 44.2887L97.4029 44.6175C97.501 44.0286 97.5991 43.4236 97.6972 42.8024L95.7217 42.4905ZM95.4317 44.2793C95.3361 44.8207 95.2243 45.3958 95.0961 46.0049L97.0532 46.4169C97.1854 45.789 97.3015 45.1923 97.4013 44.6269L95.4317 44.2793ZM95.0869 46.055C94.9894 46.6726 94.8756 47.3881 94.7454 48.2014L96.7203 48.5174C96.8506 47.7031 96.9646 46.9862 97.0624 46.3669L95.0869 46.055ZM98.4905 35.3215C100.557 34.8587 102.191 34.3253 103.333 33.6953C104.427 33.0916 105.375 32.2193 105.375 30.9766H103.375C103.375 31.0685 103.307 31.425 102.366 31.9443C101.473 32.4374 100.056 32.9212 98.0534 33.3699L98.4905 35.3215ZM105.375 30.9766C105.375 30.0186 104.96 29.2129 104.202 28.6323C103.492 28.0882 102.522 27.7705 101.405 27.596L101.096 29.572C102.063 29.723 102.655 29.9668 102.986 30.2203C103.27 30.4372 103.375 30.665 103.375 30.9766H105.375ZM101.435 27.6011C100.873 27.4958 100.353 27.4375 99.8833 27.4375V29.4375C100.195 29.4375 100.586 29.4769 101.066 29.5669L101.435 27.6011ZM99.8833 27.4375H99.3462V29.4375H99.8833V27.4375ZM98.3623 28.2586C98.2976 28.6143 98.2166 29.0518 98.1191 29.5716L100.085 29.9401C100.183 29.4182 100.264 28.9769 100.33 28.6164L98.3623 28.2586ZM98.1108 29.6237C98.0478 30.0963 97.9686 30.6031 97.8731 31.1446L99.8427 31.4921C99.9424 30.9268 100.026 30.392 100.093 29.888L98.1108 29.6237ZM97.875 31.1341C97.7803 31.6389 97.6696 32.161 97.5427 32.7006L99.4895 33.1587C99.6229 32.5916 99.7401 32.0395 99.8407 31.5026L97.875 31.1341ZM97.5332 32.7454C97.434 33.2745 97.3507 33.7575 97.2836 34.1936L99.2603 34.4978C99.3234 34.0875 99.4028 33.6265 99.4989 33.114L97.5332 32.7454ZM120.684 34.2969L119.91 33.6643L119.908 33.6663L120.684 34.2969ZM117.413 40.6934L116.465 40.3737L116.461 40.3855L117.413 40.6934ZM117.998 49.873L118.572 49.0538L118.54 49.0312L118.506 49.0111L117.998 49.873ZM123.077 48.7012L123.74 49.4498L123.741 49.4486L123.077 48.7012ZM127.764 40.1074L126.793 39.8692L126.79 39.8826L127.764 40.1074ZM134.454 38.9355L133.482 38.6992L133.479 38.7116L134.454 38.9355ZM132.159 45.5762L131.258 45.1406L132.159 45.5762ZM128.741 50.9961L127.966 50.3637L127.958 50.3733L128.741 50.9961ZM124.737 55.0488L125.355 55.8348L125.357 55.8332L124.737 55.0488ZM111.065 56.0254L110.284 56.6501L111.065 56.0254ZM118.291 25.459L117.581 24.7557L117.576 24.7601L118.291 25.459ZM133.819 24.1895L134.69 23.6984L134.686 23.6919L133.819 24.1895ZM129.399 35.4199C129.399 34.0054 129.2 32.7816 128.679 31.8797C128.109 30.8948 127.193 30.3672 126.055 30.3672V32.3672C126.48 32.3672 126.736 32.5151 126.947 32.881C127.207 33.3301 127.399 34.1326 127.399 35.4199H129.399ZM126.055 30.3672C123.691 30.3672 121.639 31.5469 119.91 33.6643L121.459 34.9294C122.919 33.1406 124.448 32.3672 126.055 32.3672V30.3672ZM119.908 33.6663C118.539 35.3512 117.4 37.6022 116.465 40.3737L118.36 41.013C119.248 38.3809 120.29 36.3675 121.46 34.9275L119.908 33.6663ZM116.461 40.3855C115.719 42.6801 115.338 44.868 115.338 46.9434H117.338C117.338 45.1125 117.674 43.1337 118.364 41.0012L116.461 40.3855ZM115.338 46.9434C115.338 48.5937 116.074 49.9012 117.491 50.735L118.506 49.0111C117.709 48.5428 117.338 47.8972 117.338 46.9434H115.338ZM117.425 50.6923C117.93 51.0456 118.507 51.2148 119.122 51.2148V49.2148C118.889 49.2148 118.718 49.1562 118.572 49.0538L117.425 50.6923ZM119.122 51.2148C120.868 51.2148 122.421 50.6179 123.74 49.4498L122.414 47.9526C121.454 48.8026 120.37 49.2148 119.122 49.2148V51.2148ZM123.741 49.4486C125.01 48.3202 126.06 46.9518 126.893 45.3551L125.12 44.43C124.39 45.8281 123.487 46.9988 122.412 47.9538L123.741 49.4486ZM126.893 45.3551C127.714 43.7804 128.329 42.1053 128.739 40.3323L126.79 39.8826C126.418 41.495 125.861 43.0099 125.12 44.43L126.893 45.3551ZM128.735 40.3456C129.173 38.5622 129.399 36.918 129.399 35.4199H127.399C127.399 36.7213 127.202 38.2021 126.793 39.8692L128.735 40.3456ZM134.332 32.3438C134.332 34.233 134.053 36.3495 133.482 38.6992L135.425 39.1719C136.026 36.7039 136.332 34.4259 136.332 32.3438H134.332ZM133.479 38.7116C132.941 41.0547 132.199 43.1964 131.258 45.1406L133.059 46.0117C134.071 43.9195 134.86 41.6341 135.428 39.1594L133.479 38.7116ZM131.258 45.1406C130.313 47.0947 129.215 48.8342 127.966 50.3637L129.515 51.6285C130.871 49.9678 132.051 48.0941 133.059 46.0117L131.258 45.1406ZM127.958 50.3733C126.73 51.9168 125.448 53.2113 124.117 54.2644L125.357 55.8332C126.825 54.6728 128.213 53.2655 129.523 51.6188L127.958 50.3733ZM124.119 54.2628C121.331 56.4549 118.76 57.4668 116.387 57.4668V59.4668C119.352 59.4668 122.348 58.2 125.355 55.8348L124.119 54.2628ZM116.387 57.4668C114.418 57.4668 112.942 56.7707 111.846 55.4007L110.284 56.6501C111.792 58.5353 113.864 59.4668 116.387 59.4668V57.4668ZM111.846 55.4007C110.61 53.8562 109.916 51.5108 109.916 48.2129H107.916C107.916 51.7509 108.655 54.6138 110.284 56.6501L111.846 55.4007ZM109.916 48.2129C109.916 44.6569 110.743 40.7805 112.432 36.5738L110.576 35.8286C108.815 40.2156 107.916 44.347 107.916 48.2129H109.916ZM112.432 36.5738C114.116 32.3798 116.312 28.9153 119.007 26.1579L117.576 24.7601C114.672 27.7319 112.343 31.4288 110.576 35.8286L112.432 36.5738ZM119.002 26.1623C121.9 23.2335 124.832 21.8691 127.813 21.8691V19.8691C124.153 19.8691 120.738 21.5647 117.581 24.7557L119.002 26.1623ZM127.813 21.8691C130.22 21.8691 131.875 22.8105 132.951 24.687L134.686 23.6919C133.223 21.1413 130.874 19.8691 127.813 19.8691V21.8691ZM132.948 24.6805C133.83 26.2455 134.332 28.7553 134.332 32.3438H136.332C136.332 28.6406 135.826 25.7141 134.69 23.6984L132.948 24.6805ZM136.211 28.877L135.212 28.8388L135.182 29.6185L135.931 29.837L136.211 28.877ZM136.456 22.4805L136.532 21.4834L135.496 21.4037L135.456 22.4423L136.456 22.4805ZM154.913 21.8457L155.893 22.0418L156.166 20.6773L154.786 20.8538L154.913 21.8457ZM154.375 24.5312L155.353 24.7437L155.354 24.7355L155.356 24.7274L154.375 24.5312ZM153.887 26.875L152.907 26.6789L152.903 26.6947L152.901 26.7106L153.887 26.875ZM153.497 28.9258L153.749 29.8934L154.34 29.7392L154.473 29.1427L153.497 28.9258ZM151.25 29.3652L151.337 30.3615L151.358 30.3596L151.38 30.3568L151.25 29.3652ZM149.053 29.6582L148.874 28.6743L148.229 28.7917L148.079 29.4306L149.053 29.6582ZM147.295 38.9844L148.283 39.1411L148.283 39.1403L147.295 38.9844ZM144.561 56.9043L144.717 57.8921L145.449 57.7766L145.551 57.0421L144.561 56.9043ZM135.577 58.3203L134.599 58.1118L134.295 59.5346L135.732 59.3081L135.577 58.3203ZM140.899 29.2676L141.891 29.3967L142.02 28.4L141.023 28.2753L140.899 29.2676ZM137.211 28.9151L137.455 22.5186L135.456 22.4423L135.212 28.8388L137.211 28.9151ZM136.379 23.4775C138.097 23.6097 139.832 23.6758 141.582 23.6758V21.6758C139.882 21.6758 138.199 21.6116 136.532 21.4834L136.379 23.4775ZM141.582 23.6758C146.18 23.6758 150.666 23.3966 155.039 22.8376L154.786 20.8538C150.5 21.4016 146.099 21.6758 141.582 21.6758V23.6758ZM153.932 21.6496L153.395 24.3351L155.356 24.7274L155.893 22.0418L153.932 21.6496ZM153.398 24.3188C153.234 25.0734 153.07 25.8601 152.907 26.6789L154.868 27.0711C155.03 26.2623 155.191 25.4865 155.353 24.7437L153.398 24.3188ZM152.901 26.7106C152.773 27.4794 152.646 28.1448 152.52 28.7089L154.473 29.1427C154.608 28.5349 154.741 27.8331 154.874 27.0394L152.901 26.7106ZM153.244 27.9582C152.535 28.1432 151.827 28.2815 151.121 28.3736L151.38 30.3568C152.171 30.2536 152.961 30.099 153.749 29.8934L153.244 27.9582ZM151.164 28.369C150.385 28.4367 149.622 28.5384 148.874 28.6743L149.232 30.6421C149.917 30.5176 150.618 30.424 151.337 30.3615L151.164 28.369ZM148.079 29.4306C147.486 31.9688 146.896 35.1033 146.308 38.8284L148.283 39.1403C148.867 35.4436 149.448 32.3606 150.027 29.8858L148.079 29.4306ZM146.308 38.8276C145.006 47.0314 144.093 53.0128 143.571 56.7665L145.551 57.0421C146.071 53.3088 146.981 47.3436 148.283 39.1411L146.308 38.8276ZM144.405 55.9165L135.421 57.3325L135.732 59.3081L144.717 57.8921L144.405 55.9165ZM136.555 58.5288C139.193 46.1498 140.974 36.435 141.891 29.3967L139.907 29.1384C139.001 36.0975 137.233 45.7513 134.599 58.1118L136.555 58.5288ZM141.023 28.2753C140.187 28.1708 139.35 28.1359 138.514 28.1708L138.597 30.1691C139.322 30.1388 140.048 30.169 140.775 30.2599L141.023 28.2753ZM138.514 28.1708C137.845 28.1986 137.173 28.1156 136.491 27.917L135.931 29.837C136.813 30.094 137.703 30.2063 138.597 30.1691L138.514 28.1708Z" fill="black"/>
</g>
<defs>
<linearGradient id="paint0_linear_137_7171" x1="46.7425" y1="382.027" x2="194.61" y2="382.68" gradientUnits="userSpaceOnUse">
<stop stop-color="#FE3061"/>
<stop offset="1" stop-color="#FC7DFF"/>
</linearGradient>
<clipPath id="clip0_137_7171">
<rect width="177.052" height="496.889" fill="white" transform="translate(4.43799 4.28516)"/>
</clipPath>
</defs>
</svg>
