<svg width="186" height="506" viewBox="0 0 186 506" fill="none" xmlns="http://www.w3.org/2000/svg">
<rect width="185" height="505" transform="translate(0.156494 0.00195312)" fill="white"/>
<g clip-path="url(#clip0_113_15967)">
<rect width="177.052" height="496.889" transform="translate(4.43799 4.28516)" fill="#D0CECE"/>
<path d="M197.292 309.424L207.235 449.576C207.235 449.576 211.8 490.465 116.654 490.465C25.2451 490.465 29.9271 452.118 29.9271 452.118L39.5809 333.853L41.0782 308.205C41.6375 298.624 47.394 291.599 54.0552 289.156C59.155 289.156 63.6707 289.024 66.9869 289.156H174.667C186.513 289.156 196.365 297.983 197.292 309.424Z" fill="#B1B1B1" stroke="black" stroke-width="5.15476" stroke-miterlimit="10"/>
<path d="M62.0493 291.796C58.9827 294.282 57.8809 325.029 57.8809 340.594C54.6419 344.649 40.9926 353.591 40.5415 355.876C39.8051 359.607 37.214 389.558 37.2156 391.796C37.2165 393.109 51.99 414.312 51.99 417.174C51.99 420.036 51.6661 461.675 51.99 464.179C52.3139 466.683 66.6477 484.422 72.9771 485.816C81.8138 487.763 133.729 492.531 166.131 484.324C169.587 483.449 183.657 466.683 185.277 464.179C186.896 461.675 184.909 416.731 186.014 414.493C187.511 411.46 200.005 395.041 200.005 392.179C200.005 389.317 198.901 361.962 197.796 357.112C196.88 353.09 180.972 342.563 180.972 340.671C180.972 338.453 181.155 292.477 177.792 291.796C174.11 291.05 151.421 291.131 147.859 291.131C144.296 291.131 139.813 314.068 136.676 315.27C132.626 316.822 108.901 315.27 103.719 315.27C98.537 315.27 94.9918 292.416 91.3176 291.796C86.8992 291.05 63.8903 290.304 62.0493 291.796Z" fill="#E0E0E0"/>
<path d="M145.14 489.338C148.202 488.749 172.815 463.73 174.228 461.317C175.64 458.904 173.809 426.884 176.069 424.816L202.179 391.131M89.1741 488.232C83.6539 486.889 62.5781 463.73 62.2956 461.317C62.0132 458.904 61.9275 424.816 61.1911 424.816L35.4172 392.002" stroke="#B1B1B1" stroke-width="4.41837"/>
<path d="M197.302 309.425L207.245 449.578C207.245 449.578 211.81 490.467 116.664 490.467C25.2548 490.467 29.9369 452.119 29.9369 452.119L39.5907 333.854L41.0879 308.207C41.7399 297.039 49.1869 288.471 57.3909 289.157C61.1603 289.157 64.4863 289.157 66.9967 289.157H174.677C187.768 289.801 196.375 297.985 197.302 309.425Z" stroke="black" stroke-width="5.1796" stroke-miterlimit="10"/>
<path d="M27.71 288.695H55.9467C55.0181 325.856 40.1978 323.618 40.1978 323.618C40.1978 319.446 39.719 318.82 36.335 316.17L28.8811 311.635C28.2794 311.277 28.3117 310.426 28.9264 310.1L39.719 304.399L41.3689 303.579C43.1354 302.533 42.8507 301.336 41.8154 300.465C41.8025 300.459 41.796 300.447 41.7831 300.44C37.3573 296.807 27.0888 290.242 27.0888 290.242C26.4677 289.691 26.8688 288.695 27.71 288.695Z" fill="#B1B1B1"/>
<path d="M63.3722 289.138H45.5411H27.71C26.8688 289.138 26.4677 290.134 27.0888 290.685C27.0888 290.685 37.3573 297.25 41.783 300.883C41.796 300.889 41.8025 300.902 41.8154 300.908C42.8507 301.779 43.1354 302.975 41.3689 304.021L39.719 304.842L28.9264 310.542C28.3117 310.868 28.2794 311.72 28.8811 312.077L36.335 316.612C39.719 319.262 40.1978 319.889 40.1978 324.061" stroke="black" stroke-width="5.1796" stroke-miterlimit="10"/>
<path d="M89.7593 449.221C106.056 450.906 128.95 450.518 148.739 449.221" stroke="#150C0C" stroke-width="5.43237" stroke-linecap="round"/>
<path d="M118.573 274.946C25.6269 274.946 17.4753 344.125 17.4753 344.125H18.796C31.4104 313.738 56.9579 292.774 118.573 292.774C180.187 292.774 204.382 313.365 216.996 343.753L219.693 344.125C219.693 344.125 211.541 274.946 118.573 274.946Z" fill="black"/>
<path d="M118.13 251C2.1729 251 11.9121 341.909 11.9121 341.909H16.5214C29.781 306.61 53.399 274.947 118.13 274.947C182.862 274.947 209.292 308.231 218.863 341.909H224.371C224.371 341.909 234.088 251 118.13 251Z" fill="white" stroke="black" stroke-width="4.28803"/>
<path d="M11.6242 341.544C11.7717 339.779 17.9935 339.004 18.2198 341.836C18.3122 342.992 17.3933 358.491 17.3933 358.491L10.7978 358.199C10.7978 358.199 11.404 344.18 11.6242 341.544Z" fill="white" stroke="black" stroke-width="4.28803"/>
<path d="M17.8322 404.743C17.7199 405.968 18.5285 407.16 19.9637 407.915C24.0034 410.022 25.525 410.114 29.9049 408.512C31.4622 407.937 32.4795 406.855 32.5918 405.63C34.1552 388.588 35.7203 371.529 37.2837 354.487C37.396 353.262 36.5874 352.07 35.1521 351.315C31.1125 349.208 29.5909 349.116 25.211 350.718C23.6537 351.293 22.6364 352.375 22.5241 353.6C20.9606 370.642 19.3972 387.684 17.8322 404.743Z" fill="#020202" stroke="black" stroke-width="4.28803"/>
<path d="M3.5937 393.729C3.18277 398.208 7.35226 402.109 12.9078 402.443L18.3363 402.769L22.7598 354.551L17.3313 354.225C11.7758 353.891 6.9402 357.251 6.52927 361.73L3.5937 393.729Z" fill="white" stroke="black" stroke-width="4.28803"/>
<rect x="29.4478" y="355.261" width="178.877" height="49.6156" rx="23.7514" fill="black"/>
<rect x="34.02" y="360.485" width="169.738" height="39.1702" rx="19.5851" fill="#494949"/>
<rect x="41.1934" y="366.359" width="156.028" height="27.4192" rx="13.7096" fill="url(#paint0_linear_113_15967)"/>
<path d="M10.7143 78.8414C11.076 78.698 16.4267 76.2753 40.4192 76.5085C55.5895 76.6079 92.2815 78.6254 92.2815 78.6254C92.2815 78.6254 141.384 74.7007 142.966 74.9656C161.078 74.0641 171.236 77.8587 171.236 77.8587C171.236 77.8587 171.828 76.6111 172.894 77.7963C173.961 78.9815 171.236 97.8082 171.236 97.8082C171.236 97.8082 177.235 108.16 175.886 113.283C174.536 118.406 170.592 123.062 170.592 123.062C170.592 123.062 180.535 120.644 175.886 135.564C171.236 150.484 181.316 153.387 178.316 164.203C176.064 172.321 167.325 175.626 167.325 182.765C167.325 189.905 173.116 188.493 178.316 192.75C183.515 197.006 155.486 202.154 142.966 202.755C130.447 203.356 107.712 197.044 92.3182 201.632C76.924 206.221 56.3773 202.596 53.3094 202.755C50.2414 202.914 35.9254 201.485 32.4758 201.398C29.0646 201.462 14.941 200.782 13.2816 200.217C11.6792 199.564 10.9894 199.813 9.98134 198.849C7.38515 196.367 15.7464 185.621 15.7464 185.621L11.0288 157.531C11.0288 157.531 9.19568 156.886 8.3381 156.053C5.3677 153.168 16.634 150.484 16.634 150.484C16.634 150.484 16.9015 149.25 11.4989 146.935C6.09621 144.62 10.9459 123.062 10.9459 123.062C10.9459 123.062 14.328 118.847 14.5729 117.626C14.8177 116.405 15.5367 114.237 13.8573 113.283C12.1779 112.33 10.5309 111.446 9.98135 110.292C9.43181 109.138 14.5719 103.52 14.5719 103.52L14.5719 97.8082C14.5719 97.8082 10.3525 78.9848 10.7143 78.8414Z" fill="white" stroke="black" stroke-width="2.14176"/>
<path d="M70.367 111.739C69.8475 112.094 69.3963 112.416 69.0135 112.703C68.6444 112.976 68.2821 113.209 67.9266 113.4C67.5711 113.592 67.1883 113.735 66.7782 113.831C66.3817 113.927 65.8895 113.974 65.3016 113.974C64.0301 113.974 63.0868 113.639 62.4715 112.969C61.8563 112.286 61.5487 111.274 61.5487 109.934C61.5487 109.415 61.617 108.875 61.7538 108.314C61.8905 107.754 62.0887 107.2 62.3485 106.653C62.6219 106.093 62.9432 105.566 63.3124 105.074C63.6815 104.568 64.0985 104.124 64.5633 103.741C65.0282 103.358 65.5204 103.057 66.0399 102.839C66.5731 102.606 67.1336 102.49 67.7215 102.49C68.7059 102.586 69.4784 102.832 70.0389 103.228C70.5995 103.611 71.0233 104.11 71.3104 104.725C71.5975 105.327 71.7958 106.004 71.9051 106.756C72.0145 107.494 72.0965 108.26 72.1512 109.052C72.2196 109.845 72.3016 110.638 72.3973 111.431C72.493 112.224 72.6913 112.956 72.992 113.626C72.8143 114.077 72.6434 114.391 72.4793 114.569C72.329 114.76 72.1581 114.795 71.9667 114.672C71.7752 114.549 71.5497 114.248 71.2899 113.769C71.0438 113.291 70.7362 112.614 70.367 111.739ZM63.2918 109.975C63.2918 110.755 63.4354 111.329 63.7225 111.698C64.0233 112.053 64.5497 112.231 65.3016 112.231C65.8622 112.231 66.3954 112.135 66.9012 111.944C67.4208 111.739 67.8719 111.466 68.2547 111.124C68.6376 110.768 68.9452 110.344 69.1776 109.852C69.41 109.36 69.5262 108.813 69.5262 108.212C69.5262 107.966 69.5331 107.624 69.5467 107.186C69.5604 106.735 69.5331 106.291 69.4647 105.853C69.3963 105.416 69.2665 105.04 69.0751 104.725C68.8836 104.397 68.5965 104.233 68.2137 104.233C67.5028 104.233 66.8465 104.418 66.245 104.787C65.6434 105.142 65.1239 105.6 64.6864 106.161C64.2489 106.721 63.9071 107.344 63.661 108.027C63.4149 108.697 63.2918 109.346 63.2918 109.975ZM73.8329 111.965C73.8329 111.172 74.0311 110.468 74.4276 109.852C74.8241 109.237 75.3163 108.704 75.9042 108.253C76.492 107.788 77.1278 107.398 77.8114 107.084C78.495 106.756 79.1307 106.489 79.7186 106.284C80.3065 106.065 80.7987 105.894 81.1952 105.771C81.5917 105.635 81.7899 105.525 81.7899 105.443C81.7899 104.965 81.7626 104.5 81.7079 104.049C81.6668 103.584 81.619 103.119 81.5643 102.654C81.5096 102.189 81.4549 101.731 81.4002 101.28C81.3592 100.815 81.3387 100.357 81.3387 99.906V98.573C81.8993 98.3679 82.2958 98.3884 82.5282 98.6345C82.7743 98.8806 82.8153 99.3044 82.6512 99.906C82.7059 100.207 82.7811 100.678 82.8768 101.321C82.9725 101.964 83.0751 102.688 83.1844 103.495C83.3075 104.302 83.4305 105.149 83.5536 106.038C83.6903 106.927 83.8133 107.781 83.9227 108.601C84.0458 109.408 84.1483 110.133 84.2303 110.775C84.3124 111.404 84.3739 111.876 84.4149 112.19C84.4286 112.259 84.4422 112.395 84.4559 112.6C84.4696 112.792 84.4764 113.004 84.4764 113.236C84.4901 113.455 84.4969 113.66 84.4969 113.851C84.5106 114.043 84.5174 114.179 84.5174 114.261C83.9979 114.261 83.6424 114.241 83.451 114.2C83.2733 114.159 83.1571 114.077 83.1024 113.954C83.0614 113.831 83.0409 113.653 83.0409 113.421C83.0409 113.188 82.9725 112.867 82.8358 112.457C82.3299 112.853 81.8514 113.181 81.4002 113.441C80.9491 113.701 80.4979 113.913 80.0467 114.077C79.5956 114.227 79.1376 114.33 78.6727 114.385C78.2215 114.453 77.7362 114.487 77.2167 114.487C76.7792 114.487 76.3553 114.453 75.9452 114.385C75.5487 114.302 75.1932 114.166 74.8788 113.974C74.5643 113.783 74.3114 113.523 74.12 113.195C73.9286 112.867 73.8329 112.457 73.8329 111.965ZM75.617 111.534C75.617 111.753 75.6649 111.93 75.7606 112.067C75.8563 112.204 75.9793 112.32 76.1297 112.416C76.2801 112.511 76.4374 112.58 76.6014 112.621C76.7792 112.648 76.9501 112.662 77.1141 112.662C77.5926 112.662 78.1053 112.573 78.6522 112.395C79.2127 112.204 79.7254 111.944 80.1903 111.616C80.6688 111.274 81.0584 110.871 81.3592 110.406C81.6737 109.941 81.8309 109.435 81.8309 108.888C81.8309 108.465 81.7557 108.171 81.6053 108.007C81.4549 107.843 81.1678 107.76 80.744 107.76C80.3065 107.76 79.7938 107.863 79.2059 108.068C78.6317 108.273 78.0711 108.547 77.5243 108.888C76.9911 109.23 76.5399 109.634 76.1708 110.098C75.8016 110.55 75.617 111.028 75.617 111.534ZM85.7274 108.683C85.7274 107.945 85.8163 107.207 85.994 106.469C86.1717 105.73 86.452 105.067 86.8348 104.479C87.2313 103.891 87.7372 103.413 88.3524 103.044C88.9813 102.675 89.7401 102.49 90.6288 102.49C91.1346 102.49 91.579 102.586 91.9618 102.777C92.3446 102.955 92.6659 103.194 92.9256 103.495C93.1854 103.796 93.3768 104.151 93.4999 104.561C93.6366 104.958 93.7049 105.375 93.7049 105.812C93.7049 106.51 93.5409 107.186 93.2127 107.843C92.8983 108.499 92.4676 109.08 91.9208 109.586C91.3876 110.078 90.7723 110.454 90.0751 110.714C89.3778 110.96 88.6668 111.014 87.9422 110.878C87.9559 111.274 88.0858 111.595 88.3319 111.842C88.5917 112.074 88.8993 112.252 89.2547 112.375C89.6102 112.498 89.9793 112.58 90.3622 112.621C90.745 112.648 91.0868 112.662 91.3876 112.662C91.702 112.662 91.9959 112.635 92.2694 112.58C92.5428 112.525 92.8163 112.464 93.0897 112.395C93.3631 112.327 93.6366 112.265 93.91 112.211C94.1971 112.156 94.4979 112.129 94.8124 112.129C94.9354 112.129 95.0584 112.135 95.1815 112.149C95.3045 112.163 95.4208 112.197 95.5301 112.252C95.6395 112.293 95.7284 112.368 95.7967 112.477C95.8651 112.573 95.8993 112.696 95.8993 112.846C95.8993 113.106 95.8036 113.325 95.6122 113.503C95.4208 113.667 95.1747 113.81 94.8739 113.933C94.5868 114.056 94.2655 114.152 93.91 114.22C93.5545 114.275 93.2059 114.323 92.8641 114.364C92.536 114.391 92.2284 114.405 91.9413 114.405C91.6678 114.419 91.4627 114.426 91.326 114.426C90.451 114.426 89.6649 114.289 88.9676 114.015C88.2704 113.728 87.6825 113.339 87.204 112.846C86.7254 112.341 86.3563 111.739 86.0965 111.042C85.8504 110.331 85.7274 109.545 85.7274 108.683ZM87.9012 107.35C87.9012 107.829 87.9627 108.177 88.0858 108.396C88.2225 108.615 88.5438 108.724 89.0497 108.724C89.4051 108.724 89.7538 108.663 90.0956 108.54C90.4374 108.403 90.745 108.219 91.0184 107.986C91.3055 107.754 91.5311 107.48 91.6952 107.166C91.8592 106.851 91.9413 106.51 91.9413 106.14C91.9413 105.935 91.9208 105.723 91.8797 105.505C91.8524 105.286 91.784 105.088 91.6747 104.91C91.5653 104.719 91.4217 104.568 91.244 104.459C91.0799 104.336 90.8612 104.274 90.5877 104.274C90.1776 104.274 89.8016 104.37 89.4598 104.561C89.1317 104.739 88.8514 104.978 88.619 105.279C88.3866 105.566 88.2088 105.894 88.0858 106.263C87.9627 106.619 87.9012 106.981 87.9012 107.35ZM97.1708 106.817C97.1708 105.491 97.4784 104.507 98.0936 103.864C98.7088 103.221 99.6522 102.9 100.924 102.9C101.443 102.9 101.976 102.948 102.523 103.044C103.084 103.139 103.597 103.31 104.061 103.556C104.526 103.789 104.902 104.117 105.189 104.541C105.49 104.965 105.64 105.511 105.64 106.181C105.64 106.92 105.476 107.617 105.148 108.273C104.834 108.916 104.431 109.524 103.938 110.098C103.46 110.659 102.927 111.185 102.339 111.677C101.765 112.156 101.224 112.614 100.719 113.052C100.691 113.106 100.664 113.222 100.637 113.4C100.623 113.564 100.616 113.674 100.616 113.728C100.616 114.179 100.746 114.631 101.006 115.082C101.279 115.547 101.573 116.011 101.888 116.476C102.202 116.955 102.489 117.447 102.749 117.953C103.009 118.459 103.139 118.985 103.139 119.532C103.139 119.86 103.07 120.052 102.933 120.106C102.797 120.175 102.51 120.209 102.072 120.209C101.799 120.099 101.525 119.84 101.252 119.429C100.992 119.033 100.725 118.541 100.452 117.953C100.192 117.365 99.9325 116.702 99.6727 115.964C99.4266 115.239 99.1874 114.501 98.9549 113.749C98.7362 112.983 98.5243 112.231 98.3192 111.493C98.1278 110.741 97.9569 110.051 97.8065 109.422C97.6561 108.793 97.5194 108.253 97.3963 107.802C97.287 107.337 97.2118 107.009 97.1708 106.817ZM98.9139 107.002C98.9139 107.207 98.9276 107.508 98.9549 107.904C98.9823 108.287 99.037 108.67 99.119 109.052C99.2147 109.435 99.3514 109.77 99.5292 110.057C99.7069 110.331 99.953 110.468 100.267 110.468C100.691 110.468 101.115 110.324 101.539 110.037C101.976 109.75 102.359 109.387 102.687 108.95C103.029 108.512 103.303 108.048 103.508 107.555C103.726 107.05 103.836 106.592 103.836 106.181C103.836 105.84 103.754 105.573 103.59 105.382C103.426 105.177 103.214 105.019 102.954 104.91C102.708 104.787 102.441 104.712 102.154 104.684C101.867 104.643 101.594 104.623 101.334 104.623C100.555 104.623 99.953 104.835 99.5292 105.259C99.119 105.669 98.9139 106.25 98.9139 107.002ZM106.399 104.049C106.399 104.008 106.406 103.973 106.42 103.946C106.42 103.919 106.427 103.885 106.44 103.844C106.495 103.775 106.577 103.686 106.686 103.577C106.796 103.468 106.864 103.413 106.891 103.413H111.014C111.014 103.262 110.993 103.023 110.952 102.695C110.911 102.367 110.87 102.005 110.829 101.608C110.802 101.212 110.795 100.802 110.808 100.378C110.822 99.9402 110.877 99.5505 110.973 99.2087C111.082 98.8533 111.246 98.5662 111.465 98.3474C111.697 98.115 112.018 97.9988 112.429 97.9988C112.429 99.3796 112.524 100.487 112.716 101.321C112.907 102.155 113.16 102.798 113.474 103.249C113.803 103.7 114.172 103.994 114.582 104.131C114.992 104.267 115.409 104.329 115.833 104.315C116.27 104.288 116.694 104.219 117.104 104.11C117.515 104.001 117.877 103.926 118.191 103.885C118.519 103.844 118.779 103.878 118.971 103.987C119.162 104.083 119.258 104.322 119.258 104.705C119.258 104.992 119.189 105.197 119.053 105.32C118.93 105.443 118.683 105.539 118.314 105.607C118.205 105.621 118.02 105.648 117.761 105.689C117.515 105.717 117.234 105.744 116.92 105.771C116.605 105.799 116.27 105.833 115.915 105.874C115.559 105.901 115.224 105.928 114.91 105.956C114.596 105.983 114.308 106.004 114.049 106.017C113.789 106.017 113.598 106.017 113.474 106.017C113.474 106.086 113.468 106.202 113.454 106.366C113.44 106.53 113.433 106.639 113.433 106.694C113.433 107.296 113.529 107.884 113.721 108.458C113.912 109.018 114.117 109.579 114.336 110.139C114.568 110.7 114.78 111.26 114.972 111.821C115.163 112.382 115.259 112.963 115.259 113.564C115.259 113.674 115.245 113.79 115.218 113.913C115.204 114.022 115.163 114.125 115.095 114.22C115.04 114.302 114.951 114.364 114.828 114.405C114.719 114.46 114.561 114.453 114.356 114.385C113.837 114.248 113.447 113.954 113.187 113.503C112.941 113.052 112.757 112.518 112.634 111.903C112.511 111.274 112.429 110.611 112.388 109.914C112.347 109.217 112.278 108.567 112.182 107.966C112.1 107.35 111.964 106.831 111.772 106.407C111.581 105.969 111.273 105.703 110.849 105.607L106.891 104.705C106.837 104.705 106.755 104.65 106.645 104.541C106.536 104.418 106.468 104.329 106.44 104.274C106.427 104.247 106.42 104.213 106.42 104.172C106.406 104.144 106.399 104.103 106.399 104.049ZM41.3895 139.221C41.3895 138.374 41.5877 137.588 41.9842 136.863C42.3807 136.125 42.9002 135.496 43.5428 134.976C44.1991 134.443 44.9305 134.026 45.7372 133.725C46.5575 133.425 47.3846 133.274 48.2186 133.274C48.6834 133.274 49.0936 133.425 49.4491 133.725C49.8182 134.026 50.1258 134.395 50.3719 134.833C50.618 135.257 50.8026 135.708 50.9256 136.186C51.0624 136.665 51.1307 137.082 51.1307 137.437C51.1307 138.203 50.9461 138.948 50.577 139.673C50.2079 140.384 49.7293 141.019 49.1415 141.58C48.5536 142.127 47.8905 142.571 47.1522 142.913C46.4139 143.255 45.6756 143.426 44.9374 143.426C44.2811 143.426 43.7274 143.316 43.2762 143.097C42.8251 142.865 42.4627 142.564 42.1893 142.195C41.9159 141.812 41.7108 141.368 41.5741 140.862C41.451 140.343 41.3895 139.796 41.3895 139.221ZM43.1327 139.427C43.1327 139.782 43.16 140.096 43.2147 140.37C43.2831 140.63 43.3924 140.855 43.5428 141.047C43.7069 141.238 43.9188 141.388 44.1786 141.498C44.4383 141.594 44.7596 141.641 45.1424 141.641C45.6483 141.641 46.1542 141.505 46.66 141.231C47.1659 140.944 47.617 140.589 48.0135 140.165C48.4237 139.727 48.7518 139.249 48.9979 138.729C49.244 138.21 49.367 137.704 49.367 137.212C49.367 136.993 49.3465 136.754 49.3055 136.494C49.2645 136.234 49.1961 135.995 49.1004 135.776C49.0047 135.557 48.868 135.373 48.6903 135.222C48.5126 135.072 48.287 134.997 48.0135 134.997C47.7674 134.997 47.4735 135.079 47.1317 135.243C46.8036 135.407 46.4549 135.619 46.0858 135.879C45.7303 136.138 45.3749 136.432 45.0194 136.76C44.6776 137.089 44.3631 137.417 44.076 137.745C43.7889 138.073 43.5565 138.387 43.3788 138.688C43.2147 138.989 43.1327 139.235 43.1327 139.427ZM60.2772 145.292C59.9901 144.759 59.6688 144.095 59.3133 143.302C58.9715 142.496 58.6161 141.662 58.2469 140.801C57.8778 139.926 57.4881 139.071 57.078 138.237C56.6815 137.403 56.2782 136.678 55.868 136.063C55.704 135.94 55.4784 135.865 55.1913 135.838C54.9042 135.81 54.6034 135.803 54.2889 135.817C53.9745 135.817 53.66 135.81 53.3456 135.797C53.0448 135.769 52.7782 135.694 52.5458 135.571C52.327 135.448 52.1629 135.257 52.0536 134.997C51.9442 134.737 51.9237 134.361 51.992 133.869H55.4374C55.5057 133.103 55.6219 132.344 55.786 131.593C55.9501 130.841 56.1688 130.123 56.4422 129.439C56.7293 128.756 57.0711 128.12 57.4676 127.532C57.8641 126.944 58.3426 126.438 58.9032 126.014C59.4637 125.591 60.1063 125.256 60.8309 125.01C61.5692 124.763 62.4032 124.64 63.3329 124.64C63.661 124.64 63.9891 124.722 64.3172 124.886C64.6454 125.037 64.9393 125.242 65.1991 125.502C65.4588 125.761 65.6639 126.055 65.8143 126.384C65.9784 126.712 66.0604 127.04 66.0604 127.368C65.8006 127.368 65.5682 127.32 65.3631 127.224C65.1581 127.115 64.9598 126.999 64.7684 126.876C64.577 126.739 64.3719 126.616 64.1532 126.507C63.9344 126.384 63.6883 126.322 63.4149 126.322C62.5946 126.322 61.829 126.486 61.118 126.814C60.4208 127.142 59.8055 127.58 59.2723 128.127C58.7528 128.674 58.3426 129.309 58.0418 130.034C57.7411 130.759 57.5907 131.524 57.5907 132.331C57.5907 132.385 57.5907 132.488 57.5907 132.638C57.6043 132.775 57.6112 132.926 57.6112 133.09C57.6112 133.254 57.6112 133.411 57.6112 133.561C57.6249 133.712 57.6317 133.814 57.6317 133.869C58.1376 134.033 58.7049 134.156 59.3338 134.238C59.9627 134.32 60.5917 134.375 61.2206 134.402C61.8631 134.416 62.4784 134.409 63.0663 134.382C63.6678 134.354 64.201 134.32 64.6659 134.279C64.7069 134.32 64.7821 134.395 64.8915 134.505C65.0008 134.614 65.0624 134.696 65.076 134.751C65.076 134.792 65.0829 134.819 65.0965 134.833C65.1239 134.915 65.1376 134.956 65.1376 134.956C65.1376 135.243 64.9872 135.469 64.6864 135.633C64.3856 135.797 64.0028 135.92 63.5379 136.002C63.0731 136.07 62.5536 136.118 61.9793 136.145C61.4188 136.173 60.8719 136.2 60.3387 136.227C59.8192 136.241 59.3475 136.268 58.9237 136.309C58.5135 136.337 58.2264 136.398 58.0624 136.494C58.2401 137.314 58.5545 138.107 59.0057 138.873C59.4706 139.638 59.9422 140.404 60.4208 141.17C60.8993 141.935 61.3231 142.708 61.6922 143.487C62.0614 144.266 62.2459 145.066 62.2459 145.886C62.1913 145.886 62.0614 145.886 61.8563 145.886C61.6649 145.9 61.4598 145.893 61.2411 145.866C61.0223 145.839 60.8104 145.777 60.6053 145.681C60.4139 145.599 60.3045 145.469 60.2772 145.292ZM75.8631 139.221C75.8631 138.374 76.0614 137.588 76.4579 136.863C76.8543 136.125 77.3739 135.496 78.0165 134.976C78.6727 134.443 79.4042 134.026 80.2108 133.725C81.0311 133.425 81.8583 133.274 82.6922 133.274C83.1571 133.274 83.5672 133.425 83.9227 133.725C84.2918 134.026 84.5995 134.395 84.8456 134.833C85.0917 135.257 85.2762 135.708 85.3993 136.186C85.536 136.665 85.6043 137.082 85.6043 137.437C85.6043 138.203 85.4198 138.948 85.0506 139.673C84.6815 140.384 84.203 141.019 83.6151 141.58C83.0272 142.127 82.3641 142.571 81.6258 142.913C80.8876 143.255 80.1493 143.426 79.411 143.426C78.7547 143.426 78.201 143.316 77.7499 143.097C77.2987 142.865 76.9364 142.564 76.6629 142.195C76.3895 141.812 76.1844 141.368 76.0477 140.862C75.9247 140.343 75.8631 139.796 75.8631 139.221ZM77.6063 139.427C77.6063 139.782 77.6336 140.096 77.6883 140.37C77.7567 140.63 77.8661 140.855 78.0165 141.047C78.1805 141.238 78.3924 141.388 78.6522 141.498C78.912 141.594 79.2333 141.641 79.6161 141.641C80.1219 141.641 80.6278 141.505 81.1336 141.231C81.6395 140.944 82.0907 140.589 82.4872 140.165C82.8973 139.727 83.2254 139.249 83.4715 138.729C83.7176 138.21 83.8407 137.704 83.8407 137.212C83.8407 136.993 83.8202 136.754 83.7792 136.494C83.7381 136.234 83.6698 135.995 83.5741 135.776C83.4784 135.557 83.3417 135.373 83.1639 135.222C82.9862 135.072 82.7606 134.997 82.4872 134.997C82.2411 134.997 81.9471 135.079 81.6053 135.243C81.2772 135.407 80.9286 135.619 80.5594 135.879C80.204 136.138 79.8485 136.432 79.493 136.76C79.1512 137.089 78.8368 137.417 78.5497 137.745C78.2626 138.073 78.0301 138.387 77.8524 138.688C77.6883 138.989 77.6063 139.235 77.6063 139.427ZM86.4042 135.817C86.4042 134.491 86.7118 133.507 87.327 132.864C87.9422 132.221 88.8856 131.9 90.1571 131.9C90.6766 131.9 91.2098 131.948 91.7567 132.044C92.3172 132.139 92.8299 132.31 93.2948 132.556C93.7596 132.789 94.1356 133.117 94.4227 133.541C94.7235 133.965 94.8739 134.511 94.8739 135.181C94.8739 135.92 94.7098 136.617 94.3817 137.273C94.0672 137.916 93.6639 138.524 93.1717 139.098C92.6932 139.659 92.16 140.185 91.5721 140.677C90.9979 141.156 90.4579 141.614 89.952 142.052C89.9247 142.106 89.8973 142.222 89.87 142.4C89.8563 142.564 89.8495 142.674 89.8495 142.728C89.8495 143.179 89.9793 143.631 90.2391 144.082C90.5126 144.547 90.8065 145.011 91.1209 145.476C91.4354 145.955 91.7225 146.447 91.9823 146.953C92.242 147.459 92.3719 147.985 92.3719 148.532C92.3719 148.86 92.3036 149.052 92.1668 149.106C92.0301 149.175 91.743 149.209 91.3055 149.209C91.0321 149.099 90.7586 148.84 90.4852 148.429C90.2254 148.033 89.9588 147.541 89.6854 146.953C89.4256 146.365 89.1659 145.702 88.9061 144.964C88.66 144.239 88.4208 143.501 88.1883 142.749C87.9696 141.983 87.7577 141.231 87.5526 140.493C87.3612 139.741 87.1903 139.051 87.0399 138.422C86.8895 137.793 86.7528 137.253 86.6297 136.802C86.5204 136.337 86.4452 136.009 86.4042 135.817ZM88.1473 136.002C88.1473 136.207 88.161 136.508 88.1883 136.904C88.2157 137.287 88.2704 137.67 88.3524 138.052C88.4481 138.435 88.5848 138.77 88.7626 139.057C88.9403 139.331 89.1864 139.468 89.5008 139.468C89.9247 139.468 90.3485 139.324 90.7723 139.037C91.2098 138.75 91.5926 138.387 91.9208 137.95C92.2626 137.512 92.536 137.048 92.7411 136.555C92.9598 136.05 93.0692 135.592 93.0692 135.181C93.0692 134.84 92.9872 134.573 92.8231 134.382C92.659 134.177 92.4471 134.019 92.1874 133.91C91.9413 133.787 91.6747 133.712 91.3876 133.684C91.1004 133.643 90.827 133.623 90.5672 133.623C89.7879 133.623 89.1864 133.835 88.7626 134.259C88.3524 134.669 88.1473 135.25 88.1473 136.002ZM95.6327 133.049C95.6327 133.008 95.6395 132.973 95.6532 132.946C95.6532 132.919 95.66 132.885 95.6737 132.844C95.7284 132.775 95.8104 132.686 95.9198 132.577C96.0292 132.468 96.0975 132.413 96.1249 132.413H100.247C100.247 132.262 100.226 132.023 100.185 131.695C100.144 131.367 100.103 131.005 100.062 130.608C100.035 130.212 100.028 129.802 100.042 129.378C100.056 128.94 100.11 128.551 100.206 128.209C100.315 127.853 100.479 127.566 100.698 127.347C100.931 127.115 101.252 126.999 101.662 126.999C101.662 128.38 101.758 129.487 101.949 130.321C102.14 131.155 102.393 131.798 102.708 132.249C103.036 132.7 103.405 132.994 103.815 133.131C104.225 133.267 104.642 133.329 105.066 133.315C105.504 133.288 105.928 133.219 106.338 133.11C106.748 133.001 107.11 132.926 107.425 132.885C107.753 132.844 108.013 132.878 108.204 132.987C108.395 133.083 108.491 133.322 108.491 133.705C108.491 133.992 108.423 134.197 108.286 134.32C108.163 134.443 107.917 134.539 107.548 134.607C107.438 134.621 107.254 134.648 106.994 134.689C106.748 134.717 106.468 134.744 106.153 134.771C105.839 134.799 105.504 134.833 105.148 134.874C104.793 134.901 104.458 134.928 104.143 134.956C103.829 134.983 103.542 135.004 103.282 135.017C103.022 135.017 102.831 135.017 102.708 135.017C102.708 135.086 102.701 135.202 102.687 135.366C102.674 135.53 102.667 135.639 102.667 135.694C102.667 136.296 102.763 136.884 102.954 137.458C103.145 138.018 103.35 138.579 103.569 139.139C103.802 139.7 104.014 140.26 104.205 140.821C104.396 141.382 104.492 141.963 104.492 142.564C104.492 142.674 104.478 142.79 104.451 142.913C104.437 143.022 104.396 143.125 104.328 143.22C104.273 143.302 104.184 143.364 104.061 143.405C103.952 143.46 103.795 143.453 103.59 143.385C103.07 143.248 102.681 142.954 102.421 142.503C102.175 142.052 101.99 141.518 101.867 140.903C101.744 140.274 101.662 139.611 101.621 138.914C101.58 138.217 101.512 137.567 101.416 136.966C101.334 136.35 101.197 135.831 101.006 135.407C100.814 134.969 100.507 134.703 100.083 134.607L96.1249 133.705C96.0702 133.705 95.9881 133.65 95.8788 133.541C95.7694 133.418 95.701 133.329 95.6737 133.274C95.66 133.247 95.6532 133.213 95.6532 133.172C95.6395 133.144 95.6327 133.103 95.6327 133.049ZM110.132 135.694C110.132 135.612 110.132 135.482 110.132 135.304C110.145 135.113 110.152 134.915 110.152 134.71C110.166 134.505 110.173 134.306 110.173 134.115C110.186 133.924 110.193 133.787 110.193 133.705C110.344 133.486 110.535 133.308 110.767 133.172C111.014 133.035 111.26 132.926 111.506 132.844C111.547 133.582 111.663 134.368 111.854 135.202C112.046 136.036 112.251 136.877 112.47 137.724C112.688 138.558 112.88 139.385 113.044 140.206C113.222 141.026 113.31 141.792 113.31 142.503C113.31 143.118 112.996 143.426 112.367 143.426C111.984 143.426 111.663 143.268 111.403 142.954C111.143 142.639 110.931 142.243 110.767 141.764C110.617 141.272 110.494 140.732 110.398 140.144C110.303 139.543 110.234 138.955 110.193 138.381C110.166 137.806 110.145 137.28 110.132 136.802C110.132 136.323 110.132 135.954 110.132 135.694ZM110.419 128.004C110.679 128.113 110.897 128.291 111.075 128.537C111.253 128.783 111.328 129.009 111.301 129.214C111.287 129.405 111.137 129.542 110.849 129.624C110.562 129.692 110.084 129.61 109.414 129.378C109.414 129.009 109.482 128.687 109.619 128.414C109.769 128.14 110.036 128.004 110.419 128.004ZM113.659 134.771C113.659 134.429 113.714 134.163 113.823 133.971C113.946 133.78 114.199 133.684 114.582 133.684C114.623 133.684 114.698 133.691 114.807 133.705C114.931 133.705 115.006 133.705 115.033 133.705C115.129 134.129 115.224 134.594 115.32 135.099C115.43 135.592 115.553 136.091 115.689 136.596C115.826 137.102 115.976 137.601 116.14 138.094C116.318 138.586 116.53 139.03 116.776 139.427C117.022 139.167 117.2 138.859 117.309 138.504C117.419 138.148 117.501 137.793 117.556 137.437C117.61 137.068 117.658 136.719 117.699 136.391C117.754 136.05 117.856 135.762 118.007 135.53C118.157 135.284 118.376 135.106 118.663 134.997C118.964 134.887 119.374 134.887 119.893 134.997C120.468 134.997 120.926 135.106 121.267 135.325C121.609 135.53 121.903 135.797 122.149 136.125C122.409 136.439 122.655 136.781 122.888 137.15C123.134 137.506 123.441 137.827 123.81 138.114C123.892 137.936 123.995 137.718 124.118 137.458C124.241 137.184 124.391 136.904 124.569 136.617C124.761 136.316 124.959 136.022 125.164 135.735C125.383 135.434 125.608 135.168 125.841 134.935C126.073 134.689 126.312 134.491 126.558 134.341C126.805 134.177 127.044 134.094 127.276 134.094C127.837 134.094 128.322 134.272 128.732 134.628C129.142 134.969 129.491 135.407 129.778 135.94C130.079 136.46 130.325 137.048 130.516 137.704C130.708 138.346 130.858 138.969 130.968 139.57C131.077 140.172 131.152 140.725 131.193 141.231C131.248 141.723 131.275 142.079 131.275 142.298C131.275 142.475 131.234 142.612 131.152 142.708C131.07 142.803 130.968 142.879 130.845 142.933C130.722 142.974 130.585 143.002 130.434 143.015C130.298 143.029 130.168 143.036 130.045 143.036C130.017 143.036 129.976 143.036 129.922 143.036C129.867 143.022 129.806 143.009 129.737 142.995C129.682 142.981 129.607 142.961 129.512 142.933L128.179 136.802C128.179 136.76 128.124 136.685 128.015 136.576C127.905 136.453 127.823 136.378 127.768 136.35C127.727 136.35 127.693 136.344 127.666 136.33C127.639 136.33 127.618 136.33 127.604 136.33C127.591 136.316 127.577 136.309 127.563 136.309C127.276 136.309 127.003 136.426 126.743 136.658C126.497 136.89 126.265 137.184 126.046 137.54C125.827 137.895 125.622 138.292 125.431 138.729C125.239 139.167 125.068 139.604 124.918 140.042C124.767 140.466 124.631 140.862 124.508 141.231C124.398 141.587 124.309 141.86 124.241 142.052C124.186 142.079 124.077 142.106 123.913 142.134C123.749 142.147 123.64 142.154 123.585 142.154C123.202 142.154 122.908 142.024 122.703 141.764C122.498 141.491 122.327 141.156 122.19 140.76C122.067 140.363 121.958 139.932 121.862 139.468C121.78 138.989 121.671 138.552 121.534 138.155C121.411 137.759 121.233 137.43 121.001 137.171C120.782 136.897 120.468 136.76 120.057 136.76C119.907 136.76 119.764 136.911 119.627 137.212C119.49 137.512 119.367 137.895 119.258 138.36C119.148 138.811 119.046 139.303 118.95 139.837C118.854 140.356 118.772 140.848 118.704 141.313C118.649 141.764 118.608 142.147 118.581 142.462C118.554 142.776 118.54 142.933 118.54 142.933C118.513 142.974 118.458 143.022 118.376 143.077C118.294 143.118 118.205 143.166 118.109 143.22C118.027 143.275 117.938 143.316 117.843 143.344C117.761 143.371 117.699 143.385 117.658 143.385C117.275 143.385 116.906 143.214 116.551 142.872C116.195 142.516 115.867 142.065 115.566 141.518C115.279 140.958 115.013 140.343 114.766 139.673C114.534 139.003 114.336 138.346 114.172 137.704C114.008 137.061 113.878 136.48 113.782 135.961C113.7 135.441 113.659 135.045 113.659 134.771ZM140.934 140.739C140.415 141.094 139.964 141.416 139.581 141.703C139.212 141.976 138.849 142.209 138.494 142.4C138.139 142.592 137.756 142.735 137.346 142.831C136.949 142.927 136.457 142.974 135.869 142.974C134.598 142.974 133.654 142.639 133.039 141.969C132.424 141.286 132.116 140.274 132.116 138.934C132.116 138.415 132.184 137.875 132.321 137.314C132.458 136.754 132.656 136.2 132.916 135.653C133.189 135.093 133.511 134.566 133.88 134.074C134.249 133.568 134.666 133.124 135.131 132.741C135.596 132.358 136.088 132.057 136.607 131.839C137.14 131.606 137.701 131.49 138.289 131.49C139.273 131.586 140.046 131.832 140.606 132.228C141.167 132.611 141.591 133.11 141.878 133.725C142.165 134.327 142.363 135.004 142.473 135.756C142.582 136.494 142.664 137.26 142.719 138.052C142.787 138.845 142.869 139.638 142.965 140.431C143.06 141.224 143.259 141.956 143.559 142.626C143.382 143.077 143.211 143.391 143.047 143.569C142.896 143.76 142.725 143.795 142.534 143.672C142.343 143.549 142.117 143.248 141.857 142.769C141.611 142.291 141.304 141.614 140.934 140.739ZM133.859 138.975C133.859 139.755 134.003 140.329 134.29 140.698C134.591 141.053 135.117 141.231 135.869 141.231C136.43 141.231 136.963 141.135 137.469 140.944C137.988 140.739 138.439 140.466 138.822 140.124C139.205 139.768 139.513 139.344 139.745 138.852C139.977 138.36 140.094 137.813 140.094 137.212C140.094 136.966 140.1 136.624 140.114 136.186C140.128 135.735 140.1 135.291 140.032 134.853C139.964 134.416 139.834 134.04 139.642 133.725C139.451 133.397 139.164 133.233 138.781 133.233C138.07 133.233 137.414 133.418 136.812 133.787C136.211 134.142 135.691 134.6 135.254 135.161C134.816 135.721 134.474 136.344 134.228 137.027C133.982 137.697 133.859 138.346 133.859 138.975ZM145.344 131.777C145.344 131.381 145.316 130.998 145.262 130.629C145.207 130.246 145.193 129.911 145.221 129.624C145.248 129.323 145.35 129.084 145.528 128.906C145.72 128.728 146.061 128.639 146.554 128.639C146.704 128.954 146.848 129.432 146.984 130.075C147.135 130.718 147.278 131.456 147.415 132.29C147.552 133.124 147.681 134.033 147.805 135.017C147.928 135.988 148.037 136.966 148.133 137.95C148.242 138.934 148.331 139.905 148.399 140.862C148.481 141.805 148.543 142.667 148.584 143.446C148.133 143.747 147.77 143.767 147.497 143.508C147.223 143.248 146.998 142.81 146.82 142.195C146.642 141.566 146.506 140.807 146.41 139.919C146.314 139.016 146.219 138.087 146.123 137.13C146.041 136.159 145.938 135.209 145.815 134.279C145.692 133.336 145.535 132.502 145.344 131.777ZM44.7528 170.462C44.9715 170.311 45.2313 170.12 45.5321 169.887C45.8465 169.641 46.161 169.382 46.4754 169.108C46.7899 168.835 47.0838 168.548 47.3573 168.247C47.6307 167.946 47.8426 167.659 47.993 167.385C48.1571 167.098 48.2391 166.832 48.2391 166.586C48.2391 166.34 48.1161 166.135 47.87 165.97C47.4325 165.97 46.954 165.991 46.4344 166.032C45.9149 166.059 45.3954 166.073 44.8758 166.073C44.3563 166.059 43.8504 166.011 43.3583 165.929C42.8797 165.847 42.4491 165.697 42.0663 165.478C41.6834 165.26 41.3758 164.952 41.1434 164.555C40.9247 164.145 40.8153 163.626 40.8153 162.997C40.8153 162.259 40.952 161.595 41.2254 161.008C41.5126 160.406 41.8885 159.88 42.3534 159.428C42.8182 158.964 43.3377 158.56 43.912 158.219C44.4999 157.863 45.0877 157.562 45.6756 157.316C46.0311 157.412 46.3592 157.583 46.66 157.829C46.9608 158.075 47.2206 158.348 47.4393 158.649C47.3436 158.95 47.1522 159.182 46.8651 159.346C46.5917 159.51 46.2704 159.654 45.9012 159.777C45.5458 159.9 45.1698 160.03 44.7733 160.167C44.3768 160.303 44.0145 160.488 43.6864 160.72C43.3719 160.939 43.1053 161.233 42.8866 161.602C42.6678 161.958 42.5584 162.429 42.5584 163.017C42.5584 163.455 42.6678 163.776 42.8866 163.981C43.1053 164.186 43.3924 164.33 43.7479 164.412C44.1034 164.48 44.5067 164.508 44.9579 164.494C45.409 164.467 45.867 164.432 46.3319 164.391C46.8104 164.35 47.2752 164.33 47.7264 164.33C48.1776 164.316 48.5809 164.371 48.9364 164.494C49.2918 164.603 49.5721 164.788 49.7772 165.048C49.9959 165.307 50.1053 165.69 50.1053 166.196C50.1053 166.415 50.0301 166.695 49.8797 167.037C49.743 167.379 49.5516 167.748 49.3055 168.144C49.0731 168.527 48.7928 168.91 48.4647 169.293C48.1502 169.676 47.8153 170.024 47.4598 170.339C47.118 170.639 46.7694 170.892 46.4139 171.097C46.0721 171.289 45.7508 171.385 45.4501 171.385C45.1629 171.385 44.9715 171.282 44.8758 171.077C44.7938 170.872 44.7528 170.667 44.7528 170.462ZM50.4745 161.049C50.4745 161.008 50.4813 160.973 50.495 160.946C50.495 160.919 50.5018 160.885 50.5155 160.844C50.5702 160.775 50.6522 160.686 50.7616 160.577C50.8709 160.468 50.9393 160.413 50.9667 160.413H55.0887C55.0887 160.262 55.0682 160.023 55.0272 159.695C54.9862 159.367 54.9452 159.005 54.9042 158.608C54.8768 158.212 54.87 157.802 54.8836 157.378C54.8973 156.94 54.952 156.551 55.0477 156.209C55.1571 155.853 55.3211 155.566 55.5399 155.347C55.7723 155.115 56.0936 154.999 56.5038 154.999C56.5038 156.38 56.5995 157.487 56.7909 158.321C56.9823 159.155 57.2352 159.798 57.5497 160.249C57.8778 160.7 58.2469 160.994 58.6571 161.131C59.0672 161.267 59.4842 161.329 59.9081 161.315C60.3456 161.288 60.7694 161.219 61.1795 161.11C61.5897 161.001 61.952 160.926 62.2665 160.885C62.5946 160.844 62.8543 160.878 63.0458 160.987C63.2372 161.083 63.3329 161.322 63.3329 161.705C63.3329 161.992 63.2645 162.197 63.1278 162.32C63.0047 162.443 62.7586 162.539 62.3895 162.607C62.2801 162.621 62.0956 162.648 61.8358 162.689C61.5897 162.717 61.3094 162.744 60.995 162.771C60.6805 162.799 60.3456 162.833 59.9901 162.874C59.6346 162.901 59.2997 162.928 58.9852 162.956C58.6708 162.983 58.3836 163.004 58.1239 163.017C57.8641 163.017 57.6727 163.017 57.5497 163.017C57.5497 163.086 57.5428 163.202 57.5292 163.366C57.5155 163.53 57.5086 163.639 57.5086 163.694C57.5086 164.296 57.6043 164.884 57.7958 165.458C57.9872 166.018 58.1922 166.579 58.411 167.139C58.6434 167.7 58.8553 168.26 59.0467 168.821C59.2381 169.382 59.3338 169.963 59.3338 170.564C59.3338 170.674 59.3202 170.79 59.2928 170.913C59.2792 171.022 59.2381 171.125 59.1698 171.22C59.1151 171.302 59.0262 171.364 58.9032 171.405C58.7938 171.46 58.6366 171.453 58.4315 171.385C57.912 171.248 57.5223 170.954 57.2626 170.503C57.0165 170.052 56.8319 169.518 56.7088 168.903C56.5858 168.274 56.5038 167.611 56.4627 166.914C56.4217 166.217 56.3534 165.567 56.2577 164.966C56.1756 164.35 56.0389 163.831 55.8475 163.407C55.6561 162.969 55.3485 162.703 54.9247 162.607L50.9667 161.705C50.912 161.705 50.8299 161.65 50.7206 161.541C50.6112 161.418 50.5428 161.329 50.5155 161.274C50.5018 161.247 50.495 161.213 50.495 161.172C50.4813 161.144 50.4745 161.103 50.4745 161.049ZM64.1122 162.771C64.1122 162.648 64.119 162.525 64.1327 162.402C64.1463 162.265 64.1737 162.149 64.2147 162.053C64.2557 161.944 64.3172 161.855 64.3993 161.787C64.495 161.719 64.6249 161.684 64.7889 161.684C64.9256 161.684 65.076 161.794 65.2401 162.012C65.4178 162.218 65.5956 162.484 65.7733 162.812C65.951 163.127 66.1219 163.475 66.286 163.858C66.4637 164.241 66.6141 164.596 66.7372 164.925C66.8739 165.239 66.9833 165.512 67.0653 165.745C67.1473 165.977 67.1952 166.1 67.2088 166.114C67.3866 165.635 67.5848 165.116 67.8036 164.555C68.0223 163.995 68.2889 163.475 68.6034 162.997C68.9315 162.505 69.3143 162.094 69.7518 161.766C70.203 161.438 70.7499 161.274 71.3924 161.274C71.7206 161.274 72.0282 161.329 72.3153 161.438C72.6161 161.534 72.8758 161.684 73.0946 161.889C73.327 162.081 73.5116 162.313 73.6483 162.587C73.785 162.86 73.8534 163.175 73.8534 163.53C73.8534 163.831 73.7303 164.043 73.4842 164.166C73.2518 164.289 72.9852 164.35 72.6844 164.35H72.4793L71.5975 163.469C71.5702 163.469 71.5497 163.462 71.536 163.448C71.5086 163.448 71.4813 163.448 71.454 163.448C71.4403 163.434 71.4198 163.427 71.3924 163.427C70.9139 163.427 70.5379 163.564 70.2645 163.838C70.0047 164.097 69.8065 164.426 69.6698 164.822C69.5331 165.205 69.4442 165.615 69.4032 166.052C69.3758 166.476 69.3622 166.866 69.3622 167.221C69.3622 167.495 69.3895 167.775 69.4442 168.062C69.4989 168.336 69.5604 168.609 69.6288 168.883C69.6971 169.142 69.7586 169.416 69.8133 169.703C69.868 169.976 69.8954 170.263 69.8954 170.564C69.8954 171.138 69.5877 171.426 68.9725 171.426C68.6307 171.426 68.2752 171.248 67.9061 170.892C67.537 170.523 67.1678 170.058 66.7987 169.498C66.4432 168.937 66.1014 168.322 65.7733 167.652C65.4452 166.969 65.1581 166.305 64.912 165.663C64.6659 165.02 64.4676 164.439 64.3172 163.92C64.1805 163.4 64.1122 163.017 64.1122 162.771ZM83.41 168.739C82.8905 169.094 82.4393 169.416 82.0565 169.703C81.6874 169.976 81.3251 170.209 80.9696 170.4C80.6141 170.592 80.2313 170.735 79.8211 170.831C79.4247 170.927 78.9325 170.974 78.3446 170.974C77.0731 170.974 76.1297 170.639 75.5145 169.969C74.8993 169.286 74.5917 168.274 74.5917 166.934C74.5917 166.415 74.66 165.875 74.7967 165.314C74.9334 164.754 75.1317 164.2 75.3915 163.653C75.6649 163.093 75.9862 162.566 76.3553 162.074C76.7245 161.568 77.1415 161.124 77.6063 160.741C78.0711 160.358 78.5633 160.057 79.0829 159.839C79.6161 159.606 80.1766 159.49 80.7645 159.49C81.7489 159.586 82.5213 159.832 83.0819 160.228C83.6424 160.611 84.0663 161.11 84.3534 161.725C84.6405 162.327 84.8387 163.004 84.9481 163.756C85.0575 164.494 85.1395 165.26 85.1942 166.052C85.2626 166.845 85.3446 167.638 85.4403 168.431C85.536 169.224 85.7342 169.956 86.035 170.626C85.8573 171.077 85.6864 171.391 85.5223 171.569C85.3719 171.76 85.201 171.795 85.0096 171.672C84.8182 171.549 84.5926 171.248 84.3329 170.769C84.0868 170.291 83.7792 169.614 83.41 168.739ZM76.3348 166.975C76.3348 167.755 76.4784 168.329 76.7655 168.698C77.0663 169.053 77.5926 169.231 78.3446 169.231C78.9051 169.231 79.4383 169.135 79.9442 168.944C80.4637 168.739 80.9149 168.466 81.2977 168.124C81.6805 167.768 81.9881 167.344 82.2206 166.852C82.453 166.36 82.5692 165.813 82.5692 165.212C82.5692 164.966 82.576 164.624 82.5897 164.186C82.6034 163.735 82.576 163.291 82.5077 162.853C82.4393 162.416 82.3094 162.04 82.118 161.725C81.9266 161.397 81.6395 161.233 81.2567 161.233C80.5458 161.233 79.8895 161.418 79.2879 161.787C78.6864 162.142 78.1668 162.6 77.7293 163.161C77.2918 163.721 76.9501 164.344 76.704 165.027C76.4579 165.697 76.3348 166.346 76.3348 166.975ZM86.8758 161.049C86.8758 161.008 86.8827 160.973 86.8963 160.946C86.8963 160.919 86.9032 160.885 86.9168 160.844C86.9715 160.775 87.0536 160.686 87.1629 160.577C87.2723 160.468 87.3407 160.413 87.368 160.413H91.4901C91.4901 160.262 91.4696 160.023 91.4286 159.695C91.3876 159.367 91.3465 159.005 91.3055 158.608C91.2782 158.212 91.2713 157.802 91.285 157.378C91.2987 156.94 91.3534 156.551 91.4491 156.209C91.5584 155.853 91.7225 155.566 91.9413 155.347C92.1737 155.115 92.495 154.999 92.9051 154.999C92.9051 156.38 93.0008 157.487 93.1922 158.321C93.3836 159.155 93.6366 159.798 93.951 160.249C94.2792 160.7 94.6483 160.994 95.0584 161.131C95.4686 161.267 95.8856 161.329 96.3094 161.315C96.7469 161.288 97.1708 161.219 97.5809 161.11C97.9911 161.001 98.3534 160.926 98.6678 160.885C98.9959 160.844 99.2557 160.878 99.4471 160.987C99.6385 161.083 99.7342 161.322 99.7342 161.705C99.7342 161.992 99.6659 162.197 99.5292 162.32C99.4061 162.443 99.16 162.539 98.7909 162.607C98.6815 162.621 98.4969 162.648 98.2372 162.689C97.9911 162.717 97.7108 162.744 97.3963 162.771C97.0819 162.799 96.7469 162.833 96.3915 162.874C96.036 162.901 95.701 162.928 95.3866 162.956C95.0721 162.983 94.785 163.004 94.5252 163.017C94.2655 163.017 94.0741 163.017 93.951 163.017C93.951 163.086 93.9442 163.202 93.9305 163.366C93.9168 163.53 93.91 163.639 93.91 163.694C93.91 164.296 94.0057 164.884 94.1971 165.458C94.3885 166.018 94.5936 166.579 94.8124 167.139C95.0448 167.7 95.2567 168.26 95.4481 168.821C95.6395 169.382 95.7352 169.963 95.7352 170.564C95.7352 170.674 95.7215 170.79 95.6942 170.913C95.6805 171.022 95.6395 171.125 95.5711 171.22C95.5165 171.302 95.4276 171.364 95.3045 171.405C95.1952 171.46 95.0379 171.453 94.8329 171.385C94.3133 171.248 93.9237 170.954 93.6639 170.503C93.4178 170.052 93.2333 169.518 93.1102 168.903C92.9872 168.274 92.9051 167.611 92.8641 166.914C92.8231 166.217 92.7547 165.567 92.659 164.966C92.577 164.35 92.4403 163.831 92.2489 163.407C92.0575 162.969 91.7499 162.703 91.326 162.607L87.368 161.705C87.3133 161.705 87.2313 161.65 87.1219 161.541C87.0126 161.418 86.9442 161.329 86.9168 161.274C86.9032 161.247 86.8963 161.213 86.8963 161.172C86.8827 161.144 86.8758 161.103 86.8758 161.049ZM100.514 165.683C100.514 164.945 100.602 164.207 100.78 163.469C100.958 162.73 101.238 162.067 101.621 161.479C102.017 160.891 102.523 160.413 103.139 160.044C103.767 159.675 104.526 159.49 105.415 159.49C105.921 159.49 106.365 159.586 106.748 159.777C107.131 159.955 107.452 160.194 107.712 160.495C107.972 160.796 108.163 161.151 108.286 161.561C108.423 161.958 108.491 162.375 108.491 162.812C108.491 163.51 108.327 164.186 107.999 164.843C107.684 165.499 107.254 166.08 106.707 166.586C106.174 167.078 105.558 167.454 104.861 167.714C104.164 167.96 103.453 168.014 102.728 167.878C102.742 168.274 102.872 168.595 103.118 168.842C103.378 169.074 103.685 169.252 104.041 169.375C104.396 169.498 104.765 169.58 105.148 169.621C105.531 169.648 105.873 169.662 106.174 169.662C106.488 169.662 106.782 169.635 107.056 169.58C107.329 169.525 107.602 169.464 107.876 169.395C108.149 169.327 108.423 169.265 108.696 169.211C108.983 169.156 109.284 169.129 109.598 169.129C109.722 169.129 109.845 169.135 109.968 169.149C110.091 169.163 110.207 169.197 110.316 169.252C110.426 169.293 110.515 169.368 110.583 169.477C110.651 169.573 110.685 169.696 110.685 169.846C110.685 170.106 110.59 170.325 110.398 170.503C110.207 170.667 109.961 170.81 109.66 170.933C109.373 171.056 109.052 171.152 108.696 171.22C108.341 171.275 107.992 171.323 107.65 171.364C107.322 171.391 107.015 171.405 106.727 171.405C106.454 171.419 106.249 171.426 106.112 171.426C105.237 171.426 104.451 171.289 103.754 171.015C103.056 170.728 102.469 170.339 101.99 169.846C101.512 169.341 101.142 168.739 100.883 168.042C100.637 167.331 100.514 166.545 100.514 165.683ZM102.687 164.35C102.687 164.829 102.749 165.177 102.872 165.396C103.009 165.615 103.33 165.724 103.836 165.724C104.191 165.724 104.54 165.663 104.882 165.54C105.223 165.403 105.531 165.219 105.805 164.986C106.092 164.754 106.317 164.48 106.481 164.166C106.645 163.851 106.727 163.51 106.727 163.14C106.727 162.935 106.707 162.723 106.666 162.505C106.639 162.286 106.57 162.088 106.461 161.91C106.351 161.719 106.208 161.568 106.03 161.459C105.866 161.336 105.647 161.274 105.374 161.274C104.964 161.274 104.588 161.37 104.246 161.561C103.918 161.739 103.638 161.978 103.405 162.279C103.173 162.566 102.995 162.894 102.872 163.263C102.749 163.619 102.687 163.981 102.687 164.35ZM117.248 182.295C118.014 182.295 118.697 182.151 119.299 181.864C119.9 181.591 120.406 181.208 120.816 180.716C121.24 180.237 121.561 179.683 121.78 179.054C122.013 178.439 122.129 177.797 122.129 177.127C122.129 176.785 122.108 176.334 122.067 175.773C122.04 175.213 121.992 174.604 121.924 173.948C121.855 173.292 121.753 172.622 121.616 171.938C121.493 171.255 121.336 170.612 121.144 170.01C120.953 169.395 120.714 168.862 120.427 168.411C120.153 167.946 119.832 167.618 119.463 167.427C119.107 167.7 118.759 167.953 118.417 168.185C118.075 168.404 117.72 168.589 117.35 168.739C116.981 168.889 116.598 169.012 116.202 169.108C115.806 169.19 115.382 169.231 114.931 169.231C114.343 169.231 113.837 169.177 113.413 169.067C113.003 168.958 112.654 168.773 112.367 168.513C112.094 168.254 111.889 167.912 111.752 167.488C111.615 167.064 111.547 166.531 111.547 165.888C111.547 165.437 111.656 165 111.875 164.576C112.094 164.138 112.381 163.735 112.736 163.366C113.105 162.983 113.515 162.635 113.967 162.32C114.431 162.006 114.903 161.732 115.382 161.5C115.874 161.267 116.352 161.09 116.817 160.967C117.296 160.844 117.72 160.782 118.089 160.782C118.444 160.782 118.738 160.796 118.971 160.823C119.203 160.837 119.401 160.891 119.565 160.987C119.729 161.069 119.866 161.206 119.975 161.397C120.098 161.575 120.215 161.821 120.324 162.135C120.639 163.202 121.001 164.35 121.411 165.581C121.821 166.811 122.211 168.076 122.58 169.375C122.949 170.674 123.257 171.979 123.503 173.292C123.763 174.618 123.892 175.896 123.892 177.127C123.892 178.22 123.735 179.143 123.421 179.895C123.12 180.661 122.717 181.283 122.211 181.761C121.719 182.254 121.151 182.63 120.509 182.889C119.88 183.149 119.244 183.313 118.601 183.382C117.959 183.464 117.337 183.484 116.735 183.443C116.134 183.402 115.614 183.32 115.177 183.197C114.739 183.088 114.404 182.958 114.172 182.807C113.953 182.657 113.898 182.527 114.008 182.418C114.131 182.322 114.445 182.254 114.951 182.213C115.457 182.172 116.223 182.199 117.248 182.295ZM117.535 162.505C116.523 162.723 115.703 163.031 115.074 163.427C114.459 163.81 113.994 164.227 113.68 164.678C113.379 165.116 113.215 165.56 113.187 166.011C113.16 166.449 113.242 166.825 113.433 167.139C113.625 167.454 113.898 167.693 114.254 167.857C114.623 168.008 115.04 168.014 115.505 167.878C115.97 167.727 116.462 167.413 116.981 166.934C117.515 166.456 118.048 165.745 118.581 164.802C118.581 164.569 118.581 164.316 118.581 164.043C118.595 163.769 118.574 163.523 118.519 163.304C118.465 163.072 118.362 162.881 118.212 162.73C118.061 162.58 117.836 162.505 117.535 162.505ZM124.692 163.694C124.692 163.612 124.692 163.482 124.692 163.304C124.706 163.113 124.713 162.915 124.713 162.71C124.726 162.505 124.733 162.306 124.733 162.115C124.747 161.924 124.754 161.787 124.754 161.705C124.904 161.486 125.096 161.308 125.328 161.172C125.574 161.035 125.82 160.926 126.066 160.844C126.107 161.582 126.223 162.368 126.415 163.202C126.606 164.036 126.811 164.877 127.03 165.724C127.249 166.558 127.44 167.385 127.604 168.206C127.782 169.026 127.871 169.792 127.871 170.503C127.871 171.118 127.556 171.426 126.928 171.426C126.545 171.426 126.223 171.268 125.964 170.954C125.704 170.639 125.492 170.243 125.328 169.764C125.178 169.272 125.055 168.732 124.959 168.144C124.863 167.543 124.795 166.955 124.754 166.381C124.726 165.806 124.706 165.28 124.692 164.802C124.692 164.323 124.692 163.954 124.692 163.694ZM124.979 156.004C125.239 156.113 125.458 156.291 125.636 156.537C125.813 156.783 125.889 157.009 125.861 157.214C125.848 157.405 125.697 157.542 125.41 157.624C125.123 157.692 124.644 157.61 123.974 157.378C123.974 157.009 124.043 156.687 124.18 156.414C124.33 156.14 124.597 156.004 124.979 156.004ZM128.671 165.683C128.671 164.945 128.76 164.207 128.937 163.469C129.115 162.73 129.395 162.067 129.778 161.479C130.175 160.891 130.681 160.413 131.296 160.044C131.925 159.675 132.683 159.49 133.572 159.49C134.078 159.49 134.522 159.586 134.905 159.777C135.288 159.955 135.609 160.194 135.869 160.495C136.129 160.796 136.32 161.151 136.443 161.561C136.58 161.958 136.648 162.375 136.648 162.812C136.648 163.51 136.484 164.186 136.156 164.843C135.842 165.499 135.411 166.08 134.864 166.586C134.331 167.078 133.716 167.454 133.018 167.714C132.321 167.96 131.61 168.014 130.886 167.878C130.899 168.274 131.029 168.595 131.275 168.842C131.535 169.074 131.843 169.252 132.198 169.375C132.554 169.498 132.923 169.58 133.306 169.621C133.688 169.648 134.03 169.662 134.331 169.662C134.645 169.662 134.939 169.635 135.213 169.58C135.486 169.525 135.76 169.464 136.033 169.395C136.306 169.327 136.58 169.265 136.853 169.211C137.14 169.156 137.441 169.129 137.756 169.129C137.879 169.129 138.002 169.135 138.125 169.149C138.248 169.163 138.364 169.197 138.473 169.252C138.583 169.293 138.672 169.368 138.74 169.477C138.808 169.573 138.843 169.696 138.843 169.846C138.843 170.106 138.747 170.325 138.556 170.503C138.364 170.667 138.118 170.81 137.817 170.933C137.53 171.056 137.209 171.152 136.853 171.22C136.498 171.275 136.149 171.323 135.807 171.364C135.479 171.391 135.172 171.405 134.885 171.405C134.611 171.419 134.406 171.426 134.269 171.426C133.394 171.426 132.608 171.289 131.911 171.015C131.214 170.728 130.626 170.339 130.147 169.846C129.669 169.341 129.3 168.739 129.04 168.042C128.794 167.331 128.671 166.545 128.671 165.683ZM130.845 164.35C130.845 164.829 130.906 165.177 131.029 165.396C131.166 165.615 131.487 165.724 131.993 165.724C132.348 165.724 132.697 165.663 133.039 165.54C133.381 165.403 133.688 165.219 133.962 164.986C134.249 164.754 134.474 164.48 134.639 164.166C134.803 163.851 134.885 163.51 134.885 163.14C134.885 162.935 134.864 162.723 134.823 162.505C134.796 162.286 134.727 162.088 134.618 161.91C134.509 161.719 134.365 161.568 134.187 161.459C134.023 161.336 133.805 161.274 133.531 161.274C133.121 161.274 132.745 161.37 132.403 161.561C132.075 161.739 131.795 161.978 131.562 162.279C131.33 162.566 131.152 162.894 131.029 163.263C130.906 163.619 130.845 163.981 130.845 164.35ZM144.052 170.462C144.27 170.311 144.53 170.12 144.831 169.887C145.145 169.641 145.46 169.382 145.774 169.108C146.089 168.835 146.383 168.548 146.656 168.247C146.93 167.946 147.141 167.659 147.292 167.385C147.456 167.098 147.538 166.832 147.538 166.586C147.538 166.34 147.415 166.135 147.169 165.97C146.731 165.97 146.253 165.991 145.733 166.032C145.214 166.059 144.694 166.073 144.175 166.073C143.655 166.059 143.149 166.011 142.657 165.929C142.179 165.847 141.748 165.697 141.365 165.478C140.982 165.26 140.675 164.952 140.442 164.555C140.223 164.145 140.114 163.626 140.114 162.997C140.114 162.259 140.251 161.595 140.524 161.008C140.811 160.406 141.187 159.88 141.652 159.428C142.117 158.964 142.637 158.56 143.211 158.219C143.799 157.863 144.387 157.562 144.974 157.316C145.33 157.412 145.658 157.583 145.959 157.829C146.26 158.075 146.519 158.348 146.738 158.649C146.642 158.95 146.451 159.182 146.164 159.346C145.89 159.51 145.569 159.654 145.2 159.777C144.845 159.9 144.469 160.03 144.072 160.167C143.676 160.303 143.313 160.488 142.985 160.72C142.671 160.939 142.404 161.233 142.185 161.602C141.967 161.958 141.857 162.429 141.857 163.017C141.857 163.455 141.967 163.776 142.185 163.981C142.404 164.186 142.691 164.33 143.047 164.412C143.402 164.48 143.806 164.508 144.257 164.494C144.708 164.467 145.166 164.432 145.631 164.391C146.109 164.35 146.574 164.33 147.025 164.33C147.476 164.316 147.88 164.371 148.235 164.494C148.591 164.603 148.871 164.788 149.076 165.048C149.295 165.307 149.404 165.69 149.404 166.196C149.404 166.415 149.329 166.695 149.179 167.037C149.042 167.379 148.85 167.748 148.604 168.144C148.372 168.527 148.092 168.91 147.764 169.293C147.449 169.676 147.114 170.024 146.759 170.339C146.417 170.639 146.068 170.892 145.713 171.097C145.371 171.289 145.05 171.385 144.749 171.385C144.462 171.385 144.27 171.282 144.175 171.077C144.093 170.872 144.052 170.667 144.052 170.462Z" fill="black"/>
<path d="M55.5473 57.4905C53.0408 48.6363 51.7387 43.607 51.6411 42.4026L51.0063 42.5979C49.9321 48.5875 49.1346 53.1285 48.6137 56.2209L40.5083 58.3206C43.8937 41.9469 45.9607 30.3258 46.7094 23.4573C50.4855 22.2854 54.7172 21.6995 59.4047 21.6995C62.9204 21.6995 65.0037 22.9202 65.6547 25.3616C65.8501 26.1103 65.9477 27.038 65.9477 28.1448C65.9477 29.2515 65.7199 30.456 65.2641 31.7581C64.8084 33.0276 64.1899 34.2483 63.4087 35.4202C61.781 37.7965 59.7791 39.6194 57.4028 40.8889C58.6723 43.6233 59.7954 46.2112 60.7719 48.6526C61.781 51.0614 62.6274 53.0959 63.311 54.7561L55.5473 57.4905ZM56.0356 28.6331L53.8872 28.6819L52.2758 36.6409C53.5779 36.5107 55.2218 35.6806 57.2075 34.1506C59.2583 32.5881 60.2837 31.3023 60.2837 30.2932C60.2837 29.3492 59.3885 28.8121 57.5981 28.6819C57.0773 28.6493 56.5564 28.6331 56.0356 28.6331ZM82.354 35.4202C82.354 32.7183 81.5727 31.3674 80.0102 31.3674C78.0245 31.3674 76.2342 32.344 74.6391 34.2971C73.3696 35.8596 72.2791 37.9918 71.3676 40.6936C70.6515 42.9071 70.2934 44.9905 70.2934 46.9436C70.2934 48.2457 70.8468 49.2222 71.9536 49.8733C72.2791 50.1012 72.6534 50.2151 73.0766 50.2151C74.574 50.2151 75.8924 49.7105 77.0317 48.7014C78.2036 47.6597 79.1801 46.3902 79.9614 44.8928C80.7426 43.3954 81.3286 41.8004 81.7192 40.1077C82.1424 38.3824 82.354 36.8199 82.354 35.4202ZM89.2876 32.344C89.2876 34.3297 88.9946 36.5269 88.4087 38.9358C87.8553 41.3446 87.0903 43.5582 86.1137 45.5764C85.1372 47.5946 83.9978 49.4013 82.6958 50.9963C81.4262 52.5914 80.0916 53.9423 78.6919 55.0491C75.7947 57.3277 73.0115 58.467 70.3422 58.467C68.0962 58.467 66.3221 57.6532 65.02 56.0256C63.5877 54.2353 62.8715 51.6311 62.8715 48.2131C62.8715 44.5022 63.7342 40.4983 65.4594 36.2014C67.1847 31.9045 69.4471 28.3238 72.2465 25.4592C75.2739 22.3993 78.4477 20.8694 81.768 20.8694C84.5024 20.8694 86.5044 21.9762 87.7739 24.1897C88.783 25.9801 89.2876 28.6982 89.2876 32.344ZM108.575 45.967C108.575 47.1715 108.282 48.3596 107.696 49.5315C107.142 50.7034 106.377 51.7613 105.401 52.7053C104.457 53.6493 103.334 54.4794 102.032 55.1956C100.762 55.9117 99.4113 56.5139 97.979 57.0022C95.1795 57.9788 92.3149 58.467 89.3852 58.467C88.1482 58.467 86.9926 58.3694 85.9184 58.1741C87.5135 52.3472 88.783 46.4716 89.727 40.5471C90.671 34.6226 91.5825 28.6656 92.4614 22.676C97.0187 21.732 100.746 21.26 103.643 21.26C107.061 21.26 109.437 22.4319 110.772 24.7756C111.293 25.6545 111.553 26.745 111.553 28.0471C111.553 29.3167 111.342 30.5048 110.918 31.6116C110.528 32.7183 110.007 33.7275 109.356 34.6389C108.021 36.4618 106.426 37.7151 104.571 38.3987C107.24 40.0263 108.575 42.5491 108.575 45.967ZM95.7329 48.3596C98.6951 48.0341 100.778 47.204 101.983 45.8694C102.504 45.2834 102.764 44.6324 102.764 43.9163C102.764 43.2001 102.601 42.6467 102.276 42.2561C101.983 41.8329 101.592 41.4911 101.104 41.2307C100.127 40.7099 99.0695 40.4495 97.9301 40.4495H97.4907C97.3605 40.4495 97.2303 40.4657 97.1001 40.4983C96.9699 41.3121 96.8396 42.0282 96.7094 42.6467C96.6118 43.2652 96.5141 43.8674 96.4165 44.4534C96.3188 45.0068 96.2049 45.5927 96.0747 46.2112C95.977 46.8297 95.8631 47.5458 95.7329 48.3596ZM98.2719 34.3459C102.341 33.4345 104.375 32.3114 104.375 30.9768C104.375 29.7073 103.334 28.9097 101.25 28.5842C100.73 28.4866 100.274 28.4377 99.8833 28.4377H99.3462C99.281 28.7958 99.1997 29.2353 99.102 29.7561C99.0369 30.2444 98.9555 30.7652 98.8579 31.3186C98.7602 31.8394 98.6463 32.3765 98.5161 32.9299C98.4184 33.4508 98.337 33.9228 98.2719 34.3459ZM128.399 35.4202C128.399 32.7183 127.618 31.3674 126.055 31.3674C124.069 31.3674 122.279 32.344 120.684 34.2971C119.415 35.8596 118.324 37.9918 117.413 40.6936C116.696 42.9071 116.338 44.9905 116.338 46.9436C116.338 48.2457 116.892 49.2222 117.998 49.8733C118.324 50.1012 118.698 50.2151 119.122 50.2151C120.619 50.2151 121.937 49.7105 123.077 48.7014C124.248 47.6597 125.225 46.3902 126.006 44.8928C126.788 43.3954 127.373 41.8004 127.764 40.1077C128.187 38.3824 128.399 36.8199 128.399 35.4202ZM135.332 32.344C135.332 34.3297 135.04 36.5269 134.454 38.9358C133.9 41.3446 133.135 43.5582 132.159 45.5764C131.182 47.5946 130.043 49.4013 128.741 50.9963C127.471 52.5914 126.137 53.9423 124.737 55.0491C121.84 57.3277 119.056 58.467 116.387 58.467C114.141 58.467 112.367 57.6532 111.065 56.0256C109.633 54.2353 108.916 51.6311 108.916 48.2131C108.916 44.5022 109.779 40.4983 111.504 36.2014C113.23 31.9045 115.492 28.3238 118.291 25.4592C121.319 22.3993 124.493 20.8694 127.813 20.8694C130.547 20.8694 132.549 21.9762 133.819 24.1897C134.828 25.9801 135.332 28.6982 135.332 32.344ZM136.211 28.8772L136.456 22.4807C138.148 22.6109 139.857 22.676 141.582 22.676C146.14 22.676 150.583 22.3993 154.913 21.8459L154.375 24.5315C154.213 25.2802 154.05 26.0614 153.887 26.8752C153.757 27.6565 153.627 28.3401 153.497 28.926C152.748 29.1213 151.999 29.2678 151.25 29.3655C150.502 29.4306 149.769 29.5282 149.053 29.6584C148.467 32.165 147.881 35.2737 147.295 38.9846C145.993 47.1877 145.082 53.1611 144.561 56.9045L135.577 58.3206C138.213 45.9508 139.987 36.2665 140.899 29.2678C140.118 29.1702 139.336 29.1376 138.555 29.1702C137.774 29.2027 136.993 29.1051 136.211 28.8772Z" fill="white"/>
<path d="M55.5473 57.4905L53.4865 58.0739L54.1077 60.2682L56.2588 59.5106L55.5473 57.4905ZM51.6411 42.4026L53.7758 42.2295L53.5603 39.5712L51.0112 40.3555L51.6411 42.4026ZM51.0063 42.5979L50.3764 40.5508L49.1287 40.9348L48.8982 42.2198L51.0063 42.5979ZM48.6137 56.2209L49.1508 58.2943L50.4951 57.9461L50.7257 56.5767L48.6137 56.2209ZM40.5083 58.3206L38.4109 57.8869L37.7141 61.2568L41.0453 60.3939L40.5083 58.3206ZM46.7094 23.4573L46.0746 21.4118L44.7326 21.8283L44.5803 23.2252L46.7094 23.4573ZM65.6547 25.3616L67.7272 24.8209L67.7242 24.8097L65.6547 25.3616ZM65.2641 31.7581L67.2799 32.4817L67.2828 32.4736L67.2856 32.4656L65.2641 31.7581ZM63.4087 35.4202L65.1757 36.6305L65.1833 36.6194L65.1907 36.6082L63.4087 35.4202ZM57.4028 40.8889L56.3936 38.9998L54.6074 39.9541L55.4602 41.7908L57.4028 40.8889ZM60.7719 48.6526L58.7834 49.448L58.7898 49.4641L58.7965 49.4801L60.7719 48.6526ZM63.311 54.7561L64.0225 56.7762L66.1504 56.0268L65.2914 53.9406L63.311 54.7561ZM56.0356 28.6331V26.4913H56.0113L55.9869 26.4918L56.0356 28.6331ZM53.8872 28.6819L53.8385 26.5407L52.1276 26.5796L51.788 28.2569L53.8872 28.6819ZM52.2758 36.6409L50.1767 36.2159L49.6007 39.0608L52.489 38.772L52.2758 36.6409ZM57.2075 34.1506L55.9095 32.447L55.9003 32.4541L57.2075 34.1506ZM57.5981 28.6819L57.7535 26.5458L57.7426 26.545L57.7317 26.5443L57.5981 28.6819ZM57.6081 56.9071C56.3565 52.4857 55.4094 49.0327 54.7643 46.5411C54.0935 43.9502 53.8061 42.6032 53.7758 42.2295L49.5063 42.5757C49.5737 43.4064 49.9862 45.1763 50.6175 47.6147C51.2745 50.1524 52.2317 53.6411 53.4865 58.0739L57.6081 56.9071ZM51.0112 40.3555L50.3764 40.5508L51.6362 44.645L52.2709 44.4496L51.0112 40.3555ZM48.8982 42.2198C47.8236 48.2113 47.0245 52.7613 46.5017 55.8652L50.7257 56.5767C51.2447 53.4957 52.0406 48.9636 53.1144 42.976L48.8982 42.2198ZM48.0767 54.1476L39.9712 56.2472L41.0453 60.3939L49.1508 58.2943L48.0767 54.1476ZM42.6057 58.7542C45.991 42.3808 48.0777 30.6701 48.8386 23.6894L44.5803 23.2252C43.8438 29.9814 41.7963 41.5129 38.4109 57.8869L42.6057 58.7542ZM47.3442 25.5028C50.8807 24.4053 54.8937 23.8412 59.4047 23.8412V19.5577C54.5408 19.5577 50.0902 20.1655 46.0746 21.4118L47.3442 25.5028ZM59.4047 23.8412C60.9447 23.8412 61.9245 24.1133 62.5212 24.4629C63.0515 24.7737 63.3976 25.2097 63.5853 25.9134L67.7242 24.8097C67.2608 23.072 66.2397 21.677 64.6867 20.7671C63.2001 19.896 61.3805 19.5577 59.4047 19.5577V23.8412ZM63.5823 25.9022C63.7166 26.4167 63.806 27.1493 63.806 28.1448H68.0895C68.0895 26.9268 67.9836 25.8038 67.7272 24.8209L63.5823 25.9022ZM63.806 28.1448C63.806 28.9596 63.6376 29.9221 63.2426 31.0505L67.2856 32.4656C67.8021 30.9899 68.0895 29.5435 68.0895 28.1448H63.806ZM63.2483 31.0344C62.8539 32.1332 62.3156 33.1986 61.6266 34.2321L65.1907 36.6082C66.0642 35.298 66.7629 33.922 67.2799 32.4817L63.2483 31.0344ZM61.6416 34.2099C60.1947 36.3225 58.4456 37.9035 56.3936 38.9998L58.412 42.778C61.1126 41.3352 63.3674 39.2705 65.1757 36.6305L61.6416 34.2099ZM55.4602 41.7908C56.7157 44.4951 57.8231 47.0473 58.7834 49.448L62.7605 47.8572C61.7677 45.3751 60.6289 42.7515 59.3454 39.987L55.4602 41.7908ZM58.7965 49.4801C59.8046 51.8866 60.6492 53.9168 61.3306 55.5716L65.2914 53.9406C64.6056 52.2751 63.7575 50.2363 62.7474 47.825L58.7965 49.4801ZM62.5995 52.736L54.8358 55.4703L56.2588 59.5106L64.0225 56.7762L62.5995 52.736ZM55.9869 26.4918L53.8385 26.5407L53.9358 30.8231L56.0843 30.7743L55.9869 26.4918ZM51.788 28.2569L50.1767 36.2159L54.375 37.0659L55.9863 29.1069L51.788 28.2569ZM52.489 38.772C54.412 38.5797 56.4554 37.4339 58.5147 35.8472L55.9003 32.4541C53.9883 33.9273 52.7439 34.4416 52.0627 34.5097L52.489 38.772ZM58.5055 35.8543C59.6015 35.0192 60.5229 34.1852 61.1891 33.3498C61.828 32.5486 62.4254 31.5054 62.4254 30.2932H58.1419C58.1419 30.0901 58.2266 30.1944 57.8401 30.679C57.481 31.1294 56.8643 31.7195 55.9095 32.447L58.5055 35.8543ZM62.4254 30.2932C62.4254 28.9779 61.7248 27.9522 60.7142 27.3458C59.8415 26.8222 58.7747 26.62 57.7535 26.5458L57.4428 30.818C57.8023 30.8442 58.0682 30.8876 58.2565 30.9344C58.4489 30.9822 58.5168 31.0228 58.5103 31.0189C58.496 31.0103 58.3853 30.9388 58.2828 30.7693C58.1745 30.5902 58.1419 30.411 58.1419 30.2932H62.4254ZM57.7317 26.5443C57.1665 26.509 56.6011 26.4913 56.0356 26.4913V30.7748C56.5118 30.7748 56.9881 30.7897 57.4645 30.8195L57.7317 26.5443ZM74.6391 34.2971L72.9803 32.9424L72.9769 32.9465L74.6391 34.2971ZM71.3676 40.6936L69.3382 40.009L69.334 40.0216L69.3299 40.0343L71.3676 40.6936ZM71.9536 49.8733L73.1818 48.1187L73.1124 48.0701L73.0395 48.0272L71.9536 49.8733ZM77.0317 48.7014L78.4518 50.3047L78.4546 50.3022L77.0317 48.7014ZM81.7192 40.1077L79.6391 39.5975L79.6356 39.6117L79.6323 39.6261L81.7192 40.1077ZM88.4087 38.9358L86.3276 38.4296L86.3243 38.4429L86.3213 38.4563L88.4087 38.9358ZM86.1137 45.5764L84.1858 44.6435L86.1137 45.5764ZM82.6958 50.9963L81.0366 49.6419L81.0282 49.6522L81.02 49.6626L82.6958 50.9963ZM78.6919 55.0491L80.0159 56.7325L80.0203 56.7291L78.6919 55.0491ZM65.02 56.0256L63.3475 57.3636L65.02 56.0256ZM72.2465 25.4592L70.724 23.9529L70.7148 23.9623L72.2465 25.4592ZM87.7739 24.1897L89.6397 23.1381L89.6358 23.1311L89.6318 23.1241L87.7739 24.1897ZM84.4957 35.4202C84.4957 33.933 84.2931 32.4687 83.6221 31.3084C82.8481 29.97 81.5549 29.2257 80.0102 29.2257V33.5092C80.0844 33.5092 80.0459 33.5224 79.9661 33.4763C79.8861 33.4302 79.8776 33.3899 79.914 33.4528C80.0242 33.6435 80.2122 34.2055 80.2122 35.4202H84.4957ZM80.0102 29.2257C77.214 29.2257 74.8628 30.6373 72.9803 32.9424L76.298 35.6519C77.6056 34.0507 78.8351 33.5092 80.0102 33.5092V29.2257ZM72.9769 32.9465C71.4943 34.7713 70.3001 37.1578 69.3382 40.009L73.397 41.3782C74.2581 38.8257 75.2449 36.9479 76.3014 35.6477L72.9769 32.9465ZM69.3299 40.0343C68.5576 42.4213 68.1517 44.7286 68.1517 46.9436H72.4352C72.4352 45.2524 72.7454 43.393 73.4054 41.3529L69.3299 40.0343ZM68.1517 46.9436C68.1517 48.9915 69.0954 50.6769 70.8677 51.7194L73.0395 48.0272C72.5982 47.7676 72.4352 47.4999 72.4352 46.9436H68.1517ZM70.7254 51.6279C71.4348 52.1245 72.2442 52.3569 73.0766 52.3569V48.0733C73.0592 48.0733 73.0713 48.0713 73.1021 48.0807C73.134 48.0904 73.1627 48.1053 73.1818 48.1187L70.7254 51.6279ZM73.0766 52.3569C75.1066 52.3569 76.9278 51.6545 78.4518 50.3047L75.6116 47.0981C74.8569 47.7666 74.0414 48.0733 73.0766 48.0733V52.3569ZM78.4546 50.3022C79.8354 49.0748 80.968 47.5936 81.8602 45.8835L78.0625 43.9021C77.3922 45.1868 76.5718 46.2447 75.6088 47.1006L78.4546 50.3022ZM81.8602 45.8835C82.7279 44.2205 83.3758 42.4539 83.8061 40.5893L79.6323 39.6261C79.2813 41.1469 78.7574 42.5703 78.0625 43.9021L81.8602 45.8835ZM83.7993 40.6179C84.253 38.768 84.4957 37.0306 84.4957 35.4202H80.2122C80.2122 36.6092 80.0317 37.9968 79.6391 39.5975L83.7993 40.6179ZM87.1458 32.344C87.1458 34.1231 86.8827 36.1474 86.3276 38.4296L90.4897 39.442C91.1065 36.9065 91.4293 34.5362 91.4293 32.344H87.1458ZM86.3213 38.4563C85.8002 40.7243 85.0857 42.7838 84.1858 44.6435L88.0417 46.5093C89.0949 44.3325 89.9103 41.965 90.496 39.4153L86.3213 38.4563ZM84.1858 44.6435C83.2757 46.5245 82.2241 48.1873 81.0366 49.6419L84.3549 52.3507C85.7716 50.6152 86.9987 48.6648 88.0417 46.5093L84.1858 44.6435ZM81.02 49.6626C79.8384 51.1471 78.6178 52.3772 77.3635 53.369L80.0203 56.7291C81.5654 55.5074 83.014 54.0357 84.3715 52.3301L81.02 49.6626ZM77.3678 53.3656C74.7063 55.4589 72.3775 56.3253 70.3422 56.3253V60.6088C73.6455 60.6088 76.8831 59.1965 80.0159 56.7325L77.3678 53.3656ZM70.3422 56.3253C68.6889 56.3253 67.5532 55.7637 66.6924 54.6877L63.3475 57.3636C65.0909 59.5428 67.5035 60.6088 70.3422 60.6088V56.3253ZM66.6924 54.6877C65.6815 53.424 65.0133 51.374 65.0133 48.2131H60.7298C60.7298 51.8882 61.4939 55.0466 63.3475 57.3636L66.6924 54.6877ZM65.0133 48.2131C65.0133 44.8341 65.7992 41.1032 67.447 36.9994L63.4719 35.4034C61.6691 39.8933 60.7298 44.1703 60.7298 48.2131H65.0133ZM67.447 36.9994C69.0838 32.9229 71.2033 29.5911 73.7783 26.9562L70.7148 23.9623C67.6908 27.0565 65.2856 30.8861 63.4719 35.4034L67.447 36.9994ZM73.7691 26.9656C76.5187 24.1863 79.1754 23.0111 81.768 23.0111V18.7276C77.72 18.7276 74.029 20.6123 70.724 23.9529L73.7691 26.9656ZM81.768 23.0111C83.8022 23.0111 85.0605 23.7637 85.916 25.2553L89.6318 23.1241C87.9482 20.1887 85.2026 18.7276 81.768 18.7276V23.0111ZM85.9081 25.2413C86.6452 26.5491 87.1458 28.821 87.1458 32.344H91.4293C91.4293 28.5753 90.9208 25.411 89.6397 23.1381L85.9081 25.2413ZM107.696 49.5315L105.78 48.5737L105.769 48.5952L105.759 48.6169L107.696 49.5315ZM105.401 52.7053L103.912 51.1654L103.899 51.178L103.886 51.1909L105.401 52.7053ZM102.032 55.1956L101 53.3189L100.989 53.3245L100.979 53.3301L102.032 55.1956ZM97.979 57.0022L97.2879 54.975L97.2807 54.9774L97.2735 54.9799L97.979 57.0022ZM85.9184 58.1741L83.8527 57.6086L83.2355 59.8631L85.5353 60.2813L85.9184 58.1741ZM92.4614 22.676L92.027 20.5788L90.5598 20.8827L90.3423 22.3651L92.4614 22.676ZM110.772 24.7756L108.911 25.8355L108.92 25.8516L108.929 25.8675L110.772 24.7756ZM110.918 31.6116L108.918 30.8467L108.908 30.8726L108.899 30.8988L110.918 31.6116ZM109.356 34.6389L111.084 35.9041L111.091 35.894L111.099 35.8838L109.356 34.6389ZM104.571 38.3987L103.83 36.389L99.6729 37.9207L103.456 40.2273L104.571 38.3987ZM95.7329 48.3596L93.618 48.0212L93.1741 50.7955L95.9668 50.4886L95.7329 48.3596ZM101.983 45.8694L103.573 47.3043L103.578 47.2983L103.584 47.2923L101.983 45.8694ZM102.276 42.2561L100.515 43.4752L100.569 43.5538L100.63 43.6272L102.276 42.2561ZM101.104 41.2307L100.096 43.1205L101.104 41.2307ZM97.1001 40.4983L96.5806 38.4205L95.2086 38.7635L94.9852 40.1599L97.1001 40.4983ZM96.7094 42.6467L94.6136 42.2055L94.6024 42.2588L94.5939 42.3127L96.7094 42.6467ZM96.4165 44.4534L98.5256 44.8256L98.5274 44.8155L98.5291 44.8055L96.4165 44.4534ZM96.0747 46.2112L93.9788 45.77L93.9676 45.8233L93.9591 45.8771L96.0747 46.2112ZM98.2719 34.3459L96.1551 34.0203L95.6779 37.1218L98.7401 36.4359L98.2719 34.3459ZM101.25 28.5842L100.856 30.6893L100.888 30.6953L100.92 30.7003L101.25 28.5842ZM99.3462 28.4377V26.296H97.5587L97.2389 28.0546L99.3462 28.4377ZM99.102 29.7561L96.9969 29.3614L96.9865 29.417L96.979 29.473L99.102 29.7561ZM98.8579 31.3186L100.963 31.7133L100.965 31.7021L100.967 31.6908L98.8579 31.3186ZM98.5161 32.9299L96.4312 32.4394L96.42 32.4871L96.411 32.5352L98.5161 32.9299ZM106.433 45.967C106.433 46.8104 106.231 47.6726 105.78 48.5737L109.611 50.4893C110.333 49.0467 110.716 47.5325 110.716 45.967H106.433ZM105.759 48.6169C105.321 49.5439 104.712 50.3924 103.912 51.1654L106.889 54.2452C108.043 53.1303 108.963 51.8628 109.632 50.446L105.759 48.6169ZM103.886 51.1909C103.1 51.9769 102.144 52.6893 101 53.3189L103.064 57.0722C104.523 56.2695 105.813 55.3218 106.915 54.2198L103.886 51.1909ZM100.979 53.3301C99.8293 53.9789 98.5998 54.5278 97.2879 54.975L98.6701 59.0294C100.223 58.5001 101.695 57.8445 103.084 57.061L100.979 53.3301ZM97.2735 54.9799C94.6981 55.8784 92.0718 56.3253 89.3852 56.3253V60.6088C92.558 60.6088 95.6609 60.0792 98.6844 59.0245L97.2735 54.9799ZM89.3852 56.3253C88.2601 56.3253 87.234 56.2364 86.3016 56.0669L85.5353 60.2813C86.7513 60.5024 88.0364 60.6088 89.3852 60.6088V56.3253ZM87.9842 58.7396C89.5997 52.8381 90.8857 46.8862 91.8421 40.8841L87.6119 40.2101C86.6803 46.057 85.4273 51.8564 83.8527 57.6086L87.9842 58.7396ZM91.8421 40.8841C92.7875 34.9509 93.7003 28.9852 94.5805 22.987L90.3423 22.3651C89.4647 28.346 88.5545 34.2944 87.6119 40.2101L91.8421 40.8841ZM92.8958 24.7733C97.385 23.8434 100.952 23.4018 103.643 23.4018V19.1182C100.539 19.1182 96.6524 19.6207 92.027 20.5788L92.8958 24.7733ZM103.643 23.4018C106.53 23.4018 108.062 24.3453 108.911 25.8355L112.633 23.7158C110.812 20.5185 107.592 19.1182 103.643 19.1182V23.4018ZM108.929 25.8675C109.207 26.3368 109.411 27.0255 109.411 28.0471H113.695C113.695 26.4646 113.378 24.9723 112.614 23.6838L108.929 25.8675ZM109.411 28.0471C109.411 29.074 109.241 30.0011 108.918 30.8467L112.919 32.3765C113.442 31.0085 113.695 29.5593 113.695 28.0471H109.411ZM108.899 30.8988C108.572 31.8252 108.142 32.6537 107.613 33.394L111.099 35.8838C111.872 34.8012 112.484 33.6115 112.938 32.3244L108.899 30.8988ZM107.628 33.3737C106.506 34.9066 105.236 35.871 103.83 36.389L105.311 40.4084C107.616 39.5592 109.537 38.0171 111.084 35.9041L107.628 33.3737ZM103.456 40.2273C105.419 41.4244 106.433 43.2122 106.433 45.967H110.716C110.716 41.8859 109.061 38.6282 105.686 36.5701L103.456 40.2273ZM95.9668 50.4886C99.131 50.1409 101.849 49.215 103.573 47.3043L100.393 44.4345C99.7083 45.193 98.2592 45.9273 95.4989 46.2307L95.9668 50.4886ZM103.584 47.2923C104.417 46.3544 104.906 45.2083 104.906 43.9163H100.622C100.622 44.0565 100.59 44.2125 100.382 44.4465L103.584 47.2923ZM104.906 43.9163C104.906 42.901 104.677 41.7914 103.921 40.885L100.63 43.6272C100.582 43.5693 100.577 43.535 100.587 43.5684C100.599 43.6083 100.622 43.7156 100.622 43.9163H104.906ZM104.037 41.037C103.535 40.3127 102.878 39.7494 102.112 39.3409L100.096 43.1205C100.307 43.2328 100.43 43.3532 100.515 43.4752L104.037 41.037ZM102.112 39.3409C100.816 38.6497 99.4103 38.3077 97.9301 38.3077V42.5912C98.7287 42.5912 99.439 42.7701 100.096 43.1205L102.112 39.3409ZM97.9301 38.3077H97.4907V42.5912H97.9301V38.3077ZM97.4907 38.3077C97.18 38.3077 96.8755 38.3468 96.5806 38.4205L97.6195 42.5761C97.5851 42.5847 97.5409 42.5912 97.4907 42.5912V38.3077ZM94.9852 40.1599C94.8589 40.949 94.7349 41.6295 94.6136 42.2055L98.8053 43.088C98.9444 42.4269 99.0808 41.6752 99.2149 40.8367L94.9852 40.1599ZM94.5939 42.3127C94.4971 42.9255 94.4004 43.5217 94.3038 44.1013L98.5291 44.8055C98.6278 44.2132 98.7264 43.605 98.825 42.9808L94.5939 42.3127ZM94.3073 44.0812C94.2142 44.6088 94.1048 45.1716 93.9788 45.77L98.1705 46.6524C98.3049 46.0138 98.4234 45.4047 98.5256 44.8256L94.3073 44.0812ZM93.9591 45.8771C93.8617 46.4938 93.7481 47.2085 93.618 48.0212L97.8477 48.698C97.9781 47.8832 98.0923 47.1655 98.1902 46.5452L93.9591 45.8771ZM98.7401 36.4359C100.842 35.965 102.602 35.4034 103.885 34.6951C105.066 34.0432 106.517 32.8764 106.517 30.9768H102.234C102.234 30.4118 102.668 30.4739 101.815 30.945C101.063 31.3598 99.7706 31.8154 97.8038 32.256L98.7401 36.4359ZM106.517 30.9768C106.517 29.6498 105.926 28.5141 104.896 27.7259C103.969 27.0161 102.784 26.6561 101.581 26.4681L100.92 30.7003C101.8 30.8379 102.178 31.0394 102.292 31.1271C102.331 31.1564 102.301 31.1435 102.268 31.077C102.233 31.0083 102.234 30.9612 102.234 30.9768H106.517ZM101.645 26.4791C101.037 26.3651 100.444 26.296 99.8833 26.296V30.5795C100.104 30.5795 100.422 30.6081 100.856 30.6893L101.645 26.4791ZM99.8833 26.296H99.3462V30.5795H99.8833V26.296ZM97.2389 28.0546C97.1748 28.4075 97.0942 28.8429 96.9969 29.3614L101.207 30.1508C101.305 29.6277 101.387 29.1841 101.453 28.8209L97.2389 28.0546ZM96.979 29.473C96.9184 29.9277 96.8418 30.4186 96.7487 30.9464L100.967 31.6908C101.069 31.1118 101.155 30.561 101.225 30.0392L96.979 29.473ZM96.7528 30.9239C96.6616 31.4104 96.5545 31.9155 96.4312 32.4394L100.601 33.4205C100.738 32.8376 100.859 32.2685 100.963 31.7133L96.7528 30.9239ZM96.411 32.5352C96.31 33.0739 96.2244 33.5694 96.1551 34.0203L100.389 34.6716C100.45 34.2762 100.527 33.8277 100.621 33.3246L96.411 32.5352ZM120.684 34.2971L119.025 32.9424L119.022 32.9465L120.684 34.2971ZM117.413 40.6936L115.383 40.009L115.379 40.0216L115.375 40.0343L117.413 40.6936ZM117.998 49.8733L119.227 48.1187L119.157 48.0701L119.084 48.0272L117.998 49.8733ZM123.077 48.7014L124.497 50.3047L124.5 50.3022L123.077 48.7014ZM127.764 40.1077L125.684 39.5975L125.681 39.6117L125.677 39.6261L127.764 40.1077ZM134.454 38.9358L132.372 38.4296L132.369 38.4429L132.366 38.4563L134.454 38.9358ZM132.159 45.5764L130.231 44.6435L132.159 45.5764ZM128.741 50.9963L127.082 49.6419L127.073 49.6522L127.065 49.6626L128.741 50.9963ZM124.737 55.0491L126.061 56.7325L126.065 56.7291L124.737 55.0491ZM111.065 56.0256L109.392 57.3636L111.065 56.0256ZM118.291 25.4592L116.769 23.9529L116.76 23.9623L118.291 25.4592ZM133.819 24.1897L135.685 23.1381L135.681 23.1311L135.677 23.1241L133.819 24.1897ZM130.541 35.4202C130.541 33.933 130.338 32.4687 129.667 31.3084C128.893 29.97 127.6 29.2257 126.055 29.2257V33.5092C126.129 33.5092 126.091 33.5224 126.011 33.4763C125.931 33.4302 125.922 33.3899 125.959 33.4528C126.069 33.6435 126.257 34.2055 126.257 35.4202H130.541ZM126.055 29.2257C123.259 29.2257 120.908 30.6373 119.025 32.9424L122.343 35.6519C123.651 34.0507 124.88 33.5092 126.055 33.5092V29.2257ZM119.022 32.9465C117.539 34.7713 116.345 37.1578 115.383 40.009L119.442 41.3782C120.303 38.8257 121.29 36.9479 122.346 35.6477L119.022 32.9465ZM115.375 40.0343C114.603 42.4213 114.197 44.7286 114.197 46.9436H118.48C118.48 45.2524 118.79 43.393 119.45 41.3529L115.375 40.0343ZM114.197 46.9436C114.197 48.9915 115.14 50.6769 116.913 51.7194L119.084 48.0272C118.643 47.7676 118.48 47.4999 118.48 46.9436H114.197ZM116.77 51.6279C117.48 52.1245 118.289 52.3569 119.122 52.3569V48.0733C119.104 48.0733 119.116 48.0713 119.147 48.0807C119.179 48.0904 119.208 48.1053 119.227 48.1187L116.77 51.6279ZM119.122 52.3569C121.152 52.3569 122.973 51.6545 124.497 50.3047L121.657 47.0981C120.902 47.7666 120.086 48.0733 119.122 48.0733V52.3569ZM124.5 50.3022C125.88 49.0748 127.013 47.5936 127.905 45.8835L124.107 43.9021C123.437 45.1868 122.617 46.2447 121.654 47.1006L124.5 50.3022ZM127.905 45.8835C128.773 44.2205 129.421 42.4539 129.851 40.5893L125.677 39.6261C125.326 41.1469 124.802 42.5703 124.107 43.9021L127.905 45.8835ZM129.844 40.6179C130.298 38.768 130.541 37.0306 130.541 35.4202H126.257C126.257 36.6092 126.077 37.9968 125.684 39.5975L129.844 40.6179ZM133.191 32.344C133.191 34.1231 132.928 36.1474 132.372 38.4296L136.535 39.442C137.151 36.9065 137.474 34.5362 137.474 32.344H133.191ZM132.366 38.4563C131.845 40.7243 131.131 42.7838 130.231 44.6435L134.087 46.5093C135.14 44.3325 135.955 41.965 136.541 39.4153L132.366 38.4563ZM130.231 44.6435C129.321 46.5245 128.269 48.1873 127.082 49.6419L130.4 52.3507C131.817 50.6152 133.044 48.6648 134.087 46.5093L130.231 44.6435ZM127.065 49.6626C125.883 51.1471 124.663 52.3772 123.408 53.369L126.065 56.7291C127.61 55.5074 129.059 54.0357 130.416 52.3301L127.065 49.6626ZM123.413 53.3656C120.751 55.4589 118.422 56.3253 116.387 56.3253V60.6088C119.69 60.6088 122.928 59.1965 126.061 56.7325L123.413 53.3656ZM116.387 56.3253C114.734 56.3253 113.598 55.7637 112.737 54.6877L109.392 57.3636C111.136 59.5428 113.548 60.6088 116.387 60.6088V56.3253ZM112.737 54.6877C111.726 53.424 111.058 51.374 111.058 48.2131H106.775C106.775 51.8882 107.539 55.0466 109.392 57.3636L112.737 54.6877ZM111.058 48.2131C111.058 44.8341 111.844 41.1032 113.492 36.9994L109.517 35.4034C107.714 39.8933 106.775 44.1703 106.775 48.2131H111.058ZM113.492 36.9994C115.129 32.9229 117.248 29.5911 119.823 26.9562L116.76 23.9623C113.736 27.0565 111.331 30.8861 109.517 35.4034L113.492 36.9994ZM119.814 26.9656C122.564 24.1863 125.22 23.0111 127.813 23.0111V18.7276C123.765 18.7276 120.074 20.6123 116.769 23.9529L119.814 26.9656ZM127.813 23.0111C129.847 23.0111 131.105 23.7637 131.961 25.2553L135.677 23.1241C133.993 20.1887 131.248 18.7276 127.813 18.7276V23.0111ZM131.953 25.2413C132.69 26.5491 133.191 28.821 133.191 32.344H137.474C137.474 28.5753 136.966 25.411 135.685 23.1381L131.953 25.2413ZM136.211 28.8772L134.071 28.7955L134.007 30.4654L135.612 30.9333L136.211 28.8772ZM136.456 22.4807L136.62 20.3453L134.4 20.1745L134.315 22.399L136.456 22.4807ZM154.913 21.8459L157.013 22.266L157.597 19.3436L154.641 19.7215L154.913 21.8459ZM154.375 24.5315L156.468 24.9865L156.472 24.969L156.476 24.9515L154.375 24.5315ZM153.887 26.8752L151.787 26.4552L151.78 26.4891L151.775 26.5231L153.887 26.8752ZM153.497 28.926L154.037 30.9984L155.303 30.6681L155.587 29.3906L153.497 28.926ZM151.25 29.3655L151.436 31.4992L151.482 31.4952L151.527 31.4893L151.25 29.3655ZM149.053 29.6584L148.67 27.5512L147.288 27.8026L146.968 29.1709L149.053 29.6584ZM147.295 38.9846L149.411 39.3204L149.411 39.3187L147.295 38.9846ZM144.561 56.9045L144.894 59.0202L146.463 58.7729L146.682 57.1997L144.561 56.9045ZM135.577 58.3206L133.482 57.8741L132.832 60.9213L135.91 60.4362L135.577 58.3206ZM140.899 29.2678L143.023 29.5444L143.301 27.4096L141.165 27.1426L140.899 29.2678ZM138.352 28.9589L138.596 22.5624L134.315 22.399L134.071 28.7955L138.352 28.9589ZM136.291 24.6162C138.04 24.7506 139.803 24.8178 141.582 24.8178V20.5343C139.911 20.5343 138.257 20.4712 136.62 20.3453L136.291 24.6162ZM141.582 24.8178C146.227 24.8178 150.761 24.5358 155.184 23.9704L154.641 19.7215C150.406 20.2628 146.053 20.5343 141.582 20.5343V24.8178ZM152.812 21.4259L152.275 24.1115L156.476 24.9515L157.013 22.266L152.812 21.4259ZM152.283 24.0765C152.117 24.8378 151.952 25.6307 151.787 26.4552L155.987 27.2953C156.148 26.4922 156.308 25.7226 156.468 24.9865L152.283 24.0765ZM151.775 26.5231C151.649 27.2778 151.526 27.9224 151.406 28.4614L155.587 29.3906C155.728 28.7578 155.865 28.0352 156 27.2273L151.775 26.5231ZM152.956 26.8536C152.292 27.0269 151.631 27.1559 150.973 27.2417L151.527 31.4893C152.367 31.3797 153.204 31.2158 154.037 30.9984L152.956 26.8536ZM151.065 27.2318C150.252 27.3024 149.454 27.4088 148.67 27.5512L149.436 31.7657C150.085 31.6477 150.751 31.5587 151.436 31.4992L151.065 27.2318ZM146.968 29.1709C146.366 31.7454 145.771 34.9092 145.18 38.6506L149.411 39.3187C149.992 35.6382 150.569 32.5845 151.139 30.146L146.968 29.1709ZM145.18 38.6489C143.878 46.8535 142.964 52.8441 142.44 56.6094L146.682 57.1997C147.2 53.478 148.109 47.522 149.411 39.3204L145.18 38.6489ZM144.228 54.7889L135.243 56.2049L135.91 60.4362L144.894 59.0202L144.228 54.7889ZM137.671 58.7671C140.312 46.3775 142.1 36.6279 143.023 29.5444L138.775 28.9912C137.875 35.9051 136.114 45.524 133.482 57.8741L137.671 58.7671ZM141.165 27.1426C140.266 27.0303 139.367 26.9927 138.466 27.0303L138.644 31.3101C139.306 31.2825 139.969 31.31 140.633 31.393L141.165 27.1426ZM138.466 27.0303C137.927 27.0527 137.378 26.9865 136.811 26.8211L135.612 30.9333C136.607 31.2237 137.621 31.3527 138.644 31.3101L138.466 27.0303Z" fill="black"/>
</g>
<defs>
<linearGradient id="paint0_linear_113_15967" x1="46.7425" y1="382.027" x2="194.61" y2="382.68" gradientUnits="userSpaceOnUse">
<stop stop-color="#FE3061"/>
<stop offset="1" stop-color="#FC7DFF"/>
</linearGradient>
<clipPath id="clip0_113_15967">
<rect width="177.052" height="496.889" fill="white" transform="translate(4.43799 4.28516)"/>
</clipPath>
</defs>
</svg>
