<svg width="254" height="117" viewBox="0 0 254 117" fill="none" xmlns="http://www.w3.org/2000/svg">
<path d="M39.7148 98.2783C39.7148 98.1982 39.7282 98.0514 39.7549 97.8379C39.8083 97.5977 39.835 97.4508 39.835 97.3975C40.5023 96.9437 41.2363 96.3564 42.0371 95.6357C42.8379 94.8883 43.5853 94.0876 44.2793 93.2334C44.9733 92.3525 45.5472 91.4316 46.001 90.4707C46.4814 89.5098 46.7217 88.5488 46.7217 87.5879C46.7217 87.5345 46.7083 87.4811 46.6816 87.4277C46.6816 87.3743 46.6816 87.321 46.6816 87.2676C46.6816 87.2409 46.6816 87.2008 46.6816 87.1475C46.5749 87.0407 46.4014 86.8672 46.1611 86.627C45.9209 86.36 45.6673 86.0931 45.4004 85.8262C45.1335 85.5592 44.8665 85.3057 44.5996 85.0654C44.3594 84.8252 44.1992 84.6517 44.1191 84.5449C44.0658 84.5449 43.999 84.5316 43.9189 84.5049C43.8656 84.5049 43.8122 84.5049 43.7588 84.5049C43.7321 84.4782 43.6921 84.4648 43.6387 84.4648C43.1315 84.4648 42.5443 84.6784 41.877 85.1055C41.2096 85.5059 40.5557 85.973 39.915 86.5068C39.2744 87.014 38.7005 87.5078 38.1934 87.9883C37.7129 88.4421 37.3926 88.7357 37.2324 88.8691C37.179 88.8958 37.1123 88.9092 37.0322 88.9092C36.9788 88.9359 36.8988 88.9492 36.792 88.9492C36.6852 88.9492 36.6185 88.9359 36.5918 88.9092C36.5117 88.9092 36.445 88.8958 36.3916 88.8691C36.2848 88.8158 36.1113 88.6823 35.8711 88.4688C35.6576 88.2285 35.5374 88.055 35.5107 87.9482V87.5879V87.1475C35.7243 86.4801 36.0179 85.6393 36.3916 84.625C36.7653 83.6107 37.139 82.5563 37.5127 81.4619C37.8864 80.3408 38.2067 79.2331 38.4736 78.1387C38.7673 77.0176 38.9141 76.0166 38.9141 75.1357C38.9141 74.4951 38.8874 73.8678 38.834 73.2539C38.7806 72.6133 38.6471 72.0394 38.4336 71.5322C38.2201 71.0251 37.9131 70.6247 37.5127 70.3311C37.1123 70.0374 36.5651 69.8906 35.8711 69.8906C34.9368 69.8906 34.1094 70.1576 33.3887 70.6914C32.6947 71.1986 32.0941 71.8525 31.5869 72.6533C31.1064 73.4274 30.7594 74.2682 30.5459 75.1758C30.3324 76.0566 30.279 76.8841 30.3857 77.6582H28.6641C28.6374 77.6582 28.584 77.5247 28.5039 77.2578C28.4238 76.9909 28.3304 76.6839 28.2236 76.3369C28.1436 75.9632 28.0635 75.5895 27.9834 75.2158C27.9033 74.8154 27.8366 74.4951 27.7832 74.2549V73.4141C27.7832 72.4798 28.0501 71.599 28.584 70.7715C29.1178 69.9173 29.7852 69.1699 30.5859 68.5293C31.3867 67.8887 32.2409 67.3815 33.1484 67.0078C34.0827 66.6341 34.9502 66.4473 35.751 66.4473C36.9788 66.4473 37.9932 66.6608 38.7939 67.0879C39.6214 67.515 40.2887 68.0889 40.7959 68.8096C41.3298 69.5303 41.7168 70.3577 41.957 71.292C42.224 72.2262 42.3975 73.2005 42.4775 74.2148C42.5576 75.2292 42.571 76.2702 42.5176 77.3379C42.4642 78.3789 42.4108 79.3532 42.3574 80.2607C43.4518 80.4476 44.4661 80.7145 45.4004 81.0615C46.3613 81.4085 47.1888 81.8757 47.8828 82.4629C48.6035 83.0234 49.1641 83.7308 49.5645 84.585C49.9915 85.4124 50.2051 86.4268 50.2051 87.6279C50.2051 88.2952 50.085 89.056 49.8447 89.9102C49.6045 90.7643 49.2575 91.6585 48.8037 92.5928C48.3766 93.5003 47.8695 94.3945 47.2822 95.2754C46.7217 96.1562 46.1077 96.957 45.4404 97.6777C44.7731 98.3717 44.0658 98.9323 43.3184 99.3594C42.571 99.7865 41.8236 100 41.0762 100C40.569 100 40.2087 99.8265 39.9951 99.4795C39.8083 99.1058 39.7148 98.7054 39.7148 98.2783ZM126.439 96.8369C126.493 96.6501 126.573 96.3164 126.68 95.8359C126.813 95.3555 126.933 94.8483 127.04 94.3145C127.174 93.7539 127.294 93.2467 127.4 92.793C127.507 92.3125 127.587 91.9788 127.641 91.792C127.827 91.0446 128.108 90.0169 128.481 88.709C128.855 87.3743 129.309 85.9596 129.843 84.4648C130.403 82.9434 131.031 81.4219 131.725 79.9004C132.445 78.3522 133.233 77.0042 134.087 75.8564C134.968 74.682 135.915 73.7878 136.93 73.1738C137.944 72.5599 139.038 72.4131 140.213 72.7334C139.839 74.2282 139.359 75.6429 138.771 76.9775C138.211 78.2855 137.597 79.5801 136.93 80.8613C136.289 82.1159 135.622 83.3704 134.928 84.625C134.26 85.8529 133.606 87.1074 132.966 88.3887C132.325 89.6699 131.738 91.0046 131.204 92.3926C130.697 93.7806 130.297 95.262 130.003 96.8369C129.869 97.611 129.616 98.0648 129.242 98.1982C128.868 98.305 128.441 98.2917 127.961 98.1582C127.614 98.0781 127.294 97.958 127 97.7979C126.706 97.6377 126.52 97.3174 126.439 96.8369ZM159.191 95.2754C159.191 93.7272 159.578 92.3525 160.353 91.1514C161.127 89.9502 162.088 88.9092 163.235 88.0283C164.383 87.1208 165.624 86.36 166.959 85.7461C168.294 85.1055 169.535 84.585 170.683 84.1846C171.83 83.7575 172.791 83.4238 173.565 83.1836C174.34 82.9167 174.727 82.7031 174.727 82.543C174.727 81.6087 174.673 80.7012 174.566 79.8203C174.486 78.9128 174.393 78.0052 174.286 77.0977C174.179 76.1901 174.073 75.2959 173.966 74.415C173.886 73.5075 173.846 72.6133 173.846 71.7324V69.1299C174.94 68.7295 175.714 68.7695 176.168 69.25C176.648 69.7305 176.729 70.5579 176.408 71.7324C176.515 72.3197 176.662 73.2406 176.849 74.4951C177.035 75.7497 177.236 77.1644 177.449 78.7393C177.689 80.3141 177.93 81.9691 178.17 83.7041C178.437 85.4391 178.677 87.1074 178.891 88.709C179.131 90.2839 179.331 91.6986 179.491 92.9531C179.651 94.181 179.771 95.1019 179.852 95.7158C179.878 95.8493 179.905 96.1162 179.932 96.5166C179.958 96.8903 179.972 97.304 179.972 97.7578C179.998 98.1849 180.012 98.5853 180.012 98.959C180.038 99.3327 180.052 99.5996 180.052 99.7598C179.037 99.7598 178.343 99.7197 177.97 99.6396C177.623 99.5596 177.396 99.3994 177.289 99.1592C177.209 98.9189 177.169 98.5719 177.169 98.1182C177.169 97.6644 177.035 97.0371 176.769 96.2363C175.781 97.0104 174.847 97.651 173.966 98.1582C173.085 98.6654 172.204 99.0791 171.323 99.3994C170.442 99.693 169.548 99.8932 168.641 100C167.76 100.133 166.812 100.2 165.798 100.2C164.944 100.2 164.116 100.133 163.315 100C162.541 99.8398 161.847 99.5729 161.233 99.1992C160.619 98.8255 160.126 98.3184 159.752 97.6777C159.378 97.0371 159.191 96.2363 159.191 95.2754ZM162.675 94.4346C162.675 94.8617 162.768 95.2087 162.955 95.4756C163.142 95.7425 163.382 95.9694 163.676 96.1562C163.969 96.3431 164.276 96.4766 164.597 96.5566C164.944 96.61 165.277 96.6367 165.598 96.6367C166.532 96.6367 167.533 96.4632 168.601 96.1162C169.695 95.7425 170.696 95.2354 171.604 94.5947C172.538 93.9274 173.299 93.14 173.886 92.2324C174.5 91.3249 174.807 90.3372 174.807 89.2695C174.807 88.4421 174.66 87.8682 174.366 87.5479C174.073 87.2275 173.512 87.0674 172.685 87.0674C171.83 87.0674 170.829 87.2676 169.682 87.668C168.561 88.0684 167.466 88.6022 166.398 89.2695C165.357 89.9368 164.477 90.7243 163.756 91.6318C163.035 92.5127 162.675 93.4469 162.675 94.4346ZM199.631 94.835C198.617 95.529 197.736 96.1562 196.988 96.7168C196.268 97.2507 195.56 97.7044 194.866 98.0781C194.172 98.4518 193.425 98.7321 192.624 98.9189C191.85 99.1058 190.889 99.1992 189.741 99.1992C187.259 99.1992 185.417 98.5452 184.216 97.2373C183.015 95.9027 182.414 93.9274 182.414 91.3115C182.414 90.2972 182.548 89.2428 182.814 88.1484C183.081 87.054 183.468 85.973 183.976 84.9053C184.509 83.8109 185.137 82.7832 185.857 81.8223C186.578 80.8346 187.392 79.9671 188.3 79.2197C189.207 78.4723 190.168 77.8851 191.183 77.458C192.224 77.0042 193.318 76.7773 194.466 76.7773C196.388 76.9642 197.896 77.4447 198.99 78.2188C200.085 78.9661 200.912 79.9404 201.473 81.1416C202.033 82.3161 202.42 83.6374 202.634 85.1055C202.847 86.5469 203.007 88.0417 203.114 89.5898C203.248 91.138 203.408 92.6862 203.595 94.2344C203.782 95.7826 204.169 97.2106 204.756 98.5186C204.409 99.3994 204.075 100.013 203.755 100.36C203.461 100.734 203.128 100.801 202.754 100.561C202.38 100.32 201.94 99.7331 201.433 98.7988C200.952 97.8646 200.352 96.5433 199.631 94.835ZM185.817 91.3916C185.817 92.9131 186.098 94.0342 186.658 94.7549C187.245 95.4489 188.273 95.7959 189.741 95.7959C190.836 95.7959 191.877 95.609 192.864 95.2354C193.879 94.835 194.759 94.3011 195.507 93.6338C196.254 92.9398 196.855 92.1123 197.309 91.1514C197.762 90.1904 197.989 89.1227 197.989 87.9482C197.989 87.4678 198.003 86.8005 198.029 85.9463C198.056 85.0654 198.003 84.1979 197.869 83.3438C197.736 82.4896 197.482 81.7555 197.108 81.1416C196.735 80.501 196.174 80.1807 195.427 80.1807C194.039 80.1807 192.757 80.541 191.583 81.2617C190.409 81.9557 189.394 82.8499 188.54 83.9443C187.686 85.0387 187.019 86.2533 186.538 87.5879C186.058 88.8958 185.817 90.1637 185.817 91.3916ZM206.598 79.2998C206.598 79.0596 206.598 78.8193 206.598 78.5791C206.624 78.3122 206.678 78.0719 206.758 77.8584C206.865 77.6182 206.998 77.4447 207.158 77.3379C207.345 77.2044 207.612 77.1377 207.959 77.1377C207.986 77.1377 208.012 77.1377 208.039 77.1377C208.092 77.1377 208.146 77.1377 208.199 77.1377C208.279 77.1644 208.346 77.1777 208.399 77.1777C208.907 77.8717 209.347 78.766 209.721 79.8604C210.094 80.9281 210.455 82.0758 210.802 83.3037C211.149 84.5049 211.522 85.7327 211.923 86.9873C212.323 88.2152 212.844 89.3229 213.484 90.3105C214.125 91.2982 214.912 92.0856 215.847 92.6729C216.781 93.2601 217.942 93.5137 219.33 93.4336C219.944 93.4336 220.344 93.0999 220.531 92.4326C220.718 91.7653 220.812 90.9111 220.812 89.8701C220.838 88.8291 220.812 87.6813 220.731 86.4268C220.678 85.1722 220.678 83.9844 220.731 82.8633C220.812 81.7155 221.012 80.7145 221.332 79.8604C221.679 79.0062 222.266 78.4323 223.094 78.1387C223.441 78.8327 223.721 79.9271 223.935 81.4219C224.175 82.89 224.348 84.5983 224.455 86.5469C224.562 88.4688 224.615 90.5641 224.615 92.833C224.615 95.0752 224.562 97.3174 224.455 99.5596C224.348 101.775 224.188 103.91 223.975 105.966C223.761 108.021 223.521 109.823 223.254 111.371C222.987 112.919 222.667 114.134 222.293 115.015C221.946 115.922 221.572 116.309 221.172 116.176C220.611 115.642 220.171 114.948 219.851 114.094C219.557 113.24 219.343 112.292 219.21 111.251C219.103 110.21 219.063 109.102 219.09 107.928C219.117 106.78 219.157 105.619 219.21 104.444C219.29 103.27 219.37 102.122 219.45 101.001C219.557 99.8799 219.61 98.8522 219.61 97.918C218.649 97.998 217.662 97.8512 216.647 97.4775C215.66 97.1038 214.686 96.5299 213.725 95.7559C212.764 94.9551 211.843 93.9941 210.962 92.873C210.108 91.752 209.347 90.484 208.68 89.0693C208.039 87.6546 207.532 86.1331 207.158 84.5049C206.785 82.8499 206.598 81.1149 206.598 79.2998Z" fill="white"/>
<path d="M63 85.4082C63 69.7127 69.9758 53 92.5016 53C107.18 53 119.736 66.3993 121.218 82.0075C123.021 100.987 112.237 112.497 91.0483 114.852C76.4574 116.45 63 105.027 63 85.4082Z" fill="#FFE376"/>
<path d="M88.8684 111.16C83.6657 111.16 78.7536 109.3 74.8297 105.754C69.4816 100.987 66.546 93.6626 66.546 85.1755C66.546 79.7693 67.5052 72.0378 72.0685 65.9049C76.5446 59.8593 83.4041 56.8074 92.4435 56.8074C105.029 56.8074 116.335 68.2011 117.672 82.2108C119.242 98.7491 109.854 108.98 91.2809 111.015C90.4961 111.131 89.6823 111.16 88.8684 111.16ZM92.4726 58.4641C85.1771 58.4641 68.2027 61.08 68.2027 85.2045C68.2027 93.2266 70.9349 100.086 75.9342 104.562C80.1197 108.312 85.5259 110.027 91.1355 109.416C99.9134 108.457 106.54 105.609 110.784 101.016C115.027 96.4239 116.801 90.1457 116.074 82.3852C114.795 69.1894 104.215 58.4641 92.4726 58.4641Z" fill="#30262A"/>
<path d="M76.8633 77.0586C77.0664 76.026 77.4388 75.2135 77.9805 74.6211C78.5221 74.0117 79.14 73.597 79.834 73.377C80.5449 73.1569 81.2982 73.1061 82.0938 73.2246C82.9062 73.3262 83.668 73.5716 84.3789 73.9609C85.1068 74.3503 85.7415 74.8581 86.2832 75.4844C86.8249 76.0938 87.2057 76.7962 87.4258 77.5918C87.6458 78.3704 87.6458 79.2168 87.4258 80.1309C87.2057 81.0449 86.7064 81.9844 85.9277 82.9492C86.5371 83.1693 87.1042 83.3893 87.6289 83.6094C88.1536 83.8294 88.5938 84.1003 88.9492 84.4219C89.3216 84.7435 89.6094 85.1328 89.8125 85.5898C90.0156 86.0469 90.1172 86.6139 90.1172 87.291C90.1172 87.8496 90.0156 88.4421 89.8125 89.0684C89.6094 89.6947 89.3216 90.3125 88.9492 90.9219C88.5938 91.5312 88.1706 92.1152 87.6797 92.6738C87.2057 93.2155 86.6895 93.6979 86.1309 94.1211C85.5723 94.5443 84.9967 94.8828 84.4043 95.1367C83.8288 95.3737 83.2617 95.4922 82.7031 95.4922C82.3307 95.4922 81.9668 95.2552 81.6113 94.7812C81.2559 94.3073 80.9089 93.681 80.5703 92.9023C80.2318 92.1237 79.9017 91.2266 79.5801 90.2109C79.2585 89.1953 78.9622 88.1458 78.6914 87.0625C78.4206 85.9622 78.1751 84.8789 77.9551 83.8125C77.735 82.7292 77.5404 81.7305 77.3711 80.8164C77.2188 79.9023 77.0918 79.1152 76.9902 78.4551C76.9056 77.778 76.8633 77.3125 76.8633 77.0586ZM81.3828 88.0527C81.3828 88.3405 81.4505 88.7214 81.5859 89.1953C81.7214 89.6693 81.8906 90.1432 82.0938 90.6172C82.3138 91.0911 82.5508 91.5312 82.8047 91.9375C83.0586 92.3268 83.3294 92.5892 83.6172 92.7246C83.8542 92.86 84.1335 92.8516 84.4551 92.6992C84.7767 92.5299 85.0983 92.276 85.4199 91.9375C85.7585 91.582 86.0801 91.1842 86.3848 90.7441C86.6895 90.2871 86.9603 89.8385 87.1973 89.3984C87.4512 88.9583 87.6458 88.5521 87.7812 88.1797C87.9336 87.7904 88.0098 87.4941 88.0098 87.291C88.0098 86.8509 87.9505 86.4954 87.832 86.2246C87.7135 85.9368 87.5358 85.7083 87.2988 85.5391C87.0788 85.3698 86.8079 85.2513 86.4863 85.1836C86.1816 85.1159 85.8431 85.082 85.4707 85.082C85.0475 85.082 84.599 85.1497 84.125 85.2852C83.651 85.4206 83.2109 85.6152 82.8047 85.8691C82.4154 86.123 82.0768 86.4362 81.7891 86.8086C81.5182 87.181 81.3828 87.5957 81.3828 88.0527ZM79.7578 79.4199C79.7578 79.7246 79.7493 80.1055 79.7324 80.5625C79.7155 81.0026 79.7155 81.4596 79.7324 81.9336C79.7493 82.4076 79.8001 82.8815 79.8848 83.3555C79.9694 83.8294 80.1217 84.2357 80.3418 84.5742C81.1712 84.4219 81.8906 84.1341 82.5 83.7109C83.1263 83.2878 83.6257 82.7969 83.998 82.2383C84.3874 81.6628 84.6667 81.0534 84.8359 80.4102C85.0052 79.7669 85.0645 79.1406 85.0137 78.5312C84.9798 77.9219 84.8359 77.3633 84.582 76.8555C84.3451 76.3477 84.0065 75.9583 83.5664 75.6875C83.1263 75.3997 82.5931 75.2559 81.9668 75.2559C81.3405 75.2559 80.6211 75.459 79.8086 75.8652C79.8086 76.0007 79.8001 76.2376 79.7832 76.5762C79.7832 76.9147 79.7747 77.2702 79.7578 77.6426C79.7578 78.015 79.7578 78.3704 79.7578 78.709C79.7578 79.0475 79.7578 79.2845 79.7578 79.4199ZM93.2636 78.0742C93.2636 77.9388 93.2721 77.7188 93.289 77.4141C93.289 77.0924 93.289 76.7624 93.289 76.4238C93.289 76.0684 93.2974 75.7383 93.3144 75.4336C93.3144 75.112 93.3144 74.8919 93.3144 74.7734C93.5006 74.418 93.7883 74.1641 94.1777 74.0117C94.5839 73.8424 95.0155 73.7324 95.4726 73.6816C95.9465 73.6139 96.4036 73.5885 96.8437 73.6055C97.3007 73.6224 97.6731 73.6309 97.9609 73.6309C98.3333 73.6309 98.7649 73.6478 99.2558 73.6816C99.7636 73.7155 100.263 73.7832 100.754 73.8848C101.262 73.9694 101.761 74.1048 102.252 74.291C102.743 74.4603 103.174 74.6888 103.547 74.9766C103.936 75.2474 104.241 75.5859 104.461 75.9922C104.698 76.3815 104.816 76.847 104.816 77.3887C104.816 78.0319 104.664 78.6159 104.359 79.1406C104.055 79.6484 103.674 80.1309 103.217 80.5879C102.777 81.028 102.286 81.4427 101.744 81.832C101.219 82.2214 100.728 82.6022 100.271 82.9746C99.8313 83.347 99.4589 83.7279 99.1542 84.1172C98.8495 84.5065 98.6972 84.9297 98.6972 85.3867C98.6972 85.4206 98.7057 85.4714 98.7226 85.5391C98.7564 85.5898 98.7734 85.6237 98.7734 85.6406C100.771 86.2331 102.709 86.9525 104.588 87.7988C106.484 88.6452 108.346 89.5592 110.174 90.541C110.225 90.5749 110.275 90.6426 110.326 90.7441C110.394 90.8288 110.453 90.9388 110.504 91.0742C110.555 91.1927 110.605 91.3027 110.656 91.4043C110.707 91.5059 110.732 91.5905 110.732 91.6582C110.732 91.8105 110.69 91.929 110.605 92.0137C110.521 92.0814 110.419 92.1406 110.301 92.1914C110.182 92.2253 110.064 92.2422 109.945 92.2422C109.827 92.2422 109.725 92.2422 109.641 92.2422C108.726 92.2422 107.812 92.0475 106.898 91.6582C106.001 91.252 105.096 90.8034 104.182 90.3125C103.267 89.8216 102.337 89.373 101.389 88.9668C100.458 88.5605 99.4843 88.3574 98.4687 88.3574H97.6562C97.927 88.9837 98.164 89.5423 98.3671 90.0332C98.5872 90.5241 98.7649 90.998 98.9003 91.4551C99.0527 91.9121 99.1627 92.3776 99.2304 92.8516C99.315 93.3086 99.3573 93.8079 99.3573 94.3496C99.3573 94.4681 99.3573 94.612 99.3573 94.7812C99.3573 94.9336 99.3489 95.0944 99.332 95.2637C99.315 95.4329 99.2642 95.5853 99.1796 95.7207C99.095 95.8561 98.9596 95.9492 98.7734 96C98.0793 95.5938 97.453 94.9674 96.8945 94.1211C96.3528 93.2578 95.8788 92.276 95.4726 91.1758C95.0663 90.0755 94.7193 88.9076 94.4316 87.6719C94.1607 86.4362 93.9322 85.2259 93.746 84.041C93.5767 82.8392 93.4498 81.722 93.3652 80.6895C93.2974 79.64 93.2636 78.7682 93.2636 78.0742ZM95.4472 79.6738C95.4472 79.8939 95.4303 80.1816 95.3964 80.5371C95.3795 80.8757 95.3795 81.2311 95.3964 81.6035C95.4133 81.959 95.4641 82.306 95.5487 82.6445C95.6503 82.9661 95.8111 83.2454 96.0312 83.4824C96.065 83.4993 96.0989 83.5078 96.1327 83.5078C96.1497 83.5247 96.192 83.5332 96.2597 83.5332C96.5644 83.5332 96.9283 83.4401 97.3515 83.2539C97.7916 83.0677 98.2486 82.8223 98.7226 82.5176C99.1965 82.2129 99.662 81.8659 100.119 81.4766C100.593 81.0703 101.016 80.6556 101.389 80.2324C101.761 79.8092 102.057 79.3861 102.277 78.9629C102.514 78.5228 102.633 78.125 102.633 77.7695C102.633 77.431 102.506 77.1432 102.252 76.9062C101.998 76.6523 101.693 76.4492 101.338 76.2969C100.982 76.1445 100.61 76.0345 100.221 75.9668C99.8482 75.8991 99.5435 75.8652 99.3066 75.8652C99.0188 75.8652 98.6803 75.8652 98.2909 75.8652C97.9016 75.8483 97.5123 75.8737 97.123 75.9414C96.7506 75.9922 96.412 76.0938 96.1073 76.2461C95.8027 76.3984 95.5911 76.627 95.4726 76.9316C95.4726 77.0332 95.4726 77.2109 95.4726 77.4648C95.4726 77.7188 95.4726 77.998 95.4726 78.3027C95.4726 78.5905 95.4641 78.8613 95.4472 79.1152C95.4472 79.3691 95.4472 79.5553 95.4472 79.6738Z" fill="#525F46"/>
</svg>
