<svg width="254" height="126" viewBox="0 0 254 126" fill="none" xmlns="http://www.w3.org/2000/svg">
<path d="M34.5698 96.1162C34.5698 94.6481 34.7033 93.2067 34.9702 91.792C35.2638 90.3506 35.5841 88.9092 35.9312 87.4678C36.2782 86.0264 36.5851 84.5716 36.8521 83.1035C37.1457 81.6087 37.2925 80.1006 37.2925 78.5791C37.2925 78.3656 37.2791 78.0186 37.2524 77.5381C37.2524 77.0309 37.2524 76.5104 37.2524 75.9766C37.2524 75.4427 37.2391 74.9355 37.2124 74.4551C37.2124 73.9479 37.2124 73.6009 37.2124 73.4141C37.159 73.3073 37.0256 73.1471 36.812 72.9336C36.5985 72.7201 36.4517 72.5866 36.3716 72.5332H35.9312C35.0503 72.5332 34.3162 72.7334 33.729 73.1338C33.1418 73.5075 32.6346 73.9746 32.2075 74.5352C31.8071 75.0957 31.4334 75.723 31.0864 76.417C30.7394 77.0843 30.3524 77.6982 29.9253 78.2588C29.5249 78.8193 29.0578 79.2998 28.5239 79.7002C28.0168 80.0739 27.3761 80.2607 26.6021 80.2607C26.6021 78.846 26.8423 77.4714 27.3228 76.1367C27.8032 74.7754 28.4839 73.5742 29.3647 72.5332C30.2723 71.4655 31.34 70.6113 32.5679 69.9707C33.8224 69.3301 35.1971 69.0098 36.6919 69.0098C37.3325 69.0098 37.853 69.0365 38.2534 69.0898C38.6538 69.1432 39.0008 69.2633 39.2944 69.4502C39.5881 69.637 39.8283 69.9173 40.0151 70.291C40.202 70.638 40.4155 71.1185 40.6558 71.7324C40.6558 71.946 40.6558 72.333 40.6558 72.8936C40.6558 73.4274 40.6558 74.0146 40.6558 74.6553C40.6825 75.2959 40.6958 75.9098 40.6958 76.4971C40.7225 77.0576 40.7358 77.4447 40.7358 77.6582C40.7358 79.0729 40.6558 80.4609 40.4956 81.8223C40.3354 83.1836 40.1353 84.5316 39.895 85.8662C39.6815 87.2008 39.4946 88.5488 39.3345 89.9102C39.1743 91.2448 39.0942 92.6061 39.0942 93.9941H39.8149L49.2642 89.71C49.2909 89.71 49.3442 89.71 49.4243 89.71C49.5311 89.6833 49.6512 89.6699 49.7847 89.6699C49.9181 89.6699 50.0382 89.6699 50.145 89.6699C50.2785 89.6432 50.3719 89.6299 50.4253 89.6299C50.6655 89.6299 50.9191 89.6432 51.186 89.6699C51.453 89.6966 51.6932 89.75 51.9067 89.8301C52.147 89.9102 52.3472 90.0436 52.5073 90.2305C52.6675 90.4173 52.7476 90.6709 52.7476 90.9912C52.7476 91.5518 52.5741 91.9922 52.2271 92.3125C51.88 92.6328 51.4663 92.8864 50.9858 93.0732C50.5321 93.2601 50.0516 93.4202 49.5444 93.5537C49.064 93.6872 48.6636 93.834 48.3433 93.9941C48.103 94.1276 47.716 94.3278 47.1821 94.5947C46.675 94.8617 46.0744 95.1686 45.3804 95.5156C44.6864 95.8359 43.9657 96.1829 43.2183 96.5566C42.4709 96.9303 41.7635 97.2907 41.0962 97.6377C40.4289 97.9847 39.8283 98.2917 39.2944 98.5586C38.7606 98.8255 38.3602 99.0124 38.0933 99.1191C38.0399 99.1191 37.9465 99.1325 37.813 99.1592C37.7062 99.1592 37.5728 99.1592 37.4126 99.1592C37.2791 99.1592 37.1457 99.1725 37.0122 99.1992C36.9054 99.1992 36.8254 99.1992 36.772 99.1992C36.2381 99.1992 35.811 99.1458 35.4907 99.0391C35.1971 98.9056 34.9836 98.7188 34.8501 98.4785C34.7166 98.2116 34.6366 97.8913 34.6099 97.5176C34.5832 97.1439 34.5698 96.6768 34.5698 96.1162ZM128.141 96.8369C128.194 96.6501 128.275 96.3164 128.381 95.8359C128.515 95.3555 128.635 94.8483 128.742 94.3145C128.875 93.7539 128.995 93.2467 129.102 92.793C129.209 92.3125 129.289 91.9788 129.342 91.792C129.529 91.0446 129.809 90.0169 130.183 88.709C130.557 87.3743 131.011 85.9596 131.544 84.4648C132.105 82.9434 132.732 81.4219 133.426 79.9004C134.147 78.3522 134.934 77.0042 135.789 75.8564C136.669 74.682 137.617 73.7878 138.631 73.1738C139.646 72.5599 140.74 72.4131 141.915 72.7334C141.541 74.2282 141.06 75.6429 140.473 76.9775C139.913 78.2855 139.299 79.5801 138.631 80.8613C137.991 82.1159 137.323 83.3704 136.629 84.625C135.962 85.8529 135.308 87.1074 134.667 88.3887C134.027 89.6699 133.44 91.0046 132.906 92.3926C132.399 93.7806 131.998 95.262 131.705 96.8369C131.571 97.611 131.318 98.0648 130.944 98.1982C130.57 98.305 130.143 98.2917 129.663 98.1582C129.316 98.0781 128.995 97.958 128.702 97.7979C128.408 97.6377 128.221 97.3174 128.141 96.8369ZM160.893 95.2754C160.893 93.7272 161.28 92.3525 162.054 91.1514C162.828 89.9502 163.789 88.9092 164.937 88.0283C166.085 87.1208 167.326 86.36 168.661 85.7461C169.995 85.1055 171.236 84.585 172.384 84.1846C173.532 83.7575 174.493 83.4238 175.267 83.1836C176.041 82.9167 176.428 82.7031 176.428 82.543C176.428 81.6087 176.375 80.7012 176.268 79.8203C176.188 78.9128 176.095 78.0052 175.988 77.0977C175.881 76.1901 175.774 75.2959 175.667 74.415C175.587 73.5075 175.547 72.6133 175.547 71.7324V69.1299C176.642 68.7295 177.416 68.7695 177.87 69.25C178.35 69.7305 178.43 70.5579 178.11 71.7324C178.217 72.3197 178.363 73.2406 178.55 74.4951C178.737 75.7497 178.937 77.1644 179.151 78.7393C179.391 80.3141 179.631 81.9691 179.872 83.7041C180.139 85.4391 180.379 87.1074 180.592 88.709C180.833 90.2839 181.033 91.6986 181.193 92.9531C181.353 94.181 181.473 95.1019 181.553 95.7158C181.58 95.8493 181.607 96.1162 181.633 96.5166C181.66 96.8903 181.673 97.304 181.673 97.7578C181.7 98.1849 181.713 98.5853 181.713 98.959C181.74 99.3327 181.753 99.5996 181.753 99.7598C180.739 99.7598 180.045 99.7197 179.671 99.6396C179.324 99.5596 179.097 99.3994 178.991 99.1592C178.911 98.9189 178.871 98.5719 178.871 98.1182C178.871 97.6644 178.737 97.0371 178.47 96.2363C177.483 97.0104 176.548 97.651 175.667 98.1582C174.787 98.6654 173.906 99.0791 173.025 99.3994C172.144 99.693 171.25 99.8932 170.342 100C169.461 100.133 168.514 100.2 167.5 100.2C166.645 100.2 165.818 100.133 165.017 100C164.243 99.8398 163.549 99.5729 162.935 99.1992C162.321 98.8255 161.827 98.3184 161.454 97.6777C161.08 97.0371 160.893 96.2363 160.893 95.2754ZM164.376 94.4346C164.376 94.8617 164.47 95.2087 164.657 95.4756C164.844 95.7425 165.084 95.9694 165.377 96.1562C165.671 96.3431 165.978 96.4766 166.298 96.5566C166.645 96.61 166.979 96.6367 167.299 96.6367C168.234 96.6367 169.235 96.4632 170.302 96.1162C171.397 95.7425 172.398 95.2354 173.305 94.5947C174.239 93.9274 175 93.14 175.587 92.2324C176.201 91.3249 176.508 90.3372 176.508 89.2695C176.508 88.4421 176.361 87.8682 176.068 87.5479C175.774 87.2275 175.214 87.0674 174.386 87.0674C173.532 87.0674 172.531 87.2676 171.383 87.668C170.262 88.0684 169.168 88.6022 168.1 89.2695C167.059 89.9368 166.178 90.7243 165.458 91.6318C164.737 92.5127 164.376 93.4469 164.376 94.4346ZM201.333 94.835C200.318 95.529 199.437 96.1562 198.69 96.7168C197.969 97.2507 197.262 97.7044 196.568 98.0781C195.874 98.4518 195.126 98.7321 194.326 98.9189C193.552 99.1058 192.591 99.1992 191.443 99.1992C188.96 99.1992 187.119 98.5452 185.917 97.2373C184.716 95.9027 184.116 93.9274 184.116 91.3115C184.116 90.2972 184.249 89.2428 184.516 88.1484C184.783 87.054 185.17 85.973 185.677 84.9053C186.211 83.8109 186.838 82.7832 187.559 81.8223C188.28 80.8346 189.094 79.9671 190.001 79.2197C190.909 78.4723 191.87 77.8851 192.884 77.458C193.925 77.0042 195.02 76.7773 196.167 76.7773C198.089 76.9642 199.597 77.4447 200.692 78.2188C201.786 78.9661 202.614 79.9404 203.174 81.1416C203.735 82.3161 204.122 83.6374 204.335 85.1055C204.549 86.5469 204.709 88.0417 204.816 89.5898C204.949 91.138 205.11 92.6862 205.296 94.2344C205.483 95.7826 205.87 97.2106 206.458 98.5186C206.111 99.3994 205.777 100.013 205.457 100.36C205.163 100.734 204.829 100.801 204.456 100.561C204.082 100.32 203.641 99.7331 203.134 98.7988C202.654 97.8646 202.053 96.5433 201.333 94.835ZM187.519 91.3916C187.519 92.9131 187.799 94.0342 188.36 94.7549C188.947 95.4489 189.975 95.7959 191.443 95.7959C192.537 95.7959 193.578 95.609 194.566 95.2354C195.58 94.835 196.461 94.3011 197.208 93.6338C197.956 92.9398 198.556 92.1123 199.01 91.1514C199.464 90.1904 199.691 89.1227 199.691 87.9482C199.691 87.4678 199.704 86.8005 199.731 85.9463C199.758 85.0654 199.704 84.1979 199.571 83.3438C199.437 82.4896 199.184 81.7555 198.81 81.1416C198.436 80.501 197.876 80.1807 197.128 80.1807C195.74 80.1807 194.459 80.541 193.285 81.2617C192.11 81.9557 191.096 82.8499 190.242 83.9443C189.388 85.0387 188.72 86.2533 188.24 87.5879C187.759 88.8958 187.519 90.1637 187.519 91.3916ZM208.299 79.2998C208.299 79.0596 208.299 78.8193 208.299 78.5791C208.326 78.3122 208.379 78.0719 208.459 77.8584C208.566 77.6182 208.7 77.4447 208.86 77.3379C209.047 77.2044 209.314 77.1377 209.661 77.1377C209.687 77.1377 209.714 77.1377 209.741 77.1377C209.794 77.1377 209.847 77.1377 209.901 77.1377C209.981 77.1644 210.048 77.1777 210.101 77.1777C210.608 77.8717 211.049 78.766 211.422 79.8604C211.796 80.9281 212.156 82.0758 212.503 83.3037C212.85 84.5049 213.224 85.7327 213.625 86.9873C214.025 88.2152 214.545 89.3229 215.186 90.3105C215.827 91.2982 216.614 92.0856 217.548 92.6729C218.483 93.2601 219.644 93.5137 221.032 93.4336C221.646 93.4336 222.046 93.0999 222.233 92.4326C222.42 91.7653 222.513 90.9111 222.513 89.8701C222.54 88.8291 222.513 87.6813 222.433 86.4268C222.38 85.1722 222.38 83.9844 222.433 82.8633C222.513 81.7155 222.713 80.7145 223.034 79.8604C223.381 79.0062 223.968 78.4323 224.795 78.1387C225.142 78.8327 225.423 79.9271 225.636 81.4219C225.876 82.89 226.05 84.5983 226.157 86.5469C226.264 88.4688 226.317 90.5641 226.317 92.833C226.317 95.0752 226.264 97.3174 226.157 99.5596C226.05 101.775 225.89 103.91 225.676 105.966C225.463 108.021 225.222 109.823 224.956 111.371C224.689 112.919 224.368 114.134 223.995 115.015C223.648 115.922 223.274 116.309 222.874 116.176C222.313 115.642 221.873 114.948 221.552 114.094C221.259 113.24 221.045 112.292 220.912 111.251C220.805 110.21 220.765 109.102 220.792 107.928C220.818 106.78 220.858 105.619 220.912 104.444C220.992 103.27 221.072 102.122 221.152 101.001C221.259 99.8799 221.312 98.8522 221.312 97.918C220.351 97.998 219.363 97.8512 218.349 97.4775C217.361 97.1038 216.387 96.5299 215.426 95.7559C214.465 94.9551 213.544 93.9941 212.664 92.873C211.809 91.752 211.049 90.484 210.381 89.0693C209.741 87.6546 209.234 86.1331 208.86 84.5049C208.486 82.8499 208.299 81.1149 208.299 79.2998Z" fill="white"/>
<path d="M62 85.4082C62 69.7127 68.9758 53 91.5016 53C106.18 53 118.736 66.3993 120.218 82.0075C122.021 100.987 111.237 112.497 90.0483 114.852C75.4574 116.45 62 105.027 62 85.4082Z" fill="#FFE376"/>
<path d="M87.8684 111.16C82.6657 111.16 77.7536 109.3 73.8297 105.754C68.4816 100.987 65.546 93.6626 65.546 85.1755C65.546 79.7693 66.5052 72.0378 71.0685 65.9049C75.5446 59.8593 82.4041 56.8074 91.4435 56.8074C104.029 56.8074 115.335 68.2011 116.672 82.2108C118.242 98.7491 108.854 108.98 90.2809 111.015C89.4961 111.131 88.6823 111.16 87.8684 111.16ZM91.4726 58.4641C84.1771 58.4641 67.2027 61.08 67.2027 85.2045C67.2027 93.2266 69.9349 100.086 74.9342 104.562C79.1197 108.312 84.5259 110.027 90.1355 109.416C98.9134 108.457 105.54 105.609 109.784 101.016C114.027 96.4239 115.801 90.1457 115.074 82.3852C113.795 69.1894 103.215 58.4641 91.4726 58.4641Z" fill="#30262A"/>
<path d="M75.8633 77.0586C76.0664 76.026 76.4388 75.2135 76.9805 74.6211C77.5221 74.0117 78.14 73.597 78.834 73.377C79.5449 73.1569 80.2982 73.1061 81.0938 73.2246C81.9062 73.3262 82.668 73.5716 83.3789 73.9609C84.1068 74.3503 84.7415 74.8581 85.2832 75.4844C85.8249 76.0938 86.2057 76.7962 86.4258 77.5918C86.6458 78.3704 86.6458 79.2168 86.4258 80.1309C86.2057 81.0449 85.7064 81.9844 84.9277 82.9492C85.5371 83.1693 86.1042 83.3893 86.6289 83.6094C87.1536 83.8294 87.5938 84.1003 87.9492 84.4219C88.3216 84.7435 88.6094 85.1328 88.8125 85.5898C89.0156 86.0469 89.1172 86.6139 89.1172 87.291C89.1172 87.8496 89.0156 88.4421 88.8125 89.0684C88.6094 89.6947 88.3216 90.3125 87.9492 90.9219C87.5938 91.5312 87.1706 92.1152 86.6797 92.6738C86.2057 93.2155 85.6895 93.6979 85.1309 94.1211C84.5723 94.5443 83.9967 94.8828 83.4043 95.1367C82.8288 95.3737 82.2617 95.4922 81.7031 95.4922C81.3307 95.4922 80.9668 95.2552 80.6113 94.7812C80.2559 94.3073 79.9089 93.681 79.5703 92.9023C79.2318 92.1237 78.9017 91.2266 78.5801 90.2109C78.2585 89.1953 77.9622 88.1458 77.6914 87.0625C77.4206 85.9622 77.1751 84.8789 76.9551 83.8125C76.735 82.7292 76.5404 81.7305 76.3711 80.8164C76.2188 79.9023 76.0918 79.1152 75.9902 78.4551C75.9056 77.778 75.8633 77.3125 75.8633 77.0586ZM80.3828 88.0527C80.3828 88.3405 80.4505 88.7214 80.5859 89.1953C80.7214 89.6693 80.8906 90.1432 81.0938 90.6172C81.3138 91.0911 81.5508 91.5312 81.8047 91.9375C82.0586 92.3268 82.3294 92.5892 82.6172 92.7246C82.8542 92.86 83.1335 92.8516 83.4551 92.6992C83.7767 92.5299 84.0983 92.276 84.4199 91.9375C84.7585 91.582 85.0801 91.1842 85.3848 90.7441C85.6895 90.2871 85.9603 89.8385 86.1973 89.3984C86.4512 88.9583 86.6458 88.5521 86.7812 88.1797C86.9336 87.7904 87.0098 87.4941 87.0098 87.291C87.0098 86.8509 86.9505 86.4954 86.832 86.2246C86.7135 85.9368 86.5358 85.7083 86.2988 85.5391C86.0788 85.3698 85.8079 85.2513 85.4863 85.1836C85.1816 85.1159 84.8431 85.082 84.4707 85.082C84.0475 85.082 83.599 85.1497 83.125 85.2852C82.651 85.4206 82.2109 85.6152 81.8047 85.8691C81.4154 86.123 81.0768 86.4362 80.7891 86.8086C80.5182 87.181 80.3828 87.5957 80.3828 88.0527ZM78.7578 79.4199C78.7578 79.7246 78.7493 80.1055 78.7324 80.5625C78.7155 81.0026 78.7155 81.4596 78.7324 81.9336C78.7493 82.4076 78.8001 82.8815 78.8848 83.3555C78.9694 83.8294 79.1217 84.2357 79.3418 84.5742C80.1712 84.4219 80.8906 84.1341 81.5 83.7109C82.1263 83.2878 82.6257 82.7969 82.998 82.2383C83.3874 81.6628 83.6667 81.0534 83.8359 80.4102C84.0052 79.7669 84.0645 79.1406 84.0137 78.5312C83.9798 77.9219 83.8359 77.3633 83.582 76.8555C83.3451 76.3477 83.0065 75.9583 82.5664 75.6875C82.1263 75.3997 81.5931 75.2559 80.9668 75.2559C80.3405 75.2559 79.6211 75.459 78.8086 75.8652C78.8086 76.0007 78.8001 76.2376 78.7832 76.5762C78.7832 76.9147 78.7747 77.2702 78.7578 77.6426C78.7578 78.015 78.7578 78.3704 78.7578 78.709C78.7578 79.0475 78.7578 79.2845 78.7578 79.4199ZM92.2636 78.0742C92.2636 77.9388 92.2721 77.7188 92.289 77.4141C92.289 77.0924 92.289 76.7624 92.289 76.4238C92.289 76.0684 92.2974 75.7383 92.3144 75.4336C92.3144 75.112 92.3144 74.8919 92.3144 74.7734C92.5006 74.418 92.7883 74.1641 93.1777 74.0117C93.5839 73.8424 94.0155 73.7324 94.4726 73.6816C94.9465 73.6139 95.4036 73.5885 95.8437 73.6055C96.3007 73.6224 96.6731 73.6309 96.9609 73.6309C97.3333 73.6309 97.7649 73.6478 98.2558 73.6816C98.7636 73.7155 99.2629 73.7832 99.7538 73.8848C100.262 73.9694 100.761 74.1048 101.252 74.291C101.743 74.4603 102.174 74.6888 102.547 74.9766C102.936 75.2474 103.241 75.5859 103.461 75.9922C103.698 76.3815 103.816 76.847 103.816 77.3887C103.816 78.0319 103.664 78.6159 103.359 79.1406C103.055 79.6484 102.674 80.1309 102.217 80.5879C101.777 81.028 101.286 81.4427 100.744 81.832C100.219 82.2214 99.7284 82.6022 99.2714 82.9746C98.8313 83.347 98.4589 83.7279 98.1542 84.1172C97.8495 84.5065 97.6972 84.9297 97.6972 85.3867C97.6972 85.4206 97.7057 85.4714 97.7226 85.5391C97.7564 85.5898 97.7734 85.6237 97.7734 85.6406C99.7708 86.2331 101.709 86.9525 103.588 87.7988C105.484 88.6452 107.346 89.5592 109.174 90.541C109.225 90.5749 109.275 90.6426 109.326 90.7441C109.394 90.8288 109.453 90.9388 109.504 91.0742C109.555 91.1927 109.605 91.3027 109.656 91.4043C109.707 91.5059 109.732 91.5905 109.732 91.6582C109.732 91.8105 109.69 91.929 109.605 92.0137C109.521 92.0814 109.419 92.1406 109.301 92.1914C109.182 92.2253 109.064 92.2422 108.945 92.2422C108.827 92.2422 108.725 92.2422 108.641 92.2422C107.726 92.2422 106.812 92.0475 105.898 91.6582C105.001 91.252 104.096 90.8034 103.182 90.3125C102.267 89.8216 101.337 89.373 100.389 88.9668C99.4576 88.5605 98.4843 88.3574 97.4687 88.3574H96.6562C96.927 88.9837 97.164 89.5423 97.3671 90.0332C97.5872 90.5241 97.7649 90.998 97.9003 91.4551C98.0527 91.9121 98.1627 92.3776 98.2304 92.8516C98.315 93.3086 98.3573 93.8079 98.3573 94.3496C98.3573 94.4681 98.3573 94.612 98.3573 94.7812C98.3573 94.9336 98.3489 95.0944 98.332 95.2637C98.315 95.4329 98.2642 95.5853 98.1796 95.7207C98.095 95.8561 97.9596 95.9492 97.7734 96C97.0793 95.5938 96.453 94.9674 95.8945 94.1211C95.3528 93.2578 94.8788 92.276 94.4726 91.1758C94.0663 90.0755 93.7193 88.9076 93.4316 87.6719C93.1607 86.4362 92.9322 85.2259 92.746 84.041C92.5767 82.8392 92.4498 81.722 92.3652 80.6895C92.2974 79.64 92.2636 78.7682 92.2636 78.0742ZM94.4472 79.6738C94.4472 79.8939 94.4303 80.1816 94.3964 80.5371C94.3795 80.8757 94.3795 81.2311 94.3964 81.6035C94.4133 81.959 94.4641 82.306 94.5487 82.6445C94.6503 82.9661 94.8111 83.2454 95.0312 83.4824C95.065 83.4993 95.0989 83.5078 95.1327 83.5078C95.1497 83.5247 95.192 83.5332 95.2597 83.5332C95.5644 83.5332 95.9283 83.4401 96.3515 83.2539C96.7916 83.0677 97.2486 82.8223 97.7226 82.5176C98.1965 82.2129 98.662 81.8659 99.1191 81.4766C99.593 81.0703 100.016 80.6556 100.389 80.2324C100.761 79.8092 101.057 79.3861 101.277 78.9629C101.514 78.5228 101.633 78.125 101.633 77.7695C101.633 77.431 101.506 77.1432 101.252 76.9062C100.998 76.6523 100.693 76.4492 100.338 76.2969C99.9823 76.1445 99.6099 76.0345 99.2206 75.9668C98.8482 75.8991 98.5435 75.8652 98.3066 75.8652C98.0188 75.8652 97.6803 75.8652 97.2909 75.8652C96.9016 75.8483 96.5123 75.8737 96.123 75.9414C95.7506 75.9922 95.412 76.0938 95.1073 76.2461C94.8027 76.3984 94.5911 76.627 94.4726 76.9316C94.4726 77.0332 94.4726 77.2109 94.4726 77.4648C94.4726 77.7188 94.4726 77.998 94.4726 78.3027C94.4726 78.5905 94.4641 78.8613 94.4472 79.1152C94.4472 79.3691 94.4472 79.5553 94.4472 79.6738Z" fill="#525F46"/>
</svg>
