<svg width="263" height="117" viewBox="0 0 263 117" fill="none" xmlns="http://www.w3.org/2000/svg">
<path d="M31.2021 89.2695C31.2021 88.2285 31.389 86.9873 31.7627 85.5459C32.1364 84.1045 32.6569 82.6097 33.3242 81.0615C34.0182 79.4867 34.819 77.9385 35.7266 76.417C36.6341 74.8688 37.6217 73.4808 38.6895 72.2529C39.7572 71.0251 40.8783 70.0374 42.0527 69.29C43.2539 68.516 44.4417 68.1289 45.6162 68.1289C45.8831 68.1289 46.2301 68.1423 46.6572 68.1689C47.111 68.1689 47.5514 68.209 47.9785 68.2891C48.4056 68.3691 48.7793 68.5026 49.0996 68.6895C49.4199 68.8763 49.5801 69.1566 49.5801 69.5303C49.5801 69.557 49.5534 69.637 49.5 69.7705C49.4733 69.8506 49.46 69.904 49.46 69.9307C49.4066 70.0374 49.2998 70.1842 49.1396 70.3711C49.0062 70.5312 48.846 70.7048 48.6592 70.8916C48.499 71.0785 48.3255 71.252 48.1387 71.4121C47.9518 71.5723 47.8317 71.679 47.7783 71.7324C47.7783 71.9193 47.765 72.2529 47.7383 72.7334C47.7383 73.2139 47.7383 73.721 47.7383 74.2549C47.7383 74.7887 47.7249 75.3092 47.6982 75.8164C47.6982 76.2969 47.6982 76.6305 47.6982 76.8174C47.6982 77.6715 47.6849 78.499 47.6582 79.2998C47.6582 80.0739 47.6849 80.848 47.7383 81.6221C47.7917 82.3962 47.8717 83.1702 47.9785 83.9443C48.112 84.6917 48.3122 85.4658 48.5791 86.2666C48.6592 86.2666 48.7793 86.2799 48.9395 86.3066C49.0996 86.3066 49.2731 86.3066 49.46 86.3066C49.6468 86.3066 49.8203 86.32 49.9805 86.3467C50.1406 86.3467 50.2607 86.3467 50.3408 86.3467C50.6878 86.3467 51.0348 86.3467 51.3818 86.3467C51.7288 86.32 52.0492 86.2533 52.3428 86.1465C52.6631 86.0397 52.9434 85.8662 53.1836 85.626C53.4238 85.3857 53.624 85.0254 53.7842 84.5449C54.6117 84.8919 55.1055 85.3057 55.2656 85.7861C55.4525 86.2399 55.5459 86.8005 55.5459 87.4678C55.5459 88.2686 55.3724 88.8825 55.0254 89.3096C54.6784 89.71 54.2113 90.0036 53.624 90.1904C53.0635 90.3773 52.4095 90.484 51.6621 90.5107C50.9414 90.5107 50.2074 90.5241 49.46 90.5508C49.5667 90.8177 49.7002 91.2848 49.8604 91.9521C50.0205 92.5928 50.194 93.2868 50.3809 94.0342C50.5677 94.7549 50.7279 95.4355 50.8613 96.0762C51.0215 96.7168 51.1283 97.1572 51.1816 97.3975C51.1816 97.4508 51.195 97.5977 51.2217 97.8379C51.2484 98.0781 51.2617 98.265 51.2617 98.3984C51.2617 99.1191 51.0615 99.5863 50.6611 99.7998C50.2607 99.9867 49.7135 100.08 49.0195 100.08C48.9395 100.08 48.7259 100.067 48.3789 100.04C48.0586 100.013 47.8584 100 47.7783 100C47.7249 99.6797 47.6182 99.1592 47.458 98.4385C47.2979 97.6911 47.1243 96.917 46.9375 96.1162C46.7773 95.2887 46.6038 94.5146 46.417 93.7939C46.2301 93.0732 46.0967 92.5661 46.0166 92.2725C45.9365 92.0589 45.8164 91.7786 45.6562 91.4316C45.4961 91.0846 45.2959 90.751 45.0557 90.4307C44.8421 90.1104 44.5885 89.8434 44.2949 89.6299C44.028 89.3896 43.7611 89.2695 43.4941 89.2695H31.2021ZM43.4941 73.4141C42.64 74.0013 41.7458 74.762 40.8115 75.6963C39.904 76.6305 39.0498 77.6449 38.249 78.7393C37.4749 79.8337 36.8343 80.9681 36.3271 82.1426C35.82 83.2904 35.5664 84.3848 35.5664 85.4258H44.375C44.375 84.5983 44.335 83.584 44.2549 82.3828C44.1748 81.1549 44.0814 79.9538 43.9746 78.7793C43.8945 77.5781 43.7878 76.4837 43.6543 75.4961C43.5475 74.5085 43.4941 73.8145 43.4941 73.4141ZM131.78 96.8369C131.834 96.6501 131.914 96.3164 132.021 95.8359C132.154 95.3555 132.274 94.8483 132.381 94.3145C132.514 93.7539 132.634 93.2467 132.741 92.793C132.848 92.3125 132.928 91.9788 132.981 91.792C133.168 91.0446 133.449 90.0169 133.822 88.709C134.196 87.3743 134.65 85.9596 135.184 84.4648C135.744 82.9434 136.371 81.4219 137.065 79.9004C137.786 78.3522 138.574 77.0042 139.428 75.8564C140.309 74.682 141.256 73.7878 142.271 73.1738C143.285 72.5599 144.379 72.4131 145.554 72.7334C145.18 74.2282 144.7 75.6429 144.112 76.9775C143.552 78.2855 142.938 79.5801 142.271 80.8613C141.63 82.1159 140.963 83.3704 140.269 84.625C139.601 85.8529 138.947 87.1074 138.307 88.3887C137.666 89.6699 137.079 91.0046 136.545 92.3926C136.038 93.7806 135.637 95.262 135.344 96.8369C135.21 97.611 134.957 98.0648 134.583 98.1982C134.209 98.305 133.782 98.2917 133.302 98.1582C132.955 98.0781 132.634 97.958 132.341 97.7979C132.047 97.6377 131.86 97.3174 131.78 96.8369ZM164.532 95.2754C164.532 93.7272 164.919 92.3525 165.693 91.1514C166.467 89.9502 167.428 88.9092 168.576 88.0283C169.724 87.1208 170.965 86.36 172.3 85.7461C173.634 85.1055 174.876 84.585 176.023 84.1846C177.171 83.7575 178.132 83.4238 178.906 83.1836C179.68 82.9167 180.067 82.7031 180.067 82.543C180.067 81.6087 180.014 80.7012 179.907 79.8203C179.827 78.9128 179.734 78.0052 179.627 77.0977C179.52 76.1901 179.413 75.2959 179.307 74.415C179.227 73.5075 179.187 72.6133 179.187 71.7324V69.1299C180.281 68.7295 181.055 68.7695 181.509 69.25C181.989 69.7305 182.069 70.5579 181.749 71.7324C181.856 72.3197 182.003 73.2406 182.189 74.4951C182.376 75.7497 182.576 77.1644 182.79 78.7393C183.03 80.3141 183.271 81.9691 183.511 83.7041C183.778 85.4391 184.018 87.1074 184.231 88.709C184.472 90.2839 184.672 91.6986 184.832 92.9531C184.992 94.181 185.112 95.1019 185.192 95.7158C185.219 95.8493 185.246 96.1162 185.272 96.5166C185.299 96.8903 185.312 97.304 185.312 97.7578C185.339 98.1849 185.353 98.5853 185.353 98.959C185.379 99.3327 185.393 99.5996 185.393 99.7598C184.378 99.7598 183.684 99.7197 183.311 99.6396C182.964 99.5596 182.737 99.3994 182.63 99.1592C182.55 98.9189 182.51 98.5719 182.51 98.1182C182.51 97.6644 182.376 97.0371 182.109 96.2363C181.122 97.0104 180.188 97.651 179.307 98.1582C178.426 98.6654 177.545 99.0791 176.664 99.3994C175.783 99.693 174.889 99.8932 173.981 100C173.101 100.133 172.153 100.2 171.139 100.2C170.285 100.2 169.457 100.133 168.656 100C167.882 99.8398 167.188 99.5729 166.574 99.1992C165.96 98.8255 165.466 98.3184 165.093 97.6777C164.719 97.0371 164.532 96.2363 164.532 95.2754ZM168.016 94.4346C168.016 94.8617 168.109 95.2087 168.296 95.4756C168.483 95.7425 168.723 95.9694 169.017 96.1562C169.31 96.3431 169.617 96.4766 169.938 96.5566C170.285 96.61 170.618 96.6367 170.938 96.6367C171.873 96.6367 172.874 96.4632 173.941 96.1162C175.036 95.7425 176.037 95.2354 176.944 94.5947C177.879 93.9274 178.639 93.14 179.227 92.2324C179.84 91.3249 180.147 90.3372 180.147 89.2695C180.147 88.4421 180.001 87.8682 179.707 87.5479C179.413 87.2275 178.853 87.0674 178.025 87.0674C177.171 87.0674 176.17 87.2676 175.022 87.668C173.901 88.0684 172.807 88.6022 171.739 89.2695C170.698 89.9368 169.817 90.7243 169.097 91.6318C168.376 92.5127 168.016 93.4469 168.016 94.4346ZM204.972 94.835C203.957 95.529 203.076 96.1562 202.329 96.7168C201.608 97.2507 200.901 97.7044 200.207 98.0781C199.513 98.4518 198.766 98.7321 197.965 98.9189C197.191 99.1058 196.23 99.1992 195.082 99.1992C192.6 99.1992 190.758 98.5452 189.557 97.2373C188.355 95.9027 187.755 93.9274 187.755 91.3115C187.755 90.2972 187.888 89.2428 188.155 88.1484C188.422 87.054 188.809 85.973 189.316 84.9053C189.85 83.8109 190.478 82.7832 191.198 81.8223C191.919 80.8346 192.733 79.9671 193.641 79.2197C194.548 78.4723 195.509 77.8851 196.523 77.458C197.564 77.0042 198.659 76.7773 199.807 76.7773C201.729 76.9642 203.237 77.4447 204.331 78.2188C205.425 78.9661 206.253 79.9404 206.813 81.1416C207.374 82.3161 207.761 83.6374 207.975 85.1055C208.188 86.5469 208.348 88.0417 208.455 89.5898C208.589 91.138 208.749 92.6862 208.936 94.2344C209.122 95.7826 209.509 97.2106 210.097 98.5186C209.75 99.3994 209.416 100.013 209.096 100.36C208.802 100.734 208.468 100.801 208.095 100.561C207.721 100.32 207.281 99.7331 206.773 98.7988C206.293 97.8646 205.692 96.5433 204.972 94.835ZM191.158 91.3916C191.158 92.9131 191.438 94.0342 191.999 94.7549C192.586 95.4489 193.614 95.7959 195.082 95.7959C196.176 95.7959 197.217 95.609 198.205 95.2354C199.219 94.835 200.1 94.3011 200.848 93.6338C201.595 92.9398 202.196 92.1123 202.649 91.1514C203.103 90.1904 203.33 89.1227 203.33 87.9482C203.33 87.4678 203.343 86.8005 203.37 85.9463C203.397 85.0654 203.343 84.1979 203.21 83.3438C203.076 82.4896 202.823 81.7555 202.449 81.1416C202.076 80.501 201.515 80.1807 200.768 80.1807C199.38 80.1807 198.098 80.541 196.924 81.2617C195.749 81.9557 194.735 82.8499 193.881 83.9443C193.027 85.0387 192.359 86.2533 191.879 87.5879C191.398 88.8958 191.158 90.1637 191.158 91.3916ZM211.938 79.2998C211.938 79.0596 211.938 78.8193 211.938 78.5791C211.965 78.3122 212.019 78.0719 212.099 77.8584C212.205 77.6182 212.339 77.4447 212.499 77.3379C212.686 77.2044 212.953 77.1377 213.3 77.1377C213.326 77.1377 213.353 77.1377 213.38 77.1377C213.433 77.1377 213.487 77.1377 213.54 77.1377C213.62 77.1644 213.687 77.1777 213.74 77.1777C214.247 77.8717 214.688 78.766 215.062 79.8604C215.435 80.9281 215.796 82.0758 216.143 83.3037C216.49 84.5049 216.863 85.7327 217.264 86.9873C217.664 88.2152 218.185 89.3229 218.825 90.3105C219.466 91.2982 220.253 92.0856 221.188 92.6729C222.122 93.2601 223.283 93.5137 224.671 93.4336C225.285 93.4336 225.685 93.0999 225.872 92.4326C226.059 91.7653 226.152 90.9111 226.152 89.8701C226.179 88.8291 226.152 87.6813 226.072 86.4268C226.019 85.1722 226.019 83.9844 226.072 82.8633C226.152 81.7155 226.353 80.7145 226.673 79.8604C227.02 79.0062 227.607 78.4323 228.435 78.1387C228.782 78.8327 229.062 79.9271 229.275 81.4219C229.516 82.89 229.689 84.5983 229.796 86.5469C229.903 88.4688 229.956 90.5641 229.956 92.833C229.956 95.0752 229.903 97.3174 229.796 99.5596C229.689 101.775 229.529 103.91 229.315 105.966C229.102 108.021 228.862 109.823 228.595 111.371C228.328 112.919 228.007 114.134 227.634 115.015C227.287 115.922 226.913 116.309 226.513 116.176C225.952 115.642 225.512 114.948 225.191 114.094C224.898 113.24 224.684 112.292 224.551 111.251C224.444 110.21 224.404 109.102 224.431 107.928C224.457 106.78 224.497 105.619 224.551 104.444C224.631 103.27 224.711 102.122 224.791 101.001C224.898 99.8799 224.951 98.8522 224.951 97.918C223.99 97.998 223.003 97.8512 221.988 97.4775C221.001 97.1038 220.026 96.5299 219.065 95.7559C218.104 94.9551 217.184 93.9941 216.303 92.873C215.449 91.752 214.688 90.484 214.021 89.0693C213.38 87.6546 212.873 86.1331 212.499 84.5049C212.125 82.8499 211.938 81.1149 211.938 79.2998Z" fill="white"/>
<path d="M68 84.4082C68 68.7127 74.9758 52 97.5016 52C112.18 52 124.736 65.3993 126.218 81.0075C128.021 99.9874 117.237 111.497 96.0483 113.852C81.4574 115.45 68 104.027 68 84.4082Z" fill="#FFE376"/>
<path d="M93.8684 110.16C88.6657 110.16 83.7536 108.3 79.8297 104.754C74.4816 99.9872 71.546 92.6626 71.546 84.1755C71.546 78.7693 72.5052 71.0378 77.0685 64.9049C81.5446 58.8593 88.4041 55.8074 97.4435 55.8074C110.029 55.8074 121.335 67.2011 122.672 81.2108C124.242 97.7491 114.854 107.98 96.2809 110.015C95.4961 110.131 94.6823 110.16 93.8684 110.16ZM97.4726 57.4641C90.1771 57.4641 73.2027 60.08 73.2027 84.2045C73.2027 92.2266 75.9349 99.0861 80.9342 103.562C85.1197 107.312 90.5259 109.027 96.1355 108.416C104.913 107.457 111.54 104.609 115.784 100.016C120.027 95.4239 121.801 89.1457 121.074 81.3852C119.795 68.1894 109.215 57.4641 97.4726 57.4641Z" fill="#30262A"/>
<path d="M81.8633 76.0586C82.0664 75.026 82.4388 74.2135 82.9805 73.6211C83.5221 73.0117 84.14 72.597 84.834 72.377C85.5449 72.1569 86.2982 72.1061 87.0938 72.2246C87.9062 72.3262 88.668 72.5716 89.3789 72.9609C90.1068 73.3503 90.7415 73.8581 91.2832 74.4844C91.8249 75.0938 92.2057 75.7962 92.4258 76.5918C92.6458 77.3704 92.6458 78.2168 92.4258 79.1309C92.2057 80.0449 91.7064 80.9844 90.9277 81.9492C91.5371 82.1693 92.1042 82.3893 92.6289 82.6094C93.1536 82.8294 93.5938 83.1003 93.9492 83.4219C94.3216 83.7435 94.6094 84.1328 94.8125 84.5898C95.0156 85.0469 95.1172 85.6139 95.1172 86.291C95.1172 86.8496 95.0156 87.4421 94.8125 88.0684C94.6094 88.6947 94.3216 89.3125 93.9492 89.9219C93.5938 90.5312 93.1706 91.1152 92.6797 91.6738C92.2057 92.2155 91.6895 92.6979 91.1309 93.1211C90.5723 93.5443 89.9967 93.8828 89.4043 94.1367C88.8288 94.3737 88.2617 94.4922 87.7031 94.4922C87.3307 94.4922 86.9668 94.2552 86.6113 93.7812C86.2559 93.3073 85.9089 92.681 85.5703 91.9023C85.2318 91.1237 84.9017 90.2266 84.5801 89.2109C84.2585 88.1953 83.9622 87.1458 83.6914 86.0625C83.4206 84.9622 83.1751 83.8789 82.9551 82.8125C82.735 81.7292 82.5404 80.7305 82.3711 79.8164C82.2188 78.9023 82.0918 78.1152 81.9902 77.4551C81.9056 76.778 81.8633 76.3125 81.8633 76.0586ZM86.3828 87.0527C86.3828 87.3405 86.4505 87.7214 86.5859 88.1953C86.7214 88.6693 86.8906 89.1432 87.0938 89.6172C87.3138 90.0911 87.5508 90.5312 87.8047 90.9375C88.0586 91.3268 88.3294 91.5892 88.6172 91.7246C88.8542 91.86 89.1335 91.8516 89.4551 91.6992C89.7767 91.5299 90.0983 91.276 90.4199 90.9375C90.7585 90.582 91.0801 90.1842 91.3848 89.7441C91.6895 89.2871 91.9603 88.8385 92.1973 88.3984C92.4512 87.9583 92.6458 87.5521 92.7812 87.1797C92.9336 86.7904 93.0098 86.4941 93.0098 86.291C93.0098 85.8509 92.9505 85.4954 92.832 85.2246C92.7135 84.9368 92.5358 84.7083 92.2988 84.5391C92.0788 84.3698 91.8079 84.2513 91.4863 84.1836C91.1816 84.1159 90.8431 84.082 90.4707 84.082C90.0475 84.082 89.599 84.1497 89.125 84.2852C88.651 84.4206 88.2109 84.6152 87.8047 84.8691C87.4154 85.123 87.0768 85.4362 86.7891 85.8086C86.5182 86.181 86.3828 86.5957 86.3828 87.0527ZM84.7578 78.4199C84.7578 78.7246 84.7493 79.1055 84.7324 79.5625C84.7155 80.0026 84.7155 80.4596 84.7324 80.9336C84.7493 81.4076 84.8001 81.8815 84.8848 82.3555C84.9694 82.8294 85.1217 83.2357 85.3418 83.5742C86.1712 83.4219 86.8906 83.1341 87.5 82.7109C88.1263 82.2878 88.6257 81.7969 88.998 81.2383C89.3874 80.6628 89.6667 80.0534 89.8359 79.4102C90.0052 78.7669 90.0645 78.1406 90.0137 77.5312C89.9798 76.9219 89.8359 76.3633 89.582 75.8555C89.3451 75.3477 89.0065 74.9583 88.5664 74.6875C88.1263 74.3997 87.5931 74.2559 86.9668 74.2559C86.3405 74.2559 85.6211 74.459 84.8086 74.8652C84.8086 75.0007 84.8001 75.2376 84.7832 75.5762C84.7832 75.9147 84.7747 76.2702 84.7578 76.6426C84.7578 77.015 84.7578 77.3704 84.7578 77.709C84.7578 78.0475 84.7578 78.2845 84.7578 78.4199ZM98.2636 77.0742C98.2636 76.9388 98.2721 76.7188 98.289 76.4141C98.289 76.0924 98.289 75.7624 98.289 75.4238C98.289 75.0684 98.2974 74.7383 98.3144 74.4336C98.3144 74.112 98.3144 73.8919 98.3144 73.7734C98.5006 73.418 98.7883 73.1641 99.1777 73.0117C99.5839 72.8424 100.016 72.7324 100.473 72.6816C100.947 72.6139 101.404 72.5885 101.844 72.6055C102.301 72.6224 102.673 72.6309 102.961 72.6309C103.333 72.6309 103.765 72.6478 104.256 72.6816C104.764 72.7155 105.263 72.7832 105.754 72.8848C106.262 72.9694 106.761 73.1048 107.252 73.291C107.743 73.4603 108.174 73.6888 108.547 73.9766C108.936 74.2474 109.241 74.5859 109.461 74.9922C109.698 75.3815 109.816 75.847 109.816 76.3887C109.816 77.0319 109.664 77.6159 109.359 78.1406C109.055 78.6484 108.674 79.1309 108.217 79.5879C107.777 80.028 107.286 80.4427 106.744 80.832C106.219 81.2214 105.728 81.6022 105.271 81.9746C104.831 82.347 104.459 82.7279 104.154 83.1172C103.85 83.5065 103.697 83.9297 103.697 84.3867C103.697 84.4206 103.706 84.4714 103.723 84.5391C103.756 84.5898 103.773 84.6237 103.773 84.6406C105.771 85.2331 107.709 85.9525 109.588 86.7988C111.484 87.6452 113.346 88.5592 115.174 89.541C115.225 89.5749 115.275 89.6426 115.326 89.7441C115.394 89.8288 115.453 89.9388 115.504 90.0742C115.555 90.1927 115.605 90.3027 115.656 90.4043C115.707 90.5059 115.732 90.5905 115.732 90.6582C115.732 90.8105 115.69 90.929 115.605 91.0137C115.521 91.0814 115.419 91.1406 115.301 91.1914C115.182 91.2253 115.064 91.2422 114.945 91.2422C114.827 91.2422 114.725 91.2422 114.641 91.2422C113.726 91.2422 112.812 91.0475 111.898 90.6582C111.001 90.252 110.096 89.8034 109.182 89.3125C108.267 88.8216 107.337 88.373 106.389 87.9668C105.458 87.5605 104.484 87.3574 103.469 87.3574H102.656C102.927 87.9837 103.164 88.5423 103.367 89.0332C103.587 89.5241 103.765 89.998 103.9 90.4551C104.053 90.9121 104.163 91.3776 104.23 91.8516C104.315 92.3086 104.357 92.8079 104.357 93.3496C104.357 93.4681 104.357 93.612 104.357 93.7812C104.357 93.9336 104.349 94.0944 104.332 94.2637C104.315 94.4329 104.264 94.5853 104.18 94.7207C104.095 94.8561 103.96 94.9492 103.773 95C103.079 94.5938 102.453 93.9674 101.894 93.1211C101.353 92.2578 100.879 91.276 100.473 90.1758C100.066 89.0755 99.7193 87.9076 99.4316 86.6719C99.1607 85.4362 98.9322 84.2259 98.746 83.041C98.5767 81.8392 98.4498 80.722 98.3652 79.6895C98.2974 78.64 98.2636 77.7682 98.2636 77.0742ZM100.447 78.6738C100.447 78.8939 100.43 79.1816 100.396 79.5371C100.379 79.8757 100.379 80.2311 100.396 80.6035C100.413 80.959 100.464 81.306 100.549 81.6445C100.65 81.9661 100.811 82.2454 101.031 82.4824C101.065 82.4993 101.099 82.5078 101.133 82.5078C101.15 82.5247 101.192 82.5332 101.26 82.5332C101.564 82.5332 101.928 82.4401 102.351 82.2539C102.792 82.0677 103.249 81.8223 103.723 81.5176C104.197 81.2129 104.662 80.8659 105.119 80.4766C105.593 80.0703 106.016 79.6556 106.389 79.2324C106.761 78.8092 107.057 78.3861 107.277 77.9629C107.514 77.5228 107.633 77.125 107.633 76.7695C107.633 76.431 107.506 76.1432 107.252 75.9062C106.998 75.6523 106.693 75.4492 106.338 75.2969C105.982 75.1445 105.61 75.0345 105.221 74.9668C104.848 74.8991 104.544 74.8652 104.307 74.8652C104.019 74.8652 103.68 74.8652 103.291 74.8652C102.902 74.8483 102.512 74.8737 102.123 74.9414C101.751 74.9922 101.412 75.0938 101.107 75.2461C100.803 75.3984 100.591 75.627 100.473 75.9316C100.473 76.0332 100.473 76.2109 100.473 76.4648C100.473 76.7188 100.473 76.998 100.473 77.3027C100.473 77.5905 100.464 77.8613 100.447 78.1152C100.447 78.3691 100.447 78.5553 100.447 78.6738Z" fill="#525F46"/>
</svg>
