<svg width="29" height="26" viewBox="0 0 29 26" fill="none" xmlns="http://www.w3.org/2000/svg">
<path fill-rule="evenodd" clip-rule="evenodd" d="M28.2196 13.0166C24.4114 14.6649 23.9567 16.1428 26.5144 19.2121C22.3083 18.8142 21.1147 19.8941 21.8536 23.7592C18.2728 21.4288 16.6245 21.8835 15.0898 25.7485C13.0436 21.8835 11.3953 21.4288 7.92811 24.3276C8.55334 19.8941 7.35973 18.8142 2.6421 19.7804C5.7114 16.1996 5.25669 14.6649 0.539062 13.0735C5.25669 11.4251 5.7114 9.94732 2.6421 6.36647C7.41656 7.33273 8.61018 6.19596 7.92811 1.81936C11.3953 4.71814 13.0436 4.26343 15.033 0.341553C16.5676 4.26343 18.2159 4.66131 21.7968 2.33091C21.0579 6.19596 22.2515 7.27589 26.4576 6.87802C23.9567 9.89048 24.4114 11.4251 28.2196 13.0166Z" fill="black"/>
<path fill-rule="evenodd" clip-rule="evenodd" d="M26.0587 13.0163C22.8757 14.4941 22.4779 15.9151 24.5809 18.6433C21.0569 18.3023 20.0338 19.2685 20.659 22.7926C17.6466 20.6327 16.2256 21.0874 14.9183 24.6114C13.2131 21.0306 11.849 20.6327 8.89339 23.3041C9.46178 19.2685 8.43868 18.2454 4.40312 19.1549C7.01771 15.9151 6.61983 14.4941 2.64111 13.0163C6.61983 11.5385 7.01771 10.1175 4.40312 6.87767C8.43868 7.73026 9.40494 6.764 8.89339 2.72844C11.849 5.34302 13.2131 4.94515 14.9183 1.42114C16.2256 5.00199 17.5897 5.39986 20.659 3.23999C20.0338 6.764 21.0001 7.7871 24.5809 7.38922C22.421 10.1175 22.8189 11.5385 26.0587 13.0163Z" fill="#FFB80C"/>
<path d="M11.3713 15.4479C11.3713 15.71 11.2295 15.841 10.9461 15.841C10.8872 15.841 10.8337 15.8169 10.7856 15.7688C10.7428 15.7153 10.7214 15.6351 10.7214 15.5281L10.6973 13.4902C10.6973 12.8162 10.7054 12.1824 10.7214 11.5887C10.5395 11.7491 10.363 11.9337 10.1919 12.1423C10.0207 12.3509 9.90303 12.49 9.83884 12.5595C9.78001 12.629 9.69977 12.6986 9.59815 12.7681C9.50187 12.8323 9.41094 12.8644 9.32536 12.8644C9.23977 12.8644 9.17024 12.835 9.11675 12.7761C9.06861 12.7173 9.04454 12.6451 9.04454 12.5595C9.04454 12.4739 9.10605 12.3589 9.22908 12.2145C9.35745 12.0647 9.8228 11.5646 10.6251 10.7141C10.7481 10.6018 10.9033 10.5456 11.0905 10.5456C11.1814 10.5456 11.2563 10.5724 11.3151 10.6259C11.374 10.6794 11.4034 10.7409 11.4034 10.8104L11.3472 12.9687L11.3713 15.4479ZM11.9994 13.2896C11.9994 12.5729 12.1277 11.9417 12.3845 11.3961C12.5128 11.118 12.6867 10.8987 12.906 10.7382C13.1253 10.5777 13.3767 10.4975 13.6602 10.4975C14.0774 10.4975 14.417 10.7703 14.6791 11.3159C14.9466 11.8561 15.0803 12.5006 15.0803 13.2495C15.0803 13.993 14.9573 14.6108 14.7112 15.1029C14.4652 15.5896 14.1175 15.833 13.6682 15.833C12.5556 15.833 11.9994 14.9852 11.9994 13.2896ZM13.588 15.0948C13.7805 15.0948 13.941 14.9959 14.0694 14.798C14.2031 14.5947 14.294 14.3701 14.3421 14.124C14.3903 13.8726 14.4144 13.549 14.4144 13.1532C14.4144 12.752 14.3609 12.3268 14.2539 11.8775C14.2004 11.6315 14.1175 11.4362 14.0052 11.2918C13.8982 11.142 13.7671 11.0672 13.612 11.0672C13.4034 11.0672 13.2242 11.1929 13.0745 11.4443C12.807 11.8989 12.6733 12.5033 12.6733 13.2575C12.6733 13.7496 12.7642 14.1802 12.9461 14.5493C13.1333 14.913 13.3473 15.0948 13.588 15.0948ZM19.6715 11.019C19.6715 11.11 19.5244 11.3667 19.2303 11.7893C19.0537 12.0086 18.6151 12.6745 17.9144 13.787C17.4651 14.4877 17.1201 15.0387 16.8794 15.4398C16.7404 15.6591 16.6013 15.7688 16.4622 15.7688C16.3285 15.7688 16.2296 15.7206 16.1654 15.6244C16.1386 15.5816 16.1253 15.5334 16.1253 15.48C16.1253 15.4265 16.1466 15.3543 16.1894 15.2633C16.2376 15.1724 16.4007 14.9611 16.6789 14.6295C16.957 14.2925 17.2753 13.8245 17.6336 13.2254C17.9973 12.621 18.2675 12.1797 18.444 11.9016C18.6205 11.6234 18.7408 11.4175 18.805 11.2838C18.9066 11.0484 19.0377 10.8612 19.1982 10.7222C19.2998 10.6526 19.3907 10.6179 19.471 10.6179C19.5512 10.6179 19.6047 10.6366 19.6314 10.674C19.6582 10.7115 19.6715 10.7756 19.6715 10.8666V11.019ZM15.8846 11.2356C16.136 10.8345 16.5184 10.6339 17.0319 10.6339C17.31 10.6339 17.5427 10.7141 17.7299 10.8746C17.9171 11.0351 18.0107 11.2784 18.0107 11.6047C18.0107 11.9256 17.869 12.2439 17.5855 12.5595C17.3073 12.8751 16.9971 13.0329 16.6548 13.0329C16.4034 13.0329 16.1787 12.9339 15.9808 12.736C15.7883 12.5381 15.692 12.2894 15.692 11.9898C15.692 11.6903 15.7562 11.4389 15.8846 11.2356ZM17.409 11.693C17.409 11.3025 17.2886 11.1073 17.0479 11.1073C16.8072 11.1073 16.6173 11.1875 16.4783 11.348C16.3446 11.5031 16.2777 11.6876 16.2777 11.9016C16.2777 12.1155 16.3044 12.2546 16.3579 12.3188C16.4168 12.383 16.5291 12.4151 16.6949 12.4151C16.8661 12.4151 17.0265 12.3455 17.1763 12.2065C17.3314 12.0674 17.409 11.8962 17.409 11.693ZM17.9465 14.7739C17.9465 14.4423 18.0803 14.1481 18.3477 13.8913C18.6151 13.6346 18.9013 13.5062 19.2062 13.5062C19.5111 13.5062 19.7544 13.6159 19.9363 13.8352C20.1235 14.0491 20.2171 14.3193 20.2171 14.6455C20.2171 14.9665 20.0968 15.2339 19.8561 15.4479C19.6154 15.6618 19.3292 15.7688 18.9976 15.7688C18.6713 15.7688 18.4146 15.6859 18.2273 15.5201C18.0401 15.3489 17.9465 15.1002 17.9465 14.7739ZM18.5403 14.6937C18.5403 15.0413 18.7061 15.2152 19.0377 15.2152C19.1821 15.2152 19.3265 15.1483 19.471 15.0146C19.6154 14.8809 19.6876 14.7472 19.6876 14.6134C19.6876 14.3781 19.6261 14.2123 19.503 14.116C19.4442 14.0732 19.3747 14.0518 19.2944 14.0518C19.1019 14.0518 18.928 14.1133 18.7729 14.2363C18.6178 14.354 18.5403 14.5065 18.5403 14.6937Z" fill="black"/>
</svg>
