<svg width="209" height="203" viewBox="0 0 209 203" fill="none" xmlns="http://www.w3.org/2000/svg">
<path d="M21.1753 155.023H165.675C169.675 152.223 178.342 110.523 182.175 90.0233L4.17529 91.5233C4.34196 92.69 5.07529 97.3233 6.67529 106.523C8.27529 115.723 17.0086 142.69 21.1753 155.023Z" fill="#B9691A" stroke="black"/>
<path d="M91.6752 2.02258C59.2752 1.62258 30.1752 6.18924 19.6752 8.52258C17.0086 12.3562 10.8753 22.1233 7.67529 30.5233C3.67529 41.0233 3.17518 53.5233 2.17518 63.5233C1.37518 71.5233 3.50852 84.8567 4.67518 90.5233H181.675C182.842 82.19 184.875 61.7233 183.675 46.5233C182.475 31.3233 172.175 14.8562 167.175 8.52258C155.509 6.52258 124.075 2.42258 91.6752 2.02258Z" fill="#B9691A" stroke="black" stroke-width="3"/>
<path d="M15 24.4979C20 24.4979 31.9 24.4979 39.5 24.4979C49 24.4979 60 22.9979 67.5 22.9979C75 22.9979 91 24.4979 97.5 24.4979C104 24.4979 129.5 24.4979 133 24.4979C135.8 24.4979 156.667 24.4979 168 24.4979" stroke="black" stroke-width="2"/>
<path d="M17 109.498C22 109.498 33.9 109.498 41.5 109.498C51 109.498 62 107.998 69.5 107.998C77 107.998 93 109.498 99.5 109.498C106 109.498 131.5 109.498 135 109.498C137.8 109.498 158.667 109.498 170 109.498" stroke="black" stroke-width="2"/>
<path d="M18 47.4979C23 47.4979 32.9 47.4979 40.5 47.4979C50 47.4979 62 47.4979 69.5 47.4979C77 47.4979 94 45.9979 100.5 45.9979C107 45.9979 132 47.4979 135.5 47.4979C138.3 47.4979 156.5 50.4979 171 47.4979" stroke="black" stroke-width="2"/>
<path d="M20 128.998C25 128.998 34.9 128.998 42.5 128.998C52 128.998 64 128.998 71.5 128.998C79 128.998 96 127.498 102.5 127.498C109 127.498 134 128.998 137.5 128.998C140.3 128.998 158.5 131.998 173 128.998" stroke="black" stroke-width="2"/>
<path d="M22.6753 41.5233C24.9756 32.0667 32.0086 14.19 35.6753 6.52332C30.5086 6.52332 19.8754 7.32332 18.6753 8.52332C17.1752 10.0233 4.26693 33.0233 2.67538 50.5233C1.56699 62.7107 2.67526 81.5233 4.17526 90.0233H181.675C182.675 80.69 187.769 69.0233 184.175 46.0233C181.675 30.0233 170.675 8.52332 167.175 8.52332L150.675 6.52332C153.842 15.0233 161.388 34.3937 163.675 44.5233C167.175 60.0233 168.676 75.5233 164.675 76.5233C150.509 76.5233 121.675 77.0233 113.675 77.0233C105.675 77.0233 49.0087 76.5233 21.1754 76.0233C19.1753 77.5233 18.1752 60.0233 22.6753 41.5233Z" fill="#703A16" stroke="black" stroke-width="3"/>
<path d="M84.4751 110.523H92.2652H102.281C105.339 110.523 114.745 92.196 115.635 79.9779C116.526 67.7597 99.6753 56.5233 94.211 56.5233C91.6143 56.887 82.2494 58.7051 73.3465 69.6142C64.4436 80.5233 80.2998 110.523 84.4751 110.523Z" fill="#C4C4C4" stroke="black" stroke-width="3"/>
<path d="M96.9582 85.2574C99.8954 88.7628 101.266 92.7551 101.951 97.0396C102.147 98.0133 101.756 98.5002 100.679 98.6949C96.0771 99.2792 91.3775 98.8897 86.7759 98.5976C85.601 98.5002 85.1114 97.9159 85.0135 96.6501C84.8177 92.3656 86.7759 88.9576 89.1256 85.6469C89.3214 85.3547 89.6152 85.0626 89.811 84.7705C84.7198 81.7519 84.2303 73.962 87.3633 69.8723C89.6152 66.9511 93.1398 66.1721 96.4687 67.9248C103.518 71.7224 102.637 80.5834 98.231 84.2836C97.7415 84.5757 97.4478 84.8679 96.9582 85.2574Z" fill="black"/>
<path d="M37.1753 134.523C36.3753 130.123 32.0086 102.19 30.6753 90.0233H4.17529C5.84196 98.19 9.87529 118.523 12.6753 128.523C15.4753 138.523 19.6753 154.523 21.6753 154.523H91.6753H165.675C168.175 154.523 171.075 142.923 172.675 136.523L172.675 136.523C174.275 130.123 179.175 102.857 181.675 90.0233H155C154.833 94.19 153.975 105.223 153.175 114.023C152.375 122.823 150.175 141.523 148.175 141.523H98.1753H38.6753C38.5086 141.023 37.9753 138.923 37.1753 134.523Z" fill="#703A16" stroke="black" stroke-width="3"/>
<path fill-rule="evenodd" clip-rule="evenodd" d="M208.501 155.392C194.262 161.555 192.562 167.081 202.125 178.557C186.398 177.07 181.935 181.108 184.698 195.559C171.309 186.846 165.145 188.546 159.407 202.998C151.756 188.546 145.593 186.846 132.629 197.685C134.966 181.108 130.503 177.07 112.864 180.682C124.34 167.293 122.64 161.555 105 155.604C122.64 149.441 124.34 143.915 112.864 130.526C130.716 134.139 135.179 129.888 132.629 113.524C145.593 124.363 151.756 122.662 159.195 107.998C164.933 122.662 171.096 124.15 184.485 115.436C181.723 129.888 186.186 133.926 201.913 132.439C192.562 143.703 194.262 149.441 208.501 155.392Z" fill="black"/>
<path fill-rule="evenodd" clip-rule="evenodd" d="M200.421 155.393C188.519 160.918 187.032 166.232 194.895 176.433C181.718 175.158 177.893 178.771 180.231 191.947C168.967 183.871 163.654 185.572 158.765 198.748C152.39 185.359 147.289 183.871 136.237 193.86C138.363 178.771 134.537 174.945 119.448 178.346C129.224 166.232 127.736 160.918 112.859 155.393C127.736 149.867 129.224 144.554 119.448 132.44C134.537 135.628 138.15 132.015 136.237 116.925C147.289 126.701 152.39 125.214 158.765 112.037C163.654 125.426 168.754 126.914 180.231 118.838C177.893 132.015 181.506 135.84 194.895 134.352C186.819 144.554 188.307 149.867 200.421 155.393Z" fill="#FFB80C"/>
<path d="M145.48 165.588C145.48 166.568 144.95 167.058 143.89 167.058C143.67 167.058 143.47 166.968 143.29 166.788C143.13 166.588 143.05 166.288 143.05 165.888L142.96 158.268C142.96 155.748 142.99 153.378 143.05 151.158C142.37 151.758 141.71 152.448 141.07 153.228C140.43 154.008 139.99 154.528 139.75 154.788C139.53 155.048 139.23 155.308 138.85 155.568C138.49 155.808 138.15 155.928 137.83 155.928C137.51 155.928 137.25 155.818 137.05 155.598C136.87 155.378 136.78 155.108 136.78 154.788C136.78 154.468 137.01 154.038 137.47 153.498C137.95 152.938 139.69 151.068 142.69 147.888C143.15 147.468 143.73 147.258 144.43 147.258C144.77 147.258 145.05 147.358 145.27 147.558C145.49 147.758 145.6 147.988 145.6 148.248L145.39 156.318L145.48 165.588ZM147.828 157.518C147.828 154.838 148.308 152.478 149.268 150.438C149.748 149.398 150.398 148.578 151.218 147.978C152.038 147.378 152.978 147.078 154.038 147.078C155.598 147.078 156.868 148.098 157.848 150.138C158.848 152.158 159.348 154.568 159.348 157.368C159.348 160.148 158.888 162.458 157.968 164.298C157.048 166.118 155.748 167.028 154.068 167.028C149.908 167.028 147.828 163.858 147.828 157.518ZM153.768 164.268C154.488 164.268 155.088 163.898 155.568 163.158C156.068 162.398 156.408 161.558 156.588 160.638C156.768 159.698 156.858 158.488 156.858 157.008C156.858 155.508 156.658 153.918 156.258 152.238C156.058 151.318 155.748 150.588 155.328 150.048C154.928 149.488 154.438 149.208 153.858 149.208C153.078 149.208 152.408 149.678 151.848 150.618C150.848 152.318 150.348 154.578 150.348 157.398C150.348 159.238 150.688 160.848 151.368 162.228C152.068 163.588 152.868 164.268 153.768 164.268ZM176.516 149.028C176.516 149.368 175.966 150.328 174.866 151.908C174.206 152.728 172.566 155.218 169.946 159.378C168.266 161.998 166.976 164.058 166.076 165.558C165.556 166.378 165.036 166.788 164.516 166.788C164.016 166.788 163.646 166.608 163.406 166.248C163.306 166.088 163.256 165.908 163.256 165.708C163.256 165.508 163.336 165.238 163.496 164.898C163.676 164.558 164.286 163.768 165.326 162.528C166.366 161.268 167.556 159.518 168.896 157.278C170.256 155.018 171.266 153.368 171.926 152.328C172.586 151.288 173.036 150.518 173.276 150.018C173.656 149.138 174.146 148.438 174.746 147.918C175.126 147.658 175.466 147.528 175.766 147.528C176.066 147.528 176.266 147.598 176.366 147.738C176.466 147.878 176.516 148.118 176.516 148.458V149.028ZM162.356 149.838C163.296 148.338 164.726 147.588 166.646 147.588C167.686 147.588 168.556 147.888 169.256 148.488C169.956 149.088 170.306 149.998 170.306 151.218C170.306 152.418 169.776 153.608 168.716 154.788C167.676 155.968 166.516 156.558 165.236 156.558C164.296 156.558 163.456 156.188 162.716 155.448C161.996 154.708 161.636 153.778 161.636 152.658C161.636 151.538 161.876 150.598 162.356 149.838ZM168.056 151.548C168.056 150.088 167.606 149.358 166.706 149.358C165.806 149.358 165.096 149.658 164.576 150.258C164.076 150.838 163.826 151.528 163.826 152.328C163.826 153.128 163.926 153.648 164.126 153.888C164.346 154.128 164.766 154.248 165.386 154.248C166.026 154.248 166.626 153.988 167.186 153.468C167.766 152.948 168.056 152.308 168.056 151.548ZM170.066 163.068C170.066 161.828 170.566 160.728 171.566 159.768C172.566 158.808 173.636 158.328 174.776 158.328C175.916 158.328 176.826 158.738 177.506 159.558C178.206 160.358 178.556 161.368 178.556 162.588C178.556 163.788 178.106 164.788 177.206 165.588C176.306 166.388 175.236 166.788 173.996 166.788C172.776 166.788 171.816 166.478 171.116 165.858C170.416 165.218 170.066 164.288 170.066 163.068ZM172.286 162.768C172.286 164.068 172.906 164.718 174.146 164.718C174.686 164.718 175.226 164.468 175.766 163.968C176.306 163.468 176.576 162.968 176.576 162.468C176.576 161.588 176.346 160.968 175.886 160.608C175.666 160.448 175.406 160.368 175.106 160.368C174.386 160.368 173.736 160.598 173.156 161.058C172.576 161.498 172.286 162.068 172.286 162.768Z" fill="black"/>
</svg>
