<svg width="34" height="26" viewBox="0 0 34 26" fill="none" xmlns="http://www.w3.org/2000/svg">
<path fill-rule="evenodd" clip-rule="evenodd" d="M27.787 12.8259C23.9788 14.4743 23.5241 15.9521 26.0818 19.0214C21.8757 18.6235 20.6821 19.7034 21.421 23.5685C17.8402 21.2381 16.1918 21.6928 14.6572 25.5578C12.611 21.6928 10.9627 21.2381 7.4955 24.1369C8.12072 19.7034 6.92711 18.6235 2.20948 19.5898C5.27878 16.0089 4.82407 14.4743 0.106445 12.8828C4.82407 11.2345 5.27878 9.75665 2.20948 6.1758C6.98395 7.14206 8.17756 6.00528 7.4955 1.62869C10.9627 4.52747 12.611 4.07276 14.6004 0.150879C16.135 4.07276 17.7833 4.47063 21.3642 2.14024C20.6253 6.00528 21.8189 7.08522 26.025 6.68735C23.5241 9.69981 23.9788 11.2345 27.787 12.8259Z" fill="black"/>
<path fill-rule="evenodd" clip-rule="evenodd" d="M25.6256 12.8246C22.4426 14.3024 22.0448 15.7234 24.1478 18.4517C20.6238 18.1106 19.6007 19.0769 20.2259 22.6009C17.2135 20.441 15.7925 20.8957 14.4852 24.4197C12.78 20.8389 11.4159 20.441 8.46028 23.1125C9.02867 19.0769 8.00557 18.0538 3.97001 18.9632C6.5846 15.7234 6.18673 14.3024 2.20801 12.8246C6.18673 11.3468 6.5846 9.92584 3.97001 6.68602C8.00557 7.53861 8.97183 6.57235 8.46028 2.53679C11.4159 5.15137 12.78 4.7535 14.4852 1.22949C15.7925 4.81034 17.1566 5.20821 20.2259 3.04834C19.6007 6.57235 20.567 7.59545 24.1478 7.19757C21.9879 9.92584 22.3858 11.3468 25.6256 12.8246Z" fill="#FFB80C"/>
<path d="M9.06367 14.9964C9.06367 15.2585 8.92192 15.3896 8.63844 15.3896C8.5796 15.3896 8.52611 15.3655 8.47797 15.3174C8.43518 15.2639 8.41379 15.1837 8.41379 15.0767L8.38972 13.0388C8.38972 12.3648 8.39774 11.731 8.41379 11.1373C8.23192 11.2977 8.05541 11.4823 7.88425 11.6909C7.71309 11.8995 7.59541 12.0385 7.53123 12.1081C7.47239 12.1776 7.39216 12.2471 7.29053 12.3167C7.19425 12.3809 7.10332 12.413 7.01774 12.413C6.93216 12.413 6.86262 12.3835 6.80913 12.3247C6.76099 12.2659 6.73692 12.1937 6.73692 12.1081C6.73692 12.0225 6.79844 11.9075 6.92146 11.7631C7.04983 11.6133 7.51518 11.1132 8.31751 10.2627C8.44053 10.1504 8.59565 10.0942 8.78286 10.0942C8.87379 10.0942 8.94867 10.121 9.00751 10.1745C9.06634 10.228 9.09576 10.2895 9.09576 10.359L9.0396 12.5173L9.06367 14.9964ZM9.69174 12.8382C9.69174 12.1214 9.82011 11.4903 10.0769 10.9447C10.2052 10.6666 10.3791 10.4473 10.5984 10.2868C10.8177 10.1263 11.0691 10.0461 11.3526 10.0461C11.7698 10.0461 12.1094 10.3189 12.3715 10.8645C12.6389 11.4047 12.7727 12.0492 12.7727 12.7981C12.7727 13.5416 12.6496 14.1593 12.4036 14.6514C12.1576 15.1382 11.8099 15.3816 11.3606 15.3816C10.248 15.3816 9.69174 14.5338 9.69174 12.8382ZM11.2803 14.6434C11.4729 14.6434 11.6334 14.5445 11.7617 14.3466C11.8955 14.1433 11.9864 13.9187 12.0345 13.6726C12.0827 13.4212 12.1067 13.0976 12.1067 12.7018C12.1067 12.3006 12.0533 11.8754 11.9463 11.4261C11.8928 11.18 11.8099 10.9848 11.6976 10.8404C11.5906 10.6906 11.4595 10.6157 11.3044 10.6157C11.0958 10.6157 10.9166 10.7414 10.7669 10.9928C10.4994 11.4475 10.3657 12.0519 10.3657 12.8061C10.3657 13.2982 10.4566 13.7288 10.6385 14.0978C10.8257 14.4616 11.0396 14.6434 11.2803 14.6434ZM13.2881 12.8382C13.2881 12.1214 13.4165 11.4903 13.6732 10.9447C13.8016 10.6666 13.9754 10.4473 14.1947 10.2868C14.414 10.1263 14.6654 10.0461 14.9489 10.0461C15.3661 10.0461 15.7058 10.3189 15.9679 10.8645C16.2353 11.4047 16.369 12.0492 16.369 12.7981C16.369 13.5416 16.246 14.1593 16 14.6514C15.7539 15.1382 15.4062 15.3816 14.9569 15.3816C13.8444 15.3816 13.2881 14.5338 13.2881 12.8382ZM14.8767 14.6434C15.0693 14.6434 15.2297 14.5445 15.3581 14.3466C15.4918 14.1433 15.5828 13.9187 15.6309 13.6726C15.679 13.4212 15.7031 13.0976 15.7031 12.7018C15.7031 12.3006 15.6496 11.8754 15.5426 11.4261C15.4891 11.18 15.4062 10.9848 15.2939 10.8404C15.1869 10.6906 15.0559 10.6157 14.9008 10.6157C14.6922 10.6157 14.513 10.7414 14.3632 10.9928C14.0958 11.4475 13.9621 12.0519 13.9621 12.8061C13.9621 13.2982 14.053 13.7288 14.2348 14.0978C14.4221 14.4616 14.636 14.6434 14.8767 14.6434ZM20.9603 10.5676C20.9603 10.6585 20.8132 10.9153 20.519 11.3378C20.3425 11.5571 19.9039 12.2231 19.2032 13.3356C18.7539 14.0363 18.4089 14.5873 18.1682 14.9884C18.0291 15.2077 17.89 15.3174 17.751 15.3174C17.6173 15.3174 17.5183 15.2692 17.4541 15.173C17.4274 15.1302 17.414 15.082 17.414 15.0285C17.414 14.975 17.4354 14.9028 17.4782 14.8119C17.5263 14.721 17.6895 14.5097 17.9676 14.1781C18.2457 13.8411 18.564 13.3731 18.9224 12.774C19.2861 12.1696 19.5562 11.7283 19.7327 11.4502C19.9092 11.172 20.0296 10.9661 20.0938 10.8324C20.1954 10.597 20.3264 10.4098 20.4869 10.2707C20.5885 10.2012 20.6795 10.1664 20.7597 10.1664C20.8399 10.1664 20.8934 10.1852 20.9202 10.2226C20.9469 10.26 20.9603 10.3242 20.9603 10.4152V10.5676ZM17.1733 10.7842C17.4247 10.3831 17.8071 10.1825 18.3206 10.1825C18.5988 10.1825 18.8314 10.2627 19.0186 10.4232C19.2059 10.5837 19.2995 10.827 19.2995 11.1533C19.2995 11.4742 19.1577 11.7925 18.8742 12.1081C18.5961 12.4237 18.2859 12.5814 17.9435 12.5814C17.6921 12.5814 17.4675 12.4825 17.2696 12.2846C17.077 12.0867 16.9807 11.838 16.9807 11.5384C16.9807 11.2389 17.0449 10.9875 17.1733 10.7842ZM18.6977 11.2416C18.6977 10.8511 18.5774 10.6559 18.3367 10.6559C18.096 10.6559 17.9061 10.7361 17.767 10.8966C17.6333 11.0517 17.5664 11.2362 17.5664 11.4502C17.5664 11.6641 17.5932 11.8032 17.6467 11.8674C17.7055 11.9316 17.8178 11.9637 17.9836 11.9637C18.1548 11.9637 18.3153 11.8941 18.465 11.755C18.6202 11.616 18.6977 11.4448 18.6977 11.2416ZM19.2353 14.3225C19.2353 13.9909 19.369 13.6967 19.6364 13.4399C19.9039 13.1832 20.19 13.0548 20.4949 13.0548C20.7998 13.0548 21.0432 13.1645 21.225 13.3838C21.4123 13.5977 21.5059 13.8678 21.5059 14.1941C21.5059 14.515 21.3855 14.7825 21.1448 14.9964C20.9041 15.2104 20.618 15.3174 20.2863 15.3174C19.96 15.3174 19.7033 15.2345 19.5161 15.0687C19.3289 14.8975 19.2353 14.6488 19.2353 14.3225ZM19.829 14.2423C19.829 14.5899 19.9948 14.7638 20.3264 14.7638C20.4709 14.7638 20.6153 14.6969 20.7597 14.5632C20.9041 14.4295 20.9763 14.2957 20.9763 14.162C20.9763 13.9267 20.9148 13.7609 20.7918 13.6646C20.733 13.6218 20.6634 13.6004 20.5832 13.6004C20.3906 13.6004 20.2168 13.6619 20.0617 13.7849C19.9066 13.9026 19.829 14.055 19.829 14.2423Z" fill="black"/>
</svg>
