<svg width="29" height="26" viewBox="0 0 29 26" fill="none" xmlns="http://www.w3.org/2000/svg">
<path fill-rule="evenodd" clip-rule="evenodd" d="M28.6527 13.2566C24.8445 14.9049 24.3898 16.3827 26.9475 19.452C22.7415 19.0542 21.5478 20.1341 22.2867 23.9992C18.7059 21.6688 17.0576 22.1235 15.5229 25.9885C13.4767 22.1235 11.8284 21.6688 8.36122 24.5675C8.98645 20.1341 7.79283 19.0542 3.07521 20.0204C6.1445 16.4396 5.68979 14.9049 0.972168 13.3134C5.68979 11.6651 6.1445 10.1873 3.07521 6.60646C7.84967 7.57272 9.04329 6.43595 8.36122 2.05935C11.8284 4.95814 13.4767 4.50342 15.4661 0.581543C17.0007 4.50342 18.6491 4.9013 22.2299 2.5709C21.491 6.43595 22.6846 7.51588 26.8907 7.11801C24.3898 10.1305 24.8445 11.6651 28.6527 13.2566Z" fill="black"/>
<path fill-rule="evenodd" clip-rule="evenodd" d="M26.4918 13.2563C23.3089 14.7341 22.911 16.155 25.014 18.8833C21.49 18.5423 20.4669 19.5085 21.0921 23.0325C18.0797 20.8727 16.6587 21.3274 15.3514 24.8514C13.6462 21.2705 12.2821 20.8727 9.32649 23.5441C9.89488 19.5085 8.87178 18.4854 4.83622 19.3949C7.45081 16.155 7.05294 14.7341 3.07422 13.2563C7.05294 11.7785 7.45081 10.3575 4.83622 7.11766C8.87178 7.97025 9.83804 7.00399 9.32649 2.96843C12.2821 5.58301 13.6462 5.18514 15.3514 1.66113C16.6587 5.24198 18.0228 5.63985 21.0921 3.47998C20.4669 7.00399 21.4332 8.02709 25.014 7.62921C22.8541 10.3575 23.252 11.7785 26.4918 13.2563Z" fill="#FFB80C"/>
<path d="M11.3503 15.8183L10.1709 15.8022C10.1174 15.8022 10.0639 15.8022 10.0104 15.8022C9.48091 15.8022 9.21614 15.7006 9.21614 15.4974C9.21614 15.3529 9.24288 15.2165 9.29637 15.0882C9.34986 14.9598 9.40067 14.8635 9.44881 14.7993C9.49695 14.7352 9.59323 14.6282 9.73765 14.4784C9.88207 14.3286 9.98637 14.2163 10.0506 14.1414C10.1147 14.0665 10.3073 13.8767 10.6282 13.5718C10.9545 13.2669 11.1979 12.9914 11.3583 12.7454C11.5242 12.4993 11.6071 12.2399 11.6071 11.9671C11.6071 11.5446 11.4386 11.2718 11.1016 11.1488C11.0053 11.1167 10.9064 11.1006 10.8047 11.1006C10.5747 11.1006 10.3447 11.1996 10.1147 11.3975C10.0238 11.4831 9.92753 11.5259 9.82591 11.5259C9.79381 11.5259 9.7644 11.5232 9.73765 11.5178C9.60393 11.4857 9.53707 11.3921 9.53707 11.237C9.53707 11.0284 9.68416 10.8546 9.97835 10.7155C10.2939 10.5657 10.6363 10.4909 11.0053 10.4909C11.3797 10.4909 11.6846 10.6272 11.92 10.9C12.1607 11.1675 12.281 11.5018 12.281 11.9029C12.281 12.4753 12.1045 12.9674 11.7515 13.3792C11.5857 13.5718 11.4172 13.751 11.246 13.9168C10.7058 14.4303 10.3447 14.8207 10.1629 15.0882C10.4036 15.1042 10.7004 15.1122 11.0535 15.1122C11.4118 15.1122 11.8531 15.0909 12.3773 15.0481C12.4575 15.0641 12.5217 15.1015 12.5699 15.1604C12.6233 15.2139 12.6501 15.2754 12.6501 15.3449C12.6501 15.5268 12.5538 15.6525 12.3613 15.722C12.1687 15.7862 11.8317 15.8183 11.3503 15.8183ZM13.0013 13.2669C13.0013 12.5502 13.1297 11.919 13.3864 11.3734C13.5148 11.0953 13.6886 10.876 13.9079 10.7155C14.1272 10.555 14.3786 10.4748 14.6621 10.4748C15.0793 10.4748 15.419 10.7476 15.6811 11.2932C15.9485 11.8334 16.0822 12.4779 16.0822 13.2268C16.0822 13.9703 15.9592 14.5881 15.7132 15.0802C15.4671 15.5669 15.1194 15.8103 14.6701 15.8103C13.5576 15.8103 13.0013 14.9625 13.0013 13.2669ZM14.5899 15.0721C14.7825 15.0721 14.9429 14.9732 15.0713 14.7753C15.205 14.572 15.2959 14.3474 15.3441 14.1013C15.3922 13.8499 15.4163 13.5263 15.4163 13.1305C15.4163 12.7293 15.3628 12.3041 15.2558 11.8548C15.2023 11.6088 15.1194 11.4135 15.0071 11.2691C14.9001 11.1193 14.7691 11.0445 14.614 11.0445C14.4054 11.0445 14.2262 11.1702 14.0764 11.4215C13.809 11.8762 13.6753 12.4806 13.6753 13.2348C13.6753 13.7269 13.7662 14.1575 13.948 14.5265C14.1353 14.8903 14.3492 15.0721 14.5899 15.0721ZM20.6735 10.9963C20.6735 11.0872 20.5264 11.344 20.2322 11.7665C20.0557 11.9859 19.6171 12.6518 18.9164 13.7643C18.4671 14.465 18.1221 15.016 17.8814 15.4171C17.7423 15.6364 17.6032 15.7461 17.4642 15.7461C17.3305 15.7461 17.2315 15.6979 17.1673 15.6017C17.1406 15.5589 17.1272 15.5107 17.1272 15.4572C17.1272 15.4038 17.1486 15.3315 17.1914 15.2406C17.2395 15.1497 17.4027 14.9384 17.6808 14.6068C17.9589 14.2698 18.2772 13.8018 18.6356 13.2027C18.9993 12.5983 19.2694 12.157 19.4459 11.8789C19.6224 11.6007 19.7428 11.3948 19.807 11.2611C19.9086 11.0257 20.0396 10.8385 20.2001 10.6995C20.3017 10.6299 20.3927 10.5952 20.4729 10.5952C20.5531 10.5952 20.6066 10.6139 20.6334 10.6513C20.6601 10.6888 20.6735 10.7529 20.6735 10.8439V10.9963ZM16.8865 11.2129C17.1379 10.8118 17.5203 10.6112 18.0338 10.6112C18.312 10.6112 18.5446 10.6914 18.7318 10.8519C18.9191 11.0124 19.0127 11.2557 19.0127 11.582C19.0127 11.9029 18.8709 12.2212 18.5874 12.5368C18.3093 12.8524 17.9991 13.0102 17.6567 13.0102C17.4053 13.0102 17.1807 12.9112 16.9828 12.7133C16.7902 12.5154 16.6939 12.2667 16.6939 11.9671C16.6939 11.6676 16.7581 11.4162 16.8865 11.2129ZM18.4109 11.6703C18.4109 11.2798 18.2906 11.0846 18.0499 11.0846C17.8092 11.0846 17.6193 11.1648 17.4802 11.3253C17.3465 11.4804 17.2796 11.6649 17.2796 11.8789C17.2796 12.0928 17.3064 12.2319 17.3599 12.2961C17.4187 12.3603 17.531 12.3924 17.6968 12.3924C17.868 12.3924 18.0285 12.3228 18.1782 12.1838C18.3334 12.0447 18.4109 11.8735 18.4109 11.6703ZM18.9485 14.7512C18.9485 14.4196 19.0822 14.1254 19.3496 13.8686C19.6171 13.6119 19.9032 13.4835 20.2081 13.4835C20.513 13.4835 20.7564 13.5932 20.9382 13.8125C21.1255 14.0264 21.2191 14.2965 21.2191 14.6228C21.2191 14.9438 21.0987 15.2112 20.858 15.4252C20.6173 15.6391 20.3311 15.7461 19.9995 15.7461C19.6732 15.7461 19.4165 15.6632 19.2293 15.4974C19.0421 15.3262 18.9485 15.0775 18.9485 14.7512ZM19.5422 14.671C19.5422 15.0186 19.708 15.1925 20.0396 15.1925C20.1841 15.1925 20.3285 15.1256 20.4729 14.9919C20.6173 14.8582 20.6895 14.7245 20.6895 14.5907C20.6895 14.3554 20.628 14.1896 20.505 14.0933C20.4461 14.0505 20.3766 14.0291 20.2964 14.0291C20.1038 14.0291 19.93 14.0906 19.7749 14.2136C19.6198 14.3313 19.5422 14.4838 19.5422 14.671Z" fill="black"/>
</svg>
