<svg width="226" height="210" viewBox="0 0 226 210" fill="none" xmlns="http://www.w3.org/2000/svg">
<path d="M21.2617 158.021H165.762C169.762 155.221 178.428 113.521 182.262 93.0214L4.26172 94.5214C4.42839 95.688 5.16172 100.321 6.76172 109.521C8.36172 118.721 17.0951 145.688 21.2617 158.021Z" fill="#8C5129" stroke="black"/>
<path d="M91.7611 5.02062C59.3611 4.62062 30.2611 9.18729 19.7611 11.5206C17.0945 15.3542 10.9612 25.1214 7.76123 33.5214C3.76123 44.0214 3.26112 56.5214 2.26112 66.5214C1.46112 74.5214 3.59445 87.8547 4.76112 93.5214H181.761C182.928 85.188 184.961 64.7214 183.761 49.5214C182.561 34.3214 172.261 17.8542 167.261 11.5206C155.594 9.52062 124.161 5.42062 91.7611 5.02062Z" fill="#8C5129" stroke="black" stroke-width="3"/>
<path d="M15.0859 27.496C20.0859 27.496 31.9859 27.496 39.5859 27.496C49.0859 27.496 60.0859 25.996 67.5859 25.996C75.0859 25.996 91.0859 27.496 97.5859 27.496C104.086 27.496 129.586 27.496 133.086 27.496C135.886 27.496 156.753 27.496 168.086 27.496" stroke="black" stroke-width="2"/>
<path d="M17.0859 112.496C22.0859 112.496 33.9859 112.496 41.5859 112.496C51.0859 112.496 62.0859 110.996 69.5859 110.996C77.0859 110.996 93.0859 112.496 99.5859 112.496C106.086 112.496 131.586 112.496 135.086 112.496C137.886 112.496 158.753 112.496 170.086 112.496" stroke="black" stroke-width="2"/>
<path d="M18.0859 50.496C23.0859 50.496 32.9859 50.496 40.5859 50.496C50.0859 50.496 62.0859 50.496 69.5859 50.496C77.0859 50.496 94.0859 48.996 100.586 48.996C107.086 48.996 132.086 50.496 135.586 50.496C138.386 50.496 156.586 53.496 171.086 50.496" stroke="black" stroke-width="2"/>
<path d="M20.0859 131.996C25.0859 131.996 34.9859 131.996 42.5859 131.996C52.0859 131.996 64.0859 131.996 71.5859 131.996C79.0859 131.996 96.0859 130.496 102.586 130.496C109.086 130.496 134.086 131.996 137.586 131.996C140.386 131.996 158.586 134.996 173.086 131.996" stroke="black" stroke-width="2"/>
<path d="M22.7629 44.5214C25.0633 35.0648 32.0963 17.1881 35.7629 9.52143C37.0877 1.99988 18.763 -1.50012 18.763 11.5214C18.763 13.6428 4.45525 31.9785 2.58753 52.4999C1.08581 68.9999 2.76294 84.5214 4.26294 93.0214H181.763C182.763 83.6881 187.857 72.0214 184.263 49.0214C181.763 33.0214 171.088 15.5446 168.588 11.5214C166.088 7.49826 168.588 2.00054 159.088 1.99988C149.661 1.99922 150.763 9.52143 150.763 9.52143C153.93 18.0214 161.476 37.3919 163.763 47.5214C167.263 63.0214 168.763 78.5214 164.763 79.5214C150.596 79.5214 121.763 80.0214 113.763 80.0214C105.763 80.0214 49.0964 79.5214 21.2631 79.0214C19.263 80.5214 18.2628 63.0214 22.7629 44.5214Z" fill="#FEBB59" stroke="black" stroke-width="3"/>
<path d="M84.1944 113.996H92.1586H102.398C105.525 113.996 115.141 94.9899 116.051 82.3192C116.961 69.6485 99.7344 57.996 94.1479 57.996C91.4931 58.3731 81.9189 60.2586 72.8169 71.5717C63.7149 82.8849 79.9257 113.996 84.1944 113.996Z" fill="#ED9C24" stroke="black" stroke-width="3"/>
<path d="M89.2725 112.996H91.6351H96.5444C99.0864 112.996 110.848 95.0355 111.588 83.4961C112.328 71.9567 97.7941 62.9961 93.2524 62.9961C91.0941 63.3395 81.0876 66.9961 76.0878 75.9961C70.1153 86.7469 85.8022 112.996 89.2725 112.996Z" stroke="black"/>
<path d="M97.0442 88.2554C99.9814 91.7609 101.352 95.7532 102.037 100.038C102.233 101.011 101.842 101.498 100.765 101.693C96.163 102.277 91.4634 101.888 86.8618 101.596C85.6869 101.498 85.1974 100.914 85.0995 99.6481C84.9036 95.3637 86.8618 91.9556 89.2116 88.6449C89.4074 88.3528 89.7011 88.0607 89.8969 87.7685C84.8057 84.7499 84.3162 76.9601 87.4492 72.8704C89.7011 69.9491 93.2258 69.1702 96.5546 70.9229C103.604 74.7205 102.723 83.5815 98.3169 87.2817C97.8274 87.5738 97.5337 87.8659 97.0442 88.2554Z" fill="black"/>
<path d="M37.2617 137.521C36.4617 133.121 32.0951 105.188 30.7617 93.0214H4.26172C5.92839 101.188 9.96172 121.521 12.7617 131.521C15.5617 141.521 19.7617 157.521 21.7617 157.521H91.7617H165.762C168.262 157.521 171.162 145.922 172.762 139.521L172.762 139.521C174.362 133.121 179.262 105.855 181.762 93.0214H155.086C154.919 97.188 154.062 108.221 153.262 117.021C152.462 125.821 150.262 144.521 148.262 144.521H98.2617H38.7617C38.5951 144.021 38.0617 141.921 37.2617 137.521Z" fill="#FEBA5D" stroke="black" stroke-width="3"/>
<ellipse cx="19.817" cy="26.5144" rx="3.13372" ry="4.7323" transform="rotate(25.9035 19.817 26.5144)" fill="#FFD15C"/>
<ellipse cx="13.9732" cy="44.6257" rx="3.13372" ry="4.7323" transform="rotate(25.9035 13.9732 44.6257)" fill="#FFD15C"/>
<ellipse cx="10.9732" cy="62.6257" rx="3.13372" ry="4.7323" transform="rotate(25.9035 10.9732 62.6257)" fill="#FFD15C"/>
<ellipse cx="168.081" cy="26.6515" rx="3.13372" ry="4.7323" transform="rotate(-28.1216 168.081 26.6515)" fill="#FFD15C"/>
<ellipse cx="174.081" cy="44.6515" rx="3.13372" ry="4.7323" transform="rotate(-28.1216 174.081 44.6515)" fill="#FFD15C"/>
<ellipse cx="177.081" cy="62.6515" rx="3.13372" ry="4.7323" transform="rotate(-28.1216 177.081 62.6515)" fill="#FFD15C"/>
<path d="M24.1859 25.4827C24.1859 27.8827 23.2859 29.9827 21.4859 31.4827C20.2859 32.4827 18.8859 32.8827 17.2859 32.1827C15.7859 31.4827 15.0859 30.1827 15.0859 28.5827C15.0859 25.7827 16.0859 23.5827 18.3859 21.8827C19.6859 20.9827 20.8859 20.6827 22.2859 21.3827C23.6859 22.0827 24.1859 23.3827 24.1859 24.7827C24.1859 24.9827 24.1859 25.2827 24.1859 25.4827ZM16.7859 27.5827C16.7859 30.1827 18.1859 31.2827 19.9859 30.3827C21.7859 29.4827 23.2859 26.3827 22.6859 24.3827C22.2859 22.6827 20.8859 22.1827 19.3859 22.9827C17.2859 23.9827 16.9859 25.8827 16.7859 27.5827Z" fill="black"/>
<path d="M163.088 25.4828C163.088 27.8828 163.988 29.9828 165.788 31.4828C166.988 32.4828 168.388 32.8828 169.988 32.1828C171.488 31.4828 172.188 30.1828 172.188 28.5828C172.188 25.7828 171.188 23.5828 168.888 21.8828C167.588 20.9828 166.388 20.6828 164.988 21.3828C163.588 22.0828 163.088 23.3828 163.088 24.7828C163.088 24.9828 163.088 25.2828 163.088 25.4828ZM170.488 27.5828C170.488 30.1828 169.088 31.2828 167.288 30.3828C165.488 29.4828 163.988 26.3828 164.588 24.3828C164.988 22.6828 166.388 22.1828 167.888 22.9828C169.988 23.9828 170.288 25.8828 170.488 27.5828Z" fill="black"/>
<path d="M18.1859 43.4827C18.1859 45.8827 17.2859 47.9827 15.4859 49.4827C14.2859 50.4827 12.8859 50.8827 11.2859 50.1827C9.78594 49.4827 9.08594 48.1827 9.08594 46.5827C9.08594 43.7827 10.0859 41.5827 12.3859 39.8827C13.6859 38.9827 14.8859 38.6827 16.2859 39.3827C17.6859 40.0827 18.1859 41.3827 18.1859 42.7827C18.1859 42.9827 18.1859 43.2827 18.1859 43.4827ZM10.7859 45.5827C10.7859 48.1827 12.1859 49.2827 13.9859 48.3827C15.7859 47.4827 17.2859 44.3827 16.6859 42.3827C16.2859 40.6827 14.8859 40.1827 13.3859 40.9827C11.2859 41.9827 10.9859 43.8827 10.7859 45.5827Z" fill="black"/>
<path d="M169.088 43.4828C169.088 45.8828 169.988 47.9828 171.788 49.4828C172.988 50.4828 174.388 50.8828 175.988 50.1828C177.488 49.4828 178.188 48.1828 178.188 46.5828C178.188 43.7828 177.188 41.5828 174.888 39.8828C173.588 38.9828 172.388 38.6828 170.988 39.3828C169.588 40.0828 169.088 41.3828 169.088 42.7828C169.088 42.9828 169.088 43.2828 169.088 43.4828ZM176.488 45.5828C176.488 48.1828 175.088 49.2828 173.288 48.3828C171.488 47.4828 169.988 44.3828 170.588 42.3828C170.988 40.6828 172.388 40.1828 173.888 40.9828C175.988 41.9828 176.288 43.8828 176.488 45.5828Z" fill="black"/>
<path d="M15.1859 61.4827C15.1859 63.8827 14.2859 65.9827 12.4859 67.4827C11.2859 68.4827 9.88594 68.8827 8.28594 68.1827C6.78594 67.4827 6.08594 66.1827 6.08594 64.5827C6.08594 61.7827 7.08594 59.5827 9.38594 57.8827C10.6859 56.9827 11.8859 56.6827 13.2859 57.3827C14.6859 58.0827 15.1859 59.3827 15.1859 60.7827C15.1859 60.9827 15.1859 61.2827 15.1859 61.4827ZM7.78594 63.5827C7.78594 66.1827 9.18594 67.2827 10.9859 66.3827C12.7859 65.4827 14.2859 62.3827 13.6859 60.3827C13.2859 58.6827 11.8859 58.1827 10.3859 58.9827C8.28594 59.9827 7.98594 61.8827 7.78594 63.5827Z" fill="black"/>
<path d="M172.088 61.4828C172.088 63.8828 172.988 65.9828 174.788 67.4828C175.988 68.4828 177.388 68.8828 178.988 68.1828C180.488 67.4828 181.188 66.1828 181.188 64.5828C181.188 61.7828 180.188 59.5828 177.888 57.8828C176.588 56.9828 175.388 56.6828 173.988 57.3828C172.588 58.0828 172.088 59.3828 172.088 60.7828C172.088 60.9828 172.088 61.2828 172.088 61.4828ZM179.488 63.5828C179.488 66.1828 178.088 67.2828 176.288 66.3828C174.488 65.4828 172.988 62.3828 173.588 60.3828C173.988 58.6828 175.388 58.1828 176.888 58.9828C178.988 59.9828 179.288 61.8828 179.488 63.5828Z" fill="black"/>
<path fill-rule="evenodd" clip-rule="evenodd" d="M225.618 162.394C211.379 168.557 209.679 174.083 219.242 185.559C203.515 184.071 199.052 188.109 201.815 202.561C188.426 193.848 182.263 195.548 176.524 210C168.873 195.548 162.71 193.848 149.746 204.687C152.084 188.109 147.621 184.071 129.981 187.684C141.457 174.295 139.757 168.557 122.117 162.606C139.757 156.443 141.457 150.917 129.981 137.528C147.833 141.141 152.296 136.89 149.746 120.526C162.71 131.365 168.873 129.664 176.312 115C182.05 129.664 188.213 131.152 201.603 122.438C198.84 136.89 203.303 140.928 219.03 139.441C209.679 150.705 211.379 156.443 225.618 162.394Z" fill="black"/>
<path fill-rule="evenodd" clip-rule="evenodd" d="M217.538 162.395C205.637 167.92 204.149 173.234 212.012 183.435C198.836 182.16 195.01 185.773 197.348 198.949C186.084 190.873 180.771 192.574 175.883 205.75C169.507 192.361 164.406 190.873 153.355 200.862C155.48 185.773 151.654 181.947 136.565 185.348C146.341 173.234 144.854 167.92 129.977 162.395C144.854 156.869 146.341 151.556 136.565 139.442C151.654 142.63 155.267 139.017 153.355 123.927C164.406 133.703 169.507 132.216 175.883 119.039C180.771 132.428 185.871 133.916 197.348 125.84C195.01 139.017 198.623 142.842 212.012 141.354C203.936 151.556 205.424 156.869 217.538 162.395Z" fill="#FFB80C"/>
<path d="M160.677 167.37C159.957 167.49 158.937 167.55 157.617 167.55C156.297 167.55 155.397 167.33 154.917 166.89C154.437 166.45 154.197 165.5 154.197 164.04C154.197 162.56 154.307 160.94 154.527 159.18C154.747 157.42 154.987 156.13 155.247 155.31C155.527 154.47 156.067 154.05 156.867 154.05C157.407 154.05 157.717 154.28 157.797 154.74C157.797 154.86 157.797 155.05 157.797 155.31C157.797 155.57 157.737 155.94 157.617 156.42C157.137 159.94 156.897 162.45 156.897 163.95C156.897 164.31 156.907 164.61 156.927 164.85C157.287 164.93 157.767 164.97 158.367 164.97C158.987 164.97 159.767 164.91 160.707 164.79C160.747 164.37 160.767 163.81 160.767 163.11C160.767 162.39 160.777 161.79 160.797 161.31C160.817 160.83 160.887 160.49 161.007 160.29C161.127 160.09 161.467 159.99 162.027 159.99C162.607 159.99 162.967 160.09 163.107 160.29C163.267 160.49 163.347 160.77 163.347 161.13C163.347 161.47 163.317 162.2 163.257 163.32C163.197 164.42 163.167 167.54 163.167 172.68C163.167 173.58 162.727 174.03 161.847 174.03C161.807 174.03 161.767 174.03 161.727 174.03C160.987 174.03 160.617 173.42 160.617 172.2V170.55L160.677 167.37ZM165.297 164.52C165.297 161.84 165.777 159.48 166.737 157.44C167.217 156.4 167.867 155.58 168.687 154.98C169.507 154.38 170.447 154.08 171.507 154.08C173.067 154.08 174.337 155.1 175.317 157.14C176.317 159.16 176.817 161.57 176.817 164.37C176.817 167.15 176.357 169.46 175.437 171.3C174.517 173.12 173.217 174.03 171.537 174.03C167.377 174.03 165.297 170.86 165.297 164.52ZM171.237 171.27C171.957 171.27 172.557 170.9 173.037 170.16C173.537 169.4 173.877 168.56 174.057 167.64C174.237 166.7 174.327 165.49 174.327 164.01C174.327 162.51 174.127 160.92 173.727 159.24C173.527 158.32 173.217 157.59 172.797 157.05C172.397 156.49 171.907 156.21 171.327 156.21C170.547 156.21 169.877 156.68 169.317 157.62C168.317 159.32 167.817 161.58 167.817 164.4C167.817 166.24 168.157 167.85 168.837 169.23C169.537 170.59 170.337 171.27 171.237 171.27ZM193.984 156.03C193.984 156.37 193.434 157.33 192.334 158.91C191.674 159.73 190.034 162.22 187.414 166.38C185.734 169 184.444 171.06 183.544 172.56C183.024 173.38 182.504 173.79 181.984 173.79C181.484 173.79 181.114 173.61 180.874 173.25C180.774 173.09 180.724 172.91 180.724 172.71C180.724 172.51 180.804 172.24 180.964 171.9C181.144 171.56 181.754 170.77 182.794 169.53C183.834 168.27 185.024 166.52 186.364 164.28C187.724 162.02 188.734 160.37 189.394 159.33C190.054 158.29 190.504 157.52 190.744 157.02C191.124 156.14 191.614 155.44 192.214 154.92C192.594 154.66 192.934 154.53 193.234 154.53C193.534 154.53 193.734 154.6 193.834 154.74C193.934 154.88 193.984 155.12 193.984 155.46V156.03ZM179.824 156.84C180.764 155.34 182.194 154.59 184.114 154.59C185.154 154.59 186.024 154.89 186.724 155.49C187.424 156.09 187.774 157 187.774 158.22C187.774 159.42 187.244 160.61 186.184 161.79C185.144 162.97 183.984 163.56 182.704 163.56C181.764 163.56 180.924 163.19 180.184 162.45C179.464 161.71 179.104 160.78 179.104 159.66C179.104 158.54 179.344 157.6 179.824 156.84ZM185.524 158.55C185.524 157.09 185.074 156.36 184.174 156.36C183.274 156.36 182.564 156.66 182.044 157.26C181.544 157.84 181.294 158.53 181.294 159.33C181.294 160.13 181.394 160.65 181.594 160.89C181.814 161.13 182.234 161.25 182.854 161.25C183.494 161.25 184.094 160.99 184.654 160.47C185.234 159.95 185.524 159.31 185.524 158.55ZM187.534 170.07C187.534 168.83 188.034 167.73 189.034 166.77C190.034 165.81 191.104 165.33 192.244 165.33C193.384 165.33 194.294 165.74 194.974 166.56C195.674 167.36 196.024 168.37 196.024 169.59C196.024 170.79 195.574 171.79 194.674 172.59C193.774 173.39 192.704 173.79 191.464 173.79C190.244 173.79 189.284 173.48 188.584 172.86C187.884 172.22 187.534 171.29 187.534 170.07ZM189.754 169.77C189.754 171.07 190.374 171.72 191.614 171.72C192.154 171.72 192.694 171.47 193.234 170.97C193.774 170.47 194.044 169.97 194.044 169.47C194.044 168.59 193.814 167.97 193.354 167.61C193.134 167.45 192.874 167.37 192.574 167.37C191.854 167.37 191.204 167.6 190.624 168.06C190.044 168.5 189.754 169.07 189.754 169.77Z" fill="black"/>
</svg>
