<svg width="28" height="26" viewBox="0 0 28 26" fill="none" xmlns="http://www.w3.org/2000/svg">
<path fill-rule="evenodd" clip-rule="evenodd" d="M27.8031 13.2344C23.9949 14.8827 23.5402 16.3605 26.0979 19.4298C21.8918 19.032 20.6982 20.1119 21.4371 23.9769C17.8563 21.6465 16.208 22.1013 14.6733 25.9663C12.6271 22.1013 10.9788 21.6465 7.51161 24.5453C8.13684 20.1119 6.94322 19.032 2.2256 19.9982C5.29489 16.4174 4.84018 14.8827 0.122559 13.2912C4.84018 11.6429 5.29489 10.1651 2.2256 6.58424C7.00006 7.55051 8.19368 6.41373 7.51161 2.03714C10.9788 4.93592 12.6271 4.48121 14.6165 0.559326C16.1511 4.48121 17.7994 4.87908 21.3803 2.54869C20.6414 6.41373 21.835 7.49367 26.0411 7.09579C23.5402 10.1083 23.9949 11.6429 27.8031 13.2344Z" fill="black"/>
<path fill-rule="evenodd" clip-rule="evenodd" d="M25.6417 13.2345C22.4588 14.7123 22.0609 16.1333 24.1639 18.8616C20.6399 18.5205 19.6168 19.4868 20.242 23.0108C17.2296 20.8509 15.8086 21.3057 14.5013 24.8297C12.7961 21.2488 11.432 20.8509 8.4764 23.5224C9.04478 19.4868 8.02169 18.4637 3.98613 19.3731C6.60071 16.1333 6.20284 14.7123 2.22412 13.2345C6.20284 11.7567 6.60071 10.3358 3.98613 7.09594C8.02169 7.94852 8.98795 6.98226 8.4764 2.9467C11.432 5.56129 12.7961 5.16341 14.5013 1.6394C15.8086 5.22025 17.1727 5.61812 20.242 3.45825C19.6168 6.98226 20.5831 8.00536 24.1639 7.60748C22.004 10.3358 22.4019 11.7567 25.6417 13.2345Z" fill="#FFB80C"/>
<path d="M10.4364 14.2735C10.2439 14.3056 9.97106 14.3216 9.61804 14.3216C9.26502 14.3216 9.02432 14.2628 8.89595 14.1451C8.76757 14.0274 8.70339 13.7734 8.70339 13.3829C8.70339 12.9871 8.73281 12.5538 8.79164 12.0831C8.85048 11.6124 8.91467 11.2674 8.9842 11.0481C9.05909 10.8235 9.2035 10.7112 9.41746 10.7112C9.56188 10.7112 9.64478 10.7727 9.66618 10.8957C9.66618 10.9278 9.66618 10.9786 9.66618 11.0481C9.66618 11.1177 9.65013 11.2166 9.61804 11.345C9.48967 12.2864 9.42548 12.9577 9.42548 13.3588C9.42548 13.4551 9.42816 13.5354 9.4335 13.5995C9.52978 13.6209 9.65816 13.6316 9.81862 13.6316C9.98443 13.6316 10.193 13.6156 10.4444 13.5835C10.4551 13.4712 10.4605 13.3214 10.4605 13.1342C10.4605 12.9416 10.4632 12.7812 10.4685 12.6528C10.4739 12.5244 10.4926 12.4335 10.5247 12.38C10.5568 12.3265 10.6477 12.2998 10.7975 12.2998C10.9526 12.2998 11.0489 12.3265 11.0863 12.38C11.1291 12.4335 11.1505 12.5084 11.1505 12.6047C11.1505 12.6956 11.1425 12.8908 11.1264 13.1904C11.1104 13.4845 11.1023 14.319 11.1023 15.6936C11.1023 15.9343 10.9847 16.0547 10.7493 16.0547C10.7386 16.0547 10.7279 16.0547 10.7172 16.0547C10.5193 16.0547 10.4204 15.8915 10.4204 15.5652V15.124L10.4364 14.2735ZM11.672 13.5113C11.672 12.7945 11.8004 12.1634 12.0571 11.6178C12.1855 11.3397 12.3593 11.1204 12.5786 10.9599C12.7979 10.7994 13.0493 10.7192 13.3328 10.7192C13.75 10.7192 14.0897 10.992 14.3518 11.5376C14.6192 12.0778 14.7529 12.7223 14.7529 13.4712C14.7529 14.2147 14.6299 14.8324 14.3839 15.3245C14.1378 15.8113 13.7901 16.0547 13.3408 16.0547C12.2283 16.0547 11.672 15.2069 11.672 13.5113ZM13.2606 15.3165C13.4532 15.3165 13.6136 15.2176 13.742 15.0197C13.8757 14.8164 13.9666 14.5917 14.0148 14.3457C14.0629 14.0943 14.087 13.7707 14.087 13.3749C14.087 12.9737 14.0335 12.5485 13.9265 12.0992C13.873 11.8531 13.7901 11.6579 13.6778 11.5135C13.5708 11.3637 13.4398 11.2888 13.2847 11.2888C13.0761 11.2888 12.8969 11.4145 12.7471 11.6659C12.4797 12.1206 12.3459 12.725 12.3459 13.4792C12.3459 13.9713 12.4369 14.4019 12.6187 14.7709C12.8059 15.1347 13.0199 15.3165 13.2606 15.3165ZM19.3442 11.2407C19.3442 11.3316 19.1971 11.5884 18.9029 12.0109C18.7264 12.2302 18.2878 12.8962 17.5871 14.0087C17.1378 14.7094 16.7928 15.2604 16.5521 15.6615C16.413 15.8808 16.2739 15.9905 16.1349 15.9905C16.0011 15.9905 15.9022 15.9423 15.838 15.846C15.8113 15.8033 15.7979 15.7551 15.7979 15.7016C15.7979 15.6481 15.8193 15.5759 15.8621 15.485C15.9102 15.3941 16.0734 15.1828 16.3515 14.8512C16.6296 14.5142 16.9479 14.0462 17.3063 13.4471C17.67 12.8427 17.9401 12.4014 18.1166 12.1233C18.2931 11.8451 18.4135 11.6392 18.4777 11.5055C18.5793 11.2701 18.7103 11.0829 18.8708 10.9438C18.9724 10.8743 19.0634 10.8395 19.1436 10.8395C19.2238 10.8395 19.2773 10.8583 19.3041 10.8957C19.3308 10.9331 19.3442 10.9973 19.3442 11.0883V11.2407ZM15.5572 11.4573C15.8086 11.0562 16.191 10.8556 16.7045 10.8556C16.9827 10.8556 17.2153 10.9358 17.4025 11.0963C17.5897 11.2567 17.6834 11.5001 17.6834 11.8264C17.6834 12.1473 17.5416 12.4656 17.2581 12.7812C16.98 13.0967 16.6697 13.2545 16.3274 13.2545C16.076 13.2545 15.8514 13.1556 15.6535 12.9577C15.4609 12.7598 15.3646 12.511 15.3646 12.2115C15.3646 11.912 15.4288 11.6606 15.5572 11.4573ZM17.0816 11.9147C17.0816 11.5242 16.9613 11.329 16.7206 11.329C16.4799 11.329 16.29 11.4092 16.1509 11.5697C16.0172 11.7248 15.9503 11.9093 15.9503 12.1233C15.9503 12.3372 15.9771 12.4763 16.0306 12.5405C16.0894 12.6047 16.2017 12.6367 16.3675 12.6367C16.5387 12.6367 16.6992 12.5672 16.8489 12.4281C17.0041 12.2891 17.0816 12.1179 17.0816 11.9147ZM17.6192 14.9956C17.6192 14.664 17.7529 14.3698 18.0203 14.113C18.2878 13.8563 18.5739 13.7279 18.8788 13.7279C19.1837 13.7279 19.4271 13.8376 19.6089 14.0569C19.7961 14.2708 19.8897 14.5409 19.8897 14.8672C19.8897 15.1881 19.7694 15.4556 19.5287 15.6695C19.288 15.8835 19.0018 15.9905 18.6702 15.9905C18.3439 15.9905 18.0872 15.9076 17.9 15.7417C17.7128 15.5706 17.6192 15.3219 17.6192 14.9956ZM18.2129 14.9154C18.2129 15.263 18.3787 15.4369 18.7103 15.4369C18.8547 15.4369 18.9992 15.37 19.1436 15.2363C19.288 15.1026 19.3602 14.9688 19.3602 14.8351C19.3602 14.5998 19.2987 14.434 19.1757 14.3377C19.1168 14.2949 19.0473 14.2735 18.9671 14.2735C18.7745 14.2735 18.6007 14.335 18.4456 14.458C18.2904 14.5757 18.2129 14.7281 18.2129 14.9154Z" fill="black"/>
</svg>
