<svg width="29" height="27" viewBox="0 0 29 27" fill="none" xmlns="http://www.w3.org/2000/svg">
<path fill-rule="evenodd" clip-rule="evenodd" d="M28.0174 13.6099C24.2092 15.2582 23.7545 16.736 26.3123 19.8053C22.1062 19.4074 20.9126 20.4874 21.6515 24.3524C18.0706 22.022 16.4223 22.4767 14.8877 26.3418C12.8415 22.4767 11.1931 22.022 7.72597 24.9208C8.35119 20.4874 7.15758 19.4074 2.43995 20.3737C5.50925 16.7929 5.05454 15.2582 0.336914 13.6667C5.05454 12.0184 5.50925 10.5406 2.43995 6.95973C7.21442 7.92599 8.40803 6.78922 7.72597 2.41262C11.1931 5.31141 12.8415 4.8567 14.8308 0.934814C16.3655 4.8567 18.0138 5.25457 21.5946 2.92417C20.8557 6.78922 22.0494 7.86915 26.2554 7.47128C23.7545 10.4837 24.2092 12.0184 28.0174 13.6099Z" fill="black"/>
<path fill-rule="evenodd" clip-rule="evenodd" d="M25.8571 13.611C22.6741 15.0888 22.2762 16.5098 24.3793 19.238C20.8552 18.897 19.8321 19.8633 20.4574 23.3873C17.4449 21.2274 16.0239 21.6821 14.7166 25.2061C13.0115 21.6253 11.6473 21.2274 8.69173 23.8988C9.26012 19.8633 8.23702 18.8402 4.20146 19.7496C6.81605 16.5098 6.41817 15.0888 2.43945 13.611C6.41817 12.1332 6.81605 10.7122 4.20146 7.4724C8.23702 8.32498 9.20328 7.35872 8.69173 3.32316C11.6473 5.93775 13.0115 5.53988 14.7166 2.01587C16.0239 5.59672 17.3881 5.99459 20.4574 3.83471C19.8321 7.35872 20.7984 8.38182 24.3793 7.98395C22.2194 10.7122 22.6173 12.1332 25.8571 13.611Z" fill="#FFB80C"/>
<path d="M11.0185 11.3741C10.9382 11.4811 10.7537 11.8208 10.4649 12.3931C10.1814 12.9654 10.0263 13.3078 9.99951 13.4201C10.2242 13.3612 10.4515 13.3318 10.6815 13.3318C10.9168 13.3318 11.1361 13.396 11.3394 13.5244C11.671 13.7437 11.8368 14.0967 11.8368 14.5834C11.8368 15.6479 11.318 16.1828 10.2803 16.1881C10.275 16.1881 10.267 16.1881 10.2563 16.1881C9.87649 16.1881 9.6037 16.0571 9.43788 15.795C9.27207 15.5275 9.18114 15.1745 9.16509 14.7359C9.16509 13.7196 9.54753 12.599 10.3124 11.3741C10.4408 11.1602 10.5531 11.0211 10.6494 10.9569C10.7457 10.8928 10.8206 10.8607 10.874 10.8607C10.9329 10.8607 10.9917 10.8821 11.0506 10.9248C11.1094 10.9676 11.1388 11.0265 11.1388 11.1014C11.1388 11.1762 11.0987 11.2672 11.0185 11.3741ZM11.2351 14.6396C11.2351 14.4203 11.1736 14.2518 11.0506 14.1341C10.9329 14.0165 10.7724 13.9576 10.5692 13.9576C10.3659 13.9576 10.2161 13.9737 10.1199 14.0058C10.045 14.0379 9.98614 14.0807 9.94335 14.1341C9.90056 14.1823 9.86044 14.2598 9.823 14.3668C9.79091 14.4738 9.77486 14.6209 9.77486 14.8081C9.77486 14.99 9.82567 15.1504 9.9273 15.2895C10.0343 15.4232 10.1626 15.4901 10.3124 15.4901C10.612 15.4901 10.8393 15.4018 10.9944 15.2253C11.1549 15.0488 11.2351 14.8536 11.2351 14.6396ZM12.3376 13.6207C12.3376 12.9039 12.466 12.2728 12.7227 11.7272C12.8511 11.449 13.0249 11.2297 13.2442 11.0693C13.4635 10.9088 13.7149 10.8286 13.9984 10.8286C14.4156 10.8286 14.7553 11.1014 15.0174 11.6469C15.2848 12.1872 15.4185 12.8317 15.4185 13.5805C15.4185 14.324 15.2955 14.9418 15.0495 15.4339C14.8034 15.9207 14.4557 16.164 14.0064 16.164C12.8939 16.164 12.3376 15.3162 12.3376 13.6207ZM13.9262 15.4259C14.1188 15.4259 14.2792 15.3269 14.4076 15.129C14.5413 14.9258 14.6323 14.7011 14.6804 14.4551C14.7285 14.2037 14.7526 13.8801 14.7526 13.4843C14.7526 13.0831 14.6991 12.6579 14.5921 12.2086C14.5386 11.9625 14.4557 11.7673 14.3434 11.6229C14.2364 11.4731 14.1054 11.3982 13.9503 11.3982C13.7417 11.3982 13.5625 11.5239 13.4127 11.7753C13.1453 12.23 13.0116 12.8344 13.0116 13.5886C13.0116 14.0807 13.1025 14.5112 13.2843 14.8803C13.4716 15.244 13.6855 15.4259 13.9262 15.4259ZM20.0098 11.3501C20.0098 11.441 19.8627 11.6978 19.5685 12.1203C19.392 12.3396 18.9534 13.0055 18.2527 14.1181C17.8034 14.8188 17.4584 15.3697 17.2177 15.7709C17.0786 15.9902 16.9395 16.0998 16.8005 16.0998C16.6668 16.0998 16.5678 16.0517 16.5036 15.9554C16.4769 15.9126 16.4635 15.8645 16.4635 15.811C16.4635 15.7575 16.4849 15.6853 16.5277 15.5944C16.5758 15.5034 16.739 15.2922 17.0171 14.9605C17.2952 14.6236 17.6135 14.1555 17.9719 13.5565C18.3356 12.9521 18.6057 12.5108 18.7822 12.2326C18.9587 11.9545 19.0791 11.7486 19.1433 11.6148C19.2449 11.3795 19.3759 11.1923 19.5364 11.0532C19.638 10.9837 19.729 10.9489 19.8092 10.9489C19.8894 10.9489 19.9429 10.9676 19.9697 11.0051C19.9964 11.0425 20.0098 11.1067 20.0098 11.1976V11.3501ZM16.2228 11.5667C16.4742 11.1655 16.8566 10.965 17.3701 10.965C17.6483 10.965 17.8809 11.0452 18.0681 11.2057C18.2554 11.3661 18.349 11.6095 18.349 11.9358C18.349 12.2567 18.2072 12.575 17.9237 12.8905C17.6456 13.2061 17.3354 13.3639 16.993 13.3639C16.7416 13.3639 16.517 13.265 16.3191 13.0671C16.1265 12.8691 16.0302 12.6204 16.0302 12.3209C16.0302 12.0214 16.0944 11.77 16.2228 11.5667ZM17.7472 12.024C17.7472 11.6336 17.6269 11.4383 17.3862 11.4383C17.1455 11.4383 16.9556 11.5186 16.8165 11.679C16.6828 11.8341 16.6159 12.0187 16.6159 12.2326C16.6159 12.4466 16.6427 12.5857 16.6962 12.6498C16.755 12.714 16.8673 12.7461 17.0331 12.7461C17.2043 12.7461 17.3648 12.6766 17.5145 12.5375C17.6697 12.3984 17.7472 12.2273 17.7472 12.024ZM18.2848 15.105C18.2848 14.7733 18.4185 14.4791 18.6859 14.2224C18.9534 13.9657 19.2395 13.8373 19.5444 13.8373C19.8493 13.8373 20.0927 13.9469 20.2745 14.1662C20.4618 14.3802 20.5554 14.6503 20.5554 14.9766C20.5554 15.2975 20.435 15.565 20.1943 15.7789C19.9536 15.9929 19.6674 16.0998 19.3358 16.0998C19.0095 16.0998 18.7528 16.0169 18.5656 15.8511C18.3784 15.68 18.2848 15.4312 18.2848 15.105ZM18.8785 15.0247C18.8785 15.3724 19.0443 15.5462 19.3759 15.5462C19.5204 15.5462 19.6648 15.4794 19.8092 15.3457C19.9536 15.2119 20.0258 15.0782 20.0258 14.9445C20.0258 14.7091 19.9643 14.5433 19.8413 14.4471C19.7824 14.4043 19.7129 14.3829 19.6327 14.3829C19.4401 14.3829 19.2663 14.4444 19.1112 14.5674C18.9561 14.6851 18.8785 14.8375 18.8785 15.0247Z" fill="black"/>
</svg>
