<svg width="231" height="205" viewBox="0 0 231 205" fill="none" xmlns="http://www.w3.org/2000/svg">
<path d="M21.2617 158.021H165.762C169.762 155.221 178.428 113.521 182.262 93.0214L4.26172 94.5214C4.42839 95.688 5.16172 100.321 6.76172 109.521C8.36172 118.721 17.0951 145.688 21.2617 158.021Z" fill="#0B52B4" stroke="black"/>
<path d="M91.7611 5.02062C59.3611 4.62062 30.2611 9.18729 19.7611 11.5206C17.0945 15.3542 10.9612 25.1214 7.76123 33.5214C3.76123 44.0214 3.26112 56.5214 2.26112 66.5214C1.46112 74.5214 3.59445 87.8547 4.76112 93.5214L42.498 90.4999L92.498 128L143.498 90.4999L181.761 93.5214C182.928 85.188 184.961 64.7214 183.761 49.5214C182.561 34.3214 172.261 17.8542 167.261 11.5206C155.594 9.52062 124.161 5.42062 91.7611 5.02062Z" fill="url(#paint0_linear_72_5911)" stroke="black" stroke-width="3"/>
<path d="M22.7629 44.5214C25.0633 35.0648 32.0963 17.1881 35.7629 9.52143C37.0877 1.99988 18.763 -1.50012 18.763 11.5214C18.763 13.6428 4.45525 31.9785 2.58753 52.4999C1.08581 68.9999 2.76294 84.5214 4.26294 93.0214H33.5C63 93.0214 51 128.5 93.5 128.5C136 128.5 122.5 93.0214 153.5 93.0214H181.763C182.763 83.6881 187.857 72.0214 184.263 49.0214C181.763 33.0214 171.088 15.5446 168.588 11.5214C166.088 7.49826 168.588 2.00054 159.088 1.99988C149.661 1.99922 150.763 9.52143 150.763 9.52143C153.93 18.0214 161.476 37.3919 163.763 47.5214C167.263 63.0214 169 79.4999 165 80.4999C151 80.4999 144.5 79.4999 131.5 87.4999C118.5 95.4999 121.5 117.5 93.5 117.5C65.5 117.5 66 90.1068 51 83.9999C40 79.5214 24.2369 81.4783 21.5 80.4999C20.2369 80.0483 18.2628 63.0214 22.7629 44.5214Z" fill="#BDF3F5" stroke="black" stroke-width="3"/>
<path d="M37.2617 137.521C36.4617 133.121 32.0951 105.188 30.7617 93.0214H4.26172C5.92839 101.188 9.96172 121.521 12.7617 131.521C15.5617 141.521 19.7617 157.521 21.7617 157.521H91.7617H165.762C168.262 157.521 171.162 145.922 172.762 139.521L172.762 139.521C174.362 133.121 179.262 105.855 181.762 93.0214H155.086C154.919 97.188 154.062 108.221 153.262 117.021C152.462 125.821 150.262 144.521 148.262 144.521H98.2617H38.7617C38.5951 144.021 38.0617 141.921 37.2617 137.521Z" fill="#BDF3F5" stroke="black" stroke-width="3"/>
<ellipse cx="19.817" cy="26.5144" rx="3.13372" ry="4.7323" transform="rotate(25.9035 19.817 26.5144)" fill="url(#paint1_linear_72_5911)"/>
<ellipse cx="13.9732" cy="44.6257" rx="3.13372" ry="4.7323" transform="rotate(25.9035 13.9732 44.6257)" fill="url(#paint2_linear_72_5911)"/>
<ellipse cx="10.9732" cy="62.6257" rx="3.13372" ry="4.7323" transform="rotate(25.9035 10.9732 62.6257)" fill="url(#paint3_linear_72_5911)"/>
<ellipse cx="168.081" cy="26.6515" rx="3.13372" ry="4.7323" transform="rotate(-28.1216 168.081 26.6515)" fill="url(#paint4_linear_72_5911)"/>
<ellipse cx="174.081" cy="44.6515" rx="3.13372" ry="4.7323" transform="rotate(-28.1216 174.081 44.6515)" fill="url(#paint5_linear_72_5911)"/>
<ellipse cx="177.081" cy="62.6515" rx="3.13372" ry="4.7323" transform="rotate(-28.1216 177.081 62.6515)" fill="url(#paint6_linear_72_5911)"/>
<path d="M24.1859 25.4827C24.1859 27.8827 23.2859 29.9827 21.4859 31.4827C20.2859 32.4827 18.8859 32.8827 17.2859 32.1827C15.7859 31.4827 15.0859 30.1827 15.0859 28.5827C15.0859 25.7827 16.0859 23.5827 18.3859 21.8827C19.6859 20.9827 20.8859 20.6827 22.2859 21.3827C23.6859 22.0827 24.1859 23.3827 24.1859 24.7827C24.1859 24.9827 24.1859 25.2827 24.1859 25.4827ZM16.7859 27.5827C16.7859 30.1827 18.1859 31.2827 19.9859 30.3827C21.7859 29.4827 23.2859 26.3827 22.6859 24.3827C22.2859 22.6827 20.8859 22.1827 19.3859 22.9827C17.2859 23.9827 16.9859 25.8827 16.7859 27.5827Z" fill="black"/>
<path d="M163.088 25.4827C163.088 27.8827 163.988 29.9827 165.788 31.4827C166.988 32.4827 168.388 32.8827 169.988 32.1827C171.488 31.4827 172.188 30.1827 172.188 28.5827C172.188 25.7827 171.188 23.5827 168.888 21.8827C167.588 20.9827 166.388 20.6827 164.988 21.3827C163.588 22.0827 163.088 23.3827 163.088 24.7827C163.088 24.9827 163.088 25.2827 163.088 25.4827ZM170.488 27.5827C170.488 30.1827 169.088 31.2827 167.288 30.3827C165.488 29.4827 163.988 26.3827 164.588 24.3827C164.988 22.6827 166.388 22.1827 167.888 22.9827C169.988 23.9827 170.288 25.8827 170.488 27.5827Z" fill="black"/>
<path d="M18.1859 43.4827C18.1859 45.8827 17.2859 47.9827 15.4859 49.4827C14.2859 50.4827 12.8859 50.8827 11.2859 50.1827C9.78594 49.4827 9.08594 48.1827 9.08594 46.5827C9.08594 43.7827 10.0859 41.5827 12.3859 39.8827C13.6859 38.9827 14.8859 38.6827 16.2859 39.3827C17.6859 40.0827 18.1859 41.3827 18.1859 42.7827C18.1859 42.9827 18.1859 43.2827 18.1859 43.4827ZM10.7859 45.5827C10.7859 48.1827 12.1859 49.2827 13.9859 48.3827C15.7859 47.4827 17.2859 44.3827 16.6859 42.3827C16.2859 40.6827 14.8859 40.1827 13.3859 40.9827C11.2859 41.9827 10.9859 43.8827 10.7859 45.5827Z" fill="black"/>
<path d="M169.088 43.4827C169.088 45.8827 169.988 47.9827 171.788 49.4827C172.988 50.4827 174.388 50.8827 175.988 50.1827C177.488 49.4827 178.188 48.1827 178.188 46.5827C178.188 43.7827 177.188 41.5827 174.888 39.8827C173.588 38.9827 172.388 38.6827 170.988 39.3827C169.588 40.0827 169.088 41.3827 169.088 42.7827C169.088 42.9827 169.088 43.2827 169.088 43.4827ZM176.488 45.5827C176.488 48.1827 175.088 49.2827 173.288 48.3827C171.488 47.4827 169.988 44.3827 170.588 42.3827C170.988 40.6827 172.388 40.1827 173.888 40.9827C175.988 41.9827 176.288 43.8827 176.488 45.5827Z" fill="black"/>
<path d="M15.1859 61.4827C15.1859 63.8827 14.2859 65.9827 12.4859 67.4827C11.2859 68.4827 9.88594 68.8827 8.28594 68.1827C6.78594 67.4827 6.08594 66.1827 6.08594 64.5827C6.08594 61.7827 7.08594 59.5827 9.38594 57.8827C10.6859 56.9827 11.8859 56.6827 13.2859 57.3827C14.6859 58.0827 15.1859 59.3827 15.1859 60.7827C15.1859 60.9827 15.1859 61.2827 15.1859 61.4827ZM7.78594 63.5827C7.78594 66.1827 9.18594 67.2827 10.9859 66.3827C12.7859 65.4827 14.2859 62.3827 13.6859 60.3827C13.2859 58.6827 11.8859 58.1827 10.3859 58.9827C8.28594 59.9827 7.98594 61.8827 7.78594 63.5827Z" fill="black"/>
<path d="M172.088 61.4827C172.088 63.8827 172.988 65.9827 174.788 67.4827C175.988 68.4827 177.388 68.8827 178.988 68.1827C180.488 67.4827 181.188 66.1827 181.188 64.5827C181.188 61.7827 180.188 59.5827 177.888 57.8827C176.588 56.9827 175.388 56.6827 173.988 57.3827C172.588 58.0827 172.088 59.3827 172.088 60.7827C172.088 60.9827 172.088 61.2827 172.088 61.4827ZM179.488 63.5827C179.488 66.1827 178.088 67.2827 176.288 66.3827C174.488 65.4827 172.988 62.3827 173.588 60.3827C173.988 58.6827 175.388 58.1827 176.888 58.9827C178.988 59.9827 179.288 61.8827 179.488 63.5827Z" fill="black"/>
<circle cx="94" cy="88.9999" r="23.5" fill="#BACFD0"/>
<circle cx="94" cy="88.9999" r="23.5" fill="url(#paint7_linear_72_5911)"/>
<circle cx="94" cy="88.9999" r="23.5" stroke="black" stroke-width="3"/>
<circle cx="94" cy="88.9999" r="19.5" stroke="black"/>
<path d="M97.6616 90.8357C100.772 93.6838 102.223 96.9276 102.949 100.409C103.156 101.2 102.741 101.595 101.601 101.754C96.7286 102.228 91.7526 101.912 86.8803 101.675C85.6363 101.595 85.118 101.121 85.0143 100.092C84.807 96.6111 86.8803 93.8421 89.3683 91.1521C89.5757 90.9148 89.8866 90.6774 90.094 90.4401C84.7033 87.9875 84.185 81.6582 87.5023 78.3353C89.8866 75.9618 93.6186 75.3289 97.1433 76.753C104.607 79.8385 103.674 87.0381 99.0093 90.0445C98.491 90.2819 98.18 90.5192 97.6616 90.8357Z" fill="black"/>
<path d="M69 79.9999C71.8333 74.8332 77.5 62.9999 94 62.9999C107 62.9999 115.5 69.9999 119 81.4999" stroke="#BDF3F5" stroke-width="2" stroke-linecap="round" stroke-linejoin="round"/>
<path fill-rule="evenodd" clip-rule="evenodd" d="M230.087 156.399C215.848 162.563 214.147 168.089 223.711 179.565C207.984 178.077 203.521 182.115 206.284 196.567C192.895 187.854 186.731 189.554 180.993 204.006C173.342 189.554 167.179 187.854 154.215 198.693C156.552 182.115 152.089 178.077 134.449 181.69C145.926 168.301 144.226 162.563 126.586 156.612C144.226 150.449 145.926 144.923 134.449 131.534C152.302 135.147 156.765 130.896 154.215 114.531C167.179 125.37 173.342 123.67 180.781 109.006C186.519 123.67 192.682 125.158 206.071 116.444C203.309 130.896 207.772 134.934 223.499 133.446C214.147 144.71 215.848 150.449 230.087 156.399Z" fill="black"/>
<path fill-rule="evenodd" clip-rule="evenodd" d="M222.007 156.4C210.105 161.926 208.618 167.239 216.481 177.441C203.304 176.166 199.479 179.779 201.817 192.955C190.553 184.879 185.239 186.579 180.351 199.756C173.976 186.367 168.875 184.879 157.823 194.868C159.949 179.779 156.123 175.953 141.034 179.354C150.81 167.239 149.322 161.926 134.445 156.4C149.322 150.875 150.81 145.562 141.034 133.447C156.123 136.635 159.736 133.022 157.823 117.933C168.875 127.709 173.976 126.222 180.351 113.045C185.239 126.434 190.34 127.922 201.817 119.846C199.479 133.022 203.092 136.848 216.481 135.36C208.405 145.562 209.893 150.875 222.007 156.4Z" fill="#FFB80C"/>
<path d="M166.566 149.126C166.266 149.526 165.576 150.796 164.496 152.936C163.436 155.076 162.856 156.356 162.756 156.776C163.596 156.556 164.446 156.446 165.306 156.446C166.186 156.446 167.006 156.686 167.766 157.166C169.006 157.986 169.626 159.306 169.626 161.126C169.626 165.106 167.686 167.106 163.806 167.126C163.786 167.126 163.756 167.126 163.716 167.126C162.296 167.126 161.276 166.636 160.656 165.656C160.036 164.656 159.696 163.336 159.636 161.696C159.636 157.896 161.066 153.706 163.926 149.126C164.406 148.326 164.826 147.806 165.186 147.566C165.546 147.326 165.826 147.206 166.026 147.206C166.246 147.206 166.466 147.286 166.686 147.446C166.906 147.606 167.016 147.826 167.016 148.106C167.016 148.386 166.866 148.726 166.566 149.126ZM167.376 161.336C167.376 160.516 167.146 159.886 166.686 159.446C166.246 159.006 165.646 158.786 164.886 158.786C164.126 158.786 163.566 158.846 163.206 158.966C162.926 159.086 162.706 159.246 162.546 159.446C162.386 159.626 162.236 159.916 162.096 160.316C161.976 160.716 161.916 161.266 161.916 161.966C161.916 162.646 162.106 163.246 162.486 163.766C162.886 164.266 163.366 164.516 163.926 164.516C165.046 164.516 165.896 164.186 166.476 163.526C167.076 162.866 167.376 162.136 167.376 161.336ZM171.498 157.526C171.498 154.846 171.978 152.486 172.938 150.446C173.418 149.406 174.068 148.586 174.888 147.986C175.708 147.386 176.648 147.086 177.708 147.086C179.268 147.086 180.538 148.106 181.518 150.146C182.518 152.166 183.018 154.576 183.018 157.376C183.018 160.156 182.558 162.466 181.638 164.306C180.718 166.126 179.418 167.036 177.738 167.036C173.578 167.036 171.498 163.866 171.498 157.526ZM177.438 164.276C178.158 164.276 178.758 163.906 179.238 163.166C179.738 162.406 180.078 161.566 180.258 160.646C180.438 159.706 180.528 158.496 180.528 157.016C180.528 155.516 180.328 153.926 179.928 152.246C179.728 151.326 179.418 150.596 178.998 150.056C178.598 149.496 178.108 149.216 177.528 149.216C176.748 149.216 176.078 149.686 175.518 150.626C174.518 152.326 174.018 154.586 174.018 157.406C174.018 159.246 174.358 160.856 175.038 162.236C175.738 163.596 176.538 164.276 177.438 164.276ZM200.186 149.036C200.186 149.376 199.636 150.336 198.536 151.916C197.876 152.736 196.236 155.226 193.616 159.386C191.936 162.006 190.646 164.066 189.746 165.566C189.226 166.386 188.706 166.796 188.186 166.796C187.686 166.796 187.316 166.616 187.076 166.256C186.976 166.096 186.926 165.916 186.926 165.716C186.926 165.516 187.006 165.246 187.166 164.906C187.346 164.566 187.956 163.776 188.996 162.536C190.036 161.276 191.226 159.526 192.566 157.286C193.926 155.026 194.936 153.376 195.596 152.336C196.256 151.296 196.706 150.526 196.946 150.026C197.326 149.146 197.816 148.446 198.416 147.926C198.796 147.666 199.136 147.536 199.436 147.536C199.736 147.536 199.936 147.606 200.036 147.746C200.136 147.886 200.186 148.126 200.186 148.466V149.036ZM186.026 149.846C186.966 148.346 188.396 147.596 190.316 147.596C191.356 147.596 192.226 147.896 192.926 148.496C193.626 149.096 193.976 150.006 193.976 151.226C193.976 152.426 193.446 153.616 192.386 154.796C191.346 155.976 190.186 156.566 188.906 156.566C187.966 156.566 187.126 156.196 186.386 155.456C185.666 154.716 185.306 153.786 185.306 152.666C185.306 151.546 185.546 150.606 186.026 149.846ZM191.726 151.556C191.726 150.096 191.276 149.366 190.376 149.366C189.476 149.366 188.766 149.666 188.246 150.266C187.746 150.846 187.496 151.536 187.496 152.336C187.496 153.136 187.596 153.656 187.796 153.896C188.016 154.136 188.436 154.256 189.056 154.256C189.696 154.256 190.296 153.996 190.856 153.476C191.436 152.956 191.726 152.316 191.726 151.556ZM193.736 163.076C193.736 161.836 194.236 160.736 195.236 159.776C196.236 158.816 197.306 158.336 198.446 158.336C199.586 158.336 200.496 158.746 201.176 159.566C201.876 160.366 202.226 161.376 202.226 162.596C202.226 163.796 201.776 164.796 200.876 165.596C199.976 166.396 198.906 166.796 197.666 166.796C196.446 166.796 195.486 166.486 194.786 165.866C194.086 165.226 193.736 164.296 193.736 163.076ZM195.956 162.776C195.956 164.076 196.576 164.726 197.816 164.726C198.356 164.726 198.896 164.476 199.436 163.976C199.976 163.476 200.246 162.976 200.246 162.476C200.246 161.596 200.016 160.976 199.556 160.616C199.336 160.456 199.076 160.376 198.776 160.376C198.056 160.376 197.406 160.606 196.826 161.066C196.246 161.506 195.956 162.076 195.956 162.776Z" fill="black"/>
<defs>
<linearGradient id="paint0_linear_72_5911" x1="93.1067" y1="4.99597" x2="93.1067" y2="93.5213" gradientUnits="userSpaceOnUse">
<stop stop-color="#4893FA"/>
<stop offset="1" stop-color="#0B52B4"/>
</linearGradient>
<linearGradient id="paint1_linear_72_5911" x1="19.817" y1="21.7821" x2="19.817" y2="31.2467" gradientUnits="userSpaceOnUse">
<stop stop-color="#A2D0FF"/>
<stop offset="1" stop-color="#167ADF"/>
</linearGradient>
<linearGradient id="paint2_linear_72_5911" x1="13.9732" y1="39.8934" x2="13.9732" y2="49.358" gradientUnits="userSpaceOnUse">
<stop stop-color="#A2D0FF"/>
<stop offset="1" stop-color="#167ADF"/>
</linearGradient>
<linearGradient id="paint3_linear_72_5911" x1="10.9732" y1="57.8934" x2="10.9732" y2="67.358" gradientUnits="userSpaceOnUse">
<stop stop-color="#A2D0FF"/>
<stop offset="1" stop-color="#167ADF"/>
</linearGradient>
<linearGradient id="paint4_linear_72_5911" x1="168.081" y1="21.9192" x2="168.081" y2="31.3838" gradientUnits="userSpaceOnUse">
<stop stop-color="#A2D0FF"/>
<stop offset="1" stop-color="#167ADF"/>
</linearGradient>
<linearGradient id="paint5_linear_72_5911" x1="174.081" y1="39.9192" x2="174.081" y2="49.3838" gradientUnits="userSpaceOnUse">
<stop stop-color="#A2D0FF"/>
<stop offset="1" stop-color="#167ADF"/>
</linearGradient>
<linearGradient id="paint6_linear_72_5911" x1="177.081" y1="57.9192" x2="177.081" y2="67.3838" gradientUnits="userSpaceOnUse">
<stop stop-color="#A2D0FF"/>
<stop offset="1" stop-color="#167ADF"/>
</linearGradient>
<linearGradient id="paint7_linear_72_5911" x1="94" y1="63.9999" x2="94" y2="114" gradientUnits="userSpaceOnUse">
<stop stop-color="#BDF3F5"/>
<stop offset="1" stop-color="#3974AA"/>
</linearGradient>
</defs>
</svg>
