<svg width="28" height="26" viewBox="0 0 28 26" fill="none" xmlns="http://www.w3.org/2000/svg">
<path fill-rule="evenodd" clip-rule="evenodd" d="M27.9232 13.0484C24.115 14.6967 23.6603 16.1745 26.218 19.2438C22.012 18.8459 20.8183 19.9259 21.5572 23.7909C17.9764 21.4605 16.3281 21.9152 14.7934 25.7803C12.7472 21.9152 11.0989 21.4605 7.63173 24.3593C8.25696 19.9259 7.06334 18.8459 2.34571 19.8122C5.41501 16.2313 4.9603 14.6967 0.242676 13.1052C4.9603 11.4569 5.41501 9.97906 2.34571 6.39821C7.12018 7.36447 8.31379 6.22769 7.63173 1.8511C11.0989 4.74988 12.7472 4.29517 14.7366 0.373291C16.2712 4.29517 17.9196 4.69304 21.5004 2.36265C20.7615 6.22769 21.9551 7.30763 26.1612 6.90976C23.6603 9.92222 24.115 11.4569 27.9232 13.0484Z" fill="black"/>
<path fill-rule="evenodd" clip-rule="evenodd" d="M25.7623 13.048C22.5794 14.5258 22.1815 15.9468 24.2845 18.6751C20.7605 18.334 19.7374 19.3003 20.3626 22.8243C17.3502 20.6644 15.9292 21.1191 14.6219 24.6431C12.9168 21.0623 11.5526 20.6644 8.597 23.3358C9.16539 19.3003 8.14229 18.2772 4.10673 19.1866C6.72132 15.9468 6.32345 14.5258 2.34473 13.048C6.32345 11.5702 6.72132 10.1492 4.10673 6.90941C8.14229 7.76199 9.10855 6.79573 8.597 2.76017C11.5526 5.37476 12.9168 4.97689 14.6219 1.45288C15.9292 5.03373 17.2933 5.4316 20.3626 3.27172C19.7374 6.79573 20.7037 7.81883 24.2845 7.42096C22.1247 10.1492 22.5225 11.5702 25.7623 13.048Z" fill="#FFB80C"/>
<path d="M10.2966 9.989C10.6871 9.989 11.0134 10.0826 11.2755 10.2698C11.5376 10.457 11.6686 10.7218 11.6686 11.0641C11.6686 11.5509 11.4065 11.9707 10.8823 12.3238C11.1872 12.65 11.4039 12.9309 11.5322 13.1662C11.6713 13.423 11.7408 13.7278 11.7408 14.0809C11.7408 14.4339 11.6098 14.7254 11.3477 14.9554C11.0642 15.2014 10.7085 15.3245 10.2806 15.3245C9.85269 15.3245 9.51839 15.2175 9.27769 15.0035C9.02629 14.7789 8.9006 14.4713 8.9006 14.0809C8.9006 13.4443 9.20816 12.8827 9.82327 12.396C9.59327 12.273 9.39536 12.0831 9.22955 11.8263C9.05839 11.5642 8.97281 11.2888 8.97281 10.9999C8.97281 10.7057 9.09048 10.4677 9.32583 10.2859C9.58257 10.088 9.90618 9.989 10.2966 9.989ZM9.54246 11.1042C9.54246 11.2112 9.57455 11.3128 9.63874 11.4091C9.70292 11.5054 9.76711 11.5776 9.83129 11.6257C9.89548 11.6739 9.98374 11.7354 10.0961 11.8103C10.2084 11.8852 10.2833 11.936 10.3207 11.9627C10.4919 11.8343 10.6069 11.7488 10.6657 11.706C10.7246 11.6578 10.7914 11.5936 10.8663 11.5134C10.9465 11.4278 10.9947 11.3556 11.0107 11.2968C11.0321 11.2326 11.0401 11.139 11.0348 11.016C11.0348 10.893 10.9599 10.786 10.8101 10.695C10.6657 10.5988 10.5133 10.5506 10.3528 10.5506C10.3368 10.5506 10.3207 10.5506 10.3047 10.5506C9.79653 10.5934 9.54246 10.778 9.54246 11.1042ZM9.49432 13.9846C9.49432 14.0113 9.49432 14.0354 9.49432 14.0568C9.49967 14.2654 9.58792 14.4259 9.75909 14.5382C9.9356 14.6505 10.1522 14.7067 10.409 14.7067C10.6497 14.7067 10.8235 14.6398 10.9305 14.5061C11.0375 14.3724 11.0883 14.2092 11.0829 14.0167C11.0829 13.8241 11.0187 13.6316 10.8904 13.439C10.7673 13.2464 10.5694 13.0111 10.2966 12.733C10.0239 12.9202 9.8206 13.1234 9.68688 13.3427C9.5585 13.562 9.49432 13.776 9.49432 13.9846ZM12.2593 12.7891C12.2593 12.0724 12.3876 11.4412 12.6444 10.8956C12.7728 10.6175 12.9466 10.3982 13.1659 10.2377C13.3852 10.0773 13.6366 9.99702 13.9201 9.99702C14.3373 9.99702 14.6769 10.2698 14.939 10.8154C15.2065 11.3556 15.3402 12.0002 15.3402 12.749C15.3402 13.4925 15.2172 14.1103 14.9711 14.6024C14.7251 15.0891 14.3774 15.3325 13.9281 15.3325C12.8155 15.3325 12.2593 14.4847 12.2593 12.7891ZM13.8479 14.5943C14.0404 14.5943 14.2009 14.4954 14.3293 14.2975C14.463 14.0942 14.5539 13.8696 14.6021 13.6235C14.6502 13.3721 14.6743 13.0485 14.6743 12.6527C14.6743 12.2516 14.6208 11.8263 14.5138 11.377C14.4603 11.131 14.3774 10.9357 14.2651 10.7913C14.1581 10.6416 14.0271 10.5667 13.8719 10.5667C13.6633 10.5667 13.4842 10.6924 13.3344 10.9438C13.0669 11.3984 12.9332 12.0028 12.9332 12.757C12.9332 13.2491 13.0242 13.6797 13.206 14.0488C13.3932 14.4125 13.6072 14.5943 13.8479 14.5943ZM19.9314 10.5185C19.9314 10.6095 19.7844 10.8662 19.4902 11.2888C19.3137 11.5081 18.8751 12.174 18.1744 13.2866C17.7251 13.9873 17.3801 14.5382 17.1394 14.9393C17.0003 15.1586 16.8612 15.2683 16.7221 15.2683C16.5884 15.2683 16.4895 15.2202 16.4253 15.1239C16.3985 15.0811 16.3852 15.033 16.3852 14.9795C16.3852 14.926 16.4066 14.8538 16.4494 14.7628C16.4975 14.6719 16.6606 14.4606 16.9388 14.129C17.2169 13.792 17.5352 13.324 17.8935 12.7249C18.2573 12.1205 18.5274 11.6792 18.7039 11.4011C18.8804 11.123 19.0007 10.917 19.0649 10.7833C19.1666 10.548 19.2976 10.3607 19.4581 10.2217C19.5597 10.1521 19.6506 10.1174 19.7309 10.1174C19.8111 10.1174 19.8646 10.1361 19.8913 10.1735C19.9181 10.211 19.9314 10.2752 19.9314 10.3661V10.5185ZM16.1445 10.7352C16.3959 10.334 16.7783 10.1334 17.2918 10.1334C17.5699 10.1334 17.8026 10.2136 17.9898 10.3741C18.177 10.5346 18.2706 10.778 18.2706 11.1042C18.2706 11.4252 18.1289 11.7434 17.8454 12.059C17.5673 12.3746 17.257 12.5324 16.9147 12.5324C16.6633 12.5324 16.4387 12.4334 16.2407 12.2355C16.0482 12.0376 15.9519 11.7889 15.9519 11.4893C15.9519 11.1898 16.0161 10.9384 16.1445 10.7352ZM17.6689 11.1925C17.6689 10.802 17.5485 10.6068 17.3078 10.6068C17.0671 10.6068 16.8773 10.687 16.7382 10.8475C16.6045 11.0026 16.5376 11.1871 16.5376 11.4011C16.5376 11.615 16.5644 11.7541 16.6178 11.8183C16.6767 11.8825 16.789 11.9146 16.9548 11.9146C17.126 11.9146 17.2864 11.845 17.4362 11.706C17.5913 11.5669 17.6689 11.3957 17.6689 11.1925ZM18.2064 14.2734C18.2064 13.9418 18.3402 13.6476 18.6076 13.3909C18.8751 13.1341 19.1612 13.0057 19.4661 13.0057C19.771 13.0057 20.0144 13.1154 20.1962 13.3347C20.3834 13.5486 20.477 13.8188 20.477 14.145C20.477 14.466 20.3567 14.7334 20.116 14.9474C19.8753 15.1613 19.5891 15.2683 19.2575 15.2683C18.9312 15.2683 18.6745 15.1854 18.4873 15.0196C18.3001 14.8484 18.2064 14.5997 18.2064 14.2734ZM18.8002 14.1932C18.8002 14.5409 18.966 14.7147 19.2976 14.7147C19.442 14.7147 19.5864 14.6478 19.7309 14.5141C19.8753 14.3804 19.9475 14.2467 19.9475 14.113C19.9475 13.8776 19.886 13.7118 19.763 13.6155C19.7041 13.5727 19.6346 13.5513 19.5544 13.5513C19.3618 13.5513 19.188 13.6128 19.0328 13.7359C18.8777 13.8535 18.8002 14.006 18.8002 14.1932Z" fill="black"/>
</svg>
