<svg width="234" height="206" viewBox="0 0 234 206" fill="none" xmlns="http://www.w3.org/2000/svg">
<path d="M21.2617 165.105H165.762C169.762 162.305 178.428 120.605 182.262 100.105L4.26172 101.605C4.42839 102.772 5.16172 107.405 6.76172 116.605C8.36172 125.805 17.0951 152.772 21.2617 165.105Z" fill="#C01414" stroke="black"/>
<path d="M91.7611 12.1047C59.3611 11.7047 30.2611 16.2714 19.7611 18.6047C17.0945 22.4383 10.9612 32.2055 7.76123 40.6055C3.76123 51.1055 3.26112 63.6055 2.26112 73.6055C1.46112 81.6055 3.59445 94.9388 4.76112 100.605H181.761C182.928 92.2721 184.961 71.8055 183.761 56.6055C182.561 41.4055 172.261 24.9383 167.261 18.6047C155.594 16.6047 124.161 12.5047 91.7611 12.1047Z" fill="url(#paint0_linear_72_5835)" stroke="black" stroke-width="3"/>
<path d="M22.7629 51.6055C25.0633 42.1489 32.0963 24.2722 35.7629 16.6055C37.0877 9.08398 18.763 5.58398 18.763 18.6055C18.763 20.7269 4.45525 39.0626 2.58753 59.584C1.08581 76.084 2.76294 91.6056 4.26294 100.106H181.763C182.763 90.7722 187.857 79.1055 184.263 56.1055C181.763 40.1055 171.088 22.6287 168.588 18.6055C166.088 14.5824 168.588 9.08464 159.088 9.08398C149.661 9.08333 150.763 16.6055 150.763 16.6055C153.93 25.1055 161.476 44.476 163.763 54.6055C167.263 70.1055 168.763 85.6056 164.763 86.6056C150.596 86.6056 121.763 87.1056 113.763 87.1056C105.763 87.1056 49.0964 86.6056 21.2631 86.1056C19.263 87.6056 18.2628 70.1055 22.7629 51.6055Z" fill="#FEBB59" stroke="black" stroke-width="3"/>
<path d="M97.5 5.58399C95 0.0848913 87 1.58398 85.5 5.58399C85.5 5.58399 84.2961 9.58398 82 55.0849C81.0253 74.4002 80.5 104.585 80.5 104.585C81.5 109.586 101.407 108.585 101.5 105.084C102.333 73.7507 100.579 12.3573 97.5 5.58399Z" fill="#FEBB59" stroke="black" stroke-width="3"/>
<path d="M37.2617 144.605C36.4617 140.205 32.0951 112.272 30.7617 100.105H4.26172C5.92839 108.272 9.96172 128.605 12.7617 138.605C15.5617 148.605 19.7617 164.605 21.7617 164.605H91.7617H165.762C168.262 164.605 171.162 153.006 172.762 146.606L172.762 146.605C174.362 140.205 179.262 112.939 181.762 100.105H155.086C154.919 104.272 154.062 115.305 153.262 124.105C152.462 132.905 150.262 151.605 148.262 151.605H98.2617H38.7617C38.5951 151.105 38.0617 149.005 37.2617 144.605Z" fill="#FEBA5D" stroke="black" stroke-width="3"/>
<ellipse cx="19.817" cy="33.5985" rx="3.13372" ry="4.7323" transform="rotate(25.9035 19.817 33.5985)" fill="#FFD15C"/>
<ellipse cx="13.9732" cy="51.7098" rx="3.13372" ry="4.7323" transform="rotate(25.9035 13.9732 51.7098)" fill="#FFD15C"/>
<ellipse cx="10.9732" cy="69.7098" rx="3.13372" ry="4.7323" transform="rotate(25.9035 10.9732 69.7098)" fill="#FFD15C"/>
<ellipse cx="168.081" cy="33.7356" rx="3.13372" ry="4.7323" transform="rotate(-28.1216 168.081 33.7356)" fill="#FFD15C"/>
<ellipse cx="174.081" cy="51.7356" rx="3.13372" ry="4.7323" transform="rotate(-28.1216 174.081 51.7356)" fill="#FFD15C"/>
<ellipse cx="177.081" cy="69.7356" rx="3.13372" ry="4.7323" transform="rotate(-28.1216 177.081 69.7356)" fill="#FFD15C"/>
<path d="M24.1859 32.5668C24.1859 34.9668 23.2859 37.0668 21.4859 38.5668C20.2859 39.5668 18.8859 39.9668 17.2859 39.2668C15.7859 38.5668 15.0859 37.2668 15.0859 35.6668C15.0859 32.8668 16.0859 30.6668 18.3859 28.9668C19.6859 28.0668 20.8859 27.7668 22.2859 28.4668C23.6859 29.1668 24.1859 30.4668 24.1859 31.8668C24.1859 32.0668 24.1859 32.3668 24.1859 32.5668ZM16.7859 34.6668C16.7859 37.2668 18.1859 38.3668 19.9859 37.4668C21.7859 36.5668 23.2859 33.4668 22.6859 31.4668C22.2859 29.7668 20.8859 29.2668 19.3859 30.0668C17.2859 31.0668 16.9859 32.9668 16.7859 34.6668Z" fill="black"/>
<path d="M163.088 32.5668C163.088 34.9668 163.988 37.0668 165.788 38.5668C166.988 39.5668 168.388 39.9668 169.988 39.2668C171.488 38.5668 172.188 37.2668 172.188 35.6668C172.188 32.8668 171.188 30.6668 168.888 28.9668C167.588 28.0668 166.388 27.7668 164.988 28.4668C163.588 29.1668 163.088 30.4668 163.088 31.8668C163.088 32.0668 163.088 32.3668 163.088 32.5668ZM170.488 34.6668C170.488 37.2668 169.088 38.3668 167.288 37.4668C165.488 36.5668 163.988 33.4668 164.588 31.4668C164.988 29.7668 166.388 29.2668 167.888 30.0668C169.988 31.0668 170.288 32.9668 170.488 34.6668Z" fill="black"/>
<path d="M18.1859 50.5668C18.1859 52.9668 17.2859 55.0668 15.4859 56.5668C14.2859 57.5668 12.8859 57.9668 11.2859 57.2668C9.78594 56.5668 9.08594 55.2668 9.08594 53.6668C9.08594 50.8668 10.0859 48.6668 12.3859 46.9668C13.6859 46.0668 14.8859 45.7668 16.2859 46.4668C17.6859 47.1668 18.1859 48.4668 18.1859 49.8668C18.1859 50.0668 18.1859 50.3668 18.1859 50.5668ZM10.7859 52.6668C10.7859 55.2668 12.1859 56.3668 13.9859 55.4668C15.7859 54.5668 17.2859 51.4668 16.6859 49.4668C16.2859 47.7668 14.8859 47.2668 13.3859 48.0668C11.2859 49.0668 10.9859 50.9668 10.7859 52.6668Z" fill="black"/>
<path d="M169.088 50.5668C169.088 52.9668 169.988 55.0668 171.788 56.5668C172.988 57.5668 174.388 57.9668 175.988 57.2668C177.488 56.5668 178.188 55.2668 178.188 53.6668C178.188 50.8668 177.188 48.6668 174.888 46.9668C173.588 46.0668 172.388 45.7668 170.988 46.4668C169.588 47.1668 169.088 48.4668 169.088 49.8668C169.088 50.0668 169.088 50.3668 169.088 50.5668ZM176.488 52.6668C176.488 55.2668 175.088 56.3668 173.288 55.4668C171.488 54.5668 169.988 51.4668 170.588 49.4668C170.988 47.7668 172.388 47.2668 173.888 48.0668C175.988 49.0668 176.288 50.9668 176.488 52.6668Z" fill="black"/>
<path d="M15.1859 68.5668C15.1859 70.9668 14.2859 73.0668 12.4859 74.5668C11.2859 75.5668 9.88594 75.9668 8.28594 75.2668C6.78594 74.5668 6.08594 73.2668 6.08594 71.6668C6.08594 68.8668 7.08594 66.6668 9.38594 64.9668C10.6859 64.0668 11.8859 63.7668 13.2859 64.4668C14.6859 65.1668 15.1859 66.4668 15.1859 67.8668C15.1859 68.0668 15.1859 68.3668 15.1859 68.5668ZM7.78594 70.6668C7.78594 73.2668 9.18594 74.3668 10.9859 73.4668C12.7859 72.5668 14.2859 69.4668 13.6859 67.4668C13.2859 65.7668 11.8859 65.2668 10.3859 66.0668C8.28594 67.0668 7.98594 68.9668 7.78594 70.6668Z" fill="black"/>
<path d="M172.088 68.5668C172.088 70.9668 172.988 73.0668 174.788 74.5668C175.988 75.5668 177.388 75.9668 178.988 75.2668C180.488 74.5668 181.188 73.2668 181.188 71.6668C181.188 68.8668 180.188 66.6668 177.888 64.9668C176.588 64.0668 175.388 63.7668 173.988 64.4668C172.588 65.1668 172.088 66.4668 172.088 67.8668C172.088 68.0668 172.088 68.3668 172.088 68.5668ZM179.488 70.6668C179.488 73.2668 178.088 74.3668 176.288 73.4668C174.488 72.5668 172.988 69.4668 173.588 67.4668C173.988 65.7668 175.388 65.2668 176.888 66.0668C178.988 67.0668 179.288 68.9668 179.488 70.6668Z" fill="black"/>
<circle cx="92" cy="100.084" r="24.5" fill="#BACFD0"/>
<circle cx="92" cy="100.084" r="24.5" fill="url(#paint1_linear_72_5835)"/>
<circle cx="92" cy="100.084" r="24.5" stroke="black" stroke-width="3"/>
<circle cx="92" cy="100.084" r="20.5" fill="#BACFD0"/>
<circle cx="92" cy="100.084" r="20.5" fill="url(#paint2_linear_72_5835)"/>
<circle cx="92" cy="100.084" r="20.5" stroke="black"/>
<path d="M95.6616 101.92C98.7716 104.768 100.223 108.012 100.949 111.493C101.156 112.284 100.741 112.68 99.601 112.838C94.7286 113.313 89.7526 112.996 84.8803 112.759C83.6363 112.68 83.118 112.205 83.0143 111.176C82.807 107.695 84.8803 104.926 87.3683 102.236C87.5757 101.999 87.8866 101.762 88.094 101.524C82.7033 99.0716 82.185 92.7423 85.5023 89.4194C87.8866 87.0459 91.6186 86.413 95.1433 87.8371C102.607 90.9226 101.674 98.1222 97.0093 101.129C96.491 101.366 96.18 101.603 95.6616 101.92Z" fill="black"/>
<path fill-rule="evenodd" clip-rule="evenodd" d="M233.556 158.394C219.316 164.557 217.616 170.083 227.18 181.559C211.453 180.072 206.99 184.11 209.753 198.562C196.363 189.848 190.2 191.548 184.462 206C176.811 191.548 170.648 189.848 157.683 200.687C160.021 184.11 155.558 180.072 137.918 183.685C149.395 170.295 147.695 164.557 130.055 158.606C147.695 152.443 149.395 146.917 137.918 133.528C155.771 137.141 160.234 132.89 157.683 116.526C170.648 127.365 176.811 125.664 184.249 111C189.988 125.664 196.151 127.152 209.54 118.438C206.777 132.89 211.24 136.928 226.967 135.441C217.616 146.705 219.316 152.443 233.556 158.394Z" fill="black"/>
<path fill-rule="evenodd" clip-rule="evenodd" d="M225.476 158.395C213.574 163.92 212.086 169.234 219.95 179.435C206.773 178.16 202.948 181.773 205.285 194.95C194.021 186.874 188.708 188.574 183.82 201.75C177.444 188.361 172.344 186.874 161.292 196.862C163.417 181.773 159.592 177.947 144.502 181.348C154.279 169.234 152.791 163.92 137.914 158.395C152.791 152.869 154.279 147.556 144.502 135.442C159.592 138.63 163.205 135.017 161.292 119.927C172.344 129.703 177.444 128.216 183.82 115.039C188.708 128.428 193.809 129.916 205.285 121.84C202.948 135.017 206.561 138.842 219.95 137.354C211.874 147.556 213.361 152.869 225.476 158.395Z" fill="#FFB80C"/>
<path d="M167.625 148.05C169.085 148.05 170.305 148.4 171.285 149.1C172.265 149.8 172.755 150.79 172.755 152.07C172.755 153.89 171.775 155.46 169.815 156.78C170.955 158 171.765 159.05 172.245 159.93C172.765 160.89 173.025 162.03 173.025 163.35C173.025 164.67 172.535 165.76 171.555 166.62C170.495 167.54 169.165 168 167.565 168C165.965 168 164.715 167.6 163.815 166.8C162.875 165.96 162.405 164.81 162.405 163.35C162.405 160.97 163.555 158.87 165.855 157.05C164.995 156.59 164.255 155.88 163.635 154.92C162.995 153.94 162.675 152.91 162.675 151.83C162.675 150.73 163.115 149.84 163.995 149.16C164.955 148.42 166.165 148.05 167.625 148.05ZM164.805 152.22C164.805 152.62 164.925 153 165.165 153.36C165.405 153.72 165.645 153.99 165.885 154.17C166.125 154.35 166.455 154.58 166.875 154.86C167.295 155.14 167.575 155.33 167.715 155.43C168.355 154.95 168.785 154.63 169.005 154.47C169.225 154.29 169.475 154.05 169.755 153.75C170.055 153.43 170.235 153.16 170.295 152.94C170.375 152.7 170.405 152.35 170.385 151.89C170.385 151.43 170.105 151.03 169.545 150.69C169.005 150.33 168.435 150.15 167.835 150.15C167.775 150.15 167.715 150.15 167.655 150.15C165.755 150.31 164.805 151 164.805 152.22ZM164.625 162.99C164.625 163.09 164.625 163.18 164.625 163.26C164.645 164.04 164.975 164.64 165.615 165.06C166.275 165.48 167.085 165.69 168.045 165.69C168.945 165.69 169.595 165.44 169.995 164.94C170.395 164.44 170.585 163.83 170.565 163.11C170.565 162.39 170.325 161.67 169.845 160.95C169.385 160.23 168.645 159.35 167.625 158.31C166.605 159.01 165.845 159.77 165.345 160.59C164.865 161.41 164.625 162.21 164.625 162.99ZM174.963 158.52C174.963 155.84 175.443 153.48 176.403 151.44C176.883 150.4 177.533 149.58 178.353 148.98C179.173 148.38 180.113 148.08 181.173 148.08C182.733 148.08 184.003 149.1 184.983 151.14C185.983 153.16 186.483 155.57 186.483 158.37C186.483 161.15 186.023 163.46 185.103 165.3C184.183 167.12 182.883 168.03 181.203 168.03C177.043 168.03 174.963 164.86 174.963 158.52ZM180.903 165.27C181.623 165.27 182.223 164.9 182.703 164.16C183.203 163.4 183.543 162.56 183.723 161.64C183.903 160.7 183.993 159.49 183.993 158.01C183.993 156.51 183.793 154.92 183.393 153.24C183.193 152.32 182.883 151.59 182.463 151.05C182.063 150.49 181.573 150.21 180.993 150.21C180.213 150.21 179.543 150.68 178.983 151.62C177.983 153.32 177.483 155.58 177.483 158.4C177.483 160.24 177.823 161.85 178.503 163.23C179.203 164.59 180.003 165.27 180.903 165.27ZM203.65 150.03C203.65 150.37 203.1 151.33 202 152.91C201.34 153.73 199.7 156.22 197.08 160.38C195.4 163 194.11 165.06 193.21 166.56C192.69 167.38 192.17 167.79 191.65 167.79C191.15 167.79 190.78 167.61 190.54 167.25C190.44 167.09 190.39 166.91 190.39 166.71C190.39 166.51 190.47 166.24 190.63 165.9C190.81 165.56 191.42 164.77 192.46 163.53C193.5 162.27 194.69 160.52 196.03 158.28C197.39 156.02 198.4 154.37 199.06 153.33C199.72 152.29 200.17 151.52 200.41 151.02C200.79 150.14 201.28 149.44 201.88 148.92C202.26 148.66 202.6 148.53 202.9 148.53C203.2 148.53 203.4 148.6 203.5 148.74C203.6 148.88 203.65 149.12 203.65 149.46V150.03ZM189.49 150.84C190.43 149.34 191.86 148.59 193.78 148.59C194.82 148.59 195.69 148.89 196.39 149.49C197.09 150.09 197.44 151 197.44 152.22C197.44 153.42 196.91 154.61 195.85 155.79C194.81 156.97 193.65 157.56 192.37 157.56C191.43 157.56 190.59 157.19 189.85 156.45C189.13 155.71 188.77 154.78 188.77 153.66C188.77 152.54 189.01 151.6 189.49 150.84ZM195.19 152.55C195.19 151.09 194.74 150.36 193.84 150.36C192.94 150.36 192.23 150.66 191.71 151.26C191.21 151.84 190.96 152.53 190.96 153.33C190.96 154.13 191.06 154.65 191.26 154.89C191.48 155.13 191.9 155.25 192.52 155.25C193.16 155.25 193.76 154.99 194.32 154.47C194.9 153.95 195.19 153.31 195.19 152.55ZM197.2 164.07C197.2 162.83 197.7 161.73 198.7 160.77C199.7 159.81 200.77 159.33 201.91 159.33C203.05 159.33 203.96 159.74 204.64 160.56C205.34 161.36 205.69 162.37 205.69 163.59C205.69 164.79 205.24 165.79 204.34 166.59C203.44 167.39 202.37 167.79 201.13 167.79C199.91 167.79 198.95 167.48 198.25 166.86C197.55 166.22 197.2 165.29 197.2 164.07ZM199.42 163.77C199.42 165.07 200.04 165.72 201.28 165.72C201.82 165.72 202.36 165.47 202.9 164.97C203.44 164.47 203.71 163.97 203.71 163.47C203.71 162.59 203.48 161.97 203.02 161.61C202.8 161.45 202.54 161.37 202.24 161.37C201.52 161.37 200.87 161.6 200.29 162.06C199.71 162.5 199.42 163.07 199.42 163.77Z" fill="black"/>
<defs>
<linearGradient id="paint0_linear_72_5835" x1="93.1067" y1="12.0801" x2="93.1067" y2="100.605" gradientUnits="userSpaceOnUse">
<stop stop-color="#FF6534"/>
<stop offset="1" stop-color="#C01414"/>
</linearGradient>
<linearGradient id="paint1_linear_72_5835" x1="92" y1="74.084" x2="92" y2="126.084" gradientUnits="userSpaceOnUse">
<stop stop-color="#FFDBA9"/>
<stop offset="1" stop-color="#FEBA5D"/>
</linearGradient>
<linearGradient id="paint2_linear_72_5835" x1="92" y1="79.084" x2="92" y2="121.084" gradientUnits="userSpaceOnUse">
<stop stop-color="#FFDBA9"/>
<stop offset="1" stop-color="#FEBA5D"/>
</linearGradient>
</defs>
</svg>
