<svg width="51" height="44" viewBox="0 0 51 44" fill="none" xmlns="http://www.w3.org/2000/svg">
<path d="M6.15637 43.0412H44.8017C45.8715 42.2924 48.1893 31.14 49.2145 25.6575L1.60986 26.0586C1.65444 26.3706 1.85056 27.6098 2.27847 30.0703C2.70637 32.5307 5.04203 39.7427 6.15637 43.0412Z" fill="#0B52B4" stroke="black" stroke-width="0.267442"/>
<path d="M25.0068 2.12183C16.3417 2.01485 8.55915 3.23617 5.75101 3.8602C5.03784 4.88546 3.39755 7.49761 2.54174 9.74412C1.47197 12.5523 1.33822 15.8953 1.07078 18.5697C0.856823 20.7092 1.42737 24.2751 1.73938 25.7906L11.8318 24.9826L25.2039 35.0116L38.8434 24.9826L49.0766 25.7906C49.3886 23.5619 49.9324 18.0883 49.6115 14.0232C49.2905 9.95807 46.5359 5.55406 45.1987 3.8602C42.0785 3.32532 33.6719 2.2288 25.0068 2.12183Z" fill="url(#paint0_linear_113_642)" stroke="black" stroke-width="0.802326"/>
<path d="M6.55337 12.6884C7.16857 10.1593 9.04949 5.37837 10.0301 3.32798C10.3844 1.31641 5.48361 0.38036 5.48361 3.86287C5.48361 4.43022 1.65713 9.33393 1.15762 14.8222C0.755995 19.235 1.20453 23.3861 1.60569 25.6594H9.4249C17.3144 25.6594 14.1051 35.1478 25.4714 35.1478C36.8377 35.1478 33.2272 25.6594 41.5179 25.6594H49.0766C49.3441 23.1633 50.7064 20.0431 49.7452 13.8919C49.0766 9.61286 46.2216 4.93883 45.553 3.86287C44.8844 2.7869 45.553 1.31658 43.0123 1.31641C40.4913 1.31623 40.7859 3.32798 40.7859 3.32798C41.6328 5.60124 43.6509 10.7817 44.2627 13.4908C45.1987 17.6361 45.6633 22.0431 44.5935 22.3106C40.8493 22.3106 39.1109 22.0431 35.6342 24.1827C32.1575 26.3222 32.9598 32.2059 25.4714 32.2059C17.983 32.2059 18.1168 24.8799 14.1051 23.2466C11.1633 22.0489 6.94758 22.5723 6.2156 22.3106C5.87781 22.1898 5.34985 17.6361 6.55337 12.6884Z" fill="#BDF3F5" stroke="black" stroke-width="0.802326"/>
<path d="M10.4354 37.5586C10.2215 36.3819 9.05366 28.9113 8.69707 25.6575H1.60986C2.0556 27.8416 3.13428 33.2796 3.88312 35.954C4.63196 38.6284 5.75521 42.9075 6.2901 42.9075H25.011H44.8017C45.4703 42.9075 46.2459 39.8051 46.6738 38.0935C47.1017 36.3819 48.4122 29.0896 49.0808 25.6575H41.9466C41.902 26.7718 41.6726 29.7226 41.4587 32.0761C41.2447 34.4296 40.6564 39.4307 40.1215 39.4307H26.7494H10.8366C10.792 39.297 10.6494 38.7354 10.4354 37.5586Z" fill="#BDF3F5" stroke="black" stroke-width="0.802326"/>
<ellipse cx="5.76398" cy="7.86982" rx="0.838089" ry="1.26562" transform="rotate(25.9035 5.76398 7.86982)" fill="url(#paint1_linear_113_642)"/>
<ellipse cx="4.20148" cy="12.7136" rx="0.838089" ry="1.26562" transform="rotate(25.9035 4.20148 12.7136)" fill="url(#paint2_linear_113_642)"/>
<ellipse cx="3.40168" cy="17.5275" rx="0.838089" ry="1.26562" transform="rotate(25.9035 3.40168 17.5275)" fill="url(#paint3_linear_113_642)"/>
<ellipse cx="45.4177" cy="7.90697" rx="0.838089" ry="1.26562" transform="rotate(-28.1216 45.4177 7.90697)" fill="url(#paint4_linear_113_642)"/>
<ellipse cx="47.0208" cy="12.7202" rx="0.838089" ry="1.26562" transform="rotate(-28.1216 47.0208 12.7202)" fill="url(#paint5_linear_113_642)"/>
<ellipse cx="47.8245" cy="17.5376" rx="0.838089" ry="1.26562" transform="rotate(-28.1216 47.8245 17.5376)" fill="url(#paint6_linear_113_642)"/>
<path d="M6.9347 7.59643C6.9347 8.23829 6.694 8.79992 6.2126 9.20108C5.89167 9.46852 5.51726 9.5755 5.08935 9.38829C4.68819 9.20108 4.50098 8.85341 4.50098 8.4255C4.50098 7.67666 4.76842 7.08829 5.38353 6.63364C5.73121 6.39294 6.05214 6.31271 6.42656 6.49992C6.80098 6.68713 6.9347 7.0348 6.9347 7.40922C6.9347 7.46271 6.9347 7.54294 6.9347 7.59643ZM4.95563 8.15806C4.95563 8.85341 5.33005 9.14759 5.81144 8.90689C6.29284 8.6662 6.694 7.83713 6.53353 7.30224C6.42656 6.84759 6.05214 6.71387 5.65098 6.92782C5.08935 7.19527 5.00912 7.70341 4.95563 8.15806Z" fill="black"/>
<path d="M44.0824 7.59643C44.0824 8.23829 44.3231 8.79992 44.8045 9.20108C45.1254 9.46852 45.4998 9.5755 45.9277 9.38829C46.3289 9.20108 46.5161 8.85341 46.5161 8.4255C46.5161 7.67666 46.2487 7.08829 45.6336 6.63364C45.2859 6.39294 44.965 6.31271 44.5905 6.49992C44.2161 6.68713 44.0824 7.0348 44.0824 7.40922C44.0824 7.46271 44.0824 7.54294 44.0824 7.59643ZM46.0615 8.15806C46.0615 8.85341 45.687 9.14759 45.2056 8.90689C44.7243 8.6662 44.3231 7.83713 44.4836 7.30224C44.5905 6.84759 44.965 6.71387 45.3661 6.92782C45.9277 7.19527 46.008 7.70341 46.0615 8.15806Z" fill="black"/>
<path d="M5.32874 12.407C5.32874 13.0488 5.08804 13.6105 4.60665 14.0116C4.28572 14.2791 3.9113 14.386 3.48339 14.1988C3.08223 14.0116 2.89502 13.664 2.89502 13.236C2.89502 12.4872 3.16246 11.8988 3.77758 11.4442C4.12525 11.2035 4.44618 11.1233 4.8206 11.3105C5.19502 11.4977 5.32874 11.8453 5.32874 12.2198C5.32874 12.2733 5.32874 12.3535 5.32874 12.407ZM3.34967 12.9686C3.34967 13.664 3.72409 13.9581 4.20548 13.7174C4.68688 13.4767 5.08804 12.6477 4.92758 12.1128C4.8206 11.6581 4.44618 11.5244 4.04502 11.7384C3.48339 12.0058 3.40316 12.514 3.34967 12.9686Z" fill="black"/>
<path d="M45.6883 12.4077C45.6883 13.0496 45.929 13.6112 46.4104 14.0124C46.7314 14.2798 47.1058 14.3868 47.5337 14.1996C47.9349 14.0124 48.1221 13.6647 48.1221 13.2368C48.1221 12.4879 47.8546 11.8996 47.2395 11.4449C46.8918 11.2042 46.5709 11.124 46.1965 11.3112C45.8221 11.4984 45.6883 11.8461 45.6883 12.2205C45.6883 12.274 45.6883 12.3542 45.6883 12.4077ZM47.6674 12.9693C47.6674 13.6647 47.293 13.9589 46.8116 13.7182C46.3302 13.4775 45.929 12.6484 46.0895 12.1135C46.1965 11.6589 46.5709 11.5252 46.9721 11.7391C47.5337 12.0065 47.6139 12.5147 47.6674 12.9693Z" fill="black"/>
<path d="M4.53187 17.2234C4.53187 17.8652 4.29117 18.4269 3.80977 18.828C3.48884 19.0955 3.11442 19.2025 2.68652 19.0152C2.28535 18.828 2.09814 18.4804 2.09814 18.0525C2.09814 17.3036 2.36559 16.7152 2.9807 16.2606C3.32838 16.0199 3.64931 15.9397 4.02373 16.1269C4.39814 16.3141 4.53187 16.6618 4.53187 17.0362C4.53187 17.0897 4.53187 17.1699 4.53187 17.2234ZM2.5528 17.785C2.5528 18.4804 2.92721 18.7745 3.40861 18.5338C3.89 18.2932 4.29117 17.4641 4.1307 16.9292C4.02373 16.4745 3.64931 16.3408 3.24814 16.5548C2.68652 16.8222 2.60628 17.3304 2.5528 17.785Z" fill="black"/>
<path d="M46.4925 17.2234C46.4925 17.8652 46.7332 18.4269 47.2146 18.828C47.5356 19.0955 47.91 19.2025 48.3379 19.0152C48.7391 18.828 48.9263 18.4804 48.9263 18.0525C48.9263 17.3036 48.6588 16.7152 48.0437 16.2606C47.696 16.0199 47.3751 15.9397 47.0007 16.1269C46.6263 16.3141 46.4925 16.6618 46.4925 17.0362C46.4925 17.0897 46.4925 17.1699 46.4925 17.2234ZM48.4716 17.785C48.4716 18.4804 48.0972 18.7745 47.6158 18.5338C47.1344 18.2932 46.7332 17.4641 46.8937 16.9292C47.0007 16.4745 47.3751 16.3408 47.7763 16.5548C48.3379 16.8222 48.4181 17.3304 48.4716 17.785Z" fill="black"/>
<circle cx="25.6084" cy="24.5825" r="6.28488" fill="#BACFD0"/>
<circle cx="25.6084" cy="24.5825" r="6.28488" fill="url(#paint7_linear_113_642)"/>
<circle cx="25.6084" cy="24.5825" r="6.28488" stroke="black" stroke-width="0.802326"/>
<circle cx="25.6071" cy="24.5793" r="5.21512" stroke="black" stroke-width="0.267442"/>
<path d="M26.5938 25.0732C27.4255 25.8349 27.8137 26.7024 28.0077 27.6334C28.0632 27.845 27.9523 27.9508 27.6473 27.9931C26.3442 28.1201 25.0135 28.0354 23.7104 27.972C23.3777 27.9508 23.2391 27.8238 23.2113 27.5488C23.1559 26.6178 23.7104 25.8772 24.3758 25.1578C24.4312 25.0943 24.5144 25.0309 24.5699 24.9674C23.1282 24.3115 22.9896 22.6187 23.8767 21.7301C24.5144 21.0953 25.5125 20.926 26.4551 21.3069C28.4513 22.1321 28.2018 24.0575 26.9542 24.8616C26.8156 24.9251 26.7324 24.9885 26.5938 25.0732Z" fill="black"/>
<path d="M18.9224 22.1754C19.6801 20.7936 21.1956 17.6289 25.6084 17.6289C29.0852 17.6289 31.3584 19.501 32.2945 22.5766" stroke="#BDF3F5" stroke-width="0.534884" stroke-linecap="round" stroke-linejoin="round"/>
<defs>
<linearGradient id="paint0_linear_113_642" x1="25.3667" y1="2.11523" x2="25.3667" y2="25.7906" gradientUnits="userSpaceOnUse">
<stop stop-color="#4893FA"/>
<stop offset="1" stop-color="#0B52B4"/>
</linearGradient>
<linearGradient id="paint1_linear_113_642" x1="5.76398" y1="6.6042" x2="5.76398" y2="9.13543" gradientUnits="userSpaceOnUse">
<stop stop-color="#A2D0FF"/>
<stop offset="1" stop-color="#167ADF"/>
</linearGradient>
<linearGradient id="paint2_linear_113_642" x1="4.20148" y1="11.448" x2="4.20148" y2="13.9792" gradientUnits="userSpaceOnUse">
<stop stop-color="#A2D0FF"/>
<stop offset="1" stop-color="#167ADF"/>
</linearGradient>
<linearGradient id="paint3_linear_113_642" x1="3.40168" y1="16.2619" x2="3.40168" y2="18.7931" gradientUnits="userSpaceOnUse">
<stop stop-color="#A2D0FF"/>
<stop offset="1" stop-color="#167ADF"/>
</linearGradient>
<linearGradient id="paint4_linear_113_642" x1="45.4177" y1="6.64135" x2="45.4177" y2="9.17259" gradientUnits="userSpaceOnUse">
<stop stop-color="#A2D0FF"/>
<stop offset="1" stop-color="#167ADF"/>
</linearGradient>
<linearGradient id="paint5_linear_113_642" x1="47.0208" y1="11.4546" x2="47.0208" y2="13.9858" gradientUnits="userSpaceOnUse">
<stop stop-color="#A2D0FF"/>
<stop offset="1" stop-color="#167ADF"/>
</linearGradient>
<linearGradient id="paint6_linear_113_642" x1="47.8245" y1="16.272" x2="47.8245" y2="18.8032" gradientUnits="userSpaceOnUse">
<stop stop-color="#A2D0FF"/>
<stop offset="1" stop-color="#167ADF"/>
</linearGradient>
<linearGradient id="paint7_linear_113_642" x1="25.6084" y1="17.8965" x2="25.6084" y2="31.2686" gradientUnits="userSpaceOnUse">
<stop stop-color="#BDF3F5"/>
<stop offset="1" stop-color="#3974AA"/>
</linearGradient>
</defs>
</svg>
