<svg width="51" height="43" viewBox="0 0 51 43" fill="none" xmlns="http://www.w3.org/2000/svg">
<path d="M6.13245 41.9147H44.7778C45.8476 41.1659 48.1654 30.0136 49.1906 24.531L1.58594 24.9322C1.63051 25.2442 1.82664 26.4833 2.25454 28.9438C2.68245 31.4043 5.01811 38.6163 6.13245 41.9147Z" fill="#B9691A" stroke="black" stroke-width="0.267442"/>
<path d="M24.9829 0.996584C16.3178 0.889607 8.53522 2.11092 5.72708 2.73496C5.01392 3.76021 3.37362 6.37236 2.51781 8.61887C1.44804 11.427 1.31429 14.77 1.04685 17.4445C0.832897 19.584 1.40344 23.1499 1.71546 24.6654H49.0527C49.3647 22.4367 49.9085 16.9631 49.5875 12.8979C49.2666 8.83283 46.512 4.42882 45.1748 2.73496C42.0546 2.20007 33.648 1.10356 24.9829 0.996584Z" fill="#B9691A" stroke="black" stroke-width="0.802326"/>
<path d="M4.47998 7.00517C5.81719 7.00517 8.99975 7.00517 11.0323 7.00517C13.573 7.00517 16.5149 6.604 18.5207 6.604C20.5265 6.604 24.8056 7.00517 26.5439 7.00517C28.2823 7.00517 35.1021 7.00517 36.0381 7.00517C36.787 7.00517 42.3676 7.00517 45.3986 7.00517" stroke="black" stroke-width="0.534884"/>
<path d="M5.01172 29.7378C6.34893 29.7378 9.53149 29.7378 11.564 29.7378C14.1047 29.7378 17.0466 29.3367 19.0524 29.3367C21.0582 29.3367 25.3373 29.7378 27.0757 29.7378C28.814 29.7378 35.6338 29.7378 36.5699 29.7378C37.3187 29.7378 42.8993 29.7378 45.9303 29.7378" stroke="black" stroke-width="0.534884"/>
<path d="M5.27734 13.1575C6.61455 13.1575 9.26223 13.1575 11.2948 13.1575C13.8355 13.1575 17.0448 13.1575 19.0506 13.1575C21.0564 13.1575 25.6029 12.7563 27.3413 12.7563C29.0797 12.7563 35.7657 13.1575 36.7018 13.1575C37.4506 13.1575 42.318 13.9598 46.1959 13.1575" stroke="black" stroke-width="0.534884"/>
<path d="M5.81738 34.9537C7.15459 34.9537 9.80227 34.9537 11.8348 34.9537C14.3755 34.9537 17.5848 34.9537 19.5906 34.9537C21.5965 34.9537 26.143 34.5525 27.8813 34.5525C29.6197 34.5525 36.3058 34.9537 37.2418 34.9537C37.9906 34.9537 42.8581 35.756 46.736 34.9537" stroke="black" stroke-width="0.534884"/>
<path d="M6.5316 11.5594C7.1468 9.03033 9.02772 4.24936 10.0083 2.19897C8.62656 2.19897 5.78279 2.41293 5.46184 2.73386C5.06065 3.13502 1.60844 9.28618 1.18279 13.9664C0.886364 17.2258 1.18276 22.2571 1.58393 24.5304H49.0549C49.3223 22.0342 50.6846 18.9141 49.7235 12.7629C49.0548 8.48386 46.113 2.73386 45.177 2.73386L40.7642 2.19897C41.6111 4.47223 43.6292 9.65269 44.2409 12.3618C45.1769 16.5071 45.5782 20.6525 44.5084 20.9199C40.7196 20.9199 33.0083 21.0536 30.8688 21.0536C28.7293 21.0536 13.5743 20.9199 6.13047 20.7862C5.59556 21.1873 5.32808 16.5071 6.5316 11.5594Z" fill="#703A16" stroke="black" stroke-width="0.802326"/>
<path d="M23.0618 30.0119H25.1451H27.8237C28.6417 30.0119 31.1572 25.1104 31.3953 21.8428C31.6334 18.5751 27.1269 15.5701 25.6655 15.5701C24.9711 15.6673 22.4665 16.1536 20.0855 19.0711C17.7045 21.9887 21.9451 30.0119 23.0618 30.0119Z" fill="#C4C4C4" stroke="black" stroke-width="0.802326"/>
<path d="M26.4052 23.2561C27.1907 24.1936 27.5573 25.2614 27.7406 26.4072C27.7929 26.6676 27.6882 26.7978 27.4002 26.8499C26.1695 27.0062 24.9126 26.902 23.682 26.8239C23.3678 26.7978 23.2368 26.6416 23.2106 26.303C23.1583 25.1572 23.682 24.2457 24.3104 23.3603C24.3628 23.2822 24.4413 23.2041 24.4937 23.1259C23.1321 22.3186 23.0012 20.2353 23.8391 19.1415C24.4413 18.3603 25.384 18.1519 26.2742 18.6207C28.1595 19.6363 27.9239 22.0061 26.7456 22.9957C26.6146 23.0738 26.5361 23.152 26.4052 23.2561Z" fill="black"/>
<path d="M10.4115 36.4322C10.1976 35.2554 9.02974 27.7849 8.67315 24.531H1.58594C2.03167 26.7151 3.11036 32.1531 3.85919 34.8275C4.60803 37.5019 5.73129 41.781 6.26617 41.781H24.9871H44.7778C45.4464 41.781 46.222 38.6787 46.6499 36.9671C47.0778 35.2554 48.3883 27.9632 49.0569 24.531H41.9226C41.8781 25.6453 41.6487 28.5961 41.4348 30.9496C41.2208 33.3031 40.6324 38.3043 40.0976 38.3043H26.7255H10.8127C10.7681 38.1705 10.6255 37.6089 10.4115 36.4322Z" fill="#703A16" stroke="black" stroke-width="0.802326"/>
</svg>
