<svg width="51" height="44" viewBox="0 0 51 44" fill="none" xmlns="http://www.w3.org/2000/svg">
<path d="M6.15637 43.0624H44.8017C45.8715 42.3136 48.1893 31.1613 49.2145 25.6787L1.60986 26.0799C1.65444 26.3919 1.85056 27.631 2.27847 30.0915C2.70637 32.552 5.04203 39.764 6.15637 43.0624Z" fill="#8C5129" stroke="black" stroke-width="0.267442"/>
<path d="M25.0068 2.14307C16.3417 2.03609 8.55915 3.25741 5.75101 3.88144C5.03784 4.9067 3.39755 7.51885 2.54174 9.76536C1.47197 12.5735 1.33822 15.9165 1.07078 18.5909C0.856823 20.7305 1.42737 24.2964 1.73938 25.8119H49.0766C49.3886 23.5832 49.9324 18.1095 49.6115 14.0444C49.2905 9.97931 46.5359 5.5753 45.1987 3.88144C42.0785 3.34656 33.6719 2.25004 25.0068 2.14307Z" fill="#8C5129" stroke="black" stroke-width="0.802326"/>
<path d="M4.50098 8.15629C5.83819 8.15629 9.02074 8.15629 11.0533 8.15629C13.594 8.15629 16.5359 7.75513 18.5417 7.75513C20.5475 7.75513 24.8266 8.15629 26.5649 8.15629C28.3033 8.15629 35.1231 8.15629 36.0591 8.15629C36.808 8.15629 42.3886 8.15629 45.4196 8.15629" stroke="black" stroke-width="0.534884"/>
<path d="M5.03564 30.8892C6.37285 30.8892 9.55541 30.8892 11.588 30.8892C14.1287 30.8892 17.0705 30.488 19.0763 30.488C21.0822 30.488 25.3612 30.8892 27.0996 30.8892C28.838 30.8892 35.6577 30.8892 36.5938 30.8892C37.3426 30.8892 42.9232 30.8892 45.9542 30.8892" stroke="black" stroke-width="0.534884"/>
<path d="M5.30518 14.3091C6.64238 14.3091 9.29006 14.3091 11.3226 14.3091C13.8633 14.3091 17.0726 14.3091 19.0784 14.3091C21.0842 14.3091 25.6308 13.908 27.3691 13.908C29.1075 13.908 35.7935 14.3091 36.7296 14.3091C37.4784 14.3091 42.3459 15.1114 46.2238 14.3091" stroke="black" stroke-width="0.534884"/>
<path d="M5.83643 36.1021C7.17363 36.1021 9.82131 36.1021 11.8539 36.1021C14.3946 36.1021 17.6039 36.1021 19.6097 36.1021C21.6155 36.1021 26.162 35.7009 27.9004 35.7009C29.6387 35.7009 36.3248 36.1021 37.2608 36.1021C38.0097 36.1021 42.8771 36.9044 46.755 36.1021" stroke="black" stroke-width="0.534884"/>
<path d="M6.55337 12.7097C7.16857 10.1806 9.04949 5.39961 10.0301 3.34922C10.3844 1.33765 5.48361 0.4016 5.48361 3.88411C5.48361 4.45146 1.65713 9.35517 1.15762 14.8435C0.755995 19.2563 1.20453 23.4074 1.60569 25.6806H49.0766C49.3441 23.1845 50.7064 20.0643 49.7452 13.9132C49.0766 9.63411 46.2216 4.96007 45.553 3.88411C44.8844 2.80814 45.553 1.33782 43.0123 1.33765C40.4913 1.33747 40.7859 3.34922 40.7859 3.34922C41.6328 5.62248 43.6509 10.8029 44.2627 13.512C45.1987 17.6574 45.5999 21.8027 44.5301 22.0702C40.7414 22.0702 33.0301 22.2039 30.8906 22.2039C28.751 22.2039 13.596 22.0702 6.15223 21.9364C5.61732 22.3376 5.34985 17.6574 6.55337 12.7097Z" fill="#FEBB59" stroke="black" stroke-width="0.802326"/>
<path d="M22.9875 31.2909H25.1175H27.856C28.6922 31.2909 31.264 26.2079 31.5074 22.8193C31.7508 19.4306 27.1436 16.3142 25.6495 16.3142C24.9395 16.4151 22.379 16.9193 19.9447 19.9449C17.5105 22.9705 21.8459 31.2909 22.9875 31.2909Z" fill="#ED9C24" stroke="black" stroke-width="0.802326"/>
<path d="M24.3388 31.0215H24.9707H26.2836C26.9634 31.0215 30.1089 26.2181 30.3068 23.132C30.5047 20.0459 26.6178 17.6494 25.4032 17.6494C24.826 17.7413 22.1498 18.7192 20.8126 21.1262C19.2154 24.0014 23.4107 31.0215 24.3388 31.0215Z" stroke="black" stroke-width="0.267442"/>
<path d="M26.4213 24.4065C27.2068 25.344 27.5734 26.4117 27.7567 27.5576C27.8091 27.818 27.7043 27.9482 27.4163 28.0003C26.1856 28.1566 24.9288 28.0524 23.6981 27.9743C23.3839 27.9482 23.2529 27.792 23.2268 27.4534C23.1744 26.3076 23.6981 25.3961 24.3265 24.5107C24.3789 24.4326 24.4574 24.3544 24.5098 24.2763C23.1482 23.469 23.0173 21.3857 23.8552 20.2919C24.4574 19.5107 25.4001 19.3023 26.2903 19.7711C28.1756 20.7867 27.94 23.1565 26.7617 24.1461C26.6307 24.2242 26.5522 24.3024 26.4213 24.4065Z" fill="black"/>
<path d="M10.4354 37.5799C10.2215 36.4031 9.05366 28.9326 8.69707 25.6787H1.60986C2.0556 27.8628 3.13428 33.3008 3.88312 35.9752C4.63196 38.6496 5.75521 42.9287 6.2901 42.9287H25.011H44.8017C45.4703 42.9287 46.2459 39.8264 46.6738 38.1148C47.1017 36.4031 48.4122 29.1109 49.0808 25.6787H41.9466C41.902 26.7931 41.6726 29.7438 41.4587 32.0973C41.2447 34.4508 40.6564 39.452 40.1215 39.452H26.7494H10.8366C10.792 39.3182 10.6494 38.7566 10.4354 37.5799Z" fill="#FEBA5D" stroke="black" stroke-width="0.802326"/>
<ellipse cx="5.76398" cy="7.89301" rx="0.838089" ry="1.26562" transform="rotate(25.9035 5.76398 7.89301)" fill="#FFD15C"/>
<ellipse cx="4.20148" cy="12.7368" rx="0.838089" ry="1.26562" transform="rotate(25.9035 4.20148 12.7368)" fill="#FFD15C"/>
<ellipse cx="3.40168" cy="17.5529" rx="0.838089" ry="1.26562" transform="rotate(25.9035 3.40168 17.5529)" fill="#FFD15C"/>
<ellipse cx="45.4177" cy="7.93236" rx="0.838089" ry="1.26562" transform="rotate(-28.1216 45.4177 7.93236)" fill="#FFD15C"/>
<ellipse cx="47.0208" cy="12.7436" rx="0.838089" ry="1.26562" transform="rotate(-28.1216 47.0208 12.7436)" fill="#FFD15C"/>
<ellipse cx="47.8245" cy="17.5588" rx="0.838089" ry="1.26562" transform="rotate(-28.1216 47.8245 17.5588)" fill="#FFD15C"/>
<path d="M6.9347 7.61987C6.9347 8.26173 6.694 8.82335 6.2126 9.22452C5.89167 9.49196 5.51726 9.59894 5.08935 9.41173C4.68819 9.22452 4.50098 8.87684 4.50098 8.44894C4.50098 7.7001 4.76842 7.11173 5.38353 6.65708C5.73121 6.41638 6.05214 6.33615 6.42656 6.52336C6.80098 6.71057 6.9347 7.05824 6.9347 7.43266C6.9347 7.48615 6.9347 7.56638 6.9347 7.61987ZM4.95563 8.1815C4.95563 8.87684 5.33005 9.17103 5.81144 8.93033C6.29284 8.68963 6.694 7.86056 6.53353 7.32568C6.42656 6.87103 6.05214 6.73731 5.65098 6.95126C5.08935 7.2187 5.00912 7.72684 4.95563 8.1815Z" fill="black"/>
<path d="M44.0824 7.61962C44.0824 8.26148 44.3231 8.82311 44.8045 9.22427C45.1254 9.49172 45.4998 9.59869 45.9277 9.41148C46.3289 9.22427 46.5161 8.8766 46.5161 8.44869C46.5161 7.69986 46.2487 7.11148 45.6336 6.65683C45.2859 6.41613 44.965 6.3359 44.5905 6.52311C44.2161 6.71032 44.0824 7.058 44.0824 7.43241C44.0824 7.4859 44.0824 7.56613 44.0824 7.61962ZM46.0615 8.18125C46.0615 8.8766 45.687 9.17079 45.2056 8.93009C44.7243 8.68939 44.3231 7.86032 44.4836 7.32544C44.5905 6.87079 44.965 6.73706 45.3661 6.95102C45.9277 7.21846 46.008 7.7266 46.0615 8.18125Z" fill="black"/>
<path d="M5.32874 12.4321C5.32874 13.074 5.08804 13.6356 4.60665 14.0368C4.28572 14.3042 3.9113 14.4112 3.48339 14.224C3.08223 14.0368 2.89502 13.6891 2.89502 13.2612C2.89502 12.5124 3.16246 11.924 3.77758 11.4693C4.12525 11.2286 4.44618 11.1484 4.8206 11.3356C5.19502 11.5228 5.32874 11.8705 5.32874 12.2449C5.32874 12.2984 5.32874 12.3786 5.32874 12.4321ZM3.34967 12.9938C3.34967 13.6891 3.72409 13.9833 4.20548 13.7426C4.68688 13.5019 5.08804 12.6728 4.92758 12.1379C4.8206 11.6833 4.44618 11.5496 4.04502 11.7635C3.48339 12.031 3.40316 12.5391 3.34967 12.9938Z" fill="black"/>
<path d="M45.6883 12.4331C45.6883 13.075 45.929 13.6366 46.4104 14.0378C46.7314 14.3052 47.1058 14.4122 47.5337 14.225C47.9349 14.0378 48.1221 13.6901 48.1221 13.2622C48.1221 12.5133 47.8546 11.925 47.2395 11.4703C46.8918 11.2296 46.5709 11.1494 46.1965 11.3366C45.8221 11.5238 45.6883 11.8715 45.6883 12.2459C45.6883 12.2994 45.6883 12.3796 45.6883 12.4331ZM47.6674 12.9947C47.6674 13.6901 47.293 13.9843 46.8116 13.7436C46.3302 13.5029 45.929 12.6738 46.0895 12.1389C46.1965 11.6843 46.5709 11.5505 46.9721 11.7645C47.5337 12.0319 47.6139 12.5401 47.6674 12.9947Z" fill="black"/>
<path d="M4.53187 17.2466C4.53187 17.8884 4.29117 18.4501 3.80977 18.8512C3.48884 19.1187 3.11442 19.2256 2.68652 19.0384C2.28535 18.8512 2.09814 18.5036 2.09814 18.0756C2.09814 17.3268 2.36559 16.7384 2.9807 16.2838C3.32838 16.0431 3.64931 15.9629 4.02373 16.1501C4.39814 16.3373 4.53187 16.6849 4.53187 17.0594C4.53187 17.1129 4.53187 17.1931 4.53187 17.2466ZM2.5528 17.8082C2.5528 18.5036 2.92721 18.7977 3.40861 18.557C3.89 18.3163 4.29117 17.4873 4.1307 16.9524C4.02373 16.4977 3.64931 16.364 3.24814 16.578C2.68652 16.8454 2.60628 17.3536 2.5528 17.8082Z" fill="black"/>
<path d="M46.4925 17.2466C46.4925 17.8884 46.7332 18.4501 47.2146 18.8512C47.5356 19.1187 47.91 19.2256 48.3379 19.0384C48.7391 18.8512 48.9263 18.5036 48.9263 18.0756C48.9263 17.3268 48.6588 16.7384 48.0437 16.2838C47.696 16.0431 47.3751 15.9629 47.0007 16.1501C46.6263 16.3373 46.4925 16.6849 46.4925 17.0594C46.4925 17.1129 46.4925 17.1931 46.4925 17.2466ZM48.4716 17.8082C48.4716 18.5036 48.0972 18.7977 47.6158 18.557C47.1344 18.3163 46.7332 17.4873 46.8937 16.9524C47.0007 16.4977 47.3751 16.364 47.7763 16.578C48.3379 16.8454 48.4181 17.3536 48.4716 17.8082Z" fill="black"/>
</svg>
