<svg width="51" height="46" viewBox="0 0 51 46" fill="none" xmlns="http://www.w3.org/2000/svg">
<path d="M6.14856 44.8417H44.7939C45.8637 44.0929 48.1815 32.9406 49.2067 27.458L1.60205 27.8592C1.64662 28.1712 1.84275 29.4103 2.27066 31.8708C2.69856 34.3313 5.03422 41.5433 6.14856 44.8417Z" fill="#C01414" stroke="black" stroke-width="0.267442"/>
<path d="M25.0044 3.92236C16.3393 3.81539 8.55671 5.03671 5.74857 5.66074C5.0354 6.686 3.39511 9.29814 2.5393 11.5447C1.46953 14.3528 1.33578 17.6958 1.06834 20.3702C0.854382 22.5098 1.42492 26.0757 1.73694 27.5912H49.0741C49.3862 25.3625 49.93 19.8888 49.609 15.8237C49.2881 11.7586 46.5334 7.3546 45.1962 5.66074C42.0761 5.12585 33.6695 4.02934 25.0044 3.92236Z" fill="url(#paint0_linear_113_566)" stroke="black" stroke-width="0.802326"/>
<path d="M6.55385 14.4863C7.16906 11.9572 9.04998 7.17622 10.0306 5.12584C10.3849 3.11426 5.4841 2.17821 5.4841 5.66072C5.4841 6.22807 1.65761 11.1318 1.15811 16.6201C0.756484 21.0329 1.20502 25.184 1.60618 27.4572H49.0771C49.3445 24.9611 50.7069 21.841 49.7457 15.6898C49.0771 11.4107 46.2221 6.73668 45.5535 5.66072C44.8849 4.58475 45.5535 3.11443 43.0128 3.11426C40.4918 3.11408 40.7864 5.12584 40.7864 5.12584C41.6333 7.39909 43.6514 12.5796 44.2631 15.2886C45.1992 19.434 45.6004 23.5793 44.5306 23.8468C40.7419 23.8468 33.0306 23.9805 30.8911 23.9805C28.7515 23.9805 13.5965 23.8468 6.15272 23.7131C5.61781 24.1142 5.35034 19.434 6.55385 14.4863Z" fill="#FEBB59" stroke="black" stroke-width="0.802326"/>
<path d="M26.5436 2.17726C25.875 0.70657 23.7354 1.10749 23.3343 2.17726C23.3343 2.17726 23.0123 3.24702 22.3982 15.4159C22.1376 20.5816 21.9971 28.6543 21.9971 28.6543C22.2645 29.9917 27.5884 29.724 27.6133 28.7877C27.8362 20.4079 27.3671 3.98873 26.5436 2.17726Z" fill="#FEBB59" stroke="black" stroke-width="0.802326"/>
<path d="M10.4276 39.3592C10.2137 38.1824 9.04585 30.7119 8.68926 27.458H1.60205C2.04779 29.6421 3.12647 35.0801 3.87531 37.7545C4.62414 40.4289 5.7474 44.708 6.28228 44.708H25.0032H44.7939C45.4625 44.708 46.2381 41.6057 46.666 39.8941C47.0939 38.1824 48.4044 30.8902 49.073 27.458H41.9388C41.8942 28.5723 41.6648 31.5231 41.4509 33.8766C41.2369 36.2301 40.6486 41.2313 40.1137 41.2313H26.7416H10.8288C10.7842 41.0975 10.6416 40.5359 10.4276 39.3592Z" fill="#FEBA5D" stroke="black" stroke-width="0.802326"/>
<ellipse cx="5.76057" cy="9.66865" rx="0.838089" ry="1.26562" transform="rotate(25.9035 5.76057 9.66865)" fill="#FFD15C"/>
<ellipse cx="4.19807" cy="14.5144" rx="0.838089" ry="1.26562" transform="rotate(25.9035 4.19807 14.5144)" fill="#FFD15C"/>
<ellipse cx="3.40217" cy="19.3261" rx="0.838089" ry="1.26562" transform="rotate(25.9035 3.40217 19.3261)" fill="#FFD15C"/>
<ellipse cx="45.4182" cy="9.7036" rx="0.838089" ry="1.26562" transform="rotate(-28.1216 45.4182 9.7036)" fill="#FFD15C"/>
<ellipse cx="47.0212" cy="14.5207" rx="0.838089" ry="1.26562" transform="rotate(-28.1216 47.0212 14.5207)" fill="#FFD15C"/>
<ellipse cx="47.821" cy="19.3345" rx="0.838089" ry="1.26562" transform="rotate(-28.1216 47.821 19.3345)" fill="#FFD15C"/>
<path d="M6.93519 9.39306C6.93519 10.0349 6.69449 10.5965 6.21309 10.9977C5.89216 11.2652 5.51774 11.3721 5.08984 11.1849C4.68867 10.9977 4.50146 10.65 4.50146 10.2221C4.50146 9.47329 4.76891 8.88492 5.38402 8.43027C5.7317 8.18957 6.05263 8.10934 6.42705 8.29655C6.80146 8.48376 6.93519 8.83143 6.93519 9.20585C6.93519 9.25934 6.93519 9.33957 6.93519 9.39306ZM4.95612 9.95469C4.95612 10.65 5.33053 10.9442 5.81193 10.7035C6.29333 10.4628 6.69449 9.63376 6.53402 9.09887C6.42705 8.64422 6.05263 8.5105 5.65146 8.72446C5.08984 8.9919 5.0096 9.50004 4.95612 9.95469Z" fill="black"/>
<path d="M44.0829 9.3933C44.0829 10.0352 44.3236 10.5968 44.805 10.998C45.1259 11.2654 45.5003 11.3724 45.9282 11.1852C46.3294 10.998 46.5166 10.6503 46.5166 10.2224C46.5166 9.47354 46.2492 8.88517 45.634 8.43051C45.2864 8.18982 44.9654 8.10958 44.591 8.29679C44.2166 8.484 44.0829 8.83168 44.0829 9.2061C44.0829 9.25958 44.0829 9.33982 44.0829 9.3933ZM46.062 9.95493C46.062 10.6503 45.6875 10.9445 45.2061 10.7038C44.7247 10.4631 44.3236 9.634 44.484 9.09912C44.591 8.64447 44.9654 8.51075 45.3666 8.7247C45.9282 8.99214 46.0085 9.50028 46.062 9.95493Z" fill="black"/>
<path d="M5.32923 14.2058C5.32923 14.8477 5.08853 15.4093 4.60714 15.8105C4.28621 16.0779 3.91179 16.1849 3.48388 15.9977C3.08272 15.8105 2.89551 15.4628 2.89551 15.0349C2.89551 14.286 3.16295 13.6977 3.77807 13.243C4.12574 13.0023 4.44667 12.9221 4.82109 13.1093C5.19551 13.2965 5.32923 13.6442 5.32923 14.0186C5.32923 14.0721 5.32923 14.1523 5.32923 14.2058ZM3.35016 14.7674C3.35016 15.4628 3.72458 15.757 4.20597 15.5163C4.68737 15.2756 5.08853 14.4465 4.92807 13.9116C4.82109 13.457 4.44667 13.3232 4.04551 13.5372C3.48388 13.8046 3.40365 14.3128 3.35016 14.7674Z" fill="black"/>
<path d="M45.6849 14.2063C45.6849 14.8482 45.9256 15.4098 46.407 15.8109C46.728 16.0784 47.1024 16.1854 47.5303 15.9982C47.9314 15.8109 48.1187 15.4633 48.1187 15.0354C48.1187 14.2865 47.8512 13.6982 47.2361 13.2435C46.8884 13.0028 46.5675 12.9226 46.1931 13.1098C45.8187 13.297 45.6849 13.6447 45.6849 14.0191C45.6849 14.0726 45.6849 14.1528 45.6849 14.2063ZM47.664 14.7679C47.664 15.4633 47.2896 15.7575 46.8082 15.5168C46.3268 15.2761 45.9256 14.447 46.0861 13.9121C46.1931 13.4575 46.5675 13.3237 46.9687 13.5377C47.5303 13.8051 47.6105 14.3133 47.664 14.7679Z" fill="black"/>
<path d="M4.53235 19.0222C4.53235 19.6641 4.29166 20.2257 3.81026 20.6269C3.48933 20.8943 3.11491 21.0013 2.687 20.8141C2.28584 20.6269 2.09863 20.2792 2.09863 19.8513C2.09863 19.1024 2.36607 18.5141 2.98119 18.0594C3.32887 17.8187 3.6498 17.7385 4.02421 17.9257C4.39863 18.1129 4.53235 18.4606 4.53235 18.835C4.53235 18.8885 4.53235 18.9687 4.53235 19.0222ZM2.55328 19.5838C2.55328 20.2792 2.9277 20.5734 3.4091 20.3327C3.89049 20.092 4.29166 19.2629 4.13119 18.728C4.02421 18.2734 3.6498 18.1397 3.24863 18.3536C2.687 18.621 2.60677 19.1292 2.55328 19.5838Z" fill="black"/>
<path d="M46.4852 19.0222C46.4852 19.6641 46.7259 20.2257 47.2073 20.6269C47.5282 20.8943 47.9027 21.0013 48.3306 20.8141C48.7317 20.6269 48.9189 20.2792 48.9189 19.8513C48.9189 19.1024 48.6515 18.5141 48.0364 18.0594C47.6887 17.8187 47.3678 17.7385 46.9934 17.9257C46.6189 18.1129 46.4852 18.4606 46.4852 18.835C46.4852 18.8885 46.4852 18.9687 46.4852 19.0222ZM48.4643 19.5838C48.4643 20.2792 48.0899 20.5734 47.6085 20.3327C47.1271 20.092 46.7259 19.2629 46.8864 18.728C46.9934 18.2734 47.3678 18.1397 47.7689 18.3536C48.3306 18.621 48.4108 19.1292 48.4643 19.5838Z" fill="black"/>
<circle cx="25.0726" cy="27.4515" r="6.55233" fill="#BACFD0"/>
<circle cx="25.0726" cy="27.4515" r="6.55233" fill="url(#paint1_linear_113_566)"/>
<circle cx="25.0726" cy="27.4515" r="6.55233" stroke="black" stroke-width="0.802326"/>
<circle cx="25.0743" cy="27.4522" r="5.48256" fill="#BACFD0"/>
<circle cx="25.0743" cy="27.4522" r="5.48256" fill="url(#paint2_linear_113_566)"/>
<circle cx="25.0743" cy="27.4522" r="5.48256" stroke="black" stroke-width="0.267442"/>
<path d="M26.0474 27.9423C26.8791 28.704 27.2673 29.5716 27.4613 30.5026C27.5168 30.7141 27.4059 30.8199 27.1009 30.8623C25.7979 30.9892 24.4671 30.9046 23.164 30.8411C22.8313 30.8199 22.6927 30.693 22.665 30.4179C22.6095 29.4869 23.164 28.7464 23.8294 28.027C23.8849 27.9635 23.968 27.9 24.0235 27.8365C22.5818 27.1806 22.4432 25.4879 23.3304 24.5992C23.968 23.9644 24.9661 23.7952 25.9088 24.176C27.9049 25.0012 27.6554 26.9267 26.4078 27.7307C26.2692 27.7942 26.186 27.8577 26.0474 27.9423Z" fill="black"/>
<defs>
<linearGradient id="paint0_linear_113_566" x1="25.3642" y1="3.91577" x2="25.3642" y2="27.5912" gradientUnits="userSpaceOnUse">
<stop stop-color="#FF6534"/>
<stop offset="1" stop-color="#C01414"/>
</linearGradient>
<linearGradient id="paint1_linear_113_566" x1="25.0726" y1="20.498" x2="25.0726" y2="34.405" gradientUnits="userSpaceOnUse">
<stop stop-color="#FFDBA9"/>
<stop offset="1" stop-color="#FEBA5D"/>
</linearGradient>
<linearGradient id="paint2_linear_113_566" x1="25.0743" y1="21.8359" x2="25.0743" y2="33.0685" gradientUnits="userSpaceOnUse">
<stop stop-color="#FFDBA9"/>
<stop offset="1" stop-color="#FEBA5D"/>
</linearGradient>
</defs>
</svg>
