<svg width="51" height="42" viewBox="0 0 51 42" fill="none" xmlns="http://www.w3.org/2000/svg">
<path d="M6.13294 41.6271H44.7783C45.848 40.8783 48.1659 29.726 49.1911 24.2434L1.58643 24.6446C1.631 24.9566 1.82712 26.1957 2.25503 28.6562C2.68294 31.1167 5.0186 38.3287 6.13294 41.6271Z" fill="#8C5129" stroke="black" stroke-width="0.267442"/>
<path d="M24.9834 0.707033C16.3183 0.600056 8.53571 1.82137 5.72757 2.4454C5.0144 3.47066 3.37411 6.08281 2.5183 8.32932C1.44853 11.1375 1.31478 14.4805 1.04734 17.1549C0.833386 19.2944 1.40393 22.8603 1.71594 24.3758H49.0532C49.3652 22.1472 49.909 16.6735 49.588 12.6084C49.2671 8.54328 46.5125 4.13927 45.1752 2.4454C42.0551 1.91052 33.6485 0.814009 24.9834 0.707033Z" fill="#8C5129" stroke="black" stroke-width="0.802326"/>
<path d="M4.48047 6.71708C5.81768 6.71708 9.00024 6.71708 11.0328 6.71708C13.5735 6.71708 16.5154 6.31592 18.5212 6.31592C20.527 6.31592 24.806 6.71708 26.5444 6.71708C28.2828 6.71708 35.1026 6.71708 36.0386 6.71708C36.7874 6.71708 42.3681 6.71708 45.3991 6.71708" stroke="black" stroke-width="0.534884"/>
<path d="M5.01221 29.4519C6.34942 29.4519 9.53197 29.4519 11.5645 29.4519C14.1052 29.4519 17.0471 29.0508 19.0529 29.0508C21.0587 29.0508 25.3378 29.4519 27.0762 29.4519C28.8145 29.4519 35.6343 29.4519 36.5703 29.4519C37.3192 29.4519 42.8998 29.4519 45.9308 29.4519" stroke="black" stroke-width="0.534884"/>
<path d="M5.27783 12.8694C6.61504 12.8694 9.26272 12.8694 11.2953 12.8694C13.836 12.8694 17.0453 12.8694 19.0511 12.8694C21.0569 12.8694 25.6034 12.4683 27.3418 12.4683C29.0802 12.4683 35.7662 12.8694 36.7022 12.8694C37.4511 12.8694 42.3185 13.6717 46.1964 12.8694" stroke="black" stroke-width="0.534884"/>
<path d="M5.81787 34.6639C7.15508 34.6639 9.80275 34.6639 11.8353 34.6639C14.376 34.6639 17.5853 34.6639 19.5911 34.6639C21.5969 34.6639 26.1435 34.2627 27.8818 34.2627C29.6202 34.2627 36.3062 34.6639 37.2423 34.6639C37.9911 34.6639 42.8586 35.4662 46.7365 34.6639" stroke="black" stroke-width="0.534884"/>
<path d="M6.53209 11.2679C7.14729 8.73883 9.02821 3.95786 10.0088 1.90747C8.62705 1.90747 5.78328 2.12142 5.46233 2.44235C5.06114 2.84352 1.60893 8.99468 1.18328 13.6749C0.886853 16.9343 1.18325 21.9656 1.58441 24.2389H49.0553C49.3228 21.7427 50.6851 18.6226 49.7239 12.4714C49.0553 8.19235 46.1135 2.44235 45.1774 2.44235L40.7646 1.90747C41.6115 4.18073 43.6297 9.36119 44.2414 12.0703C45.1774 16.2156 45.5787 20.361 44.5089 20.6284C40.7201 20.6284 33.0088 20.7621 30.8693 20.7621C28.7298 20.7621 13.5748 20.6284 6.13096 20.4947C5.59605 20.8958 5.32857 16.2156 6.53209 11.2679Z" fill="#DBDBDB" stroke="black" stroke-width="0.802326"/>
<path d="M22.9534 29.851H25.0833H27.8218C28.6581 29.851 31.2298 24.768 31.4732 21.3793C31.7166 17.9906 27.1094 14.8743 25.6153 14.8743C24.9054 14.9751 22.3448 15.4794 19.9105 18.505C17.4763 21.5306 21.8117 29.851 22.9534 29.851Z" fill="#C4C4C4" stroke="black" stroke-width="0.802326"/>
<path d="M24.3183 29.5801H24.9502H26.2631C26.9429 29.5801 30.0884 24.7767 30.2863 21.6906C30.4842 18.6044 26.5973 16.208 25.3827 16.208C24.8055 16.2999 22.1293 17.2778 20.7921 19.6848C19.1949 22.56 23.3902 29.5801 24.3183 29.5801Z" stroke="black" stroke-width="0.267442"/>
<path d="M26.4056 22.9666C27.1912 23.9041 27.5578 24.9718 27.7411 26.1176C27.7934 26.3781 27.6887 26.5083 27.4007 26.5604C26.17 26.7166 24.9131 26.6124 23.6825 26.5343C23.3682 26.5083 23.2373 26.352 23.2111 26.0135C23.1588 24.8676 23.6825 23.9562 24.3109 23.0708C24.3633 22.9926 24.4418 22.9145 24.4942 22.8364C23.1326 22.0291 23.0017 19.9457 23.8396 18.852C24.4418 18.0707 25.3845 17.8624 26.2747 18.3311C28.16 19.3468 27.9243 21.7166 26.746 22.7062C26.6151 22.7843 26.5366 22.8624 26.4056 22.9666Z" fill="black"/>
<path d="M10.412 36.1446C10.1981 34.9678 9.03022 27.4973 8.67363 24.2434H1.58643C2.03216 26.4275 3.11084 31.8655 3.85968 34.5399C4.60852 37.2143 5.73177 41.4934 6.26666 41.4934H24.9876H44.7783C45.4469 41.4934 46.2225 38.3911 46.6504 36.6795C47.0783 34.9678 48.3887 27.6756 49.0574 24.2434H41.9231C41.8786 25.3577 41.6492 28.3085 41.4353 30.662C41.2213 33.0155 40.6329 38.0167 40.098 38.0167H26.726H10.8132C10.7686 37.8829 10.626 37.3213 10.412 36.1446Z" fill="#DBDBDB" stroke="black" stroke-width="0.802326"/>
<path d="M6.91419 6.1787C6.91419 6.82057 6.67349 7.38219 6.1921 7.78336C5.87117 8.0508 5.49675 8.15777 5.06884 7.97057C4.66768 7.78336 4.48047 7.43568 4.48047 7.00777C4.48047 6.25894 4.74791 5.67057 5.36303 5.21591C5.7107 4.97522 6.03163 4.89498 6.40605 5.08219C6.78047 5.2694 6.91419 5.61708 6.91419 5.9915C6.91419 6.04498 6.91419 6.12522 6.91419 6.1787ZM4.93512 6.74033C4.93512 7.43568 5.30954 7.72987 5.79093 7.48917C6.27233 7.24847 6.67349 6.4194 6.51303 5.88452C6.40605 5.42987 6.03163 5.29615 5.63047 5.5101C5.06884 5.77754 4.98861 6.28568 4.93512 6.74033Z" fill="black"/>
<path d="M44.055 6.17773C44.055 6.81959 44.2957 7.38122 44.7771 7.78238C45.0981 8.04982 45.4725 8.1568 45.9004 7.96959C46.3016 7.78238 46.4888 7.43471 46.4888 7.0068C46.4888 6.25796 46.2213 5.66959 45.6062 5.21494C45.2585 4.97424 44.9376 4.89401 44.5632 5.08122C44.1888 5.26843 44.055 5.6161 44.055 5.99052C44.055 6.04401 44.055 6.12424 44.055 6.17773ZM46.0341 6.73936C46.0341 7.43471 45.6597 7.72889 45.1783 7.48819C44.6969 7.2475 44.2957 6.41843 44.4562 5.88354C44.5632 5.42889 44.9376 5.29517 45.3388 5.50912C45.9004 5.77657 45.9806 6.28471 46.0341 6.73936Z" fill="black"/>
<path d="M5.3053 10.9922C5.3053 11.634 5.06461 12.1957 4.58321 12.5968C4.26228 12.8643 3.88786 12.9713 3.45995 12.784C3.05879 12.5968 2.87158 12.2492 2.87158 11.8213C2.87158 11.0724 3.13902 10.484 3.75414 10.0294C4.10181 9.78869 4.42274 9.70846 4.79716 9.89567C5.17158 10.0829 5.3053 10.4306 5.3053 10.805C5.3053 10.8585 5.3053 10.9387 5.3053 10.9922ZM3.32623 11.5538C3.32623 12.2492 3.70065 12.5433 4.18205 12.3026C4.66344 12.0619 5.06461 11.2329 4.90414 10.698C4.79716 10.2433 4.42274 10.1096 4.02158 10.3236C3.45995 10.591 3.37972 11.0992 3.32623 11.5538Z" fill="black"/>
<path d="M45.6678 10.9919C45.6678 11.6338 45.9085 12.1954 46.3899 12.5966C46.7109 12.864 47.0853 12.971 47.5132 12.7838C47.9144 12.5966 48.1016 12.2489 48.1016 11.821C48.1016 11.0722 47.8341 10.4838 47.219 10.0291C46.8713 9.78845 46.5504 9.70822 46.176 9.89543C45.8016 10.0826 45.6678 10.4303 45.6678 10.8047C45.6678 10.8582 45.6678 10.9384 45.6678 10.9919ZM47.6469 11.5536C47.6469 12.2489 47.2725 12.5431 46.7911 12.3024C46.3097 12.0617 45.9085 11.2326 46.069 10.6978C46.176 10.2431 46.5504 10.1094 46.9516 10.3233C47.5132 10.5908 47.5934 11.0989 47.6469 11.5536Z" fill="black"/>
<path d="M4.50452 15.8066C4.50452 16.4485 4.26382 17.0101 3.78243 17.4113C3.4615 17.6787 3.08708 17.7857 2.65917 17.5985C2.25801 17.4113 2.0708 17.0636 2.0708 16.6357C2.0708 15.8869 2.33824 15.2985 2.95336 14.8438C3.30103 14.6031 3.62196 14.5229 3.99638 14.7101C4.3708 14.8973 4.50452 15.245 4.50452 15.6194C4.50452 15.6729 4.50452 15.7531 4.50452 15.8066ZM2.52545 16.3683C2.52545 17.0636 2.89987 17.3578 3.38127 17.1171C3.86266 16.8764 4.26382 16.0473 4.10336 15.5124C3.99638 15.0578 3.62196 14.9241 3.2208 15.138C2.65917 15.4055 2.57894 15.9136 2.52545 16.3683Z" fill="black"/>
<path d="M46.4652 15.8071C46.4652 16.449 46.7059 17.0106 47.1873 17.4118C47.5082 17.6792 47.8826 17.7862 48.3106 17.599C48.7117 17.4118 48.8989 17.0641 48.8989 16.6362C48.8989 15.8874 48.6315 15.299 48.0164 14.8443C47.6687 14.6036 47.3478 14.5234 46.9733 14.7106C46.5989 14.8978 46.4652 15.2455 46.4652 15.6199C46.4652 15.6734 46.4652 15.7536 46.4652 15.8071ZM48.4443 16.3688C48.4443 17.0641 48.0699 17.3583 47.5885 17.1176C47.1071 16.8769 46.7059 16.0478 46.8664 15.5129C46.9733 15.0583 47.3478 14.9246 47.7489 15.1385C48.3106 15.406 48.3908 15.9141 48.4443 16.3688Z" fill="black"/>
</svg>
