<svg width="51" height="45" viewBox="0 0 51 45" fill="none" xmlns="http://www.w3.org/2000/svg">
<path d="M6.14856 44.2856H44.7939C45.8637 43.5367 48.1815 32.3844 49.2067 26.9019L1.60205 27.303C1.64662 27.615 1.84275 28.8542 2.27066 31.3146C2.69856 33.7751 5.03422 40.9871 6.14856 44.2856Z" fill="#C01414"/>
<path d="M6.14856 44.2856H44.7939C45.8637 43.5367 48.1815 32.3844 49.2067 26.9019L1.60205 27.303C1.64662 27.615 1.84275 28.8542 2.27066 31.3146C2.69856 33.7751 5.03422 40.9871 6.14856 44.2856Z" fill="url(#paint0_linear_113_597)"/>
<path d="M6.14856 44.2856H44.7939C45.8637 43.5367 48.1815 32.3844 49.2067 26.9019L1.60205 27.303C1.64662 27.615 1.84275 28.8542 2.27066 31.3146C2.69856 33.7751 5.03422 40.9871 6.14856 44.2856Z" stroke="black" stroke-width="0.267442"/>
<path d="M25.0044 3.36621C16.3393 3.25924 8.55671 4.48055 5.74857 5.10458C5.0354 6.12984 3.39511 8.74199 2.5393 10.9885C1.46953 13.7966 1.33578 17.1397 1.06834 19.8141C0.854382 21.9536 1.42492 25.5195 1.73694 27.035H49.0741C49.3862 24.8063 49.93 19.3327 49.609 15.2676C49.2881 11.2025 46.5334 6.79845 45.1962 5.10458C42.0761 4.5697 33.6695 3.47319 25.0044 3.36621Z" fill="url(#paint1_linear_113_597)" stroke="black" stroke-width="0.802326"/>
<path d="M6.55385 13.9301C7.16906 11.401 9.04998 6.62007 10.0306 4.56968C10.3849 2.55811 5.4841 1.62206 5.4841 5.10457C5.4841 5.67192 1.65761 10.5756 1.15811 16.0639C0.756484 20.4767 1.20502 24.6278 1.60618 26.9011H49.0771C49.3445 24.405 50.7069 21.2848 49.7457 15.1336C49.0771 10.8546 46.2221 6.18053 45.5535 5.10457C44.8849 4.0286 45.5535 2.55828 43.0128 2.55811C40.4918 2.55793 40.7864 4.56968 40.7864 4.56968C41.6333 6.84294 43.6514 12.0234 44.2631 14.7325C45.1992 18.8778 45.6004 23.0232 44.5306 23.2906C40.7419 23.2906 33.0306 23.4243 30.8911 23.4243C28.7515 23.4243 13.5965 23.2906 6.15272 23.1569C5.61781 23.5581 5.35034 18.8778 6.55385 13.9301Z" fill="#FEBB59"/>
<path d="M6.55385 13.9301C7.16906 11.401 9.04998 6.62007 10.0306 4.56968C10.3849 2.55811 5.4841 1.62206 5.4841 5.10457C5.4841 5.67192 1.65761 10.5756 1.15811 16.0639C0.756484 20.4767 1.20502 24.6278 1.60618 26.9011H49.0771C49.3445 24.405 50.7069 21.2848 49.7457 15.1336C49.0771 10.8546 46.2221 6.18053 45.5535 5.10457C44.8849 4.0286 45.5535 2.55828 43.0128 2.55811C40.4918 2.55793 40.7864 4.56968 40.7864 4.56968C41.6333 6.84294 43.6514 12.0234 44.2631 14.7325C45.1992 18.8778 45.6004 23.0232 44.5306 23.2906C40.7419 23.2906 33.0306 23.4243 30.8911 23.4243C28.7515 23.4243 13.5965 23.2906 6.15272 23.1569C5.61781 23.5581 5.35034 18.8778 6.55385 13.9301Z" fill="url(#paint2_linear_113_597)"/>
<path d="M6.55385 13.9301C7.16906 11.401 9.04998 6.62007 10.0306 4.56968C10.3849 2.55811 5.4841 1.62206 5.4841 5.10457C5.4841 5.67192 1.65761 10.5756 1.15811 16.0639C0.756484 20.4767 1.20502 24.6278 1.60618 26.9011H49.0771C49.3445 24.405 50.7069 21.2848 49.7457 15.1336C49.0771 10.8546 46.2221 6.18053 45.5535 5.10457C44.8849 4.0286 45.5535 2.55828 43.0128 2.55811C40.4918 2.55793 40.7864 4.56968 40.7864 4.56968C41.6333 6.84294 43.6514 12.0234 44.2631 14.7325C45.1992 18.8778 45.6004 23.0232 44.5306 23.2906C40.7419 23.2906 33.0306 23.4243 30.8911 23.4243C28.7515 23.4243 13.5965 23.2906 6.15272 23.1569C5.61781 23.5581 5.35034 18.8778 6.55385 13.9301Z" stroke="black" stroke-width="0.802326"/>
<path d="M26.5774 2.10005C25.8838 -0.105454 23.6642 0.495782 23.2481 2.10005C23.2481 2.10005 22.914 3.70431 22.277 21.9532C22.0066 29.6999 21.8608 41.806 21.8608 41.806C22.1383 43.8117 27.6613 43.4102 27.6872 42.0061C27.9184 29.4394 27.4317 4.8166 26.5774 2.10005Z" fill="#FEBB59"/>
<path d="M26.5774 2.10005C25.8838 -0.105454 23.6642 0.495782 23.2481 2.10005C23.2481 2.10005 22.914 3.70431 22.277 21.9532C22.0066 29.6999 21.8608 41.806 21.8608 41.806C22.1383 43.8117 27.6613 43.4102 27.6872 42.0061C27.9184 29.4394 27.4317 4.8166 26.5774 2.10005Z" fill="url(#paint3_linear_113_597)"/>
<path d="M26.5774 2.10005C25.8838 -0.105454 23.6642 0.495782 23.2481 2.10005C23.2481 2.10005 22.914 3.70431 22.277 21.9532C22.0066 29.6999 21.8608 41.806 21.8608 41.806C22.1383 43.8117 27.6613 43.4102 27.6872 42.0061C27.9184 29.4394 27.4317 4.8166 26.5774 2.10005Z" stroke="black" stroke-width="0.802326"/>
<path d="M10.4276 38.803C10.2137 37.6263 9.04585 30.1557 8.68926 26.9019H1.60205C2.04779 29.086 3.12647 34.5239 3.87531 37.1984C4.62414 39.8728 5.7474 44.1519 6.28228 44.1519H25.0032H44.7939C45.4625 44.1519 46.2381 41.0495 46.666 39.3379C47.0939 37.6263 48.4044 30.334 49.073 26.9019H41.9388C41.8942 28.0162 41.6648 30.967 41.4509 33.3205C41.2369 35.6739 40.6486 40.6751 40.1137 40.6751H26.7416H10.8288C10.7842 40.5414 10.6416 39.9798 10.4276 38.803Z" fill="#FEBA5D"/>
<path d="M10.4276 38.803C10.2137 37.6263 9.04585 30.1557 8.68926 26.9019H1.60205C2.04779 29.086 3.12647 34.5239 3.87531 37.1984C4.62414 39.8728 5.7474 44.1519 6.28228 44.1519H25.0032H44.7939C45.4625 44.1519 46.2381 41.0495 46.666 39.3379C47.0939 37.6263 48.4044 30.334 49.073 26.9019H41.9388C41.8942 28.0162 41.6648 30.967 41.4509 33.3205C41.2369 35.6739 40.6486 40.6751 40.1137 40.6751H26.7416H10.8288C10.7842 40.5414 10.6416 39.9798 10.4276 38.803Z" fill="url(#paint4_linear_113_597)"/>
<path d="M10.4276 38.803C10.2137 37.6263 9.04585 30.1557 8.68926 26.9019H1.60205C2.04779 29.086 3.12647 34.5239 3.87531 37.1984C4.62414 39.8728 5.7474 44.1519 6.28228 44.1519H25.0032H44.7939C45.4625 44.1519 46.2381 41.0495 46.666 39.3379C47.0939 37.6263 48.4044 30.334 49.073 26.9019H41.9388C41.8942 28.0162 41.6648 30.967 41.4509 33.3205C41.2369 35.6739 40.6486 40.6751 40.1137 40.6751H26.7416H10.8288C10.7842 40.5414 10.6416 39.9798 10.4276 38.803Z" stroke="black" stroke-width="0.802326"/>
<ellipse cx="4.19807" cy="13.9582" rx="0.838089" ry="1.26562" transform="rotate(25.9035 4.19807 13.9582)" fill="#FFD15C"/>
<ellipse cx="4.19807" cy="13.9582" rx="0.838089" ry="1.26562" transform="rotate(25.9035 4.19807 13.9582)" fill="url(#paint5_linear_113_597)"/>
<ellipse cx="3.40217" cy="18.77" rx="0.838089" ry="1.26562" transform="rotate(25.9035 3.40217 18.77)" fill="#FFD15C"/>
<ellipse cx="3.40217" cy="18.77" rx="0.838089" ry="1.26562" transform="rotate(25.9035 3.40217 18.77)" fill="url(#paint6_linear_113_597)"/>
<ellipse cx="45.4182" cy="9.14745" rx="0.838089" ry="1.26562" transform="rotate(-28.1216 45.4182 9.14745)" fill="#FFD15C"/>
<ellipse cx="45.4182" cy="9.14745" rx="0.838089" ry="1.26562" transform="rotate(-28.1216 45.4182 9.14745)" fill="url(#paint7_linear_113_597)"/>
<ellipse cx="47.0212" cy="13.9646" rx="0.838089" ry="1.26562" transform="rotate(-28.1216 47.0212 13.9646)" fill="#FFD15C"/>
<ellipse cx="47.0212" cy="13.9646" rx="0.838089" ry="1.26562" transform="rotate(-28.1216 47.0212 13.9646)" fill="url(#paint8_linear_113_597)"/>
<ellipse cx="47.821" cy="18.7783" rx="0.838089" ry="1.26562" transform="rotate(-28.1216 47.821 18.7783)" fill="#FFD15C"/>
<ellipse cx="47.821" cy="18.7783" rx="0.838089" ry="1.26562" transform="rotate(-28.1216 47.821 18.7783)" fill="url(#paint9_linear_113_597)"/>
<ellipse cx="5.76447" cy="9.11689" rx="0.838089" ry="1.26562" transform="rotate(25.9035 5.76447 9.11689)" fill="url(#paint10_linear_113_597)"/>
<path d="M6.93812 8.84081C6.93812 9.48267 6.69742 10.0443 6.21602 10.4455C5.89509 10.7129 5.52067 10.8199 5.09277 10.6327C4.6916 10.4455 4.50439 10.0978 4.50439 9.66988C4.50439 8.92105 4.77184 8.33268 5.38695 7.87802C5.73463 7.63733 6.05556 7.55709 6.42998 7.7443C6.80439 7.93151 6.93812 8.27919 6.93812 8.65361C6.93812 8.70709 6.93812 8.78733 6.93812 8.84081ZM4.95905 9.40244C4.95905 10.0978 5.33346 10.392 5.81486 10.1513C6.29625 9.91058 6.69742 9.08151 6.53695 8.54663C6.42998 8.09198 6.05556 7.95826 5.65439 8.17221C5.09277 8.43965 5.01253 8.94779 4.95905 9.40244Z" fill="black"/>
<ellipse cx="24.9989" cy="6.57857" rx="0.838089" ry="1.26562" transform="rotate(2.10944 24.9989 6.57857)" fill="#FFD15C"/>
<ellipse cx="24.9989" cy="6.57857" rx="0.838089" ry="1.26562" transform="rotate(2.10944 24.9989 6.57857)" fill="url(#paint11_linear_113_597)"/>
<path d="M25.958 5.85288C26.217 6.44019 26.2234 7.05119 25.9447 7.61247C25.759 7.98666 25.4595 8.2356 24.9925 8.23694C24.5499 8.2275 24.2383 7.9849 24.0657 7.59337C23.7636 6.90818 23.7709 6.26192 24.1503 5.59775C24.3713 5.23724 24.6326 5.03435 25.0507 5.05458C25.4688 5.07482 25.7315 5.33899 25.8825 5.68159C25.9041 5.73053 25.9365 5.80394 25.958 5.85288ZM24.3738 7.16523C24.6543 7.80148 25.1156 7.9196 25.459 7.50514C25.8023 7.09068 25.8349 6.17023 25.4723 5.74555C25.191 5.37271 24.7944 5.40141 24.5137 5.75903C24.1077 6.23032 24.2393 6.72764 24.3738 7.16523Z" fill="black"/>
<ellipse cx="24.9989" cy="11.393" rx="0.838089" ry="1.26562" transform="rotate(2.10944 24.9989 11.393)" fill="#FFD15C"/>
<ellipse cx="24.9989" cy="11.393" rx="0.838089" ry="1.26562" transform="rotate(2.10944 24.9989 11.393)" fill="url(#paint12_linear_113_597)"/>
<path d="M25.958 10.6673C26.217 11.2546 26.2234 11.8656 25.9447 12.4269C25.759 12.8011 25.4595 13.0501 24.9925 13.0514C24.5499 13.042 24.2383 12.7994 24.0657 12.4078C23.7636 11.7226 23.7709 11.0764 24.1503 10.4122C24.3713 10.0517 24.6326 9.8488 25.0507 9.86904C25.4688 9.88927 25.7315 10.1534 25.8825 10.496C25.9041 10.545 25.9365 10.6184 25.958 10.6673ZM24.3738 11.9797C24.6543 12.6159 25.1156 12.734 25.459 12.3196C25.8023 11.9051 25.8349 10.9847 25.4723 10.56C25.191 10.1872 24.7944 10.2159 24.5137 10.5735C24.1077 11.0448 24.2393 11.5421 24.3738 11.9797Z" fill="black"/>
<ellipse cx="24.9989" cy="16.4731" rx="0.838089" ry="1.26562" transform="rotate(2.10944 24.9989 16.4731)" fill="#FFD15C"/>
<ellipse cx="24.9989" cy="16.4731" rx="0.838089" ry="1.26562" transform="rotate(2.10944 24.9989 16.4731)" fill="url(#paint13_linear_113_597)"/>
<path d="M25.958 15.7474C26.217 16.3347 26.2234 16.9457 25.9447 17.507C25.759 17.8812 25.4595 18.1301 24.9925 18.1315C24.5499 18.122 24.2383 17.8794 24.0657 17.4879C23.7636 16.8027 23.7709 16.1565 24.1503 15.4923C24.3713 15.1318 24.6326 14.9289 25.0507 14.9491C25.4688 14.9694 25.7315 15.2335 25.8825 15.5761C25.9041 15.6251 25.9365 15.6985 25.958 15.7474ZM24.3738 17.0598C24.6543 17.696 25.1156 17.8141 25.459 17.3997C25.8023 16.9852 25.8349 16.0648 25.4723 15.6401C25.191 15.2672 24.7944 15.2959 24.5137 15.6536C24.1077 16.1249 24.2393 16.6222 24.3738 17.0598Z" fill="black"/>
<ellipse cx="24.9989" cy="37.3344" rx="0.838089" ry="1.26562" transform="rotate(2.10944 24.9989 37.3344)" fill="#FFD15C"/>
<ellipse cx="24.9989" cy="37.3344" rx="0.838089" ry="1.26562" transform="rotate(2.10944 24.9989 37.3344)" fill="url(#paint14_linear_113_597)"/>
<path d="M25.958 36.6129C26.217 37.2002 26.2234 37.8112 25.9447 38.3725C25.759 38.7467 25.4595 38.9956 24.9925 38.997C24.5499 38.9875 24.2383 38.7449 24.0657 38.3534C23.7636 37.6682 23.7709 37.0219 24.1503 36.3578C24.3713 35.9972 24.6326 35.7944 25.0507 35.8146C25.4688 35.8348 25.7315 36.099 25.8825 36.4416C25.9041 36.4905 25.9365 36.564 25.958 36.6129ZM24.3738 37.9252C24.6543 38.5615 25.1156 38.6796 25.459 38.2651C25.8023 37.8507 25.8349 36.9302 25.4723 36.5056C25.191 36.1327 24.7944 36.1614 24.5137 36.519C24.1077 36.9903 24.2393 37.4877 24.3738 37.9252Z" fill="black"/>
<path d="M44.0829 8.83715C44.0829 9.47901 44.3236 10.0406 44.805 10.4418C45.1259 10.7092 45.5003 10.8162 45.9282 10.629C46.3294 10.4418 46.5166 10.0941 46.5166 9.66622C46.5166 8.91739 46.2492 8.32901 45.634 7.87436C45.2864 7.63366 44.9654 7.55343 44.591 7.74064C44.2166 7.92785 44.0829 8.27553 44.0829 8.64994C44.0829 8.70343 44.0829 8.78366 44.0829 8.83715ZM46.062 9.39878C46.062 10.0941 45.6875 10.3883 45.2061 10.1476C44.7247 9.90692 44.3236 9.07785 44.484 8.54297C44.591 8.08832 44.9654 7.95459 45.3666 8.16855C45.9282 8.43599 46.0085 8.94413 46.062 9.39878Z" fill="black"/>
<path d="M5.32923 13.6497C5.32923 14.2915 5.08853 14.8531 4.60714 15.2543C4.28621 15.5217 3.91179 15.6287 3.48388 15.4415C3.08272 15.2543 2.89551 14.9066 2.89551 14.4787C2.89551 13.7299 3.16295 13.1415 3.77807 12.6869C4.12574 12.4462 4.44667 12.3659 4.82109 12.5531C5.19551 12.7404 5.32923 13.088 5.32923 13.4624C5.32923 13.5159 5.32923 13.5962 5.32923 13.6497ZM3.35016 14.2113C3.35016 14.9066 3.72458 15.2008 4.20597 14.9601C4.68737 14.7194 5.08853 13.8904 4.92807 13.3555C4.82109 12.9008 4.44667 12.7671 4.04551 12.981C3.48388 13.2485 3.40365 13.7566 3.35016 14.2113Z" fill="black"/>
<path d="M45.6849 13.6501C45.6849 14.292 45.9256 14.8536 46.407 15.2548C46.728 15.5222 47.1024 15.6292 47.5303 15.442C47.9314 15.2548 48.1187 14.9071 48.1187 14.4792C48.1187 13.7304 47.8512 13.142 47.2361 12.6874C46.8884 12.4467 46.5675 12.3664 46.1931 12.5536C45.8187 12.7408 45.6849 13.0885 45.6849 13.4629C45.6849 13.5164 45.6849 13.5967 45.6849 13.6501ZM47.664 14.2118C47.664 14.9071 47.2896 15.2013 46.8082 14.9606C46.3268 14.7199 45.9256 13.8908 46.0861 13.356C46.1931 12.9013 46.5675 12.7676 46.9687 12.9815C47.5303 13.249 47.6105 13.7571 47.664 14.2118Z" fill="black"/>
<path d="M4.53235 18.4661C4.53235 19.1079 4.29166 19.6695 3.81026 20.0707C3.48933 20.3382 3.11491 20.4451 2.687 20.2579C2.28584 20.0707 2.09863 19.723 2.09863 19.2951C2.09863 18.5463 2.36607 17.9579 2.98119 17.5033C3.32887 17.2626 3.6498 17.1823 4.02421 17.3695C4.39863 17.5568 4.53235 17.9044 4.53235 18.2788C4.53235 18.3323 4.53235 18.4126 4.53235 18.4661ZM2.55328 19.0277C2.55328 19.723 2.9277 20.0172 3.4091 19.7765C3.89049 19.5358 4.29166 18.7068 4.13119 18.1719C4.02421 17.7172 3.6498 17.5835 3.24863 17.7975C2.687 18.0649 2.60677 18.573 2.55328 19.0277Z" fill="black"/>
<path d="M46.4852 18.4661C46.4852 19.1079 46.7259 19.6695 47.2073 20.0707C47.5282 20.3382 47.9027 20.4451 48.3306 20.2579C48.7317 20.0707 48.9189 19.723 48.9189 19.2951C48.9189 18.5463 48.6515 17.9579 48.0364 17.5033C47.6887 17.2626 47.3678 17.1823 46.9934 17.3695C46.6189 17.5568 46.4852 17.9044 46.4852 18.2788C46.4852 18.3323 46.4852 18.4126 46.4852 18.4661ZM48.4643 19.0277C48.4643 19.723 48.0899 20.0172 47.6085 19.7765C47.1271 19.5358 46.7259 18.7068 46.8864 18.1719C46.9934 17.7172 47.3678 17.5835 47.7689 17.7975C48.3306 18.0649 48.4108 18.573 48.4643 19.0277Z" fill="black"/>
<circle cx="25.0726" cy="26.8954" r="6.55233" fill="#BACFD0"/>
<circle cx="25.0726" cy="26.8954" r="6.55233" fill="url(#paint15_linear_113_597)"/>
<circle cx="25.0726" cy="26.8954" r="6.55233" stroke="black" stroke-width="0.802326"/>
<circle cx="25.0743" cy="26.8961" r="5.48256" fill="#BACFD0"/>
<circle cx="25.0743" cy="26.8961" r="5.48256" fill="url(#paint16_linear_113_597)"/>
<circle cx="25.0743" cy="26.8961" r="5.48256" fill="url(#paint17_linear_113_597)"/>
<circle cx="25.0743" cy="26.8961" r="5.48256" stroke="black" stroke-width="0.267442"/>
<path d="M26.0474 27.3862C26.8791 28.1479 27.2673 29.0154 27.4613 29.9464C27.5168 30.158 27.4059 30.2638 27.1009 30.3061C25.7979 30.4331 24.4671 30.3484 23.164 30.2849C22.8313 30.2638 22.6927 30.1368 22.665 29.8618C22.6095 28.9308 23.164 28.1902 23.8294 27.4708C23.8849 27.4073 23.968 27.3438 24.0235 27.2804C22.5818 26.6244 22.4432 24.9317 23.3304 24.0431C23.968 23.4083 24.9661 23.239 25.9088 23.6199C27.9049 24.4451 27.6554 26.3705 26.4078 27.1746C26.2692 27.2381 26.186 27.3015 26.0474 27.3862Z" fill="black"/>
<defs>
<linearGradient id="paint0_linear_113_597" x1="1.60205" y1="35.5932" x2="49.2042" y2="35.5932" gradientUnits="userSpaceOnUse">
<stop stop-color="#FFD15B"/>
<stop offset="0.412521" stop-color="#FFE286"/>
<stop offset="0.681286" stop-color="#FFF8C1"/>
<stop offset="0.856295" stop-color="#F5E073"/>
<stop offset="1" stop-color="#FED878"/>
</linearGradient>
<linearGradient id="paint1_linear_113_597" x1="1.02148" y1="15.1967" x2="49.7045" y2="15.1967" gradientUnits="userSpaceOnUse">
<stop stop-color="#FFD15B"/>
<stop offset="0.412521" stop-color="#FFE286"/>
<stop offset="0.681286" stop-color="#FFF8C1"/>
<stop offset="0.856295" stop-color="#F5E073"/>
<stop offset="1" stop-color="#FED878"/>
</linearGradient>
<linearGradient id="paint2_linear_113_597" x1="1.00098" y1="14.7289" x2="50.0819" y2="14.7289" gradientUnits="userSpaceOnUse">
<stop stop-color="#FFC225"/>
<stop offset="0.412521" stop-color="#FFDA66"/>
<stop offset="0.681286" stop-color="#FFEC5F"/>
<stop offset="0.856295" stop-color="#FFDE2E"/>
<stop offset="1" stop-color="#FFC93E"/>
</linearGradient>
<linearGradient id="paint3_linear_113_597" x1="21.8608" y1="21.9231" x2="27.7443" y2="21.9231" gradientUnits="userSpaceOnUse">
<stop stop-color="#FFC225"/>
<stop offset="0.412521" stop-color="#FFDA66"/>
<stop offset="0.681286" stop-color="#FFEC5F"/>
<stop offset="0.856295" stop-color="#FFDE2E"/>
<stop offset="1" stop-color="#FFC93E"/>
</linearGradient>
<linearGradient id="paint4_linear_113_597" x1="1.60205" y1="35.5264" x2="49.0705" y2="35.5264" gradientUnits="userSpaceOnUse">
<stop stop-color="#FFC225"/>
<stop offset="0.412521" stop-color="#FFDA66"/>
<stop offset="0.681286" stop-color="#FFEC5F"/>
<stop offset="0.856295" stop-color="#FFDE2E"/>
<stop offset="1" stop-color="#FFC93E"/>
</linearGradient>
<linearGradient id="paint5_linear_113_597" x1="4.19807" y1="12.6926" x2="4.19807" y2="15.2238" gradientUnits="userSpaceOnUse">
<stop stop-color="#FFFDCA"/>
<stop offset="1" stop-color="#FBFF36"/>
</linearGradient>
<linearGradient id="paint6_linear_113_597" x1="3.40217" y1="17.5044" x2="3.40217" y2="20.0356" gradientUnits="userSpaceOnUse">
<stop stop-color="#FFFDCA"/>
<stop offset="1" stop-color="#FBFF36"/>
</linearGradient>
<linearGradient id="paint7_linear_113_597" x1="45.4182" y1="7.88183" x2="45.4182" y2="10.4131" gradientUnits="userSpaceOnUse">
<stop stop-color="#FFFDCA"/>
<stop offset="1" stop-color="#FBFF36"/>
</linearGradient>
<linearGradient id="paint8_linear_113_597" x1="47.0212" y1="12.699" x2="47.0212" y2="15.2302" gradientUnits="userSpaceOnUse">
<stop stop-color="#FFFDCA"/>
<stop offset="1" stop-color="#FBFF36"/>
</linearGradient>
<linearGradient id="paint9_linear_113_597" x1="47.821" y1="17.5127" x2="47.821" y2="20.0439" gradientUnits="userSpaceOnUse">
<stop stop-color="#FFFDCA"/>
<stop offset="1" stop-color="#FBFF36"/>
</linearGradient>
<linearGradient id="paint10_linear_113_597" x1="5.76447" y1="7.85127" x2="5.76447" y2="10.3825" gradientUnits="userSpaceOnUse">
<stop stop-color="#FFFDCA"/>
<stop offset="1" stop-color="#FBFF36"/>
</linearGradient>
<linearGradient id="paint11_linear_113_597" x1="24.9989" y1="5.31295" x2="24.9989" y2="7.84418" gradientUnits="userSpaceOnUse">
<stop stop-color="#FFFDCA"/>
<stop offset="1" stop-color="#FBFF36"/>
</linearGradient>
<linearGradient id="paint12_linear_113_597" x1="24.9989" y1="10.1274" x2="24.9989" y2="12.6586" gradientUnits="userSpaceOnUse">
<stop stop-color="#FFFDCA"/>
<stop offset="1" stop-color="#FBFF36"/>
</linearGradient>
<linearGradient id="paint13_linear_113_597" x1="24.9989" y1="15.2075" x2="24.9989" y2="17.7387" gradientUnits="userSpaceOnUse">
<stop stop-color="#FFFDCA"/>
<stop offset="1" stop-color="#FBFF36"/>
</linearGradient>
<linearGradient id="paint14_linear_113_597" x1="24.9989" y1="36.0688" x2="24.9989" y2="38.6" gradientUnits="userSpaceOnUse">
<stop stop-color="#FFFDCA"/>
<stop offset="1" stop-color="#FBFF36"/>
</linearGradient>
<linearGradient id="paint15_linear_113_597" x1="25.0726" y1="19.9419" x2="25.0726" y2="33.8489" gradientUnits="userSpaceOnUse">
<stop stop-color="#FFE2BB"/>
<stop offset="1" stop-color="#FEF85D"/>
</linearGradient>
<linearGradient id="paint16_linear_113_597" x1="25.0743" y1="21.2798" x2="25.0743" y2="32.5123" gradientUnits="userSpaceOnUse">
<stop stop-color="#FFDBA9"/>
<stop offset="1" stop-color="#FEBA5D"/>
</linearGradient>
<linearGradient id="paint17_linear_113_597" x1="19.458" y1="26.8958" x2="30.69" y2="26.8958" gradientUnits="userSpaceOnUse">
<stop stop-color="#FFC225"/>
<stop offset="0.412521" stop-color="#FFDA66"/>
<stop offset="0.681286" stop-color="#FFEC5F"/>
<stop offset="0.856295" stop-color="#FFDE2E"/>
<stop offset="1" stop-color="#FFC93E"/>
</linearGradient>
</defs>
</svg>
