<svg width="139" height="138" viewBox="0 0 139 138" fill="none" xmlns="http://www.w3.org/2000/svg">
<g filter="url(#filter0_d_1103_1323)">
<circle cx="69.666" cy="55" r="25" fill="#FEE05C"/>
<circle cx="69.666" cy="55" r="24" stroke="#FEE05C" stroke-width="2"/>
</g>
<path d="M62.375 53.9583H74.7292L70.9479 49.4167C70.7711 49.2039 70.6861 48.9297 70.7114 48.6542C70.7368 48.3788 70.8706 48.1247 71.0833 47.9479C71.2961 47.7711 71.5703 47.686 71.8458 47.7114C72.1212 47.7368 72.3753 47.8706 72.5521 48.0833L77.7604 54.3333C77.7955 54.383 77.8268 54.4353 77.8542 54.4896C77.8542 54.5417 77.8542 54.5729 77.9271 54.625C77.9743 54.7444 77.999 54.8716 78 55C77.999 55.1284 77.9743 55.2556 77.9271 55.375C77.9271 55.4271 77.9271 55.4583 77.8542 55.5104C77.8268 55.5647 77.7955 55.6169 77.7604 55.6667L72.5521 61.9167C72.4542 62.0342 72.3315 62.1288 72.1929 62.1936C72.0542 62.2584 71.903 62.2919 71.75 62.2917C71.5066 62.2921 71.2708 62.2074 71.0833 62.0521C70.9779 61.9646 70.8907 61.8572 70.8268 61.736C70.7629 61.6148 70.7235 61.4822 70.7109 61.3458C70.6983 61.2094 70.7128 61.0718 70.7535 60.9409C70.7941 60.8101 70.8602 60.6886 70.9479 60.5833L74.7292 56.0417H62.375C62.0988 56.0417 61.8338 55.9319 61.6385 55.7366C61.4431 55.5412 61.3334 55.2763 61.3334 55C61.3334 54.7237 61.4431 54.4588 61.6385 54.2634C61.8338 54.0681 62.0988 53.9583 62.375 53.9583Z" fill="white"/>
<defs>
<filter id="filter0_d_1103_1323" x="0.666016" y="0" width="138" height="138" filterUnits="userSpaceOnUse" color-interpolation-filters="sRGB">
<feFlood flood-opacity="0" result="BackgroundImageFix"/>
<feColorMatrix in="SourceAlpha" type="matrix" values="0 0 0 0 0 0 0 0 0 0 0 0 0 0 0 0 0 0 127 0" result="hardAlpha"/>
<feOffset dy="14"/>
<feGaussianBlur stdDeviation="22"/>
<feColorMatrix type="matrix" values="0 0 0 0 0.0561111 0 0 0 0 0.0777333 0 0 0 0 0.133333 0 0 0 0.08 0"/>
<feBlend mode="normal" in2="BackgroundImageFix" result="effect1_dropShadow_1103_1323"/>
<feBlend mode="normal" in="SourceGraphic" in2="effect1_dropShadow_1103_1323" result="shape"/>
</filter>
</defs>
</svg>
