<svg width="50" height="50" viewBox="0 0 50 50" fill="none" xmlns="http://www.w3.org/2000/svg">
<circle cx="25" cy="25" r="24" transform="matrix(-1 0 0 1 50 0)" stroke="#FEE05C" stroke-width="2"/>
<path d="M17.709 23.9583H30.0632L26.2819 19.4167C26.1051 19.2039 26.02 18.9297 26.0454 18.6542C26.0708 18.3788 26.2046 18.1247 26.4173 17.9479C26.6301 17.7711 26.9043 17.686 27.1797 17.7114C27.4552 17.7368 27.7093 17.8706 27.8861 18.0833L33.0944 24.3333C33.1294 24.383 33.1608 24.4353 33.1882 24.4896C33.1882 24.5417 33.1882 24.5729 33.2611 24.625C33.3083 24.7444 33.333 24.8716 33.334 25C33.333 25.1284 33.3083 25.2556 33.2611 25.375C33.2611 25.4271 33.2611 25.4583 33.1882 25.5104C33.1608 25.5647 33.1294 25.6169 33.0944 25.6667L27.8861 31.9167C27.7881 32.0342 27.6655 32.1288 27.5269 32.1936C27.3882 32.2584 27.237 32.2919 27.084 32.2917C26.8406 32.2921 26.6047 32.2074 26.4173 32.0521C26.3118 31.9646 26.2247 31.8572 26.1608 31.736C26.0968 31.6148 26.0575 31.4822 26.0449 31.3458C26.0323 31.2094 26.0468 31.0718 26.0874 30.9409C26.1281 30.8101 26.1942 30.6886 26.2819 30.5833L30.0632 26.0417H17.709C17.4327 26.0417 17.1678 25.9319 16.9724 25.7366C16.7771 25.5412 16.6673 25.2763 16.6673 25C16.6673 24.7237 16.7771 24.4588 16.9724 24.2634C17.1678 24.0681 17.4327 23.9583 17.709 23.9583Z" fill="#FEE05C"/>
</svg>
