<svg width="50" height="50" viewBox="0 0 50 50" fill="none" xmlns="http://www.w3.org/2000/svg">
<circle cx="25" cy="25" r="24" transform="matrix(-1 0 0 1 50 0)" fill="#FEE05C" stroke="#FEE05C" stroke-width="2"/>
<path d="M32.291 23.9583H19.9368L23.7181 19.4167C23.8949 19.2039 23.98 18.9297 23.9546 18.6542C23.9292 18.3788 23.7954 18.1247 23.5827 17.9479C23.3699 17.7711 23.0957 17.686 22.8203 17.7114C22.5448 17.7368 22.2907 17.8706 22.1139 18.0833L16.9056 24.3333C16.8706 24.383 16.8392 24.4353 16.8118 24.4896C16.8118 24.5417 16.8118 24.5729 16.7389 24.625C16.6917 24.7444 16.667 24.8716 16.666 25C16.667 25.1284 16.6917 25.2556 16.7389 25.375C16.7389 25.4271 16.7389 25.4583 16.8118 25.5104C16.8392 25.5647 16.8706 25.6169 16.9056 25.6667L22.1139 31.9167C22.2119 32.0342 22.3345 32.1288 22.4731 32.1936C22.6118 32.2584 22.763 32.2919 22.916 32.2917C23.1594 32.2921 23.3953 32.2074 23.5827 32.0521C23.6882 31.9646 23.7753 31.8572 23.8392 31.736C23.9032 31.6148 23.9425 31.4822 23.9551 31.3458C23.9677 31.2094 23.9532 31.0718 23.9126 30.9409C23.8719 30.8101 23.8058 30.6886 23.7181 30.5833L19.9368 26.0417H32.291C32.5673 26.0417 32.8322 25.9319 33.0276 25.7366C33.2229 25.5412 33.3327 25.2763 33.3327 25C33.3327 24.7237 33.2229 24.4588 33.0276 24.2634C32.8322 24.0681 32.5673 23.9583 32.291 23.9583Z" fill="white"/>
</svg>
