<svg width="28" height="26" viewBox="0 0 28 26" fill="none" xmlns="http://www.w3.org/2000/svg">
<path fill-rule="evenodd" clip-rule="evenodd" d="M9.53188 3.93275C10.5582 3.8855 10.8855 3.875 13.5 3.875C16.1145 3.875 16.4418 3.88637 17.4673 3.93275C18.4928 3.97912 19.1927 4.14275 19.8052 4.37988C20.4466 4.62225 21.0285 5.00112 21.5098 5.49112C21.9998 5.9715 22.3778 6.5525 22.6193 7.19475C22.8573 7.80725 23.02 8.50725 23.0672 9.531C23.1145 10.5591 23.125 10.8864 23.125 13.5C23.125 16.1145 23.1136 16.4417 23.0672 17.4681C23.0209 18.4919 22.8573 19.1919 22.6193 19.8044C22.3777 20.4467 21.9991 21.0287 21.5098 21.5098C21.0285 21.9998 20.4466 22.3778 19.8052 22.6193C19.1927 22.8573 18.4927 23.02 17.469 23.0672C16.4417 23.1145 16.1145 23.125 13.5 23.125C10.8855 23.125 10.5582 23.1136 9.53188 23.0672C8.50813 23.0209 7.80813 22.8573 7.19563 22.6193C6.55331 22.3777 5.97134 21.9991 5.49025 21.5098C5.00058 21.0291 4.62165 20.4474 4.37988 19.8052C4.14275 19.1927 3.98 18.4927 3.93275 17.469C3.8855 16.4409 3.875 16.1136 3.875 13.5C3.875 10.8855 3.88637 10.5582 3.93275 9.53275C3.97912 8.50725 4.14275 7.80725 4.37988 7.19475C4.62201 6.55257 5.00123 5.9709 5.49112 5.49025C5.97154 5.00069 6.55291 4.62176 7.19475 4.37988C7.80725 4.14275 8.50725 3.98 9.531 3.93275H9.53188ZM17.3894 5.66525C16.3744 5.61888 16.0699 5.60925 13.5 5.60925C10.9301 5.60925 10.6256 5.61888 9.61062 5.66525C8.67175 5.70812 8.1625 5.86475 7.823 5.99688C7.37413 6.17188 7.053 6.37925 6.71613 6.71613C6.39679 7.0268 6.15103 7.405 5.99688 7.823C5.86475 8.1625 5.70812 8.67175 5.66525 9.61062C5.61888 10.6256 5.60925 10.9301 5.60925 13.5C5.60925 16.0699 5.61888 16.3744 5.66525 17.3894C5.70812 18.3282 5.86475 18.8375 5.99688 19.177C6.15087 19.5944 6.39675 19.9732 6.71613 20.2839C7.02675 20.6033 7.40563 20.8491 7.823 21.0031C8.1625 21.1353 8.67175 21.2919 9.61062 21.3348C10.6256 21.3811 10.9293 21.3907 13.5 21.3907C16.0708 21.3907 16.3744 21.3811 17.3894 21.3348C18.3282 21.2919 18.8375 21.1353 19.177 21.0031C19.6259 20.8281 19.947 20.6208 20.2839 20.2839C20.6033 19.9732 20.8491 19.5944 21.0031 19.177C21.1353 18.8375 21.2919 18.3282 21.3348 17.3894C21.3811 16.3744 21.3907 16.0699 21.3907 13.5C21.3907 10.9301 21.3811 10.6256 21.3348 9.61062C21.2919 8.67175 21.1353 8.1625 21.0031 7.823C20.8281 7.37413 20.6208 7.053 20.2839 6.71613C19.9732 6.39681 19.595 6.15106 19.177 5.99688C18.8375 5.86475 18.3282 5.70812 17.3894 5.66525ZM12.2706 16.4671C12.9572 16.7529 13.7217 16.7915 14.4336 16.5763C15.1454 16.361 15.7605 15.9053 16.1737 15.287C16.5868 14.6686 16.7725 13.926 16.699 13.186C16.6255 12.4459 16.2974 11.7544 15.7706 11.2294C15.4348 10.8938 15.0288 10.6368 14.5818 10.477C14.1348 10.3172 13.6579 10.2584 13.1854 10.305C12.713 10.3516 12.2568 10.5024 11.8496 10.7465C11.4424 10.9906 11.0944 11.3219 10.8306 11.7166C10.5669 12.1113 10.3939 12.5596 10.3242 13.0292C10.2545 13.4988 10.2898 13.978 10.4275 14.4323C10.5652 14.8866 10.8019 15.3048 11.1206 15.6566C11.4393 16.0085 11.8321 16.2853 12.2706 16.4671ZM10.0017 10.0017C10.4611 9.54235 11.0065 9.17794 11.6068 8.92932C12.207 8.68069 12.8503 8.55273 13.5 8.55273C14.1497 8.55273 14.793 8.68069 15.3932 8.92932C15.9935 9.17794 16.5389 9.54235 16.9983 10.0017C17.4576 10.4611 17.8221 11.0065 18.0707 11.6068C18.3193 12.207 18.4473 12.8503 18.4473 13.5C18.4473 14.1497 18.3193 14.793 18.0707 15.3932C17.8221 15.9935 17.4576 16.5389 16.9983 16.9983C16.0705 17.926 14.8121 18.4473 13.5 18.4473C12.1879 18.4473 10.9295 17.926 10.0017 16.9983C9.07396 16.0705 8.55273 14.8121 8.55273 13.5C8.55273 12.1879 9.07396 10.9295 10.0017 10.0017ZM19.5445 9.2895C19.6583 9.18211 19.7495 9.05297 19.8125 8.90973C19.8756 8.76648 19.9092 8.61205 19.9115 8.45556C19.9138 8.29908 19.8846 8.14373 19.8258 7.99871C19.767 7.85369 19.6796 7.72195 19.569 7.61128C19.4583 7.50062 19.3266 7.41329 19.1815 7.35445C19.0365 7.29562 18.8812 7.26648 18.7247 7.26876C18.5682 7.27104 18.4138 7.3047 18.2705 7.36773C18.1273 7.43077 17.9981 7.52191 17.8907 7.63575C17.6819 7.85715 17.5676 8.15123 17.572 8.45556C17.5764 8.7599 17.6993 9.05052 17.9145 9.26574C18.1297 9.48096 18.4204 9.60383 18.7247 9.60826C19.029 9.6127 19.3231 9.49835 19.5445 9.2895Z" fill="#FFCC5A"/>
</svg>
