<svg width="28" height="26" viewBox="0 0 28 26" fill="none" xmlns="http://www.w3.org/2000/svg">
<path d="M22.5714 6H5.42857C5.04969 6 4.68633 6.15051 4.41842 6.41842C4.15051 6.68633 4 7.04969 4 7.42857V18.8571C4 19.236 4.15051 19.5994 4.41842 19.8673C4.68633 20.1352 5.04969 20.2857 5.42857 20.2857H22.5714C22.9503 20.2857 23.3137 20.1352 23.5816 19.8673C23.8495 19.5994 24 19.236 24 18.8571V7.42857C24 7.04969 23.8495 6.68633 23.5816 6.41842C23.3137 6.15051 22.9503 6 22.5714 6ZM21 7.42857L14 12.2714L7 7.42857H21ZM5.42857 18.8571V8.07857L13.5929 13.7286C13.7124 13.8115 13.8545 13.856 14 13.856C14.1455 13.856 14.2876 13.8115 14.4071 13.7286L22.5714 8.07857V18.8571H5.42857Z" fill="#FFCC5A"/>
</svg>
