<svg width="28" height="26" viewBox="0 0 28 26" fill="none" xmlns="http://www.w3.org/2000/svg">
<path d="M4.48259 20.9519L5.58728 5.80509C5.67833 4.55821 6.64646 3.59619 7.81049 3.59619H17.6406H19.1062H22.6536C22.7592 3.59619 22.8096 3.73512 22.7316 3.81201C22.7316 3.81201 21.4416 4.72773 20.8856 5.23451C20.8839 5.23539 20.8831 5.23714 20.8815 5.23801C20.7514 5.35946 20.7157 5.52635 20.9376 5.67227L21.1449 5.78674L22.5007 6.58187C22.578 6.62731 22.582 6.74614 22.5064 6.79594L21.57 7.42856C21.1449 7.79816 21.0847 7.88554 21.0847 8.46747L22.0333 21.3565C22.1187 22.5317 21.2546 23.5365 20.158 23.5365H6.70498C5.4052 23.5365 4.38098 22.3456 4.48259 20.9519Z" fill="#FFCC5A" stroke="black" stroke-width="0.64611" stroke-miterlimit="10"/>
<path d="M6.52874 21.707H13.2568V3.96191H7.65436C6.77344 3.96191 6.04089 4.63996 5.97253 5.51862L4.84691 19.8867C4.77001 20.868 5.5445 21.707 6.52874 21.707Z" fill="#FFCC5A"/>
<g clip-path="url(#clip0_368_109)">
<path d="M4.48259 20.9519L5.58728 5.80509C5.67833 4.55821 6.64646 3.59619 7.81049 3.59619H17.6406H19.1062H22.6536C22.7592 3.59619 22.8096 3.73512 22.7316 3.81201C22.7316 3.81201 21.4416 4.72773 20.8856 5.23451C20.8839 5.23539 20.8831 5.23714 20.8815 5.23801C20.7514 5.35946 20.7157 5.52635 20.9376 5.67227L21.1449 5.78674L22.5007 6.58187C22.578 6.62731 22.582 6.74614 22.5064 6.79594L21.57 7.42856C21.1449 7.79816 21.0847 7.88554 21.0847 8.46747L22.0333 21.3565C22.1187 22.5317 21.2546 23.5365 20.158 23.5365H6.70498C5.4052 23.5365 4.38098 22.3456 4.48259 20.9519Z" stroke="#FFCC5A" stroke-width="0.64611" stroke-miterlimit="10"/>
<path d="M15.2147 18.8813C13.9495 18.8813 12.3198 19.8464 10.6969 19.279C8.97726 18.6778 10.6969 21.3393 13.0654 21.3393C16.3551 21.3393 16.5744 18.8814 15.2147 18.8813Z" fill="white" stroke="black" stroke-width="0.438922"/>
<path d="M4.97323 11.2496L4.94692 11.0371H4.73277H4.14952V9.28965H22.3214V11.0371H21.7381H21.524L21.4977 11.2496L21.0405 14.9431H14.7759L14.0996 11.3031V11.2794C14.0996 11.0581 14.0014 10.852 13.837 10.7045C13.6734 10.5577 13.4567 10.4791 13.2354 10.4791C13.0142 10.4791 12.7975 10.5577 12.6339 10.7045C12.4695 10.852 12.3713 11.0581 12.3713 11.2794V11.3031L11.695 14.9431H5.43044L4.97323 11.2496Z" fill="#6376A8" stroke="black" stroke-width="0.484583"/>
</g>
<defs>
<clipPath id="clip0_368_109">
<rect width="21.1601" height="21.1601" fill="white" transform="translate(3.09961 2.8877)"/>
</clipPath>
</defs>
</svg>
