<svg width="28" height="26" viewBox="0 0 28 26" fill="none" xmlns="http://www.w3.org/2000/svg">
<path d="M22.0432 6.52377L23.1438 20.5632C23.2451 21.855 22.3283 22.5847 21.4374 22.7872L14.3914 24.1235L7.52593 22.9589C6.25197 22.6252 5.57248 22.0275 5.65751 20.9382L6.60265 6.75135L6.73791 2.05399C6.73791 2.05399 6.7784 1.93251 6.94038 2.05399C7.10236 2.17548 7.87177 4.47637 7.99324 4.47637C8.11472 4.47637 8.9651 2.82339 9.08659 2.94487C9.20807 3.06635 9.694 4.47637 9.81549 4.47637H10.6254H19.8282C20.9879 4.47637 21.9525 5.36806 22.0432 6.52377Z" fill="#FFCC5A" stroke="#FFCC5A" stroke-width="0.647911" stroke-miterlimit="10"/>
<path d="M5.80732 14.2264L5.80753 14.2264L5.80587 14.2165L5.41938 11.9071C5.34395 11.3156 5.51222 10.7704 5.86325 10.3791C6.21901 9.98262 6.74141 9.74785 7.30108 9.74785H11.948C12.5207 9.74785 13.0277 9.98774 13.35 10.3949C13.427 10.5001 13.4936 10.6078 13.546 10.7258L13.6258 10.905L13.8178 10.8649C14.1184 10.802 14.4249 10.8022 14.7163 10.8646L14.909 10.9059L14.9891 10.7258C15.042 10.607 15.1081 10.5009 15.1891 10.3997L15.1892 10.3997L15.1919 10.3962C15.5054 9.98965 16.0119 9.74785 16.5949 9.74785H21.2418C21.8011 9.74785 22.3231 9.98227 22.6789 10.3782C23.0242 10.7712 23.1911 11.3177 23.1234 11.877L22.7293 14.2477L22.729 14.2477L22.7278 14.2582C22.5958 15.3409 21.5941 16.227 20.4674 16.227H18.1439C17.0473 16.227 15.967 15.382 15.6998 14.3211L15.6976 14.3123L15.6947 14.3038L14.9977 12.2065L14.9734 12.1333L14.9112 12.0875C14.5312 11.8077 14.004 11.8077 13.624 12.0875L13.5617 12.1334L13.5374 12.2068L12.8249 14.3582L12.822 14.367L12.8197 14.376C12.5685 15.387 11.4985 16.227 10.399 16.227H8.07557C6.94361 16.227 5.94703 15.3433 5.80732 14.2264Z" fill="#0C6A54" stroke="black" stroke-width="0.485934"/>
<path d="M16.2566 18.9937C14.9813 18.9936 13.3384 19.9664 11.7025 19.3945C9.96903 18.7884 11.7025 21.4714 14.0901 21.4714C17.4062 21.4714 17.6273 18.9937 16.2566 18.9937Z" fill="white" stroke="black" stroke-width="0.44245"/>
</svg>
