<svg width="28" height="26" viewBox="0 0 28 26" fill="none" xmlns="http://www.w3.org/2000/svg">
<path d="M21.7149 7.49566L22.7093 21.5314C22.7093 21.5314 23.1659 25.6262 13.6507 25.6262C4.50945 25.6262 4.97768 21.7859 4.97768 21.7859L5.9431 9.94213L6.09283 7.37361C6.17104 6.03207 6.17103 5.46589 7.61234 5.45059C8.18886 5.4445 8.25538 5.45056 8.67669 5.45054L19.4524 5.46589C20.7837 5.46589 21.6223 6.3499 21.7149 7.49566Z" fill="#FFCC5A" stroke="#FFCC5A" stroke-width="0.515669" stroke-miterlimit="10"/>
<path d="M4.75491 5.44873H7.57872C7.48585 9.21404 6.00376 8.98723 6.00376 8.98723C6.00376 8.56452 5.95587 8.50105 5.61746 8.23256L4.87203 7.77303C4.81186 7.73686 4.81509 7.65053 4.87656 7.61753L5.95587 7.03995L6.12087 6.9568C6.29752 6.8508 6.26905 6.72957 6.16552 6.64135C6.16423 6.64071 6.16358 6.63944 6.16229 6.63881C5.71969 6.27068 4.6928 5.6055 4.6928 5.6055C4.63068 5.54965 4.6708 5.44873 4.75491 5.44873Z" fill="#FFCC5A"/>
<path d="M8.32131 5.44873H4.75491C4.6708 5.44873 4.63068 5.54965 4.6928 5.6055C4.6928 5.6055 5.71969 6.27068 6.16229 6.63881C6.16358 6.63944 6.16423 6.64071 6.16552 6.64135C6.26905 6.72957 6.29752 6.8508 6.12087 6.9568L5.95587 7.03995L4.87656 7.61753C4.81509 7.65054 4.81186 7.73686 4.87203 7.77303L5.61746 8.23256C5.95587 8.50105 6.00376 8.56452 6.00376 8.98723" stroke="black" stroke-width="0.515767" stroke-miterlimit="10"/>
<path d="M16.1061 20.6697C14.823 20.6697 13.1702 21.6612 11.5243 21.0782C9.78042 20.4605 11.5244 23.1953 13.9264 23.1953C17.2626 23.1953 17.485 20.6697 16.1061 20.6697Z" fill="white" stroke="black" stroke-width="0.44513"/>
<path d="M1.93018 5.69519L2.46356 5.98939V10.776H1.99549L1.93018 5.69519Z" fill="black" stroke="black" stroke-width="0.219766"/>
<path d="M2.21686 9.61865C1.15735 9.61865 1.25532 13.0733 1.25532 13.0733C1.25532 13.0733 1.18175 13.4171 2.21686 13.4171C3.25197 13.4171 3.1784 13.0733 3.1784 13.0733C3.1784 13.0733 3.27637 9.61865 2.21686 9.61865Z" fill="#F9C81E" stroke="black" stroke-width="0.512788"/>
<path d="M6.02165 9.55348V8.55205C6.02165 8.55205 1.75471 5.64572 1.02706 5.36247C0.299406 5.07922 14.4905 1 14.4905 1C14.4905 1 27.3158 5.65362 26.8884 5.90811C26.461 6.16261 21.7467 8.57407 21.7467 8.57407L21.8128 9.56486C21.6833 9.56486 15.2742 7.61861 6.02165 9.55348Z" fill="#3C3C3B" stroke="black" stroke-width="0.512788"/>
<path d="M5.5 10C5.5 10 5.68377 8.13249 6 7.50002C6.5 6.5 10.3543 4.95163 13.8623 5.00142C17.0826 5.04711 21.3446 6.28094 21.7001 7.56057C21.937 8.41328 22.0001 10 22.0001 10C22.0001 10 15.8042 8.01641 5.5 10Z" fill="#323232" stroke="black" stroke-width="0.512788"/>
<path d="M15.1947 15.4603C15.231 15.1577 15.1455 14.8531 14.9572 14.6136C14.7688 14.374 14.493 14.2191 14.1904 14.1828C13.8879 14.1466 13.5833 14.2321 13.3437 14.4204C13.1041 14.6088 12.9492 14.8846 12.913 15.1871" stroke="black" stroke-width="0.518068"/>
<circle cx="18.8798" cy="14.8891" r="3.76253" transform="rotate(6.82605 18.8798 14.8891)" fill="white" stroke="black" stroke-width="0.518068"/>
<circle cx="9.17059" cy="15.0278" r="3.76253" transform="rotate(6.82605 9.17059 15.0278)" fill="white" stroke="black" stroke-width="0.518068"/>
</svg>
