<svg width="28" height="26" viewBox="0 0 28 26" fill="none" xmlns="http://www.w3.org/2000/svg">
<path d="M22.0867 14.9125C22.1828 14.3852 22.2344 13.8461 22.2344 13.307C22.2344 12.1117 22 10.9516 21.5383 9.86172C21.093 8.80703 20.4531 7.86016 19.6399 7.04688C18.8334 6.23833 17.8773 5.59435 16.825 5.15078C15.7328 4.68906 14.575 4.45469 13.3797 4.45469C12.8172 4.45469 12.2524 4.50859 11.7039 4.61406C10.945 4.21193 10.0995 4.00114 9.24064 4C7.84142 4 6.52423 4.54609 5.53517 5.53516C5.04711 6.02071 4.66015 6.59819 4.39665 7.23421C4.13315 7.87023 3.99834 8.55218 4.00002 9.24063C4.00002 10.1313 4.2297 11.0078 4.65861 11.7813C4.57189 12.2828 4.52502 12.7961 4.52502 13.307C4.52502 14.5023 4.75939 15.6625 5.22111 16.7523C5.66642 17.807 6.30392 18.7539 7.1172 19.5672C7.93048 20.3805 8.87736 21.018 9.93205 21.4633C11.0242 21.925 12.182 22.1594 13.3774 22.1594C13.8977 22.1594 14.418 22.1125 14.9289 22.0211C15.7141 22.4641 16.6 22.7008 17.507 22.7008C18.9063 22.7008 20.2235 22.157 21.2125 21.1656C22.2039 20.1766 22.7477 18.8594 22.7477 17.4602C22.75 16.5695 22.5203 15.6906 22.0867 14.9125ZM20.0219 19.975C19.3492 20.65 18.461 21.0156 17.5094 21.0156C16.8977 21.0156 16.2953 20.8563 15.761 20.5539L15.2336 20.2563L14.636 20.3617C14.2188 20.4367 13.7969 20.4742 13.3797 20.4742C12.4094 20.4742 11.4742 20.2844 10.5883 19.9094C9.73752 19.5508 8.97111 19.0352 8.31017 18.3742C7.65591 17.7222 7.13453 16.9493 6.77502 16.0984C6.40002 15.2148 6.21252 14.2797 6.21252 13.3094C6.21252 12.9016 6.25002 12.4844 6.32033 12.0719L6.42345 11.4836L6.13283 10.9609C5.8397 10.4349 5.68562 9.84281 5.68517 9.24063C5.68517 8.28906 6.05314 7.40078 6.7258 6.72813C7.4008 6.05547 8.28908 5.6875 9.24064 5.6875C9.82428 5.68908 10.3987 5.83309 10.9141 6.10703L11.4391 6.38359L12.0203 6.27109C12.4633 6.18672 12.9203 6.14219 13.3797 6.14219C14.35 6.14219 15.2852 6.33203 16.1688 6.70469C17.0242 7.06563 17.7883 7.58125 18.4469 8.23984C19.1078 8.89844 19.6235 9.66484 19.9844 10.518C20.3594 11.4016 20.5469 12.3367 20.5469 13.307C20.5469 13.7383 20.507 14.1742 20.4274 14.6078L20.3172 15.2055L20.6125 15.7352C20.9078 16.2625 21.0625 16.8602 21.0625 17.4625C21.0625 18.4164 20.6945 19.3023 20.0219 19.975ZM15.0485 12.2781L12.9766 11.8188C12.1891 11.6383 11.282 11.4016 11.282 10.6586C11.282 9.91563 11.9172 9.39531 13.0656 9.39531C15.3789 9.39531 15.168 10.9844 16.3164 10.9844C16.9211 10.9844 17.4508 10.6281 17.4508 10.0188C17.4508 8.59375 15.168 7.52266 13.232 7.52266C11.1297 7.52266 8.89142 8.41562 8.89142 10.7922C8.89142 11.9359 9.29923 13.1547 11.5539 13.7195L14.3524 14.418C15.1985 14.6266 15.4117 15.1023 15.4117 15.5336C15.4117 16.2484 14.7016 16.9469 13.4149 16.9469C10.9024 16.9469 11.2516 15.0133 9.90627 15.0133C9.30158 15.0133 8.8633 15.4305 8.8633 16.0234C8.8633 17.1813 10.2695 18.7281 13.4149 18.7281C16.4078 18.7281 17.8914 17.2867 17.8914 15.3531C17.8914 14.1086 17.3172 12.7844 15.0485 12.2781Z" fill="#FFCC5A"/>
</svg>
