<svg width="28" height="26" viewBox="0 0 28 26" fill="none" xmlns="http://www.w3.org/2000/svg">
<path d="M24 13.5492C24 13.4977 24 13.4391 23.9977 13.3711C23.9953 13.1813 23.9906 12.968 23.9859 12.7406C23.9672 12.0867 23.9344 11.4352 23.8828 10.8211C23.8125 9.975 23.7094 9.26953 23.5687 8.73984C23.4204 8.18707 23.1295 7.68293 22.7252 7.2778C22.3209 6.87268 21.8173 6.58077 21.2648 6.43125C20.6016 6.25312 19.3031 6.14297 17.475 6.075C16.6055 6.04219 15.675 6.02109 14.7445 6.00937C14.4187 6.00469 14.1164 6.00234 13.8445 6H13.1555C12.8836 6.00234 12.5813 6.00469 12.2555 6.00937C11.325 6.02109 10.3945 6.04219 9.525 6.075C7.69687 6.14531 6.39609 6.25547 5.73516 6.43125C5.1825 6.5804 4.67876 6.87219 4.2744 7.27737C3.87004 7.68255 3.57928 8.18689 3.43125 8.73984C3.28828 9.26953 3.1875 9.975 3.11719 10.8211C3.06562 11.4352 3.03281 12.0867 3.01406 12.7406C3.00703 12.968 3.00469 13.1813 3.00234 13.3711C3.00234 13.4391 3 13.4977 3 13.5492V13.6805C3 13.732 3 13.7906 3.00234 13.8586C3.00469 14.0484 3.00937 14.2617 3.01406 14.4891C3.03281 15.143 3.06562 15.7945 3.11719 16.4086C3.1875 17.2547 3.29063 17.9602 3.43125 18.4898C3.73125 19.6125 4.6125 20.4984 5.73516 20.7984C6.39609 20.9766 7.69687 21.0867 9.525 21.1547C10.3945 21.1875 11.325 21.2086 12.2555 21.2203C12.5813 21.225 12.8836 21.2273 13.1555 21.2297H13.8445C14.1164 21.2273 14.4187 21.225 14.7445 21.2203C15.675 21.2086 16.6055 21.1875 17.475 21.1547C19.3031 21.0844 20.6039 20.9742 21.2648 20.7984C22.3875 20.4984 23.2687 19.6148 23.5687 18.4898C23.7117 17.9602 23.8125 17.2547 23.8828 16.4086C23.9344 15.7945 23.9672 15.143 23.9859 14.4891C23.993 14.2617 23.9953 14.0484 23.9977 13.8586C23.9977 13.7906 24 13.732 24 13.6805V13.5492ZM22.3125 13.6711C22.3125 13.7203 22.3125 13.7742 22.3102 13.8375C22.3078 14.0203 22.3031 14.2219 22.2984 14.4398C22.282 15.0633 22.2492 15.6867 22.2 16.2656C22.1367 17.0203 22.0477 17.6391 21.9375 18.0539C21.7922 18.5953 21.3656 19.0242 20.8266 19.1672C20.3344 19.2984 19.0945 19.4039 17.4094 19.4672C16.5562 19.5 15.6375 19.5211 14.7211 19.5328C14.4 19.5375 14.1023 19.5398 13.8352 19.5398H13.1648L12.2789 19.5328C11.3625 19.5211 10.4461 19.5 9.59063 19.4672C7.90547 19.4016 6.66328 19.2984 6.17344 19.1672C5.63437 19.0219 5.20781 18.5953 5.0625 18.0539C4.95234 17.6391 4.86328 17.0203 4.8 16.2656C4.75078 15.6867 4.72031 15.0633 4.70156 14.4398C4.69453 14.2219 4.69219 14.018 4.68984 13.8375C4.68984 13.7742 4.6875 13.718 4.6875 13.6711V13.5586C4.6875 13.5094 4.6875 13.4555 4.68984 13.3922C4.69219 13.2094 4.69688 13.0078 4.70156 12.7898C4.71797 12.1664 4.75078 11.543 4.8 10.9641C4.86328 10.2094 4.95234 9.59063 5.0625 9.17578C5.20781 8.63438 5.63437 8.20547 6.17344 8.0625C6.66562 7.93125 7.90547 7.82578 9.59063 7.7625C10.4438 7.72969 11.3625 7.70859 12.2789 7.69687C12.6 7.69219 12.8977 7.68984 13.1648 7.68984H13.8352L14.7211 7.69687C15.6375 7.70859 16.5539 7.72969 17.4094 7.7625C19.0945 7.82812 20.3367 7.93125 20.8266 8.0625C21.3656 8.20781 21.7922 8.63438 21.9375 9.17578C22.0477 9.59063 22.1367 10.2094 22.2 10.9641C22.2492 11.543 22.2797 12.1664 22.2984 12.7898C22.3055 13.0078 22.3078 13.2117 22.3102 13.3922C22.3102 13.4555 22.3125 13.5117 22.3125 13.5586V13.6711ZM11.4141 16.7555L16.8516 13.5914L11.4141 10.4742V16.7555Z" fill="#FFCC5A"/>
</svg>
